<?xml version="1.0" encoding="UTF-8" standalone="no"?>
<svg
   width="16"
   height="16"
   version="1.1"
   id="svg5"
   sodipodi:docname="tc.svg"
   inkscape:version="1.4.2 (unknown)"
   xmlns:inkscape="http://www.inkscape.org/namespaces/inkscape"
   xmlns:sodipodi="http://sodipodi.sourceforge.net/DTD/sodipodi-0.dtd"
   xmlns="http://www.w3.org/2000/svg"
   xmlns:svg="http://www.w3.org/2000/svg">
  <defs
     id="defs5" />
  <sodipodi:namedview
     id="namedview5"
     pagecolor="#ffffff"
     bordercolor="#000000"
     borderopacity="0.25"
     inkscape:showpageshadow="2"
     inkscape:pageopacity="0.0"
     inkscape:pagecheckerboard="0"
     inkscape:deskcolor="#d1d1d1"
     showgrid="true"
     inkscape:zoom="33.45499"
     inkscape:cx="8.6982541"
     inkscape:cy="7.936036"
     inkscape:current-layer="svg5">
    <inkscape:grid
       id="grid5"
       units="px"
       originx="0"
       originy="0"
       spacingx="1"
       spacingy="1"
       empcolor="#0099e5"
       empopacity="0.30196078"
       color="#0099e5"
       opacity="0.14901961"
       empspacing="5"
       enabled="true"
       visible="true" />
  </sodipodi:namedview>
  <g
     id="g5"
     transform="matrix(1.2307692,0,0,1.252745,-2.461538,-15.54115)"
     style="stroke-width:0.805342">
    <path
       style="opacity:0.2;stroke-width:0.805321"
       d="m 10.088606,15.216609 c -0.5598189,0 -1.0652817,0.239269 -1.4294926,0.617831 0.6548611,0.503801 1.1408852,1.20139 1.1408852,1.98217 H 8.9333351 c 0,-0.369233 -0.2913888,-0.86855 -0.7515647,-1.251761 C 7.8292149,16.276067 7.3935226,16.083268 6.9113925,16.083268 H 4.0219396 c -1.0915042,0 -2.0219398,0.887762 -2.0219398,1.988084 V 19.7539 c 0,1.100326 0.9533504,1.962703 2.0219398,1.962703 H 5.033333 a 0.86675338,0.86675338 0 0 0 1.4523431,0.63899 l 0.6973953,-0.63899 H 6.9113925 c 0.5538713,0 1.0636975,-0.237556 1.4311842,-0.616993 -0.655603,-0.50388 -1.1425781,-1.201644 -1.1425781,-1.983003 h 0.8666669 c 0,0.382814 0.3132707,0.905168 0.8031895,1.293225 0.3466398,0.264989 0.7650503,0.440098 1.218751,0.440098 h 1.028324 l 0.697388,0.639002 A 0.86675338,0.86675338 0 0 0 13.26666,20.84993 V 20.79234 C 14.208323,20.650363 15,19.88402 15,18.887247 v -1.682548 c 0,-1.100322 -0.930441,-1.988085 -2.021949,-1.988085 z"
       id="path1" />
    <path
       style="fill:#5d51ae;stroke-width:0.805321"
       d="m 10.088606,15.000002 c -0.5598189,0 -1.0652817,0.23927 -1.4294926,0.617832 0.6548611,0.5038 1.1408852,1.201384 1.1408852,1.982164 H 8.9333351 c 0,-0.369227 -0.2913888,-0.868544 -0.7515647,-1.25175 C 7.8292149,16.059464 7.3935226,15.866664 6.9113925,15.866664 H 4.0219396 c -1.0915042,0 -2.0219398,0.887759 -2.0219398,1.988082 v 1.682562 c 0,1.100324 0.9533504,1.962693 2.0219398,1.962693 H 5.033333 A 0.86675338,0.86675338 0 0 0 6.4856761,22.139 L 7.1830714,21.500001 H 6.9113925 c 0.5538713,0 1.0636975,-0.237558 1.4311842,-0.616995 -0.655603,-0.50388 -1.1425781,-1.201644 -1.1425781,-1.983008 h 0.8666669 c 0,0.382819 0.3132707,0.905172 0.8031895,1.29323 0.3466398,0.264997 0.7650503,0.440106 1.218751,0.440106 h 1.028324 l 0.697388,0.638993 a 0.86675338,0.86675338 0 0 0 1.452342,-0.638993 v -0.05759 C 14.208323,20.433763 15,19.667423 15,18.670643 v -1.682554 c 0,-1.100322 -0.930441,-1.988084 -2.021949,-1.988084 z"
       id="path2" />
    <path
       style="opacity:0.2;stroke-width:0.805321"
       d="m 10.088606,16.083268 c -0.6401838,0 -1.1552709,0.500063 -1.1552709,1.121424 v 1.682548 c 0,0.621346 0.5150871,1.096028 1.1552709,1.096028 h 1.365176 L 12.4,20.84993 v -0.866662 h 0.578051 c 0.640185,0 1.155286,-0.474682 1.155286,-1.096028 v -1.682548 c 0,-0.621361 -0.515101,-1.121424 -1.155286,-1.121424 z m -6.0666664,0.866661 c -0.6401776,0 -1.1552734,0.500084 -1.1552734,1.121423 V 19.7539 c 0,0.621362 0.5150958,1.09603 1.1552734,1.09603 h 1.8780598 v 0.866673 L 6.8462215,20.84993 h 0.065172 c 0.6401798,0 1.1552732,-0.474668 1.1552732,-1.09603 v -1.682548 c 0,-0.621339 -0.5150934,-1.121423 -1.1552736,-1.121423 z"
       id="path3" />
    <path
       style="fill:#ffffff;stroke-width:0.805321"
       d="m 10.088606,15.866664 c -0.6401838,0 -1.1552709,0.500075 -1.1552709,1.12142 v 1.682552 c 0,0.621355 0.5150871,1.096027 1.1552709,1.096027 h 1.365176 L 12.4,20.633334 v -0.866671 h 0.578051 c 0.640185,0 1.155286,-0.474672 1.155286,-1.096027 v -1.682552 c 0,-0.621345 -0.515101,-1.12142 -1.155286,-1.12142 z m -6.0666664,0.86667 c -0.6401776,0 -1.1552734,0.500072 -1.1552734,1.121412 v 1.682562 c 0,0.621345 0.5150958,1.096026 1.1552734,1.096026 h 1.8780598 v 0.866667 l 0.9462221,-0.866667 h 0.065172 c 0.6401802,0 1.1552736,-0.474681 1.1552736,-1.096026 v -1.682562 c 0,-0.62134 -0.5150934,-1.121412 -1.1552736,-1.121412 z"
       id="path4" />
    <path
       style="opacity:0.1;fill:#ffffff;stroke-width:0.805321"
       d="m 10.088606,15.000002 c -0.5598189,0 -1.0652817,0.23927 -1.4294926,0.617832 0.042126,0.03236 0.08127,0.06762 0.1218768,0.101545 0.3514399,-0.310788 0.8073533,-0.502739 1.3076158,-0.502739 h 2.889445 C 14.069559,15.21664 15,16.104403 15,17.204726 v -0.21666 C 15,15.887742 14.069559,14.99998 12.978051,14.99998 Z m -6.0666664,0.866662 c -1.0915042,0 -2.0219398,0.887759 -2.0219398,1.988082 v 0.216678 c 0,-1.100324 0.9304356,-1.988089 2.0219398,-1.988089 h 2.8894529 c 0.4821308,0 0.9178224,0.192797 1.2703779,0.481572 0.4601759,0.38321 0.7515647,0.882533 0.7515647,1.251757 h 0.8666635 c 0,-0.07307 -0.00596,-0.145161 -0.01359,-0.216666 H 8.9333213 c 0,-0.369227 -0.2913886,-0.868544 -0.7515658,-1.25175 C 7.8292048,16.059464 7.3935139,15.866664 6.9113829,15.866664 Z m 3.178059,3.249999 c 0,0.73107 0.4284376,1.38666 1.0202817,1.881027 0.042016,-0.03695 0.083379,-0.07452 0.1222964,-0.11467 C 7.7482518,20.426233 7.2935414,19.809964 7.2135415,19.116672 Z m -0.251365,2.59789 c -0.012501,2.44e-4 -0.024672,0.0024 -0.037223,0.0024 h 0.035124 z"
       id="path5" />
  </g>
</svg>
