<?xml version="1.0" encoding="UTF-8" standalone="no"?>
<svg
   width="16"
   height="16"
   version="1.1"
   id="svg29"
   sodipodi:docname="io.github.flattool.Warehouse.svg"
   inkscape:version="1.4.4 (unknown)"
   xmlns:inkscape="http://www.inkscape.org/namespaces/inkscape"
   xmlns:sodipodi="http://sodipodi.sourceforge.net/DTD/sodipodi-0.dtd"
   xmlns:xlink="http://www.w3.org/1999/xlink"
   xmlns="http://www.w3.org/2000/svg"
   xmlns:svg="http://www.w3.org/2000/svg">
  <defs
     id="defs29">
    <linearGradient
       id="linearGradient1"
       inkscape:collect="always">
      <stop
         style="stop-color:#57b0f6;stop-opacity:1;"
         offset="0"
         id="stop1" />
      <stop
         style="stop-color:#8d5fd3;stop-opacity:1"
         offset="1"
         id="stop2" />
    </linearGradient>
    <linearGradient
       inkscape:collect="always"
       xlink:href="#linearGradient1"
       id="linearGradient2"
       x1="24.437351"
       y1="30.99982"
       x2="54.911242"
       y2="30.99982"
       gradientUnits="userSpaceOnUse"
       gradientTransform="matrix(0.30667874,0,0,0.30737766,-1.8403983,-1.5286521)" />
    <linearGradient
       inkscape:collect="always"
       xlink:href="#linearGradient1"
       id="linearGradient4"
       x1="6.5999999"
       y1="8"
       x2="14.05373"
       y2="8"
       gradientUnits="userSpaceOnUse" />
  </defs>
  <sodipodi:namedview
     id="namedview29"
     pagecolor="#ffffff"
     bordercolor="#000000"
     borderopacity="0.25"
     inkscape:showpageshadow="2"
     inkscape:pageopacity="0.0"
     inkscape:pagecheckerboard="0"
     inkscape:deskcolor="#d1d1d1"
     inkscape:zoom="20"
     inkscape:cx="6.5"
     inkscape:cy="17.575"
     inkscape:window-width="1920"
     inkscape:window-height="996"
     inkscape:window-x="0"
     inkscape:window-y="0"
     inkscape:window-maximized="1"
     inkscape:current-layer="svg29" />
  <g
     id="g1"
     transform="translate(-2.3268648)">
    <path
       d="M 14.494152,2.3749658 V 13.625034 c 0,0.203595 -0.164112,0.36883 -0.366322,0.36883 H 6.5259002 c -0.2022102,0 -0.3663226,-0.165235 -0.3663226,-0.36883 V 2.3749658 c 0,-0.2035944 0.1641124,-0.3688301 0.3663226,-0.3688301 H 14.12783 c 0.20221,0 0.366322,0.1652357 0.366322,0.3688301 z"
       fill="#5f5f5f"
       id="path3"
       style="fill:#486184;fill-opacity:0.01;stroke:url(#linearGradient2);stroke-width:1.01227;stroke-dasharray:none" />
    <path
       d="m 11.265836,4.9718307 v 2.05955 c 0,0.2035944 -0.164113,0.3688305 -0.366323,0.3688305 h -3.63319 c -0.2022102,0 -0.3663228,-0.1652361 -0.3663228,-0.3688305 v -2.05955 c 0,-0.2035944 0.1641126,-0.3688305 0.3663228,-0.3688305 h 3.63319 c 0.20221,0 0.366323,0.1652361 0.366323,0.3688305 z"
       id="path5"
       style="fill:#80b3ff;fill-opacity:1;stroke-width:0.367575" />
    <rect
       style="fill:url(#linearGradient4);stroke-width:0.94619"
       width="7.4537301"
       height="1.2011138"
       x="6.5999999"
       y="7.3994431"
       id="rect13" />
    <path
       d="m 13.665836,11.068831 v 2.059549 c 0,0.203595 -0.164113,0.368831 -0.366323,0.368831 H 9.6663228 C 9.4641126,13.497211 9.3,13.331975 9.3,13.12838 V 11.068831 C 9.3,10.865236 9.4641126,10.7 9.6663228,10.7 h 3.6331902 c 0.20221,0 0.366323,0.165236 0.366323,0.368831 z"
       id="path5-3"
       style="fill:#c6afe9;fill-opacity:1;stroke-width:0.367575" />
    <rect
       style="fill:#2a7fff;stroke-width:0.200001"
       width="1.6000013"
       height="0.60000026"
       x="7.4829168"
       y="5.4499998"
       id="rect9" />
    <rect
       style="fill:#2a7fff;stroke-width:0.200001"
       width="0.80000067"
       height="0.40000033"
       x="7.4829168"
       y="6.4499969"
       id="rect11" />
    <rect
       style="fill:#7137c8;stroke-width:0.200001"
       width="1.6000013"
       height="0.60000026"
       x="-13.050001"
       y="-13.098601"
       id="rect9-6"
       transform="scale(-1)" />
    <rect
       style="fill:#7137c8;stroke-width:0.200001"
       width="0.80000067"
       height="0.40000033"
       x="-13.050001"
       y="-12.098605"
       id="rect11-2"
       transform="scale(-1)" />
  </g>
</svg>
