<?xml version="1.0" encoding="UTF-8" standalone="no"?>
<!-- Created with Inkscape (http://www.inkscape.org/) -->

<svg
   width="16"
   height="16"
   viewBox="0 0 16 16"
   version="1.1"
   id="svg1"
   xml:space="preserve"
   sodipodi:docname="shelly-tray.svg"
   inkscape:version="1.4.4 (unknown)"
   xmlns:inkscape="http://www.inkscape.org/namespaces/inkscape"
   xmlns:sodipodi="http://sodipodi.sourceforge.net/DTD/sodipodi-0.dtd"
   xmlns="http://www.w3.org/2000/svg"
   xmlns:svg="http://www.w3.org/2000/svg"><sodipodi:namedview
     id="namedview1"
     pagecolor="#ffffff"
     bordercolor="#000000"
     borderopacity="0.25"
     inkscape:showpageshadow="2"
     inkscape:pageopacity="0.0"
     inkscape:pagecheckerboard="false"
     inkscape:deskcolor="#d1d1d1"
     inkscape:document-units="px"
     inkscape:zoom="23.422912"
     inkscape:cx="9.1363533"
     inkscape:cy="7.4926636"
     inkscape:window-width="1920"
     inkscape:window-height="996"
     inkscape:window-x="0"
     inkscape:window-y="0"
     inkscape:window-maximized="1"
     inkscape:current-layer="layer1" /><defs
     id="defs1"><clipPath
       clipPathUnits="userSpaceOnUse"
       id="clipPath9"><g
         inkscape:label="Clip"
         id="use9"><rect
           style="fill:none;stroke:#a000a0;stroke-width:0.559102;stroke-linecap:round;stroke-linejoin:round;stroke-opacity:1"
           id="rect1"
           width="51.200001"
           height="48.301888"
           x="-14.490566"
           y="81.871696"
           ry="7.625" /></g></clipPath></defs><g
     inkscape:label="Ebene 1"
     inkscape:groupmode="layer"
     id="layer1"><path
       id="use10"
       d="M 7.9587605,2.0000251 C 7.7834588,1.9991021 7.5397283,2.0234783 7.234333,2.1024175 6.9289381,2.1813568 6.5674675,2.2866033 6.2974455,2.6516149 5.8861368,3.2076154 5.8203481,3.8841235 5.840455,4.4958466 5.860564,5.1075694 5.9770953,5.686694 6.0403169,6.0742063 6.1789058,6.9236763 6.745846,9.7935042 6.745846,9.7935042 A 0.52344326,0.53176724 0 0 0 7.3620385,10.210638 0.52344326,0.53176724 0 0 0 7.772643,9.5852283 c 0,0 -0.5743877,-2.9191806 -0.6992299,-3.6843912 C 7.0049194,5.4810088 6.9029421,4.9538033 6.8867226,4.4603579 6.8705025,3.9669131 6.9505167,3.5393667 7.1346892,3.2904052 7.1276307,3.2999512 7.2908894,3.1853183 7.4920349,3.1333256 7.6931803,3.0813332 7.9376176,3.0634321 7.9530338,3.0635131 a 0.52344326,0.53176724 0 0 0 0.046962,-0.00179 0.52344326,0.53176724 0 0 0 0.046962,0.00179 c 0.015416,-8.1e-5 0.2598536,0.017821 0.4609989,0.069811 0.2011428,0.051994 0.3649773,0.1666256 0.357916,0.1570801 0.184169,0.2489622 0.2636097,0.6765084 0.2473901,1.1699533 -0.01622,0.4934458 -0.1176237,1.0206513 -0.1861177,1.4404796 -0.1248422,0.7652109 -0.69923,3.6843912 -0.69923,3.6843912 A 0.52344326,0.53176724 0 0 0 8.6385197,10.210638 0.52344326,0.53176724 0 0 0 9.2541392,9.7935042 c 0,0 0.5669394,-2.8698279 0.7055291,-3.7192979 C 10.022894,5.686694 10.139424,5.1075694 10.15953,4.4958466 10.179638,3.8841235 10.113847,3.2076154 9.7025402,2.6516149 9.4325176,2.2866033 9.0716199,2.1813568 8.7662251,2.1024175 8.4608298,2.0234782 8.2170995,1.9991015 8.041798,2.0000251 a 0.52344326,0.53176724 0 0 0 -0.04181,0.00179 0.52344326,0.53176724 0 0 0 -0.041227,-0.00179 z M 4.706569,3.7744436 C 4.4490699,3.7607645 4.1846603,3.8037825 3.9111308,3.8884718 3.5464241,4.0013909 3.1572649,4.1931293 2.9181211,4.6034754 2.6100175,5.1321489 2.599663,5.738992 2.7102417,6.2865548 c 0.1105798,0.5475628 0.3437818,1.0571608 0.6247832,1.4678223 0.1932685,0.2824471 0.5102565,0.7573947 0.798874,1.1874057 0.2886179,0.4300117 0.520274,0.7807041 0.6539892,0.9523687 a 0.52344326,0.53176724 0 0 0 0.735308,0.087268 0.52344326,0.53176724 0 0 0 0.085901,-0.7470006 C 5.5734835,9.1886953 5.2859863,8.7706841 4.9986303,8.3425535 4.7112744,7.9144218 4.395621,7.441358 4.1946019,7.1475839 3.9950225,6.8559137 3.8122898,6.4513379 3.7358935,6.0730426 3.6594976,5.6947476 3.6910457,5.3645463 3.8189307,5.1451092 3.8484037,5.0945367 4.0039144,4.971195 4.2163634,4.9054172 4.4288122,4.8396395 4.6892892,4.8362186 4.7500918,4.8489851 A 0.52344326,0.53176724 0 0 0 5.3685751,4.4359236 0.52344326,0.53176724 0 0 0 4.9619795,3.8076046 C 4.8776667,3.7899026 4.7924019,3.7790036 4.706569,3.7744436 Z m 6.586845,0 c -0.08586,0.00454 -0.171092,0.015457 -0.25541,0.033165 a 0.52344326,0.53176724 0 0 0 -0.406592,0.6283186 0.52344326,0.53176724 0 0 0 0.618481,0.4130615 c 0.0608,-0.012769 0.321278,-0.00933 0.53373,0.056435 0.21245,0.065779 0.367962,0.1891195 0.397435,0.2396917 0.127884,0.2194373 0.160002,0.5496386 0.08363,0.9279338 -0.07642,0.378295 -0.259127,0.7828707 -0.458707,1.0745411 -0.201032,0.2937729 -0.516685,0.7668369 -0.804042,1.1949688 -0.287357,0.4281307 -0.574857,0.846142 -0.610469,0.8918634 a 0.52344326,0.53176724 0 0 0 0.08532,0.7470002 0.52344326,0.53176724 0 0 0 0.735306,-0.08727 C 11.345815,9.7224859 11.578047,9.3717935 11.866663,8.9417819 12.15528,8.5117709 12.472269,8.0368232 12.665537,7.7543761 12.946541,7.3437145 13.179742,6.8341165 13.290322,6.2865536 13.400899,5.738992 13.39054,5.1321489 13.082437,4.6034754 12.843295,4.1931293 12.453562,4.0013909 12.088858,3.8884718 11.815328,3.8037823 11.550916,3.7607645 11.293414,3.7744436 Z M 2.0757239,6.7060157 a 0.52344326,0.53176724 0 0 0 -0.068149,0.00232 0.52344326,0.53176724 0 0 0 -0.3527646,0.1937317 C 1.1987346,7.4729592 1.1363406,8.2434218 1.4257437,8.9033818 1.8381742,9.843897 2.5106024,10.478048 3.3029553,10.9716 c 0.7923533,0.493552 1.7089743,0.873876 2.7356436,1.377062 A 0.52344326,0.53176724 0 0 0 6.7378286,12.100826 0.52344326,0.53176724 0 0 0 6.4938715,11.391057 C 5.435942,10.872556 4.5359032,10.492173 3.8504277,10.065193 3.1649518,9.6382149 2.6981594,9.1918681 2.3821024,8.4711258 2.2819711,8.2427839 2.3508193,7.7189636 2.4680031,7.5722811 A 0.52344326,0.53176724 0 0 0 2.3912645,6.8246981 0.52344326,0.53176724 0 0 0 2.0757239,6.7060157 Z m 11.8491101,0 a 0.52344326,0.53176724 0 0 0 -0.315543,0.1186824 0.52344326,0.53176724 0 0 0 -0.07671,0.747583 c 0.117186,0.1466825 0.185459,0.6705028 0.08533,0.8988447 -0.31606,0.7207431 -0.782279,1.1670891 -1.467752,1.5940672 -0.68548,0.42698 -1.585523,0.807363 -2.64345,1.325868 a 0.52344326,0.53176724 0 0 0 -0.2439597,0.709769 0.52344326,0.53176724 0 0 0 0.6986563,0.247837 c 1.0266604,-0.503188 1.9432844,-0.883512 2.7356344,-1.377063 0.792354,-0.493552 1.464783,-1.1277033 1.877215,-2.0682184 0.2894,-0.65996 0.22701,-1.4304226 -0.22907,-2.001311 a 0.52344326,0.53176724 0 0 0 -0.352196,-0.1937317 0.52344326,0.53176724 0 0 0 -0.06818,-0.00232 z M 3.8893694,11.709293 a 0.52344326,0.53176724 0 0 0 -0.4913508,0.412482 c -0.08108,0.358911 -0.103494,0.816922 0.2914886,1.196131 0.6148485,0.590293 1.5027534,0.646848 2.2580368,0.675443 0.7552839,0.02858 1.4001779,-0.0442 1.4001779,-0.0442 a 0.52344326,0.53176724 0 0 0 0.4632899,-0.587025 0.52344326,0.53176724 0 0 0 -0.577824,-0.470658 c 0,0 -0.5790736,0.06423 -1.2461294,0.039 -0.6534732,-0.02471 -1.3683926,-0.206218 -1.5656792,-0.375251 0.00118,5.63e-4 0.00302,9.21e-4 0.00405,0.0013 h 5.864e-4 5.864e-4 5.864e-4 5.865e-4 l 5.865e-4,-5.95e-4 h 5.864e-4 l 5.864e-4,-5.96e-4 h 5.863e-4 v -5.96e-4 l 5.864e-4,-5.95e-4 5.863e-4,-5.97e-4 c 0.010958,-0.01947 -0.026538,-0.13202 -0.012596,-0.19373 A 0.52344326,0.53176724 0 0 0 4.0252286,11.722655 0.52344326,0.53176724 0 0 0 3.8895059,11.709275 Z m 8.2218226,0 a 0.52344326,0.53176724 0 0 0 -0.136297,0.0134 0.52344326,0.53176724 0 0 0 -0.392854,0.637044 c 0.01393,0.06174 -0.02341,0.174865 -0.01259,0.194315 l 5.87e-4,5.96e-4 v 5.96e-4 h 5.87e-4 l 5.86e-4,5.95e-4 h 5.87e-4 l 5.86e-4,5.96e-4 h 5.87e-4 5.87e-4 5.86e-4 5.87e-4 5.85e-4 c 0.0011,-2.01e-4 0.0025,-5.96e-4 0.0038,-0.0013 -0.197263,0.169037 -0.911632,0.350506 -1.565105,0.375247 -0.667057,0.02526 -1.2461303,-0.03895 -1.2461303,-0.03895 a 0.52344326,0.53176724 0 0 0 -0.5778545,0.470661 0.52344326,0.53176724 0 0 0 0.46329,0.587011 c 0,0 0.6443215,0.07278 1.3996048,0.0442 0.755284,-0.02858 1.64376,-0.08514 2.258609,-0.675444 0.394983,-0.379209 0.372569,-0.837219 0.291491,-1.196131 a 0.52344326,0.53176724 0 0 0 -0.491383,-0.412467 z"
       style="fill:#f2f2f2;fill-opacity:1" /></g></svg>
