<?xml version="1.0" encoding="UTF-8" standalone="no"?>
<!-- Created with Inkscape (http://www.inkscape.org/) -->

<svg
   width="16"
   height="16"
   viewBox="0 0 16 16"
   version="1.1"
   id="svg1"
   xml:space="preserve"
   sodipodi:docname="shelly-update.svg"
   inkscape:version="1.4.4 (unknown)"
   xmlns:inkscape="http://www.inkscape.org/namespaces/inkscape"
   xmlns:sodipodi="http://sodipodi.sourceforge.net/DTD/sodipodi-0.dtd"
   xmlns:xlink="http://www.w3.org/1999/xlink"
   xmlns="http://www.w3.org/2000/svg"
   xmlns:svg="http://www.w3.org/2000/svg"><sodipodi:namedview
     id="namedview1"
     pagecolor="#ffffff"
     bordercolor="#000000"
     borderopacity="0.25"
     inkscape:showpageshadow="2"
     inkscape:pageopacity="0.0"
     inkscape:pagecheckerboard="false"
     inkscape:deskcolor="#d1d1d1"
     inkscape:document-units="px"
     inkscape:zoom="22.627417"
     inkscape:cx="4.6845824"
     inkscape:cy="1.6130873"
     inkscape:window-width="1920"
     inkscape:window-height="996"
     inkscape:window-x="0"
     inkscape:window-y="0"
     inkscape:window-maximized="1"
     inkscape:current-layer="layer1"
     showgrid="false"><inkscape:grid
       id="grid1"
       units="px"
       originx="0"
       originy="0"
       spacingx="1"
       spacingy="1"
       empcolor="#0099e5"
       empopacity="0.30196078"
       color="#0099e5"
       opacity="0.14901961"
       empspacing="5"
       enabled="true"
       visible="false" /></sodipodi:namedview><defs
     id="defs1"><linearGradient
       id="linearGradient1"
       inkscape:collect="always"><stop
         style="stop-color:#00ccff;stop-opacity:1"
         offset="0"
         id="stop1" /><stop
         style="stop-color:#8d5fd3;stop-opacity:1"
         offset="0.53571129"
         id="stop3" /><stop
         style="stop-color:#ffcc00;stop-opacity:1"
         offset="1"
         id="stop2" /></linearGradient><clipPath
       clipPathUnits="userSpaceOnUse"
       id="clipPath9"><g
         inkscape:label="Clip"
         id="use9"><rect
           style="fill:none;stroke:#a000a0;stroke-width:0.559102;stroke-linecap:round;stroke-linejoin:round;stroke-opacity:1"
           id="rect1"
           width="51.200001"
           height="48.301888"
           x="-14.490566"
           y="81.871696"
           ry="7.625" /></g></clipPath><linearGradient
       inkscape:collect="always"
       xlink:href="#linearGradient1"
       id="linearGradient2"
       x1="7.2752557"
       y1="14.444846"
       x2="7.1492682"
       y2="1.6109709"
       gradientUnits="userSpaceOnUse"
       gradientTransform="matrix(1.0037998,0,0,1.0000038,-0.50190338,-0.5000239)" /><linearGradient
       inkscape:collect="always"
       xlink:href="#linearGradient1"
       id="linearGradient5"
       x1="6.000001"
       y1="10.46875"
       x2="10"
       y2="10.46875"
       gradientUnits="userSpaceOnUse"
       gradientTransform="matrix(0.94106168,0,0,0.92857836,-1.0236565e-7,0.07142168)" /><linearGradient
       inkscape:collect="always"
       xlink:href="#linearGradient1"
       id="linearGradient7"
       x1="6.1111121"
       y1="10.46875"
       x2="9.8888884"
       y2="10.46875"
       gradientUnits="userSpaceOnUse"
       gradientTransform="matrix(0.94106168,0,0,0.92857836,-1.0236565e-7,0.07142168)" /></defs><g
     inkscape:label="Ebene 1"
     inkscape:groupmode="layer"
     id="layer1"><g
       id="g1"
       transform="matrix(0.99621466,0,0,1,0.50000152,0.49999955)"><path
         id="use10"
         d="m 7.4825101,1.0000278 c -0.1955204,-0.001 -0.4673609,0.025408 -0.807979,0.110925 -0.3406176,0.085518 -0.7437783,0.199535 -1.0449429,0.5949629 -0.4587469,0.6023334 -0.5321234,1.335216 -0.5096973,1.9979149 0.022429,0.6626992 0.1523993,1.290083 0.2229126,1.7098874 0.1545732,0.9202582 0.350212,2.0863303 0.350212,2.0863303 0.06324,0.3121073 0.7764952,0.6268435 1.1239499,0 v 0 c 0,0 -0.1826733,-1.4451697 -0.3219141,-2.2741466 C 6.4186586,4.7710883 6.304919,4.1999499 6.286829,3.665385 6.2687372,3.1308199 6.3579808,2.6676453 6.5633946,2.3979381 c -0.00786,0.010342 0.1742154,-0.1138446 0.39856,-0.1701698 0.2243446,-0.056327 0.496974,-0.07572 0.5141682,-0.07563 0.017473,1.577e-4 0.034954,-4.588e-4 0.052373,-0.00189 0.017423,0.0014 0.034895,0.00196 0.052373,0.00189 0.017198,-8.83e-5 0.2898244,0.019306 0.5141687,0.075629 0.2243448,0.056325 0.4070749,0.1805105 0.3991993,0.1701699 0.205415,0.2697082 0.2940176,0.7328829 0.2759274,1.267448 -0.018089,0.5345646 -0.1311882,1.105703 -0.2075816,1.5605164 -0.1392405,0.8289772 -0.311353,1.8329906 -0.311353,1.8329906 -0.047308,0.1720347 -0.015999,0.4411559 -0.015999,0.4411559 0.2343243,0.5984673 0.9537204,0.4343162 1.055967,0 v 0 c 0,0 0.2684173,-1.166072 0.4229929,-2.0863302 C 9.7847061,4.9939132 9.9146764,4.3665294 9.9371043,3.7038302 9.9595391,3.0411317 9.8861548,2.3082491 9.4274087,1.7059157 9.126242,1.3104878 8.7237203,1.1964701 8.3831031,1.1109528 8.0424849,1.0254354 7.7706443,0.99902712 7.5751244,1.0000278 c -0.015561,2.8e-6 -0.031117,6.186e-4 -0.046625,0.00189 -0.0153,-0.00121 -0.030638,-0.00187 -0.045989,-0.00189 z M 3.8552285,2.9223118 C 3.5680306,2.9074928 3.2731256,2.9540958 2.9680488,3.0458422 2.5612793,3.168171 2.1272362,3.3758876 1.860511,3.8204282 1.5168721,4.3931573 1.5053233,5.0505699 1.6286559,5.643762 1.7519891,6.2369542 2.0120877,6.7890179 2.3254976,7.2339004 2.5410569,7.5398845 2.8946047,8.0544104 3.21651,8.5202549 3.5384154,8.9860996 3.7967893,9.3660163 3.9459259,9.5519863 4.1459209,9.8015866 4.5131167,9.8439227 4.7660409,9.646545 5.0189849,9.4491917 5.0618803,9.0868615 4.8618466,8.8372939 4.8221281,8.7877432 4.5014729,8.3348983 4.1809748,7.8710906 3.8604764,7.4072818 3.5084178,6.8947968 3.2842144,6.5765424 3.0616162,6.2605663 2.8578081,5.8222767 2.7726008,5.4124572 2.6873935,5.0026385 2.7225803,4.6449209 2.8652148,4.4071975 2.8980869,4.3524105 3.0715335,4.2187907 3.3084852,4.147532 3.5454366,4.0762721 3.8359554,4.0725666 3.9037711,4.0863966 4.2194776,4.1507475 4.5282897,3.9504217 4.593587,3.6389143 4.6588014,3.3273898 4.4557863,3.0226689 4.1400965,2.9582365 4.0460601,2.9390589 3.9509608,2.9272516 3.8552285,2.9223118 Z m 7.3465395,0 c -0.09569,0.00494 -0.190832,0.016747 -0.284867,0.035926 -0.315692,0.064429 -0.518708,0.3691529 -0.453494,0.6806781 0.06529,0.3115075 0.374114,0.5118331 0.689819,0.4474824 0.06782,-0.01383 0.358335,-0.010126 0.595281,0.061135 0.236957,0.071259 0.4104,0.2048789 0.443275,0.2596656 0.142634,0.2377236 0.17846,0.5954412 0.09325,1.00526 -0.08515,0.4098189 -0.289017,0.8481086 -0.511615,1.1640845 -0.224204,0.3182544 -0.576264,0.8307394 -0.896759,1.2945483 -0.320498,0.4638076 -0.641157,0.9166527 -0.680876,0.9661839 -0.200178,0.2494055 -0.157564,0.6117136 0.0952,0.8092525 0.252924,0.1973746 0.620117,0.1550403 0.820112,-0.09456 C 11.260217,9.3660108 11.51923,8.9860938 11.841136,8.5202492 12.16304,8.0544031 12.516585,7.5398772 12.732148,7.2338932 13.045559,6.7890136 13.305656,6.23695 13.428992,5.6437576 13.552312,5.05057 13.540766,4.3931574 13.197124,3.8204283 12.930397,3.3758876 12.495715,3.168171 12.088946,3.0458422 11.783868,2.9540956 11.488963,2.9074927 11.201768,2.9223118 Z M 0.92095625,6.098177 c -0.0253643,-7.889e-4 -0.0507537,5.48e-5 -0.0760067,0.00252 -0.15418439,0.01565 -0.29573429,0.091157 -0.3934504,0.209878 -0.50867879,0.6184533 -0.57826895,1.4531203 -0.25548773,2.1680756 0.4599983,1.0188905 1.20997948,1.7058834 2.09371848,2.2405634 0.8837394,0.534681 1.9060777,0.946704 3.0511578,1.49182 0.2904847,0.138502 0.6397506,0.01827 0.7798747,-0.268491 0.1399335,-0.286471 0.01814,-0.63065 -0.2720937,-0.768909 C 4.6687233,10.611923 3.664879,10.19984 2.9003446,9.7372821 2.1358095,9.2747222 1.6151799,8.7911799 1.2626704,8.0103771 1.1509904,7.763007 1.2277799,7.195536 1.3584782,7.0366303 1.5613129,6.789615 1.5230082,6.4271567 1.2728902,6.2267497 1.1731157,6.1468415 1.0494103,6.1016479 0.92095625,6.098177 Z m 13.21572075,0 c -0.128452,0.00344 -0.252161,0.048668 -0.351931,0.1285727 -0.250127,0.2004012 -0.28844,0.5628599 -0.08561,0.8098806 0.130698,0.1589057 0.20685,0.7263767 0.09519,0.9737468 -0.352505,0.7808038 -0.872498,1.2643451 -1.637032,1.726905 -0.764538,0.4625579 -1.768382,0.8746409 -2.9483266,1.4363569 -0.2902331,0.138261 -0.4120242,0.482436 -0.272091,0.768913 0.1401176,0.286388 0.4889132,0.406569 0.779237,0.268491 1.1450776,-0.545117 2.1674156,-0.957139 3.0511556,-1.491821 0.88374,-0.534681 1.633719,-1.2216743 2.093718,-2.2405643 0.322772,-0.7149555 0.253187,-1.5496221 -0.255495,-2.1680836 -0.09757,-0.1185753 -0.238854,-0.1940662 -0.392807,-0.2098757 -0.02527,-0.00246 -0.05068,-0.00327 -0.07595,-0.00252 z M 2.9437774,11.518388 c -0.2641172,0.0092 -0.4889054,0.192675 -0.5480203,0.446852 -0.090437,0.388822 -0.1154303,0.885002 0.3251071,1.295809 0.6857618,0.639483 1.676073,0.700749 2.5184668,0.731729 0.842394,0.03098 1.5616663,-0.0479 1.5616663,-0.0479 0.320731,-0.03463 0.5521554,-0.319471 0.5167233,-0.635921 -0.035124,-0.316487 -0.3237662,-0.544849 -0.6444668,-0.509878 0,0 -0.6458611,0.06959 -1.3898513,0.04223 -0.7288414,-0.0268 -1.5262153,-0.2234 -1.7462559,-0.406521 0.00132,6.13e-4 0.0034,9.29e-4 0.00446,0.0013 h 6.543e-4 6.538e-4 6.54e-4 6.543e-4 l 6.539e-4,-6.45e-4 h 6.624e-4 l 6.537e-4,-6.44e-4 h 6.541e-4 v -6.47e-4 l 6.54e-4,-6.45e-4 6.538e-4,-6.46e-4 C 3.5603799,12.411791 3.5185559,12.289838 3.5341029,12.222986 3.6060229,11.912882 3.409595,11.60395 3.0953385,11.53293 3.0457335,11.52163 2.9948461,11.51673 2.9439621,11.51842 Z m 9.1700816,0 c -0.05108,-0.0019 -0.102207,0.0033 -0.152018,0.0145 -0.314046,0.07128 -0.510162,0.380189 -0.438158,0.690132 0.01553,0.06685 -0.02608,0.189434 -0.01404,0.210503 l 6.55e-4,6.47e-4 v 6.46e-4 h 6.54e-4 l 6.56e-4,6.46e-4 h 6.55e-4 l 6.52e-4,6.46e-4 h 6.55e-4 6.54e-4 6.52e-4 6.55e-4 6.52e-4 c 0.0011,-2.18e-4 0.0025,-6.46e-4 0.0038,-0.0013 -0.220014,0.183118 -1.016775,0.37971 -1.7456182,0.406514 -0.7439887,0.02736 -1.3898506,-0.04224 -1.3898506,-0.04224 -0.3207014,-0.03496 -0.6093403,0.19339 -0.644467,0.509878 -0.035439,0.316454 0.1959869,0.601271 0.5167233,0.63593 0,0 0.7186346,0.07888 1.5610253,0.0479 0.8423932,-0.03098 1.8333462,-0.09224 2.5191082,-0.731726 0.440537,-0.410809 0.415539,-0.906988 0.325106,-1.295805 -0.05908,-0.254166 -0.283857,-0.437464 -0.547956,-0.446876 z"
         style="fill:url(#linearGradient2);stroke-width:1.00188"
         sodipodi:nodetypes="csssscccsscscccscssccccsccscccssssssccsssssscccscccscccsscccsscssccccsscccsscccccccsccccsccccccsccccccccccccccccccccccccccccccccccccccccccssccc" /><path
         id="path1052-7"
         d="m 7.5284933,7.9353194 c -1.0426958,0 -1.882122,0.8282917 -1.882122,1.8571556 0,1.028864 0.8394262,1.857157 1.882122,1.857157 1.0426964,0 1.8821234,-0.828293 1.8821234,-1.857157 0,-1.0288639 -0.839427,-1.8571556 -1.8821234,-1.8571556 z"
         style="fill:url(#linearGradient5);fill-opacity:1;stroke:none;stroke-width:0.129819;stroke-linecap:round;stroke-linejoin:round;stroke-miterlimit:4;stroke-dasharray:none;stroke-opacity:1"
         inkscape:connector-curvature="0" /><path
         inkscape:connector-curvature="0"
         style="fill:url(#linearGradient7);fill-opacity:1;stroke:none;stroke-width:0.122601;stroke-linecap:round;stroke-linejoin:round;stroke-miterlimit:4;stroke-dasharray:none;stroke-opacity:1"
         d="m 7.5284933,8.038495 c -0.9847682,0 -1.7775595,0.7822751 -1.7775595,1.753981 0,0.971699 0.7927913,1.753981 1.7775595,1.753981 0.9847672,0 1.777561,-0.782282 1.777561,-1.753981 0,-0.9717059 -0.7927938,-1.753981 -1.777561,-1.753981 z"
         id="path1052" /><path
         inkscape:connector-curvature="0"
         id="rect1224"
         d="m 7.5273521,10.953193 c 0.036658,3.16e-4 0.071383,-0.01621 0.093938,-0.04469 L 8.4444697,9.8638707 C 8.5047269,9.7876447 8.4496038,9.676336 8.3516744,9.6763842 H 7.8812873 V 8.9799665 c 0,-0.1929171 -0.1573493,-0.3482135 -0.3527912,-0.3482135 -0.1954504,0 -0.3527903,0.1553065 -0.3527903,0.3482135 V 9.6763996 H 6.7053173 c -0.097972,-5.1e-5 -0.1530491,0.1112314 -0.092793,0.1874839 l 0.8231795,1.0446475 c 0.022041,0.0279 0.055796,0.04434 0.091645,0.04469 z"
         style="opacity:0.99;vector-effect:none;fill:#f2f2f2;fill-opacity:1;stroke:none;stroke-width:0.210297;stroke-linecap:round;stroke-linejoin:round;stroke-miterlimit:4;stroke-dasharray:none;stroke-dashoffset:0;stroke-opacity:1" /></g></g></svg>
