<?xml version="1.0" encoding="UTF-8" standalone="no"?>
<!-- Created with Inkscape (http://www.inkscape.org/) -->

<svg
   width="16"
   height="16"
   viewBox="0 0 16 16"
   version="1.1"
   id="svg1"
   xml:space="preserve"
   sodipodi:docname="shelly.svg"
   inkscape:version="1.4.4 (unknown)"
   xmlns:inkscape="http://www.inkscape.org/namespaces/inkscape"
   xmlns:sodipodi="http://sodipodi.sourceforge.net/DTD/sodipodi-0.dtd"
   xmlns:xlink="http://www.w3.org/1999/xlink"
   xmlns="http://www.w3.org/2000/svg"
   xmlns:svg="http://www.w3.org/2000/svg"><sodipodi:namedview
     id="namedview1"
     pagecolor="#ffffff"
     bordercolor="#000000"
     borderopacity="0.25"
     inkscape:showpageshadow="2"
     inkscape:pageopacity="0.0"
     inkscape:pagecheckerboard="false"
     inkscape:deskcolor="#d1d1d1"
     inkscape:document-units="px"
     inkscape:zoom="23.422912"
     inkscape:cx="9.1363533"
     inkscape:cy="7.4926636"
     inkscape:window-width="1920"
     inkscape:window-height="996"
     inkscape:window-x="0"
     inkscape:window-y="0"
     inkscape:window-maximized="1"
     inkscape:current-layer="layer1" /><defs
     id="defs1"><linearGradient
       id="linearGradient1"
       inkscape:collect="always"><stop
         style="stop-color:#00ccff;stop-opacity:1"
         offset="0"
         id="stop1" /><stop
         style="stop-color:#8d5fd3;stop-opacity:1"
         offset="0.53571129"
         id="stop3" /><stop
         style="stop-color:#ffcc00;stop-opacity:1"
         offset="1"
         id="stop2" /></linearGradient><clipPath
       clipPathUnits="userSpaceOnUse"
       id="clipPath9"><g
         inkscape:label="Clip"
         id="use9"><rect
           style="fill:none;stroke:#a000a0;stroke-width:0.559102;stroke-linecap:round;stroke-linejoin:round;stroke-opacity:1"
           id="rect1"
           width="51.200001"
           height="48.301888"
           x="-14.490566"
           y="81.871696"
           ry="7.625" /></g></clipPath><linearGradient
       inkscape:collect="always"
       xlink:href="#linearGradient1"
       id="linearGradient2"
       x1="7.2752557"
       y1="14.444846"
       x2="7.1492682"
       y2="1.6109709"
       gradientUnits="userSpaceOnUse" /></defs><g
     inkscape:label="Ebene 1"
     inkscape:groupmode="layer"
     id="layer1"><path
       id="use10"
       d="M 7.9541884,1.500046 C 7.7594084,1.499046 7.4885965,1.525454 7.1492682,1.6109708 6.80994,1.6964877 6.4083054,1.8105045 6.1082808,2.2059312 5.6512704,2.8082623 5.5781717,3.5411421 5.6005129,4.2038387 5.6228552,4.8665351 5.7523356,5.4939165 5.8225819,5.9137196 5.9765698,6.8339739 6.6065041,9.9429379 6.6065041,9.9429379 A 0.5816043,0.57607819 0 0 0 7.2911633,10.394831 0.5816043,0.57607819 0 0 0 7.7473909,9.7173069 c 0,0 -0.6382093,-3.1624292 -0.776923,-3.9914031 C 6.8943636,5.2710923 6.7810553,4.6999558 6.7630338,4.165393 6.7450113,3.6308302 6.8339162,3.1676574 7.0385523,2.8979509 7.0307098,2.9082919 7.2121083,2.784107 7.4356037,2.7277821 7.6590989,2.6714571 7.9306962,2.6520641 7.9478254,2.6521521 a 0.5816043,0.57607819 0 0 0 0.052177,-0.00189 0.5816043,0.57607819 0 0 0 0.052177,0.00189 c 0.01713,-8.8e-5 0.2887265,0.019306 0.5122216,0.07563 0.2234948,0.056325 0.4055331,0.1805093 0.3976873,0.1701688 0.2046362,0.269706 0.2929034,0.7328788 0.2748818,1.2674416 C 9.2189476,4.6999558 9.1062769,5.2710923 9.0301725,5.7259038 8.8914589,6.554878 8.2532495,9.7173069 8.2532495,9.7173069 A 0.5816043,0.57607819 0 0 0 8.7094772,10.394831 0.5816043,0.57607819 0 0 0 9.3935,9.9429379 c 0,0 0.629933,-3.108964 0.783922,-4.0292183 C 10.247672,5.4939165 10.37715,4.8665351 10.39949,4.2038387 10.421832,3.5411421 10.348732,2.8082623 9.8917237,2.2059312 9.5916981,1.8105045 9.1907003,1.6964877 8.8513722,1.6109708 8.5120438,1.5254539 8.241232,1.4990454 8.0464522,1.500046 a 0.5816043,0.57607819 0 0 0 -0.046451,0.00189 0.5816043,0.57607819 0 0 0 -0.045813,-0.00189 z M 4.3406382,3.4223228 C 4.0545274,3.4075038 3.760739,3.4541065 3.4568167,3.5458527 3.0515868,3.668181 2.6191871,3.8758968 2.3534715,4.3204358 2.0111335,4.8931625 1.9996284,5.5505725 2.1224943,6.1437624 2.2453606,6.7369525 2.5044744,7.2890141 2.8166983,7.7338951 3.0314414,8.0398779 3.3836507,8.5544017 3.7043372,9.0202447 4.0250243,9.4860879 4.2824201,9.8660029 4.4309924,10.051972 a 0.5816043,0.57607819 0 0 0 0.8170101,0.09454 0.5816043,0.57607819 0 0 0 0.095444,-0.8092471 C 5.3038774,9.2877317 4.984436,8.8348887 4.6651511,8.3710827 4.3458663,7.907276 3.99514,7.3947927 3.7717853,7.0765393 3.5500299,6.7605647 3.3469932,6.3222766 3.2621087,5.9124589 3.177224,5.5026414 3.2122775,5.1449252 3.3543722,4.9072028 3.38712,4.8524164 3.5599099,4.7187967 3.7959646,4.647538 4.0320192,4.5762789 4.3214383,4.5725728 4.3889968,4.5864033 A 0.5816043,0.57607819 0 0 0 5.0762014,4.1389224 0.5816043,0.57607819 0 0 0 4.6244278,3.4582473 C 4.5307472,3.4390698 4.436008,3.4272626 4.3406382,3.4223228 Z m 7.3187278,0 c -0.09537,0.00494 -0.19011,0.016747 -0.283789,0.035925 a 0.5816043,0.57607819 0 0 0 -0.451774,0.6806751 0.5816043,0.57607819 0 0 0 0.687204,0.4474809 c 0.06756,-0.01383 0.356977,-0.010126 0.593032,0.061135 0.236055,0.071259 0.408845,0.2048784 0.441593,0.2596648 0.142094,0.2377224 0.177783,0.5954386 0.09291,1.0052561 -0.08489,0.4098177 -0.287921,0.8481058 -0.509677,1.1640804 -0.223354,0.3182534 -0.574081,0.8307367 -0.893365,1.2945436 -0.319286,0.463806 -0.638728,0.916649 -0.678297,0.9661802 a 0.5816043,0.57607819 0 0 0 0.09481,0.8092471 0.5816043,0.57607819 0 0 0 0.81701,-0.09454 C 11.717587,9.8660019 11.975619,9.4860869 12.296305,9.0202437 12.616993,8.5544007 12.9692,8.0398767 13.183944,7.7338939 13.496172,7.2890129 13.755285,6.7369513 13.87815,6.1437612 14.001012,5.5505725 13.989507,4.8931625 13.647168,4.3204358 13.381454,3.8758968 12.948417,3.668181 12.543187,3.5458527 12.239265,3.4541063 11.945476,3.4075037 11.659366,3.4223228 Z M 1.4174735,6.5981759 a 0.5816043,0.57607819 0 0 0 -0.07572,0.00252 0.5816043,0.57607819 0 0 0 -0.39196104,0.209875 C 0.44303983,7.4290272 0.37371312,8.2636907 0.69527242,8.9786437 1.1535294,9.9975299 1.900672,10.684521 2.7810654,11.2192 3.661459,11.753878 4.6799277,12.165898 5.8206728,12.711012 A 0.5816043,0.57607819 0 0 0 6.5975958,12.442524 0.5816043,0.57607819 0 0 0 6.3265319,11.673613 C 5.1510536,11.111905 4.1510092,10.699825 3.3893688,10.237267 2.627728,9.7747089 2.1090692,9.2911687 1.7578942,8.5103687 1.646637,8.2629997 1.7231355,7.6955308 1.8533394,7.5366255 A 0.5816043,0.57607819 0 0 0 1.7680751,6.7267481 0.5816043,0.57607819 0 0 0 1.4174735,6.5981759 Z m 13.1656925,0 a 0.5816043,0.57607819 0 0 0 -0.350601,0.1285722 0.5816043,0.57607819 0 0 0 -0.08527,0.8098774 c 0.130204,0.1589053 0.206066,0.7263742 0.09481,0.9737432 -0.351174,0.780801 -0.869197,1.2643402 -1.630838,1.7268983 -0.761641,0.462558 -1.761685,0.874638 -2.9371628,1.43635 a 0.5816043,0.57607819 0 0 0 -0.2710635,0.768911 0.5816043,0.57607819 0 0 0 0.7762863,0.268489 c 1.140745,-0.545115 2.159215,-0.957134 3.039606,-1.491813 0.880395,-0.534679 1.627537,-1.2216701 2.085794,-2.2405563 0.32156,-0.714953 0.252234,-1.5496163 -0.25452,-2.1680756 a 0.5816043,0.57607819 0 0 0 -0.391324,-0.209875 0.5816043,0.57607819 0 0 0 -0.07572,-0.00252 z M 3.4326371,12.018367 a 0.5816043,0.57607819 0 0 0 -0.5459458,0.44685 c -0.09009,0.388819 -0.1149932,0.884997 0.3238769,1.295804 0.6831656,0.639481 1.6697277,0.700746 2.5089327,0.731725 0.8392052,0.03098 1.5557548,-0.0479 1.5557548,-0.0479 A 0.5816043,0.57607819 0 0 0 7.7900228,13.808919 0.5816043,0.57607819 0 0 0 7.1479957,13.299043 c 0,0 -0.6434161,0.06959 -1.3845899,0.04223 -0.7260825,-0.0268 -1.520438,-0.223395 -1.7396456,-0.406514 0.00131,6.13e-4 0.00339,10e-4 0.00445,0.0013 h 6.515e-4 6.517e-4 6.516e-4 6.514e-4 l 6.516e-4,-6.45e-4 h 6.516e-4 l 6.517e-4,-6.45e-4 h 6.515e-4 v -6.46e-4 l 6.515e-4,-6.45e-4 6.515e-4,-6.46e-4 c 0.012178,-0.02107 -0.029488,-0.143022 -0.013999,-0.209874 A 0.5816043,0.57607819 0 0 0 3.5835882,12.032829 0.5816043,0.57607819 0 0 0 3.432785,12.018329 Z m 9.1353669,0 a 0.5816043,0.57607819 0 0 0 -0.151441,0.0145 0.5816043,0.57607819 0 0 0 -0.436502,0.690129 c 0.01548,0.06685 -0.026,0.189434 -0.014,0.210505 l 6.52e-4,6.46e-4 v 6.45e-4 h 6.51e-4 l 6.52e-4,6.45e-4 h 6.52e-4 l 6.5e-4,6.46e-4 h 6.53e-4 6.52e-4 6.5e-4 6.53e-4 6.5e-4 c 0.0011,-2.16e-4 0.0025,-6.46e-4 0.0038,-0.0013 -0.219182,0.183119 -1.012926,0.379711 -1.739008,0.406515 -0.741175,0.02736 -1.3845906,-0.04223 -1.3845906,-0.04223 a 0.5816043,0.57607819 0 0 0 -0.6420273,0.509876 0.5816043,0.57607819 0 0 0 0.5147672,0.635927 c 0,0 0.7159134,0.07888 1.5551177,0.0479 0.839205,-0.03098 1.826403,-0.09224 2.509569,-0.731726 0.438871,-0.410806 0.413967,-0.906984 0.323877,-1.295804 a 0.5816043,0.57607819 0 0 0 -0.545945,-0.44685 z"
       style="fill:url(#linearGradient2)" /></g></svg>
