<?xml version="1.0" encoding="UTF-8" standalone="no"?>
<svg
   viewBox="0 0 22 22"
   version="1.1"
   id="svg1"
   sodipodi:docname="audio-card.svg"
   inkscape:version="1.4.2 (unknown)"
   xmlns:inkscape="http://www.inkscape.org/namespaces/inkscape"
   xmlns:sodipodi="http://sodipodi.sourceforge.net/DTD/sodipodi-0.dtd"
   xmlns:xlink="http://www.w3.org/1999/xlink"
   xmlns="http://www.w3.org/2000/svg"
   xmlns:svg="http://www.w3.org/2000/svg">
  <sodipodi:namedview
     id="namedview1"
     pagecolor="#ffffff"
     bordercolor="#000000"
     borderopacity="0.25"
     inkscape:showpageshadow="2"
     inkscape:pageopacity="0.0"
     inkscape:pagecheckerboard="0"
     inkscape:deskcolor="#d1d1d1"
     inkscape:zoom="34.909091"
     inkscape:cx="11"
     inkscape:cy="11"
     inkscape:current-layer="svg1" />
  <defs
     id="defs3051">
    <linearGradient
       id="linearGradient1"
       inkscape:collect="always">
      <stop
         style="stop-color:#37c871;stop-opacity:1"
         offset="0"
         id="stop1" />
      <stop
         style="stop-color:#d35f5f;stop-opacity:1"
         offset="1"
         id="stop2" />
    </linearGradient>
    <style
       type="text/css"
       id="current-color-scheme">.ColorScheme-Text {color:#eff0f1;}</style>
    <linearGradient
       inkscape:collect="always"
       xlink:href="#linearGradient1"
       id="linearGradient2"
       x1="2"
       y1="19.421875"
       x2="20"
       y2="11"
       gradientUnits="userSpaceOnUse" />
  </defs>
  <path
     style="fill:url(#linearGradient2);fill-opacity:1;stroke:none"
     d="m 2,2 v 18 h 1 v -3 h 6 v 1 h 9 v -1 c 0,0 2,0 2,-2 0,-2 0,-7 0,-9 C 20,4 18,4 18,4 H 3 V 2 Z M 3,6 C 3,5 4,5 4,5 h 14 c 0,0 1,0 1,1 0,1 0,8 0,9 0,1 -1,1 -1,1 H 4 C 4,16 3,16 3,15 3,14 3,7 3,6 Z M 6,6 V 8 H 5 v 2 H 4 v 1 h 1 v 2 h 1 v 1 h 1 v -2 h 1 v -1 h 2 v 1 h 1 v 1 h 1 v 1 h 1 v 1 h 1 v -1 h 1 v -1 h 1 v -1 h 1 v -1 h 1 V 10 H 17 V 9 H 16 V 8 H 15 V 7 H 14 V 6 h -1 v 1 h -1 v 1 h -1 v 1 h -1 v 1 H 8 V 9 H 7 V 6 Z"
     class="ColorScheme-Text"
     id="path1" />
</svg>
