<?xml version="1.0" encoding="UTF-8" standalone="no"?>
<svg
   viewBox="0 0 22 22"
   version="1.1"
   id="svg1"
   sodipodi:docname="drive-removable-media.svg"
   inkscape:version="1.4.4 (unknown)"
   xmlns:inkscape="http://www.inkscape.org/namespaces/inkscape"
   xmlns:sodipodi="http://sodipodi.sourceforge.net/DTD/sodipodi-0.dtd"
   xmlns:xlink="http://www.w3.org/1999/xlink"
   xmlns="http://www.w3.org/2000/svg"
   xmlns:svg="http://www.w3.org/2000/svg">
  <sodipodi:namedview
     id="namedview1"
     pagecolor="#ffffff"
     bordercolor="#000000"
     borderopacity="0.25"
     inkscape:showpageshadow="2"
     inkscape:pageopacity="0.0"
     inkscape:pagecheckerboard="0"
     inkscape:deskcolor="#d1d1d1"
     inkscape:zoom="34.5"
     inkscape:cx="11.014493"
     inkscape:cy="11"
     inkscape:window-width="1920"
     inkscape:window-height="996"
     inkscape:window-x="0"
     inkscape:window-y="0"
     inkscape:window-maximized="1"
     inkscape:current-layer="svg1" />
  <defs
     id="defs3051">
    <linearGradient
       id="linearGradient1"
       inkscape:collect="always">
      <stop
         style="stop-color:#00ccff;stop-opacity:1"
         offset="0"
         id="stop1" />
      <stop
         style="stop-color:#8d5fd3;stop-opacity:1"
         offset="1"
         id="stop2" />
    </linearGradient>
    <style
       type="text/css"
       id="current-color-scheme">
      .ColorScheme-Text {
        color:#eff0f1;
      }
      </style>
    <linearGradient
       inkscape:collect="always"
       xlink:href="#linearGradient1"
       id="linearGradient2"
       x1="11"
       y1="19"
       x2="10.695652"
       y2="7"
       gradientUnits="userSpaceOnUse" />
  </defs>
  <path
     style="fill:url(#linearGradient2);fill-opacity:1"
     d="M 7 3 L 7 11 L 6 11 L 6 12 L 6 15 L 6 16 L 6 17 C 6 18.108 6.892 19 8 19 L 14 19 C 15.108 19 16 18.108 16 17 L 16 16 L 16 15 L 16 12 L 16 11 L 15 11 L 15 3 L 7 3 z M 8 5 L 9 5 L 9 9 L 8 9 L 8 5 z M 13 5 L 14 5 L 14 9 L 13 9 L 13 5 z M 10 7 L 12 7 L 12 9 L 10 9 L 10 7 z M 7 12 L 15 12 L 15 15 L 15 16 L 15 17 C 15 17.554 14.554 18 14 18 L 8 18 C 7.446 18 7 17.554 7 17 L 7 16 L 7 15 L 7 12 z M 11 13 L 10 14 L 12 14 L 11 13 z M 8 16 L 8 17 L 14 17 L 14 16 L 8 16 z "
     class="ColorScheme-Text"
     id="path1" />
</svg>
