<?xml version="1.0" encoding="UTF-8" standalone="no"?>
<svg
   viewBox="0 0 22 22"
   version="1.1"
   id="svg1"
   sodipodi:docname="drive-multidisk.svg"
   inkscape:version="1.4.4 (unknown)"
   xmlns:inkscape="http://www.inkscape.org/namespaces/inkscape"
   xmlns:sodipodi="http://sodipodi.sourceforge.net/DTD/sodipodi-0.dtd"
   xmlns:xlink="http://www.w3.org/1999/xlink"
   xmlns="http://www.w3.org/2000/svg"
   xmlns:svg="http://www.w3.org/2000/svg">
  <defs
     id="defs1">
    <linearGradient
       id="linearGradient2"
       inkscape:collect="always">
      <stop
         style="stop-color:#00ccff;stop-opacity:1"
         offset="0"
         id="stop2" />
      <stop
         style="stop-color:#ffdd55;stop-opacity:1"
         offset="1"
         id="stop3" />
    </linearGradient>
    <linearGradient
       inkscape:collect="always"
       xlink:href="#linearGradient2"
       id="linearGradient3"
       x1="10.797101"
       y1="19"
       x2="10.884058"
       y2="7.231884"
       gradientUnits="userSpaceOnUse" />
  </defs>
  <sodipodi:namedview
     id="namedview1"
     pagecolor="#ffffff"
     bordercolor="#000000"
     borderopacity="0.25"
     inkscape:showpageshadow="2"
     inkscape:pageopacity="0.0"
     inkscape:pagecheckerboard="0"
     inkscape:deskcolor="#d1d1d1"
     inkscape:zoom="34.5"
     inkscape:cx="11.014493"
     inkscape:cy="11"
     inkscape:window-width="1920"
     inkscape:window-height="996"
     inkscape:window-x="0"
     inkscape:window-y="0"
     inkscape:window-maximized="1"
     inkscape:current-layer="svg1" />
  <style
     type="text/css"
     id="current-color-scheme">.ColorScheme-Text {color:#eff0f1;}</style>
  <path
     d="m 5,5 v 12 c 0,0 0,2 2,2 2,0 6,0 8,0 2,0 2,-2 2,-2 V 5 C 17,5 17,3 15,3 13,3 9,3 7,3 5,3 5,5 5,5 Z M 7,4 h 8 c 0.552285,0 1,0.4477153 1,1 v 2 c -1.333333,0 -1.333333,2 0,2 v 2 l -1,1 H 7 L 6,11 V 9 C 7.3333328,9 7.3333328,7 6,7 V 5 C 6,4.4477153 6.4477153,4 7,4 Z m 0,9 h 4 v 1 H 7 Z m 6,0 h 2 v 1 h -2 z m -6,2 h 4 v 1 H 7 Z m 6,0 h 2 v 1 h -2 z m -2,2 v 1 H 7 v -1 z m 2,0 h 2 v 1 h -2 z"
     fill="currentColor"
     class="ColorScheme-Text"
     id="path1"
     style="fill:url(#linearGradient3)" />
</svg>
