<?xml version="1.0" encoding="UTF-8" standalone="no"?>
<svg
   width="16"
   height="16"
   viewBox="0 0 16 16"
   fill="none"
   version="1.1"
   id="svg17"
   sodipodi:docname="2048.svg"
   inkscape:version="1.4.4 (unknown)"
   xmlns:inkscape="http://www.inkscape.org/namespaces/inkscape"
   xmlns:sodipodi="http://sodipodi.sourceforge.net/DTD/sodipodi-0.dtd"
   xmlns:xlink="http://www.w3.org/1999/xlink"
   xmlns="http://www.w3.org/2000/svg"
   xmlns:svg="http://www.w3.org/2000/svg">
  <sodipodi:namedview
     id="namedview17"
     pagecolor="#ffffff"
     bordercolor="#000000"
     borderopacity="0.25"
     inkscape:showpageshadow="2"
     inkscape:pageopacity="0.0"
     inkscape:pagecheckerboard="0"
     inkscape:deskcolor="#d1d1d1"
     showguides="true"
     inkscape:zoom="33.543378"
     inkscape:cx="7.6020966"
     inkscape:cy="6.5735777"
     inkscape:window-width="1920"
     inkscape:window-height="996"
     inkscape:window-x="0"
     inkscape:window-y="0"
     inkscape:window-maximized="1"
     inkscape:current-layer="svg17" />
  <defs
     id="defs17">
    <linearGradient
       id="linearGradient22"
       inkscape:collect="always">
      <stop
         style="stop-color:#8d5fd3;stop-opacity:1"
         offset="0"
         id="stop22" />
      <stop
         style="stop-color:#00ccff;stop-opacity:1"
         offset="1"
         id="stop23" />
    </linearGradient>
    <linearGradient
       id="linearGradient20"
       inkscape:collect="always">
      <stop
         style="stop-color:#8d5fd3;stop-opacity:1"
         offset="0"
         id="stop20" />
      <stop
         style="stop-color:#00ccff;stop-opacity:1"
         offset="1"
         id="stop21" />
    </linearGradient>
    <linearGradient
       id="paint0_linear"
       x1="31.3578"
       y1="18.706699"
       x2="31.3578"
       y2="3"
       gradientUnits="userSpaceOnUse">
      <stop
         stop-color="#FD2E00"
         id="stop6" />
      <stop
         offset="1"
         stop-color="#FF9900"
         id="stop7" />
    </linearGradient>
    <linearGradient
       id="paint1_linear"
       x1="9.2724304"
       y1="44.206501"
       x2="9.2724304"
       y2="21.485399"
       gradientUnits="userSpaceOnUse"
       gradientTransform="matrix(0.22762209,0,0,0.223415,0.81713389,0.82975489)">
      <stop
         stop-color="#FD2E00"
         id="stop8" />
      <stop
         offset="1"
         stop-color="#FF9900"
         id="stop9" />
    </linearGradient>
    <linearGradient
       id="paint2_linear"
       x1="24.4774"
       y1="44.587799"
       x2="24.4774"
       y2="21.488501"
       gradientUnits="userSpaceOnUse"
       gradientTransform="matrix(0.22762209,0,0,0.223415,0.81713389,0.82975489)">
      <stop
         stop-color="#FD2E00"
         id="stop10" />
      <stop
         offset="1"
         stop-color="#FF9900"
         id="stop11" />
    </linearGradient>
    <linearGradient
       id="paint3_linear"
       x1="53.788799"
       y1="44.5877"
       x2="53.788799"
       y2="21.504101"
       gradientUnits="userSpaceOnUse"
       gradientTransform="matrix(0.22762209,0,0,0.223415,0.81713389,0.82975489)">
      <stop
         stop-color="#FD2E00"
         id="stop12" />
      <stop
         offset="1"
         stop-color="#FF9900"
         id="stop13" />
    </linearGradient>
    <linearGradient
       id="paint4_linear"
       x1="39.3997"
       y1="44.2062"
       x2="39.3997"
       y2="21.8701"
       gradientUnits="userSpaceOnUse"
       gradientTransform="matrix(0.22762209,0,0,0.223415,0.81713389,0.82975489)">
      <stop
         stop-color="#FD2E00"
         id="stop14" />
      <stop
         offset="1"
         stop-color="#FF9900"
         id="stop15" />
    </linearGradient>
    <linearGradient
       id="paint5_linear"
       x1="31.5718"
       y1="61.187698"
       x2="31.5718"
       y2="46.968601"
       gradientUnits="userSpaceOnUse"
       gradientTransform="matrix(0.22762209,0,0,0.223415,0.81713389,0.82975489)">
      <stop
         stop-color="#FD2E00"
         id="stop16" />
      <stop
         offset="1"
         stop-color="#FF9900"
         id="stop17" />
    </linearGradient>
    <linearGradient
       id="paint5_linear-3"
       x1="31.5718"
       y1="61.187698"
       x2="31.5718"
       y2="46.968601"
       gradientUnits="userSpaceOnUse"
       gradientTransform="matrix(-0.22762209,0,0,-0.223415,15.190258,15.170245)">
      <stop
         stop-color="#FD2E00"
         id="stop16-6" />
      <stop
         offset="1"
         stop-color="#FF9900"
         id="stop17-7" />
    </linearGradient>
    <linearGradient
       inkscape:collect="always"
       xlink:href="#linearGradient20"
       id="linearGradient21"
       x1="8.2572031"
       y1="1.5009885"
       x2="8.1238861"
       y2="4.676764"
       gradientUnits="userSpaceOnUse" />
    <linearGradient
       inkscape:collect="always"
       xlink:href="#linearGradient22"
       id="linearGradient23"
       x1="7.7457461"
       y1="12.187789"
       x2="7.7843933"
       y2="14.5"
       gradientUnits="userSpaceOnUse" />
    <linearGradient
       inkscape:collect="always"
       xlink:href="#linearGradient22"
       id="linearGradient25"
       x1="7.9748254"
       y1="10.791336"
       x2="7.9748254"
       y2="5.6306014"
       gradientUnits="userSpaceOnUse" />
  </defs>
  <g
     id="g23"
     style="fill:url(#linearGradient25);fill-opacity:1">
    <path
       d="m 11.923726,6.2538689 c 0.386616,-0.6551421 1.383624,-0.8319974 1.969478,-0.3313021 0.612098,0.4550294 0.676538,1.3933053 0.184806,1.9570931 0.463757,0.4666469 0.458658,1.1574908 0.384909,1.7603315 C 14.349313,10.190486 13.885555,10.662115 13.318367,10.76674 12.74271,10.883005 12.133138,10.574938 11.83896,10.088363 11.588006,9.7064126 11.61259,9.2314547 11.633781,8.7971806 11.649897,8.4517587 11.824551,8.1387319 12.047507,7.8796599 11.667697,7.4312883 11.597339,6.7487555 11.923726,6.2538689 Z m 1.018222,0.2565698 c -0.362852,0.099643 -0.465442,0.6136317 -0.168713,0.8411352 0.230603,0.2349879 0.672304,0.073079 0.728276,-0.2383168 0.116133,-0.3221644 -0.212803,-0.7007858 -0.559563,-0.6028184 z m 0,1.828406 c -0.239914,0.057284 -0.42645,0.2939472 -0.416275,0.5363971 0.01272,0.2939471 -0.07885,0.6476578 0.156012,0.881819 0.183964,0.205095 0.550208,0.2266769 0.74182,0.019929 C 13.672752,9.5386727 13.594768,9.16834 13.599002,8.8627753 13.596453,8.5414375 13.274299,8.2458371 12.941948,8.3388447 Z"
       id="path4"
       style="fill:url(#linearGradient25);stroke-width:0.225509;fill-opacity:1" />
    <path
       d="M 1.7983695,6.214034 C 2.110362,5.8021908 2.65635,5.5472743 3.1803064,5.6543795 c 0.5307237,0.096314 0.9724244,0.5131619 1.12418,1.0155105 0.1254881,0.4467183 0.013566,0.9432581 -0.2713028,1.3110886 -0.4578163,0.6144583 -0.911376,1.2330497 -1.3700505,1.847508 0.5544578,0.00165 1.1089225,8.266e-4 1.6634099,0.00165 0.00168,0.2914454 0.00168,0.5820634 8.422e-4,0.8735304 -0.9317483,0.0033 -1.8634874,0.0033 -2.7960756,0 -0.00678,-0.274018 -0.00593,-0.548863 -0.00424,-0.8228822 C 2.1264708,9.0712215 2.7241745,8.2599793 3.3218874,7.4503903 3.4931275,7.2419888 3.5295925,6.9173221 3.3413718,6.707245 3.1548583,6.4183024 2.6682205,6.4357288 2.4969622,6.7296759 2.347749,6.9463884 2.3952265,7.2187313 2.3875966,7.4645101 2.0925574,7.467839 1.7983695,7.4736478 1.5041793,7.4545458 1.4872237,7.0261029 1.5101134,6.5644381 1.7983695,6.214034 Z"
       id="path2"
       style="fill:url(#linearGradient25);stroke-width:0.225509;fill-opacity:1" />
    <path
       d="M 5.912773,5.6950633 C 6.4511448,5.5480786 7.0810662,5.6493973 7.4973415,6.030521 7.7889709,6.2829352 7.9661747,6.66073 7.9627831,7.0427026 7.9636253,7.7941366 7.9585493,8.5447664 7.9738,9.2962227 7.992465,9.7628696 7.755078,10.227863 7.3650703,10.495224 6.6249343,11.029141 5.4074975,10.826526 4.9751066,10.004493 4.7512858,9.6383158 4.8114691,9.1990819 4.8063931,8.7930474 4.8267425,8.1835713 4.8097847,7.5741175 4.8182522,6.9646414 4.8445426,6.3618231 5.3252577,5.8420257 5.912773,5.6950633 Z M 6.1772927,6.5137676 C 5.9297309,6.5735535 5.7025185,6.7744929 5.7016763,7.0385471 5.6855607,7.7609372 5.7008341,8.4833272 5.694051,9.2057173 5.68811,9.4265854 5.7279667,9.6898129 5.9492381,9.8052291 6.316347,10.04187 6.9971192,9.9364184 7.0759674,9.4481672 7.0920831,8.6452361 7.0861422,7.8406516 7.0785168,7.0377205 7.0632661,6.6026198 6.5537341,6.4265911 6.1772927,6.5137676 Z"
       id="path3"
       style="fill:url(#linearGradient25);stroke-width:0.225509;fill-opacity:1" />
    <path
       d="m 9.8686401,5.7174942 c 0.2933589,-0.0025 0.5875379,-0.0025 0.8808749,0.00248 0.0017,1.0777763 -0.0059,2.154726 0.01104,3.2316757 0.180572,0.00165 0.361145,0.00333 0.542582,0.00416 0.0026,0.2906182 0.0026,0.5804098 0.0017,0.871028 -0.181437,8.267e-4 -0.362032,0.00248 -0.543447,0.00331 0,0.2897911 0,0.5787561 -0.0034,0.8685481 -0.295886,0.01 -0.591772,0.0083 -0.8868155,0.0041 0,-0.290618 0,-0.582063 -0.00168,-0.8735078 -0.5324309,0 -1.0657039,-0.00333 -1.5989769,0.00165 0.0178,-0.3005825 -0.037307,-0.611107 0.027133,-0.9058808 C 8.8224435,7.8564471 9.3489334,6.7886127 9.8686401,5.7174942 Z M 9.1318957,8.9524764 c 0.2458774,8.266e-4 0.4925742,0.00168 0.7392938,-8.266e-4 0,-0.5073308 -0.00168,-1.0146616 8.422e-4,-1.5220147 -0.2416209,0.509833 -0.4934164,1.0155105 -0.740136,1.5228413 z"
       id="path5"
       style="fill:url(#linearGradient25);stroke-width:0.225509;fill-opacity:1" />
  </g>
  <path
     d="m 12.291677,11.506601 c 0.183987,-0.252414 0.623138,-0.243299 0.79101,0.02158 0.141581,0.165238 0.123781,0.409364 -0.0178,0.567966 C 11.651581,13.81993 9.2980826,14.727486 7.0641083,14.450965 6.7868646,14.367118 6.4977618,14.333069 6.2171493,14.263319 4.9700079,13.936172 3.8254785,13.246155 2.9683447,12.301244 2.7140021,12.058772 2.814891,11.577178 3.1701317,11.489175 c 0.2975704,-0.107128 0.525625,0.153598 0.7028287,0.3454 1.0970475,1.130926 2.7061991,1.757829 4.2966857,1.673132 1.5853878,-0.04068 3.1182409,-0.805411 4.1220309,-2.001106 z"
     id="path6"
     style="fill:url(#linearGradient23)" />
  <path
     d="M 3.7157133,4.4933985 C 3.5317263,4.7458128 3.0925753,4.7366975 2.9247043,4.4718165 2.7831233,4.3065787 2.8009233,4.0624531 2.9425043,3.9038508 4.3558093,2.1800703 6.7093086,1.2725139 8.9432828,1.5490346 9.2205265,1.6328826 9.5096293,1.6669307 9.7902418,1.7366809 11.037384,2.0638274 12.181913,2.7538447 13.039047,3.6987561 13.293389,3.9412284 13.192501,4.4228217 12.83726,4.5108249 12.539689,4.6179524 12.311635,4.3572271 12.134431,4.1654253 11.037384,3.0344986 9.4282316,2.4075961 7.8377451,2.4922927 6.2523574,2.5329766 4.7195043,3.2977038 3.7157133,4.4933985 Z"
     id="path6-3"
     style="fill:url(#linearGradient21)" />
</svg>
