<?xml version="1.0" encoding="UTF-8" standalone="no"?>
<svg
   width="16"
   height="16"
   version="1.1"
   id="svg22"
   sodipodi:docname="cs-desklets.svg"
   inkscape:version="1.4.4 (unknown)"
   xmlns:inkscape="http://www.inkscape.org/namespaces/inkscape"
   xmlns:sodipodi="http://sodipodi.sourceforge.net/DTD/sodipodi-0.dtd"
   xmlns:xlink="http://www.w3.org/1999/xlink"
   xmlns="http://www.w3.org/2000/svg"
   xmlns:svg="http://www.w3.org/2000/svg"
   xmlns:rdf="http://www.w3.org/1999/02/22-rdf-syntax-ns#"
   xmlns:cc="http://creativecommons.org/ns#"
   xmlns:dc="http://purl.org/dc/elements/1.1/">
  <sodipodi:namedview
     pagecolor="#ffffff"
     bordercolor="#666666"
     borderopacity="1"
     objecttolerance="10"
     gridtolerance="10"
     guidetolerance="10"
     inkscape:pageopacity="0"
     inkscape:pageshadow="2"
     inkscape:window-width="1920"
     inkscape:window-height="994"
     id="namedview24"
     showgrid="false"
     inkscape:zoom="26.100738"
     inkscape:cx="8.2756281"
     inkscape:cy="10.670196"
     inkscape:window-x="0"
     inkscape:window-y="0"
     inkscape:window-maximized="1"
     inkscape:current-layer="svg22"
     inkscape:showpageshadow="2"
     inkscape:pagecheckerboard="0"
     inkscape:deskcolor="#d1d1d1">
    <inkscape:grid
       id="grid1"
       units="px"
       originx="0"
       originy="0"
       spacingx="1"
       spacingy="1"
       empcolor="#0099e5"
       empopacity="0.30196078"
       color="#0099e5"
       opacity="0.14901961"
       empspacing="5"
       dotted="false"
       gridanglex="30"
       gridanglez="30"
       visible="false" />
  </sodipodi:namedview>
  <metadata
     id="metadata2">
    <rdf:RDF>
      <cc:Work
         rdf:about="">
        <dc:format>image/svg+xml</dc:format>
        <dc:type
           rdf:resource="http://purl.org/dc/dcmitype/StillImage" />
      </cc:Work>
    </rdf:RDF>
  </metadata>
  <defs
     id="defs14">
    <filter
       id="filter2761"
       x="-0.024"
       y="-0.024"
       width="1.048"
       height="1.048"
       color-interpolation-filters="sRGB">
      <feGaussianBlur
         stdDeviation="0.14552168"
         id="feGaussianBlur4" />
    </filter>
    <linearGradient
       id="linearGradient4673"
       x1="1.2573"
       x2="15.644"
       y1="15.429"
       y2="1.1082"
       gradientTransform="matrix(3.7796,0,0,3.7796,-98.960821,0.53085)"
       gradientUnits="userSpaceOnUse">
      <stop
         stop-color="#16ff6c"
         offset="0"
         id="stop7" />
      <stop
         stop-color="#28ff61"
         offset=".47728"
         id="stop9" />
      <stop
         stop-color="#9fff1b"
         offset="1"
         id="stop11" />
    </linearGradient>
    <linearGradient
       id="linearGradient3764"
       x1="1"
       x2="47"
       gradientUnits="userSpaceOnUse"
       gradientTransform="rotate(-90,23.999998,24)">
      <stop
         style="stop-color:#00ccff;stop-opacity:1"
         id="stop2"
         offset="0" />
      <stop
         offset="1"
         style="stop-color:#2a7fff;stop-opacity:1"
         id="stop4" />
    </linearGradient>
    <style
       type="text/css"
       id="style876" />
    <style
       type="text/css"
       id="style878" />
    <style
       type="text/css"
       id="style880" />
    <style
       type="text/css"
       id="style882" />
    <filter
       id="filter1057"
       x="-0.026999999"
       y="-0.026999999"
       width="1.054"
       height="1.054"
       color-interpolation-filters="sRGB">
      <feGaussianBlur
         stdDeviation="0.61875"
         id="feGaussianBlur884" />
    </filter>
    <linearGradient
       id="linearGradient1053"
       x1="-127"
       x2="-72"
       y1="60"
       y2="5"
       gradientTransform="translate(131.5,-0.51)"
       gradientUnits="userSpaceOnUse">
      <stop
         stop-color="#02db96"
         offset="0"
         id="stop887"
         style="stop-color:#14ff6e;stop-opacity:1" />
      <stop
         stop-color="#13d39b"
         offset="1"
         id="stop889"
         style="stop-color:#a0ff1e;stop-opacity:1" />
    </linearGradient>
    <style
       type="text/css"
       id="style892" />
    <style
       type="text/css"
       id="style894" />
    <style
       type="text/css"
       id="style896" />
    <linearGradient
       id="a-367"
       gradientUnits="userSpaceOnUse"
       x1="23"
       x2="37"
       y1="20"
       y2="34"
       gradientTransform="matrix(1.9622547,0,0,1.9622547,-116.93982,-48.178796)">
      <stop
         offset="0"
         stop-color="#292c2f"
         id="stop246" />
      <stop
         offset="1"
         stop-opacity="0"
         id="stop248" />
    </linearGradient>
    <linearGradient
       id="c-53"
       gradientTransform="matrix(2.0428665,-6.8308524,5.7819337,2.3633129,25.219113,34.652812)"
       gradientUnits="userSpaceOnUse"
       x1="24"
       x2="24"
       y1="35"
       y2="13">
      <stop
         offset="0"
         stop-color="#23a2cd"
         id="stop256" />
      <stop
         offset=".53"
         stop-color="#00b8f5"
         id="stop258" />
      <stop
         offset="1"
         stop-color="#2ecbff"
         id="stop260" />
    </linearGradient>
    <linearGradient
       id="b"
       x1="5.6735563"
       x2="6.3497996"
       y1="285.08102"
       y2="296.22104"
       gradientTransform="matrix(3.9684789,0,0,3.7701975,-1.1998401,-1071.8118)"
       gradientUnits="userSpaceOnUse">
      <stop
         stop-color="#535a61"
         offset="0"
         id="stop24"
         style="stop-color:#31374e;stop-opacity:1;" />
      <stop
         stop-color="#333c45"
         offset="1"
         id="stop26"
         style="stop-color:#3a465f;stop-opacity:1;" />
    </linearGradient>
    <linearGradient
       id="l"
       x1="27.447001"
       x2="25.966"
       y1="289.76001"
       y2="289.76001"
       gradientTransform="matrix(3.741601,0,0,3.8209959,-163.25079,-1114.3625)"
       gradientUnits="userSpaceOnUse">
      <stop
         stop-color="#1881ce"
         offset="0"
         id="stop19" />
      <stop
         stop-color="#2980b9"
         offset="1"
         id="stop21" />
    </linearGradient>
    <linearGradient
       id="i"
       x1="7.8635001"
       x2="11.642"
       y1="288.34"
       y2="292.10999"
       gradientUnits="userSpaceOnUse"
       xlink:href="#a"
       gradientTransform="matrix(3.9684789,0,0,3.9686289,-97.302609,-1160.6764)" />
    <linearGradient
       id="a">
      <stop
         stop-color="#232629"
         offset="0"
         id="stop2-7" />
      <stop
         stop-opacity="0"
         offset="1"
         id="stop4-5" />
    </linearGradient>
    <linearGradient
       id="j"
       x1="10.692"
       x2="34.026001"
       y1="14.134"
       y2="29.068001"
       gradientTransform="matrix(0.98997675,0,0,1.0109685,-94.236919,-27.394731)"
       gradientUnits="userSpaceOnUse">
      <stop
         stop-color="#349cd2"
         offset="0"
         id="stop7-3" />
      <stop
         stop-color="#2694d9"
         offset=".74017"
         id="stop9-5" />
      <stop
         stop-color="#0e6daa"
         offset="1"
         id="stop11-6" />
    </linearGradient>
    <linearGradient
       id="h"
       x1="3.4561"
       x2="9.3148003"
       y1="287.76001"
       y2="293.60999"
       gradientUnits="userSpaceOnUse"
       xlink:href="#a"
       gradientTransform="matrix(3.9684789,0,0,3.9686289,-97.302609,-1160.6764)" />
    <linearGradient
       id="k"
       x1="21.274"
       x2="27.447001"
       y1="291.29999"
       y2="287.35001"
       gradientTransform="matrix(3.741601,0,0,3.8209959,-163.25079,-1114.3625)"
       gradientUnits="userSpaceOnUse">
      <stop
         stop-color="#1d99f3"
         offset="0"
         id="stop14" />
      <stop
         stop-color="#3daee9"
         offset="1"
         id="stop16" />
    </linearGradient>
    <linearGradient
       inkscape:collect="always"
       xlink:href="#linearGradient1"
       id="linearGradient26"
       x1="15.235155"
       y1="14.872931"
       x2="2.2920253"
       y2="2.7845645"
       gradientUnits="userSpaceOnUse"
       gradientTransform="matrix(0.93888881,0,0,0.92857136,1.0305584,1.0714282)" />
    <linearGradient
       id="linearGradient1"
       inkscape:collect="always">
      <stop
         style="stop-color:#ffd42a;stop-opacity:1"
         offset="0"
         id="stop1" />
      <stop
         style="stop-color:#00ffff;stop-opacity:1"
         offset="1"
         id="stop2-3" />
    </linearGradient>
    <linearGradient
       inkscape:collect="always"
       xlink:href="#linearGradient1"
       id="linearGradient5"
       x1="11.645411"
       y1="8.4365997"
       x2="16"
       y2="0.73345196"
       gradientUnits="userSpaceOnUse"
       gradientTransform="matrix(1.0833332,0,0,1.0833332,-0.1250002,-0.16666665)" />
  </defs>
  <circle
     cx="-1252.4805"
     cy="-1236.6377"
     r="0"
     fill="#5e4aa6"
     id="circle908" />
  <circle
     cx="-1258.1064"
     cy="-1248.3278"
     r="0"
     id="circle910"
     style="fill:#5e4aa6" />
  <circle
     cx="-158.55647"
     cy="17.127289"
     r="0"
     fill-rule="evenodd"
     id="circle912"
     style="fill:#5e4aa6" />
  <circle
     cx="-1258.1064"
     cy="-1248.3278"
     r="0"
     id="circle914"
     style="fill:#5e4aa6" />
  <circle
     cx="-158.55647"
     cy="17.127289"
     r="0"
     fill-rule="evenodd"
     id="circle916"
     style="fill:#5e4aa6" />
  <circle
     cx="-1160.3064"
     cy="-1263.3278"
     r="0"
     id="circle918"
     style="fill:#5e4aa6" />
  <circle
     cx="-60.733475"
     cy="2.1466885"
     r="0"
     fill-rule="evenodd"
     id="circle920"
     style="fill:#5e4aa6" />
  <g
     transform="matrix(3.7796,0,0,3.7796,158.45352,-2.1177117)"
     stroke-width="0.26458"
     id="g950"
     style="fill:#5e4aa6">
    <g
       transform="translate(-0.0272,0.0065001)"
       id="g938">
      <circle
         cx="-330.35001"
         cy="-328.38"
         r="0"
         id="circle922" />
      <circle
         cx="-312.10999"
         cy="-326.25"
         r="0"
         id="circle924" />
      <circle
         cx="-306.01999"
         cy="-333.07001"
         r="0"
         id="circle926" />
      <circle
         cx="-308.84"
         cy="-326.01001"
         r="0"
         id="circle928" />
      <circle
         cx="-330.35001"
         cy="-328.38"
         r="0"
         id="circle930" />
      <circle
         cx="-312.10999"
         cy="-326.25"
         r="0"
         id="circle932" />
      <circle
         cx="-306.01999"
         cy="-333.07001"
         r="0"
         id="circle934" />
      <circle
         cx="-308.84"
         cy="-326.01001"
         r="0"
         id="circle936" />
    </g>
    <g
       transform="translate(-0.02705,0.0064503)"
       id="g948">
      <circle
         cx="-330.35001"
         cy="-328.38"
         r="0"
         id="circle940" />
      <circle
         cx="-312.10999"
         cy="-326.25"
         r="0"
         id="circle942" />
      <circle
         cx="-306.01999"
         cy="-333.07001"
         r="0"
         id="circle944" />
      <circle
         cx="-308.84"
         cy="-326.01001"
         r="0"
         id="circle946" />
    </g>
  </g>
  <g
     id="g1"
     transform="translate(-0.54166475,-0.5)">
    <path
       class="ColorScheme-Text"
       d="m 3.0089295,2 c -0.826892,0 -1.508927,0.7345 -1.508927,1.625 v 9.75 c 0,0.891574 0.682035,1.625 1.508927,1.625 H 14.074407 c 0.82689,0 1.50892,-0.733426 1.50892,-1.625 V 3.625 C 15.583327,2.7345 14.901297,2 14.074407,2 Z m 0,1.083332 h 3.520833 1.005951 v 0 h 3.8226195 v 0 0 0 h 2.716075 c 0.28769,0 0.50296,0.232918 0.50296,0.541668 v 9.75 c 0,0.309824 -0.21527,0.541676 -0.50296,0.541676 H 3.0089295 c -0.280627,0.0074 -0.509966,-0.239452 -0.502976,-0.541676 v -9.75 c 0,-0.30875 0.215275,-0.541668 0.502976,-0.541668 z m 4.526784,0 h 2.011907 v 0 0 z"
       font-family="sans-serif"
       font-weight="400"
       overflow="visible"
       id="path22"
       sodipodi:nodetypes="sssssssssscccccccssssccssccccc"
       style="color:#d5c289;fill:url(#linearGradient26);stroke-width:0.933712" />
    <path
       d="M 14.40615,3.2108575 10.581588,7.205817"
       id="path6"
       style="fill:#000000;fill-opacity:1;stroke:url(#linearGradient5)"
       stroke-width="1.50743"
       sodipodi:nodetypes="cc" />
    <path
       d="m 9.3541349,7.4065074 1.0357191,1.0749779 -1.4796,0.307139 z"
       fill-opacity="1.0"
       fill-rule="evenodd"
       id="path12"
       style="fill:#ffe680;fill-opacity:1;stroke-width:0.301476" />
    <path
       id="rect943-3"
       style="fill:#57e389;fill-opacity:0.83166;stroke-width:2.37731;stroke-linecap:square;stroke-linejoin:round"
       d="m 3.928395,8.5 c -0.1219903,0 -0.22022,0.090759 -0.22022,0.2034237 0,0.1126663 0.09823,0.2031814 0.22022,0.2031814 h 2.6893078 c 0.1220183,0 0.2199688,-0.090526 0.2199688,-0.2031814 C 6.8376716,8.5907535 6.7396892,8.5 6.6177028,8.5 Z m 0,0.9525176 c -0.1219903,0 -0.22022,0.090758 -0.22022,0.20342 0,0.1126663 0.09823,0.2034252 0.22022,0.2034252 h 1.8458948 c 0.1219778,0 0.2202335,-0.090761 0.2202335,-0.2034252 0,-0.1126703 -0.098208,-0.20342 -0.2202335,-0.20342 z m 2.7731841,0 c -0.1219229,0 -0.2201896,0.090758 -0.2201896,0.20342 0,0.1126663 0.098225,0.2034252 0.2201896,0.2034252 h 1.2642716 c 0.12187,0 0.2200008,-0.090761 0.2200008,-0.2034252 0,-0.1126703 -0.097938,-0.20342 -0.2200008,-0.20342 z M 3.928395,10.405028 c -0.1219903,0 -0.22022,0.09077 -0.22022,0.203425 0,0.112676 0.09823,0.203424 0.22022,0.203424 h 2.3685154 c 0.1220183,0 0.2199713,-0.09078 0.2199713,-0.203424 0,-0.112675 -0.098077,-0.203425 -0.2199713,-0.203425 z m 0,0.952512 c -0.1219903,0 -0.22022,0.09078 -0.22022,0.203426 0,0.112676 0.09823,0.203433 0.22022,0.203433 h 3.2989583 c 0.1220193,0 0.2201905,-0.09078 0.2201905,-0.203433 0,-0.112676 -0.098268,-0.203426 -0.2201905,-0.203426 z m 4.1491388,0 c -0.1219104,0 -0.2200007,0.09078 -0.2200007,0.203426 0,0.112676 0.097938,0.203433 0.2200007,0.203433 h 0.5951559 c 0.12187,0 0.2201611,-0.09078 0.2201611,-0.203433 0,-0.112676 -0.098268,-0.203426 -0.2201611,-0.203426 z M 3.928395,12.310053 c -0.1219903,0 -0.22022,0.09078 -0.22022,0.20343 0,0.112676 0.09823,0.203426 0.22022,0.203426 h 2.3685154 c 0.1220183,0 0.2199713,-0.09078 0.2199713,-0.203426 0,-0.112676 -0.098077,-0.20343 -0.2199713,-0.20343 z m 3.1123374,0 c -0.1220183,0 -0.2201905,0.09078 -0.2201905,0.20343 0,0.112676 0.098268,0.203426 0.2201905,0.203426 h 1.6493615 c 0.12187,0 0.2201601,-0.09078 0.2201601,-0.203426 0,-0.112676 -0.098268,-0.20343 -0.2201601,-0.20343 z" />
  </g>
</svg>
