<?xml version="1.0" encoding="UTF-8" standalone="no"?>
<!-- Generator: Gravit.io -->

<svg
   style="isolation:isolate"
   viewBox="0 0 13 13"
   width="13pt"
   height="13pt"
   version="1.1"
   id="svg2"
   sodipodi:docname="accessories-ebook-reader.svg"
   inkscape:version="1.4.4 (unknown)"
   xmlns:inkscape="http://www.inkscape.org/namespaces/inkscape"
   xmlns:sodipodi="http://sodipodi.sourceforge.net/DTD/sodipodi-0.dtd"
   xmlns:xlink="http://www.w3.org/1999/xlink"
   xmlns="http://www.w3.org/2000/svg"
   xmlns:svg="http://www.w3.org/2000/svg">
  <defs
     id="defs2">
    <linearGradient
       id="_lgradient_3"
       x1="1.0292969"
       y1="1.0688416"
       x2="-0.010366589"
       y2="0.13682805"
       gradientTransform="matrix(5.8960416,0,0,6.0008541,5.250001,42.75)"
       gradientUnits="userSpaceOnUse">
      <stop
         offset="0%"
         stop-opacity="1"
         style="stop-color:rgb(199,81,251)"
         id="stop1-3" />
      <stop
         offset="97.5%"
         stop-opacity="1"
         style="stop-color:#33d17a;stop-opacity:1"
         id="stop2-6" />
    </linearGradient>
    <linearGradient
       id="_lgradient_20"
       x1="0"
       y1="0.5"
       x2="0.74727106"
       y2="0.59387076"
       gradientTransform="matrix(13.000205,0,0,13.000205,17.250027,29.999897)"
       gradientUnits="userSpaceOnUse">
      <stop
         offset="2.608695652173913%"
         stop-opacity="1"
         style="stop-color:#ff00ff;stop-opacity:1"
         id="stop3" />
      <stop
         offset="51.73913043478261%"
         stop-opacity="1"
         style="stop-color:#9955ff;stop-opacity:1"
         id="stop4" />
      <stop
         offset="99.1304347826087%"
         stop-opacity="1"
         style="stop-color:#ffd42a;stop-opacity:1"
         id="stop5" />
    </linearGradient>
    <linearGradient
       inkscape:collect="always"
       xlink:href="#linearGradient24"
       id="linearGradient26"
       x1="0.5"
       y1="15"
       x2="15.5"
       y2="1"
       gradientUnits="userSpaceOnUse"
       gradientTransform="matrix(0.70416663,0,0,0.69642854,0.866668,0.9285715)" />
    <linearGradient
       id="linearGradient24"
       x1="0"
       x2="0"
       y1="0"
       y2="1">
      <stop
         offset="0%"
         style="stop-color:#febc85;stop-opacity:1"
         id="stop23" />
      <stop
         offset="1"
         style="stop-color:#8660cb;stop-opacity:1"
         id="stop24" />
    </linearGradient>
  </defs>
  <sodipodi:namedview
     id="namedview2"
     pagecolor="#ffffff"
     bordercolor="#000000"
     borderopacity="0.25"
     inkscape:showpageshadow="2"
     inkscape:pageopacity="0.0"
     inkscape:pagecheckerboard="0"
     inkscape:deskcolor="#d1d1d1"
     inkscape:document-units="pt"
     inkscape:zoom="33.45499"
     inkscape:cx="13.092218"
     inkscape:cy="9.4903631"
     inkscape:window-width="1920"
     inkscape:window-height="994"
     inkscape:window-x="0"
     inkscape:window-y="0"
     inkscape:window-maximized="1"
     inkscape:current-layer="svg2" />
  <linearGradient
     id="_lgradient_54"
     x1="0.06818182"
     y1="0.23295455"
     x2="0.93843019"
     y2="0.77938956"
     gradientTransform="matrix(38,0,0,46,4,1)"
     gradientUnits="userSpaceOnUse">
    <stop
       offset="1.3043478260869565%"
       stop-opacity="1"
       style="stop-color:rgb(55,236,186)"
       id="stop1" />
    <stop
       offset="97.82608695652173%"
       stop-opacity="1"
       style="stop-color:rgb(114,175,211)"
       id="stop2" />
  </linearGradient>
  <path
     d="M 4.743284,1.633081 A 5.47503,5.47503 0 0 0 3.121033,2.371725 v 3.937964 l 0.811521,-0.81152 0.81071,0.81071 V 1.633 Z"
     fill="#24a9f7"
     stroke-width="0.76643"
     id="path4-2-9"
     style="fill:#d35f8d" />
  <path
     id="rect943-3"
     style="fill:#d35f8d;fill-opacity:1;stroke-width:2.16009;stroke-linecap:square;stroke-linejoin:round"
     d="m 5.7344947,6.309689 c -0.113485,0 -0.20489,0.08055 -0.20489,0.180531 0,0.09999 0.09139,0.180307 0.20489,0.180307 h 2.502003 c 0.113476,0 0.204634,-0.08035 0.204634,-0.180307 0,-0.09999 -0.09121,-0.180531 -0.204634,-0.180531 z m 0,0.845315 c -0.113485,0 -0.20489,0.08055 -0.20489,0.180529 0,0.09999 0.09139,0.180538 0.20489,0.180538 h 1.717332 c 0.113481,0 0.20489,-0.08055 0.20489,-0.180538 0,-0.09999 -0.09138,-0.180529 -0.20489,-0.180529 z m 2.580038,0 c -0.113491,0 -0.20489,0.08055 -0.20489,0.180529 0,0.09999 0.09138,0.180538 0.20489,0.180538 h 1.176219 c 0.113488,0 0.204646,-0.08055 0.204646,-0.180538 0,-0.09999 -0.09121,-0.180529 -0.204646,-0.180529 z m -2.580038,0.845312 c -0.113485,0 -0.20489,0.08055 -0.20489,0.180526 0,0.09999 0.09139,0.180528 0.20489,0.180528 h 2.203556 c 0.1135,0 0.204647,-0.08055 0.204647,-0.180528 0,-0.09999 -0.09121,-0.180526 -0.204647,-0.180526 z m 0,0.845307 c -0.113485,0 -0.20489,0.08055 -0.20489,0.180532 0,0.09999 0.09139,0.180535 0.20489,0.180535 h 3.069195 c 0.113495,0 0.204894,-0.08055 0.204894,-0.180535 0,-0.09999 -0.09138,-0.180532 -0.204894,-0.180532 z m 3.86016,0 c -0.113489,0 -0.204638,0.08055 -0.204638,0.180532 0,0.09999 0.09121,0.180535 0.204638,0.180535 h 0.5537013 c 0.113488,0 0.204895,-0.08055 0.204895,-0.180535 0,-0.09999 -0.09138,-0.180532 -0.204895,-0.180532 z m -3.86016,0.845316 c -0.113485,0 -0.20489,0.08055 -0.20489,0.180532 0,0.09999 0.09139,0.180529 0.20489,0.180529 h 2.203556 c 0.1135,0 0.204647,-0.08055 0.204647,-0.180529 0,-0.09999 -0.09121,-0.180532 -0.204647,-0.180532 z m 2.895571,0 c -0.113488,0 -0.204891,0.08055 -0.204891,0.180532 3e-6,0.09999 0.09139,0.180529 0.204891,0.180529 h 1.5344873 c 0.113479,0 0.20489,-0.08055 0.20489,-0.180529 0,-0.09999 -0.09137,-0.180532 -0.20489,-0.180532 z" />
  <path
     class="ColorScheme-Text"
     d="m 2.350447,1.6250005 c -0.62017,0 -1.131696,0.550875 -1.131696,1.21875 v 7.3124985 c 0,0.668681 0.511526,1.21875 1.131696,1.21875 h 8.299105 c 0.620173,0 1.131697,-0.550069 1.131697,-1.21875 V 2.8437505 c 0,-0.667875 -0.511524,-1.21875 -1.131697,-1.21875 z m 0,0.812499 h 2.640624 0.754464 v 0 h 2.866964 v 0 0 0 h 2.037053 c 0.215771,0 0.377225,0.174688 0.377225,0.406251 v 7.3124985 c 0,0.232369 -0.161454,0.406257 -0.377225,0.406257 H 2.350447 C 2.139976,10.568106 1.967972,10.382918 1.973215,10.156249 V 2.8437505 c 0,-0.231563 0.161456,-0.406251 0.377232,-0.406251 z m 3.395088,0 h 1.50893 v 0 0 z"
     font-family="sans-serif"
     font-weight="400"
     overflow="visible"
     id="path22"
     sodipodi:nodetypes="sssssssssscccccccssssccssccccc"
     style="color:#d5c289;fill:url(#linearGradient26);stroke-width:0.700285" />
</svg>
