<?xml version="1.0" encoding="UTF-8" standalone="no"?>
<!-- Generator: Gravit.io -->

<svg
   style="isolation:isolate"
   viewBox="0 0 16 16"
   width="16pt"
   height="16pt"
   version="1.1"
   id="svg6"
   sodipodi:docname="accessories-camera.svg"
   inkscape:version="1.4.4 (unknown)"
   xmlns:inkscape="http://www.inkscape.org/namespaces/inkscape"
   xmlns:sodipodi="http://sodipodi.sourceforge.net/DTD/sodipodi-0.dtd"
   xmlns="http://www.w3.org/2000/svg"
   xmlns:svg="http://www.w3.org/2000/svg">
  <defs
     id="defs6" />
  <sodipodi:namedview
     id="namedview6"
     pagecolor="#ffffff"
     bordercolor="#000000"
     borderopacity="0.25"
     inkscape:showpageshadow="2"
     inkscape:pageopacity="0.0"
     inkscape:pagecheckerboard="0"
     inkscape:deskcolor="#d1d1d1"
     inkscape:document-units="pt"
     inkscape:zoom="23.65625"
     inkscape:cx="13.590489"
     inkscape:cy="7.1651255"
     inkscape:window-width="1920"
     inkscape:window-height="994"
     inkscape:window-x="0"
     inkscape:window-y="0"
     inkscape:window-maximized="1"
     inkscape:current-layer="svg6" />
  <linearGradient
     id="_lgradient_3"
     x1="1.0292969"
     y1="1.0688416"
     x2="-0.010366589"
     y2="0.13682805"
     gradientTransform="matrix(5.8960416,0,0,6.0008541,43.987993,-3.0431875)"
     gradientUnits="userSpaceOnUse">
    <stop
       offset="0%"
       stop-opacity="1"
       style="stop-color:rgb(199,81,251)"
       id="stop1" />
    <stop
       offset="97.5%"
       stop-opacity="1"
       style="stop-color:#33d17a;stop-opacity:1"
       id="stop2" />
  </linearGradient>
  <linearGradient
     id="_lgradient_4"
     x1="7.6923079e-08"
     y1="-7.6923081e-09"
     x2="1.0000001"
     y2="1"
     gradientTransform="matrix(13,0,0,13,39.947159,-6.0014999)"
     gradientUnits="userSpaceOnUse">
    <stop
       offset="0%"
       stop-opacity="1"
       style="stop-color:#57e389;stop-opacity:1"
       id="stop3" />
    <stop
       offset="100%"
       stop-opacity="1"
       style="stop-color:rgb(197,34,255)"
       id="stop4" />
  </linearGradient>
  <linearGradient
     id="_lgradient_5"
     x1="9.7165987e-08"
     y1="0"
     x2="1"
     y2="0.99999994"
     gradientTransform="matrix(10.291667,0,0,10.291667,41.301326,-4.6473333)"
     gradientUnits="userSpaceOnUse">
    <stop
       offset="0%"
       stop-opacity="1"
       style="stop-color:#57e389;stop-opacity:1"
       id="stop5" />
    <stop
       offset="100%"
       stop-opacity="1"
       style="stop-color:rgb(197,34,255)"
       id="stop6" />
  </linearGradient>
  <g
     id="g6"
     transform="translate(-38.44716,7.5015)">
    <path
       d="m 47.287556,-2.4040208 v 0 c -0.153021,-0.051458 -0.235354,-0.2174792 -0.183625,-0.3705 v 0 c 0.05146,-0.15275 0.217479,-0.2350834 0.370229,-0.183625 v 0 c 1.044333,0.3499166 1.901792,1.10825 2.380083,2.10004163 v 0 c 0.07096,0.14489584 0.01083,0.3193125 -0.134062,0.3891875 v 0 c -0.144896,0.0701458 -0.320125,0.009479 -0.390813,-0.13541666 v 0 C 48.917972,-1.4561042 48.182931,-2.1036667 47.287556,-2.4040208 Z M 45.884639,-2.7515 c 0,-0.160875 0.130813,-0.2916875 0.291688,-0.2916875 0.160875,0 0.291687,0.1308125 0.291687,0.2916875 0,0.160875 -0.130812,0.2916875 -0.291687,0.2916875 -0.160875,0 -0.291688,-0.1308125 -0.291688,-0.2916875 z m -0.187687,3.25 c 0,-0.19770833 0.07854,-0.39 0.219375,-0.53083333 0.140833,-0.14083334 0.333125,-0.219375 0.530833,-0.219375 0.197708,0 0.39,0.0785417 0.530833,0.219375 0.140834,0.14083333 0.219375,0.333125 0.219375,0.53083333 0,0.19770833 -0.07854,0.39 -0.219375,0.5308333 -0.140833,0.1408334 -0.333125,0.219375 -0.530833,0.219375 -0.197708,0 -0.39,-0.078542 -0.530833,-0.219375 C 45.775493,0.8885 45.696952,0.69620833 45.696952,0.4985 Z m -0.541667,0 c 0,-0.34125 0.135417,-0.67166667 0.379167,-0.91270833 0.241041,-0.24375 0.571458,-0.37916667 0.912708,-0.37916667 0.34125,0 0.671667,0.13541667 0.912708,0.37916667 0.24375,0.24104166 0.379167,0.57145833 0.379167,0.91270833 0,0.34125 -0.135417,0.6716667 -0.379167,0.9127083 -0.241041,0.24375 -0.571458,0.3791667 -0.912708,0.3791667 -0.34125,0 -0.671667,-0.1354167 -0.912708,-0.3791667 C 45.290702,1.1701667 45.155285,0.83975 45.155285,0.4985 Z m -0.625625,0 c 0,-0.50916667 0.203125,-0.99666667 0.563333,-1.35416667 C 45.450493,-1.215875 45.937993,-1.419 46.44716,-1.419 c 0.509167,0 0.996667,0.203125 1.354167,0.56333333 0.360208,0.3575 0.563333,0.845 0.563333,1.35416667 0,0.5091667 -0.203125,0.9966667 -0.563333,1.3541667 C 47.443827,2.212875 46.956327,2.416 46.44716,2.416 45.937993,2.416 45.450493,2.212875 45.092993,1.8526667 44.732785,1.4951667 44.52966,1.0076667 44.52966,0.4985 Z m -0.541667,0 c 0,-0.65270833 0.26,-1.27833333 0.720417,-1.73875 0.460417,-0.4604167 1.086042,-0.7204167 1.73875,-0.7204167 0.652708,0 1.278333,0.26 1.73875,0.7204167 0.460417,0.46041667 0.720417,1.08604167 0.720417,1.73875 0,0.6527083 -0.26,1.2783333 -0.720417,1.73875 -0.460417,0.4604167 -1.086042,0.7204167 -1.73875,0.7204167 -0.652708,0 -1.278333,-0.26 -1.73875,-0.7204167 C 44.247993,1.7768333 43.987993,1.1512083 43.987993,0.4985 Z"
       fill-rule="evenodd"
       fill="url(#_lgradient_3)"
       id="path2"
       style="fill:url(#_lgradient_3);stroke-width:0.270833" />
    <path
       d="m 39.94716,0.4985 c 0,-3.5874583 2.912542,-6.5 6.5,-6.5 3.587458,0 6.5,2.9125417 6.5,6.5 0,3.5874583 -2.912542,6.5 -6.5,6.5 -3.587458,0 -6.5,-2.9125417 -6.5,-6.5 z m 1.083333,0 c 0,-1.43541667 0.571459,-2.8139583 1.587084,-3.8295833 1.015625,-1.015625 2.394166,-1.5870834 3.829583,-1.5870834 1.435417,0 2.813958,0.5714584 3.829583,1.5870834 1.015625,1.015625 1.587084,2.39416663 1.587084,3.8295833 v 0 c 0,1.4354167 -0.571459,2.8139583 -1.587084,3.8295833 -1.015625,1.015625 -2.394166,1.5870834 -3.829583,1.5870834 v 0 c -1.435417,0 -2.813958,-0.5714584 -3.829583,-1.5870834 C 41.601952,3.3124583 41.030493,1.9339167 41.030493,0.4985 Z"
       fill-rule="evenodd"
       fill="url(#_lgradient_4)"
       id="path4"
       style="fill:url(#_lgradient_4);stroke-width:0.270833" />
    <path
       d="m 41.301327,0.4985 c 0,-2.8399583 2.305875,-5.1458333 5.145833,-5.1458333 2.839958,0 5.145833,2.305875 5.145833,5.1458333 0,2.8399583 -2.305875,5.1458333 -5.145833,5.1458333 -2.839958,0 -5.145833,-2.305875 -5.145833,-5.1458333 z m 1.083333,0 c 0,-1.07791667 0.427917,-2.1097917 1.188958,-2.8735417 C 44.337368,-3.1360833 45.369243,-3.564 46.44716,-3.564 c 1.077917,0 2.109792,0.4279167 2.873542,1.1889583 0.761041,0.76375 1.188958,1.79562503 1.188958,2.8735417 0,1.0779167 -0.427917,2.1097917 -1.188958,2.8735417 C 48.556952,4.1330833 47.525077,4.561 46.44716,4.561 45.369243,4.561 44.337368,4.1330833 43.573618,3.3720417 42.812577,2.6082917 42.38466,1.5764167 42.38466,0.4985 Z"
       fill-rule="evenodd"
       fill="url(#_lgradient_5)"
       id="path6"
       style="fill:url(#_lgradient_5);stroke-width:0.270833" />
  </g>
</svg>
