<?xml version="1.0" encoding="UTF-8" standalone="no"?>
<svg
   width="16"
   height="16"
   version="1.1"
   id="svg2"
   sodipodi:docname="acestream-tray.svg"
   inkscape:version="1.4.4 (unknown)"
   xmlns:inkscape="http://www.inkscape.org/namespaces/inkscape"
   xmlns:sodipodi="http://sodipodi.sourceforge.net/DTD/sodipodi-0.dtd"
   xmlns="http://www.w3.org/2000/svg"
   xmlns:svg="http://www.w3.org/2000/svg">
  <sodipodi:namedview
     id="namedview2"
     pagecolor="#ffffff"
     bordercolor="#000000"
     borderopacity="0.25"
     inkscape:showpageshadow="2"
     inkscape:pageopacity="0.0"
     inkscape:pagecheckerboard="0"
     inkscape:deskcolor="#d1d1d1"
     inkscape:zoom="47.4375"
     inkscape:cx="7.9894598"
     inkscape:cy="8"
     inkscape:window-width="1920"
     inkscape:window-height="996"
     inkscape:window-x="0"
     inkscape:window-y="0"
     inkscape:window-maximized="1"
     inkscape:current-layer="svg2" />
  <defs
     id="defs1">
    <style
       id="current-color-scheme"
       type="text/css">
   .ColorScheme-Text { color:#dfdfdf; } .ColorScheme-Highlight { color:#4285f4; } .ColorScheme-NeutralText { color:#ff9800; } .ColorScheme-PositiveText { color:#4caf50; } .ColorScheme-NegativeText { color:#f44336; }
  </style>
  </defs>
  <g
     id="g2"
     transform="matrix(0.92857143,0,0,0.92857143,0.57142917,0.57142856)">
    <path
       style="fill:#f66151"
       class="ColorScheme-Text"
       d="m 8,1 v 2 a 5,5 0 0 1 4.324219,2.5039062 l 1.734375,-1 A 7.004701,7.0000005 0 0 0 14.019531,4.4355469 7.004701,7.0000005 0 0 0 8,1 Z M 1.9414062,4.5039062 A 7.004701,7.0000005 0 0 0 1.9023438,4.5722656 7.004701,7.0000005 0 0 0 1.9335938,11.5 L 3.6757812,10.496094 A 5,5 0 0 1 3,8 5,5 0 0 1 3.6738281,5.5039062 Z M 6,5.046875 V 8 10.953125 L 8.1328125,9.4765625 10.265625,8 8.1328125,6.5234375 Z m 6.326172,5.449219 A 5,5 0 0 1 8,13 v 2 a 7.004701,7.0000005 0 0 0 6.019531,-3.435547 7.004701,7.0000005 0 0 0 0.03906,-0.06836 z"
       id="path1" />
    <path
       style="opacity:1;fill:#f6d32d"
       class="ColorScheme-Text"
       d="m 8,1 a 7.004701,7.0000005 0 0 0 -6.0195312,3.4355469 7.004701,7.0000005 0 0 0 -0.039063,0.068359 l 1.7324219,1 A 5,5 0 0 1 8,3 Z m 6.066406,3.5 -1.742187,1.0039062 A 5,5 0 0 1 13,8 5,5 0 0 1 12.326172,10.496094 l 1.732422,1 a 7.004701,7.0000005 0 0 0 0.03906,-0.06836 A 7.004701,7.0000005 0 0 0 14.066406,4.5 Z m -10.3906248,5.996094 -1.734375,1 a 7.004701,7.0000005 0 0 0 0.039063,0.06836 A 7.004701,7.0000005 0 0 0 8,15 V 13 A 5,5 0 0 1 3.6757812,10.496094 Z"
       id="path2" />
  </g>
</svg>
