<?xml version="1.0" encoding="UTF-8" standalone="no"?>
<!-- Generator: Gravit.io -->

<svg
   style="isolation:isolate"
   viewBox="0 0 16 16"
   width="16pt"
   height="16pt"
   version="1.1"
   id="svg6"
   sodipodi:docname="betterbird.svg"
   inkscape:version="1.4.4 (unknown)"
   xmlns:inkscape="http://www.inkscape.org/namespaces/inkscape"
   xmlns:sodipodi="http://sodipodi.sourceforge.net/DTD/sodipodi-0.dtd"
   xmlns:xlink="http://www.w3.org/1999/xlink"
   xmlns="http://www.w3.org/2000/svg"
   xmlns:svg="http://www.w3.org/2000/svg">
  <defs
     id="defs6">
    <linearGradient
       id="linearGradient6"
       inkscape:collect="always">
      <stop
         style="stop-color:#ffdd55;stop-opacity:1"
         offset="0"
         id="stop7" />
      <stop
         style="stop-color:#ff5599;stop-opacity:1"
         offset="1"
         id="stop8" />
    </linearGradient>
    <linearGradient
       inkscape:collect="always"
       xlink:href="#linearGradient6"
       id="linearGradient8"
       x1="0.95873946"
       y1="47.030327"
       x2="46.958538"
       y2="1.0297469"
       gradientUnits="userSpaceOnUse" />
  </defs>
  <sodipodi:namedview
     id="namedview6"
     pagecolor="#ffffff"
     bordercolor="#000000"
     borderopacity="0.25"
     inkscape:showpageshadow="2"
     inkscape:pageopacity="0.0"
     inkscape:pagecheckerboard="0"
     inkscape:deskcolor="#d1d1d1"
     inkscape:document-units="pt"
     inkscape:zoom="24.34375"
     inkscape:cx="9.1810013"
     inkscape:cy="14.685494"
     inkscape:window-width="1920"
     inkscape:window-height="996"
     inkscape:window-x="0"
     inkscape:window-y="0"
     inkscape:window-maximized="1"
     inkscape:current-layer="svg6" />
  <linearGradient
     id="_lgradient_3"
     x1="0"
     y1="0.5"
     x2="1.0176991"
     y2="0.5"
     gradientTransform="matrix(27,0,0,22.68,10.5,12.66)"
     gradientUnits="userSpaceOnUse">
    <stop
       offset="0%"
       stop-opacity="1"
       style="stop-color:rgb(84,51,255)"
       id="stop1" />
    <stop
       offset="51.73913043478261%"
       stop-opacity="1"
       style="stop-color:rgb(32,189,255)"
       id="stop2" />
    <stop
       offset="98.26086956521739%"
       stop-opacity="1"
       style="stop-color:rgb(165,254,203)"
       id="stop3" />
  </linearGradient>
  <linearGradient
     id="_lgradient_4"
     x1="0.071553186"
     y1="0.74391294"
     x2="0.99873358"
     y2="0.49568295"
     gradientTransform="matrix(46,0,0,46,0.959,1.03)"
     gradientUnits="userSpaceOnUse">
    <stop
       offset="0%"
       stop-opacity="1"
       style="stop-color:rgb(84,51,255)"
       id="stop4" />
    <stop
       offset="51.73913043478261%"
       stop-opacity="1"
       style="stop-color:rgb(32,189,255)"
       id="stop5" />
    <stop
       offset="98.26086956521739%"
       stop-opacity="1"
       style="stop-color:rgb(165,254,203)"
       id="stop6" />
  </linearGradient>
  <g
     id="g6"
     transform="matrix(0.28260514,0,0,0.28260514,1.2291655,1.2089882)">
    <path
       d="m 33.433,40.492 v 0 c 0.958,-0.547 2.184,-0.216 2.736,0.739 v 0 c 0.553,0.955 0.225,2.179 -0.733,2.732 v 0 c -3.725,2.144 -7.974,3.2 -12.261,3.054 -3.888,-0.133 -7.682,-1.253 -11.026,-3.248 v 0 c -0.947,-0.568 -1.255,-1.798 -0.687,-2.745 v 0 c 0.568,-0.947 1.798,-1.255 2.745,-0.687 v 0 c 2.755,1.655 5.886,2.572 9.104,2.682 3.548,0.121 7.05,-0.75 10.122,-2.527 v 0 z m 7.534,-24.937 v 0 c -0.496,-0.989 -0.096,-2.193 0.892,-2.686 v 0 c 0.989,-0.494 2.19,-0.092 2.681,0.896 v 0 c 1.715,3.421 2.536,7.221 2.405,11.049 -0.099,2.918 -0.747,5.788 -1.919,8.449 v 0 c -0.443,1.012 -1.624,1.474 -2.637,1.031 v 0 c -1.012,-0.443 -1.473,-1.625 -1.03,-2.637 v 0 c 0.975,-2.198 1.506,-4.571 1.589,-6.98 0.107,-3.158 -0.576,-6.293 -1.981,-9.122 v 0 z M 15.727,6.91 v 0 c -0.993,0.474 -2.19,0.052 -2.669,-0.942 v 0 c -0.48,-0.994 -0.063,-2.19 0.931,-2.67 v 0 C 17.336,1.691 21.024,0.917 24.742,1.043 28.32,1.165 31.83,2.116 34.973,3.834 v 0 c 0.971,0.53 1.328,1.748 0.798,2.718 v 0 C 35.241,7.523 34.023,7.88 33.052,7.35 v 0 C 30.459,5.931 27.564,5.142 24.606,5.041 21.538,4.936 18.494,5.573 15.727,6.91 Z M 5.933,30.059 v 0 c 0.351,1.045 -0.215,2.178 -1.262,2.529 v 0 C 3.623,32.939 2.488,32.371 2.137,31.321 v 0 C 1.276,28.72 0.879,25.985 0.972,23.246 1.095,19.628 2.067,16.079 3.826,12.907 v 0 c 0.53,-0.964 1.745,-1.313 2.713,-0.778 v 0 c 0.967,0.536 1.318,1.754 0.783,2.719 v 0 c -1.45,2.622 -2.251,5.546 -2.352,8.535 -0.078,2.268 0.246,4.521 0.963,6.676 z M 41.174,9.498 c -0.038,1.103 -0.964,1.969 -2.067,1.931 -1.103,-0.038 -1.969,-0.964 -1.931,-2.067 0.038,-1.103 0.964,-1.968 2.067,-1.931 1.103,0.038 1.968,0.964 1.931,2.067 z M 9.931,37.22 C 9.893,38.323 8.967,39.188 7.864,39.15 6.761,39.113 5.896,38.187 5.933,37.083 5.971,35.98 6.897,35.115 8,35.153 9.103,35.19 9.969,36.116 9.931,37.22 Z m 32.016,1.091 c 0.038,-1.103 -0.827,-2.029 -1.93,-2.067 -1.103,-0.037 -2.03,0.828 -2.067,1.931 -0.038,1.103 0.827,2.029 1.93,2.067 1.104,0.038 2.03,-0.827 2.067,-1.931 z M 11.371,8.482 C 11.409,7.379 10.544,6.453 9.44,6.415 8.337,6.377 7.411,7.243 7.373,8.346 c -0.037,1.103 0.828,2.029 1.931,2.067 1.103,0.037 2.029,-0.828 2.067,-1.931 z"
       fill-rule="evenodd"
       id="path6"
       style="fill:url(#linearGradient8)" />
  </g>
  <g
     id="g1"
     transform="matrix(0.18750002,0,0,0.18750002,-13.047875,1.6246352)">
    <path
       style="opacity:0.2;stroke-width:1.10732"
       d="m 92.256051,19.230086 c 0,0 4.668921,-0.126896 8.512479,-0.126896 5.33336,9.76e-4 11.48678,1.766634 11.48678,11.035667 0,9.269032 -6.15384,11.03456 -11.48741,11.00299 -1.180312,0.05112 -1.84586,0.06334 -1.84586,0.06334 V 50.00194 H 92.255319 Z M 98.922331,36.747 c 0.677894,0.06812 0.675879,0.03535 1.680669,0.02288 3.34667,-0.03968 4.9867,-3.670093 4.9867,-6.850253 0,-2.855739 -1.2756,-6.278666 -4.48893,-6.400039 -1.282223,-0.04854 -2.178004,0 -2.178004,0 z"
       id="path2-6" />
    <path
       style="fill:#4ebae4;fill-opacity:1;stroke-width:1.10732"
       d="m 92.256051,18.12884 c 0,0 4.668921,-0.126896 8.512479,-0.126896 5.33336,0 11.48678,1.765526 11.48678,11.034559 0,9.269034 -6.15384,11.034553 -11.48741,11.002993 -1.180312,0.05112 -1.84586,0.06334 -1.84586,0.06334 v 8.796754 h -6.666721 z m 6.66628,17.516917 c 0.677894,0.06812 0.675879,0.03535 1.680669,0.02288 3.34667,-0.04192 4.9867,-3.6723 4.9867,-6.852461 0,-2.855744 -1.2756,-6.278651 -4.48893,-6.400043 -1.282223,-0.04854 -2.178004,0 -2.178004,0 z"
       id="path3" />
    <g
       style="opacity:0.2"
       transform="matrix(0.23800179,0,0,0.25719347,78.108484,-2.640075)"
       id="g4">
      <path
         d="m 162.15,178.93 c 5.109,3.135 14.876,8.5808 23.094,8.5808 8.396,0 14.252,-4.7723 14.252,-9.3853 0,-4.619 -1.5608,-10.288 -11.968,-13.796 -18.439,-6.279 -25.559,-13.795 -25.375,-24.315 0,-16.991 14.238,-29.731 36.328,-29.731 10.352,0 24.357,8.5808 24.357,8.5808 v 17.162 c -4.019,-2.218 -15.777,-8.5808 -23.443,-8.5808 -6.758,0 -13.479,4.9994 -13.479,9.6124 0,5.9349 6.3605,6.464 17.313,10.344 16.976,5.908 24.096,14.584 24.277,27.879 0,16.805 -12.954,30.168 -38.701,29.357 -8.835,-0.278 -19.901,-4.8568 -26.656,-8.5458 -1.9e-4,-6.7093 -1.4e-4,-10.452 0.001,-17.162 z"
         id="path4" />
    </g>
    <g
       style="fill:#219fd1"
       transform="matrix(0.23800179,0,0,0.25719347,78.108484,-3.7424279)"
       id="g5">
      <path
         d="m 162.15,178.93 c 5.109,3.135 14.876,8.5808 23.094,8.5808 8.396,0 14.252,-4.7723 14.252,-9.3853 0,-4.619 -1.5608,-10.288 -11.968,-13.796 -18.439,-6.279 -25.559,-13.795 -25.375,-24.315 0,-16.991 14.238,-29.731 36.328,-29.731 10.352,0 24.357,8.5808 24.357,8.5808 v 17.162 c -4.019,-2.218 -15.777,-8.5808 -23.443,-8.5808 -6.758,0 -13.479,4.9994 -13.479,9.6124 0,5.9349 6.3605,6.464 17.313,10.344 16.976,5.908 24.096,14.584 24.277,27.879 0,16.805 -12.954,30.168 -38.701,29.357 -8.835,-0.278 -19.901,-4.8568 -26.656,-8.5458 -1.9e-4,-6.7093 -1.4e-4,-10.452 0.001,-17.162 z"
         id="path5"
         style="fill:#4ebae4;fill-opacity:1" />
    </g>
  </g>
</svg>
