<?xml version="1.0" encoding="UTF-8" standalone="no"?>
<svg
   height="16"
   width="16"
   version="1.1"
   id="svg6"
   sodipodi:docname="aegisub.svg"
   inkscape:version="1.4.4 (unknown)"
   xmlns:inkscape="http://www.inkscape.org/namespaces/inkscape"
   xmlns:sodipodi="http://sodipodi.sourceforge.net/DTD/sodipodi-0.dtd"
   xmlns:xlink="http://www.w3.org/1999/xlink"
   xmlns="http://www.w3.org/2000/svg"
   xmlns:svg="http://www.w3.org/2000/svg"
   xmlns:rdf="http://www.w3.org/1999/02/22-rdf-syntax-ns#"
   xmlns:cc="http://creativecommons.org/ns#"
   xmlns:dc="http://purl.org/dc/elements/1.1/">
  <metadata
     id="metadata12">
    <rdf:RDF>
      <cc:Work
         rdf:about="">
        <dc:format>image/svg+xml</dc:format>
        <dc:type
           rdf:resource="http://purl.org/dc/dcmitype/StillImage" />
      </cc:Work>
    </rdf:RDF>
  </metadata>
  <defs
     id="defs10">
    <linearGradient
       id="linearGradient1"
       inkscape:collect="always">
      <stop
         style="stop-color:#c061cb;stop-opacity:1"
         offset="0"
         id="stop1" />
      <stop
         style="stop-color:#62a0ea;stop-opacity:1"
         offset="1"
         id="stop2" />
    </linearGradient>
    <marker
       style="overflow:visible"
       id="DotL"
       refX="0"
       refY="0"
       orient="auto"
       inkscape:stockid="DotL"
       inkscape:isstock="true">
      <path
         transform="matrix(0.8,0,0,0.8,5.92,0.8)"
         style="fill:#000000;fill-opacity:1;fill-rule:evenodd;stroke:#000000;stroke-width:1pt;stroke-opacity:1"
         d="m -2.5,-1 c 0,2.76 -2.24,5 -5,5 -2.76,0 -5,-2.24 -5,-5 0,-2.76 2.24,-5 5,-5 2.76,0 5,2.24 5,5 z"
         id="path898" />
    </marker>
    <linearGradient
       inkscape:collect="always"
       xlink:href="#linearGradient1"
       id="linearGradient2"
       x1="10.707617"
       y1="31.534513"
       x2="37.173615"
       y2="31.534513"
       gradientUnits="userSpaceOnUse"
       gradientTransform="matrix(0.49119626,0,0,0.49119635,-3.7595404,-7.4896377)" />
    <linearGradient
       id="c-6"
       x1="32"
       x2="32"
       y1="45"
       y2="19"
       gradientUnits="userSpaceOnUse"
       gradientTransform="matrix(0.18969909,0,0,0.18969909,2.6885679,2.6841569)">
      <stop
         offset="0"
         stop-color="#fff"
         id="stop1-0" />
      <stop
         offset="1"
         stop-color="#f9dfdf"
         id="stop2-9" />
    </linearGradient>
    <linearGradient
       id="d"
       x1="35.776508"
       x2="19.749537"
       y1="25.270842"
       y2="25.463461"
       gradientUnits="userSpaceOnUse"
       gradientTransform="matrix(0.18969909,0,0,0.18969909,2.6885679,2.6841569)"
       xlink:href="#linearGradient1">
      <stop
         offset="0"
         stop-color="#196ce8"
         id="stop3"
         style="stop-color:#000000;stop-opacity:1" />
      <stop
         offset="1"
         stop-color="#34c6ef"
         id="stop4" />
    </linearGradient>
    <linearGradient
       inkscape:collect="always"
       xlink:href="#linearGradient1"
       id="linearGradient6"
       x1="6.4350371"
       y1="8.0000019"
       x2="9.5649595"
       y2="8.0000019"
       gradientUnits="userSpaceOnUse" />
  </defs>
  <sodipodi:namedview
     pagecolor="#ffffff"
     bordercolor="#666666"
     borderopacity="1"
     objecttolerance="10"
     gridtolerance="10"
     guidetolerance="10"
     inkscape:pageopacity="0"
     inkscape:pageshadow="2"
     inkscape:window-width="1920"
     inkscape:window-height="994"
     id="namedview8"
     showgrid="false"
     inkscape:zoom="22.627417"
     inkscape:cx="9.5017474"
     inkscape:cy="17.125242"
     inkscape:window-x="0"
     inkscape:window-y="0"
     inkscape:window-maximized="1"
     inkscape:current-layer="svg6"
     inkscape:document-rotation="0"
     inkscape:pagecheckerboard="0"
     inkscape:showpageshadow="2"
     inkscape:deskcolor="#d1d1d1" />
  <path
     id="circle2"
     style="opacity:0.99;fill:url(#linearGradient2);fill-opacity:1;stroke-width:0.491197"
     d="M 14.499999,7.9999999 A 6.4999991,6.5000002 0 0 1 8.0000001,14.5 6.4999991,6.5000002 0 0 1 1.500001,7.9999999 6.4999991,6.5000002 0 0 1 8.0000001,1.5000001 6.4999991,6.5000002 0 0 1 14.499999,7.9999999 Z" />
  <path
     id="circle858"
     style="opacity:1;fill:#1c202f;fill-opacity:1;stroke-width:0.417883"
     d="M 13.529826,7.9999997 A 5.5298258,5.5298269 0 0 1 8.0000001,13.529827 5.5298258,5.5298269 0 0 1 2.4701742,7.9999997 5.5298258,5.5298269 0 0 1 8.0000001,2.4701728 5.5298258,5.5298269 0 0 1 13.529826,7.9999997 Z" />
  <g
     id="g1"
     transform="matrix(1.5136521,0,0,1.5136521,-4.1092165,-4.1092167)">
    <path
       d="m 7.9999996,6.1504999 c -1.7605816,0 -3.129923,1.438486 -3.129923,1.883216 0,0.582738 1.3693414,1.815784 3.129923,1.815784 1.7605808,0 3.1299234,-1.438485 3.1299234,-1.815784 0,-0.44473 -1.3693427,-1.883216 -3.1299234,-1.883216 z"
       id="path7"
       style="fill:url(#c-6);stroke-width:0.1897" />
    <circle
       cx="7.9999981"
       cy="8.0000019"
       id="circle7"
       style="fill:url(#linearGradient6);stroke-width:0.1897;fill-opacity:1"
       r="1.5649612" />
    <circle
       cx="7.9999981"
       cy="8.0000019"
       fill="#3f3f3f"
       id="circle8"
       r="0.85361511"
       style="stroke-width:0.1897" />
  </g>
</svg>
