<?xml version="1.0" encoding="UTF-8" standalone="no"?>
<svg
   width="16"
   height="16"
   viewBox="0 0 16 16"
   version="1.1"
   xml:space="preserve"
   style="clip-rule:evenodd;fill-rule:evenodd;stroke-linejoin:round;stroke-miterlimit:2"
   id="svg3"
   sodipodi:docname="affinity-designer-2.svg"
   inkscape:version="1.4.4 (unknown)"
   xmlns:inkscape="http://www.inkscape.org/namespaces/inkscape"
   xmlns:sodipodi="http://sodipodi.sourceforge.net/DTD/sodipodi-0.dtd"
   xmlns:xlink="http://www.w3.org/1999/xlink"
   xmlns="http://www.w3.org/2000/svg"
   xmlns:svg="http://www.w3.org/2000/svg"><sodipodi:namedview
   id="namedview3"
   pagecolor="#ffffff"
   bordercolor="#000000"
   borderopacity="0.25"
   inkscape:showpageshadow="2"
   inkscape:pageopacity="0.0"
   inkscape:pagecheckerboard="0"
   inkscape:deskcolor="#d1d1d1"
   inkscape:zoom="15.770833"
   inkscape:cx="9.5746367"
   inkscape:cy="12.840159"
   inkscape:window-width="1920"
   inkscape:window-height="994"
   inkscape:window-x="0"
   inkscape:window-y="0"
   inkscape:window-maximized="1"
   inkscape:current-layer="svg3" />
    <g
   id="g1"
   transform="matrix(0.27186415,0,0,0.27186415,1.4752604,1.4752604)"
   style="fill:url(#linearGradient7)">
        <path
   d="M 0.355,31.874 17.949,1.099 C 18.305,0.476 18.968,0.091 19.685,0.091 H 43.28 c 2.555,0 4.629,2.074 4.629,4.629 v 38.56 c 0,2.555 -2.074,4.629 -4.629,4.629 H 4.72 c -2.555,0 -4.629,-2.074 -4.629,-4.629 V 32.866 c 0,-0.348 0.091,-0.69 0.264,-0.992 z M 26.431,4.091 H 20.846 L 4.091,33.398 v 9.882 c 0,0.347 0.282,0.629 0.629,0.629 h 17.85 c 0,0 -8.962,-15.37 -8.963,-15.372 -0.36,-0.618 -0.363,-1.379 -0.009,-2 C 13.599,26.536 26.431,4.091 26.431,4.091 Z m 0.77,39.818 H 43.28 c 0.347,0 0.629,-0.282 0.629,-0.629 v -11.1 c 0,0 -8.662,0 -8.668,0 H 20.362 Z M 43.909,28.18 V 4.72 c 0,-0.347 -0.282,-0.629 -0.629,-0.629 H 31.038 l -4.301,7.524 9.659,16.565 z M 24.445,15.625 c 0,0 -2.722,4.761 -4.814,8.419 -0.489,0.856 -0.485,1.907 0.009,2.759 0.495,0.853 1.406,1.377 2.391,1.377 4.227,0 9.735,0 9.735,0 z"
   style="fill:url(#linearGradient7);fill-opacity:1"
   id="path1" />
    </g>
    <defs
   id="defs3"><linearGradient
   id="linearGradient6"
   inkscape:collect="always"><stop
     style="stop-color:#62a0ea;stop-opacity:1"
     offset="0"
     id="stop6" /><stop
     style="stop-color:#ffa348;stop-opacity:1"
     offset="1"
     id="stop7" /></linearGradient>
        <radialGradient
   id="_Radial1"
   cx="0"
   cy="0"
   r="1"
   gradientUnits="userSpaceOnUse"
   gradientTransform="matrix(-32.8007,42.6692,-42.6692,-32.8007,43.5652,2.13235)"><stop
     offset="0"
     style="stop-color:rgb(143,230,255);stop-opacity:1"
     id="stop1" /><stop
     offset="0.42"
     style="stop-color:rgb(40,187,255);stop-opacity:1"
     id="stop2" /><stop
     offset="1"
     style="stop-color:rgb(54,93,136);stop-opacity:1"
     id="stop3" /></radialGradient>
    <linearGradient
   inkscape:collect="always"
   xlink:href="#linearGradient6"
   id="linearGradient7"
   x1="0.091"
   y1="24"
   x2="47.909"
   y2="24"
   gradientUnits="userSpaceOnUse" /></defs>
</svg>
