<?xml version="1.0" encoding="UTF-8" standalone="no"?>
<svg
   width="16"
   height="16"
   viewBox="0 0 16 16"
   version="1.1"
   xml:space="preserve"
   style="clip-rule:evenodd;fill-rule:evenodd;stroke-linejoin:round;stroke-miterlimit:2"
   id="svg3"
   sodipodi:docname="affinity-publisher-2.svg"
   inkscape:version="1.4.4 (unknown)"
   xmlns:inkscape="http://www.inkscape.org/namespaces/inkscape"
   xmlns:sodipodi="http://sodipodi.sourceforge.net/DTD/sodipodi-0.dtd"
   xmlns:xlink="http://www.w3.org/1999/xlink"
   xmlns="http://www.w3.org/2000/svg"
   xmlns:svg="http://www.w3.org/2000/svg"><sodipodi:namedview
   id="namedview3"
   pagecolor="#ffffff"
   bordercolor="#000000"
   borderopacity="0.25"
   inkscape:showpageshadow="2"
   inkscape:pageopacity="0.0"
   inkscape:pagecheckerboard="0"
   inkscape:deskcolor="#d1d1d1"
   inkscape:zoom="15.770833"
   inkscape:cx="7.4187583"
   inkscape:cy="21.90753"
   inkscape:window-width="1920"
   inkscape:window-height="994"
   inkscape:window-x="0"
   inkscape:window-y="0"
   inkscape:window-maximized="1"
   inkscape:current-layer="svg3" />
    <path
   d="M 1.5717721,10.140658 6.35495,1.7740391 C 6.4517337,1.6046677 6.6319796,1.5 6.8269062,1.5 H 13.241541 C 13.936154,1.5 14.5,2.0638462 14.5,2.7584592 V 13.241541 C 14.5,13.936154 13.936154,14.5 13.241541,14.5 H 2.7584592 C 2.0638463,14.5 1.5,13.936154 1.5,13.241541 v -2.831193 c 0,-0.09461 0.02474,-0.187587 0.071772,-0.26969 z M 3.9562926,8.1609436 2.5874566,10.554979 v 2.686562 c 0,0.09434 0.076666,0.171002 0.1710026,0.171002 H 6.9881216 Z M 8.2438621,13.412543 H 9.3802543 L 5.146242,6.0790079 c 0,0 -0.1326697,0.2324439 -0.2696892,0.4719562 -0.1829646,0.3202559 -0.182149,0.7136434 0.00217,1.0330837 0.8732276,1.5123803 3.3651344,5.8284952 3.3651344,5.8284952 z m 2.3921329,0 h 1.136392 L 6.3364633,3.9973441 5.7709858,4.9863859 Z m 2.392132,0 h 0.213414 c 0.09434,0 0.171002,-0.07667 0.171002,-0.171002 V 12.110042 L 7.9146347,2.5874566 H 7.1425405 L 6.9612071,2.9044502 Z M 13.412543,9.935129 V 2.7584592 c 0,-0.094337 -0.07667,-0.1710026 -0.171002,-0.1710026 H 9.1703752 Z"
   id="path1"
   style="fill:url(#linearGradient5)" />
    <defs
   id="defs3"><linearGradient
   id="linearGradient3"
   inkscape:collect="always"><stop
     style="stop-color:#57e389;stop-opacity:1"
     offset="0"
     id="stop4" /><stop
     style="stop-color:#26a269;stop-opacity:1"
     offset="1"
     id="stop5" /></linearGradient>
        <linearGradient
   id="_Linear1"
   x1="0"
   y1="0"
   x2="1"
   y2="0"
   gradientUnits="userSpaceOnUse"
   gradientTransform="matrix(-11.353536,11.596393,-11.596393,-11.353536,13.750905,2.2639192)"><stop
     offset="0"
     style="stop-color:rgb(255,226,160);stop-opacity:1"
     id="stop1" /><stop
     offset="0.5"
     style="stop-color:rgb(255,148,82);stop-opacity:1"
     id="stop2" /><stop
     offset="1"
     style="stop-color:rgb(241,57,89);stop-opacity:1"
     id="stop3" /></linearGradient>
    <linearGradient
   inkscape:collect="always"
   xlink:href="#linearGradient3"
   id="linearGradient5"
   x1="4.1631441"
   y1="14.5"
   x2="15.134082"
   y2="1.3421401"
   gradientUnits="userSpaceOnUse" /></defs>
</svg>
