<?xml version="1.0" encoding="UTF-8" standalone="no"?>
<svg
   width="16"
   height="16"
   viewBox="0 0 16 16"
   version="1.1"
   xml:space="preserve"
   style="clip-rule:evenodd;fill-rule:evenodd;stroke-linejoin:round;stroke-miterlimit:2"
   id="svg3"
   sodipodi:docname="affinity-photo-2.svg"
   inkscape:version="1.4.4 (unknown)"
   xmlns:inkscape="http://www.inkscape.org/namespaces/inkscape"
   xmlns:sodipodi="http://sodipodi.sourceforge.net/DTD/sodipodi-0.dtd"
   xmlns:xlink="http://www.w3.org/1999/xlink"
   xmlns="http://www.w3.org/2000/svg"
   xmlns:svg="http://www.w3.org/2000/svg"><sodipodi:namedview
   id="namedview3"
   pagecolor="#ffffff"
   bordercolor="#000000"
   borderopacity="0.25"
   inkscape:showpageshadow="2"
   inkscape:pageopacity="0.0"
   inkscape:pagecheckerboard="0"
   inkscape:deskcolor="#d1d1d1"
   inkscape:zoom="30.884549"
   inkscape:cx="2.590292"
   inkscape:cy="6.7833272"
   inkscape:window-width="1920"
   inkscape:window-height="994"
   inkscape:window-x="0"
   inkscape:window-y="0"
   inkscape:window-maximized="1"
   inkscape:current-layer="svg3" />
    <g
   transform="matrix(0.27186415,0,0,0.27186415,-0.1559245,-0.1559245)"
   id="g1">
        <path
   d="M 6.355,37.874 23.949,7.099 C 24.305,6.476 24.968,6.091 25.685,6.091 H 49.28 c 2.555,0 4.629,2.074 4.629,4.629 v 38.56 c 0,2.555 -2.074,4.629 -4.629,4.629 H 10.72 c -2.555,0 -4.629,-2.074 -4.629,-4.629 V 38.866 c 0,-0.348 0.091,-0.69 0.264,-0.992 z m 11.12,-11.392 -7.384,12.916 v 9.882 c 0,0.09 0.019,0.176 0.054,0.254 0.009,-0.018 0.019,-0.036 0.029,-0.054 L 21.74,29.25 c 0.038,-0.104 0.086,-0.206 0.143,-0.304 l 1.422,-2.464 z m 7.189,-12.574 -4.902,8.574 c 0,0 7.011,0 7.012,0 h 2.84 z M 45.526,10.091 H 27.079 c 0,0 7.733,13.394 7.734,13.396 l 1.444,2.501 z M 49.909,33.41 V 10.72 c 0,-0.057 -0.008,-0.113 -0.022,-0.165 L 36.56,33.41 Z M 37.539,49.909 H 49.28 c 0.347,0 0.629,-0.282 0.629,-0.629 V 37.41 c 0,0 -16.834,0 -16.836,0 h -2.822 z m -23.002,0 h 18.372 c 0,0 -7.869,-13.495 -7.872,-13.499 L 23.632,34 Z M 31.923,26.482 H 27.93 l -1.993,3.486 1.987,3.442 h 3.999 l 2,-3.464 z"
   id="path1"
   style="fill:url(#linearGradient5)" />
    </g>
    <defs
   id="defs3"><linearGradient
   id="linearGradient3"
   inkscape:collect="always"><stop
     style="stop-color:#dc8add;stop-opacity:1"
     offset="0"
     id="stop4" /><stop
     style="stop-color:#62a0ea;stop-opacity:1"
     offset="1"
     id="stop5" /></linearGradient>
        <radialGradient
   id="_Radial1"
   cx="0"
   cy="0"
   r="1"
   gradientUnits="userSpaceOnUse"
   gradientTransform="matrix(-39.0074,44.665,-44.665,-39.0074,50.9424,7.95178)"><stop
     offset="0"
     style="stop-color:rgb(255,153,234);stop-opacity:1"
     id="stop1" /><stop
     offset="0.51"
     style="stop-color:rgb(214,83,237);stop-opacity:1"
     id="stop2" /><stop
     offset="1"
     style="stop-color:rgb(107,75,167);stop-opacity:1"
     id="stop3" /></radialGradient>
    <linearGradient
   inkscape:collect="always"
   xlink:href="#linearGradient3"
   id="linearGradient5"
   x1="6.091"
   y1="30"
   x2="53.909"
   y2="30"
   gradientUnits="userSpaceOnUse" /></defs>
</svg>
