<?xml version="1.0" encoding="UTF-8" standalone="no"?>
<!-- Generator: Gravit.io -->

<svg
   style="isolation:isolate"
   viewBox="0 0 16 16"
   width="16"
   height="16"
   version="1.1"
   id="svg6"
   sodipodi:docname="weather-main.svg"
   inkscape:version="1.4.4 (unknown)"
   xmlns:inkscape="http://www.inkscape.org/namespaces/inkscape"
   xmlns:sodipodi="http://sodipodi.sourceforge.net/DTD/sodipodi-0.dtd"
   xmlns:xlink="http://www.w3.org/1999/xlink"
   xmlns="http://www.w3.org/2000/svg"
   xmlns:svg="http://www.w3.org/2000/svg">
  <defs
     id="defs6">
    <linearGradient
       id="linearGradient9"
       inkscape:collect="always">
      <stop
         style="stop-color:#00ccff;stop-opacity:1"
         offset="0"
         id="stop9" />
      <stop
         style="stop-color:#2a7fff;stop-opacity:1"
         offset="1"
         id="stop10" />
    </linearGradient>
    <linearGradient
       inkscape:collect="always"
       xlink:href="#linearGradient9"
       id="linearGradient10"
       x1="0.99774416"
       y1="9.614745"
       x2="14.622479"
       y2="9.614745"
       gradientUnits="userSpaceOnUse"
       gradientTransform="matrix(1.1743372,0,0,1.187017,-1.171694,-3.4128605)" />
  </defs>
  <sodipodi:namedview
     id="namedview6"
     pagecolor="#ffffff"
     bordercolor="#000000"
     borderopacity="0.25"
     inkscape:showpageshadow="2"
     inkscape:pageopacity="0.0"
     inkscape:pagecheckerboard="0"
     inkscape:deskcolor="#d1d1d1"
     inkscape:document-units="px"
     inkscape:zoom="16.727495"
     inkscape:cx="8.0705449"
     inkscape:cy="15.453599"
     inkscape:window-width="1920"
     inkscape:window-height="996"
     inkscape:window-x="0"
     inkscape:window-y="0"
     inkscape:window-maximized="1"
     inkscape:current-layer="svg6" />
  <linearGradient
     id="_lgradient_54"
     x1="0"
     y1="0.5"
     x2="1"
     y2="0.5"
     gradientTransform="matrix(8.9766878,0,0,7.9897063,6.09985,2.5)"
     gradientUnits="userSpaceOnUse">
    <stop
       offset="0%"
       stop-opacity="1"
       style="stop-color:rgb(247,242,6)"
       id="stop1" />
    <stop
       offset="97.82608695652173%"
       stop-opacity="1"
       style="stop-color:rgb(255,187,36)"
       id="stop2" />
  </linearGradient>
  <linearGradient
     id="_lgradient_55"
     x1="0"
     y1="0.5"
     x2="0.90748805"
     y2="0.92007786"
     gradientTransform="matrix(13.624584,0,0,9.6881622,0.99751885,4.770663)"
     gradientUnits="userSpaceOnUse">
    <stop
       offset="0%"
       stop-opacity="1"
       style="stop-color:rgb(0,196,255)"
       id="stop3" />
    <stop
       offset="83.88839793817618%"
       stop-opacity="1"
       style="stop-color:rgb(0,114,255)"
       id="stop4" />
  </linearGradient>
  <linearGradient
     id="_lgradient_56"
     x1="0"
     y1="0.5"
     x2="0.90748805"
     y2="0.92007786"
     gradientTransform="matrix(6.9491371,0,0,3.4632152,4.3287329,12.036785)"
     gradientUnits="userSpaceOnUse">
    <stop
       offset="0%"
       stop-opacity="1"
       style="stop-color:rgb(0,255,216)"
       id="stop5" />
    <stop
       offset="83.88839793817618%"
       stop-opacity="1"
       style="stop-color:rgb(0,255,184)"
       id="stop6" />
  </linearGradient>
  <path
     d="m 13.396348,6.7673459 c 0.0046,0.00107 0.0101,0.00219 0.01493,0.00359 0.241765,0.064686 0.479976,0.1509378 0.711074,0.2551566 0.202654,0.097032 0.3982,0.2084378 0.579526,0.3414065 0.1991,0.147344 0.380418,0.3162504 0.540416,0.5067196 0.156436,0.1904688 0.291535,0.3953127 0.398201,0.618127 0.11377,0.2407799 0.202653,0.4923422 0.255987,0.7510922 0.06399,0.2946909 0.09955,0.5965665 0.10313,0.9020332 0.0033,0.294692 -0.01421,0.589374 -0.05689,0.880473 -0.03555,0.244376 -0.09596,0.488753 -0.184878,0.722344 -0.07469,0.204843 -0.170657,0.398908 -0.287983,0.585784 -0.110233,0.176092 -0.241765,0.341403 -0.391094,0.488749 -0.152879,0.150936 -0.323536,0.283903 -0.508416,0.395312 -0.1991,0.118592 -0.408864,0.219215 -0.625745,0.294689 -0.216878,0.0755 -0.444421,0.129376 -0.671965,0.16531 -0.270207,0.0431 -0.543969,0.06824 -0.81773,0.07187 -0.0033,0 -0.0076,0 -0.01074,0 H 9.9554534 9.2443814 6.0445525 3.5557972 c -0.00355,0 -0.00711,0 -0.010631,0 C 3.2607302,13.746602 2.972746,13.721252 2.691872,13.674512 2.4536579,13.635008 2.2225594,13.573919 1.9950158,13.491248 1.7923568,13.415771 1.5932564,13.318747 1.4083773,13.20375 1.2306049,13.095953 1.0670582,12.966573 0.92128816,12.822822 0.76485226,12.664698 0.62619296,12.492198 0.50886576,12.305322 0.38797966,12.107666 0.29198426,11.895632 0.21732206,11.676416 0.13910406,11.450007 0.08221826,11.220007 0.05021956,10.98282 0.01466591,10.706098 -0.00311081,10.425789 4.4445676e-4,10.145473 0.00400035,9.8435973 0.03955346,9.5417214 0.10355036,9.2434431 c 0.05333,-0.258752 0.1422147,-0.5103142 0.2559864,-0.7475027 0.1066609,-0.222812 0.2417647,-0.4312496 0.3982009,-0.618125 C 0.91417356,7.6873466 1.0954967,7.51844 1.2945972,7.3710962 1.4794763,7.2381272 1.6750217,7.1195334 1.8847879,7.0260958 2.115887,6.9182832 2.3576518,6.8320332 2.6065272,6.7673457 c 0.00182,-3.597e-4 0.00355,-0.00107 0.00537,-0.00141 C 2.861798,5.5461887 3.5014083,4.4357192 4.4339804,3.6120309 5.4223719,2.7351549 6.691637,2.253592 8.0035666,2.2499977 c 0,0 0,0 0.00355,0 v 0 0 c 1.3368168,0.00359 2.6238584,0.5031255 3.6193594,1.4051582 0.905556,0.8200943 1.526675,1.9129546 1.769868,3.1121906 z m -1.5345,-0.2005318 c -0.05507,-0.00249 -0.109869,-0.00359 -0.16426,-0.00432 -0.369757,0.039534 -0.732401,0.1114101 -1.087937,0.2120342 -0.248878,0.071881 -0.490642,0.1760992 -0.7146286,0.3090679 -0.152883,0.086253 -0.291542,0.1940654 -0.419535,0.3126597 -0.120881,0.1114087 -0.227543,0.2407838 -0.312871,0.3809402 -0.08533,0.1365627 -0.1493264,0.2803129 -0.195546,0.4348443 -0.046223,0.1545313 -0.071112,0.31625 -0.07822,0.4779676 v 0 c -0.013863,0.3967542 0.292962,0.7309723 0.684408,0.7457058 v 0 c 0.391445,0.014747 0.7220946,-0.2936064 0.7377396,-0.6882025 v 0 c 0,-0.04311 0.0074,-0.086252 0.0178,-0.1257806 0.01074,-0.028747 0.02135,-0.057504 0.03909,-0.082662 0.0178,-0.032343 0.04264,-0.061091 0.07108,-0.08625 0.04979,-0.050313 0.106677,-0.089842 0.170657,-0.1257816 0.120878,-0.071874 0.248871,-0.1293749 0.387533,-0.1689063 0.252434,-0.071875 0.511972,-0.1257815 0.771512,-0.1581253 0.127994,0.00185 0.254923,0.00792 0.382207,0.01725 l 0.0017,0.011503 0.05046,-0.0076 c 0.09564,0.00792 0.190922,0.017609 0.287273,0.029108 0.184879,0.025157 0.369758,0.06109 0.554637,0.1114074 0.167104,0.043124 0.33065,0.1006249 0.487085,0.1760937 0.117329,0.053908 0.231099,0.1185943 0.334207,0.1940633 0.106687,0.079066 0.202655,0.1689066 0.287984,0.2695326 0.08179,0.1006248 0.152881,0.2084375 0.20621,0.323437 0.06752,0.1329693 0.113771,0.2767199 0.14577,0.4204694 0.04265,0.2048464 0.06753,0.4132794 0.07109,0.6217211 0.0033,0.215625 -0.01074,0.434843 -0.04264,0.646875 -0.02137,0.147344 -0.05688,0.294687 -0.110222,0.434846 -0.03909,0.107837 -0.08887,0.212031 -0.15288,0.312657 -0.05335,0.08268 -0.117329,0.161717 -0.184879,0.229999 -0.07469,0.0755 -0.159991,0.140152 -0.248876,0.194057 -0.110222,0.06824 -0.2311,0.122194 -0.355536,0.165318 -0.138658,0.05034 -0.280875,0.08625 -0.426643,0.107839 -0.20621,0.03233 -0.412424,0.05033 -0.618633,0.05393 H 9.9554614 6.7556335 6.0445607 3.5629162 C 3.3460387,12.309216 3.1327167,12.290923 2.9193949,12.255013 2.7700695,12.229851 2.6242996,12.190337 2.482085,12.140014 2.3647583,12.096897 2.2545417,12.043015 2.1478809,11.978298 2.0625522,11.924366 1.9843341,11.863296 1.9132266,11.791416 1.8385654,11.71952 1.7745673,11.636885 1.721237,11.547042 1.6536826,11.439212 1.6003547,11.324225 1.5612454,11.205632 1.5114694,11.069067 1.4794704,10.928916 1.4616954,10.785165 1.4332534,10.58032 1.4190314,10.375474 1.4225874,10.167039 1.4261374,9.9585992 1.4510294,9.7501652 1.4936934,9.5489153 1.5256904,9.4015713 1.5719114,9.2614152 1.6359082,9.1248544 1.6927942,9.009856 1.7639014,8.9020404 1.8456744,8.8050098 1.9274514,8.704385 2.0234434,8.6109477 2.1301043,8.5354784 2.2367662,8.4564021 2.3505364,8.3881233 2.4714186,8.3342171 2.6314105,8.2623419 2.7985124,8.2012482 2.9691699,8.1581229 3.1504936,8.1078069 3.3318172,8.071873 3.5202516,8.0503064 c 0.234654,-0.028751 0.4728635,-0.046718 0.7110728,-0.050312 0.2559864,0.032342 0.515528,0.08625 0.7644036,0.1581253 0.1351038,0.035938 0.2666523,0.093434 0.3910902,0.1617187 0.060438,0.039532 0.1208824,0.07906 0.1742129,0.1293746 0.024889,0.025158 0.049776,0.053909 0.071107,0.086252 0.014222,0.028746 0.028442,0.057492 0.035556,0.086249 0.014222,0.039522 0.021333,0.082663 0.021333,0.1257816 v 0 c 0.015642,0.3945942 0.3462926,0.7029369 0.7377385,0.6882035 v 0 C 6.8182112,9.4209721 7.1246839,9.0867497 7.1111735,8.6899977 v 0 C 7.1040593,8.5282853 7.0791718,8.3665661 7.032952,8.208441 6.9867324,8.0539097 6.9191804,7.9065658 6.8338516,7.7700031 6.7449675,7.6298467 6.6383066,7.5004716 6.5174241,7.3890653 6.3858757,7.2668773 6.243661,7.1626589 6.0907804,7.0728148 5.8667923,6.9434398 5.6285829,6.8428144 5.3797074,6.7745334 5.0277263,6.6739083 4.6686346,6.6020331 4.3024319,6.5625017 4.2512351,6.5632205 4.2003921,6.5639297 4.14884,6.5664361 4.3774501,5.8433933 4.7998277,5.1965176 5.3690412,4.6937513 6.0978911,4.0468755 7.0365074,3.6910944 8.0035666,3.6875001 c 0.00355,0 0.00355,0 0.00355,0 v 0 0 c 0,0 0,0 0,0 h -0.00355 c 0.9883914,0.00359 1.9412288,0.3737504 2.6736384,1.0385953 0.551077,0.5013281 0.961724,1.1352662 1.184643,1.8407202 z"
     fill-rule="evenodd"
     id="path4"
     style="fill:url(#linearGradient10);stroke-width:1.18064" />
</svg>
