<?xml version="1.0" encoding="UTF-8" standalone="no"?>
<svg
   width="16"
   height="16"
   viewBox="0 0 16 16"
   fill="none"
   version="1.1"
   id="svg8"
   sodipodi:docname="akonadiconsole.svg"
   inkscape:version="1.4.4 (unknown)"
   xmlns:inkscape="http://www.inkscape.org/namespaces/inkscape"
   xmlns:sodipodi="http://sodipodi.sourceforge.net/DTD/sodipodi-0.dtd"
   xmlns:xlink="http://www.w3.org/1999/xlink"
   xmlns="http://www.w3.org/2000/svg"
   xmlns:svg="http://www.w3.org/2000/svg">
  <sodipodi:namedview
     id="namedview8"
     pagecolor="#ffffff"
     bordercolor="#000000"
     borderopacity="0.25"
     inkscape:showpageshadow="2"
     inkscape:pageopacity="0.0"
     inkscape:pagecheckerboard="0"
     inkscape:deskcolor="#d1d1d1"
     inkscape:zoom="11.313709"
     inkscape:cx="11.402097"
     inkscape:cy="10.915961"
     inkscape:window-width="1920"
     inkscape:window-height="996"
     inkscape:window-x="0"
     inkscape:window-y="0"
     inkscape:window-maximized="1"
     inkscape:current-layer="svg8" />
  <g
     id="g8"
     transform="translate(-0.24887265,-0.06496941)"
     style="fill:url(#linearGradient10)">
    <path
       d="m 2.1095639,1.6431072 c 0.2498866,-0.0569 0.5099358,-0.07586 0.7689724,-0.07586 3.4547752,8.29e-4 6.9105755,0 10.3653627,0 0.462248,-0.0074 0.939622,-0.0049 1.37537,0.137692 0.970123,0.292709 1.662869,1.106523 1.628371,1.949185 -0.0021,2.966636 0.0033,5.933272 -0.0021,8.8999068 0.01209,1.075162 -1.183496,2.016815 -2.499991,2.009329 -3.688361,0 -7.3767745,0.0049 -11.0641737,-0.0024 -1.2941251,-0.0206 -2.43183606,-0.95316 -2.43183606,-2.005275 -0.001016,-2.9954968 -0.001016,-5.9918238 0.001016,-8.9881378 0.006095,-0.882245 0.81061906,-1.703477 1.85893536,-1.92444 z m 0.4174985,0.920157 c -0.5708854,0.09318 -1.0696474,0.516987 -1.0564425,1.002626 -0.00304,2.997971 0,5.995942 -9.87e-4,8.9939118 -0.01524,0.562333 0.6399593,1.038106 1.3205569,1.022465 3.6508368,8.02e-4 7.3026882,0.004 10.9534882,-0.0033 0.713123,0.0041 1.334744,-0.526037 1.301244,-1.10405 0.0023,-2.9427198 0.0044,-5.8854538 -0.0011,-8.8281738 0.03566,-0.579644 -0.602375,-1.101564 -1.310372,-1.101564 -3.584812,-0.0041 -7.1706388,0 -10.7564509,-0.0025 -0.1503372,0.0016 -0.3016991,-0.0025 -0.4500112,0.0206 z"
       style="fill:url(#linearGradient10);fill-opacity:1"
       id="path1" />
    <path
       d="m 4.0314821,4.5116212 c 0.3372489,-0.143468 0.7760848,-0.0404 0.9863588,0.213556 0.9274343,1.003441 1.8497938,2.011012 2.7752028,3.016112 0.086334,0.111303 0.2356616,0.220146 0.202137,0.366087 -0.092435,0.147584 -0.2204244,0.277041 -0.3402863,0.410602 C 6.7833225,9.4612372 5.9178505,10.407796 5.0493285,11.353527 4.9010166,11.521725 4.6744924,11.663547 4.4093684,11.668493 3.7440083,11.706423 3.3407346,10.979191 3.8161329,10.598265 4.5393927,9.8075382 5.2717903,9.0226012 5.9879377,8.2285722 6.1250747,8.1123222 6.0742875,7.9383492 5.954413,7.8286762 5.2311528,7.0412652 4.5048555,6.2554842 3.7846454,5.4664152 3.4788841,5.1753632 3.5967088,4.6732292 4.0314821,4.5116212 Z"
       id="path2"
       style="fill:url(#linearGradient10);fill-opacity:1" />
    <path
       d="m 7.781869,10.699676 c 0.1503368,-0.05524 0.3209988,-0.04204 0.4814859,-0.047 1.3886198,0.0041 2.7782541,-0.0025 4.1668741,0.0025 0.344297,-0.02226 0.672422,0.212728 0.677546,0.494715 0.02848,0.298485 -0.315876,0.572225 -0.68466,0.532655 -1.453633,0 -2.9082772,0.0025 -4.3618971,-8.29e-4 -0.3494489,0.02803 -0.6745104,-0.244062 -0.6572351,-0.523578 0.00207,-0.195402 0.1543993,-0.384227 0.3778862,-0.458434 z"
       id="path3"
       style="fill:url(#linearGradient10);fill-opacity:1" />
  </g>
  <defs
     id="defs8">
    <linearGradient
       id="linearGradient8"
       inkscape:collect="always">
      <stop
         style="stop-color:#57e389;stop-opacity:1"
         offset="0"
         id="stop9" />
      <stop
         style="stop-color:#62a0ea;stop-opacity:1"
         offset="1"
         id="stop10" />
    </linearGradient>
    <linearGradient
       id="paint0_linear"
       x1="64"
       y1="112.246"
       x2="64"
       y2="15"
       gradientUnits="userSpaceOnUse"
       gradientTransform="matrix(0.12499954,0,0,0.13368162,0.24894801,-0.44026781)">
      <stop
         stop-color="#FD2E00"
         id="stop3" />
      <stop
         offset="1"
         stop-color="#FF9900"
         id="stop4" />
    </linearGradient>
    <linearGradient
       id="paint1_linear"
       x1="44.444"
       y1="90.589798"
       x2="44.444"
       y2="36.554699"
       gradientUnits="userSpaceOnUse"
       gradientTransform="matrix(0.12499954,0,0,0.13368162,0.24894801,-0.44026781)">
      <stop
         stop-color="#FD2E00"
         id="stop5" />
      <stop
         offset="1"
         stop-color="#FF9900"
         id="stop6" />
    </linearGradient>
    <linearGradient
       id="paint2_linear"
       x1="80.0597"
       y1="90.712601"
       x2="80.0597"
       y2="82.980301"
       gradientUnits="userSpaceOnUse"
       gradientTransform="matrix(0.12499954,0,0,0.13368162,0.24894801,-0.44026781)">
      <stop
         stop-color="#FD2E00"
         id="stop7" />
      <stop
         offset="1"
         stop-color="#FF9900"
         id="stop8" />
    </linearGradient>
    <linearGradient
       inkscape:collect="always"
       xlink:href="#linearGradient8"
       id="linearGradient10"
       x1="0.24887188"
       y1="8.0649694"
       x2="16.248873"
       y2="8.0649694"
       gradientUnits="userSpaceOnUse" />
  </defs>
</svg>
