<?xml version="1.0" encoding="UTF-8" standalone="no"?>
<!-- Generator: Gravit.io -->

<svg
   style="isolation:isolate"
   viewBox="0 0 16 16"
   width="16pt"
   height="16pt"
   version="1.1"
   id="svg6"
   sodipodi:docname="ankama.svg"
   inkscape:version="1.4.4 (unknown)"
   xmlns:inkscape="http://www.inkscape.org/namespaces/inkscape"
   xmlns:sodipodi="http://sodipodi.sourceforge.net/DTD/sodipodi-0.dtd"
   xmlns="http://www.w3.org/2000/svg"
   xmlns:svg="http://www.w3.org/2000/svg">
  <defs
     id="defs6" />
  <sodipodi:namedview
     id="namedview6"
     pagecolor="#ffffff"
     bordercolor="#000000"
     borderopacity="0.25"
     inkscape:showpageshadow="2"
     inkscape:pageopacity="0.0"
     inkscape:pagecheckerboard="0"
     inkscape:deskcolor="#d1d1d1"
     inkscape:document-units="pt"
     inkscape:zoom="11.828125"
     inkscape:cx="7.1862616"
     inkscape:cy="14.245707"
     inkscape:window-width="1920"
     inkscape:window-height="994"
     inkscape:window-x="0"
     inkscape:window-y="0"
     inkscape:window-maximized="1"
     inkscape:current-layer="svg6" />
  <linearGradient
     id="_lgradient_2"
     x1="0"
     y1="0.5"
     x2="1"
     y2="0.5"
     gradientTransform="matrix(9.885,0,0,9.885,0.5,33.115)"
     gradientUnits="userSpaceOnUse">
    <stop
       offset="0%"
       stop-opacity="1"
       style="stop-color:rgb(247,242,6)"
       id="stop1" />
    <stop
       offset="98.26086956521739%"
       stop-opacity="1"
       style="stop-color:rgb(255,187,36)"
       id="stop2" />
  </linearGradient>
  <linearGradient
     id="_lgradient_3"
     x1="0"
     y1="0.5"
     x2="1"
     y2="0.5"
     gradientTransform="matrix(7.545,0,0,7.545,38,9.455)"
     gradientUnits="userSpaceOnUse">
    <stop
       offset="0%"
       stop-opacity="1"
       style="stop-color:rgb(252,73,136)"
       id="stop3" />
    <stop
       offset="98.26086956521739%"
       stop-opacity="1"
       style="stop-color:rgb(234,51,62)"
       id="stop4" />
  </linearGradient>
  <linearGradient
     id="_lgradient_4"
     x1="0.94999999"
     y1="0.96261108"
     x2="0.024807269"
     y2="0.014054084"
     gradientTransform="matrix(48,0,0,41.05,0,3.475)"
     gradientUnits="userSpaceOnUse">
    <stop
       offset="0%"
       stop-opacity="1"
       style="stop-color:rgb(255,229,59)"
       id="stop5" />
    <stop
       offset="98.69565217391305%"
       stop-opacity="1"
       style="stop-color:rgb(255,0,91)"
       id="stop6" />
  </linearGradient>
  <g
     id="g6"
     transform="matrix(0.85941023,0,0,0.84550346,18.0085,-58.376249)">
    <path
       d="m -4.2403391,85.01 c 0.2486148,0 0.448786,-0.200166 0.448786,-0.44878 v -7.629433 c 0,-0.248615 -0.2001704,-0.44878 -0.448786,-0.44878 h -2.6927483 v 6.283129 c 0,0.248633 -0.2001705,0.448809 -0.4487848,0.448809 h -4.4878538 c -0.248613,0 -0.448792,-0.200176 -0.448792,-0.448809 v -6.283129 h -2.692742 c -0.248613,0 -0.448793,0.200164 -0.448793,0.44878 v 7.629433 c 0,0.248614 0.20018,0.44878 0.448793,0.44878 z"
       fill="#fdc409"
       style="stroke-width:1.6962;paint-order:stroke fill markers"
       id="path1" />
    <path
       d="m -16.35854,76.491999 v 4.039068 l 4.039083,-4.039068 z"
       fill="#b61f1d"
       style="stroke-width:0.448782;paint-order:stroke fill markers"
       id="path2-6" />
    <path
       d="M -19.05122,72 C -19.299834,72 -19.5,72.200166 -19.5,72.44878 v 7.629433 c 0,0.248615 0.200165,0.44878 0.44878,0.44878 h 2.692753 v -6.28313 c 0,-0.248632 0.200166,-0.448808 0.448781,-0.448808 h 4.487861 c 0.248615,0 0.448785,0.200176 0.448785,0.448808 v 6.28313 h 2.6927485 c 0.248614,0 0.4487849,-0.200165 0.4487849,-0.44878 V 72.44878 C -7.8315066,72.200166 -8.0316774,72 -8.2802915,72 Z"
       fill="#e5381f"
       style="stroke-width:1.6962;paint-order:stroke fill markers"
       id="path3" />
    <path
       d="m -6.9340373,76.491999 -4.0390707,4.039068 h 4.0390707 z"
       fill="#e76f08"
       style="stroke-width:0.448782;paint-order:stroke fill markers"
       id="path4-0" />
    <rect
       x="-6.4844375"
       y="73.340004"
       width="1.7951077"
       height="1.7951077"
       ry="0"
       fill="#e76f08"
       style="stroke-width:1.6962;paint-order:stroke fill markers"
       id="rect4" />
    <rect
       transform="rotate(45)"
       x="45.109688"
       y="70.147003"
       width="1.7951076"
       height="1.7951076"
       ry="0"
       fill="#f6aa08"
       style="stroke-width:1.6962;paint-order:stroke fill markers"
       id="rect5" />
  </g>
</svg>
