<?xml version="1.0" encoding="UTF-8" standalone="no"?>
<!-- Generator: Gravit.io -->

<svg
   style="isolation:isolate"
   viewBox="0 0 16 16"
   width="16pt"
   height="16pt"
   version="1.1"
   id="svg2"
   sodipodi:docname="anki.svg"
   inkscape:version="1.4.4 (unknown)"
   xmlns:inkscape="http://www.inkscape.org/namespaces/inkscape"
   xmlns:sodipodi="http://sodipodi.sourceforge.net/DTD/sodipodi-0.dtd"
   xmlns:xlink="http://www.w3.org/1999/xlink"
   xmlns="http://www.w3.org/2000/svg"
   xmlns:svg="http://www.w3.org/2000/svg">
  <defs
     id="defs2">
    <linearGradient
       id="linearGradient2"
       inkscape:collect="always">
      <stop
         style="stop-color:#f5c211;stop-opacity:1"
         offset="0"
         id="stop3" />
      <stop
         style="stop-color:#f8e45c;stop-opacity:1"
         offset="1"
         id="stop4" />
    </linearGradient>
    <linearGradient
       inkscape:collect="always"
       xlink:href="#linearGradient2"
       id="linearGradient4"
       x1="1.5327936"
       y1="8.0000001"
       x2="14.467207"
       y2="8.0000001"
       gradientUnits="userSpaceOnUse" />
  </defs>
  <sodipodi:namedview
     id="namedview2"
     pagecolor="#ffffff"
     bordercolor="#000000"
     borderopacity="0.25"
     inkscape:showpageshadow="2"
     inkscape:pageopacity="0.0"
     inkscape:pagecheckerboard="0"
     inkscape:deskcolor="#d1d1d1"
     inkscape:document-units="pt"
     inkscape:zoom="11.828125"
     inkscape:cx="26.208719"
     inkscape:cy="32"
     inkscape:window-width="1920"
     inkscape:window-height="994"
     inkscape:window-x="0"
     inkscape:window-y="0"
     inkscape:window-maximized="1"
     inkscape:current-layer="svg2" />
  <linearGradient
     id="_lgradient_56"
     x1="0"
     y1="0.5"
     x2="0.90748805"
     y2="0.92007786"
     gradientTransform="matrix(14.426884,0,0,14.59562,0.64591396,0.67758854)"
     gradientUnits="userSpaceOnUse">
    <stop
       offset="0%"
       stop-opacity="1"
       style="stop-color:rgb(0,196,255)"
       id="stop1" />
    <stop
       offset="83.88839793817618%"
       stop-opacity="1"
       style="stop-color:rgb(0,114,255)"
       id="stop2" />
  </linearGradient>
  <path
     d="m 6.9737889,4.6772664 v 0 C 6.8920669,5.0473674 6.5246115,5.2831268 6.1536286,5.2034625 v 0 C 5.7823517,5.1237981 5.5474743,4.7569307 5.6289024,4.3850659 v 0 L 6.0651454,2.3587702 C 6.2647471,1.4310189 6.9720251,1.2223043 7.6434395,1.8931308 l 2.4013945,2.3990424 3.313859,-0.2675075 c 0.945977,-0.076431 1.368404,0.5503011 0.942744,1.3983881 l -1.45042,2.8893748 1.124707,2.9146564 c 0.341587,0.88542 -0.141397,1.480992 -1.078261,1.329012 L 9.5703757,12.016379 6.9426287,14.179956 C 6.2100698,14.783465 5.5230752,14.508314 5.4093111,13.566158 L 5.0271575,10.399869 2.0963337,8.5343716 C 1.295869,8.0246376 1.3552498,7.3105984 2.2292056,6.9404973 L 4.6350092,5.9222051 v 0 c 0.3495235,-0.147864 0.7531364,0.015286 0.9012944,0.3645157 v 0 C 5.6841677,6.6359504 5.5210175,7.0398573 5.171494,7.1880153 v 0 L 3.5931998,7.8585478 6.3135452,9.5882335 6.6780609,12.61489 9.178227,10.558316 12.448874,11.087746 11.348272,8.2368798 12.747835,5.4545079 9.5221652,5.7158422 7.2386507,3.4358553 Z"
     id="path2"
     style="fill:url(#linearGradient4)" />
</svg>
