<?xml version="1.0" encoding="UTF-8" standalone="no"?>
<!-- Generator: Gravit.io -->

<svg
   style="isolation:isolate"
   viewBox="0 0 16 16"
   width="16"
   height="16"
   version="1.1"
   id="svg3"
   sodipodi:docname="applications-development.svg"
   inkscape:version="1.4.4 (unknown)"
   xmlns:inkscape="http://www.inkscape.org/namespaces/inkscape"
   xmlns:sodipodi="http://sodipodi.sourceforge.net/DTD/sodipodi-0.dtd"
   xmlns="http://www.w3.org/2000/svg"
   xmlns:svg="http://www.w3.org/2000/svg">
  <defs
     id="defs3" />
  <sodipodi:namedview
     id="namedview3"
     pagecolor="#ffffff"
     bordercolor="#000000"
     borderopacity="0.25"
     inkscape:showpageshadow="2"
     inkscape:pageopacity="0.0"
     inkscape:pagecheckerboard="0"
     inkscape:deskcolor="#d1d1d1"
     inkscape:document-units="px"
     inkscape:zoom="23.65625"
     inkscape:cx="7.6935271"
     inkscape:cy="3.994716"
     inkscape:window-width="1920"
     inkscape:window-height="994"
     inkscape:window-x="0"
     inkscape:window-y="0"
     inkscape:window-maximized="1"
     inkscape:current-layer="svg3" />
  <linearGradient
     id="_lgradient_3"
     x1="0.33167362"
     y1="0.66258508"
     x2="0.89269382"
     y2="0.080530435"
     gradientTransform="matrix(13,0,0,13,1.4999609,1.5)"
     gradientUnits="userSpaceOnUse">
    <stop
       offset="0%"
       stop-opacity="1"
       style="stop-color:#ffb380;stop-opacity:1"
       id="stop1" />
    <stop
       offset="51.73913043478261%"
       stop-opacity="1"
       style="stop-color:rgb(147,135,218)"
       id="stop2" />
    <stop
       offset="0.99670714"
       stop-opacity="1"
       style="stop-color:#8d5fd3;stop-opacity:1"
       id="stop3" />
  </linearGradient>
  <path
     d="m 13.772235,8.5717263 c 0,0.035305 -0.02463,0.065137 -0.05994,0.07061 l -1.140442,0.1899369 c -0.143958,0.024632 -0.258084,0.1305474 -0.29339,0.2690316 -0.103179,0.3990315 -0.260547,0.7819158 -0.472379,1.1377052 -0.07335,0.125074 -0.06815,0.279705 0.01615,0.399305 l 0.6708,0.945032 c 0.01888,0.0271 0.01642,0.06787 -0.0082,0.09223 l -0.809284,0.809284 c -0.01888,0.01916 -0.03804,0.02189 -0.05145,0.02189 -0.01642,0 -0.02983,-0.0055 -0.04078,-0.01368 l -0.942295,-0.6708 c -0.116863,-0.08402 -0.274505,-0.08949 -0.399305,-0.01615 -0.3557892,0.211832 -0.7386734,0.3692 -1.1379787,0.472379 -0.141221,0.03531 -0.2471368,0.152169 -0.2687579,0.29339 l -0.1926737,1.140442 c -0.00547,0.03531 -0.035305,0.05994 -0.07061,0.05994 H 7.4282346 c -0.035305,0 -0.065137,-0.02463 -0.07061,-0.05994 L 7.1676872,12.571895 C 7.1430556,12.427937 7.0371398,12.313811 6.8986556,12.278505 6.5102977,12.178063 6.1356241,12.023158 5.7853083,11.822274 c -0.056926,-0.03257 -0.1223369,-0.04872 -0.1847369,-0.04872 -0.073347,0 -0.1494316,0.02162 -0.2118316,0.06787 l -0.9505052,0.676 c -0.01341,0.0082 -0.027095,0.01368 -0.040779,0.01368 -0.010674,0 -0.032568,-0.0027 -0.051453,-0.02162 L 3.5367188,11.700211 c -0.024358,-0.02463 -0.027095,-0.06267 -0.00821,-0.09251 l 0.6680626,-0.936817 c 0.084295,-0.1196 0.089768,-0.276968 0.016421,-0.402042 C 4.0011609,9.9157895 3.8380451,9.5329053 3.7348662,9.1338737 3.6968241,8.9953895 3.5829714,8.8894737 3.4417504,8.8648421 L 2.2928241,8.6694316 c -0.035305,-0.00547 -0.059663,-0.035305 -0.059663,-0.07061 V 7.4553684 c 0,-0.035032 0.024358,-0.065137 0.059663,-0.070337 L 3.4253293,7.1948211 C 3.5692872,7.1704632 3.6861504,7.0645474 3.7214556,6.9233263 3.8218977,6.5240211 3.9765293,6.1384 4.1856241,5.7826105 c 0.073347,-0.1248 0.06541,-0.2797052 -0.018884,-0.3965684 L 3.4904662,4.4355368 c -0.018884,-0.027095 -0.016147,-0.067874 0.00821,-0.092232 L 4.3079609,3.5340211 C 4.3268451,3.5151368 4.346003,3.5124 4.3594135,3.5124 c 0.016421,0 0.030105,0.00547 0.040779,0.01341 l 0.9370947,0.6680632 c 0.1193263,0.084295 0.2769684,0.089768 0.4017684,0.016421 C 6.0921083,3.9984632 6.4749925,3.8356211 6.8742977,3.7321684 7.012782,3.6944 7.1186977,3.5802737 7.1430556,3.4390526 L 7.3387398,2.2904 c 0.00547,-0.035305 0.035305,-0.059937 0.070611,-0.059937 h 1.1431789 c 0.035305,0 0.065137,0.024631 0.07061,0.059937 l 0.1902106,1.1322316 c 0.024358,0.1439579 0.1302737,0.260821 0.2714947,0.2961263 0.409979,0.1031789 0.8010737,0.2632842 1.165074,0.4778526 0.1248,0.073347 0.279705,0.067874 0.399031,-0.016147 l 0.937095,-0.6735372 c 0.01341,-0.00821 0.0271,-0.013684 0.04078,-0.013684 0.01067,0 0.03257,0.00274 0.05145,0.021895 l 0.809286,0.8092838 c 0.02436,0.024358 0.02709,0.0624 0.0082,0.092232 l -0.6708,0.9422948 c -0.08429,0.1168631 -0.08949,0.2742315 -0.01642,0.3993052 0.211832,0.3557895 0.369474,0.7386737 0.472653,1.1377053 0.0353,0.141221 0.152169,0.2471368 0.29339,0.2690316 l 1.140442,0.1926737 c 0.03531,0.00547 0.05966,0.035305 0.05966,0.07061 v 1.1434526 z m 0.0624,-1.9363158 -0.912463,-0.1549052 c -0.09524,-0.3068 -0.217306,-0.6029264 -0.366737,-0.8853685 l 0.537789,-0.7520842 c 0.227979,-0.3204842 0.192674,-0.7578315 -0.08703,-1.0348 L 12.196908,2.9989684 C 12.045014,2.8470737 11.843856,2.7627789 11.629561,2.7627789 c -0.168589,0 -0.328695,0.051726 -0.464442,0.1494316 L 10.410024,3.45 C 10.116908,3.2950947 9.8098346,3.1675579 9.4920872,3.0723158 L 9.3401925,2.1708 C 9.2750556,1.7824421 8.9408872,1.5 8.5470556,1.5 H 7.4038767 C 7.0100451,1.5 6.6761504,1.7824421 6.6107398,2.1708 L 6.4533714,3.0942105 C 6.1493083,3.1891789 5.853182,3.3139789 5.5707398,3.4661474 L 4.8238556,2.9283579 C 4.6881083,2.8306526 4.5252662,2.7792 4.3569504,2.7792 4.142382,2.7792 3.9384872,2.863221 3.7893293,3.0153895 L 2.9773083,3.8246737 C 2.7003398,4.1016421 2.6622977,4.5389895 2.8902767,4.8592 L 3.4335398,5.6225053 C 3.2841083,5.9076842 3.1645083,6.2035368 3.0722767,6.5103368 L 2.1707609,6.6625053 c -0.3883579,0.065137 -0.6708,0.3993052 -0.6708,0.7928631 v 1.1434527 c 0,0.3938315 0.2824421,0.7277263 0.6708,0.7928631 l 0.9231368,0.1576421 c 0.095242,0.3040632 0.2200421,0.6001897 0.3722106,0.8826317 l -0.5350527,0.744147 c -0.2279789,0.320211 -0.1926736,0.757558 0.087032,1.034527 l 0.8092842,0.809284 c 0.1518948,0.152168 0.3530527,0.236189 0.5673474,0.236189 0.1685895,0 0.3286947,-0.05145 0.4644421,-0.149158 l 0.7633053,-0.543263 c 0.2742315,0.143958 0.5621473,0.260821 0.858,0.353053 L 6.6326346,13.8292 C 6.6977716,14.217558 7.0316662,14.5 7.4254977,14.5 h 1.1461895 c 0.3935579,0 0.7277263,-0.282442 0.7928632,-0.6708 L 9.5194556,12.916737 C 9.8262556,12.821768 10.122108,12.699432 10.40455,12.55 l 0.752358,0.537789 c 0.135748,0.09771 0.298864,0.149432 0.467179,0.149432 v 0 c 0.214569,0 0.415453,-0.08429 0.567621,-0.236189 l 0.809285,-0.809285 c 0.276968,-0.276968 0.31501,-0.714315 0.08676,-1.0348 l -0.537792,-0.754821 c 0.149432,-0.285179 0.274505,-0.5813049 0.366737,-0.8853681 l 0.912463,-0.1521684 c 0.388358,-0.065137 0.6708,-0.3990316 0.6708,-0.7928632 V 7.4282737 C 14.505435,7.0344421 14.222993,6.7005474 13.834635,6.6354105 Z M 6.6342767,8.7723368 v 0.638779 L 3.9803609,8.2405684 V 7.8582316 L 6.6342767,6.5327789 V 7.1740211 L 4.8060662,8.0213474 Z M 8.3634135,6.0461684 H 9.1037293 L 7.647182,9.9538316 H 6.9068662 Z M 9.3656451,9.4111158 V 8.7723368 L 11.193856,8.0213474 9.3656451,7.1740211 V 6.5327789 l 2.6539159,1.3254527 v 0.3823368 z"
     fill-rule="evenodd"
     fill="url(#_lgradient_3)"
     id="path3"
     style="fill:url(#_lgradient_3);stroke-width:0.273684" />
</svg>
