<?xml version="1.0" encoding="UTF-8" standalone="no"?>
<!-- Generator: Gravit.io -->

<svg
   style="isolation:isolate"
   viewBox="0 0 16 16"
   width="16"
   height="16"
   version="1.1"
   id="svg2"
   sodipodi:docname="applications-accessories.svg"
   inkscape:version="1.4.4 (unknown)"
   xmlns:inkscape="http://www.inkscape.org/namespaces/inkscape"
   xmlns:sodipodi="http://sodipodi.sourceforge.net/DTD/sodipodi-0.dtd"
   xmlns:xlink="http://www.w3.org/1999/xlink"
   xmlns="http://www.w3.org/2000/svg"
   xmlns:svg="http://www.w3.org/2000/svg">
  <defs
     id="defs2">
    <linearGradient
       id="linearGradient2"
       inkscape:collect="always">
      <stop
         style="stop-color:#ff00ff;stop-opacity:1"
         offset="0"
         id="stop3" />
      <stop
         style="stop-color:#ff9955;stop-opacity:1"
         offset="1"
         id="stop4" />
    </linearGradient>
    <linearGradient
       inkscape:collect="always"
       xlink:href="#linearGradient2"
       id="linearGradient4"
       x1="1.125"
       y1="6"
       x2="10.875"
       y2="6"
       gradientUnits="userSpaceOnUse"
       gradientTransform="scale(1.3333334)" />
  </defs>
  <sodipodi:namedview
     id="namedview2"
     pagecolor="#ffffff"
     bordercolor="#000000"
     borderopacity="0.25"
     inkscape:showpageshadow="2"
     inkscape:pageopacity="0.0"
     inkscape:pagecheckerboard="0"
     inkscape:deskcolor="#d1d1d1"
     inkscape:document-units="px"
     inkscape:zoom="23.65625"
     inkscape:cx="9.2998679"
     inkscape:cy="17.352708"
     inkscape:window-width="1920"
     inkscape:window-height="994"
     inkscape:window-x="0"
     inkscape:window-y="0"
     inkscape:window-maximized="1"
     inkscape:current-layer="svg2" />
  <linearGradient
     id="_lgradient_73"
     x1="0.67180997"
     y1="0.020570019"
     x2="0.42214948"
     y2="0.96016449"
     gradientTransform="matrix(9.7500007,0,0,9.7498994,1.125,1.1251008)"
     gradientUnits="userSpaceOnUse">
    <stop
       offset="0%"
       stop-opacity="1"
       style="stop-color:rgb(26,108,255)"
       id="stop1" />
    <stop
       offset="100%"
       stop-opacity="1"
       style="stop-color:rgb(197,34,255)"
       id="stop2" />
  </linearGradient>
  <path
     d="M 8.2742383,10.286963 7.0525479,12.084657 C 6.9801199,12.693199 6.7003097,13.263176 6.254286,13.698327 5.7342861,14.21152 5.0254764,14.5 4.2857142,14.5 3.5459526,14.5 2.8371429,14.21152 2.3171428,13.698327 1.7940475,13.188168 1.4999999,12.49278 1.4999999,11.767021 v 0 0 c 0,-0.725757 0.2940476,-1.421147 0.8171429,-1.9313033 0.5200001,-0.5131926 1.2288098,-0.8016734 1.9685714,-0.8016734 0.7397622,0 1.4485719,0.2884808 1.9685718,0.8016734 0.2624764,0.2559893 0.4673808,0.5587423 0.6063571,0.8885213 v 0 0 l 1.0115237,-1.4882579 -0.00525,-0.013665 0.019189,-0.00699 2.0484286,-3.0144748 v 0 C 10.076286,5.9913284 10.364763,5.9342397 10.578333,6.0733185 v 0 c 0.213571,0.139078 0.271763,0.4220931 0.13,0.6316214 v 0 L 8.9075242,9.3547138 9.3052624,10.395067 C 9.425667,10.19222 9.5733099,10.003948 9.7457146,9.8357177 10.265713,9.3225251 10.974525,9.0340443 11.714288,9.0340443 c 0.739759,0 1.448571,0.2884808 1.968571,0.8016734 C 14.205955,10.345874 14.5,11.041264 14.5,11.767021 c 0,0.725759 -0.294045,1.421147 -0.817141,1.931306 C 13.162859,14.21152 12.454047,14.5 11.714288,14.5 10.974525,14.5 10.265713,14.21152 9.7457146,13.698327 9.2870003,13.251032 9.0044051,12.661315 8.9418812,12.03364 v 0 z m -5.8456672,1.480058 c 0,-0.482824 0.1950002,-0.947431 0.5447622,-1.287535 0.3466668,-0.34314 0.820238,-0.5344493 1.3123809,-0.5344493 0.492143,0 0.9657147,0.1913093 1.3123814,0.5344493 0.3497617,0.340104 0.5447617,0.804711 0.5447617,1.287535 0,0.482828 -0.195,0.947431 -0.5447617,1.287536 -0.3466667,0.343143 -0.8202384,0.534451 -1.3123814,0.534451 -0.4921429,0 -0.9657141,-0.191308 -1.3123809,-0.534451 -0.349762,-0.340105 -0.5447622,-0.804708 -0.5447622,-1.287536 z m 7.4285723,0 c 0,-0.482824 0.1949996,-0.947431 0.5447616,-1.287535 0.346667,-0.34314 0.820238,-0.5344493 1.312383,-0.5344493 0.49214,0 0.965712,0.1913093 1.312379,0.5344493 0.349763,0.340104 0.544763,0.804711 0.544763,1.287535 0,0.482828 -0.195,0.947431 -0.544763,1.287536 -0.346667,0.343143 -0.820239,0.534451 -1.312379,0.534451 -0.492145,0 -0.965716,-0.191308 -1.312383,-0.534451 C 10.052143,12.714452 9.8571434,12.249849 9.8571434,11.767021 Z M 8.2723811,4.6673525 7.3654765,2.8848433 c 0,0 -0.00311,-0.00304 -0.00311,-0.00304 C 7.2911907,2.7390846 7.1828573,2.6145823 7.0466669,2.5265197 6.944524,2.4536401 6.8207144,2.4172005 6.6938098,2.4141639 c -0.064999,0 -0.13,0.015181 -0.1888097,0.042513 -0.080475,0.039473 -0.1454761,0.103244 -0.1888096,0.1821985 -0.055713,0.103244 -0.083572,0.2156016 -0.080475,0.3309937 0,0.1427223 0.034049,0.2854444 0.1021427,0.4160203 0,0 0,0 0,0.00304 L 7.5728573,5.8121667 Z M 8.83881,3.7411768 9.5940479,2.4020175 c 0.164048,-0.2702612 0.3930955,-0.4949729 0.6654771,-0.6559149 0.263095,-0.1579054 0.563334,-0.2429315 0.869763,-0.245968 0.222855,-0.00304 0.439521,0.045549 0.637617,0.1427221 0.250717,0.124504 0.458095,0.3218839 0.591191,0.5678524 0.129987,0.2338214 0.194999,0.4980088 0.191904,0.7652336 0,0.2854443 -0.07119,0.5648155 -0.201189,0.8198935 l -0.684048,1.3421959 v 0 C 11.550243,5.3627437 11.271667,5.453843 11.04262,5.3414872 v 0 C 10.813572,5.2291309 10.720713,4.9558337 10.835237,4.731122 v 0 l 0.68405,-1.3421959 c 0,-0.00304 0,-0.00304 0,-0.00304 0.06809,-0.1305774 0.102146,-0.273298 0.102146,-0.41602 0.0031,-0.115392 -0.02475,-0.2277482 -0.08045,-0.3309939 -0.04335,-0.075915 -0.108347,-0.1396855 -0.188811,-0.1821984 -0.06503,-0.030368 -0.139284,-0.048588 -0.213572,-0.045549 -0.139282,0 -0.275476,0.039475 -0.393094,0.1123573 -0.145476,0.085025 -0.266188,0.2034551 -0.352856,0.3461773 0,0 0,0 0,0 L 9.330953,4.7068288 7.8173811,7.1801743 C 7.6412623,7.4677441 7.3744528,7.4574193 7.2218573,7.1577027 L 5.5083334,3.7958362 C 5.3783336,3.5407582 5.307143,3.261387 5.307143,2.9759427 5.3040477,2.7087179 5.3690476,2.4445305 5.4990476,2.2107091 5.6321432,1.9647406 5.8364289,1.767359 6.0902381,1.6428567 6.2790477,1.5487207 6.489524,1.5001346 6.7030957,1.5031711 c 0.3095236,0.00304 0.612857,0.097172 0.8697616,0.2702614 0.2661906,0.1791617 0.4797622,0.4220934 0.6221431,0.7045009 z"
     fill-rule="evenodd"
     id="path2"
     style="fill:url(#linearGradient4);stroke-width:1.33333" />
</svg>
