<?xml version="1.0" encoding="UTF-8" standalone="no"?>
<svg
   width="16"
   height="16"
   version="1"
   id="svg7"
   sodipodi:docname="aqemu.svg"
   inkscape:version="1.4.4 (unknown)"
   xmlns:inkscape="http://www.inkscape.org/namespaces/inkscape"
   xmlns:sodipodi="http://sodipodi.sourceforge.net/DTD/sodipodi-0.dtd"
   xmlns:xlink="http://www.w3.org/1999/xlink"
   xmlns="http://www.w3.org/2000/svg"
   xmlns:svg="http://www.w3.org/2000/svg">
  <defs
     id="defs7">
    <linearGradient
       id="linearGradient2"
       inkscape:collect="always">
      <stop
         style="stop-color:#ab89df;stop-opacity:1;"
         offset="0"
         id="stop12" />
      <stop
         style="stop-color:#55ffdd;stop-opacity:1"
         offset="1"
         id="stop13" />
    </linearGradient>
    <linearGradient
       id="c-3"
       gradientUnits="userSpaceOnUse"
       x1="24.072048"
       x2="23.959682"
       y1="0.75082099"
       y2="46.056854">
      <stop
         offset="0"
         stop-color="#fff"
         id="stop3" />
      <stop
         offset="1"
         stop-color="#d9d9d9"
         id="stop4" />
    </linearGradient>
    <linearGradient
       id="b-6"
       gradientUnits="userSpaceOnUse"
       x1="29.203026"
       x2="34.121048"
       xlink:href="#a-7"
       y1="24.827356"
       y2="29.224836" />
    <linearGradient
       id="a-7">
      <stop
         offset="0"
         id="stop1" />
      <stop
         offset="1"
         stop-opacity="0"
         id="stop2" />
    </linearGradient>
    <linearGradient
       id="d"
       gradientUnits="userSpaceOnUse"
       x1="15.948756"
       x2="25.031786"
       xlink:href="#a-7"
       y1="23.618279"
       y2="33.69899" />
    <linearGradient
       id="e"
       gradientUnits="userSpaceOnUse"
       x1="21.990562"
       x2="29.320522"
       xlink:href="#a-7"
       y1="33.780373"
       y2="41.931858" />
    <linearGradient
       id="paint154_linear_890_11"
       x1="778"
       y1="812.29199"
       x2="788"
       y2="812.29199"
       gradientUnits="userSpaceOnUse"
       gradientTransform="translate(-751,-696)">
      <stop
         stop-color="#EFF2F6"
         id="stop1050" />
      <stop
         offset="0.600785"
         stop-color="#B7C6CD"
         id="stop1051" />
    </linearGradient>
    <linearGradient
       id="paint155_linear_890_11"
       x1="783"
       y1="813"
       x2="783"
       y2="817"
       gradientUnits="userSpaceOnUse"
       gradientTransform="translate(-751,-696)">
      <stop
         stop-color="#EFF2F6"
         id="stop1052" />
      <stop
         offset="0.734138"
         stop-color="#B7C6CD"
         id="stop1053" />
    </linearGradient>
    <radialGradient
       id="paint156_radial_890_11"
       cx="0"
       cy="0"
       r="1"
       gradientUnits="userSpaceOnUse"
       gradientTransform="matrix(27.999986,27.999976,-27.999986,27.999976,32.302392,33.999998)">
      <stop
         offset="0.60067803"
         stop-color="#B7C6CD"
         id="stop1054"
         style="stop-color:#384850;stop-opacity:1;" />
      <stop
         offset="0.876735"
         stop-color="#EFF2F6"
         id="stop1055" />
    </radialGradient>
    <linearGradient
       id="paint157_linear_890_11"
       x1="796.84485"
       y1="799.43359"
       x2="768.90088"
       y2="770.81476"
       gradientUnits="userSpaceOnUse"
       gradientTransform="matrix(1.1666666,0,0,1.1666668,-881.19764,-881.8333)">
      <stop
         offset="0.00000057"
         stop-color="#2E2E41"
         id="stop1056"
         style="stop-color:#495361;stop-opacity:1;" />
      <stop
         offset="0.711139"
         stop-color="#566C80"
         id="stop1057" />
    </linearGradient>
    <linearGradient
       id="paint158_linear_890_11"
       x1="792"
       y1="794"
       x2="774"
       y2="776"
       gradientUnits="userSpaceOnUse"
       gradientTransform="translate(-751,-696)">
      <stop
         offset="0.304478"
         stop-color="#2E2E41"
         id="stop1058" />
      <stop
         offset="1"
         stop-color="#566C80"
         id="stop1059" />
    </linearGradient>
    <linearGradient
       id="paint159_linear_890_11"
       x1="788"
       y1="790"
       x2="778"
       y2="780"
       gradientUnits="userSpaceOnUse"
       gradientTransform="translate(-751,-696)">
      <stop
         offset="0.391394"
         stop-color="#5200FF"
         id="stop1060" />
      <stop
         offset="1"
         stop-color="#0085FF"
         id="stop1061" />
    </linearGradient>
    <linearGradient
       id="paint160_linear_890_11"
       x1="784"
       y1="798"
       x2="782"
       y2="796"
       gradientUnits="userSpaceOnUse"
       gradientTransform="translate(-751,-696)">
      <stop
         stop-color="#FF7E07"
         id="stop1062" />
      <stop
         offset="1"
         stop-color="#FFE607"
         id="stop1063" />
    </linearGradient>
    <linearGradient
       id="_lgradient_1"
       x1="0"
       y1="0.5"
       x2="1"
       y2="0.5"
       gradientTransform="matrix(26.777111,0,0,26.777111,10.611445,10.611445)"
       gradientUnits="userSpaceOnUse">
      <stop
         offset="0%"
         stop-opacity="1"
         style="stop-color:rgb(132,250,176)"
         id="stop2-3" />
      <stop
         offset="98.26086956521739%"
         stop-opacity="1"
         style="stop-color:rgb(143,211,244)"
         id="stop4-6" />
    </linearGradient>
    <linearGradient
       inkscape:collect="always"
       xlink:href="#linearGradient2"
       id="linearGradient13"
       x1="7.6669998"
       y1="31.000719"
       x2="54.333324"
       y2="31.000719"
       gradientUnits="userSpaceOnUse"
       gradientTransform="matrix(0.27856483,0,0,0.27856483,-0.63550975,-0.63550835)" />
  </defs>
  <sodipodi:namedview
     id="namedview7"
     pagecolor="#ffffff"
     bordercolor="#000000"
     borderopacity="0.25"
     inkscape:showpageshadow="2"
     inkscape:pageopacity="0.0"
     inkscape:pagecheckerboard="0"
     inkscape:deskcolor="#d1d1d1"
     inkscape:zoom="33.322407"
     inkscape:cx="7.9826166"
     inkscape:cy="9.2580346"
     inkscape:window-width="1920"
     inkscape:window-height="994"
     inkscape:window-x="0"
     inkscape:window-y="0"
     inkscape:window-maximized="1"
     inkscape:current-layer="svg7" />
  <path
     d="m 14.499846,8.0000018 c 0,3.5898672 -2.909981,6.4998422 -6.4998471,6.4998422 -3.589864,0 -6.4998449,-2.909975 -6.4998449,-6.4998422 0,-3.589864 2.9099809,-6.499846 6.4998449,-6.499846 3.5898661,0 6.4998471,2.909982 6.4998471,6.499846 z"
     id="path155"
     style="fill:#373e48;stroke-width:0.278565;fill-opacity:1" />
  <path
     d="m 8.000024,1.5002483 c -1.721488,0 -3.375573,0.6853037 -4.5967267,1.9021242 v 0.00111 H 3.4023502 C 2.1855506,4.6246158 1.5002468,6.2787008 1.5002468,8.0001868 c 0,1.721486 0.6853046,3.3755742 1.9021254,4.5967272 h 9.471e-4 v 0.0011 c 1.2211537,1.216821 2.8752387,1.902125 4.5967267,1.902125 0.574953,0 1.137699,-0.07564 1.599577,-0.173668 0.461877,-0.09803 0.806253,-0.205423 1.013674,-0.326314 h 9.47e-4 c 0.222054,-0.129516 0.388066,-0.314714 0.477131,-0.525574 0.08906,-0.210863 0.09786,-0.460346 -0.02376,-0.669079 -0.121815,-0.208513 -0.343045,-0.323696 -0.570363,-0.350081 -0.227318,-0.02641 -0.470777,0.02691 -0.692845,0.1563 0.01916,-0.01111 -0.03897,0.01677 -0.112428,0.03931 -0.07346,0.02254 -0.174188,0.04978 -0.293408,0.07678 -0.192946,0.0437 -0.456063,0.0809 -0.72118,0.111513 l -1.058463,-2.562979 2.670836,-2.6699232 2.554752,1.03927 c -0.02672,0.244343 -0.05823,0.488238 -0.09415,0.663594 -0.02249,0.109783 -0.04465,0.200915 -0.06216,0.265991 -0.0175,0.06507 -0.04905,0.131783 -0.02285,0.08318 -0.121655,0.2263425 -0.167532,0.4711062 -0.133451,0.6974112 0.03408,0.226312 0.157375,0.444047 0.370188,0.558484 0.212785,0.114421 0.461364,0.09708 0.66908,0.0011 0.207716,-0.09617 0.387131,-0.269202 0.509122,-0.495414 0.100658,-0.186513 0.185963,-0.4941508 0.269643,-0.9231822 0.08368,-0.429034 0.149903,-0.956747 0.149903,-1.4962891 0,-1.721491 -0.685303,-3.375573 -1.902125,-4.596729 h -9.47e-4 v -0.00109 C 11.375596,2.185552 9.721511,1.5002483 8.000024,1.5002483 Z m 0,0.4679906 c 1.59725,0 3.133047,0.6362462 4.266756,1.7659322 1.129117,1.1336227 1.765019,2.6690217 1.765019,4.2658446 0,0.5008231 -0.06297,1.00319 -0.141677,1.4067101 -0.0787,0.4035265 -0.18871,0.7304532 -0.221199,0.7906512 h -9.47e-4 c -0.07695,0.142683 -0.189143,0.24422 -0.293408,0.292493 -0.104264,0.04827 -0.187411,0.04627 -0.251361,0.01189 -0.06392,-0.03436 -0.110878,-0.102237 -0.127967,-0.215713 -0.01709,-0.113479 0.0055,-0.263023 0.08226,-0.4058347 h -9.47e-4 c 0.0433,-0.080331 0.04247,-0.1071505 0.06307,-0.1837225 0.0206,-0.07658 0.04437,-0.1753401 0.06855,-0.29341 0.04836,-0.236139 0.09871,-0.5468671 0.126138,-0.887535 l 0.01646,-0.196522 -0.179153,-0.0457 -2.993493,-1.217507 -3.110492,3.1104912 1.228475,2.977042 c 0.0019,0.0053 0.0034,0.01008 0.0028,0.0073 l 0.0457,0.198347 0.202003,-0.01738 c 0.364157,-0.0311 0.697058,-0.08962 0.955176,-0.148074 0.129059,-0.02924 0.239481,-0.0581 0.327228,-0.08501 0.08775,-0.02691 0.141462,-0.04175 0.211144,-0.08226 0.140037,-0.08158 0.289061,-0.109212 0.403094,-0.09598 0.114032,0.01323 0.183629,0.05791 0.220284,0.120655 0.03658,0.06277 0.04101,0.145608 -0.0036,0.25136 -0.04467,0.105754 -0.141474,0.221774 -0.281526,0.303463 -0.09359,0.05455 -0.442058,0.18127 -0.875654,0.273297 -0.433596,0.09203 -0.968873,0.162701 -1.502688,0.162701 -1.59682,0 -3.132223,-0.635902 -4.2658422,-1.765017 l -9.471e-4,-0.0011 C 2.6042015,11.132053 1.968299,9.5966508 1.968299,7.9998308 c 0,-1.597249 0.636246,-3.133046 1.7659328,-4.2667576 C 4.867852,2.6039566 6.403254,1.9680552 8.000074,1.9680552 Z m 0,0.671822 c -1.182419,0 -2.326148,0.3899846 -3.255824,1.0995951 l -0.3254,0.2477058 8.943919,3.6388109 -0.05941,-0.404924 c -0.166248,-1.13316 -0.692011,-2.190512 -1.510914,-3.012687 v -0.0011 C 10.787602,3.2027947 9.421287,2.6399996 8.000024,2.6399996 Z m 0,0.4679912 c 1.297274,0 2.543926,0.5141276 3.46057,1.4304777 0.637991,0.6405399 1.032409,1.452267 1.243099,2.314358 L 5.433389,3.8950448 C 6.204359,3.4148661 7.077044,3.1080521 8.000024,3.1080521 Z m -4.025449,1.3253617 -0.246792,0.3254 c -0.7022023,0.927172 -1.0877124,2.065304 -1.0877124,3.241202 0,1.421262 0.5627957,2.7875762 1.5675844,3.7923672 h 9.48e-4 c 0.830919,0.827644 1.902437,1.356157 3.04925,1.516399 l 0.404007,0.05667 z m 0.92227,0.473476 1.893899,4.587584 2.713796,-2.712881 -0.327228,-0.13345 z M 3.886827,5.4461778 6.88489,12.710082 C 6.010818,12.502537 5.186768,12.106258 4.53854,11.460582 3.622188,10.543939 3.1080612,9.2972858 3.1080612,8.0000158 c 0,-0.917596 0.3038106,-1.785646 0.7787658,-2.553838 z m 1.869219,0.316257 2.917628,1.187341 -1.717488,1.717489 z M 11.061157,9.9249913 9.925,11.061145 l 2.608681,2.608682 1.136156,-1.136156 -0.165441,-0.165442 z m 0,0.6617657 1.946913,1.946915 -0.474389,0.47439 -1.946913,-1.946917 z"
     id="path7"
     style="fill:url(#linearGradient13);fill-opacity:1;stroke-width:0.278565" />
</svg>
