<?xml version="1.0" encoding="UTF-8" standalone="no"?>
<svg
   width="16"
   height="16"
   viewBox="0 0 4.2333332 4.2333334"
   version="1.1"
   id="svg1443"
   inkscape:version="1.4.4 (unknown)"
   sodipodi:docname="atlauncher.svg"
   xmlns:inkscape="http://www.inkscape.org/namespaces/inkscape"
   xmlns:sodipodi="http://sodipodi.sourceforge.net/DTD/sodipodi-0.dtd"
   xmlns="http://www.w3.org/2000/svg"
   xmlns:svg="http://www.w3.org/2000/svg"
   xmlns:rdf="http://www.w3.org/1999/02/22-rdf-syntax-ns#"
   xmlns:cc="http://creativecommons.org/ns#"
   xmlns:dc="http://purl.org/dc/elements/1.1/">
  <defs
     id="defs1437">
    <filter
       color-interpolation-filters="sRGB"
       height="1.1311001"
       width="1.1106"
       y="-0.065563001"
       x="-0.055319"
       id="c-9">
      <feGaussianBlur
         id="feGaussianBlur1093"
         stdDeviation="1.1062912" />
    </filter>
    <linearGradient
       gradientUnits="userSpaceOnUse"
       gradientTransform="matrix(0.13235,0,0,0.13075,-32.379,1.0873)"
       y2="269.48999"
       y1="235.14999"
       x2="657.65002"
       x1="319.20999"
       id="a-12">
      <stop
         id="stop1076"
         offset="0"
         stop-color="#e54c18" />
      <stop
         id="stop1078"
         offset="1"
         stop-color="#fec350" />
    </linearGradient>
    <filter
       id="filter3932"
       x="-0.08125"
       y="-0.069641436"
       width="1.1625"
       height="1.1392829"
       color-interpolation-filters="sRGB">
      <feGaussianBlur
         stdDeviation="1.421875"
         id="feGaussianBlur7" />
    </filter>
    <filter
       id="filter3936"
       x="-0.12184576"
       y="-0.1384724"
       width="1.2436915"
       height="1.2769448"
       color-interpolation-filters="sRGB">
      <feGaussianBlur
         stdDeviation="1.421875"
         id="feGaussianBlur10" />
    </filter>
  </defs>
  <sodipodi:namedview
     id="base"
     pagecolor="#ffffff"
     bordercolor="#666666"
     borderopacity="1.0"
     inkscape:pageopacity="0.0"
     inkscape:pageshadow="2"
     inkscape:zoom="22.627417"
     inkscape:cx="9.8994949"
     inkscape:cy="8.5073785"
     inkscape:document-units="px"
     inkscape:current-layer="layer1"
     inkscape:document-rotation="0"
     showgrid="false"
     units="px"
     inkscape:window-width="1920"
     inkscape:window-height="994"
     inkscape:window-x="0"
     inkscape:window-y="0"
     inkscape:window-maximized="1"
     inkscape:pagecheckerboard="0"
     inkscape:showpageshadow="2"
     inkscape:deskcolor="#d1d1d1" />
  <metadata
     id="metadata1440">
    <rdf:RDF>
      <cc:Work
         rdf:about="">
        <dc:format>image/svg+xml</dc:format>
        <dc:type
           rdf:resource="http://purl.org/dc/dcmitype/StillImage" />
      </cc:Work>
    </rdf:RDF>
  </metadata>
  <g
     inkscape:label="Capa 1"
     inkscape:groupmode="layer"
     id="layer1">
    <g
       id="g1"
       transform="matrix(0.99996552,0,0,0.99999865,5.1026224e-4,-0.08125297)">
      <path
         d="M 45.986,24.207 32.007,32.2392 17.98,24.33 l 0.04102,16.311 3.4521,2.3003 V 37.869 l 7.041,4.0811 v 5.0859 l 3.5,1.8149 v -12.397 l 5.2363,-3.0078 v 12.226 l 3.5,-2.0713 v -12.318 l 5.2363,-3.0044 z m -24.459,6.3711 6.959,3.9478 V 38.46 l -6.959,-4.0537 z"
         filter="url(#filter3936)"
         opacity="0.2"
         stroke-width="0.875"
         id="path19"
         transform="matrix(0.07583085,0,0,0.07583085,-0.31095585,-0.26188185)" />
      <path
         d="m 32,7.9375 -21,12.24 v 24.521 l 21,12.24 21,-12.349 v -24.302 l -11.806,-6.9385 -6.9727,4.4229 11.765,6.6821 0.02734,15.846 -14.014,8.4116 -13.979,-8.3159 -0.04102,-16.064 20.952,-12.335 z"
         filter="url(#filter3932)"
         opacity="0.2"
         stroke-width="0.875"
         id="path21"
         transform="matrix(0.07583085,0,0,0.07583085,-0.31095585,-0.26188185)" />
      <path
         d="M 2.1156312,0.30052535 0.54661515,1.2151206 v 1.832832 L 2.1156312,3.9623977 3.6846475,3.0398387 V 1.2233867 L 2.8134266,0.71120985 2.3287765,1.0187342 3.1683757,1.5129546 3.1705857,2.7410357 2.1156271,3.3660636 1.0632463,2.7482917 1.0603263,1.5038317 2.5956734,0.58180495 Z"
         fill="#4f4f4f"
         stroke-width="0.0663519"
         id="path23" />
      <path
         d="m 1.0524826,1.5167306 0.00306,1.236801 0.2618364,0.174351 v -0.384599 l 0.5338795,0.309541 v 0.385623 l 0.2654081,0.137618 V 2.1166666 Z M 1.8492374,2.5882207 1.321485,2.2807267 V 1.9904836 l 0.5277524,0.29929 z"
         fill="#7baf31"
         stroke-width="0.0663519"
         id="path25"
         style="fill:#bc5fd3;fill-opacity:1" />
      <path
         d="M 2.1156312,0.27367345 2.6413437,0.58133475 1.0524599,1.5167837 0.52317585,1.2018507 Z M 2.2840516,1.019417 2.8128276,0.68391095 3.7080863,1.2100406 3.1762544,1.5260577 Z"
         fill="#4f4f4f"
         stroke-width="0.0663519"
         id="path27"
         style="fill:#008080" />
      <path
         d="m 3.1762773,1.5074797 -1.0606461,0.609209 v 0.319984 l 0.398112,-0.228577 v 0.926957 L 2.779151,2.9781357 v -0.934312 l 0.3970885,-0.227637 z"
         fill="#89c236"
         stroke-width="0.0663519"
         id="path29"
         style="fill:#8d5fd3;fill-opacity:1" />
      <path
         d="m 0.52318345,1.2018057 v 1.859372 l 1.59244775,0.92817 V 3.3655097 L 1.0555159,2.7349306 1.0524559,1.5167086 Z"
         fill="#3f3f3f"
         stroke-width="0.0663519"
         id="path31"
         style="fill:#006060;fill-opacity:1" />
      <path
         d="M 3.7080791,3.0529886 2.1156312,3.9893476 V 3.3655097 l 1.0626178,-0.637806 -0.00205,-1.22027 0.531832,-0.297416 z"
         fill="#5b5b5b"
         stroke-width="0.0663519"
         id="path33"
         style="fill:#00b3b3;fill-opacity:1" />
    </g>
  </g>
</svg>
