<?xml version="1.0" encoding="UTF-8" standalone="no"?>
<!-- Generator: Gravit.io -->

<svg
   style="isolation:isolate"
   viewBox="0 0 16 16"
   width="16"
   height="16"
   version="1.1"
   id="svg8"
   sodipodi:docname="bcompare.svg"
   inkscape:version="1.4.4 (unknown)"
   xmlns:inkscape="http://www.inkscape.org/namespaces/inkscape"
   xmlns:sodipodi="http://sodipodi.sourceforge.net/DTD/sodipodi-0.dtd"
   xmlns:xlink="http://www.w3.org/1999/xlink"
   xmlns="http://www.w3.org/2000/svg"
   xmlns:svg="http://www.w3.org/2000/svg">
  <defs
     id="defs8">
    <linearGradient
       id="linearGradient8"
       inkscape:collect="always">
      <stop
         style="stop-color:#0066ff;stop-opacity:1"
         offset="0"
         id="stop9" />
      <stop
         style="stop-color:#2a7fff;stop-opacity:1"
         offset="1"
         id="stop10" />
    </linearGradient>
    <linearGradient
       inkscape:collect="always"
       xlink:href="#linearGradient8"
       id="linearGradient10"
       x1="1"
       y1="24.725"
       x2="47"
       y2="24.725"
       gradientUnits="userSpaceOnUse" />
  </defs>
  <sodipodi:namedview
     id="namedview8"
     pagecolor="#ffffff"
     bordercolor="#000000"
     borderopacity="0.25"
     inkscape:showpageshadow="2"
     inkscape:pageopacity="0.0"
     inkscape:pagecheckerboard="0"
     inkscape:deskcolor="#d1d1d1"
     inkscape:document-units="px"
     inkscape:zoom="16.727495"
     inkscape:cx="5.9781815"
     inkscape:cy="8.3395632"
     inkscape:window-width="1920"
     inkscape:window-height="994"
     inkscape:window-x="0"
     inkscape:window-y="0"
     inkscape:window-maximized="1"
     inkscape:current-layer="svg8" />
  <linearGradient
     id="_lgradient_2"
     x1="0.071999997"
     y1="1.0039999"
     x2="1.1629734"
     y2="0.088070795"
     gradientTransform="matrix(29.099,0,0,11.002,7.062,1)"
     gradientUnits="userSpaceOnUse">
    <stop
       offset="0%"
       stop-opacity="1"
       style="stop-color:rgb(138,35,135)"
       id="stop1" />
    <stop
       offset="48.26086956521739%"
       stop-opacity="1"
       style="stop-color:rgb(233,64,87)"
       id="stop2" />
    <stop
       offset="98.26086956521739%"
       stop-opacity="1"
       style="stop-color:rgb(247,121,125)"
       id="stop3" />
  </linearGradient>
  <linearGradient
     id="_lgradient_3"
     x1="0"
     y1="0.5"
     x2="1.0453089"
     y2="0.53468353"
     gradientTransform="matrix(26.334,0,0,11,12.576,36)"
     gradientUnits="userSpaceOnUse">
    <stop
       offset="0%"
       stop-opacity="1"
       style="stop-color:rgb(84,51,255)"
       id="stop4" />
    <stop
       offset="51.73913043478261%"
       stop-opacity="1"
       style="stop-color:rgb(32,189,255)"
       id="stop5" />
    <stop
       offset="98.26086956521739%"
       stop-opacity="1"
       style="stop-color:rgb(165,254,203)"
       id="stop6" />
  </linearGradient>
  <linearGradient
     id="_lgradient_4"
     x1="0"
     y1="0.5"
     x2="1"
     y2="0.5"
     gradientTransform="matrix(46,0,0,32.77,1,8.34)"
     gradientUnits="userSpaceOnUse">
    <stop
       offset="0%"
       stop-opacity="1"
       style="stop-color:rgb(88,0,226)"
       id="stop7" />
    <stop
       offset="99.16666666666667%"
       stop-opacity="1"
       style="stop-color:rgb(240,91,105)"
       id="stop8" />
  </linearGradient>
  <g
     id="g8"
     transform="matrix(0.2826087,0,0,0.2826087,1.2173912,1.2173912)">
    <path
       d="M 11.73,4.545 11.85,4.47 C 15.5,2.2 19.71,1 24,1 c 3.89,0 7.72,0.99 11.13,2.87 v 0 c 0.966,0.535 1.315,1.754 0.78,2.72 v 0 c -0.535,0.966 -1.754,1.315 -2.72,0.78 v 0 C 30.38,5.81 27.22,5 24,5 20.465,5 17.009,5.982 14.007,7.847 L 14.74,8.14 v 0 c 1.027,0.414 1.526,1.581 1.115,2.605 v 0 c -0.411,1.024 -1.574,1.523 -2.595,1.115 v 0 L 8.567,9.983 C 7.542,9.573 6.886,8.361 7.103,7.279 L 8.04,2.61 v 0 C 8.255,1.528 9.308,0.825 10.39,1.04 v 0 c 1.082,0.215 1.785,1.268 1.57,2.35 v 0 z"
       fill-rule="evenodd"
       id="path3"
       style="fill:#c83771" />
    <path
       d="M 33.484,40.48 32.81,40.83 C 30.09,42.26 27.07,43 24,43 21.04,43 18.12,42.31 15.48,40.98 v 0 c -0.988,-0.497 -2.193,-0.098 -2.69,0.89 v 0 c -0.497,0.988 -0.098,2.193 0.89,2.69 v 0 C 16.88,46.17 20.42,47 24,47 c 3.48,0 6.908,-0.788 10.029,-2.301 -0.165,1.05 0.529,2.052 1.581,2.261 v 0 c 1.082,0.215 2.135,-0.488 2.35,-1.57 v 0 l 0.908,-4.539 C 39.084,39.769 38.458,38.49 37.47,37.997 L 33.89,36.21 v 0 c -0.982,-0.491 -2.181,-0.09 -2.675,0.895 v 0 c -0.494,0.985 -0.093,2.188 0.895,2.685 v 0 z"
       fill-rule="evenodd"
       id="path6"
       style="fill:#c83771" />
    <path
       d="m 7.29,33.05 v 0 c 0.53,0.971 0.171,2.188 -0.8,2.715 v 0 C 5.519,36.292 4.304,35.931 3.78,34.96 v 0 C 1.95,31.6 1,27.83 1,24 1,21.08 1.55,18.19 2.63,15.49 v 0 c 0.408,-1.027 1.573,-1.528 2.6,-1.12 v 0 c 1.027,0.408 1.528,1.573 1.12,2.6 v 0 C 5.45,19.2 5,21.59 5,24 c 0,3.16 0.79,6.27 2.29,9.05 z M 41.81,17.36 v 0 c -0.386,-1.032 0.14,-2.184 1.175,-2.57 v 0 c 1.035,-0.386 2.189,0.142 2.575,1.18 v 0 C 46.51,18.54 47,21.26 47,24 c 0,3.62 -0.85,7.2 -2.5,10.43 v 0 c -0.497,0.982 -1.7,1.372 -2.685,0.87 v 0 C 40.83,34.798 40.438,33.592 40.94,32.61 v 0 C 42.3,29.94 43,26.99 43,24 43,21.73 42.6,19.49 41.81,17.36 Z M 7.29,39.11 c 0,-1.104 0.896,-2 2,-2 1.104,0 2,0.896 2,2 0,1.104 -0.896,2 -2,2 -1.104,0 -2,-0.896 -2,-2 z M 37.57,10.34 c 0,-1.104 0.896,-2 2,-2 1.104,0 2,0.896 2,2 0,1.104 -0.896,2 -2,2 -1.104,0 -2,-0.896 -2,-2 z M 16,24 c 0,-2.12 0.84,-4.16 2.34,-5.66 1.5,-1.5 3.54,-2.34 5.66,-2.34 2.12,0 4.16,0.84 5.66,2.34 1.5,1.5 2.34,3.54 2.34,5.66 0,2.12 -0.84,4.16 -2.34,5.66 C 28.16,31.16 26.12,32 24,32 21.88,32 19.84,31.16 18.34,29.66 16.84,28.16 16,26.12 16,24 Z m -4,0 c 0,-3.18 1.27,-6.24 3.51,-8.49 C 17.76,13.27 20.82,12 24,12 c 3.18,0 6.24,1.27 8.49,3.51 2.24,2.25 3.51,5.31 3.51,8.49 0,3.18 -1.27,6.24 -3.51,8.49 C 30.24,34.73 27.18,36 24,36 20.82,36 17.76,34.73 15.51,32.49 13.27,30.24 12,27.18 12,24 Z m 9.5,0 c 0,-1.38 1.12,-2.5 2.5,-2.5 1.38,0 2.5,1.12 2.5,2.5 0,1.38 -1.12,2.5 -2.5,2.5 -1.38,0 -2.5,-1.12 -2.5,-2.5 z"
       fill-rule="evenodd"
       id="path8"
       style="fill:url(#linearGradient10)" />
  </g>
</svg>
