<?xml version="1.0" encoding="UTF-8" standalone="no"?>
<!-- Generator: Gravit.io -->

<svg
   style="isolation:isolate"
   viewBox="0 0 16 16"
   width="16pt"
   height="16pt"
   version="1.1"
   id="svg6"
   sodipodi:docname="betterbird.svg"
   inkscape:version="1.4.4 (unknown)"
   xmlns:inkscape="http://www.inkscape.org/namespaces/inkscape"
   xmlns:sodipodi="http://sodipodi.sourceforge.net/DTD/sodipodi-0.dtd"
   xmlns:xlink="http://www.w3.org/1999/xlink"
   xmlns="http://www.w3.org/2000/svg"
   xmlns:svg="http://www.w3.org/2000/svg">
  <defs
     id="defs6">
    <linearGradient
       id="linearGradient6"
       inkscape:collect="always">
      <stop
         style="stop-color:#ffdd55;stop-opacity:1"
         offset="0"
         id="stop7" />
      <stop
         style="stop-color:#ff5599;stop-opacity:1"
         offset="1"
         id="stop8" />
    </linearGradient>
    <linearGradient
       inkscape:collect="always"
       xlink:href="#linearGradient6"
       id="linearGradient8"
       x1="0.95873946"
       y1="47.030327"
       x2="46.958538"
       y2="1.0297469"
       gradientUnits="userSpaceOnUse" />
    <linearGradient
       inkscape:collect="always"
       xlink:href="#linearGradient6"
       id="linearGradient10"
       x1="5.2858739"
       y1="10.932981"
       x2="10.826036"
       y2="5.1690974"
       gradientUnits="userSpaceOnUse" />
  </defs>
  <sodipodi:namedview
     id="namedview6"
     pagecolor="#ffffff"
     bordercolor="#000000"
     borderopacity="0.25"
     inkscape:showpageshadow="2"
     inkscape:pageopacity="0.0"
     inkscape:pagecheckerboard="0"
     inkscape:deskcolor="#d1d1d1"
     inkscape:document-units="pt"
     inkscape:zoom="24.34375"
     inkscape:cx="9.2015404"
     inkscape:cy="14.685494"
     inkscape:window-width="1920"
     inkscape:window-height="994"
     inkscape:window-x="0"
     inkscape:window-y="0"
     inkscape:window-maximized="1"
     inkscape:current-layer="svg6" />
  <linearGradient
     id="_lgradient_3"
     x1="0"
     y1="0.5"
     x2="1.0176991"
     y2="0.5"
     gradientTransform="matrix(27,0,0,22.68,10.5,12.66)"
     gradientUnits="userSpaceOnUse">
    <stop
       offset="0%"
       stop-opacity="1"
       style="stop-color:rgb(84,51,255)"
       id="stop1" />
    <stop
       offset="51.73913043478261%"
       stop-opacity="1"
       style="stop-color:rgb(32,189,255)"
       id="stop2" />
    <stop
       offset="98.26086956521739%"
       stop-opacity="1"
       style="stop-color:rgb(165,254,203)"
       id="stop3" />
  </linearGradient>
  <linearGradient
     id="_lgradient_4"
     x1="0.071553186"
     y1="0.74391294"
     x2="0.99873358"
     y2="0.49568295"
     gradientTransform="matrix(46,0,0,46,0.959,1.03)"
     gradientUnits="userSpaceOnUse">
    <stop
       offset="0%"
       stop-opacity="1"
       style="stop-color:rgb(84,51,255)"
       id="stop4" />
    <stop
       offset="51.73913043478261%"
       stop-opacity="1"
       style="stop-color:rgb(32,189,255)"
       id="stop5" />
    <stop
       offset="98.26086956521739%"
       stop-opacity="1"
       style="stop-color:rgb(165,254,203)"
       id="stop6" />
  </linearGradient>
  <g
     id="g6"
     transform="matrix(0.28260514,0,0,0.28260514,1.2291655,1.2089882)">
    <path
       d="m 33.433,40.492 v 0 c 0.958,-0.547 2.184,-0.216 2.736,0.739 v 0 c 0.553,0.955 0.225,2.179 -0.733,2.732 v 0 c -3.725,2.144 -7.974,3.2 -12.261,3.054 -3.888,-0.133 -7.682,-1.253 -11.026,-3.248 v 0 c -0.947,-0.568 -1.255,-1.798 -0.687,-2.745 v 0 c 0.568,-0.947 1.798,-1.255 2.745,-0.687 v 0 c 2.755,1.655 5.886,2.572 9.104,2.682 3.548,0.121 7.05,-0.75 10.122,-2.527 v 0 z m 7.534,-24.937 v 0 c -0.496,-0.989 -0.096,-2.193 0.892,-2.686 v 0 c 0.989,-0.494 2.19,-0.092 2.681,0.896 v 0 c 1.715,3.421 2.536,7.221 2.405,11.049 -0.099,2.918 -0.747,5.788 -1.919,8.449 v 0 c -0.443,1.012 -1.624,1.474 -2.637,1.031 v 0 c -1.012,-0.443 -1.473,-1.625 -1.03,-2.637 v 0 c 0.975,-2.198 1.506,-4.571 1.589,-6.98 0.107,-3.158 -0.576,-6.293 -1.981,-9.122 v 0 z M 15.727,6.91 v 0 c -0.993,0.474 -2.19,0.052 -2.669,-0.942 v 0 c -0.48,-0.994 -0.063,-2.19 0.931,-2.67 v 0 C 17.336,1.691 21.024,0.917 24.742,1.043 28.32,1.165 31.83,2.116 34.973,3.834 v 0 c 0.971,0.53 1.328,1.748 0.798,2.718 v 0 C 35.241,7.523 34.023,7.88 33.052,7.35 v 0 C 30.459,5.931 27.564,5.142 24.606,5.041 21.538,4.936 18.494,5.573 15.727,6.91 Z M 5.933,30.059 v 0 c 0.351,1.045 -0.215,2.178 -1.262,2.529 v 0 C 3.623,32.939 2.488,32.371 2.137,31.321 v 0 C 1.276,28.72 0.879,25.985 0.972,23.246 1.095,19.628 2.067,16.079 3.826,12.907 v 0 c 0.53,-0.964 1.745,-1.313 2.713,-0.778 v 0 c 0.967,0.536 1.318,1.754 0.783,2.719 v 0 c -1.45,2.622 -2.251,5.546 -2.352,8.535 -0.078,2.268 0.246,4.521 0.963,6.676 z M 41.174,9.498 c -0.038,1.103 -0.964,1.969 -2.067,1.931 -1.103,-0.038 -1.969,-0.964 -1.931,-2.067 0.038,-1.103 0.964,-1.968 2.067,-1.931 1.103,0.038 1.968,0.964 1.931,2.067 z M 9.931,37.22 C 9.893,38.323 8.967,39.188 7.864,39.15 6.761,39.113 5.896,38.187 5.933,37.083 5.971,35.98 6.897,35.115 8,35.153 9.103,35.19 9.969,36.116 9.931,37.22 Z m 32.016,1.091 c 0.038,-1.103 -0.827,-2.029 -1.93,-2.067 -1.103,-0.037 -2.03,0.828 -2.067,1.931 -0.038,1.103 0.827,2.029 1.93,2.067 1.104,0.038 2.03,-0.827 2.067,-1.931 z M 11.371,8.482 C 11.409,7.379 10.544,6.453 9.44,6.415 8.337,6.377 7.411,7.243 7.373,8.346 c -0.037,1.103 0.828,2.029 1.931,2.067 1.103,0.037 2.029,-0.828 2.067,-1.931 z"
       fill-rule="evenodd"
       id="path6"
       style="fill:url(#linearGradient8)" />
  </g>
  <path
     d="m 7.9996733,3.9999998 c 0.052727,0 0.1050959,0.00296 0.1576398,0.0049 a 2.7273343,2.7273343 0 0 0 -0.1576398,-0.0049 m 0.1576398,0.0049 c 1.3836688,0.081637 2.4807839,1.2293002 2.4807839,2.6333319 0,1.0560228 -0.6440142,2.1865955 -1.8473148,2.0891375 C 7.7800321,8.6244606 7.5112985,8.227358 7.4543885,7.7113459 7.3992923,7.2131526 7.832033,6.7280515 8.6111419,6.7273246 9.1155169,6.7265797 9.5893457,6.9884215 9.4729803,7.4033391 10.195177,6.6729607 8.9695136,5.4851155 7.7676684,5.4634777 7.2960213,5.4551607 6.8281923,5.6369367 6.4830937,6.0616747 6.7672819,5.8633066 6.9952871,5.7925768 7.279475,5.784031 7.1341994,5.8529373 6.9292857,5.9403986 6.8032827,6.1291298 7.0332879,5.9865839 7.2883845,5.9284 7.5969368,5.9593107 6.7087353,6.1473125 6.084539,7.290794 6.1659954,8.5342754 A 2.6291512,2.6291512 0 0 1 5.361432,6.6382358 c 0,-1.4114866 1.1087523,-2.5642405 2.5026016,-2.6347873 A 4.0000907,4.0000907 0 0 0 6.5343676,4.2772745 4.0109998,4.0109998 0 0 0 4.8823301,5.493665 q -0.00874,0.7936541 0.2050956,1.6987659 C 4.8668751,6.7182432 4.7066897,6.2442323 4.6786891,5.7700399 A 3.9819089,3.9819089 0 0 0 4.1114034,7.0586149 3.545535,3.545535 0 0 0 4.7461452,8.1480933 Q 4.3934099,7.9268161 4.0406746,7.4282598 a 4.0364547,4.0364547 0 0 0 0.014548,1.2382103 C 4.3428651,8.9561108 4.6297804,9.1415705 4.9170598,9.2970297 Q 4.5668705,9.3224847 4.1630428,9.1352071 c 0.4105552,1.3885749 1.5722174,2.4636899 2.9764311,2.7716969 0.2358234,-0.24782 0.3345528,-0.532011 0.5431031,-0.894021 0.011454,0.223828 -0.1060023,0.572198 -0.269642,0.944205 a 4.0364547,4.0364547 0 0 0 1.1740259,0 c -0.16364,-0.372007 -0.281097,-0.720377 -0.269642,-0.944205 0.2087318,0.36201 0.3072797,0.645834 0.5431034,0.894021 1.4049407,-0.309096 2.5658747,-1.382395 2.9764297,-2.7715149 q -0.403828,0.1872761 -0.754019,0.1616406 c 0.287279,-0.1554592 0.574378,-0.3409189 0.861839,-0.6303796 0.06855,-0.4096455 0.07364,-0.8272911 0.01455,-1.2382109 Q 11.606487,7.926633 11.253751,8.1480933 A 3.527352,3.527352 0 0 0 11.888674,7.0586149 3.9637258,3.9637258 0 0 0 11.321208,5.7694943 c -0.028,0.4743751 -0.188186,0.9487489 -0.408737,1.4229412 Q 11.126476,6.286961 11.117567,5.4936696 A 4.0055448,4.0055448 0 0 0 9.0156971,4.1303665 V 4.1298154 A 4.0000907,4.0000907 0 0 0 8.1578587,4.0049093 Z m 0.1314576,1.8927691 c 0.3109162,0.116915 0.5943766,0.032729 0.4609195,0.215279 C 8.58205,6.0627689 8.4315016,5.9858572 8.2887707,5.8976719"
     id="path1"
     style="stroke-width:0.181826;fill:url(#linearGradient10)" />
</svg>
