<?xml version="1.0" encoding="UTF-8" standalone="no"?>
<!-- Generator: Gravit.io -->

<svg
   style="isolation:isolate"
   viewBox="0 0 16 16"
   width="16pt"
   height="16pt"
   version="1.1"
   id="svg2"
   sodipodi:docname="blackmagic-Fusion8.svg"
   inkscape:version="1.4.4 (unknown)"
   xmlns:inkscape="http://www.inkscape.org/namespaces/inkscape"
   xmlns:sodipodi="http://sodipodi.sourceforge.net/DTD/sodipodi-0.dtd"
   xmlns:xlink="http://www.w3.org/1999/xlink"
   xmlns="http://www.w3.org/2000/svg"
   xmlns:svg="http://www.w3.org/2000/svg">
  <defs
     id="defs2">
    <linearGradient
       id="linearGradient2"
       inkscape:collect="always">
      <stop
         style="stop-color:#0066ff;stop-opacity:1"
         offset="0"
         id="stop3" />
      <stop
         style="stop-color:#7c7ce4;stop-opacity:1;"
         offset="1"
         id="stop4" />
    </linearGradient>
    <linearGradient
       inkscape:collect="always"
       xlink:href="#linearGradient2"
       id="linearGradient4"
       x1="-1.8461536"
       y1="14.922539"
       x2="10.019"
       y2="7.245501"
       gradientUnits="userSpaceOnUse"
       gradientTransform="matrix(0.8125001,0,0,0.79999997,1.5,1.6)" />
  </defs>
  <sodipodi:namedview
     id="namedview2"
     pagecolor="#ffffff"
     bordercolor="#000000"
     borderopacity="0.25"
     inkscape:showpageshadow="2"
     inkscape:pageopacity="0.0"
     inkscape:pagecheckerboard="0"
     inkscape:deskcolor="#d1d1d1"
     inkscape:document-units="pt"
     inkscape:zoom="22.512992"
     inkscape:cx="9.4612036"
     inkscape:cy="7.0403792"
     inkscape:window-width="1920"
     inkscape:window-height="994"
     inkscape:window-x="0"
     inkscape:window-y="0"
     inkscape:window-maximized="1"
     inkscape:current-layer="svg2"
     showgrid="false">
    <inkscape:grid
       id="grid1"
       units="pt"
       originx="0"
       originy="0"
       spacingx="0.99999997"
       spacingy="0.99999997"
       empcolor="#0099e5"
       empopacity="0.30196078"
       color="#0099e5"
       opacity="0.14901961"
       empspacing="5"
       enabled="true"
       visible="false" />
  </sodipodi:namedview>
  <linearGradient
     id="_lgradient_3"
     x1="0"
     y1="0.5"
     x2="1"
     y2="0.5"
     gradientTransform="matrix(16,0,0,15,0,0.5)"
     gradientUnits="userSpaceOnUse">
    <stop
       offset="0%"
       stop-opacity="1"
       style="stop-color:rgb(67,233,123)"
       id="stop1" />
    <stop
       offset="97.82608695652173%"
       stop-opacity="1"
       style="stop-color:rgb(56,249,215)"
       id="stop2" />
  </linearGradient>
  <path
     d="M 7.9999998,2.9999999 8,3.1010965 v 0 0 0 0 c 0,0 -2e-7,-0.1010966 0,0 l -2e-7,-0.1010966 L 8,3.1010965 7.9999998,2.9999999 8,3.1010965 7.9999998,2.9999999 8,3.1010965 7.9999998,2.9999999 8,3.1010965 v 0 z m 0,0 L 8,3.1010965 Z M 13.318183,8.6 v 0 c 0,-0.3312 0.264724,-0.6 0.590915,-0.6 V 8 C 14.235271,8 14.5,8.2688 14.5,8.6 v 0 2.049 c 0,0.3312 -0.187317,0.7902 -0.417775,1.0242 l -1.873764,1.9026 C 11.978005,13.8098 11.52596,14 11.199771,14 H 2.9772735 C 2.1618184,14 1.5,13.328 1.5,12.5 v -2.1 0 c 0,-0.3312 0.2647272,-0.6 0.5909091,-0.6 v 0 c 0.3261822,0 0.5909092,0.2688 0.5909092,0.6 v 0 1.5 c 0,0.4968 0.3970911,0.9 0.8863639,0.9 h 7.4365888 c 0.163097,0 0.389113,-0.09511 0.504348,-0.2121 l 1.600176,-1.6248 c 0.115236,-0.117 0.208888,-0.3465 0.208888,-0.5121 z M 7.9999998,2.9999999 v 0 0 0 L 8,3.1010965 v 0 z M 2.6818183,7.4 v 0 c 0,0.3312 -0.264727,0.6 -0.5909092,0.6 V 8 C 1.7647272,8 1.5,7.7312 1.5,7.4 v 0 -2.049 C 1.5,5.0198 1.6873183,4.5608 1.917773,4.3268 L 3.7915463,2.4242 C 4.0220009,2.1902 4.4740465,2 4.8002276,2 H 13.022734 C 13.838189,2 14.5,2.672 14.5,3.5 v 2.1 0 c 0,0.3312 -0.264729,0.6 -0.590902,0.6 v 0 c -0.326191,0 -0.590915,-0.2688 -0.590915,-0.6 v 0 -1.5 c 0,-0.4968 -0.39709,-0.9 -0.886363,-0.9 H 4.9952276 C 4.8321373,3.2 4.6061138,3.2951 4.4908873,3.4121 L 2.8907052,5.0369 C 2.7754771,5.1539 2.6818183,5.3834 2.6818183,5.549 Z"
     fill-rule="evenodd"
     id="path2"
     style="fill:url(#linearGradient4);fill-opacity:1;stroke-width:0.806223"
     sodipodi:nodetypes="cccccscccccccccccccccccsssscsccssscsssscsssccccccsccsccscsssscsssssscsssscsss" />
  <g
     id="g1"
     transform="translate(-0.22769048,-0.34214725)">
    <path
       style="opacity:0.2;stroke-width:0.199114"
       d="M 10.264799,4.7901149 C 9.9928374,4.7974755 9.7226865,4.8838808 9.5024515,5.041832 9.2470612,5.224998 9.0660642,5.4886387 8.8668365,5.7302957 8.7672228,5.8511241 8.6614223,5.9678244 8.5392196,6.0664324 8.4170177,6.1650394 8.2803761,6.2655854 8.1248921,6.2857693 7.8111954,6.3264905 7.4846647,6.1695799 7.200895,6.0722145 6.9058769,5.961202 6.6152354,5.8219279 6.3012235,5.7892733 5.8679687,5.7442187 5.4169527,5.9216182 5.1339658,6.2483777 4.8509788,6.5751374 4.7438149,7.1407891 4.8565704,7.5559184 4.9693271,7.9710477 5.2988618,8.3226326 5.7095514,8.4660316 6.1202408,8.6094314 6.6005518,8.5402767 6.9529263,8.2875554 7.2083177,8.10439 7.3893152,7.8407489 7.588542,7.5990917 7.8015657,7.3386816 8.0252744,7.0822448 8.3304865,6.9645958 c 0.1458671,-0.056228 0.3142337,-0.039769 0.4700419,-0.014648 0.1558091,0.025122 0.3064463,0.0744 0.4539557,0.1299061 0.2950175,0.1110125 0.5856594,0.2499005 0.8996709,0.2825552 0.433252,0.045055 0.884274,-0.1319592 1.16726,-0.4587187 C 11.604401,6.5769309 11.711567,6.188599 11.59881,5.7734695 11.486051,5.3583403 11.156512,5.0067552 10.745825,4.8633564 10.591821,4.8095813 10.427975,4.7856974 10.264799,4.7901149 Z m 0.163611,2.96047 c -0.199967,0.00543 -0.398344,0.06903 -0.5602813,0.1854147 C 9.6803411,8.0709639 9.5469305,8.2652253 9.4004414,8.4432887 9.3271946,8.5323201 9.2493889,8.6184926 9.1595339,8.6911508 9.0696793,8.7638091 8.9671957,8.822964 8.855066,8.8526659 8.7429366,8.8823681 8.6243584,8.8815847 8.509793,8.8630724 8.3952279,8.8445633 8.2839686,8.808759 8.1755059,8.7678593 7.9585813,8.6860609 7.745278,8.5833774 7.514387,8.5593159 7.1958173,8.5261176 6.8643838,8.6566095 6.6563055,8.8973799 6.448227,9.1381501 6.3693719,9.4823345 6.4522805,9.7882192 c 0.082908,0.3058868 0.3250068,0.5650718 0.626984,0.6707328 0.3019777,0.105659 0.65509,0.05477 0.9141886,-0.131446 C 8.1812411,10.192538 8.3146498,9.9982777 8.4611409,9.8202136 8.534386,9.7311825 8.6121932,9.64501 8.7020473,9.5723513 8.7919014,9.4996932 8.8943858,9.4405382 9.006515,9.4108367 c 0.1121294,-0.029702 0.230708,-0.028919 0.3452723,-0.010407 0.1145666,0.018511 0.2258244,0.054313 0.3342878,0.095213 0.2169261,0.081798 0.4302279,0.1844808 0.6611179,0.2085419 0.318574,0.033198 0.650005,-0.097294 0.858082,-0.3380648 C 11.413356,9.1253504 11.492207,8.7811656 11.409303,8.4752809 11.326382,8.1693977 11.084291,7.9102139 10.78232,7.8045518 10.669076,7.7649288 10.548397,7.7473288 10.42841,7.7505838 Z M 8.2822266,10.711821 c -0.045936,0.003 -0.091662,0.01003 -0.1361472,0.02199 -0.1779356,0.04684 -0.335169,0.165136 -0.4272751,0.321871 -0.092106,0.156742 -0.1179095,0.349822 -0.070233,0.524633 0.047676,0.174819 0.1680843,0.3293 0.327617,0.419788 0.1595328,0.0905 0.3560601,0.115846 0.5339958,0.069 0.1779362,-0.04686 0.3351693,-0.165143 0.4272755,-0.321879 0.092107,-0.156745 0.1179111,-0.349827 0.070234,-0.524644 C 8.9600145,11.04775 8.8396078,10.893279 8.6800754,10.802779 8.5604255,10.734909 8.420028,10.70345 8.2822266,10.711809 Z"
       id="path3" />
    <path
       style="fill:#2a7fff;stroke-width:0.199114"
       d="M 10.264799,4.5926629 C 9.9928374,4.6000233 9.7226865,4.6864292 9.5024515,4.8443802 9.2470612,5.027546 9.0660642,5.2911867 8.8668365,5.5328437 8.7672228,5.6536722 8.6614223,5.7703726 8.5392196,5.8689803 8.4170177,5.9675878 8.2803761,6.0681335 8.1248921,6.0883172 7.8111954,6.1290387 7.4846647,5.9721279 7.200895,5.8747626 6.9058769,5.7637499 6.6152354,5.6244763 6.3012235,5.5918215 5.8679687,5.5467667 5.4169527,5.7241665 5.1339658,6.0509255 4.8509788,6.3776852 4.7438149,6.9433371 4.8565704,7.3584668 4.9693271,7.7735956 5.2988618,8.1251807 5.7095514,8.2685797 6.1202408,8.4119792 6.6005518,8.342825 6.9529263,8.0901035 7.2083177,7.906938 7.3893152,7.643297 7.588542,7.4016402 7.8015657,7.1412296 8.0252744,6.8847928 8.3304865,6.7671436 8.4763536,6.7109166 8.6447202,6.7273746 8.8005284,6.7524946 8.9563375,6.7776166 9.1069747,6.8268947 9.2544841,6.8824007 9.5495016,6.993413 9.8401435,7.1323015 10.154155,7.164956 10.587407,7.210012 11.038429,7.0329971 11.321415,6.7062374 11.604401,6.3794778 11.711567,5.991146 11.59881,5.5760163 11.486051,5.1608875 11.156512,4.8093024 10.745825,4.6659036 c -0.154004,-0.053775 -0.31785,-0.07766 -0.481026,-0.073241 z m 0.163611,2.96047 c -0.199967,0.00542 -0.398344,0.06903 -0.5602813,0.1854148 C 9.6803411,7.8735121 9.5469305,8.0677736 9.4004414,8.2458366 9.3271949,8.3348682 9.2493889,8.4210405 9.1595339,8.4936989 9.0696796,8.5663576 8.9671957,8.6255122 8.855066,8.6552144 8.7429366,8.6849165 8.6243584,8.6841327 8.509793,8.6656209 8.3952279,8.6471115 8.2839686,8.6113073 8.1755059,8.5704075 7.9585813,8.4886091 7.745278,8.3859252 7.514387,8.361864 7.1958173,8.3286659 6.8643838,8.4591577 6.6563055,8.6999282 6.448227,8.9406981 6.3693719,9.2848824 6.4522805,9.5907672 c 0.082911,0.3058853 0.3250068,0.5650698 0.626984,0.6707348 0.3019777,0.105663 0.65509,0.05477 0.9141886,-0.131452 0.187788,-0.1349637 0.3211967,-0.3292243 0.4676878,-0.5072884 0.073246,-0.089031 0.1510523,-0.1752038 0.2409064,-0.247862 0.089854,-0.072658 0.1923385,-0.1318131 0.3044677,-0.1615154 0.1121294,-0.029702 0.230708,-0.028919 0.3452723,-0.010407 0.1145666,0.01851 0.2258244,0.054314 0.3342878,0.095215 0.2169261,0.0818 0.4302279,0.1844821 0.6611179,0.2085435 0.318574,0.033196 0.650005,-0.097293 0.858082,-0.338065 C 11.413356,8.9278992 11.492207,8.5837148 11.409303,8.2778301 11.326388,7.971946 11.084291,7.7127623 10.78232,7.6071001 10.669076,7.5674763 10.548397,7.5498775 10.42841,7.5531329 Z M 8.2822266,10.514376 c -0.045936,0.0029 -0.091662,0.01003 -0.1361472,0.02199 -0.1779356,0.04682 -0.335169,0.165136 -0.4272751,0.321872 -0.092106,0.156733 -0.1179095,0.349819 -0.070232,0.524634 0.047677,0.174816 0.1680844,0.329291 0.327617,0.419785 0.159533,0.09049 0.3560603,0.115839 0.5339959,0.069 0.1779363,-0.04687 0.3351695,-0.16514 0.4272755,-0.321875 0.092106,-0.156744 0.1179096,-0.349825 0.070232,-0.524641 -0.047677,-0.174824 -0.1680845,-0.329304 -0.327617,-0.419793 -0.1196497,-0.06789 -0.2600474,-0.09935 -0.3978488,-0.09098 z"
       id="path4" />
  </g>
</svg>
