<?xml version="1.0" encoding="UTF-8" standalone="no"?>
<!-- Generator: Gravit.io -->

<svg
   style="isolation:isolate"
   viewBox="0 0 16 16"
   width="16"
   height="16"
   version="1.1"
   id="svg2"
   sodipodi:docname="blockbench.svg"
   inkscape:version="1.4.4 (unknown)"
   xmlns:inkscape="http://www.inkscape.org/namespaces/inkscape"
   xmlns:sodipodi="http://sodipodi.sourceforge.net/DTD/sodipodi-0.dtd"
   xmlns="http://www.w3.org/2000/svg"
   xmlns:svg="http://www.w3.org/2000/svg">
  <defs
     id="defs2" />
  <sodipodi:namedview
     id="namedview2"
     pagecolor="#ffffff"
     bordercolor="#000000"
     borderopacity="0.25"
     inkscape:showpageshadow="2"
     inkscape:pageopacity="0.0"
     inkscape:pagecheckerboard="0"
     inkscape:deskcolor="#d1d1d1"
     inkscape:document-units="px"
     inkscape:zoom="23.65625"
     inkscape:cx="11.159841"
     inkscape:cy="5.347424"
     inkscape:window-width="1920"
     inkscape:window-height="994"
     inkscape:window-x="0"
     inkscape:window-y="0"
     inkscape:window-maximized="1"
     inkscape:current-layer="svg2" />
  <linearGradient
     id="_lgradient_0"
     x1="0.081292532"
     y1="0.89020425"
     x2="0.91220409"
     y2="0.13255766"
     gradientTransform="matrix(13.000003,0,0,13,1.4999999,1.5)"
     gradientUnits="userSpaceOnUse">
    <stop
       offset="0%"
       stop-opacity="1"
       style="stop-color:#7137c8;stop-opacity:1"
       id="stop1" />
    <stop
       offset="0.99989998"
       stop-opacity="1"
       style="stop-color:#00ffff;stop-opacity:1"
       id="stop2" />
  </linearGradient>
  <path
     d="m 14.261421,4.8913043 c -0.118997,0.00113 -0.481569,0.026 -1.656549,0.1028696 -0.441022,0.028826 -1.121798,0.073478 -1.513165,0.098913 -0.391073,0.025717 -1.028072,0.067261 -1.4156185,0.092696 -0.3872529,0.025152 -1.0336537,0.067261 -1.4361851,0.092978 -1.3765398,0.088739 -1.29192,0.081391 -1.3565603,0.1153043 -0.080506,0.042391 -0.1313368,0.1260435 -0.1557236,0.2563261 -0.010872,0.057935 -0.025563,0.1203913 -0.032907,0.1387609 -0.00737,0.018087 -0.017632,0.068109 -0.023214,0.1107826 -0.00557,0.042957 -0.018508,0.1003261 -0.028499,0.1277391 -0.010286,0.027413 -0.023212,0.084783 -0.028794,0.1271739 -0.00557,0.042674 -0.017923,0.095522 -0.027325,0.1178479 -0.00939,0.022043 -0.021741,0.075174 -0.027032,0.1178478 -0.00557,0.042957 -0.018216,0.099761 -0.027914,0.1263261 -0.010007,0.026565 -0.022624,0.080826 -0.028499,0.1206739 -0.00557,0.039848 -0.018216,0.093544 -0.027914,0.1192608 -0.00939,0.026 -0.022037,0.079413 -0.027914,0.1192609 -0.00557,0.039848 -0.018216,0.093544 -0.027914,0.1195435 -0.00939,0.025717 -0.022037,0.079413 -0.027914,0.1192609 -0.00557,0.039848 -0.018216,0.093543 -0.027914,0.1192608 -0.00939,0.025717 -0.022037,0.079413 -0.027617,0.1192609 -0.0059,0.039848 -0.018508,0.093544 -0.027914,0.1192609 -0.00968,0.026 -0.022331,0.079696 -0.027914,0.1195435 -0.0059,0.039565 -0.018508,0.093261 -0.027914,0.1192608 -0.00968,0.025717 -0.022331,0.079696 -0.027914,0.1195435 -0.0059,0.039848 -0.016456,0.087609 -0.023799,0.1056957 -0.00737,0.01837 -0.022331,0.080826 -0.0332,0.139326 -0.018508,0.09863 -0.018216,0.1082392 0.00557,0.1390435 0.049656,0.065283 0.1098882,0.079978 0.5435645,0.1336739 0.2280029,0.027978 0.5838175,0.072348 0.7909594,0.098348 0.2068483,0.026 0.5661883,0.070935 0.7983048,0.1000434 0.2321169,0.028826 0.6149624,0.076587 0.8506048,0.1059783 0.2359363,0.029391 0.5952764,0.074044 0.7985989,0.099196 0.4416091,0.054261 1.1544131,0.143 1.4397131,0.179174 0.468051,0.059348 0.635529,0.080543 1.000746,0.126326 0.21096,0.026565 0.537393,0.067826 0.725144,0.091565 0.429269,0.054826 0.440139,0.055109 0.465408,0.016956 0.01967,-0.029391 0.04701,-0.1463913 0.106361,-0.4541522 0.01703,-0.087326 0.04526,-0.2306087 0.06286,-0.3179348 0.01764,-0.087609 0.04583,-0.2277826 0.06229,-0.3117174 0.01676,-0.083935 0.042,-0.2031956 0.05639,-0.2650869 0.01411,-0.061891 0.02997,-0.1365 0.03497,-0.1656087 0.0093,-0.054261 0.03289,-0.1726739 0.0958,-0.4773261 0.01968,-0.094957 0.04846,-0.2365435 0.06433,-0.3148261 0.01557,-0.078283 0.04144,-0.2065869 0.05701,-0.2851522 0.01585,-0.078283 0.04349,-0.2139347 0.0614,-0.3015434 0.01793,-0.087609 0.04583,-0.224674 0.06201,-0.3049348 0.02676,-0.1325435 0.04613,-0.2263696 0.126638,-0.6163696 0.06022,-0.2916522 0.06319,-0.3233043 0.03289,-0.3721956 -0.01499,-0.024587 -0.0479,-0.055957 -0.07287,-0.069804 -0.01939,-0.010739 -0.0031,-0.018935 -0.07495,-0.01837 z M 5.8341172,8.5259348 C 5.7768225,8.5253696 5.7224662,8.5293248 5.6666407,8.5375218 5.5899538,8.5488258 4.9905642,8.6302178 4.3347613,8.718674 3.6789584,8.806848 3.1151204,8.8885218 3.0819189,8.9001088 2.940886,8.9487178 2.9294272,9.1174349 3.0625279,9.1810218 c 0.028499,0.013565 0.089613,0.035043 0.1357443,0.047761 0.04613,0.012717 0.099311,0.027978 0.1184088,0.03363 0.019391,0.00565 0.059939,0.016674 0.090788,0.024587 0.087556,0.022609 0.3140919,0.08337 0.4010622,0.1073913 0.024681,0.00678 0.070221,0.018935 0.101073,0.02713 0.030557,0.0082 0.07463,0.020065 0.097546,0.026283 0.067872,0.018652 0.3446494,0.092696 0.3975366,0.1065435 0.026739,0.00707 0.091086,0.02487 0.1427957,0.039565 0.051713,0.014413 0.1366257,0.038435 0.1883379,0.05313 0.051713,0.014696 0.1192902,0.033348 0.1498474,0.041261 0.030849,0.0082 0.071397,0.019217 0.090788,0.02487 0.019099,0.00565 0.059939,0.016674 0.090496,0.024304 0.1307491,0.033348 0.2274155,0.059348 0.5438581,0.1469565 0.1842242,0.05087 0.3913662,0.1068261 0.4604138,0.1243479 0.2068481,0.05285 1.1614646,0.312565 1.3039665,0.354956 0.072866,0.02148 0.1574867,0.04578 0.1883377,0.05426 0.030557,0.0082 0.083737,0.02346 0.118115,0.03363 0.034083,0.01046 0.1001937,0.02798 0.1463218,0.03872 0.04613,0.01102 0.1028361,0.02515 0.1260481,0.03165 0.022917,0.0065 0.063756,0.01752 0.090496,0.02459 0.026739,0.0071 0.1145894,0.03165 0.1953894,0.05483 0.2097866,0.0602 0.3041023,0.08563 0.3972426,0.107391 0.030849,0.0071 0.096667,0.02459 0.1466155,0.03872 0.049656,0.01413 0.1595436,0.04409 0.2438695,0.06669 0.08462,0.02261 0.1804045,0.04974 0.213606,0.0602 0.0332,0.01046 0.111651,0.03137 0.1742345,0.04635 0.062879,0.01498 0.2397558,0.06246 0.3931291,0.105413 0.4054696,0.113609 0.4277996,0.118696 0.4780426,0.112761 0.02497,-0.0031 0.69018,-0.314544 1.478199,-0.692386 1.549306,-0.7429784 1.495539,-0.7133045 1.495539,-0.8198479 0,-0.072631 0.0614,-0.058217 -0.718094,-0.1664566 C 12.335145,9.431413 12.080992,9.396087 11.977275,9.3819565 11.873852,9.3675435 11.726354,9.346913 11.649668,9.3356087 11.572981,9.3243043 11.337632,9.2915217 11.126669,9.262413 10.915709,9.2333043 10.570472,9.1855435 10.35951,9.1564348 10.148549,9.1270435 9.8473847,9.0852174 9.6901917,9.0637391 9.3273259,9.0137174 8.5551708,8.9063261 8.1212007,8.845 7.9372705,8.819 7.657849,8.7802826 7.500656,8.7585217 6.5392817,8.6268261 6.242525,8.5844348 6.161725,8.5674783 6.0324446,8.5403478 5.9293144,8.5270652 5.8341172,8.5259348 Z M 5.0234719,10.00737 c -0.024974,0.0051 -0.5353374,1.0465 -0.5353374,1.092565 0,0.05228 0.039958,0.11163 0.088146,0.131695 0.056413,0.02346 0.067286,0.02346 0.1313368,0.0011 0.028796,-0.01017 0.118409,-0.03759 0.1989153,-0.06104 0.080801,-0.02317 0.1950955,-0.0568 0.2544467,-0.07461 0.1037183,-0.03109 0.1736469,-0.05143 0.4498363,-0.130848 0.2285908,-0.06585 0.3719744,-0.112478 0.4092894,-0.133674 0.074922,-0.04239 0.1548423,-0.181152 0.2400497,-0.416848 0.024681,-0.06811 0.024681,-0.07376 0.00264,-0.08959 -0.012924,-0.0093 -0.04877,-0.02286 -0.079623,-0.03021 C 6.0726979,10.26963 5.7586058,10.189652 5.4039669,10.097239 5.2059331,10.045522 5.034637,10.005109 5.0234719,10.00737 Z m 6.5104321,0.822956 c -0.01467,2.83e-4 -0.03289,0.0059 -0.05346,0.01752 -0.02558,0.01385 -0.101369,0.05454 -0.168653,0.09015 -0.108124,0.05709 -0.321731,0.175783 -0.463939,0.258304 -0.02704,0.01554 -0.08022,0.04324 -0.118702,0.06189 -0.03819,0.01837 -0.104306,0.05398 -0.146322,0.07885 -0.206261,0.121805 -0.29088,0.14724 -0.37932,0.114174 -0.01763,-0.0065 -0.1093,-0.03137 -0.203616,-0.05539 -0.147497,-0.0373 -0.1739407,-0.0407 -0.1895131,-0.0243 -0.017041,0.01752 -0.036727,0.0633 -0.1078312,0.250674 -0.01528,0.04013 -0.040547,0.102869 -0.056121,0.139326 -0.015866,0.03646 -0.03379,0.08422 -0.040254,0.105978 -0.00647,0.02204 -0.031439,0.09044 -0.055824,0.152609 -0.024092,0.06189 -0.049066,0.127456 -0.055531,0.145826 -0.00618,0.01809 -0.031146,0.08365 -0.055238,0.145826 -0.041133,0.105413 -0.1125325,0.348174 -0.1113572,0.377565 8.814e-4,0.02939 0.067872,0.08902 0.1189965,0.106544 0.071692,0.02402 0.076687,0.02402 0.1701208,-0.0062 0.1239916,-0.03985 0.9087812,-0.422217 1.1188622,-0.544869 0.103423,-0.06048 0.255623,-0.144131 0.337892,-0.18624 0.08226,-0.04211 0.162776,-0.08535 0.17923,-0.09609 0.05672,-0.03787 0.09755,-0.114457 0.126047,-0.237392 0.01557,-0.06754 0.03761,-0.161369 0.0488,-0.208848 0.01119,-0.04748 0.02586,-0.113043 0.03289,-0.145826 0.0073,-0.03278 0.03497,-0.150913 0.06229,-0.262543 0.02732,-0.111631 0.04965,-0.217891 0.04965,-0.235978 0,-0.02798 -0.01468,-0.04239 -0.03908,-0.04154 z m 2.121369,-0.592065 v 0 c 0.09579,-0.215348 0.354933,-0.3145436 0.578823,-0.221848 v 0 c 0.22389,0.0927 0.326432,0.341674 0.229179,0.555326 v 0 C 13.940277,11.738913 13.076451,12.73087 11.971694,13.428913 10.869873,14.126957 9.5770717,14.5 8.2578264,14.5 6.4655333,14.5 4.7466948,13.816087 3.4803369,12.595217 2.2110407,11.377174 1.4999999,9.723913 1.4999999,8 c 0,-1.723913 0.7110408,-3.3771739 1.980337,-4.5952174 C 4.7466948,2.183913 6.4655333,1.5 8.2578264,1.5 9.8003739,1.5 11.29591,2.0086957 12.497627,2.9384783 v 0 c 0.188045,0.1466739 0.217133,0.4137391 0.06465,0.5963043 v 0 c -0.152492,0.1825652 -0.43015,0.2116739 -0.619957,0.065 v 0 C 10.899255,2.7886957 9.5976391,2.3478261 8.2578264,2.3478261 6.700588,2.3478261 5.2050518,2.9441304 4.1032322,4.003913 3.0014127,5.0636957 2.3814554,6.5021739 2.3814554,8 c 0,1.4978261 0.6199573,2.936304 1.7217768,3.996087 1.1018196,1.059783 2.5973558,1.656087 4.1545942,1.656087 1.1488306,0 2.2712176,-0.325 3.2290656,-0.929783 0.960787,-0.607608 1.712963,-1.472391 2.168381,-2.48413 z"
     fill-rule="evenodd"
     fill="url(#_lgradient_0)"
     id="path2"
     style="fill:url(#_lgradient_0);stroke-width:0.28816" />
</svg>
