<?xml version="1.0" encoding="UTF-8" standalone="no"?>
<svg
   width="16"
   height="16"
   version="1"
   id="svg5"
   sodipodi:docname="boinc.svg"
   inkscape:version="1.4.4 (unknown)"
   xmlns:inkscape="http://www.inkscape.org/namespaces/inkscape"
   xmlns:sodipodi="http://sodipodi.sourceforge.net/DTD/sodipodi-0.dtd"
   xmlns="http://www.w3.org/2000/svg"
   xmlns:svg="http://www.w3.org/2000/svg">
  <defs
     id="defs5" />
  <sodipodi:namedview
     id="namedview5"
     pagecolor="#ffffff"
     bordercolor="#000000"
     borderopacity="0.25"
     inkscape:showpageshadow="2"
     inkscape:pageopacity="0.0"
     inkscape:pagecheckerboard="0"
     inkscape:deskcolor="#d1d1d1"
     inkscape:zoom="16.617009"
     inkscape:cx="9.4481502"
     inkscape:cy="6.8303506"
     inkscape:window-width="1920"
     inkscape:window-height="994"
     inkscape:window-x="0"
     inkscape:window-y="0"
     inkscape:window-maximized="1"
     inkscape:current-layer="svg5"
     showguides="false" />
  <g
     id="g1"
     transform="matrix(0.29276906,0,0,0.2926757,-1.0758407,-0.9291761)">
    <ellipse
       style="opacity:0.2;stroke-width:0.9823"
       cx="31"
       cy="31.491228"
       id="circle2"
       rx="7.8571429"
       ry="7.8596492" />
    <ellipse
       style="fill:#ffd556;stroke-width:0.9823"
       cx="31"
       cy="30.508772"
       id="circle3"
       rx="7.8571429"
       ry="7.8596492" />
    <path
       style="opacity:0.2;stroke-width:0.9823"
       d="m 47.220702,9.2823148 -3.959261,6.8580042 -3.003977,5.203949 A 13.75,13.754386 0 0 1 44.75,31.491197 13.75,13.754386 0 0 1 44.101633,35.655123 l 5.186942,2.997257 a 19.642857,19.649123 0 0 0 1.354282,-7.161183 19.642857,19.649123 0 0 0 -3.226492,-10.760964 l 4.25851,-7.376098 C 50.345058,11.837183 48.852727,10.474798 47.220702,9.2823148 Z m -34.35198,1.5274132 c -1.516468,1.330241 -2.8784186,2.823047 -4.0705218,4.455591 l 6.8558178,3.960526 5.202289,3.004934 A 13.75,13.754386 0 0 1 31,17.736811 13.75,13.754386 0 0 1 35.162598,18.385385 L 38.1589,13.196788 A 19.642857,19.649123 0 0 0 31,11.842074 19.642857,19.649123 0 0 0 20.242467,15.069596 Z m -0.157297,13.520285 a 19.642857,19.649123 0 0 0 -1.354282,7.161184 19.642857,19.649123 0 0 0 3.226492,10.760964 l -3.564104,6.174892 c 1.374922,1.454455 2.890321,2.773312 4.553921,3.899122 l 3.165108,-5.484101 3.003976,-5.203949 A 13.75,13.754386 0 0 1 17.25,31.491197 13.75,13.754386 0 0 1 17.898367,27.32727 Z M 41.143693,40.751614 A 13.75,13.754386 0 0 1 31,45.245583 13.75,13.754386 0 0 1 26.837402,44.597008 L 23.8411,49.785605 A 19.642857,19.649123 0 0 0 31,51.140319 19.642857,19.649123 0 0 0 41.757533,47.912798 l 5.965751,3.446271 c 1.63186,-1.250515 3.130262,-2.660412 4.442663,-4.240679 l -5.819965,-3.361842 z"
       id="path3" />
    <path
       style="fill:#5a9cfe;stroke-width:0.9823"
       d="m 47.220702,8.2998903 -3.959261,6.8580047 -3.003977,5.203948 A 13.75,13.754386 0 0 1 44.75,30.508772 13.75,13.754386 0 0 1 44.101633,34.672698 l 5.186942,2.997258 a 19.642857,19.649123 0 0 0 1.354282,-7.161184 19.642857,19.649123 0 0 0 -3.226492,-10.760964 l 4.25851,-7.376098 C 50.345058,10.854758 48.852727,9.4923738 47.220702,8.2998903 Z M 12.868722,9.8273029 C 11.352254,11.157545 9.9903034,12.65035 8.7982002,14.282895 l 6.8558178,3.960526 5.202289,3.004934 A 13.75,13.754386 0 0 1 31,16.754386 13.75,13.754386 0 0 1 35.162598,17.40296 L 38.1589,12.214364 A 19.642857,19.649123 0 0 0 31,10.859649 19.642857,19.649123 0 0 0 20.242467,14.087171 Z M 12.711425,23.347588 a 19.642857,19.649123 0 0 0 -1.354282,7.161184 19.642857,19.649123 0 0 0 3.226492,10.760964 l -4.258509,7.376098 c 1.329817,1.516951 2.822147,2.879335 4.454171,4.071819 l 3.959263,-6.858004 3.003976,-5.203948 A 13.75,13.754386 0 0 1 17.25,30.508772 13.75,13.754386 0 0 1 17.898367,26.344846 Z M 41.143693,39.769189 A 13.75,13.754386 0 0 1 31,44.263158 13.75,13.754386 0 0 1 26.837402,43.614584 L 23.8411,48.80318 A 19.642857,19.649123 0 0 0 31,50.157895 19.642857,19.649123 0 0 0 41.757533,46.930373 l 7.373745,4.259869 C 50.647746,49.86 52.009696,48.367194 53.201799,46.734648 l -6.855817,-3.960524 z"
       id="path4" />
  </g>
</svg>
