<?xml version="1.0" encoding="UTF-8" standalone="no"?>
<!-- Generator: Gravit.io -->

<svg
   style="isolation:isolate"
   viewBox="0 0 16 16"
   width="16"
   height="16"
   version="1.1"
   id="svg2"
   sodipodi:docname="boostnote.svg"
   inkscape:version="1.4.4 (unknown)"
   xmlns:inkscape="http://www.inkscape.org/namespaces/inkscape"
   xmlns:sodipodi="http://sodipodi.sourceforge.net/DTD/sodipodi-0.dtd"
   xmlns:xlink="http://www.w3.org/1999/xlink"
   xmlns="http://www.w3.org/2000/svg"
   xmlns:svg="http://www.w3.org/2000/svg">
  <defs
     id="defs2">
    <linearGradient
       id="linearGradient2"
       inkscape:collect="always">
      <stop
         style="stop-color:#008080;stop-opacity:1"
         offset="0"
         id="stop3" />
      <stop
         style="stop-color:#aaaaff;stop-opacity:1"
         offset="1"
         id="stop4" />
    </linearGradient>
    <linearGradient
       inkscape:collect="always"
       xlink:href="#linearGradient2"
       id="linearGradient4"
       x1="2.052887"
       y1="10.907652"
       x2="11.915557"
       y2="2.751663"
       gradientUnits="userSpaceOnUse" />
  </defs>
  <sodipodi:namedview
     id="namedview2"
     pagecolor="#ffffff"
     bordercolor="#000000"
     borderopacity="0.25"
     inkscape:showpageshadow="2"
     inkscape:pageopacity="0.0"
     inkscape:pagecheckerboard="0"
     inkscape:deskcolor="#d1d1d1"
     inkscape:document-units="px"
     inkscape:zoom="23.65625"
     inkscape:cx="5.2840159"
     inkscape:cy="6.2351387"
     inkscape:window-width="1920"
     inkscape:window-height="994"
     inkscape:window-x="0"
     inkscape:window-y="0"
     inkscape:window-maximized="1"
     inkscape:current-layer="svg2" />
  <linearGradient
     id="_lgradient_0"
     x1="0"
     y1="0.5"
     x2="1"
     y2="0.5"
     gradientTransform="matrix(13.280952,0,0,13.000115,1.3595279,1.4999859)"
     gradientUnits="userSpaceOnUse">
    <stop
       offset="6%"
       stop-opacity="1"
       style="stop-color:rgb(43,134,208)"
       id="stop1" />
    <stop
       offset="89%"
       stop-opacity="1"
       style="stop-color:rgb(33,215,137)"
       id="stop2" />
  </linearGradient>
  <path
     d="m 7.5465145,13.318096 v 0 c 0.3311937,0.02739 0.5782747,0.314039 0.5508828,0.639699 v 0 c -0.027115,0.325384 -0.3192962,0.567484 -0.6524268,0.540092 v 0 C 5.7771044,14.361758 4.2204662,13.611107 3.0904786,12.39673 1.9638113,11.182353 1.3445869,9.593619 1.3598046,7.951208 1.3755758,6.2260678 2.091087,4.5753562 3.3461369,3.3642995 4.603677,2.1560096 6.3003185,1.4847681 8.0600446,1.5002626 c 1.759726,0.015494 3.4436404,0.7171714 4.6787684,1.9473195 1.232362,1.232915 1.917161,2.8963541 1.90139,4.6214944 v 0 c -0.003,0.32649 -0.275857,0.5893422 -0.609264,0.5862986 v 0 c -0.33313,-0.00277 -0.60124,-0.2703227 -0.598196,-0.5970894 v 0 C 13.445747,6.6469079 12.884904,5.2864405 11.876935,4.2773649 10.865922,3.2710561 9.4888536,2.696655 8.0489771,2.6839274 6.6093773,2.6711998 5.2217946,3.2209759 4.1925209,4.2093 3.166014,5.200391 2.5799921,6.550621 2.5669878,7.9619988 c -0.012451,1.3433129 0.4919486,2.6440162 1.4155281,3.6375972 0.9233028,0.993582 2.1977207,1.605612 3.5639986,1.7185 z m 5.0174325,-2.788447 v 0 c 0.154391,-0.287754 0.51353,-0.395938 0.801284,-0.241547 v 0 c 0.287478,0.154668 0.395662,0.51353 0.241271,0.801285 v 0 c -0.659067,1.225167 -1.694981,2.210171 -2.952245,2.805324 v 0 c -0.295224,0.14111 -0.64883,0.01577 -0.7888331,-0.279454 v 0 c -0.14028,-0.295224 -0.014388,-0.649383 0.2808371,-0.790493 v 0 c 1.03121,-0.487798 1.875934,-1.291019 2.417686,-2.295115 z M 10.353222,5.4956155 c 0,0 -6.0871025,1.9304416 -6.0871025,1.9368054 L 6.5197309,8.379242 7.3096708,8.5391668 7.4792797,9.3481981 8.4164168,11.582719 Z m -4.0844457,3.598031 c -0.026009,0.00221 -0.059764,0.00775 -0.090753,0.015771 C 5.9420095,9.170842 5.5989183,9.4248402 5.4149218,9.6741348 5.2065769,9.9566317 5.0956256,10.287549 5.096179,10.625106 c 0,0.09435 0.00415,0.110675 0.031819,0.122572 0.031542,0.01383 0.2988214,-0.0028 0.4070058,-0.02463 0.3121023,-0.06391 0.5782747,-0.210005 0.8159484,-0.448232 0.1494107,-0.149687 0.2376737,-0.273089 0.3242765,-0.4537657 0.056721,-0.1184218 0.095457,-0.2622988 0.075535,-0.2822202 -0.00387,-0.0036 -0.034863,0.014941 -0.069172,0.04178 -0.2575943,0.1651815 -0.4631724,0.28471 -0.7553533,0.3419841 0.075812,-0.2872005 0.1568813,-0.5060596 0.3073987,-0.712191 0.043717,-0.058934 0.079409,-0.1095678 0.079409,-0.1123347 0,-0.00553 -0.018261,-0.00664 -0.04427,-0.00443 z"
     fill-rule="evenodd"
     id="path2"
     style="fill:url(#linearGradient4);fill-opacity:1" />
</svg>
