<?xml version="1.0" encoding="UTF-8" standalone="no"?>
<!-- Generator: Gravit.io -->

<svg
   style="isolation:isolate"
   viewBox="0 0 16 16"
   width="16"
   height="16"
   version="1.1"
   id="svg2"
   sodipodi:docname="burp.svg"
   inkscape:version="1.4.4 (unknown)"
   xmlns:inkscape="http://www.inkscape.org/namespaces/inkscape"
   xmlns:sodipodi="http://sodipodi.sourceforge.net/DTD/sodipodi-0.dtd"
   xmlns="http://www.w3.org/2000/svg"
   xmlns:svg="http://www.w3.org/2000/svg">
  <defs
     id="defs2" />
  <sodipodi:namedview
     id="namedview2"
     pagecolor="#ffffff"
     bordercolor="#000000"
     borderopacity="0.25"
     inkscape:showpageshadow="2"
     inkscape:pageopacity="0.0"
     inkscape:pagecheckerboard="0"
     inkscape:deskcolor="#d1d1d1"
     inkscape:document-units="px"
     inkscape:zoom="23.65625"
     inkscape:cx="8.665786"
     inkscape:cy="6.319683"
     inkscape:window-width="1920"
     inkscape:window-height="994"
     inkscape:window-x="0"
     inkscape:window-y="0"
     inkscape:window-maximized="1"
     inkscape:current-layer="svg2" />
  <linearGradient
     id="_lgradient_35"
     x1="0"
     y1="0.5"
     x2="1"
     y2="0.5"
     gradientTransform="matrix(14,0,0,13.000313,1,1.4998973)"
     gradientUnits="userSpaceOnUse">
    <stop
       offset="0%"
       stop-opacity="1"
       style="stop-color:#535d6c;stop-opacity:1"
       id="stop1" />
    <stop
       offset="98.69565217391305%"
       stop-opacity="1"
       style="stop-color:#c83771;stop-opacity:1"
       id="stop2" />
  </linearGradient>
  <path
     d="m 2.1256604,8.7792059 v 0 -4.2775686 c 0,-0.5358286 0.4261429,-1.0441538 0.9510223,-1.1350764 L 6.3774408,2.7964341 v 0 C 6.6826555,2.7427218 6.888169,2.4492457 6.8357454,2.141209 v 0 C 6.7833218,1.8331723 6.491615,1.6264124 6.1844704,1.6801247 v 0 L 2.5849299,2.3023459 C 1.7101309,2.4537757 1,3.3012001 1,4.1942477 v 4.8276332 0.566244 0 2.3264541 c 0,0.893048 0.7094877,1.745002 1.5833219,1.901609 l 3.3824487,0.606043 v 0 c 0.3071446,0.05533 0.6004595,-0.149812 0.6544912,-0.457849 v 0 C 6.6742935,13.656345 6.4703881,13.361251 6.1651734,13.305921 v 0 L 3.0757179,12.753915 C 2.5514817,12.660403 2.1256604,12.14949 2.1256604,11.613661 V 9.3454489 Z m 6.4323454,0.252383 v 0 c -0.00547,0.312566 -0.2617964,0.562037 -0.5724787,0.556536 v 0 C 7.6748449,9.5826249 7.4268779,9.3247409 7.4323454,9.0121739 v 0 l 0.09938,-6.1545854 C 7.5461984,1.9648645 8.2669424,1.3678816 9.140777,1.5251357 l 4.276222,0.7694446 C 14.290834,2.4518342 15,3.3044358 15,4.1974834 v 2.2358545 0 c 0,0.3125667 -0.252148,0.5662439 -0.56283,0.5662439 v 0 c -0.310683,0 -0.562831,-0.2536772 -0.562831,-0.5662439 v 0 -1.9349363 c 0,-0.5358285 -0.4255,-1.0473895 -0.949736,-1.1418713 L 9.613876,2.7605181 C 9.089639,2.6660363 8.657064,3.024226 8.6480587,3.5600545 Z m 5.3163332,0.960996 v 0 c 0,-0.312567 0.252148,-0.566243 0.562831,-0.566243 v 0 c 0.310682,0 0.56283,0.253676 0.56283,0.566243 v 0 1.4463491 c 0,0.0032 0,0.0065 0,0.0097 -0.0096,0.579186 -0.2187,1.138959 -0.594992,1.582247 -0.366643,0.446524 -0.878015,0.753914 -1.447278,0.860691 -0.0032,0 -0.0065,0.0032 -0.0065,0.0032 l -3.264416,0.572715 c -0.122214,0.02265 -0.241212,0.03236 -0.363426,0.03236 -0.50494,0.0065 -0.9905821,-0.194141 -1.344361,-0.553301 -0.35374,-0.372103 -0.5467104,-0.867162 -0.5370619,-1.381635 v -0.954526 0 c 0,-0.312567 0.252148,-0.566243 0.5628302,-0.566243 v 0 c 0.3106823,0 0.5628302,0.253676 0.5628302,0.566243 v 0 0.960997 c 0,0.0032 0,0.0065 0,0.0097 -0.00322,0.213555 0.073972,0.417402 0.2187005,0.575951 0.141511,0.135898 0.331265,0.213554 0.527452,0.210319 0.06111,0 0.118998,-0.0065 0.176889,-0.01618 0,0 0,0 0,0 l 3.2612,-0.572714 c 0.311968,-0.05824 0.591775,-0.229734 0.791177,-0.478881 0.209052,-0.23944 0.324834,-0.54683 0.331266,-0.863926 v -1.4431141 0 0 z M 11.864232,12.257561 H 11.220997 V 10.843569 L 12.774408,9.0218809 H 11.220997 V 7.4040418 H 8.960028 L 11.220997,5.0096389 V 3.5212263 h 0.643235 v 1.747267 l -1.405468,1.4884125 h 1.405468 v 1.6178401 h 2.305995 L 11.864232,11.08301 Z"
     fill-rule="evenodd"
     fill="url(#_lgradient_35)"
     id="path2"
     style="fill:url(#_lgradient_35);stroke-width:0.322591" />
</svg>
