<?xml version="1.0" encoding="UTF-8" standalone="no"?>
<!-- Created with Inkscape (http://www.inkscape.org/) -->

<svg
   version="1.1"
   id="svg1"
   width="16"
   height="16"
   viewBox="0 0 16 16"
   sodipodi:docname="capacities.svg"
   inkscape:version="1.4.4 (unknown)"
   xmlns:inkscape="http://www.inkscape.org/namespaces/inkscape"
   xmlns:sodipodi="http://sodipodi.sourceforge.net/DTD/sodipodi-0.dtd"
   xmlns:xlink="http://www.w3.org/1999/xlink"
   xmlns="http://www.w3.org/2000/svg"
   xmlns:svg="http://www.w3.org/2000/svg">
  <defs
     id="defs1">
    <linearGradient
       id="linearGradient1"
       inkscape:collect="always">
      <stop
         style="stop-color:#0066ff;stop-opacity:1"
         offset="0"
         id="stop1" />
      <stop
         style="stop-color:#55ddff;stop-opacity:1"
         offset="1"
         id="stop2" />
    </linearGradient>
    <linearGradient
       inkscape:collect="always"
       xlink:href="#linearGradient1"
       id="linearGradient2"
       x1="1.5000462"
       y1="8.0000071"
       x2="14.499959"
       y2="8.0000071"
       gradientUnits="userSpaceOnUse" />
  </defs>
  <sodipodi:namedview
     id="namedview1"
     pagecolor="#ffffff"
     bordercolor="#666666"
     borderopacity="1.0"
     inkscape:showpageshadow="2"
     inkscape:pageopacity="0.0"
     inkscape:pagecheckerboard="0"
     inkscape:deskcolor="#d1d1d1"
     inkscape:zoom="15.770833"
     inkscape:cx="14.140026"
     inkscape:cy="14.932629"
     inkscape:window-width="1920"
     inkscape:window-height="994"
     inkscape:window-x="0"
     inkscape:window-y="0"
     inkscape:window-maximized="1"
     inkscape:current-layer="g1">
    <inkscape:page
       x="0"
       y="0"
       width="16"
       height="16"
       id="page2"
       margin="0"
       bleed="0" />
  </sodipodi:namedview>
  <g
     inkscape:groupmode="layer"
     inkscape:label="Image"
     id="g1">
    <path
       d="m 7.6219821,14.496189 c -0.03576,-0.0029 -0.079327,-0.0086 -0.096816,-0.01249 -0.017489,-0.0039 -0.1061702,-0.01037 -0.1970686,-0.01435 -0.1343536,-0.0059 -0.1685389,-0.0094 -0.1827438,-0.01868 -0.012768,-0.0084 -0.040799,-0.01271 -0.1040666,-0.01613 -0.064362,-0.0035 -0.095882,-0.0084 -0.1227772,-0.01932 -0.02579,-0.01044 -0.050915,-0.01464 -0.087467,-0.01464 -0.039299,0 -0.060783,-0.004 -0.091934,-0.01712 -0.027574,-0.01161 -0.05341,-0.01712 -0.080312,-0.01712 -0.027112,0 -0.048076,-0.0045 -0.06626,-0.01426 -0.015249,-0.0082 -0.048791,-0.01667 -0.078604,-0.01991 -0.029614,-0.0032 -0.063679,-0.01181 -0.079117,-0.01997 -0.016029,-0.0085 -0.039853,-0.01433 -0.058275,-0.01433 -0.018466,0 -0.041962,-0.0058 -0.057667,-0.01421 -0.014577,-0.0078 -0.0475,-0.01646 -0.073162,-0.0192 -0.029105,-0.0031 -0.051657,-0.0095 -0.059947,-0.01702 -0.00731,-0.0066 -0.031489,-0.01461 -0.053733,-0.01775 -0.022244,-0.0031 -0.05105,-0.01219 -0.064015,-0.02009 -0.012964,-0.0079 -0.032811,-0.01449 -0.044104,-0.01462 -0.011293,-1.3e-4 -0.035931,-0.0078 -0.054752,-0.01708 -0.018822,-0.0093 -0.041556,-0.01687 -0.050522,-0.0169 -0.00897,0 -0.027128,-0.0068 -0.040361,-0.01494 -0.013232,-0.0082 -0.039395,-0.0173 -0.058139,-0.02027 -0.018745,-0.003 -0.039128,-0.01 -0.045299,-0.01555 -0.00617,-0.0056 -0.02647,-0.01358 -0.045108,-0.01776 -0.01864,-0.0042 -0.043591,-0.0136 -0.055449,-0.02093 -0.011858,-0.0073 -0.028896,-0.01335 -0.037862,-0.01337 -0.00897,0 -0.028621,-0.0076 -0.043678,-0.0169 -0.015058,-0.0093 -0.035247,-0.01696 -0.044867,-0.01708 -0.00962,-1.16e-4 -0.027927,-0.0079 -0.040682,-0.01733 -0.012757,-0.0094 -0.029877,-0.01712 -0.038049,-0.01712 -0.00817,0 -0.022202,-0.0057 -0.031179,-0.01275 -0.00898,-0.007 -0.024022,-0.01491 -0.033432,-0.01753 -0.019151,-0.0054 -0.076551,-0.03099 -0.1231915,-0.05502 -0.016939,-0.0087 -0.040488,-0.01793 -0.052331,-0.02044 -0.011844,-0.0025 -0.026672,-0.01026 -0.032956,-0.0172 -0.00628,-0.0069 -0.021577,-0.01453 -0.03399,-0.01686 -0.012411,-0.0023 -0.028087,-0.01034 -0.034833,-0.0178 -0.00675,-0.0075 -0.019074,-0.01356 -0.027391,-0.01356 -0.00832,0 -0.023096,-0.0063 -0.032838,-0.01394 -0.00974,-0.0077 -0.027866,-0.01735 -0.040276,-0.02151 -0.012411,-0.0042 -0.027297,-0.01164 -0.033081,-0.01661 -0.00578,-0.005 -0.021182,-0.01402 -0.03422,-0.0201 -0.013036,-0.0061 -0.039103,-0.01976 -0.057924,-0.03039 -0.01882,-0.01063 -0.060398,-0.03249 -0.092394,-0.04858 -0.031995,-0.01609 -0.062198,-0.03489 -0.067117,-0.04177 -0.00492,-0.0069 -0.01381,-0.01251 -0.01976,-0.01251 -0.00595,0 -0.031992,-0.01396 -0.057872,-0.03101 -0.025881,-0.01706 -0.055297,-0.03415 -0.065371,-0.03798 -0.010074,-0.0038 -0.022529,-0.01298 -0.027678,-0.02034 -0.00515,-0.0074 -0.014258,-0.01337 -0.020244,-0.01337 -0.012201,0 -0.076964,-0.04128 -0.090651,-0.05778 -0.00488,-0.0059 -0.012026,-0.0107 -0.015879,-0.0107 -0.00922,0 -0.07541,-0.04407 -0.086779,-0.05778 -0.00488,-0.0059 -0.012895,-0.01069 -0.01781,-0.01069 -0.00492,0 -0.013008,-0.0038 -0.017981,-0.0086 -0.030555,-0.02892 -0.1228516,-0.0939 -0.1335584,-0.09404 -0.00449,-6.9e-5 -0.012192,-0.0055 -0.01711,-0.01216 -0.00492,-0.0066 -0.015404,-0.01665 -0.0233,-0.02225 -0.034718,-0.02466 -0.1034432,-0.076 -0.1191001,-0.08899 -0.00941,-0.0078 -0.037129,-0.02958 -0.061596,-0.04837 -0.056149,-0.04314 -0.08693,-0.06769 -0.1066936,-0.08509 -0.031308,-0.02757 -0.062052,-0.05298 -0.1088918,-0.09 -0.026349,-0.02083 -0.080102,-0.06764 -0.1194503,-0.104027 -0.095219,-0.08806 -0.4080175,-0.401715 -0.4725541,-0.473846 -0.028231,-0.03155 -0.059799,-0.06642 -0.070151,-0.07749 -0.010352,-0.01106 -0.018825,-0.02197 -0.018829,-0.02424 -6.9e-6,-0.0042 -0.00804,-0.01399 -0.063617,-0.07741 -0.030058,-0.0343 -0.090212,-0.108455 -0.1232329,-0.151908 -0.00827,-0.01088 -0.02178,-0.02783 -0.030019,-0.03766 -0.041105,-0.04903 -0.056238,-0.06895 -0.079471,-0.104592 -0.013908,-0.02134 -0.027604,-0.03982 -0.030436,-0.04108 -0.00557,-0.0025 -0.00864,-0.0067 -0.059758,-0.08193 -0.018742,-0.02759 -0.039531,-0.05562 -0.046197,-0.06229 -0.00667,-0.0067 -0.01212,-0.01534 -0.01212,-0.01927 0,-0.0039 -0.013089,-0.02443 -0.029087,-0.04556 -0.015998,-0.02113 -0.036786,-0.05201 -0.046197,-0.06862 -0.00941,-0.01661 -0.027119,-0.04212 -0.039353,-0.05669 -0.012234,-0.01457 -0.022243,-0.03038 -0.022243,-0.03514 0,-0.0048 -0.0077,-0.02037 -0.01711,-0.03469 -0.00941,-0.01432 -0.02481,-0.03776 -0.03422,-0.05209 -0.00941,-0.01432 -0.01711,-0.02925 -0.01711,-0.03317 0,-0.0039 -0.00617,-0.01272 -0.013717,-0.01955 -0.00754,-0.0068 -0.016902,-0.02425 -0.020796,-0.03872 -0.00389,-0.01447 -0.010149,-0.0263 -0.013902,-0.0263 -0.00375,0 -0.013033,-0.01309 -0.020623,-0.0291 -0.00759,-0.016 -0.02264,-0.04451 -0.033445,-0.06333 -0.010806,-0.01883 -0.024423,-0.04443 -0.030261,-0.05689 -0.00584,-0.01246 -0.016857,-0.03059 -0.024485,-0.04029 -0.00763,-0.0097 -0.01387,-0.02217 -0.01387,-0.02771 0,-0.0055 -0.0077,-0.01923 -0.01711,-0.03041 -0.00941,-0.01119 -0.01711,-0.02725 -0.01711,-0.0357 0,-0.0084 -0.0077,-0.02206 -0.01711,-0.03024 -0.010705,-0.0093 -0.01711,-0.02213 -0.01711,-0.03423 0,-0.01211 -0.0064,-0.02492 -0.01711,-0.03424 -0.010088,-0.0088 -0.01711,-0.02222 -0.01711,-0.03277 0,-0.0098 -0.0077,-0.02704 -0.01711,-0.03823 -0.00941,-0.01119 -0.01711,-0.02721 -0.01711,-0.0356 0,-0.0084 -0.0077,-0.0257 -0.01711,-0.03846 -0.00941,-0.01276 -0.01711,-0.02989 -0.01711,-0.03807 0,-0.0082 -0.00619,-0.02273 -0.013748,-0.03235 -0.00756,-0.0096 -0.015674,-0.02775 -0.018029,-0.04029 -0.00235,-0.01254 -0.01001,-0.02915 -0.017012,-0.0369 -0.007,-0.0077 -0.015451,-0.02866 -0.018776,-0.04646 -0.00332,-0.0178 -0.011005,-0.03785 -0.017067,-0.04455 -0.00606,-0.0067 -0.013043,-0.02277 -0.015512,-0.0357 -0.00247,-0.01293 -0.011745,-0.03611 -0.020613,-0.05151 -0.00887,-0.01539 -0.016123,-0.03597 -0.016123,-0.04573 0,-0.0098 -0.00413,-0.02187 -0.00918,-0.02693 -0.015384,-0.01539 -0.025035,-0.03781 -0.025035,-0.05815 0,-0.01063 -0.0077,-0.0338 -0.01711,-0.05149 -0.00941,-0.01769 -0.017126,-0.04077 -0.017145,-0.0513 -2.06e-5,-0.01053 -0.00762,-0.03147 -0.016896,-0.04653 -0.00927,-0.01506 -0.016957,-0.03627 -0.017075,-0.04712 -1.178e-4,-0.01085 -0.00701,-0.03074 -0.015322,-0.04419 -0.00831,-0.01345 -0.017235,-0.042495 -0.019833,-0.064542 -0.0026,-0.022047 -0.00975,-0.045646 -0.015901,-0.052441 -0.00615,-0.00679 -0.013016,-0.028952 -0.015265,-0.049239 -0.00225,-0.020288 -0.010233,-0.047107 -0.017742,-0.0596 -0.00776,-0.012914 -0.015916,-0.043337 -0.018898,-0.070519 -0.00341,-0.031069 -0.00968,-0.05271 -0.017919,-0.061815 -0.00911,-0.010071 -0.013787,-0.029176 -0.016635,-0.067944 -0.00282,-0.038467 -0.00755,-0.0579 -0.016468,-0.067761 -0.00875,-0.00968 -0.013955,-0.030301 -0.017331,-0.068714 -0.00328,-0.03727 -0.00866,-0.059125 -0.016765,-0.068089 -0.00879,-0.00972 -0.013483,-0.032473 -0.017793,-0.086342 -0.00426,-0.053276 -0.00904,-0.076664 -0.017583,-0.08611 -0.00893,-0.00987 -0.012782,-0.031348 -0.016129,-0.089911 -0.00315,-0.055164 -0.008,-0.083728 -0.017123,-0.1009084 -0.00954,-0.017962 -0.013909,-0.046256 -0.01745,-0.1129753 -0.00354,-0.066663 -0.00818,-0.096747 -0.018493,-0.1198223 -0.011698,-0.02618 -0.014359,-0.050885 -0.017699,-0.1643277 -0.00312,-0.106036 -0.00647,-0.1398581 -0.016287,-0.1643277 -0.011475,-0.028609 -0.012359,-0.062877 -0.012359,-0.4792895 0,-0.4211476 7.736e-4,-0.4503555 0.012695,-0.4792894 0.010243,-0.02486 0.013617,-0.057925 0.017469,-0.1711748 0.00404,-0.118667 0.00669,-0.1432694 0.017161,-0.1591651 0.00962,-0.014601 0.013539,-0.039842 0.017541,-0.1129752 0.00419,-0.076524 0.00789,-0.099257 0.019763,-0.1212977 0.01215,-0.022556 0.014609,-0.038713 0.014609,-0.095959 0,-0.056872 0.0025,-0.073503 0.014389,-0.095694 0.00907,-0.016925 0.016258,-0.047279 0.019442,-0.082063 0.0028,-0.030582 0.010604,-0.065892 0.017499,-0.079168 0.00689,-0.013271 0.014699,-0.04858 0.017495,-0.079127 0.00337,-0.036865 0.00982,-0.062984 0.019416,-0.07874 0.010077,-0.016538 0.014375,-0.035059 0.014393,-0.062025 2.05e-5,-0.02899 0.00366,-0.043067 0.014794,-0.05723 0.010868,-0.013821 0.016005,-0.032858 0.019452,-0.072075 0.00345,-0.039217 0.00858,-0.058252 0.019452,-0.072074 0.010341,-0.013152 0.014768,-0.028371 0.014768,-0.050764 0,-0.023361 0.00461,-0.038235 0.01711,-0.055183 0.011473,-0.015559 0.01718,-0.032351 0.017324,-0.050971 1.327e-4,-0.017229 0.00661,-0.038164 0.017075,-0.055157 0.00942,-0.015296 0.016892,-0.037968 0.016931,-0.051352 4.1e-5,-0.013384 0.00751,-0.036055 0.016932,-0.051353 0.0094,-0.015265 0.016956,-0.038163 0.017075,-0.051734 1.314e-4,-0.014953 0.00682,-0.033298 0.017324,-0.047547 0.00941,-0.012762 0.01711,-0.032049 0.01711,-0.042862 0,-0.02064 0.00958,-0.043017 0.025035,-0.058478 0.00505,-0.00505 0.00928,-0.018983 0.0094,-0.030953 1.177e-4,-0.011971 0.0078,-0.034088 0.017075,-0.049152 0.00927,-0.015063 0.016877,-0.033605 0.016896,-0.041204 2.05e-5,-0.0076 0.00773,-0.025151 0.017145,-0.039007 0.00941,-0.013855 0.01711,-0.032641 0.01711,-0.041748 0,-0.00911 0.00653,-0.02486 0.014508,-0.035009 0.00798,-0.010148 0.01733,-0.031017 0.020779,-0.046374 0.00345,-0.015357 0.01232,-0.035616 0.019712,-0.045018 0.00739,-0.0094 0.013441,-0.024147 0.013441,-0.032764 0,-0.00862 0.00712,-0.024379 0.015812,-0.035023 0.0087,-0.010646 0.01949,-0.032084 0.023985,-0.047642 0.0045,-0.015559 0.012779,-0.032111 0.018408,-0.036785 0.00563,-0.00467 0.010235,-0.015586 0.010235,-0.024252 0,-0.00867 0.0077,-0.024908 0.01711,-0.036097 0.00941,-0.011188 0.01711,-0.026595 0.01711,-0.034235 0,-0.00764 0.0077,-0.023046 0.01711,-0.034235 0.00941,-0.011188 0.01711,-0.026595 0.01711,-0.034235 0,-0.00764 0.0077,-0.023046 0.01711,-0.034235 0.00941,-0.011188 0.01711,-0.025054 0.01711,-0.030811 0,-0.00576 0.0077,-0.019622 0.01711,-0.030812 0.00941,-0.011188 0.01711,-0.023035 0.01711,-0.026324 0,-0.00329 0.0077,-0.017318 0.01711,-0.031172 0.00941,-0.013855 0.01711,-0.029395 0.01711,-0.034533 0,-0.00514 0.00611,-0.015907 0.013584,-0.023931 0.00747,-0.00802 0.018585,-0.02709 0.024697,-0.042373 0.00611,-0.015282 0.013391,-0.027785 0.016175,-0.027785 0.00278,0 0.010047,-0.011553 0.016138,-0.025676 0.00609,-0.014123 0.023497,-0.045243 0.03868,-0.069157 0.015183,-0.023915 0.027605,-0.045317 0.027605,-0.047561 0,-0.00373 0.00562,-0.012768 0.045101,-0.072535 0.00719,-0.010884 0.016145,-0.02475 0.0199,-0.030811 0.00375,-0.00606 0.013321,-0.020266 0.021258,-0.031563 0.00794,-0.011299 0.016622,-0.027474 0.019299,-0.035947 0.00268,-0.00847 0.00744,-0.015406 0.010575,-0.015406 0.00314,0 0.012097,-0.010834 0.019907,-0.024078 0.00781,-0.013243 0.017536,-0.027878 0.021614,-0.032523 0.00668,-0.00761 0.015785,-0.021162 0.042434,-0.063167 0.00476,-0.0075 0.015583,-0.022374 0.024053,-0.033048 0.00847,-0.010674 0.015399,-0.022617 0.015399,-0.026539 0,-0.00392 0.00943,-0.018322 0.020959,-0.031998 0.039725,-0.047131 0.057021,-0.069848 0.1022321,-0.1342692 0.00941,-0.013409 0.024809,-0.033328 0.03422,-0.044264 0.00941,-0.010936 0.023807,-0.028592 0.031992,-0.039236 0.047735,-0.062074 0.096865,-0.1212469 0.1371609,-0.1652009 0.025206,-0.027495 0.057753,-0.066009 0.072325,-0.085587 0.067068,-0.09011 0.4944294,-0.5221517 0.6060933,-0.612732 0.026073,-0.02115 0.1422853,-0.1212259 0.1599194,-0.1377142 0.00643,-0.00601 0.024279,-0.020175 0.039665,-0.031473 0.036548,-0.026838 0.1092037,-0.084317 0.1265874,-0.1001463 0.030252,-0.027547 0.06368,-0.053911 0.068355,-0.053911 0.00461,0 0.023446,-0.013756 0.065102,-0.047543 0.045998,-0.037309 0.070929,-0.055162 0.077032,-0.055162 0.00602,0 0.038713,-0.025005 0.066973,-0.051221 0.0058,-0.00538 0.016582,-0.012234 0.023953,-0.015228 0.00737,-0.00299 0.036505,-0.020535 0.064736,-0.03898 0.028231,-0.018445 0.063649,-0.041467 0.078706,-0.051161 0.015058,-0.00969 0.036082,-0.024644 0.046722,-0.033222 0.010641,-0.00858 0.025095,-0.015597 0.032121,-0.015597 0.00703,0 0.016989,-0.00602 0.022136,-0.013372 0.00515,-0.00735 0.017605,-0.016507 0.027678,-0.020339 0.010074,-0.00383 0.039491,-0.020923 0.065371,-0.03798 0.025881,-0.017057 0.051923,-0.031014 0.057872,-0.031014 0.00595,0 0.014842,-0.00563 0.01976,-0.012512 0.00492,-0.00688 0.035121,-0.02563 0.067117,-0.041662 0.031996,-0.016032 0.085892,-0.044217 0.1197698,-0.062633 0.033878,-0.018416 0.075455,-0.040164 0.092394,-0.04833 0.016939,-0.00817 0.038143,-0.020567 0.04712,-0.027559 0.00898,-0.00699 0.023129,-0.012713 0.031448,-0.012713 0.00832,0 0.020543,-0.00599 0.027162,-0.013306 0.00662,-0.00732 0.021727,-0.015354 0.03357,-0.017857 0.011844,-0.0025 0.027693,-0.010105 0.035221,-0.016893 0.00753,-0.00679 0.027438,-0.015996 0.044245,-0.020462 0.016806,-0.00447 0.03801,-0.013984 0.04712,-0.021153 0.00911,-0.00717 0.021879,-0.013034 0.028373,-0.013034 0.00649,0 0.023157,-0.0077 0.037023,-0.017117 0.013869,-0.00941 0.033101,-0.017117 0.042742,-0.017117 0.00964,0 0.02668,-0.0077 0.037863,-0.017117 0.011183,-0.00941 0.028922,-0.017117 0.039418,-0.017117 0.010497,0 0.026774,-0.00605 0.036172,-0.013447 0.0094,-0.0074 0.029647,-0.01627 0.044998,-0.019721 0.015351,-0.00345 0.03621,-0.012805 0.046354,-0.020788 0.010146,-0.00798 0.02839,-0.014514 0.040551,-0.014514 0.012159,0 0.030162,-0.00634 0.040007,-0.014085 0.00984,-0.00775 0.033895,-0.016615 0.053446,-0.019707 0.020615,-0.00326 0.039202,-0.010622 0.044248,-0.017525 0.00524,-0.00717 0.021572,-0.013355 0.041079,-0.015555 0.017807,-0.00201 0.043044,-0.010892 0.05608,-0.019742 0.014217,-0.00965 0.033741,-0.016091 0.048792,-0.016091 0.016018,0 0.033478,-0.00619 0.048282,-0.017117 0.015282,-0.01128 0.032181,-0.017117 0.049551,-0.017117 0.014983,0 0.040231,-0.00739 0.058501,-0.017117 0.018427,-0.00981 0.0435,-0.017117 0.058764,-0.017117 0.014978,0 0.03665,-0.0062 0.04955,-0.014176 0.012663,-0.00783 0.0406,-0.01592 0.062404,-0.018072 0.022833,-0.00225 0.051272,-0.010711 0.067454,-0.020059 0.01911,-0.011041 0.038715,-0.016163 0.06186,-0.016163 0.021342,0 0.043916,-0.00535 0.060994,-0.014448 0.017414,-0.00928 0.047284,-0.016227 0.083513,-0.019424 0.038651,-0.00341 0.060566,-0.00875 0.069633,-0.016956 0.00941,-0.00852 0.031769,-0.013569 0.077383,-0.017479 0.043783,-0.00375 0.072707,-0.010086 0.091099,-0.019948 0.021381,-0.011465 0.039006,-0.01445 0.085324,-0.01445 0.045844,0 0.064017,-0.00302 0.084649,-0.014087 0.020155,-0.010807 0.046488,-0.015428 0.1130964,-0.019848 0.054215,-0.0036 0.097004,-0.010091 0.1139283,-0.017289 0.020634,-0.00878 0.064679,-0.013233 0.1845153,-0.018669 0.086576,-0.00393 0.1805103,-0.0082 0.2087416,-0.0095 0.028231,-0.0013 0.099067,-0.00574 0.1574117,-0.00987 0.058348,-0.00413 0.1408441,-0.00748 0.1833276,-0.00744 0.069401,6.79e-5 0.081213,0.00194 0.1163477,0.018422 0.040425,0.01897 0.094185,0.060577 0.1417647,0.1097185 0.015058,0.015551 0.050701,0.048023 0.07921,0.072161 0.076559,0.06482 0.1520216,0.1328817 0.2115603,0.1908083 0.066814,0.065006 0.2522917,0.2408803 0.324697,0.3078857 0.093114,0.08617 0.2579783,0.2544432 0.4396184,0.4487068 0.1496018,0.1599992 0.1597213,0.1711095 0.1597213,0.1753598 0,0.00592 0.036115,0.051649 0.070325,0.089046 0.054932,0.060052 0.08655,0.098625 0.1115945,0.1361436 0.013824,0.020712 0.03098,0.043821 0.038122,0.051352 0.025718,0.027122 0.047411,0.066874 0.054473,0.09982 0.00396,0.018465 0.010027,0.035323 0.013487,0.037462 0.00931,0.00576 0.00765,0.026303 -0.00393,0.048516 -0.00562,0.010787 -0.010242,0.026915 -0.010267,0.035841 -8.91e-5,0.034352 -0.073623,0.125303 -0.1359291,0.1681262 -0.038165,0.026231 -0.082904,0.032212 -0.2028904,0.027126 -0.074895,-0.00317 -0.1015217,-0.00693 -0.1219483,-0.017183 -0.014372,-0.00722 -0.049631,-0.016391 -0.078351,-0.020388 -0.02872,-0.004 -0.063158,-0.012753 -0.076527,-0.01946 -0.013407,-0.00672 -0.047329,-0.013876 -0.075638,-0.015945 -0.028232,-0.00206 -0.067613,-0.010193 -0.087514,-0.018065 -0.019901,-0.00787 -0.050908,-0.014313 -0.068903,-0.014313 -0.017995,0 -0.055609,-0.00623 -0.083585,-0.013853 -0.032536,-0.00882 -0.091446,-0.016278 -0.1633892,-0.020651 -0.061881,-0.00376 -0.1311766,-0.011039 -0.1539896,-0.016172 -0.063106,-0.014199 -0.6958202,-0.014423 -0.7532514,-2.663e-4 -0.022584,0.00557 -0.078021,0.011986 -0.1231915,0.014265 -0.04517,0.00228 -0.1067663,0.010042 -0.1368798,0.017252 -0.030113,0.00721 -0.090258,0.015952 -0.1336538,0.019427 -0.043397,0.00348 -0.090382,0.011117 -0.1044126,0.016982 -0.014032,0.00586 -0.04474,0.012429 -0.068243,0.014587 -0.023502,0.00216 -0.061212,0.00967 -0.083797,0.016688 -0.022584,0.00702 -0.064257,0.015865 -0.092605,0.019653 -0.028348,0.00379 -0.062225,0.011265 -0.075284,0.016613 -0.013058,0.00535 -0.045302,0.013398 -0.071651,0.01789 -0.026348,0.00449 -0.052527,0.012218 -0.058174,0.017171 -0.00565,0.00495 -0.026351,0.012382 -0.046014,0.016511 -0.01966,0.00413 -0.047334,0.013719 -0.061494,0.021312 -0.014162,0.00759 -0.035032,0.013817 -0.04638,0.013831 -0.011349,1.37e-5 -0.030109,0.00581 -0.041691,0.012872 -0.011581,0.00707 -0.036908,0.016247 -0.056279,0.020404 -0.019373,0.00416 -0.046808,0.013769 -0.060969,0.021363 -0.014162,0.00759 -0.031952,0.013797 -0.039536,0.013787 -0.00758,-1.37e-5 -0.026108,0.00597 -0.041165,0.013297 -0.068388,0.033264 -0.1197596,0.055192 -0.1293005,0.055192 -0.00572,0 -0.021738,0.0077 -0.035606,0.017117 -0.013868,0.00941 -0.02946,0.017117 -0.03465,0.017117 -0.00519,0 -0.024008,0.00736 -0.04182,0.01635 -0.01781,0.00899 -0.050861,0.024765 -0.073447,0.035049 -0.05337,0.024303 -0.1186947,0.057644 -0.1403018,0.071608 -0.03162,0.020435 -0.044366,0.027655 -0.06844,0.03877 -0.013174,0.00608 -0.028573,0.013843 -0.03422,0.017246 -0.00565,0.0034 -0.023229,0.01236 -0.039069,0.019905 -0.015843,0.00755 -0.03068,0.016756 -0.032973,0.020468 -0.0023,0.00371 -0.015509,0.013073 -0.02937,0.020801 -0.01386,0.00773 -0.03752,0.021434 -0.052577,0.030458 -0.015058,0.00902 -0.03899,0.02278 -0.053185,0.030569 -0.030952,0.016985 -0.150657,0.097712 -0.1795104,0.1210589 -0.011293,0.00914 -0.05113,0.0366 -0.088528,0.061027 C 5.2012255,4.278261 5.1376563,4.326287 5.072598,4.3819283 5.028351,4.4197703 4.973573,4.4677213 4.9535526,4.486136 4.9327856,4.50524 4.8747706,4.555495 4.8330586,4.5905174 c -0.04529,0.038026 -0.31684,0.3209605 -0.3695749,0.3850684 -0.015058,0.018305 -0.032037,0.038183 -0.037734,0.044175 -0.0057,0.00599 -0.017915,0.021638 -0.027151,0.034768 -0.00924,0.01313 -0.019973,0.027626 -0.023862,0.032216 -0.00389,0.00459 -0.014767,0.018153 -0.02418,0.030138 -0.00941,0.011988 -0.024039,0.028045 -0.032509,0.035684 -0.00847,0.00764 -0.015398,0.017401 -0.015398,0.021691 0,0.00429 -0.00693,0.014081 -0.015398,0.021754 -0.00847,0.00768 -0.02002,0.019796 -0.025665,0.026935 -0.046572,0.058881 -0.063588,0.08254 -0.1136888,0.1580714 -0.031377,0.047303 -0.058878,0.09177 -0.061113,0.098815 -0.00223,0.00704 -0.00673,0.012809 -0.00999,0.012809 -0.00326,0 -0.00811,0.00693 -0.010774,0.015406 -0.00267,0.00847 -0.018017,0.03428 -0.034108,0.057347 -0.01609,0.023068 -0.035788,0.05388 -0.043772,0.06847 -0.00798,0.01459 -0.021993,0.038853 -0.03113,0.053916 -0.014901,0.024564 -0.027053,0.048486 -0.040003,0.07874 -0.00242,0.00565 -0.013528,0.025676 -0.024689,0.044505 -0.011161,0.018831 -0.023768,0.041938 -0.028015,0.051353 -0.00425,0.00942 -0.011976,0.024819 -0.017175,0.034235 -0.010762,0.019489 -0.013838,0.025859 -0.05786,0.1198224 -0.017643,0.037658 -0.035847,0.079981 -0.040453,0.09405 -0.00461,0.01407 -0.011146,0.027295 -0.014533,0.029389 -0.00339,0.0021 -0.00961,0.016773 -0.013825,0.032619 -0.00422,0.015846 -0.011769,0.033432 -0.016782,0.039081 -0.00501,0.00565 -0.01284,0.025676 -0.017393,0.044505 -0.00455,0.018831 -0.014023,0.043842 -0.021046,0.055584 -0.00702,0.011741 -0.012768,0.025632 -0.012768,0.030866 0,0.00523 -0.00732,0.023359 -0.016269,0.040274 -0.00895,0.016917 -0.01849,0.041541 -0.021204,0.054721 -0.00271,0.01318 -0.00927,0.03081 -0.014559,0.039176 -0.00529,0.00837 -0.013042,0.031153 -0.017219,0.050638 -0.00418,0.019483 -0.013335,0.048073 -0.020351,0.063529 -0.00702,0.015456 -0.012892,0.037346 -0.013057,0.048643 -1.656e-4,0.011296 -0.00664,0.034406 -0.014391,0.051353 -0.00775,0.016947 -0.017101,0.049225 -0.02078,0.071731 -0.00368,0.022507 -0.012671,0.0506 -0.01998,0.062431 -0.00731,0.01183 -0.013289,0.031574 -0.013289,0.043874 0,0.024938 -0.010551,0.067587 -0.024814,0.1003025 -0.00517,0.011866 -0.00941,0.038949 -0.00941,0.060184 0,0.025593 -0.0048,0.04802 -0.014237,0.066527 -0.010068,0.019743 -0.01589,0.049235 -0.019881,0.1007201 -0.00356,0.045974 -0.010056,0.081412 -0.017617,0.096167 -0.00941,0.018369 -0.013187,0.051305 -0.017653,0.1540572 -0.00312,0.071881 -0.00955,0.1615039 -0.01429,0.1991621 -0.00578,0.045959 -0.0086,0.1697711 -0.00859,0.3765848 2.06e-5,0.2580629 0.00196,0.3208346 0.011924,0.3864193 0.00655,0.043068 0.011904,0.1031705 0.011904,0.1335615 0,0.030391 0.0032,0.06602 0.00712,0.079176 0.00734,0.024642 0.016352,0.085723 0.026776,0.1814001 0.00328,0.030127 0.01233,0.068641 0.020105,0.085587 0.00962,0.020972 0.014185,0.045109 0.014287,0.075581 1.061e-4,0.031667 0.00428,0.052707 0.01427,0.071894 0.00777,0.014917 0.015718,0.04407 0.017671,0.064782 0.00195,0.020711 0.00932,0.053064 0.016374,0.071893 0.00705,0.018831 0.016031,0.052469 0.019952,0.074756 0.00392,0.022285 0.011852,0.045743 0.017625,0.052125 0.00577,0.00638 0.012451,0.028203 0.01484,0.04849 0.00239,0.020286 0.011533,0.050439 0.020321,0.067005 0.00879,0.016565 0.015978,0.037715 0.015978,0.046997 0,0.00928 0.00602,0.028081 0.013373,0.041774 0.00735,0.013694 0.017776,0.041843 0.023157,0.062555 0.012006,0.046208 0.021387,0.072511 0.046594,0.1306392 0.010745,0.024777 0.019536,0.049782 0.019536,0.055564 0,0.00578 0.00591,0.018026 0.013125,0.027206 0.00722,0.00918 0.015266,0.02811 0.017883,0.042065 0.00262,0.013954 0.010273,0.032386 0.017013,0.040959 0.00674,0.00857 0.015929,0.029235 0.020419,0.045916 0.00449,0.016682 0.014026,0.037786 0.021192,0.0469 0.00717,0.00911 0.013028,0.021901 0.013028,0.028417 0,0.00652 0.00586,0.019304 0.013028,0.028417 0.00717,0.0091 0.016489,0.02943 0.020718,0.04514 0.00423,0.01571 0.010602,0.03037 0.014163,0.03257 0.00356,0.0022 0.019211,0.03009 0.03478,0.06197 0.015569,0.03188 0.031306,0.05982 0.034972,0.06209 0.00367,0.0023 0.0127,0.01687 0.020077,0.03247 0.00738,0.01559 0.020973,0.04067 0.030212,0.05573 0.00924,0.01506 0.023178,0.03971 0.030976,0.05478 0.0078,0.01506 0.024642,0.04433 0.037432,0.06505 0.01279,0.02071 0.028548,0.04767 0.035018,0.05991 0.00647,0.01224 0.014297,0.02225 0.017395,0.02225 0.0031,0 0.010466,0.01209 0.016374,0.02686 0.00591,0.01477 0.015169,0.02856 0.020579,0.03064 0.00541,0.0021 0.012949,0.01079 0.016753,0.01936 0.0038,0.0086 0.014574,0.02636 0.023931,0.03955 0.00936,0.01318 0.021375,0.03013 0.0267,0.03766 0.086576,0.122408 0.1787685,0.244611 0.2032065,0.269352 0.0099,0.01002 0.034193,0.03825 0.053986,0.06273 0.019793,0.02448 0.044031,0.05256 0.053863,0.0624 0.00983,0.0098 0.034717,0.03911 0.055301,0.06505 0.056847,0.07162 0.2711811,0.283083 0.3834795,0.37835 0.024468,0.02076 0.04637,0.04049 0.048673,0.04386 0.0023,0.0034 0.00576,0.0051 0.00768,0.0038 0.00191,-0.0013 0.016975,0.0091 0.033455,0.02294 0.01648,0.01388 0.060763,0.05024 0.098404,0.0808 0.037642,0.03056 0.073142,0.05941 0.078888,0.06411 0.00575,0.0047 0.028845,0.02226 0.05133,0.03902 0.022485,0.01676 0.044951,0.03433 0.049925,0.03904 0.00497,0.0047 0.012483,0.0086 0.016684,0.0086 0.0042,0 0.024772,0.01342 0.045708,0.02983 0.020938,0.01641 0.048847,0.03528 0.062022,0.04194 0.013174,0.0067 0.036273,0.02205 0.05133,0.03421 0.015058,0.01216 0.038155,0.0276 0.05133,0.03432 0.013174,0.0067 0.038985,0.02412 0.057357,0.03867 0.018371,0.01455 0.036375,0.02645 0.040007,0.02645 0.00363,0 0.016319,0.0069 0.028193,0.01539 0.023873,0.01702 0.053628,0.03431 0.079762,0.04635 0.020974,0.0097 0.046795,0.02242 0.065018,0.03213 0.00753,0.004 0.039866,0.02042 0.071862,0.03646 0.031995,0.01604 0.08166,0.04104 0.1103658,0.05555 0.028705,0.01451 0.055277,0.02638 0.059047,0.02638 0.00377,0 0.010464,0.0044 0.014875,0.0097 0.00441,0.0053 0.024036,0.01347 0.043613,0.01811 0.019575,0.0046 0.042937,0.01416 0.051914,0.02114 0.00898,0.007 0.021295,0.01271 0.027375,0.01273 0.00608,0 0.023372,0.0076 0.03843,0.0169 0.015058,0.0093 0.035247,0.01696 0.044867,0.01708 0.00962,1.17e-4 0.027411,0.0075 0.039537,0.01648 0.012126,0.009 0.034697,0.0183 0.050159,0.02077 0.015462,0.0025 0.035372,0.01021 0.044243,0.01719 0.00887,0.007 0.027705,0.01484 0.041853,0.01746 0.014148,0.0026 0.034964,0.01031 0.046257,0.01708 0.011293,0.0068 0.03589,0.01451 0.054662,0.0172 0.018773,0.0027 0.042716,0.0093 0.053211,0.01477 0.010494,0.0054 0.036714,0.0131 0.058264,0.01706 0.02155,0.0039 0.044665,0.01209 0.051367,0.0181 0.0067,0.006 0.032375,0.01335 0.057052,0.01633 0.024678,0.003 0.054976,0.01165 0.067329,0.01929 0.012353,0.0076 0.031957,0.01389 0.043563,0.01389 0.021514,0 0.091413,0.01624 0.1043709,0.02426 0.00393,0.0024 0.039446,0.0072 0.078915,0.01066 0.046762,0.0041 0.077882,0.01024 0.089331,0.01775 0.011999,0.0079 0.040659,0.01311 0.090391,0.01654 0.040052,0.0028 0.08668,0.01005 0.1036193,0.0162 0.020894,0.0076 0.072614,0.01333 0.1608335,0.01789 0.07152,0.0037 0.1515944,0.01009 0.1779437,0.01421 0.079352,0.01239 0.6157728,0.01364 0.698086,0.0016 0.037642,-0.0055 0.1069371,-0.01261 0.1539897,-0.0158 0.047052,-0.0032 0.090169,-0.0077 0.095816,-0.01 0.00974,-0.004 0.067006,-0.01203 0.1753354,-0.02474 0.026797,-0.0031 0.058416,-0.01073 0.070265,-0.01686 0.011849,-0.0061 0.04844,-0.01376 0.081313,-0.01697 0.035115,-0.0034 0.072476,-0.01173 0.090569,-0.02015 0.016939,-0.0079 0.044657,-0.01454 0.061596,-0.01479 0.016939,-2.47e-4 0.043117,-0.0053 0.058174,-0.01118 0.015058,-0.0059 0.045855,-0.01446 0.06844,-0.01902 0.022584,-0.0046 0.050303,-0.01228 0.061596,-0.01716 0.011293,-0.0049 0.040551,-0.01436 0.065018,-0.02108 0.024468,-0.0067 0.056805,-0.017 0.071862,-0.02287 0.015058,-0.0059 0.037203,-0.01079 0.049215,-0.01096 0.01201,-1.64e-4 0.023691,-0.0033 0.025953,-0.007 0.00227,-0.0037 0.023234,-0.01276 0.046601,-0.0202 0.046813,-0.01492 0.1275634,-0.04715 0.1383017,-0.0552 0.00376,-0.0028 0.027599,-0.01194 0.052966,-0.02027 0.025369,-0.0083 0.047878,-0.01798 0.050023,-0.02145 0.00216,-0.0035 0.00911,-0.0063 0.015473,-0.0063 0.00636,0 0.032955,-0.01079 0.059089,-0.02396 0.026133,-0.01317 0.051164,-0.02394 0.055625,-0.02394 0.00446,0 0.011744,-0.0044 0.016186,-0.0097 0.00444,-0.0054 0.020128,-0.01177 0.034856,-0.01426 0.014729,-0.0025 0.033801,-0.01001 0.042381,-0.01671 0.0086,-0.0067 0.02319,-0.01457 0.03246,-0.01748 0.0233,-0.0073 0.161188,-0.07846 0.198722,-0.102545 0.01694,-0.01087 0.05668,-0.03322 0.08832,-0.04967 0.03164,-0.01645 0.06516,-0.03593 0.0745,-0.04327 0.0093,-0.0073 0.02073,-0.01336 0.02532,-0.01336 0.0046,0 0.01641,-0.0069 0.02627,-0.01541 0.03696,-0.03176 0.05928,-0.0469 0.07954,-0.05397 0.01148,-0.004 0.02088,-0.0095 0.02088,-0.01216 0,-0.0027 0.02079,-0.01843 0.0462,-0.03499 0.04051,-0.02641 0.09213,-0.06563 0.144305,-0.109643 0.0088,-0.0074 0.0184,-0.01348 0.02137,-0.01348 0.0047,0 0.06638,-0.0468 0.106373,-0.08071 0.0075,-0.0064 0.0373,-0.03063 0.06615,-0.05388 0.02886,-0.02325 0.05879,-0.04793 0.06653,-0.05483 0.0077,-0.0069 0.02263,-0.01952 0.03308,-0.02804 0.01046,-0.0085 0.02972,-0.02469 0.04279,-0.03595 0.01307,-0.01126 0.0262,-0.02046 0.02918,-0.02046 0.003,0 0.0585,-0.05194 0.123378,-0.115427 0.143825,-0.140733 0.164048,-0.158453 0.180843,-0.158453 0.0072,0 0.0236,-0.0077 0.03636,-0.01712 0.0216,-0.01594 0.02863,-0.01711 0.102279,-0.01707 0.06768,6.9e-5 0.08205,0.002 0.09962,0.01376 0.01129,0.0075 0.03159,0.01675 0.0451,0.02046 0.027,0.0074 0.07535,0.05316 0.108524,0.10267 0.02003,0.02989 0.02065,0.03322 0.02077,0.11147 1.09e-4,0.07079 -0.002,0.08563 -0.01699,0.121328 -0.01361,0.03235 -0.01711,0.05229 -0.01711,0.09746 0,0.045 -0.003,0.06246 -0.01466,0.08408 -0.01055,0.01963 -0.01594,0.04553 -0.01923,0.09233 -0.0032,0.04533 -0.0083,0.07081 -0.01704,0.08405 -0.0087,0.01328 -0.01391,0.03904 -0.01725,0.08559 -0.0036,0.05043 -0.0084,0.0724 -0.01961,0.09055 -0.01079,0.01743 -0.01489,0.03516 -0.01507,0.06505 -1.71e-4,0.02943 -0.005,0.05079 -0.01707,0.07532 -0.01176,0.02392 -0.01685,0.04579 -0.0169,0.07259 -6.9e-5,0.02698 -0.0048,0.0473 -0.0161,0.06853 -0.0098,0.0185 -0.01751,0.04737 -0.01983,0.07462 -0.0021,0.02445 -0.0102,0.05831 -0.01803,0.07526 -0.0078,0.01695 -0.01431,0.04318 -0.01439,0.0583 -8.2e-5,0.01512 -0.0067,0.03971 -0.0147,0.05464 -0.008,0.01494 -0.01697,0.0467 -0.01993,0.07059 -0.003,0.0239 -0.01046,0.04905 -0.01666,0.05591 -0.0062,0.0069 -0.01408,0.03205 -0.0175,0.05598 -0.0034,0.02393 -0.01248,0.05571 -0.02012,0.07063 -0.0076,0.01492 -0.01393,0.03803 -0.01396,0.05135 -6.8e-5,0.01333 -0.0076,0.03963 -0.0169,0.05846 -0.0093,0.01883 -0.01703,0.04502 -0.01726,0.0582 -2.32e-4,0.01318 -0.008,0.03629 -0.01729,0.05135 -0.0093,0.01506 -0.01688,0.03521 -0.0169,0.04477 0,0.0096 -0.0064,0.02959 -0.01413,0.04451 -0.0078,0.01492 -0.0169,0.04373 -0.02033,0.06402 -0.0034,0.02029 -0.01091,0.04207 -0.01664,0.0484 -0.0057,0.0063 -0.01356,0.02824 -0.0174,0.04869 -0.0038,0.02045 -0.01261,0.04489 -0.01949,0.0543 -0.0069,0.0094 -0.01423,0.03011 -0.01635,0.04598 -0.0021,0.01587 -0.01031,0.03709 -0.01821,0.04714 -0.0079,0.01005 -0.01437,0.02805 -0.01437,0.03999 0,0.0124 -0.0073,0.03165 -0.01711,0.04491 -0.0094,0.01276 -0.01711,0.03057 -0.01711,0.03958 0,0.01957 -0.06925,0.09051 -0.08835,0.09051 -0.0069,0 -0.0198,0.0056 -0.02878,0.01244 -0.009,0.0068 -0.0271,0.0166 -0.04028,0.02167 -0.01317,0.0051 -0.02857,0.01281 -0.03422,0.01718 -0.0056,0.0044 -0.0349,0.01981 -0.06502,0.03429 -0.03011,0.01448 -0.0621,0.03196 -0.07107,0.03884 -0.009,0.0069 -0.02147,0.01251 -0.02776,0.01251 -0.0063,0 -0.02187,0.0077 -0.03463,0.01712 -0.01276,0.0094 -0.02834,0.01712 -0.03463,0.01712 -0.0063,0 -0.01902,0.006 -0.0283,0.01327 -0.0093,0.0073 -0.02586,0.01548 -0.03685,0.01818 -0.01099,0.0027 -0.03072,0.01214 -0.04382,0.02097 -0.01311,0.0088 -0.03022,0.01605 -0.03802,0.01605 -0.0078,0 -0.02463,0.0077 -0.03738,0.01712 -0.01275,0.0094 -0.03062,0.01712 -0.03969,0.01712 -0.0091,0 -0.02513,0.0073 -0.03568,0.01614 -0.01055,0.0089 -0.03138,0.01809 -0.0463,0.02048 -0.01492,0.0024 -0.03091,0.0089 -0.03554,0.01449 -0.0046,0.0056 -0.01966,0.01212 -0.0334,0.01452 -0.01374,0.0024 -0.03784,0.01173 -0.05357,0.02072 -0.01573,0.009 -0.03729,0.01645 -0.04791,0.01656 -0.01062,1.16e-4 -0.03163,0.0078 -0.04669,0.01708 -0.01506,0.0093 -0.03414,0.01689 -0.04241,0.0169 -0.0083,0 -0.02952,0.0077 -0.04722,0.01715 -0.0177,0.0094 -0.04228,0.01712 -0.05462,0.01712 -0.01234,0 -0.02705,0.0046 -0.03269,0.01024 -0.01424,0.01425 -0.04225,0.02399 -0.06897,0.02399 -0.01254,0 -0.03067,0.0064 -0.04076,0.01431 -0.01,0.0079 -0.034281,0.01658 -0.053964,0.01936 -0.019683,0.0028 -0.048061,0.01175 -0.063062,0.01993 -0.015,0.0082 -0.038099,0.01489 -0.05133,0.0149 -0.01323,0 -0.034775,0.0066 -0.047876,0.01455 -0.013102,0.008 -0.043567,0.01698 -0.067701,0.01997 -0.024133,0.003 -0.045751,0.0083 -0.04804,0.01181 -0.00888,0.01358 -0.035527,0.02211 -0.069044,0.02211 -0.024183,0 -0.044907,0.0053 -0.067124,0.01712 -0.024031,0.0128 -0.04253,0.01712 -0.073314,0.01712 -0.030784,0 -0.049283,0.0043 -0.073314,0.01712 -0.02626,0.01398 -0.041903,0.01715 -0.085495,0.01727 -0.039871,1.1e-4 -0.061137,0.0038 -0.084152,0.01466 -0.023046,0.01086 -0.051739,0.01585 -0.1139981,0.01982 -0.061091,0.0039 -0.088093,0.0085 -0.1016138,0.01737 -0.014585,0.0096 -0.040681,0.01309 -0.1255407,0.017 -0.073516,0.0034 -0.1178649,0.0087 -0.1413479,0.01693 -0.02639,0.0093 -0.071021,0.01334 -0.1950536,0.01787 -0.1651138,0.006 -0.1741452,0.0066 -0.2908691,0.01983 -0.082011,0.0093 -0.5479958,0.01379 -0.6399124,0.0062 z m 5.5583659,-2.907626 c -0.01484,-0.0059 -0.07827,-0.07261 -0.09687,-0.101859 -0.01693,-0.02662 -0.0171,-0.02839 -0.01629,-0.17069 6.92e-4,-0.118418 0.0029,-0.149224 0.01266,-0.174598 0.0085,-0.02225 0.01343,-0.06504 0.01757,-0.154058 0.0032,-0.06779 0.01036,-0.141843 0.01601,-0.164573 0.007,-0.02818 0.01266,-0.11203 0.0178,-0.263609 0.0041,-0.122255 0.01101,-0.259256 0.01527,-0.304446 0.01026,-0.108915 0.01022,-0.7815941 -6.9e-5,-0.8866858 -0.0042,-0.043307 -0.0094,-0.148066 -0.01155,-0.2327975 -0.0021,-0.084732 -0.0054,-0.1725443 -0.0072,-0.1951394 -0.0034,-0.041518 -0.0049,-0.051825 -0.01735,-0.1198223 -0.0038,-0.020711 -0.0098,-0.1008219 -0.01332,-0.1780217 -0.0039,-0.085147 -0.01063,-0.1565244 -0.01716,-0.1814454 -0.0059,-0.022595 -0.01321,-0.08884 -0.01621,-0.1472103 -0.004,-0.078249 -0.0085,-0.1120652 -0.01713,-0.1287274 -0.0083,-0.016051 -0.01278,-0.046803 -0.01546,-0.1061283 -0.0024,-0.05282 -0.0087,-0.099892 -0.0171,-0.1280348 -0.0073,-0.024479 -0.01572,-0.076857 -0.01865,-0.1163989 -0.0034,-0.045673 -0.0096,-0.080165 -0.01716,-0.094575 -0.0075,-0.014322 -0.0141,-0.050559 -0.01798,-0.09831 -0.004,-0.049155 -0.01002,-0.081538 -0.0172,-0.092513 -0.007,-0.010726 -0.01296,-0.041482 -0.01628,-0.08432 -0.0034,-0.044074 -0.0092,-0.073505 -0.0167,-0.084957 -0.0068,-0.010433 -0.01322,-0.039041 -0.01579,-0.070709 -0.0024,-0.029768 -0.0099,-0.06427 -0.01691,-0.078357 -0.0069,-0.013844 -0.01458,-0.043114 -0.01699,-0.065046 -0.0024,-0.021931 -0.0084,-0.04912 -0.01337,-0.060418 -0.01281,-0.029298 -0.02346,-0.072134 -0.0235,-0.094522 0,-0.010563 -0.0061,-0.032411 -0.0134,-0.048552 -0.0074,-0.016139 -0.0163,-0.047553 -0.01988,-0.069806 -0.0036,-0.022252 -0.01297,-0.059619 -0.02086,-0.083037 -0.0079,-0.023417 -0.01434,-0.050435 -0.01434,-0.06004 0,-0.0096 -0.0077,-0.039509 -0.01711,-0.066456 -0.0094,-0.026946 -0.01711,-0.055793 -0.01711,-0.064103 0,-0.00831 -0.0077,-0.035573 -0.01711,-0.060586 -0.0094,-0.025012 -0.01721,-0.05388 -0.01732,-0.06415 -1.16e-4,-0.01027 -0.0078,-0.034079 -0.01705,-0.052908 -0.0093,-0.018831 -0.01686,-0.043717 -0.0169,-0.055307 0,-0.011589 -0.0078,-0.040029 -0.01717,-0.063199 -0.0094,-0.02317 -0.01711,-0.053827 -0.01711,-0.068127 0,-0.0143 -0.0046,-0.032551 -0.01019,-0.040557 -0.0056,-0.00801 -0.01441,-0.032657 -0.01957,-0.054779 -0.0052,-0.022122 -0.01417,-0.049487 -0.02002,-0.060809 -0.0059,-0.011321 -0.01282,-0.032804 -0.01548,-0.047737 -0.0027,-0.014933 -0.01049,-0.036537 -0.01739,-0.048009 -0.0069,-0.01147 -0.01474,-0.03458 -0.01742,-0.051352 -0.0027,-0.016773 -0.01206,-0.044808 -0.02084,-0.062301 -0.0088,-0.017495 -0.016,-0.037521 -0.01603,-0.044505 -6.9e-5,-0.00698 -0.0077,-0.029182 -0.01711,-0.049326 -0.0094,-0.020144 -0.01705,-0.043253 -0.01707,-0.051352 0,-0.0081 -0.0061,-0.024761 -0.01361,-0.037023 -0.0075,-0.012264 -0.01556,-0.035372 -0.01796,-0.051352 -0.0024,-0.015982 -0.01002,-0.03984 -0.01692,-0.05302 -0.0069,-0.01318 -0.01577,-0.036701 -0.01971,-0.052267 -0.0039,-0.015567 -0.0116,-0.031994 -0.01704,-0.036507 -0.0054,-0.00451 -0.01193,-0.021854 -0.01443,-0.038536 -0.0025,-0.016681 -0.01005,-0.037337 -0.01679,-0.045898 -0.0067,-0.00856 -0.01559,-0.027783 -0.01968,-0.042713 -0.0041,-0.014931 -0.01361,-0.03639 -0.02115,-0.047688 -0.0075,-0.011299 -0.01373,-0.029309 -0.01375,-0.040025 0,-0.010715 -0.0066,-0.028674 -0.01458,-0.039907 -0.008,-0.011233 -0.01741,-0.033231 -0.02093,-0.048885 -0.0035,-0.015653 -0.01111,-0.033679 -0.01688,-0.040055 -0.0058,-0.00638 -0.0134,-0.024564 -0.01696,-0.040417 -0.0036,-0.015854 -0.01252,-0.036517 -0.01992,-0.045919 -0.0074,-0.0094 -0.01354,-0.022072 -0.01366,-0.028154 -1.16e-4,-0.00608 -0.0078,-0.023383 -0.01707,-0.038447 -0.0093,-0.015063 -0.01688,-0.032364 -0.0169,-0.038447 0,-0.00608 -0.0059,-0.018515 -0.01306,-0.027629 -0.0072,-0.00911 -0.01637,-0.028786 -0.02046,-0.043717 -0.0041,-0.014931 -0.01361,-0.03639 -0.02115,-0.047688 -0.0075,-0.011299 -0.01373,-0.024556 -0.01375,-0.029463 0,-0.00491 -0.0077,-0.020258 -0.01715,-0.034112 -0.0094,-0.013855 -0.01711,-0.030039 -0.01711,-0.035965 0,-0.00593 -0.0077,-0.021215 -0.01711,-0.033976 -0.0094,-0.012759 -0.01711,-0.031248 -0.01711,-0.041082 0,-0.00984 -0.0077,-0.028321 -0.01711,-0.041082 -0.0094,-0.012759 -0.01711,-0.02835 -0.01711,-0.034642 0,-0.00629 -0.0063,-0.019414 -0.01393,-0.02916 -0.0077,-0.00975 -0.01734,-0.027878 -0.0215,-0.040294 -0.0042,-0.012416 -0.01139,-0.027195 -0.01606,-0.032845 -0.0047,-0.00565 -0.0107,-0.017973 -0.0134,-0.027388 -0.0027,-0.00942 -0.01161,-0.027902 -0.01979,-0.041082 -0.02385,-0.038431 -0.03754,-0.063384 -0.04882,-0.089011 -0.0058,-0.01318 -0.01362,-0.028586 -0.01737,-0.034235 -0.0037,-0.00565 -0.01092,-0.019514 -0.01593,-0.030811 -0.01608,-0.036224 -0.01834,-0.040608 -0.0354,-0.06847 -0.0092,-0.015063 -0.02458,-0.042793 -0.03414,-0.061623 -0.0096,-0.018831 -0.0218,-0.041938 -0.0272,-0.051352 -0.0054,-0.00941 -0.01857,-0.035604 -0.02926,-0.0582 -0.01069,-0.022595 -0.03231,-0.061109 -0.04804,-0.085587 -0.01573,-0.024478 -0.02863,-0.047979 -0.02866,-0.052226 -6.9e-5,-0.00425 -0.0052,-0.011949 -0.01144,-0.017117 -0.0063,-0.00517 -0.01712,-0.022364 -0.02415,-0.038213 -0.007,-0.015849 -0.01567,-0.030612 -0.01923,-0.032807 -0.0035,-0.0022 -0.01263,-0.016958 -0.02018,-0.032807 -0.0075,-0.015849 -0.02285,-0.044222 -0.03402,-0.063051 -0.01116,-0.018829 -0.0267,-0.045789 -0.03452,-0.059911 -0.0078,-0.014122 -0.01662,-0.025676 -0.01956,-0.025676 -0.0029,0 -0.0091,-0.010343 -0.01364,-0.022983 -0.0046,-0.012641 -0.01443,-0.028524 -0.02191,-0.035296 -0.0075,-0.00677 -0.0136,-0.015242 -0.0136,-0.018822 0,-0.00358 -0.0077,-0.015663 -0.01711,-0.026852 -0.0094,-0.011189 -0.01711,-0.025791 -0.01711,-0.03245 0,-0.00666 -0.0059,-0.017429 -0.01306,-0.023934 -0.0072,-0.0065 -0.0168,-0.020847 -0.02136,-0.031873 -0.0046,-0.011025 -0.01052,-0.020046 -0.01324,-0.020046 -0.0027,0 -0.01207,-0.013865 -0.02078,-0.030811 -0.0087,-0.016946 -0.01844,-0.030811 -0.02161,-0.030811 -0.0032,0 -0.0058,-0.00401 -0.0058,-0.00891 0,-0.00767 -0.01138,-0.026201 -0.06394,-0.1040663 -0.04544,-0.067325 -0.06479,-0.097973 -0.07731,-0.1224744 -0.008,-0.015748 -0.0196,-0.032755 -0.02567,-0.037793 -0.0061,-0.00504 -0.01103,-0.011938 -0.01103,-0.015334 0,-0.00916 -0.08911,-0.1352431 -0.150765,-0.2133041 -0.0095,-0.012053 -0.0263,-0.035779 -0.03729,-0.052725 -0.01099,-0.016946 -0.02568,-0.036974 -0.03264,-0.044505 -0.007,-0.00753 -0.0256,-0.033322 -0.04142,-0.057313 -0.01582,-0.02399 -0.03717,-0.056342 -0.04744,-0.071893 -0.01028,-0.015551 -0.02203,-0.035978 -0.02612,-0.045392 -0.0041,-0.00941 -0.01322,-0.023297 -0.02029,-0.03085 -0.02731,-0.029173 -0.05325,-0.089218 -0.05809,-0.13447 -0.0055,-0.051073 0.0046,-0.1117501 0.0225,-0.1359097 0.02613,-0.03522 0.07081,-0.075355 0.08389,-0.075355 0.0077,0 0.02599,-0.00616 0.04075,-0.013694 0.0344,-0.01756 0.06873,-0.01756 0.08897,0 0.0087,0.00753 0.02432,0.013694 0.03475,0.013694 0.02045,0 0.14438,0.061393 0.276651,0.1370486 0.01882,0.010765 0.04962,0.027049 0.06844,0.036187 0.01882,0.00914 0.0507,0.027818 0.07084,0.041512 0.02014,0.013694 0.03897,0.024898 0.04185,0.024898 0.0029,0 0.01391,0.00683 0.02452,0.015176 0.01061,0.00835 0.0277,0.019901 0.03798,0.025676 0.01028,0.00578 0.03071,0.017208 0.0454,0.025406 0.01469,0.0082 0.03073,0.019752 0.03565,0.025676 0.0049,0.00592 0.01209,0.010771 0.01594,0.010771 0.0092,0 0.07541,0.04407 0.08678,0.057775 0.0049,0.00588 0.01234,0.0107 0.01659,0.010706 0.0042,6.2e-6 0.02466,0.012267 0.04536,0.027246 0.0207,0.014979 0.05612,0.039587 0.07871,0.054685 0.02258,0.015098 0.04876,0.033855 0.05817,0.041683 0.0094,0.00783 0.02943,0.023177 0.04449,0.034108 0.03198,0.02322 0.0585,0.044336 0.08566,0.068217 0.01071,0.00941 0.02661,0.022459 0.03534,0.028987 0.01506,0.011257 0.04894,0.036675 0.06378,0.047844 0.0038,0.00283 0.02224,0.01925 0.04106,0.036482 0.01882,0.017232 0.04192,0.035449 0.05133,0.040482 0.0094,0.00503 0.02845,0.021016 0.04232,0.035519 0.01387,0.014502 0.04004,0.037092 0.05817,0.050198 0.01813,0.013106 0.0393,0.030053 0.04704,0.037658 0.0077,0.00761 0.03958,0.036937 0.07076,0.065181 0.132787,0.1202829 0.467895,0.4622566 0.497176,0.507363 0.0183,0.028186 0.07294,0.09217 0.136606,0.1599682 0.01129,0.012025 0.02669,0.030596 0.03422,0.041268 0.0075,0.010672 0.02197,0.030458 0.03209,0.043969 0.01667,0.022254 0.02622,0.033906 0.07057,0.086138 0.0075,0.00887 0.02139,0.027325 0.0308,0.041019 0.01932,0.028109 0.05684,0.077096 0.07089,0.092548 0.0051,0.00565 0.01326,0.01778 0.01806,0.026957 0.0048,0.00918 0.01446,0.022852 0.02148,0.030391 0.007,0.00754 0.01276,0.017572 0.01276,0.022296 0,0.00472 0.0057,0.012618 0.01267,0.017539 0.01172,0.00828 0.01938,0.019766 0.05006,0.075142 0.0063,0.011315 0.01637,0.025701 0.02244,0.031966 0.01594,0.016449 0.05143,0.071731 0.05158,0.080338 6.8e-5,0.00403 0.0078,0.014021 0.01723,0.022208 0.0094,0.00819 0.01717,0.018756 0.01723,0.023489 1.37e-4,0.00929 0.03245,0.060282 0.05464,0.086214 0.0075,0.00879 0.01368,0.021411 0.01368,0.028039 0,0.00663 0.0062,0.01765 0.01374,0.02449 0.0076,0.00684 0.018,0.020413 0.0232,0.030161 0.0052,0.00975 0.01581,0.029644 0.02358,0.044216 0.0078,0.014571 0.01858,0.031518 0.02403,0.037659 0.0054,0.00614 0.01497,0.021948 0.02116,0.035129 0.0062,0.01318 0.02019,0.03937 0.03113,0.0582 0.01877,0.032343 0.02917,0.05161 0.06282,0.1163987 0.0078,0.015063 0.02,0.034736 0.02706,0.043717 0.0071,0.00898 0.01283,0.02166 0.01283,0.028177 0,0.00652 0.0058,0.019243 0.01292,0.028284 0.0071,0.00904 0.01609,0.027894 0.01995,0.041898 0.0039,0.014004 0.01345,0.033627 0.0213,0.043609 0.0078,0.00998 0.01427,0.02348 0.01427,0.029996 0,0.00652 0.0057,0.019196 0.01275,0.028176 0.007,0.00898 0.0151,0.024031 0.01798,0.033447 0.0029,0.00942 0.01217,0.029442 0.02065,0.044505 0.0085,0.015063 0.01729,0.037651 0.0196,0.050196 0.0023,0.012544 0.01038,0.030677 0.01794,0.040294 0.0076,0.00962 0.01375,0.024174 0.01375,0.032349 0,0.00818 0.0077,0.025306 0.01711,0.038065 0.0094,0.012762 0.01713,0.029536 0.01714,0.037277 0,0.00774 0.0076,0.026401 0.0169,0.041463 0.0093,0.015063 0.01696,0.033722 0.01707,0.041464 1.16e-4,0.00774 0.0079,0.024517 0.01732,0.037277 0.0099,0.013484 0.01711,0.032477 0.01711,0.045347 0,0.012179 0.0046,0.026755 0.01024,0.032389 0.01359,0.0136 0.02398,0.041948 0.02398,0.065449 0,0.010475 0.0062,0.026152 0.01369,0.034837 0.0075,0.00869 0.01369,0.016438 0.01369,0.017232 0,0.018723 0.01653,0.077268 0.02422,0.085764 0.0057,0.00633 0.01326,0.028984 0.01673,0.050338 0.0035,0.021353 0.01262,0.046844 0.02033,0.056645 0.0093,0.011838 0.01401,0.027956 0.01401,0.048021 0,0.019077 0.0063,0.042047 0.01711,0.062357 0.0098,0.018479 0.0172,0.043826 0.01732,0.059598 1.3e-4,0.016881 0.0067,0.037983 0.01707,0.05483 0.01175,0.01908 0.01687,0.03735 0.0169,0.060225 0,0.021834 0.0058,0.043612 0.01714,0.064992 0.01227,0.023065 0.01712,0.042817 0.01713,0.069868 0,0.026545 0.0044,0.04481 0.01473,0.061678 0.01008,0.01643 0.01635,0.041835 0.01995,0.080812 0.0033,0.035196 0.0099,0.063882 0.01738,0.075317 0.0083,0.012638 0.01356,0.03901 0.01669,0.083516 0.0033,0.046798 0.0087,0.072701 0.01923,0.092333 0.01165,0.021688 0.01469,0.039249 0.01481,0.085588 1.16e-4,0.044197 0.0036,0.065755 0.0143,0.089112 0.01118,0.024349 0.01539,0.053075 0.02007,0.1369398 0.0042,0.074708 0.01007,0.1189787 0.01992,0.149532 0.01177,0.036507 0.01402,0.06153 0.01413,0.1574809 1.37e-4,0.1131276 0.0028,0.1420877 0.02323,0.2544404 0.0083,0.045495 0.01062,0.1124397 0.01072,0.3066726 1.16e-4,0.2359323 -0.0058,0.3486968 -0.02125,0.4078561 -0.0038,0.014524 -0.0094,0.1038764 -0.01234,0.1985628 -0.0048,0.151728 -0.0071,0.1757094 -0.01935,0.2020985 -0.01139,0.024476 -0.01412,0.045294 -0.01495,0.1140626 -9.96e-4,0.082767 -0.0031,0.095825 -0.02369,0.150416 -0.0059,0.01557 -0.01054,0.051024 -0.0108,0.082164 -3.32e-4,0.040677 -0.0042,0.062706 -0.01487,0.085587 -0.0092,0.019677 -0.01625,0.053189 -0.01948,0.09274 -0.003,0.036896 -0.01,0.071466 -0.01725,0.085522 -0.0067,0.012975 -0.01464,0.047834 -0.01762,0.077464 -0.0035,0.035164 -0.0095,0.058395 -0.01721,0.066893 -0.0077,0.00848 -0.0133,0.030305 -0.01616,0.062592 -0.0028,0.031297 -0.0099,0.059631 -0.01941,0.076859 -0.0094,0.017008 -0.01503,0.039191 -0.01503,0.058892 0,0.020562 -0.006,0.042853 -0.01711,0.063798 -0.0094,0.017708 -0.01714,0.042044 -0.01717,0.054084 -6.8e-5,0.01204 -0.0076,0.037296 -0.0169,0.056125 -0.0093,0.018831 -0.01693,0.045044 -0.01705,0.058254 -1.16e-4,0.01321 -0.0079,0.038488 -0.01732,0.056174 -0.0094,0.01769 -0.01711,0.04112 -0.01711,0.05209 0,0.01096 -0.0062,0.02781 -0.01376,0.03744 -0.0076,0.0096 -0.01664,0.03269 -0.02016,0.05126 -0.0035,0.01856 -0.01242,0.04422 -0.01979,0.05702 -0.0074,0.0128 -0.01563,0.03406 -0.01837,0.04724 -0.0027,0.01318 -0.01073,0.03131 -0.01777,0.04029 -0.007,0.009 -0.0128,0.02316 -0.0128,0.0315 0,0.0083 -0.0077,0.02966 -0.01711,0.04737 -0.0094,0.01771 -0.01711,0.04084 -0.01711,0.05142 0,0.01057 -0.0077,0.03057 -0.01711,0.04445 -0.0094,0.01387 -0.01711,0.03157 -0.01711,0.03932 0,0.0077 -0.0073,0.02841 -0.01613,0.04591 -0.02994,0.05907 -0.05171,0.107045 -0.05639,0.124255 -0.0026,0.0094 -0.01039,0.02446 -0.0174,0.03345 -0.007,0.009 -0.01275,0.02166 -0.01275,0.02818 0,0.0065 -0.0063,0.01982 -0.01393,0.02957 -0.0077,0.0098 -0.0174,0.02788 -0.02163,0.04029 -0.0042,0.01242 -0.01336,0.02992 -0.02029,0.0389 -0.0069,0.009 -0.01259,0.02166 -0.01259,0.02818 0,0.0065 -0.0063,0.01982 -0.01393,0.02957 -0.0077,0.0098 -0.01735,0.02788 -0.02153,0.04029 -0.0042,0.01242 -0.011,0.02677 -0.01516,0.0319 -0.0092,0.01133 -0.0672,0.117009 -0.08514,0.155101 -0.0071,0.01512 -0.01799,0.03167 -0.02415,0.03679 -0.0062,0.0051 -0.0112,0.01485 -0.0112,0.02163 0,0.0068 -0.0077,0.02148 -0.01711,0.03267 -0.0094,0.01119 -0.01711,0.02269 -0.01711,0.02555 0,0.0029 -0.0077,0.01531 -0.01711,0.02765 -0.0094,0.01234 -0.01711,0.02715 -0.01711,0.0329 0,0.0058 -0.0064,0.01641 -0.0142,0.02369 -0.01384,0.01289 -0.02946,0.03791 -0.04989,0.07988 -0.0055,0.01137 -0.01648,0.02649 -0.02432,0.03358 -0.0078,0.0071 -0.01425,0.01804 -0.01425,0.0243 0,0.0063 -0.01888,0.03198 -0.04195,0.05714 l -0.04195,0.04574 -0.100063,-5.53e-4 c -0.05504,-3.05e-4 -0.104208,-0.0022 -0.109275,-0.0042 z M 7.9157936,10.748639 c -0.00216,-0.0023 -0.074521,-0.0067 -0.1608334,-0.0097 -0.1310115,-0.0046 -0.1598917,-0.0075 -0.1748514,-0.01741 -0.012411,-0.0082 -0.040814,-0.01357 -0.092394,-0.01745 -0.055131,-0.0041 -0.080696,-0.0092 -0.098428,-0.01959 -0.01474,-0.0086 -0.041078,-0.01525 -0.068467,-0.01725 -0.02868,-0.0021 -0.053024,-0.0084 -0.06844,-0.01785 -0.015262,-0.0093 -0.035363,-0.0146 -0.055512,-0.01462 -0.02124,0 -0.037311,-0.0045 -0.049064,-0.01378 -0.00961,-0.0076 -0.027737,-0.01547 -0.040276,-0.01757 -0.045602,-0.0076 -0.051342,-0.0096 -0.067069,-0.02327 -0.0088,-0.0076 -0.025535,-0.01398 -0.037193,-0.01409 -0.011658,-1.17e-4 -0.033515,-0.0078 -0.048572,-0.01708 -0.015058,-0.0093 -0.033707,-0.01688 -0.041445,-0.0169 -0.00774,0 -0.024506,-0.0077 -0.037261,-0.01715 -0.012757,-0.0094 -0.030056,-0.01712 -0.038447,-0.01712 -0.00839,0 -0.024404,-0.0077 -0.035589,-0.01712 -0.011183,-0.0094 -0.026584,-0.01712 -0.03422,-0.01712 -0.00764,0 -0.023038,-0.0077 -0.03422,-0.01712 -0.011183,-0.0094 -0.026819,-0.01712 -0.034745,-0.01712 -0.00792,0 -0.020498,-0.0061 -0.027941,-0.01354 -0.00744,-0.0075 -0.02361,-0.01823 -0.035931,-0.02397 -0.01232,-0.0057 -0.03934,-0.02123 -0.060043,-0.03443 -0.020703,-0.0132 -0.047651,-0.02845 -0.059885,-0.03388 -0.012234,-0.0054 -0.022244,-0.01274 -0.022244,-0.01624 0,-0.0035 -0.00924,-0.01019 -0.020532,-0.01487 -0.011293,-0.0047 -0.020532,-0.01086 -0.020532,-0.01374 0,-0.0029 -0.011551,-0.01068 -0.025665,-0.01734 -0.025773,-0.01216 -0.045567,-0.0276 -0.07205,-0.05621 -0.00784,-0.0085 -0.017561,-0.01541 -0.021599,-0.01541 -0.00836,0 -0.06227,-0.03764 -0.083343,-0.0582 -0.00772,-0.0075 -0.047667,-0.04442 -0.088767,-0.08197 C 6.067141,9.9644614 6.0337028,9.9310426 5.9510839,9.8404835 5.8432644,9.7223019 5.8083271,9.6798196 5.8083271,9.6668968 c 0,-0.00406 -0.006,-0.013647 -0.01334,-0.021312 -0.033319,-0.034802 -0.055099,-0.060932 -0.055099,-0.066103 0,-0.00694 -0.040099,-0.065601 -0.056463,-0.0826 -0.00659,-0.00684 -0.011977,-0.017348 -0.011977,-0.023342 0,-0.006 -0.00634,-0.019091 -0.014079,-0.0291 -0.024155,-0.031226 -0.054105,-0.079479 -0.054235,-0.087383 -6.86e-5,-0.00416 -0.00782,-0.015871 -0.017235,-0.026028 -0.00941,-0.010159 -0.01711,-0.025458 -0.01711,-0.034 0,-0.00854 -0.0077,-0.022227 -0.01711,-0.030414 -0.010721,-0.00933 -0.01711,-0.022125 -0.01711,-0.034276 0,-0.011833 -0.00667,-0.025662 -0.01711,-0.035474 -0.00941,-0.00884 -0.01711,-0.023571 -0.01711,-0.032728 0,-0.00916 -0.0077,-0.025801 -0.01711,-0.03699 -0.00941,-0.011188 -0.01711,-0.028934 -0.01711,-0.039435 0,-0.0105 -0.00605,-0.026788 -0.013448,-0.036198 -0.0074,-0.00941 -0.016745,-0.031813 -0.02077,-0.049787 -0.00403,-0.017976 -0.013373,-0.04038 -0.02077,-0.049787 -0.0074,-0.00941 -0.013465,-0.025165 -0.013484,-0.035012 -2.05e-5,-0.00985 -0.00762,-0.03023 -0.016897,-0.045294 -0.00927,-0.015063 -0.016958,-0.037524 -0.017074,-0.049913 -1.178e-4,-0.012389 -0.00646,-0.034785 -0.014106,-0.049768 -0.00764,-0.014983 -0.016582,-0.047982 -0.019871,-0.073332 -0.00329,-0.02535 -0.012369,-0.059956 -0.020178,-0.076903 -0.010367,-0.022496 -0.014239,-0.044897 -0.01435,-0.083002 -1.068e-4,-0.037001 -0.00521,-0.067681 -0.01752,-0.1054198 l -0.017367,-0.053231 0.00196,-0.3978331 c 0.00185,-0.3723426 0.00278,-0.3993265 0.014662,-0.4211297 0.00869,-0.015943 0.014333,-0.0462 0.017893,-0.095858 0.00365,-0.050943 0.00951,-0.081742 0.019666,-0.1033735 0.00795,-0.016947 0.014563,-0.044677 0.014682,-0.061623 1.273e-4,-0.018056 0.00727,-0.045974 0.01726,-0.067438 0.00937,-0.020144 0.017141,-0.046335 0.017257,-0.058199 1.176e-4,-0.011866 0.0078,-0.033898 0.017074,-0.048961 0.00927,-0.015063 0.016878,-0.035445 0.016897,-0.045294 2.05e-5,-0.00985 0.00609,-0.025605 0.013484,-0.035012 0.0074,-0.00941 0.016751,-0.031848 0.020789,-0.049867 0.00404,-0.01802 0.013382,-0.041253 0.02077,-0.051633 0.00739,-0.010378 0.013431,-0.026633 0.013431,-0.036118 0,-0.00949 0.0077,-0.026401 0.01711,-0.03759 0.00941,-0.011188 0.01711,-0.028392 0.01711,-0.038229 0,-0.010544 0.00702,-0.023995 0.01711,-0.03277 0.010707,-0.00931 0.01711,-0.022128 0.01711,-0.034235 0,-0.012109 0.0064,-0.024924 0.01711,-0.034235 0.00941,-0.00819 0.01711,-0.021871 0.01711,-0.030413 0,-0.00854 0.0077,-0.023842 0.01711,-0.034 0.00941,-0.010159 0.017165,-0.02187 0.017235,-0.026028 1.3e-4,-0.0079 0.03008,-0.056157 0.054235,-0.087382 0.00774,-0.01001 0.014079,-0.023104 0.014079,-0.0291 0,-0.00599 0.00539,-0.016499 0.011977,-0.023342 0.016363,-0.017 0.056463,-0.075661 0.056463,-0.0826 0,-0.0031 0.00847,-0.014992 0.018822,-0.026434 0.017807,-0.019683 0.028162,-0.03208 0.067245,-0.08051 0.00912,-0.011299 0.016582,-0.022811 0.016585,-0.025585 2.07e-5,-0.01206 0.087754,-0.1076823 0.2159332,-0.2353467 0.1317473,-0.1312184 0.1900027,-0.1836916 0.2462219,-0.2217819 0.013896,-0.00942 0.034108,-0.024822 0.044918,-0.034235 0.010809,-0.00942 0.03062,-0.024819 0.044023,-0.034235 0.013404,-0.00942 0.035292,-0.025469 0.048642,-0.035676 0.013351,-0.010206 0.030162,-0.020429 0.037361,-0.022714 0.0072,-0.0023 0.013086,-0.00714 0.013086,-0.010784 0,-0.00365 0.013088,-0.012715 0.029087,-0.02015 0.015998,-0.00744 0.042946,-0.022725 0.059885,-0.033971 0.016939,-0.011246 0.040878,-0.025151 0.053198,-0.030898 0.01232,-0.00575 0.028489,-0.01654 0.035931,-0.023984 0.00744,-0.00745 0.020014,-0.013537 0.027941,-0.013537 0.00793,0 0.02356,-0.0077 0.034745,-0.017119 0.011183,-0.00942 0.026584,-0.017118 0.03422,-0.017118 0.00764,0 0.023038,-0.0077 0.03422,-0.017119 0.011183,-0.00942 0.027217,-0.017119 0.035628,-0.017119 0.00841,0 0.021685,-0.00596 0.029498,-0.013238 0.00781,-0.00728 0.025358,-0.015332 0.038992,-0.01789 0.013633,-0.00257 0.032568,-0.010773 0.042076,-0.018255 0.00951,-0.00748 0.03027,-0.015232 0.046137,-0.017224 0.015868,-0.00199 0.035753,-0.0099 0.04419,-0.017572 0.00916,-0.00833 0.030489,-0.016009 0.052924,-0.019055 0.02067,-0.00281 0.042472,-0.00999 0.048445,-0.015971 0.011152,-0.011155 0.021251,-0.014225 0.067217,-0.020421 0.014582,-0.00196 0.032143,-0.00867 0.039022,-0.0149 0.00792,-0.00717 0.029581,-0.012643 0.059036,-0.014917 0.029973,-0.00232 0.057466,-0.00935 0.077271,-0.019779 0.023513,-0.01238 0.041604,-0.016186 0.076922,-0.016186 0.03061,0 0.058316,-0.00479 0.082182,-0.014212 0.028355,-0.011191 0.06145,-0.015553 0.155774,-0.020532 0.065873,-0.00348 0.1551873,-0.00959 0.1984756,-0.013584 0.1035975,-0.00956 0.1030048,-0.00957 0.2258512,0.0029 0.058345,0.00592 0.1415453,0.010862 0.184889,0.010978 0.067735,1.842e-4 0.082639,0.0023 0.1060816,0.015099 0.02031,0.011086 0.042904,0.015686 0.088491,0.01802 0.04704,0.00241 0.068278,0.00689 0.091703,0.019348 0.021572,0.011476 0.041692,0.016225 0.068818,0.01625 0.028726,2.74e-5 0.045195,0.00426 0.06571,0.016903 0.017121,0.010549 0.037889,0.01695 0.055444,0.017083 0.015893,1.212e-4 0.041126,0.00715 0.058174,0.016211 0.01656,0.0088 0.043051,0.01773 0.058873,0.019846 0.015821,0.00213 0.037855,0.010323 0.048964,0.018236 0.011108,0.00791 0.029495,0.014388 0.040859,0.014388 0.011622,0 0.029124,0.00703 0.040008,0.016073 0.010641,0.00884 0.030943,0.017898 0.045118,0.020128 0.014173,0.00224 0.033396,0.010057 0.042715,0.01739 0.00932,0.00733 0.027328,0.015282 0.040018,0.017663 0.01269,0.00238 0.028593,0.010433 0.03534,0.01789 0.00675,0.00746 0.019074,0.013561 0.027391,0.013561 0.00832,0 0.023063,0.00624 0.032759,0.013877 0.0097,0.00763 0.027822,0.018629 0.040276,0.024434 0.012452,0.00581 0.034962,0.01804 0.050018,0.027181 0.015058,0.00914 0.042898,0.024011 0.06187,0.033042 0.018972,0.00903 0.038597,0.021367 0.043613,0.027411 0.00501,0.00605 0.012591,0.010997 0.016836,0.011003 0.00425,6.1e-6 0.024656,0.012256 0.045359,0.027222 0.020703,0.014967 0.057661,0.041154 0.082128,0.058194 0.1309116,0.091172 0.208898,0.1577503 0.349043,0.2979829 0.1180664,0.1181409 0.1936464,0.2007092 0.2132684,0.2329904 0.01417,0.023309 0.02245,0.034248 0.0434,0.057297 0.01459,0.016054 0.03048,0.037812 0.05816,0.079643 0.0094,0.014223 0.02866,0.042658 0.04277,0.063192 0.01412,0.020535 0.02567,0.040489 0.02567,0.044346 0,0.00386 0.005,0.011197 0.0112,0.016311 0.0062,0.00511 0.01713,0.021668 0.02437,0.036785 0.01966,0.041017 0.03501,0.067276 0.05192,0.088779 0.0083,0.01061 0.01517,0.026102 0.01517,0.034426 0,0.00832 0.006,0.020551 0.0133,0.027176 0.0073,0.00662 0.01518,0.020587 0.01747,0.031029 0.0023,0.010441 0.01171,0.029209 0.02092,0.041702 0.0092,0.012494 0.01675,0.029404 0.01675,0.037579 0,0.00818 0.0061,0.022556 0.01344,0.031959 0.0074,0.0094 0.01626,0.02966 0.01971,0.045018 0.0034,0.015357 0.0128,0.036226 0.02078,0.046375 0.008,0.010151 0.01451,0.028403 0.01451,0.040569 0,0.012165 0.0063,0.030176 0.01408,0.040024 0.0077,0.00985 0.01647,0.032603 0.0194,0.050564 0.0029,0.017962 0.01199,0.044936 0.02014,0.059944 0.0084,0.01547 0.01482,0.039532 0.01482,0.055565 0,0.018598 0.005,0.034706 0.01477,0.047061 0.01089,0.013849 0.01601,0.032873 0.01948,0.072415 0.003,0.033892 0.0094,0.06071 0.01734,0.072863 0.0091,0.01391 0.014,0.039123 0.01758,0.091124 0.0036,0.051869 0.0093,0.081429 0.02043,0.1061284 0.01544,0.034143 0.01548,0.035194 0.01554,0.3902784 6.9e-5,0.3543072 0,0.3562608 -0.01571,0.400549 -0.0092,0.025875 -0.01796,0.071732 -0.021,0.1095521 -0.0036,0.045222 -0.0097,0.073313 -0.01972,0.09217 -0.0097,0.018208 -0.0145,0.039591 -0.01452,0.065046 0,0.028283 -0.0043,0.044885 -0.0169,0.065311 -0.01039,0.01687 -0.01694,0.037946 -0.01707,0.054877 -1.16e-4,0.015119 -0.0069,0.039769 -0.01503,0.054776 -0.0082,0.015008 -0.01722,0.041982 -0.02014,0.059944 -0.0029,0.017962 -0.01166,0.040716 -0.0194,0.050564 -0.0077,0.00985 -0.01408,0.027676 -0.01408,0.039617 0,0.012107 -0.0072,0.031468 -0.01626,0.043766 -0.009,0.012132 -0.01816,0.033897 -0.02047,0.04837 -0.0023,0.014474 -0.0088,0.030155 -0.01449,0.034848 -0.0056,0.00469 -0.01368,0.021162 -0.01783,0.036595 -0.0041,0.015434 -0.0132,0.035247 -0.02011,0.04403 -0.0069,0.00878 -0.01448,0.024747 -0.01684,0.035478 -0.0023,0.010729 -0.01027,0.024927 -0.01758,0.031551 -0.0073,0.00662 -0.0133,0.016557 -0.0133,0.022075 0,0.00922 -0.01197,0.030561 -0.05304,0.094553 -0.0085,0.013196 -0.0154,0.028497 -0.0154,0.034004 0,0.00551 -0.0077,0.016709 -0.01711,0.024894 -0.0094,0.00819 -0.01711,0.020067 -0.01711,0.026401 0,0.010392 -0.0093,0.024548 -0.05438,0.082954 -0.0077,0.01001 -0.01405,0.02114 -0.01405,0.024733 0,0.00604 -0.02089,0.035039 -0.05537,0.076887 -0.02666,0.032353 -0.04057,0.05018 -0.06273,0.080393 -0.07544,0.102867 -0.3501023,0.3736637 -0.4462655,0.4399777 -0.013653,0.0094 -0.04496,0.03329 -0.069573,0.05306 -0.024612,0.01977 -0.048738,0.03595 -0.053612,0.03595 -0.00487,0 -0.012853,0.0048 -0.017732,0.01069 -0.0075,0.009 -0.034856,0.0278 -0.089371,0.06128 -0.00606,0.0037 -0.019918,0.01265 -0.030798,0.01985 -0.010881,0.0072 -0.030726,0.02029 -0.044103,0.0291 -0.013376,0.0088 -0.029068,0.01602 -0.03487,0.01602 -0.0058,0 -0.015965,0.006 -0.022584,0.0133 -0.00662,0.0073 -0.020714,0.01521 -0.031318,0.01754 -0.010605,0.0023 -0.027383,0.01175 -0.037285,0.02093 -0.0099,0.0092 -0.024329,0.01669 -0.032062,0.01669 -0.00773,0 -0.023209,0.0077 -0.034392,0.01712 -0.011183,0.0094 -0.028739,0.01712 -0.039011,0.01712 -0.010273,0 -0.029114,0.0077 -0.041869,0.01712 -0.012757,0.0094 -0.029522,0.01721 -0.037261,0.01733 -0.00774,1.17e-4 -0.026387,0.0078 -0.041445,0.01708 -0.015058,0.0093 -0.035626,0.01689 -0.045708,0.0169 -0.010082,0 -0.022465,0.0042 -0.027516,0.0092 -0.016305,0.01631 -0.038237,0.02505 -0.0629,0.02505 -0.014422,0 -0.034227,0.0069 -0.049313,0.01712 -0.01625,0.01103 -0.034717,0.01712 -0.051948,0.01712 -0.015382,0 -0.040381,0.0073 -0.058874,0.01712 -0.023054,0.01228 -0.042798,0.01712 -0.069837,0.01714 -0.026647,0 -0.044718,0.0044 -0.061651,0.01482 -0.018549,0.01146 -0.040755,0.01604 -0.098428,0.02032 -0.052839,0.0039 -0.079681,0.0091 -0.092394,0.01766 -0.014754,0.01 -0.039695,0.01296 -0.1411114,0.01677 -0.067755,0.0025 -0.1755481,0.0068 -0.2395393,0.0094 -0.063991,0.0027 -0.1181034,0.0029 -0.1202495,6.36e-4 z"
       id="path1"
       style="fill:url(#linearGradient2);fill-opacity:1" />
  </g>
</svg>
