<?xml version="1.0" encoding="UTF-8" standalone="no"?>
<svg
   width="16"
   height="16"
   version="1"
   id="svg20"
   sodipodi:docname="charles-proxy.svg"
   inkscape:version="1.4.4 (unknown)"
   xmlns:inkscape="http://www.inkscape.org/namespaces/inkscape"
   xmlns:sodipodi="http://sodipodi.sourceforge.net/DTD/sodipodi-0.dtd"
   xmlns="http://www.w3.org/2000/svg"
   xmlns:svg="http://www.w3.org/2000/svg">
  <defs
     id="defs20">
    <linearGradient
       id="_lgradient_5"
       x1="0.15503654"
       y1="0.21244895"
       x2="0.79775023"
       y2="0.85516262"
       gradientTransform="matrix(5.2442008,0,0,5.2442008,4.4534069,7.2349996)"
       gradientUnits="userSpaceOnUse">
      <stop
         offset="1.3043478260869565%"
         stop-opacity="1"
         style="stop-color:rgb(254,172,94)"
         id="stop7" />
      <stop
         offset="53.04347826086957%"
         stop-opacity="1"
         style="stop-color:rgb(199,121,208)"
         id="stop8" />
      <stop
         offset="99.56521739130434%"
         stop-opacity="1"
         style="stop-color:rgb(75,192,200)"
         id="stop9" />
    </linearGradient>
    <linearGradient
       id="_lgradient_6"
       x1="0"
       y1="0.5"
       x2="0.90748805"
       y2="0.92007786"
       gradientTransform="matrix(1.9308886,1.114773,-1.114773,1.9308886,6.6674498,8.442207)"
       gradientUnits="userSpaceOnUse">
      <stop
         offset="0%"
         stop-opacity="1"
         style="stop-color:rgb(247,241,7)"
         id="stop10" />
      <stop
         offset="83.88839793817618%"
         stop-opacity="1"
         style="stop-color:rgb(255,187,36)"
         id="stop11" />
    </linearGradient>
  </defs>
  <sodipodi:namedview
     id="namedview20"
     pagecolor="#ffffff"
     bordercolor="#000000"
     borderopacity="0.25"
     inkscape:showpageshadow="2"
     inkscape:pageopacity="0.0"
     inkscape:pagecheckerboard="0"
     inkscape:deskcolor="#d1d1d1"
     inkscape:zoom="23.78125"
     inkscape:cx="8.9986859"
     inkscape:cy="11.795007"
     inkscape:current-layer="svg20"
     inkscape:window-width="1920"
     inkscape:window-height="994"
     inkscape:window-x="0"
     inkscape:window-y="0"
     inkscape:window-maximized="1" />
  <g
     id="g1"
     transform="translate(-0.31610034,0.23338283)">
    <g
       id="g21"
       transform="matrix(0.21938592,0,0,0.21938592,1.5153909,1.1547921)">
      <path
         style="opacity:1;fill:#d9d9d9;fill-opacity:0;stroke:#c779d0;stroke-width:4;stroke-dasharray:none;stroke-opacity:1"
         d="m 20.759422,2.5144937 c -1.939267,0.045848 -3.538347,0.3113875 -5.074943,0.8385395 -0.959602,0.3292106 -1.995734,0.8132524 -2.45543,1.1474751 -0.337438,0.2453174 -0.615789,0.8050277 -0.615789,1.2376611 0,0.2275015 0.107198,0.6035664 0.229715,0.8059189 0.05067,0.083719 0.355117,0.4471362 0.67756,0.805919 0.322457,0.3587842 0.704929,0.7900756 0.849362,0.9575084 2.667973,3.0926323 3.26058,6.0044433 3.404123,9.6115423 -0.18332,1.866117 -0.911361,3.718255 -2.382076,5.441871 -3.089048,4.015291 -3.908485,5.68123 -4.878926,8.299047 -0.383115,1.033474 -0.594344,1.911763 -0.7180973,2.979981 -0.060711,0.520347 -0.059733,2.318248 0.00198,3.187218 0.1923447,2.709793 0.7085913,5.171087 1.6041373,7.640878 0.09974,0.275063 0.246197,0.683571 0.326232,0.907619 0.812249,2.27134 2.633969,5.366137 4.443712,7.552611 0.434809,0.525313 1.663189,1.788251 2.299071,2.364029 0.762597,0.690519 1.57239,1.127032 2.248881,1.210797 v -0.002 c 0.152423,0.01871 3.973295,0.02853 8.489767,0.02303 l 8.209864,-0.0077 0.304998,-0.0921 c 0.660934,-0.200141 1.513454,-0.734114 2.18904,-1.37198 0.173692,-0.163995 0.59706,-0.611261 0.94202,-0.993967 2.239399,-2.484482 5.145108,-6.137792 6.354779,-9.175962 1.129567,-2.836968 1.655488,-4.768126 1.949673,-7.176517 0.346344,-2.835469 0.18995,-4.747605 -0.548225,-6.654588 -0.573695,-1.332552 -2.168654,-2.740672 -2.194831,-4.280963 2.74e-4,-0.606919 0.0146,-0.825238 0.07915,-1.064965 0.172256,-0.63949 1.052795,-1.224629 1.501829,-1.765347 0.109239,-0.131562 0.639068,-0.687533 1.177525,-1.23766 1.28073,-1.308482 1.692644,-1.84431 2.187109,-2.839905 0.398847,-0.803044 0.688729,-1.756625 0.824268,-2.713261 0.08579,-0.601642 0.08574,-1.745202 -0.002,-2.356353 C 51.681825,12.290502 49.143778,9.4655545 45.804043,8.6164514 44.862051,8.3769503 44.028055,8.3639584 41.14799,8.328623 37.185019,8.2769748 32.734227,7.4827352 28.971217,5.0800023 26.59251,3.8069519 25.766376,3.4211634 24.637536,3.0536919 23.271508,2.6090148 22.329251,2.4773841 20.759422,2.5144937 Z M 41.171155,13.315726 c 1.017466,9.69e-4 1.507077,0.01703 1.737332,0.05565 1.205596,0.202249 2.223632,0.87472 2.843435,1.882396 0.566788,0.921508 0.71546,2.001041 0.41696,3.014521 -0.23981,0.814242 -0.503594,1.17709 -1.694865,2.317976 -1.217929,1.166449 -1.645056,1.647221 -2.073217,2.329489 -0.07733,0.123329 -0.164857,0.224507 -0.193036,0.224507 -0.02814,0 -0.129907,-0.101187 -0.225854,-0.224506 l -0.388004,-0.496983 c -1.022462,-1.312617 -1.791234,-2.504659 -2.03268,-3.156516 -0.09766,-0.263529 -0.117389,-0.408532 -0.144778,-0.91913 -0.07183,-1.337694 0.127933,-4.656509 0.299207,-4.962159 0.03528,-0.06308 0.146492,-0.06647 1.4555,-0.06525 z"
         id="path2" />
    </g>
    <path
       d="m 6.9549918,8.4945674 c -0.064939,-0.049435 -0.128707,-0.096822 -0.179312,-0.1260739 -0.431458,-0.2492224 -1.006835,-0.06055 -1.119453,0.1348493 -0.11291,0.1953996 0.01141,0.7880342 0.442867,1.036964 0.05061,0.029252 0.123734,0.060843 0.19891,0.092435 -0.08132,0.010822 -0.159713,0.022231 -0.215876,0.037442 -0.481479,0.1287065 -0.7546871,0.6689812 -0.6964768,0.8869042 0.058503,0.217924 0.5654308,0.549051 1.0466168,0.420052 v 0 c 0.05646,-0.01492 0.130169,-0.04446 0.205931,-0.07547 -0.04973,0.06523 -0.09712,0.128706 -0.126367,0.179311 -0.249222,0.431459 -0.06026,1.006835 0.134849,1.119746 0.1954,0.112618 0.788035,-0.0117 1.037257,-0.44316 0.02896,-0.0506 0.06026,-0.123148 0.09185,-0.19891 0.01112,0.08103 0.02252,0.159421 0.03773,0.215876 v 0 c 0.128999,0.481479 0.669273,0.754688 0.886904,0.696477 0.217924,-0.0585 0.54905,-0.56543 0.420344,-1.046617 -0.01609,-0.05938 -0.04797,-0.138359 -0.08015,-0.217338 0.07401,0.06435 0.134849,0.109693 0.183699,0.137774 0.431459,0.249223 1.0068352,0.06055 1.1197452,-0.134849 0.112618,-0.1954 -0.01141,-0.788035 -0.4431592,-1.037257 -0.0506,-0.02896 -0.123441,-0.06055 -0.199203,-0.09214 0.08132,-0.01082 0.160006,-0.02223 0.216461,-0.03744 v 0 C 10.399346,9.91414 10.672847,9.3738657 10.614344,9.1562349 10.556134,8.9383114 10.049206,8.607185 9.5677268,8.7358915 c -0.05441,0.014626 -0.124904,0.042707 -0.212658,0.085414 0.05148,-0.068156 0.10238,-0.1357269 0.133094,-0.1889644 0.249222,-0.431459 0.06055,-1.006835 -0.134849,-1.1197457 -0.1954,-0.112618 -0.788035,0.011408 -1.036964,0.4431596 -0.02925,0.050605 -0.06084,0.1234412 -0.09244,0.1989099 -0.01082,-0.081319 -0.02223,-0.1597129 -0.03715,-0.2161684 -0.128988,-0.4811857 -0.669263,-0.7546869 -0.887186,-0.6961839 -0.217923,0.05821 -0.54905,0.5651381 -0.420051,1.0466171 v 0 c 0.01492,0.056163 0.04446,0.1298765 0.075469,0.2056377 z"
       fill-rule="evenodd"
       id="path9"
       style="isolation:isolate;fill:url(#_lgradient_5);stroke-width:0.292514" />
    <path
       d="m 7.0345558,9.4072128 c 0.307725,-0.5329617 0.990161,-0.7157832 1.52283,-0.4080578 0.532962,0.3077252 0.715784,0.9898693 0.408058,1.522831 -0.307432,0.532961 -0.989869,0.715783 -1.52283,0.408058 -0.532962,-0.307726 -0.715783,-0.9898697 -0.408058,-1.5228312 z"
       id="path11"
       style="isolation:isolate;fill:url(#_lgradient_6);stroke-width:0.292514" />
  </g>
</svg>
