<?xml version="1.0" encoding="UTF-8" standalone="no"?>
<!-- Generator: Gravit.io -->

<svg
   style="isolation:isolate"
   viewBox="0 0 16 16"
   width="16"
   height="16"
   version="1.1"
   id="svg4"
   sodipodi:docname="chia.svg"
   inkscape:version="1.4.4 (unknown)"
   xmlns:inkscape="http://www.inkscape.org/namespaces/inkscape"
   xmlns:sodipodi="http://sodipodi.sourceforge.net/DTD/sodipodi-0.dtd"
   xmlns:xlink="http://www.w3.org/1999/xlink"
   xmlns="http://www.w3.org/2000/svg"
   xmlns:svg="http://www.w3.org/2000/svg">
  <defs
     id="defs4">
    <linearGradient
       id="linearGradient4"
       inkscape:collect="always">
      <stop
         style="stop-color:#55ff99;stop-opacity:1"
         offset="0"
         id="stop5" />
      <stop
         style="stop-color:#00aa44;stop-opacity:1"
         offset="1"
         id="stop6" />
    </linearGradient>
    <linearGradient
       inkscape:collect="always"
       xlink:href="#linearGradient4"
       id="linearGradient6"
       x1="0.4950182"
       y1="24.051345"
       x2="47.552974"
       y2="24.051345"
       gradientUnits="userSpaceOnUse"
       gradientTransform="rotate(90,24.023996,24.051345)" />
    <linearGradient
       inkscape:collect="always"
       xlink:href="#linearGradient4"
       id="linearGradient8"
       x1="12.907"
       y1="23.303637"
       x2="38.063"
       y2="23.303637"
       gradientUnits="userSpaceOnUse" />
  </defs>
  <sodipodi:namedview
     id="namedview4"
     pagecolor="#ffffff"
     bordercolor="#000000"
     borderopacity="0.25"
     inkscape:showpageshadow="2"
     inkscape:pageopacity="0.0"
     inkscape:pagecheckerboard="0"
     inkscape:deskcolor="#d1d1d1"
     inkscape:document-units="px"
     inkscape:zoom="16.727495"
     inkscape:cx="9.0270541"
     inkscape:cy="19.279635"
     inkscape:window-width="1920"
     inkscape:window-height="994"
     inkscape:window-x="0"
     inkscape:window-y="0"
     inkscape:window-maximized="1"
     inkscape:current-layer="svg4" />
  <linearGradient
     id="_lgradient_7"
     x1="0.18336116"
     y1="0.24917752"
     x2="0.9027437"
     y2="0.90347725"
     gradientTransform="matrix(25.156,0,0,19.436,12.907,13.586)"
     gradientUnits="userSpaceOnUse">
    <stop
       offset="2.608695652173913%"
       stop-opacity="1"
       style="stop-color:rgb(179,255,171)"
       id="stop1" />
    <stop
       offset="98.69565217391305%"
       stop-opacity="1"
       style="stop-color:rgb(18,255,247)"
       id="stop2" />
  </linearGradient>
  <linearGradient
     id="_lgradient_8"
     x1="0.99411762"
     y1="0.48015597"
     x2="0.00018059855"
     y2="0.45213065"
     gradientTransform="matrix(47.058,0,0,46.985,0.495,0.559)"
     gradientUnits="userSpaceOnUse">
    <stop
       offset="0%"
       stop-opacity="1"
       style="stop-color:rgb(17,153,142)"
       id="stop3" />
    <stop
       offset="99.1304347826087%"
       stop-opacity="1"
       style="stop-color:rgb(56,239,125)"
       id="stop4" />
  </linearGradient>
  <g
     id="g4"
     transform="matrix(0.27668649,0,0,0.27668649,1.3528849,1.3453179)">
    <path
       d="m 16.864,28.762 c -0.322,0.1 -0.597,0.308 -0.899,0.453 -0.703,0.38 -1.399,0.778 -2.157,1.045 -0.314,0.123 -1.549,1.068 -1.913,1.374 -0.401,0.395 -0.852,0.733 -1.29,1.083 -0.21,0.186 -0.586,0.263 -0.621,0.585 0.082,0.285 0.156,0.574 0.223,0.863 0.425,-0.333 0.84,-0.68 1.296,-0.971 0.41,-0.306 0.877,-0.521 1.32,-0.774 0.218,-0.116 0.426,-0.257 0.674,-0.306 0.223,-0.062 0.464,-0.04 0.695,-0.068 -10e-4,-0.197 0.02,-0.398 0.05,-0.589 0.164,-0.261 0.3,-0.543 0.484,-0.789 0.629,-0.721 1.34,-1.38 2.138,-1.906 z"
       fill="#78ffc7"
       id="path1" />
    <path
       d="m 37.822,14.424 v 0 c -1.232,0.898 -2.521,1.719 -3.79,2.573 v 0 c -4.181,2.889 -8.388,5.739 -12.613,8.563 -1.633,1.1 -3.2,2.293 -4.881,3.315 -0.911,0.717 -1.845,1.561 -2.31,2.658 -0.292,0.895 1.105,0.753 1.65,1.016 3.188,0.808 6.562,0.561 9.572,-0.594 3.019,-1.152 5.66,-3.241 7.514,-5.899 2.007,-2.649 3.278,-5.839 3.782,-9.168 0.162,-0.903 0.676,-1.665 1.076,-2.464 z M 25,23 l 9.032,-6.003 3.79,-2.573 0.241,-0.164 c -1.051,0.597 -2.359,-0.098 -3.481,-0.226 -1.678,-0.32 -3.399,-0.595 -5.087,-0.361 -1.031,0.06 -2.051,0.175 -3.038,0.474 -2.423,0.479 -4.694,1.561 -6.731,2.921 -4.125,2.829 -6.457,7.768 -6.819,12.788 C 13.77,28.225 20.014,24.368 25,23 Z"
       fill-rule="evenodd"
       id="path2"
       style="fill:url(#linearGradient8)" />
    <path
       d="m 4.8033406,25.658349 v 0 c -0.099,-1.174 -1.135,-2.049 -2.312,-1.953 v 0 c -1.176,0.096 -2.05100002,1.132 -1.95200002,2.312 v 0 c 0.49200002,5.91 3.20500002,11.426 7.59400002,15.429 4.3890004,3.993 10.1310004,6.187 16.0670004,6.133 6.235,-0.056 12.201,-2.592 16.578,-7.038 4.367,-4.457 6.793,-10.468 6.737,-16.703 -0.056,-6.235 -2.592,-12.201 -7.038,-16.5780003 -4.456,-4.367 -10.468,-6.79399996 -16.703,-6.73699996 v 0 c -1.18,0.01 -2.13,0.97799996 -2.119,2.15799996 v 0 c 0.01,1.181 0.977,2.13 2.158,2.12 v 0 c 5.101,-0.047 10.018,1.941 13.665,5.5130003 3.637,3.582 5.713,8.461 5.759,13.563 0.046,5.101 -1.941,10.018 -5.513,13.665 -3.582,3.637 -8.462,5.713 -13.563,5.759 -4.855,0.044 -9.556,-1.742 -13.147,-5.015 -3.5910004,-3.272 -5.8030004,-7.787 -6.2110004,-12.628 z M 14.881341,7.0853487 v 0 c 1.04,-0.559 1.431,-1.856 0.873,-2.896 v 0 c -0.559,-1.04 -1.856,-1.431 -2.896,-0.872 v 0 c -4.4280004,2.382 -7.9880004,6.126 -10.1390004,10.6690003 v 0 c -0.51,1.067 -0.057,2.345 1.01,2.852 v 0 c 1.067,0.507 2.347,0.052 2.857,-1.015 v 0 c 1.763,-3.727 4.6660004,-6.7800003 8.2950004,-8.7380003 z"
       fill-rule="evenodd"
       id="path4"
       style="fill:url(#linearGradient6)" />
  </g>
</svg>
