<?xml version="1.0" encoding="UTF-8" standalone="no"?>
<!-- Generator: Gravit.io -->

<svg
   style="isolation:isolate"
   viewBox="0 0 16 16"
   width="16"
   height="16"
   version="1.1"
   id="svg5"
   sodipodi:docname="childichat-desktop.svg"
   inkscape:version="1.4.4 (unknown)"
   xmlns:inkscape="http://www.inkscape.org/namespaces/inkscape"
   xmlns:sodipodi="http://sodipodi.sourceforge.net/DTD/sodipodi-0.dtd"
   xmlns:xlink="http://www.w3.org/1999/xlink"
   xmlns="http://www.w3.org/2000/svg"
   xmlns:svg="http://www.w3.org/2000/svg">
  <defs
     id="defs5">
    <linearGradient
       id="linearGradient5"
       inkscape:collect="always">
      <stop
         style="stop-color:#00d455;stop-opacity:1"
         offset="0"
         id="stop6" />
      <stop
         style="stop-color:#ffb380;stop-opacity:1"
         offset="1"
         id="stop7" />
    </linearGradient>
    <linearGradient
       inkscape:collect="always"
       xlink:href="#linearGradient5"
       id="linearGradient7"
       x1="-1.660238"
       y1="10.810389"
       x2="14.339765"
       y2="10.810389"
       gradientUnits="userSpaceOnUse" />
    <linearGradient
       inkscape:collect="always"
       xlink:href="#linearGradient5"
       id="linearGradient9"
       x1="-0.8728438"
       y1="8.8037901"
       x2="9.3177481"
       y2="8.8037901"
       gradientUnits="userSpaceOnUse" />
  </defs>
  <sodipodi:namedview
     id="namedview5"
     pagecolor="#ffffff"
     bordercolor="#000000"
     borderopacity="0.25"
     inkscape:showpageshadow="2"
     inkscape:pageopacity="0.0"
     inkscape:pagecheckerboard="0"
     inkscape:deskcolor="#d1d1d1"
     inkscape:document-units="px"
     inkscape:zoom="23.65625"
     inkscape:cx="3.5931308"
     inkscape:cy="6.5310436"
     inkscape:window-width="1920"
     inkscape:window-height="994"
     inkscape:window-x="0"
     inkscape:window-y="0"
     inkscape:window-maximized="1"
     inkscape:current-layer="svg5" />
  <linearGradient
     id="_lgradient_9"
     x1="0"
     y1="0.5"
     x2="1"
     y2="0.5"
     gradientTransform="matrix(10.190589,0,0,7.205469,-0.87284205,5.2009781)"
     gradientUnits="userSpaceOnUse">
    <stop
       offset="0%"
       stop-opacity="1"
       style="stop-color:rgb(247,242,6)"
       id="stop1" />
    <stop
       offset="98.26086956521739%"
       stop-opacity="1"
       style="stop-color:rgb(255,187,36)"
       id="stop2" />
  </linearGradient>
  <linearGradient
     id="_lgradient_10"
     x1="0.47498682"
     y1="1.1035594"
     x2="0.21228242"
     y2="0.57891935"
     gradientTransform="matrix(16.000072,0,0,10.781243,-1.6602376,5.4196466)"
     gradientUnits="userSpaceOnUse">
    <stop
       offset="0%"
       stop-opacity="1"
       style="stop-color:rgb(126,235,218)"
       id="stop3" />
    <stop
       offset="49.56869043334445%"
       stop-opacity="1"
       style="stop-color:rgb(115,255,68)"
       id="stop4" />
    <stop
       offset="98.69565217391305%"
       stop-opacity="1"
       style="stop-color:rgb(255,205,62)"
       id="stop5" />
  </linearGradient>
  <g
     id="g5"
     transform="translate(1.6602367,-2.7011327)">
    <path
       d="M 1.9539732,7.0426223 2.4140463,7.7839776 1.6097317,9.419192 H 0.1520735 C 0.2067358,9.25147 0.2718098,9.087055 0.3472954,8.926279 0.6206065,8.357278 1.0012897,7.8478273 1.4698223,7.4276902 1.6240479,7.2897403 1.7854314,7.1610538 1.9539732,7.0426223 Z M 2.5126338,6.6979136 2.9678261,7.4343068 H 4.8810022 L 5.7012603,6.0445551 C 5.5441066,6.032315 5.386302,6.0270217 5.2278466,6.0283454 4.5217934,6.0250368 3.8189944,6.1540546 3.1552395,6.4054735 2.9346387,6.4891693 2.7198943,6.5870907 2.5126338,6.6979136 Z M 6.4021073,6.1428068 6.32109,6.2797645 5.4364089,7.7790164 6.2430011,9.419192 H 6.3666421 7.6681208 7.993494 V 10.08082 H 7.6681212 6.366642 6.242676 L 5.6801113,11.222132 5.5369483,11.516559 4.9545359,11.222132 5.1009525,10.924404 5.6768575,9.750008 4.8634323,8.095933 H 2.9893008 L 2.1758756,9.750008 2.7517805,10.924404 2.8981971,11.222132 2.3157847,11.516559 2.1726218,11.222132 1.6100571,10.08082 h -1.6174147 c -0.0344866,0.218008 -0.0520618,0.439328 -0.0520618,0.661628 0,0.357279 0.0455494,0.711254 0.1334017,1.055299 l 0.1041183,0.400288 -0.78739542,0.208411 -0.10411831,-0.400285 c -0.1073714,-0.413518 -0.15943065,-0.836963 -0.15943065,-1.263713 0,-0.754252 0.16919248,-1.495281 0.48805513,-2.173449 C -0.0659244,7.8974477 0.383086,7.2986725 0.9329616,6.8057589 1.5023594,6.296305 2.1596069,5.8993276 2.8721674,5.6313678 3.6237722,5.3435592 4.4209291,5.2013091 5.2278466,5.2013091 6.5683715,5.1913888 7.8796112,5.6015945 8.9826205,6.3757001 L 9.3177484,6.6105783 8.8557248,7.2920562 8.5205907,7.0571778 C 7.879936,6.607601 7.1579419,6.2976283 6.4021073,6.1428068 Z"
       fill-rule="evenodd"
       id="path2"
       style="fill:url(#linearGradient9)" />
    <path
       d="m 11.247191,7.1309494 v 0 c 0.286983,0 0.52027,0.2368634 0.52027,0.5286437 V 8.532281 c 0,0.291781 -0.233287,0.528645 -0.52027,0.528645 v 0 c -0.286973,0 -0.520267,-0.236864 -0.520267,-0.528645 V 7.6595931 c 0,-0.2917803 0.233294,-0.5286437 0.520267,-0.5286437 z M 2.2581939,14.404571 c 0.094033,0.0029 0.1880639,0.0038 0.282096,0.0033 0.078741,-6.6e-4 0.1574792,-0.002 0.2365439,-0.0042 0.035466,0.266968 0.057265,0.535921 0.062796,0.804872 H 2.4166489 Z m 6.7302802,-0.597125 c -0.034192,0.02347 -0.06864,0.04563 -0.1034688,0.06784 -0.1233174,0.08035 -0.2534641,0.148865 -0.3884923,0.20445 l 0.2225533,1.128728 h 0.4294891 c -0.0067,-0.254743 -0.02605,-0.512779 -0.05853,-0.764196 -0.028,-0.214367 -0.06179,-0.426423 -0.1015163,-0.636818 z m -9.20406868,1.400998 h -0.45877171 c -0.006508,-0.09593 -0.009761,-0.191867 -0.009761,-0.287808 0,-0.499531 0.0878503,-0.995752 0.26680347,-1.462196 0.15292391,-0.426754 0.3969514,-0.817114 0.71256052,-1.138006 0.065073,-0.06285 0.14967,-0.102559 0.2375201,-0.105851 1.0834822,-0.04958 2.1669646,-0.119096 3.2504468,-0.205104 0.566144,-0.043 1.1257806,-0.105852 1.6886708,-0.185258 0.2928327,-0.03969 0.5856659,-0.08932 0.8784989,-0.148868 0.1626851,-0.03308 0.3253701,-0.07611 0.4848014,-0.129015 C 7.134515,11.457008 7.4175871,11.314764 7.6713772,11.1262 7.9186553,10.92771 8.1171332,10.682907 8.260295,10.408332 8.4132174,10.110595 8.533606,9.799631 8.6214576,9.475435 8.7385911,9.065223 8.8459637,8.651704 8.9468243,8.238187 9.0021333,8.009924 9.0607074,7.7849702 9.1160204,7.5567079 9.1615704,7.3747597 9.2461664,7.2027365 9.3600474,7.0538698 9.4706704,6.9116201 9.6073254,6.7958345 9.7602504,6.7065149 9.9359504,6.6039625 10.124666,6.5311832 10.31989,6.488177 c 0.217995,-0.05293 0.4425,-0.076085 0.667004,-0.076085 0.302597,0 0.605194,0.039699 0.898024,0.1190936 0.279821,0.06947 0.543369,0.181948 0.790648,0.3275059 0.201728,0.115785 0.377429,0.2679599 0.517344,0.4532161 0.100861,0.1389421 0.159425,0.3043476 0.169186,0.476373 0.0033,0.1323218 -0.0033,0.2646514 -0.02276,0.3969724 -0.01953,0.119096 -0.05206,0.238189 -0.09436,0.350666 -0.04226,0.11579 -0.09761,0.228264 -0.162681,0.334123 -0.07808,0.119092 -0.162684,0.234877 -0.260293,0.337428 -0.185465,0.198496 -0.393702,0.370515 -0.62146,0.512765 -0.39695,0.244801 -0.816681,0.449908 -1.255928,0.60539 -0.335131,0.453214 -0.689785,0.889889 -1.0574526,1.313333 -0.263549,0.304349 -0.543368,0.592159 -0.839454,0.866734 C 8.8362171,12.70418 8.6084557,12.882819 8.3611776,13.035 8.2212651,13.12763 8.0618374,13.197095 7.895898,13.233484 c -0.2505351,0.04633 -0.5010723,0.09593 -0.7516063,0.145562 -0.1887145,0.03967 -0.3774293,0.07611 -0.5661441,0.119094 -0.1854609,0.04296 -0.3513997,0.138939 -0.4848012,0.27788 -0.1334016,0.135636 -0.2245052,0.304353 -0.2668033,0.489608 0,0.0033 0,0.0064 -0.00326,0.01322 l -0.1822166,0.9296 H 4.9024746 v -1.488663 c 0,-0.148867 -0.065073,-0.287807 -0.1789533,-0.383744 -0.1106223,-0.09265 -0.2602941,-0.132327 -0.4034569,-0.10256 -0.5889201,0.115785 -1.1843471,0.178636 -1.7862817,0.181946 -0.6442329,0.0031 -1.2884657,-0.08601 -1.9099222,-0.26134 -0.2570425,0.350658 -0.458772,0.741021 -0.5921737,1.157847 -0.10411807,0.291118 -0.18546081,0.592157 -0.24728138,0.896506 z M 1.2440155,14.305655 c -0.050757,-0.009 -0.1011862,-0.01755 -0.1516224,-0.0268 -0.052057,0.115784 -0.1008624,0.234878 -0.139909,0.353973 -0.09436,0.274575 -0.1691925,0.555765 -0.2245053,0.843574 -0.042297,0.205105 -0.1496703,0.387056 -0.3058481,0.519378 -0.1594313,0.132327 -0.357907,0.205111 -0.56289017,0.205111 h -0.65074005 c -0.21149058,0 -0.41321998,-0.07938 -0.56939758,-0.221651 -0.1561777,-0.14554 -0.2537887,-0.340721 -0.2733109,-0.552446 -0.019522,-0.168728 -0.02603,-0.337442 -0.02603,-0.506158 0,-0.618622 0.1106259,-1.233936 0.3286238,-1.812862 0.2049831,-0.559078 0.5238458,-1.068527 0.94031946,-1.491973 0.23426636,-0.23818 0.54662164,-0.377129 0.87849904,-0.393669 1.0737213,-0.0496 2.1474427,-0.119092 3.2211638,-0.2018 0.543368,-0.043 1.0867363,-0.102548 1.6301041,-0.178637 0.2733107,-0.03967 0.5498756,-0.08601 0.8231862,-0.138944 0.1301481,-0.02646 0.2602961,-0.06285 0.3871904,-0.102549 v 0 C 6.7440715,10.540679 6.9295324,10.448031 7.0922173,10.32563 7.2126042,10.226386 7.3199764,10.097369 7.3948104,9.948504 7.515199,9.71031 7.6128104,9.462198 7.6811385,9.204164 7.7982717,8.80388 7.9023877,8.403591 8,8 8.0552873,7.7684316 8.1138779,7.5401664 8.1724443,7.311905 8.2505175,6.9943233 8.3936962,6.6965904 8.5954285,6.4385553 8.78414,6.1970605 9.0151524,5.9952636 9.2819584,5.843089 c 0.25704,-0.1488666 0.533608,-0.2580353 0.8231836,-0.324198 0.289579,-0.066162 0.58567,-0.099244 0.885011,-0.099244 0.383933,0 0.767873,0.05293 1.13879,0.1488663 0.361162,0.095938 0.709307,0.2381864 1.031426,0.4300592 0.312357,0.1786398 0.58892,0.4201346 0.806918,0.711251 0.224508,0.2977329 0.351401,0.6583207 0.370921,1.0354503 0.0062,0.1984878 -0.0062,0.3969782 -0.03579,0.5954682 -0.02928,0.185251 -0.07808,0.370505 -0.143166,0.549147 -0.06833,0.17864 -0.15292,0.350665 -0.257039,0.512763 -0.107357,0.175332 -0.231013,0.337432 -0.370922,0.486302 -0.244028,0.261338 -0.520592,0.489598 -0.823185,0.678164 -0.36767,0.228265 -0.754861,0.426755 -1.15832,0.58885 -0.299341,0.390365 -0.608441,0.770796 -0.930558,1.141309 -0.247605,0.286154 -0.509853,0.559743 -0.7821876,0.818768 v 0 l 0.01431,0.0612 c 0.08785,0.373818 0.1561806,0.750948 0.2049856,1.134694 0.04233,0.307656 0.06506,0.618624 0.06831,0.929589 0,0.0033 0,0.0064 0,0.01322 l -0.0034,0.12902 c 0,0.0033 0,0.0064 0,0.0102 -0.0099,0.21834 -0.100861,0.423443 -0.2537896,0.57231 -0.152931,0.15213 -0.357914,0.234828 -0.572658,0.234828 H 8.6439748 c -0.2049849,0 -0.4034613,-0.07277 -0.5596391,-0.205105 C 7.9249751,15.866761 7.8176036,15.681505 7.775306,15.476399 L 7.5469433,14.309286 c -0.072578,0.0139 -0.1447889,0.02811 -0.2173477,0.04235 -0.1756995,0.03639 -0.3546533,0.07277 -0.5303531,0.112477 -0.00326,0 -0.00326,0 -0.00326,0 -0.00326,0.0064 -0.00975,0.01322 -0.016272,0.01986 0,0 0,0 0,0 l -0.195164,0.992436 C 6.5422715,15.681514 6.4349,15.86677 6.2754685,15.995786 6.119291,16.128114 5.9208155,16.200894 5.7158321,16.200894 h -0.976064 c -0.2147441,0 -0.4229808,-0.08602 -0.5759048,-0.241495 C 4.0109627,15.803911 3.9263664,15.592186 3.9263664,15.37385 v -1.068526 c -0.058241,0.0078 -0.1164825,0.01621 -0.1747236,0.02313 0.039368,0.32486 0.062143,0.653027 0.067354,0.979212 0,0.0033 0,0.0102 0,0.01323 v 0.06285 c 0,0.0033 -0.00326,0.0064 -0.00326,0.0102 -0.0065,0.218341 -0.09761,0.423441 -0.250535,0.572311 -0.156166,0.152177 -0.3611492,0.234875 -0.5726399,0.234875 H 2.3418143 c -0.00326,0 -0.0065,0 -0.00975,0 -0.2017335,-0.0032 -0.3937019,-0.0761 -0.5498796,-0.208396 C 1.6260049,15.863632 1.5186328,15.684993 1.473081,15.4865 c 0,-0.0033 0,-0.0064 0,-0.0102 z"
       fill-rule="evenodd"
       id="path5"
       style="fill:url(#linearGradient7)" />
  </g>
</svg>
