<?xml version="1.0" encoding="UTF-8" standalone="no"?>
<!-- Generator: Gravit.io -->

<svg
   style="isolation:isolate"
   viewBox="0 0 16 16"
   width="16"
   height="16"
   version="1.1"
   id="svg2"
   sodipodi:docname="clamav.svg"
   inkscape:version="1.4.4 (unknown)"
   xmlns:inkscape="http://www.inkscape.org/namespaces/inkscape"
   xmlns:sodipodi="http://sodipodi.sourceforge.net/DTD/sodipodi-0.dtd"
   xmlns:xlink="http://www.w3.org/1999/xlink"
   xmlns="http://www.w3.org/2000/svg"
   xmlns:svg="http://www.w3.org/2000/svg">
  <defs
     id="defs2">
    <linearGradient
       id="linearGradient2"
       inkscape:collect="always">
      <stop
         style="stop-color:#c83771;stop-opacity:1"
         offset="0"
         id="stop3" />
      <stop
         style="stop-color:#ffff00;stop-opacity:1"
         offset="1"
         id="stop4" />
    </linearGradient>
    <linearGradient
       inkscape:collect="always"
       xlink:href="#linearGradient2"
       id="linearGradient4"
       x1="2.655195"
       y1="13.661003"
       x2="12.058212"
       y2="3.3253841"
       gradientUnits="userSpaceOnUse" />
  </defs>
  <sodipodi:namedview
     id="namedview2"
     pagecolor="#ffffff"
     bordercolor="#000000"
     borderopacity="0.25"
     inkscape:showpageshadow="2"
     inkscape:pageopacity="0.0"
     inkscape:pagecheckerboard="0"
     inkscape:deskcolor="#d1d1d1"
     inkscape:document-units="px"
     inkscape:zoom="23.317424"
     inkscape:cx="9.2634591"
     inkscape:cy="3.0663765"
     inkscape:window-width="1920"
     inkscape:window-height="994"
     inkscape:window-x="0"
     inkscape:window-y="0"
     inkscape:window-maximized="1"
     inkscape:current-layer="svg2" />
  <linearGradient
     id="_lgradient_19"
     x1="0.47183794"
     y1="0.9763158"
     x2="0.57741463"
     y2="0.10441688"
     gradientTransform="matrix(12.147747,0,0,13,1.9261265,1.5)"
     gradientUnits="userSpaceOnUse">
    <stop
       offset="0%"
       stop-opacity="1"
       style="stop-color:rgb(255,229,59)"
       id="stop1" />
    <stop
       offset="98.69565217391305%"
       stop-opacity="1"
       style="stop-color:rgb(255,0,91)"
       id="stop2" />
  </linearGradient>
  <path
     d="M 9.7482949,8.0369474 8.2925686,8.7646737 8.2920212,8.7649474 C 8.876337,9.7466526 10.105726,10.257895 11.08278,9.7121684 12.059832,9.1661684 12.382232,7.9677053 11.797916,7.012 v 0 0 l -1.538653,0.7696 c 0.199242,0.5900632 0.0014,1.3602105 -0.5016628,2.0750737 -0.00164,-2.737e-4 -0.00465,0 -0.00465,0 C 10.050442,9.2953474 10.047432,8.6426105 9.7482949,8.0369474 Z M 5.740737,7.7816 4.2020844,7.012 C 3.6177686,7.9677053 3.9401686,9.1661684 4.9172212,9.7121684 5.8942739,10.257895 7.1236633,9.7466526 7.7079791,8.7649474 v 0 0 L 7.7074318,8.7646737 6.2517054,8.0369474 c -0.2991368,0.6056631 -0.3021473,1.2584 -0.00465,1.8197263 0,0 -0.00301,-2.737e-4 -0.00465,0 C 5.7393686,9.1418105 5.5414949,8.3716632 5.740737,7.7816 Z m 2.2592632,0.4794947 v 0 c -0.00985,-0.00739 -0.021074,-0.01341 -0.032021,-0.018884 L 4.4620844,6.4892632 C 4.3334528,6.4249474 4.1815581,6.4101684 4.0414318,6.4512211 c -0.1404,0.038042 -0.26,0.1286315 -0.3360842,0.2542526 -0.2454948,0.3971158 -0.3768632,0.8558105 -0.3798737,1.3262737 0.00602,0.9113684 0.5085052,1.7529473 1.3090315,2.1911156 0.3505895,0.195684 0.7449685,0.298042 1.1481053,0.295032 0.4907158,-0.0027 0.9729474,-0.146148 1.3936,-0.406148 0.3185684,-0.1954102 0.5990947,-0.4471996 0.8237895,-0.7449681 0.2246947,0.2977685 0.505221,0.5495579 0.8237895,0.7449681 0.4206526,0.26 0.9028842,0.403411 1.3936003,0.406148 0.403137,0.003 0.797516,-0.09935 1.148105,-0.295032 0.800526,-0.4381683 1.303011,-1.2797472 1.309032,-2.1911156 -0.003,-0.4704632 -0.134379,-0.9291579 -0.379874,-1.3262737 v 0 C 12.218569,6.5798526 12.098969,6.4892632 11.958569,6.4512211 11.818443,6.4101684 11.666548,6.4249474 11.537916,6.4892632 L 8.0320212,8.2422105 c -0.010947,0.00547 -0.022168,0.011495 -0.032021,0.018884 z M 2.8024633,8.4261263 c 0,-1.378821 0.5465474,-2.7023579 1.5222316,-3.6753052 0.9729474,-0.9756843 2.2962105,-1.5249685 3.6753053,-1.5249685 1.3790947,0 2.7023588,0.5492842 3.6753058,1.5249685 0.975684,0.9729473 1.522232,2.2964842 1.522232,3.6753052 v 0 c 0,1.3790948 -0.546548,2.6996207 -1.522232,3.6753057 -0.972947,0.975684 -2.2962111,1.522231 -3.6753058,1.522231 -1.3790948,0 -2.7023579,-0.546547 -3.6753053,-1.522231 C 3.3490107,11.125747 2.8024633,9.8052211 2.8024633,8.4261263 Z M 12.491706,4.3350947 c 1.015916,1.1160842 1.582167,2.5737264 1.582167,4.0910316 v 0 c 0,1.6098107 -0.639872,3.1553057 -1.77922,4.2946527 C 11.158043,13.860126 9.6098107,14.5 8.0000002,14.5 6.3901897,14.5 4.8419581,13.860126 3.7053476,12.720779 2.5660002,11.581432 1.9261265,10.035937 1.9261265,8.4261263 v 0 c 0,-1.4666737 0.5293053,-2.8777895 1.4822737,-3.9785474 v 0 L 2.5241265,1.5 c 0.6650526,0.9978526 1.6692,1.5356421 2.5581263,1.6021474 0.8850948,-0.4901685 1.8889684,-0.7529053 2.9177474,-0.7529053 0.9767789,0 1.9308421,0.2367368 2.7822738,0.680379 0.905074,-0.00411 1.964779,-0.4926316 2.6936,-1.4792632 z"
     fill-rule="evenodd"
     id="path2"
     style="fill:url(#linearGradient4)" />
</svg>
