<?xml version="1.0" encoding="UTF-8" standalone="no"?>
<svg
   width="16"
   height="16"
   version="1.1"
   id="svg2"
   sodipodi:docname="cliq.svg"
   inkscape:version="1.4.4 (unknown)"
   xmlns:inkscape="http://www.inkscape.org/namespaces/inkscape"
   xmlns:sodipodi="http://sodipodi.sourceforge.net/DTD/sodipodi-0.dtd"
   xmlns:xlink="http://www.w3.org/1999/xlink"
   xmlns="http://www.w3.org/2000/svg"
   xmlns:svg="http://www.w3.org/2000/svg">
  <defs
     id="defs2">
    <linearGradient
       id="linearGradient2"
       inkscape:collect="always">
      <stop
         style="stop-color:#ff37ff;stop-opacity:1;"
         offset="0"
         id="stop2" />
      <stop
         style="stop-color:#ffb380;stop-opacity:1"
         offset="1"
         id="stop3" />
    </linearGradient>
    <linearGradient
       inkscape:collect="always"
       xlink:href="#linearGradient2"
       id="linearGradient3"
       x1="1275.3951"
       y1="-314.03745"
       x2="1282.5424"
       y2="-321.69583"
       gradientUnits="userSpaceOnUse" />
  </defs>
  <sodipodi:namedview
     id="namedview2"
     pagecolor="#ffffff"
     bordercolor="#000000"
     borderopacity="0.25"
     inkscape:showpageshadow="2"
     inkscape:pageopacity="0.0"
     inkscape:pagecheckerboard="0"
     inkscape:deskcolor="#d1d1d1"
     inkscape:zoom="16.948466"
     inkscape:cx="4.071165"
     inkscape:cy="4.3366757"
     inkscape:window-width="1920"
     inkscape:window-height="994"
     inkscape:window-x="0"
     inkscape:window-y="0"
     inkscape:window-maximized="1"
     inkscape:current-layer="svg2"
     showgrid="true">
    <inkscape:grid
       id="grid2"
       units="px"
       originx="0"
       originy="0"
       spacingx="1"
       spacingy="1"
       empcolor="#0099e5"
       empopacity="0.30196078"
       color="#0099e5"
       opacity="0.14901961"
       empspacing="5"
       enabled="true"
       visible="true" />
  </sodipodi:namedview>
  <g
     transform="matrix(0.93796898,0,0,0.92857143,-1193.5345,304.21429)"
     id="g2">
    <path
       d="m 1276.994,-326 c -1.258,0.015 -2.178,-0.03 -2.931,0.385 a 1.88,1.88 0 0 0 -0.838,0.998 c -0.165,0.438 -0.225,0.96 -0.225,1.617 v 6 c 0,0.658 0.06,1.179 0.225,1.617 0.165,0.439 0.461,0.79 0.838,0.998 0.753,0.416 1.673,0.37 2.931,0.385 h 8.004 c 1.258,-0.015 2.18,0.03 2.932,-0.385 a 1.88,1.88 0 0 0 0.838,-0.998 c 0.164,-0.438 0.224,-0.96 0.224,-1.617 v -6 c 0,-0.658 -0.06,-1.179 -0.224,-1.617 a 1.88,1.88 0 0 0 -0.838,-0.998 c -0.753,-0.416 -1.674,-0.37 -2.932,-0.385 z m 0.01,1 h 8 c 1.259,0.015 2.088,0.06 2.454,0.262 0.183,0.1 0.289,0.212 0.386,0.472 0.097,0.26 0.16,0.674 0.16,1.266 v 6 c 0,0.592 -0.063,1.006 -0.16,1.266 -0.098,0.26 -0.203,0.371 -0.387,0.472 -0.366,0.202 -1.194,0.247 -2.453,0.262 H 1277 c -1.258,-0.015 -2.089,-0.06 -2.455,-0.262 -0.183,-0.1 -0.287,-0.212 -0.385,-0.472 -0.098,-0.26 -0.16,-0.674 -0.16,-1.266 v -6 c 0,-0.592 0.063,-1.006 0.16,-1.266 0.098,-0.26 0.202,-0.371 0.385,-0.472 0.366,-0.202 1.197,-0.247 2.455,-0.262 z"
       font-family="sans-serif"
       overflow="visible"
       id="path1"
       style="fill:url(#linearGradient3);fill-opacity:1" />
    <path
       font-size="15px"
       letter-spacing="0"
       text-anchor="middle"
       word-spacing="0"
       id="path2"
       font-weight="400"
       d="m 1280,-312 3.5,-2.5 -0.5,-0.5 h -6 l -0.5,0.5 z"
       style="fill:url(#linearGradient3);fill-opacity:1" />
  </g>
  <rect
     style="fill:#ffb380;fill-opacity:0;stroke:#c779d0;stroke-width:4"
     id="rect1"
     width="0"
     height="0"
     x="9.5541058"
     y="18.378098" />
  <path
     d="m 4.9832103,7 c 0.00189,-1.3333333 -2.0020974,-1.3333333 -2.000209,0 -0.00189,1.3333334 2.0020974,1.3333334 2.000209,0 z"
     id="path1-3"
     style="fill:#c83771;stroke-width:0.944119"
     sodipodi:nodetypes="cccccc" />
  <path
     d="m 9.1002103,7 c 0.00189,-1.3333333 -2.0020974,-1.3333333 -2.000209,0 -0.00189,1.333333 2.0020974,1.333333 2.000209,0 z"
     id="path1-3-7"
     style="fill:#c83771;stroke-width:0.944119"
     sodipodi:nodetypes="cccccc" />
  <path
     d="m 13.20621,7 c 0.0019,-1.3333333 -2.002097,-1.3333333 -2.000209,0 -0.0019,1.333333 2.002098,1.333333 2.000209,0 z"
     id="path1-3-7-3"
     style="fill:#c83771;stroke-width:0.944119"
     sodipodi:nodetypes="cccccc" />
</svg>
