<?xml version="1.0" encoding="UTF-8" standalone="no"?>
<!-- Generator: Gravit.io -->

<svg
   style="isolation:isolate"
   viewBox="0 0 12 12"
   width="16"
   height="16"
   version="1.1"
   id="svg4"
   sodipodi:docname="com.github.marinm.songrec.svg"
   inkscape:version="1.4.4 (unknown)"
   xmlns:inkscape="http://www.inkscape.org/namespaces/inkscape"
   xmlns:sodipodi="http://sodipodi.sourceforge.net/DTD/sodipodi-0.dtd"
   xmlns:xlink="http://www.w3.org/1999/xlink"
   xmlns="http://www.w3.org/2000/svg"
   xmlns:svg="http://www.w3.org/2000/svg">
  <defs
     id="defs4">
    <linearGradient
       id="linearGradient1"
       inkscape:collect="always">
      <stop
         style="stop-color:#00ccff;stop-opacity:1"
         offset="0"
         id="stop5" />
      <stop
         style="stop-color:#8d5fd3;stop-opacity:1"
         offset="1"
         id="stop6" />
    </linearGradient>
    <linearGradient
       id="linearGradient20"
       x1="1.5627142"
       y1="0.54316336"
       x2="-0.052491475"
       y2="0.53895819"
       gradientTransform="matrix(43.693,0,0,45.69,2,1)"
       gradientUnits="userSpaceOnUse">
      <stop
         offset="0.34940982"
         stop-opacity="1"
         style="stop-color:#6b99e5;stop-opacity:1;"
         id="stop17" />
      <stop
         offset="0.5384922"
         stop-opacity="1"
         style="stop-color:#64bce9;stop-opacity:1;"
         id="stop18" />
      <stop
         offset="0.90405154"
         stop-opacity="1"
         style="stop-color:#51e5f4;stop-opacity:1;"
         id="stop19" />
      <stop
         offset="1"
         stop-opacity="1"
         style="stop-color:#4bfae2;stop-opacity:1;"
         id="stop20" />
    </linearGradient>
    <linearGradient
       inkscape:collect="always"
       xlink:href="#linearGradient1"
       id="linearGradient6"
       x1="1.1099061"
       y1="5.8268918"
       x2="10.822964"
       y2="5.8268918"
       gradientUnits="userSpaceOnUse" />
    <linearGradient
       inkscape:collect="always"
       xlink:href="#linearGradient1"
       id="linearGradient8"
       x1="2.4097741"
       y1="4.1089654"
       x2="7.2337012"
       y2="4.1089654"
       gradientUnits="userSpaceOnUse" />
  </defs>
  <sodipodi:namedview
     id="namedview4"
     pagecolor="#ffffff"
     bordercolor="#666666"
     borderopacity="1.0"
     inkscape:showpageshadow="2"
     inkscape:pageopacity="0.0"
     inkscape:pagecheckerboard="0"
     inkscape:deskcolor="#d1d1d1"
     inkscape:document-units="px"
     inkscape:current-layer="svg4"
     inkscape:zoom="23.65625"
     inkscape:cx="7.6089828"
     inkscape:cy="13.167768"
     inkscape:window-width="1920"
     inkscape:window-height="994"
     inkscape:window-x="0"
     inkscape:window-y="0"
     inkscape:window-maximized="1" />
  <linearGradient
     id="_lgradient_42"
     x1="1.5627142"
     y1="0.54316336"
     x2="-0.052491475"
     y2="0.53895819"
     gradientTransform="matrix(43.693,0,0,45.69,2,1)"
     gradientUnits="userSpaceOnUse">
    <stop
       offset="34.94098066785295%"
       stop-opacity="1"
       style="stop-color:rgb(178,229,107)"
       id="stop1" />
    <stop
       offset="53.84922244785295%"
       stop-opacity="1"
       style="stop-color:rgb(194,233,100)"
       id="stop2" />
    <stop
       offset="90.40515655585295%"
       stop-opacity="1"
       style="stop-color:rgb(236,244,81)"
       id="stop3" />
    <stop
       offset="100%"
       stop-opacity="1"
       style="stop-color:rgb(250,247,75)"
       id="stop4" />
  </linearGradient>
  <g
     id="g7"
     transform="matrix(1.0039205,0,0,1.0039205,0.01017359,0.15026389)">
    <g
       id="g1">
      <path
         id="path8"
         d="M 5.8495068,0.97175566 C 5.5464649,0.97733324 5.2419108,1.0110247 4.9395215,1.0743155 4.7108873,1.1223227 4.5642552,1.3476241 4.6122626,1.5768585 4.6602698,1.806093 4.8854212,1.9528749 5.1148056,1.9041175 6.4455057,1.6265758 7.8319501,2.0373766 8.7935948,2.9990212 9.3756821,3.5811085 9.765664,4.3283056 9.9111858,5.1369269 10.055208,5.9470486 9.9517198,6.7826197 9.6081682,7.5312321 9.5105037,7.743214 9.6038252,7.9948493 9.8167064,8.092514 10.029588,8.1901786 10.282221,8.096857 10.380785,7.8839757 10.794848,6.9778395 10.922366,5.967964 10.745339,4.9868165 10.569812,4.0071693 10.09702,3.1028072 9.3934142,2.3992017 8.4463031,1.4545285 7.1626881,0.94758652 5.8495068,0.97175566 Z M 6.0269664,2.3261667 C 5.8048248,2.3235632 5.5819816,2.3419171 5.360949,2.3817976 4.6547268,2.5083336 4.0025186,2.8488902 3.495293,3.3561157 2.6571271,4.1964447 2.2969052,5.4045526 2.5402437,6.56717 2.5748519,6.7319914 2.7373678,6.8376659 2.9026217,6.8030575 3.0678756,6.7684493 3.1736583,6.6060414 3.1385093,6.4406794 2.938431,5.4813849 3.2346646,4.4819763 3.927909,3.7887317 4.3475329,3.3691082 4.886172,3.0880767 5.4691031,2.983171 6.0531154,2.8793462 6.6555448,2.95399 7.1952156,3.2016545 7.3480319,3.2720605 7.5291439,3.204699 7.59955,3.0512333 7.6699558,2.897768 7.6025945,2.7157785 7.449129,2.6447236 7.0000342,2.4395082 6.5156773,2.3318942 6.0269664,2.3261667 Z M 5.9073132,3.3763169 c -0.1529486,0.00282 -0.3067244,0.019958 -0.4593436,0.051902 -0.1153945,0.02423 -0.189258,0.137905 -0.165028,0.2536023 0.02423,0.1156973 0.1378295,0.1896365 0.2536023,0.165028 0.6716196,-0.1400781 1.3712901,0.067538 1.8566434,0.5528908 0.293786,0.2937862 0.4906325,0.6709328 0.5640788,1.0790534 0.07269,0.4088776 0.020487,0.8305075 -0.1529073,1.2083411 -0.049292,0.1069892 -0.00208,0.2338345 0.1053569,0.283127 0.1074437,0.049293 0.2349344,0.0024 0.2846811,-0.105046 C 8.4033789,6.4078778 8.4677302,5.8981571 8.3783828,5.4029608 8.2897926,4.9085218 8.0513227,4.4518394 7.6962047,4.0967219 7.2181871,3.6199343 6.5700908,3.3641185 5.9073132,3.3763169 Z m 2.9527899,0.7890889 c -0.039765,0.00119 -0.080044,0.010368 -0.1184098,0.027971 C 8.5882263,4.2637826 8.5208663,4.4448944 8.5912721,4.5977109 8.8389366,5.1373814 8.9146618,5.7408926 8.8097555,6.3238235 8.7048499,6.9067546 8.4238186,7.4453939 8.0041949,7.8650176 7.3109505,8.558262 6.3115417,8.8544959 5.3522471,8.6544173 5.1868851,8.6192687 5.0244773,8.7250512 4.9898691,8.890305 4.9552609,9.055559 5.0613271,9.2184662 5.226689,9.2536152 6.3882248,9.4958723 7.5975635,9.136881 8.4368109,8.2976336 8.9440365,7.790408 9.2845931,7.1381998 9.411129,6.4319775 9.5387468,5.7246733 9.4466983,4.9970263 9.1482029,4.3437978 9.094912,4.2286988 8.9793998,4.1618168 8.8601031,4.1654058 Z M 1.6315017,4.4634507 C 1.433992,4.4626021 1.2555339,4.6002544 1.2128712,4.8009659 0.87682074,6.4122079 1.3748257,8.0894403 2.5390006,9.2536152 3.2426064,9.9572208 4.1472793,10.429703 5.1269263,10.605229 6.1080735,10.782256 7.1176385,10.654738 8.0237747,10.240676 8.2366574,10.142111 8.3299776,9.8894787 8.2323129,9.6765969 8.1346482,9.4637139 7.8833237,9.370394 7.6713418,9.4680584 6.9227292,9.8116102 6.085658,9.9165978 5.2770367,9.7710761 4.4684149,9.6255542 3.7212183,9.2355726 3.1391307,8.653485 2.1774864,7.6918405 1.7663747,6.3057066 2.0439164,4.9750066 2.0926738,4.7456222 1.9462026,4.5204711 1.7169682,4.4724637 c -0.028654,-0.006 -0.057251,-0.00889 -0.085466,-0.00901 z M 3.7784203,5.1387916 C 3.6787347,5.1383673 3.5886174,5.2078016 3.5670849,5.309103 3.3974764,6.1223151 3.6489482,6.9688336 4.2365208,7.5564058 4.5916386,7.9115235 5.0483205,8.1499939 5.5427597,8.2385841 6.0379561,8.3279313 6.5473659,8.2635798 7.0047031,8.0545979 7.1121451,8.0048509 7.1593523,7.8773607 7.11006,7.7699167 7.0607672,7.6624728 6.9339224,7.6152673 6.8269327,7.6645598 6.4490996,7.8379544 6.0264014,7.8909139 5.618281,7.8174672 5.2101604,7.7440208 4.8333247,7.5471743 4.5395383,7.2533883 4.0541857,6.7680351 3.8465691,6.0686755 3.9866477,5.3970558 4.011256,5.2812829 3.9373168,5.1673727 3.8216196,5.1431427 c -0.014463,-0.00303 -0.028958,-0.00429 -0.043199,-0.00435 z"
         style="fill:url(#linearGradient6)" />
    </g>
    <path
       d="M 5.7334049,4.8750263 2.8922217,1.2538111 C 2.8053137,1.3088852 2.7213998,1.3682698 2.6404981,1.4317458 2.5602635,1.4960695 2.4831559,1.5643864 2.409774,1.6364455 l 2.8391873,3.6186718 -0.242222,0.190046 c -0.1337061,0.104905 -0.1570816,0.298561 -0.052176,0.432267 l 0.7601826,0.968888 c 0.1049055,0.133706 0.2985616,0.15708 0.4322674,0.05218 l 0.9688876,-0.760183 c 0.1337024,-0.104907 0.1570825,-0.29856 0.052175,-0.432268 L 6.4078934,4.7371573 C 6.3029888,4.6034513 6.1093331,4.5800753 5.9756268,4.6849813 Z"
       id="path4-5"
       style="fill:url(#linearGradient8)" />
  </g>
</svg>
