<?xml version="1.0" encoding="UTF-8" standalone="no"?>
<!-- Generator: Gravit.io -->

<svg
   style="isolation:isolate"
   viewBox="0 0 12 12"
   width="16"
   height="16"
   version="1.1"
   id="svg2"
   sodipodi:docname="com.github.muriloventuroso.easyssh.svg"
   inkscape:version="1.4.4 (unknown)"
   xmlns:inkscape="http://www.inkscape.org/namespaces/inkscape"
   xmlns:sodipodi="http://sodipodi.sourceforge.net/DTD/sodipodi-0.dtd"
   xmlns:xlink="http://www.w3.org/1999/xlink"
   xmlns="http://www.w3.org/2000/svg"
   xmlns:svg="http://www.w3.org/2000/svg">
  <defs
     id="defs2">
    <linearGradient
       id="linearGradient2"
       inkscape:collect="always">
      <stop
         style="stop-color:#00d455;stop-opacity:1"
         offset="0"
         id="stop3" />
      <stop
         style="stop-color:#8d5fd3;stop-opacity:1"
         offset="1"
         id="stop4" />
    </linearGradient>
    <linearGradient
       inkscape:collect="always"
       xlink:href="#linearGradient2"
       id="linearGradient4"
       x1="8.0761175"
       y1="6.7237077"
       x2="39.482998"
       y2="41.67281"
       gradientUnits="userSpaceOnUse" />
  </defs>
  <sodipodi:namedview
     id="namedview2"
     pagecolor="#ffffff"
     bordercolor="#000000"
     borderopacity="0.25"
     inkscape:showpageshadow="2"
     inkscape:pageopacity="0.0"
     inkscape:pagecheckerboard="0"
     inkscape:deskcolor="#d1d1d1"
     inkscape:document-units="px"
     inkscape:zoom="23.65625"
     inkscape:cx="6.9749009"
     inkscape:cy="9.7437252"
     inkscape:window-width="1920"
     inkscape:window-height="994"
     inkscape:window-x="0"
     inkscape:window-y="0"
     inkscape:window-maximized="1"
     inkscape:current-layer="svg2" />
  <linearGradient
     id="_lgradient_3"
     x1="0.22078557"
     y1="0.047239967"
     x2="0.9022491"
     y2="0.90614605"
     gradientTransform="matrix(47,0,0,47,0.5,0.5)"
     gradientUnits="userSpaceOnUse">
    <stop
       offset="2.608695652173913%"
       stop-opacity="1"
       style="stop-color:rgb(237,184,212)"
       id="stop1" />
    <stop
       offset="98.69565217391305%"
       stop-opacity="1"
       style="stop-color:rgb(162,110,245)"
       id="stop2" />
  </linearGradient>
  <g
     id="g2"
     transform="matrix(0.20744681,0,0,0.20744681,1.0212766,1.0212766)">
    <path
       d="M 42.456,30.274 C 41.507,33.078 39.919,35.655 37.79,37.79 34.13,41.44 29.17,43.5 24,43.5 v 0 c -4.565,0 -8.966,-1.606 -12.444,-4.507 5.572,-0.179 11.104,-1.036 16.474,-2.563 5.046,-1.456 9.889,-3.521 14.426,-6.156 z M 13,15 h 1 v 2 h -1 c -0.554,0 -1,-0.446 -1,-1 0,-0.554 0.446,-1 1,-1 z m 3,4 h 1 c 0.554,0 1,0.446 1,1 0,0.554 -0.446,1.026 -1,1 H 16 Z M 28.51,19.86 27.49,18.14 33,14.83 38.51,18.14 37.49,19.86 33,17.17 Z M 14,11 v 2 h -1 c -1.662,0 -3,1.338 -3,3 0,1.662 1.338,3 3,3 h 1 v 2 h -3.816 c 0.412,1.164 1.508,2 2.816,2 h 1 v 2 h 2 v -2 h 1 c 1.662,0 3,-1.338 3,-3 0,-1.662 -1.338,-3 -3,-3 h -1 v -2 h 3.816 C 19.404,13.836 18.308,13 17,13 H 16 V 11 Z M 43.476,24.962 C 43.492,24.643 43.5,24.322 43.5,24 v 0 C 43.5,18.83 41.44,13.87 37.79,10.21 34.13,6.56 29.17,4.5 24,4.5 18.83,4.5 13.87,6.56 10.21,10.21 6.56,13.87 4.5,18.83 4.5,24 v 0 c 0,3.951 1.203,7.78 3.4,10.999 L 8.02,35 9.24,35.01 c 5.98,0.02 11.94,-0.79 17.69,-2.42 5.65,-1.64 11.04,-4.09 15.99,-7.27 z M 0.5,24 C 0.5,11.03 11.03,0.5 24,0.5 36.97,0.5 47.5,11.03 47.5,24 47.5,36.97 36.97,47.5 24,47.5 11.03,47.5 0.5,36.97 0.5,24 Z M 20,26 h 8 v 2 h -8 z"
       fill-rule="evenodd"
       id="path2"
       style="fill:url(#linearGradient4)" />
  </g>
</svg>
