<?xml version="1.0" encoding="UTF-8" standalone="no"?>
<!-- Generator: Gravit.io -->

<svg
   style="isolation:isolate"
   viewBox="0 0 16 16"
   width="16"
   height="16"
   version="1.1"
   id="svg3"
   sodipodi:docname="com.mitchellh.ghostty.svg"
   inkscape:version="1.4.4 (unknown)"
   xmlns:inkscape="http://www.inkscape.org/namespaces/inkscape"
   xmlns:sodipodi="http://sodipodi.sourceforge.net/DTD/sodipodi-0.dtd"
   xmlns="http://www.w3.org/2000/svg"
   xmlns:svg="http://www.w3.org/2000/svg">
  <defs
     id="defs3" />
  <sodipodi:namedview
     id="namedview3"
     pagecolor="#ffffff"
     bordercolor="#000000"
     borderopacity="0.25"
     inkscape:showpageshadow="2"
     inkscape:pageopacity="0.0"
     inkscape:pagecheckerboard="0"
     inkscape:deskcolor="#d1d1d1"
     inkscape:document-units="px"
     inkscape:zoom="11.828125"
     inkscape:cx="15.978864"
     inkscape:cy="11.709379"
     inkscape:window-width="1920"
     inkscape:window-height="994"
     inkscape:window-x="0"
     inkscape:window-y="0"
     inkscape:window-maximized="1"
     inkscape:current-layer="svg3" />
  <linearGradient
     id="_lgradient_13"
     x1="0.027679898"
     y1="0.20566739"
     x2="0.91369122"
     y2="0.90918791"
     gradientTransform="matrix(12.39875,0,0,13,1.800625,1.5)"
     gradientUnits="userSpaceOnUse">
    <stop
       offset="1.3043478260869565%"
       stop-opacity="1"
       style="stop-color:rgb(223,87,255)"
       id="stop1" />
    <stop
       offset="52.083333333333336%"
       stop-opacity="1"
       style="stop-color:#ffb380;stop-opacity:1"
       id="stop2" />
    <stop
       offset="97.91666666666666%"
       stop-opacity="1"
       style="stop-color:#ffd42a;stop-opacity:1"
       id="stop3" />
  </linearGradient>
  <path
     d="m 4.425,5.725 v 0 C 4.1858542,5.5457083 4.137375,5.2058125 4.3166667,4.9666667 v 0 C 4.4959583,4.7275208 4.8358542,4.6790417 5.075,4.8583333 v 0 L 7.0195833,6.3154167 C 7.211875,6.45625 7.3283333,6.6783333 7.3310417,6.9166667 7.3283333,7.155 7.211875,7.3770833 7.0195833,7.5179167 L 5.075,8.975 v 0 C 4.8358542,9.1542917 4.4959583,9.1058125 4.3166667,8.8666667 v 0 C 4.137375,8.6275208 4.1858542,8.287625 4.425,8.1083333 v 0 L 6.0147917,6.9166667 Z m 8.691042,7.355833 v 0 c -0.238334,0.176042 -0.525417,0.273542 -0.823334,0.27625 -0.181458,0 -0.360208,-0.03521 -0.530833,-0.0975 -0.3575,-0.135416 -0.679792,-0.354791 -0.937083,-0.639166 -0.268125,0.297916 -0.60125,0.530833 -0.972292,0.687916 -0.1625,0.06771 -0.3385417,0.105625 -0.5172917,0.108334 -0.1597916,0 -0.3141666,-0.03521 -0.4577083,-0.100209 C 8.5227083,13.148542 8.2329167,12.872292 8.0514583,12.525625 7.78875,12.869583 7.4447917,13.137708 7.0466667,13.308333 c -0.1597917,0.06771 -0.3304167,0.105625 -0.50375,0.108334 -0.1625,-0.0027 -0.325,-0.03792 -0.47125,-0.102917 -0.3520834,-0.1625 -0.65,-0.419792 -0.8558334,-0.7475 C 4.945,12.885833 4.60375,13.132292 4.21375,13.283958 c -0.1679167,0.065 -0.3466667,0.100209 -0.5308333,0.102917 -0.2870834,-0.0054 -0.5660417,-0.105625 -0.7908334,-0.287083 -0.00542,-0.0027 -0.00813,-0.0081 -0.00813,-0.01625 V 7.1333333 c 0,-1.2079166 0.479375,-2.364375 1.3325,-3.2175 0.853125,-0.853125 2.0122917,-1.3325 3.2175,-1.3325 h 1.1320834 c 1.2052083,0 2.3643753,0.479375 3.2175003,1.3325 0.853125,0.853125 1.3325,2.0095834 1.3325,3.2175 z m -11.315417,0.0027 V 7.1333333 C 1.800625,5.6383333 2.3964583,4.205625 3.45,3.149375 4.50625,2.093125 5.9416667,1.5 7.4339583,1.5 H 8.5660417 C 10.058333,1.5 11.49375,2.093125 12.55,3.149375 c 1.053542,1.05625 1.649375,2.4889583 1.649375,3.9839583 v 5.9502087 c 0,0.0054 0,0.01083 0,0.01625 -0.0054,0.1625 -0.04875,0.322291 -0.124583,0.468541 -0.07312,0.148959 -0.17875,0.278959 -0.30875,0.379167 -0.425209,0.316875 -0.939792,0.490208 -1.470625,0.492917 -0.311459,0 -0.620209,-0.05687 -0.912709,-0.165209 -0.189583,-0.07312 -0.371041,-0.159791 -0.547083,-0.262708 -0.17875,0.11375 -0.368333,0.21125 -0.563333,0.295208 C 9.9770833,14.432292 9.6602083,14.497292 9.3379167,14.5 9.02375,14.5 8.7095833,14.432292 8.4225,14.299583 8.2654167,14.226458 8.1164583,14.139792 7.975625,14.039583 7.8158333,14.1425 7.6479167,14.229167 7.4745833,14.305 7.179375,14.429583 6.8652083,14.497292 6.545625,14.5 6.22875,14.497292 5.9145833,14.429583 5.6247917,14.299583 5.456875,14.22375 5.2970833,14.134375 5.1454167,14.02875 c -0.170625,0.102917 -0.349375,0.189583 -0.53625,0.262708 -0.2952084,0.116459 -0.609375,0.176042 -0.92625,0.17875 C 3.149375,14.464792 2.6320833,14.280625 2.2177083,13.9475 1.955,13.738958 1.800625,13.419375 1.800625,13.083542 Z M 9.0833333,6.375 H 11.25 c 0.299,0 0.541667,0.2426667 0.541667,0.5416667 v 0 c 0,0.299 -0.242667,0.5416666 -0.541667,0.5416666 H 9.0833333 c -0.299,0 -0.5416666,-0.2426666 -0.5416666,-0.5416666 v 0 c 0,-0.299 0.2426666,-0.5416667 0.5416666,-0.5416667 z"
     fill-rule="evenodd"
     fill="url(#_lgradient_13)"
     id="path3"
     style="fill:url(#_lgradient_13);stroke-width:0.270833" />
</svg>
