<?xml version="1.0" encoding="UTF-8" standalone="no"?>
<!-- Generator: Gravit.io -->

<svg
   style="isolation:isolate"
   viewBox="0 0 16 16"
   width="16"
   height="16"
   version="1.1"
   id="svg4"
   sodipodi:docname="com.leinardi.gwe.svg"
   inkscape:version="1.4.4 (unknown)"
   xmlns:inkscape="http://www.inkscape.org/namespaces/inkscape"
   xmlns:sodipodi="http://sodipodi.sourceforge.net/DTD/sodipodi-0.dtd"
   xmlns:xlink="http://www.w3.org/1999/xlink"
   xmlns="http://www.w3.org/2000/svg"
   xmlns:svg="http://www.w3.org/2000/svg">
  <defs
     id="defs4">
    <linearGradient
       id="linearGradient4"
       inkscape:collect="always">
      <stop
         style="stop-color:#00d455;stop-opacity:1"
         offset="0"
         id="stop5" />
      <stop
         style="stop-color:#535d6c;stop-opacity:1"
         offset="1"
         id="stop6" />
    </linearGradient>
    <linearGradient
       inkscape:collect="always"
       xlink:href="#linearGradient4"
       id="linearGradient6"
       x1="1.3450965"
       y1="8"
       x2="14.654904"
       y2="8"
       gradientUnits="userSpaceOnUse" />
  </defs>
  <sodipodi:namedview
     id="namedview4"
     pagecolor="#ffffff"
     bordercolor="#000000"
     borderopacity="0.25"
     inkscape:showpageshadow="2"
     inkscape:pageopacity="0.0"
     inkscape:pagecheckerboard="0"
     inkscape:deskcolor="#d1d1d1"
     inkscape:document-units="px"
     inkscape:zoom="16.727495"
     inkscape:cx="10.700945"
     inkscape:cy="13.18189"
     inkscape:window-width="1920"
     inkscape:window-height="994"
     inkscape:window-x="0"
     inkscape:window-y="0"
     inkscape:window-maximized="1"
     inkscape:current-layer="svg4" />
  <linearGradient
     id="_lgradient_21"
     x1="1.1010605"
     y1="0.12929827"
     x2="-0.030033669"
     y2="1.0401947"
     gradientTransform="matrix(13.309807,0,0,13.000283,1.3450965,1.500002)"
     gradientUnits="userSpaceOnUse">
    <stop
       offset="34.94098066785295%"
       stop-opacity="1"
       style="stop-color:rgb(178,229,107)"
       id="stop1" />
    <stop
       offset="53.84922244785295%"
       stop-opacity="1"
       style="stop-color:rgb(194,233,100)"
       id="stop2" />
    <stop
       offset="90.40515655585295%"
       stop-opacity="1"
       style="stop-color:rgb(236,244,81)"
       id="stop3" />
    <stop
       offset="100%"
       stop-opacity="1"
       style="stop-color:rgb(250,247,75)"
       id="stop4" />
  </linearGradient>
  <path
     d="m 3.7190563,13.571431 c -0.1990807,-0.11016 -0.3865507,-0.238161 -0.5609942,-0.38202 -0.097133,-0.08014 -0.188886,-0.165665 -0.2775236,-0.255152 -0.031151,-0.03143 -0.059186,-0.0657 -0.089487,-0.09855 -0.011327,-0.01246 -0.021805,-0.02549 -0.033133,-0.03795 h 3.3685139 c -1.6722215,-1.220538 -2.073498,-1.765957 -2.073498,-1.765957 0,0 0.2899838,-0.152638 0.7303402,-0.355966 0.4400732,-0.203612 0.9597221,-0.197099 1.4065917,-0.53211 0,0 1.4861674,1.723196 2.8010065,2.642422 0.00566,0.004 0.011894,0.0076 0.017558,0.01161 H 11.084477 C 10.54104,12.459071 10.012613,12.096874 9.5023091,11.71004 7.4407049,10.143447 6.3289113,7.4322113 6.3289113,7.4322113 c 0,0 1.762275,-2.1230558 5.4173747,-3.0170784 0.622446,-0.1532044 1.320786,-0.2503376 1.980047,-0.2939485 v 0 -1.3830872 c 0,-0.1710451 -0.138762,-0.3095238 -0.309524,-0.3095238 H 2.5831917 c -0.170762,0 -0.3095238,0.1384787 -0.3095238,0.3095238 v 5.7263321 0 c 0,0.2560014 -0.2081427,0.4641441 -0.4641441,0.4641441 v 0 c -0.2562846,0 -0.4644273,-0.2081427 -0.4644273,-0.4641441 v 0 -6.0358559 c 0,-0.5125691 0.4160023,-0.9285714 0.9285714,-0.9285714 H 13.726333 c 0.512569,0 0.928571,0.4160023 0.928571,0.9285714 v 2.321287 0 c 0,0.2562846 -0.09883,0.5003921 -0.22032,0.5448525 0,0 -0.127151,0.00113 -0.313205,-0.022089 v 0 C 13.462402,5.432342 12.513724,5.6756 11.736092,5.9927698 c -1.481071,0.6048883 -2.9363708,2.068967 -2.9363708,2.068967 0,0 0,0.6136671 1.4026268,2.3932162 0.955758,1.212892 2.051127,1.964188 2.681219,2.34281 h 0.360214 c -0.01501,0.01614 -0.02945,0.03257 -0.04474,0.04899 -0.04305,0.04644 -0.08609,0.09289 -0.131682,0.137063 -0.01189,0.01161 -0.02209,0.02435 -0.03398,0.03568 -0.03427,0.03257 -0.06938,0.06202 -0.105063,0.0909 -0.200214,0.175859 -0.419117,0.330762 -0.653879,0.461029 h 1.142378 c 0.170762,0 0.309524,-0.138479 0.309524,-0.309524 V 7.8450985 l 0.01699,-0.062301 c -0.518521,0.3599309 -1.001073,0.7909421 -1.378561,1.2825554 0.03965,0.7161809 0.414869,2.5838021 0.414869,2.5838021 -1.51222,-1.522699 -1.946064,-2.9213614 -1.946064,-2.9213614 0,0 0.911297,-1.4725744 3.129221,-2.4804383 0.05777,-0.026336 0.146691,-0.050974 0.220603,-0.075611 l 5.66e-4,-0.00227 v 0 c 0.0023,-2.832e-4 0.0042,-2.832e-4 0.0065,0 0.256851,-0.00793 0.464427,0.3936304 0.464427,0.9019518 v 0.7736679 5.726333 c 0,0.512568 -0.416002,0.928571 -0.928571,0.928571 H 2.2736679 C 1.7610988,14.500002 1.3450965,14.084 1.3450965,13.571431 v -2.630811 0 c 0,-0.256285 0.2081427,-0.464428 0.4644273,-0.464428 v 0 c 0.2560014,0 0.4641441,0.208143 0.4641441,0.464428 v 0 2.321287 c 0,0.171045 0.1387618,0.309524 0.3095238,0.309524 z"
     fill-rule="evenodd"
     id="path4"
     style="fill:url(#linearGradient6)" />
</svg>
