<?xml version="1.0" encoding="UTF-8" standalone="no"?>
<!-- Generator: Gravit.io -->

<svg
   style="isolation:isolate"
   viewBox="0 0 16 16"
   width="16pt"
   height="16pt"
   version="1.1"
   id="svg2"
   sodipodi:docname="com.github.gi_lom.dialect.svg"
   inkscape:version="1.4.4 (unknown)"
   xmlns:inkscape="http://www.inkscape.org/namespaces/inkscape"
   xmlns:sodipodi="http://sodipodi.sourceforge.net/DTD/sodipodi-0.dtd"
   xmlns:xlink="http://www.w3.org/1999/xlink"
   xmlns="http://www.w3.org/2000/svg"
   xmlns:svg="http://www.w3.org/2000/svg">
  <defs
     id="defs2">
    <linearGradient
       id="linearGradient2"
       inkscape:collect="always">
      <stop
         style="stop-color:#3584e4;stop-opacity:1"
         offset="0"
         id="stop3" />
      <stop
         style="stop-color:#f66151;stop-opacity:1"
         offset="1"
         id="stop4" />
    </linearGradient>
    <linearGradient
       inkscape:collect="always"
       xlink:href="#linearGradient2"
       id="linearGradient4"
       x1="1.500575"
       y1="8.0000001"
       x2="14.499425"
       y2="8.0000001"
       gradientUnits="userSpaceOnUse" />
  </defs>
  <sodipodi:namedview
     id="namedview2"
     pagecolor="#ffffff"
     bordercolor="#000000"
     borderopacity="0.25"
     inkscape:showpageshadow="2"
     inkscape:pageopacity="0.0"
     inkscape:pagecheckerboard="0"
     inkscape:deskcolor="#d1d1d1"
     inkscape:document-units="pt"
     inkscape:zoom="11.828125"
     inkscape:cx="19.27609"
     inkscape:cy="4.9458388"
     inkscape:window-width="1920"
     inkscape:window-height="994"
     inkscape:window-x="0"
     inkscape:window-y="0"
     inkscape:window-maximized="1"
     inkscape:current-layer="svg2" />
  <linearGradient
     id="_lgradient_1"
     x1="0.18336116"
     y1="0.24917752"
     x2="0.9027437"
     y2="0.90347725"
     gradientTransform="matrix(12.99885,0,0,12.999956,1.500575,1.4999999)"
     gradientUnits="userSpaceOnUse">
    <stop
       offset="2.608695652173913%"
       stop-opacity="1"
       style="stop-color:rgb(179,255,171)"
       id="stop1" />
    <stop
       offset="98.69565217391305%"
       stop-opacity="1"
       style="stop-color:rgb(18,255,247)"
       id="stop2" />
  </linearGradient>
  <path
     d="m 10.581793,10.076198 0.652708,2.004313 v 0 0 0 l -1.6171123,1.511462 h 3.5215823 c 0.121138,0 0.235915,-0.0484 0.320546,-0.133031 0.08463,-0.08463 0.133031,-0.199408 0.133031,-0.320546 V 5.2787932 c 0,-0.1208617 -0.0484,-0.2359153 -0.133031,-0.3205461 -0.08463,-0.084631 -0.199408,-0.1330308 -0.320546,-0.1330308 H 8.871476 L 9.6099212,7.0925476 H 10.116047 V 6.4879628 h 0.604584 V 7.0925476 H 13.1398 v 0.6051379 h -0.0014 v -0.00111 h -1.020825 c -0.09929,0.6217323 -0.569184,1.3126073 -1.031887,1.8521978 0.34516,0.3650741 0.815055,0.8197577 1.455871,1.3928127 l -0.389118,0.383055 c -0.5985,-0.548994 -1.061204,-1.009485 -1.419917,-1.3928128 -0.04481,0.046741 -0.08823,0.091269 -0.150731,0.1443698 z M 10.003759,8.3017172 9.80684,7.6971324 h 0.913791 v 5.531e-4 h 0.840777 C 11.406252,8.2361698 11.063303,8.7555706 10.728929,9.150791 10.30937,8.6612598 10.187955,8.4090268 10.151448,8.3017172 Z M 8.3827745,12.080511 h 1.5352471 v 0 L 9.0188884,12.922117 Z M 9.9860582,11.173633 H 2.8610291 c -0.1211382,0 -0.2359153,-0.0484 -0.3205461,-0.13303 -0.084631,-0.08463 -0.1330308,-0.199685 -0.1330308,-0.320547 V 2.860454 c 0,-0.1211382 0.0484,-0.2359153 0.1330308,-0.3205461 0.084631,-0.084631 0.1994079,-0.1330308 0.3205461,-0.1330308 h 3.966032 c 0.1667725,0 0.3443312,0.1288822 0.3957735,0.2873575 L 9.6837658,10.257629 Z M 7.241918,12.080511 H 2.8610291 c -0.3598192,0 -0.7074693,-0.142158 -0.9613618,-0.399093 C 1.6427326,11.427526 1.500575,11.079876 1.500575,10.720056 V 2.860454 c 0,-0.3598192 0.1421576,-0.7074693 0.3990923,-0.9613618 C 2.1535598,1.6421575 2.5012099,1.4999999 2.8610291,1.4999999 h 4.322809 c 0.3335449,0 0.6883858,0.2574878 0.7918235,0.5749917 l 0.6004362,1.8433475 h 0.028487 4.5343862 c 0.359819,0 0.707469,0.1421576 0.961361,0.3990923 0.256935,0.2538925 0.399093,0.6015426 0.399093,0.9613618 v 7.8596028 c 0,0.359819 -0.142158,0.707469 -0.399093,0.961361 -0.253892,0.256935 -0.601542,0.399093 -0.961361,0.399093 H 9.4600196 C 9.2575694,14.507977 9.0581616,14.462619 8.8797731,14.368861 8.6610052,14.246064 8.5254853,14.019552 8.5229962,13.771191 L 8.4806807,13.715876 7.334846,12.204414 Z M 5.2536472,6.0067288 c 0.6123287,0 1.0894142,0.5207837 1.0894142,1.1032428 0,0.5702899 -0.4826169,1.1618759 -1.0894142,1.0805639 H 4.7870714 V 6.0067288 Z M 3.6948915,8.9187477 h 1.5803282 c 1.1530256,0 2.0596263,-0.8003973 2.0596263,-1.8087761 0,-1.0246966 -0.9066007,-1.8311784 -2.0596263,-1.8311784 H 3.6948915 Z"
     fill-rule="evenodd"
     id="path2"
     style="fill:url(#linearGradient4)" />
</svg>
