<?xml version="1.0" encoding="UTF-8" standalone="no"?>
<svg
   clip-rule="evenodd"
   fill-rule="evenodd"
   stroke-linecap="round"
   viewBox="0 0 16 16"
   version="1.1"
   id="svg8"
   sodipodi:docname="com.github.maoschanz.drawing.svg"
   width="16"
   height="16"
   inkscape:version="1.4.4 (unknown)"
   xmlns:inkscape="http://www.inkscape.org/namespaces/inkscape"
   xmlns:sodipodi="http://sodipodi.sourceforge.net/DTD/sodipodi-0.dtd"
   xmlns="http://www.w3.org/2000/svg"
   xmlns:svg="http://www.w3.org/2000/svg">
  <defs
     id="defs8" />
  <sodipodi:namedview
     id="namedview8"
     pagecolor="#ffffff"
     bordercolor="#000000"
     borderopacity="0.25"
     inkscape:showpageshadow="2"
     inkscape:pageopacity="0.0"
     inkscape:pagecheckerboard="0"
     inkscape:deskcolor="#d1d1d1"
     inkscape:zoom="22.833657"
     inkscape:cx="6.6568401"
     inkscape:cy="11.364803"
     inkscape:window-width="1920"
     inkscape:window-height="994"
     inkscape:window-x="0"
     inkscape:window-y="0"
     inkscape:window-maximized="1"
     inkscape:current-layer="svg8" />
  <linearGradient
     id="a"
     x2="1"
     gradientTransform="matrix(0,-43.3373,43.3373,0,302.963,45.6687)"
     gradientUnits="userSpaceOnUse">
    <stop
       stop-color="#d0d0d0"
       offset="0"
       id="stop1" />
    <stop
       stop-color="#f2fbff"
       offset="1"
       id="stop2" />
  </linearGradient>
  <path
     d="m 14.314728,4.4624185 c 0,-1.0024642 -12.6360634,-1.0024642 -12.6360634,0 v 7.8727555 c 0,1.002464 0.813518,1.815982 1.815982,1.815982 h 9.0040984 c 1.002464,0 1.815983,-0.813518 1.815983,-1.815982 z"
     id="path2"
     style="fill:#2a7fff;fill-opacity:0.0086789;stroke:#2a7fff;stroke-width:0.697689;stroke-dasharray:none;stroke-opacity:1" />
  <path
     d="M 14.67018,4.4714142 H 1.3411946 V 3.3308239 C 1.3411946,2.3201668 2.1993234,1.5 3.2567595,1.5 h 9.4978555 c 1.057436,0 1.915565,0.8201668 1.915565,1.8308239 z"
     id="path3"
     style="fill:#8d5fd3;fill-opacity:1;stroke-width:0.300695" />
  <g
     id="g1"
     transform="translate(0.31322158,0.218975)">
    <path
       d="m 3.5279723,9.6960936 c 1.2288436,0.2193771 -0.25515,1.7223234 1.465041,1.5730714 1.0106512,-0.08789 1.1404767,1.386388 1.1404767,1.386388"
       fill="none"
       stroke="#ff4f27"
       stroke-width="0.473813"
       id="path4"
       style="stroke:#aabbd1;stroke-opacity:1" />
    <path
       d="M 7.645676,12.143594 6.1749493,11.06187 10.525771,5.1630901 c 0.190235,-0.2963726 0.458179,-0.083867 0.458179,-0.083867 l 0.907125,0.6676079 c 0,0 0.325748,0.1994767 0.112293,0.4889788 z"
       fill-rule="nonzero"
       id="path5"
       style="fill:#c83771;stroke-width:0.236907" />
    <path
       d="M 7.4985558,12.035565 6.3218322,11.170137 5.8961079,12.670243 6.190348,12.886538 Z"
       fill-rule="nonzero"
       id="path6"
       style="fill:#aabbd1;fill-opacity:1;stroke-width:0.236907" />
    <path
       d="M 6.8240779,10.180097 8.2948045,11.261821 8.5113392,10.968054 7.0406121,9.8863312 Z"
       id="path7"
       style="fill:#2d3d53;fill-opacity:1;stroke-width:0.236907" />
    <path
       d="m 7.9088812,8.7107923 c 0.2016092,0.1483045 0.611934,-0.060885 0.9092542,-0.4636295 0,-2.369e-4 2.37e-4,-4.739e-4 4.738e-4,-4.739e-4 C 9.1159299,7.8434707 9.1945824,7.3897911 8.9927375,7.2414866 Z"
       fill-rule="nonzero"
       id="path8"
       style="fill:#aabbd1;fill-opacity:1;stroke-width:0.236907;stroke:#aabbd1;stroke-opacity:1" />
  </g>
</svg>
