<?xml version="1.0" encoding="UTF-8" standalone="no"?>
<svg
   width="16"
   height="16"
   version="1.1"
   id="svg23"
   sodipodi:docname="cool-retro-term.svg"
   inkscape:version="1.4.4 (unknown)"
   xmlns:inkscape="http://www.inkscape.org/namespaces/inkscape"
   xmlns:sodipodi="http://sodipodi.sourceforge.net/DTD/sodipodi-0.dtd"
   xmlns:xlink="http://www.w3.org/1999/xlink"
   xmlns="http://www.w3.org/2000/svg"
   xmlns:svg="http://www.w3.org/2000/svg">
  <sodipodi:namedview
     id="namedview23"
     pagecolor="#ffffff"
     bordercolor="#000000"
     borderopacity="0.25"
     inkscape:showpageshadow="2"
     inkscape:pageopacity="0.0"
     inkscape:pagecheckerboard="0"
     inkscape:deskcolor="#d1d1d1"
     inkscape:zoom="16.948466"
     inkscape:cx="14.986607"
     inkscape:cy="8.9388621"
     inkscape:window-width="1920"
     inkscape:window-height="994"
     inkscape:window-x="0"
     inkscape:window-y="0"
     inkscape:window-maximized="1"
     inkscape:current-layer="svg23" />
  <defs
     id="defs22">
    <linearGradient
       id="linearGradient28"
       x1="0%"
       x2="0%"
       y1="0%"
       y2="100%">
      <stop
         offset="0"
         style="stop-color:#00d3d3;stop-opacity:1;"
         id="stop27" />
      <stop
         offset="1"
         style="stop-color:#ac8adf;stop-opacity:1;"
         id="stop28" />
    </linearGradient>
    <linearGradient
       id="linearGradient26"
       x1="0%"
       x2="0%"
       y1="0%"
       y2="100%">
      <stop
         offset="0%"
         style="stop-color:#008080;stop-opacity:1"
         id="stop25" />
      <stop
         offset="1"
         style="stop-color:#7e49cd;stop-opacity:1;"
         id="stop26" />
    </linearGradient>
    <linearGradient
       id="linearGradient24"
       x1="0%"
       x2="0%"
       y1="0%"
       y2="100%">
      <stop
         offset="0%"
         style="stop-color:#008080;stop-opacity:1"
         id="stop23" />
      <stop
         offset="100%"
         style="stop-color:#aa87de;stop-opacity:1"
         id="stop24" />
    </linearGradient>
    <style
       id="current-color-scheme"
       type="text/css">
   .ColorScheme-Text { color:#d5c289; } .ColorScheme-Highlight { color:#5294e2; }
  </style>
    <linearGradient
       id="arrongin"
       x1="0%"
       x2="0%"
       y1="0%"
       y2="100%">
      <stop
         offset="0%"
         style="stop-color:#dd9b44; stop-opacity:1"
         id="stop1" />
      <stop
         offset="100%"
         style="stop-color:#ad6c16; stop-opacity:1"
         id="stop2" />
    </linearGradient>
    <linearGradient
       id="aurora"
       x1="0%"
       x2="0%"
       y1="0%"
       y2="100%">
      <stop
         offset="0%"
         style="stop-color:#09D4DF; stop-opacity:1"
         id="stop3" />
      <stop
         offset="100%"
         style="stop-color:#9269F4; stop-opacity:1"
         id="stop4" />
    </linearGradient>
    <linearGradient
       id="fitdance"
       x1="0%"
       x2="0%"
       y1="0%"
       y2="100%">
      <stop
         offset="0%"
         style="stop-color:#1AD6AB; stop-opacity:1"
         id="stop5" />
      <stop
         offset="100%"
         style="stop-color:#329DB6; stop-opacity:1"
         id="stop6" />
    </linearGradient>
    <linearGradient
       id="oomox"
       x1="162.23543"
       x2="160.50337"
       y1="568.11267"
       y2="569.84473"
       xlink:href="#aurora"
       gradientTransform="scale(1.7320508,0.57735027)"
       gradientUnits="userSpaceOnUse">
      <stop
         offset="0%"
         style="stop-color:#303b3d; stop-opacity:1"
         id="stop7" />
      <stop
         offset="100%"
         style="stop-color:#bc985d; stop-opacity:1"
         id="stop8" />
    </linearGradient>
    <linearGradient
       id="rainblue"
       x1="0%"
       x2="0%"
       y1="0%"
       y2="100%">
      <stop
         offset="0%"
         style="stop-color:#00F260; stop-opacity:1"
         id="stop9" />
      <stop
         offset="100%"
         style="stop-color:#0575E6; stop-opacity:1"
         id="stop10" />
    </linearGradient>
    <linearGradient
       id="sunrise"
       x1="0%"
       x2="0%"
       y1="0%"
       y2="100%">
      <stop
         offset="0%"
         style="stop-color: #FF8501; stop-opacity:1"
         id="stop11" />
      <stop
         offset="100%"
         style="stop-color: #FFCB01; stop-opacity:1"
         id="stop12" />
    </linearGradient>
    <linearGradient
       id="telinkrin"
       x1="0%"
       x2="0%"
       y1="0%"
       y2="100%">
      <stop
         offset="0%"
         style="stop-color: #b2ced6; stop-opacity:1"
         id="stop13" />
      <stop
         offset="100%"
         style="stop-color: #6da5b7; stop-opacity:1"
         id="stop14" />
    </linearGradient>
    <linearGradient
       id="60spsycho"
       x1="0%"
       x2="0%"
       y1="0%"
       y2="100%">
      <stop
         offset="0%"
         style="stop-color: #df5940; stop-opacity:1"
         id="stop15" />
      <stop
         offset="25%"
         style="stop-color: #d8d15f; stop-opacity:1"
         id="stop16" />
      <stop
         offset="50%"
         style="stop-color: #e9882a; stop-opacity:1"
         id="stop17" />
      <stop
         offset="100%"
         style="stop-color: #279362; stop-opacity:1"
         id="stop18" />
    </linearGradient>
    <linearGradient
       id="90ssummer"
       x1="0%"
       x2="0%"
       y1="0%"
       y2="100%">
      <stop
         offset="0%"
         style="stop-color: #f618c7; stop-opacity:1"
         id="stop19" />
      <stop
         offset="20%"
         style="stop-color: #94ffab; stop-opacity:1"
         id="stop20" />
      <stop
         offset="50%"
         style="stop-color: #fbfd54; stop-opacity:1"
         id="stop21" />
      <stop
         offset="100%"
         style="stop-color: #0f83ae; stop-opacity:1"
         id="stop22" />
    </linearGradient>
    <linearGradient
       inkscape:collect="always"
       xlink:href="#aurora-1"
       id="linearGradient26-3"
       x1="0.5"
       y1="15"
       x2="15.5"
       y2="1"
       gradientUnits="userSpaceOnUse"
       gradientTransform="matrix(0.86666667,0,0,0.85714286,1.066666,1.1428571)" />
    <linearGradient
       id="aurora-1"
       x1="0"
       x2="0"
       y1="0"
       y2="1">
      <stop
         offset="0"
         style="stop-color:#9a9996;stop-opacity:1"
         id="stop3-4" />
      <stop
         offset="0.5049538"
         style="stop-color:#f6d32d;stop-opacity:1"
         id="stop1-9" />
      <stop
         offset="1"
         style="stop-color:#ffa348;stop-opacity:1"
         id="stop4-9" />
    </linearGradient>
  </defs>
  <path
     class="ColorScheme-Text"
     d="m 2.892856,2.0000001 c -0.763285,0 -1.392856,0.678 -1.392856,1.5 V 12.5 c 0,0.822994 0.629571,1.5 1.392856,1.5 H 13.107142 C 13.87043,14 14.5,13.322994 14.5,12.5 V 3.5000001 c 0,-0.822 -0.62957,-1.5 -1.392858,-1.5 z m 0,0.999999 h 3.249999 0.928571 v 0 h 3.528575 v 0 0 0 h 2.507141 c 0.265565,0 0.462469,0.215007 0.464277,0.500001 L 13.571001,12 H 13 3 2.374638 l 0.05393,-8.4999999 c 0.0018,-0.284994 0.198716,-0.500001 0.464286,-0.500001 z m 4.17857,0 H 8.92857 v 0 0 z"
     font-family="sans-serif"
     font-weight="400"
     overflow="visible"
     id="path22-2"
     sodipodi:nodetypes="sssssssssscccccccssccccssccccc"
     style="color:#d5c289;fill:url(#linearGradient26-3);stroke-width:0.861892" />
  <g
     id="g1"
     transform="matrix(0.19852948,0,0,0.19354836,1.7067815,-9.01929)">
    <path
       style="opacity:0.2"
       d="m 10.528802,68.266341 v 2 h 6 v -2 z m 6,2 v 2 h 2 v -2 z m -6,0 H 8.5288016 l 0.183594,10 h 1.8164064 z m 0,10 v 2 h 6 v -2 z m 6,0 h 2 v -2 h -2 z m 4,-12 v 14 h 2 v -4 h 6 v -2 h -6 v -6 h 6 v -2 z m 8,2 v 6 h 2 v -6 z m 0,8 v 4 h 2 v -4 z m 4,-10 v 2 h 4 v 12 h 2 v -12 h 4 v -2 h -6 z m -24.0000004,16 v 14 H 18.528802 v -14 z"
       id="path3-6" />
    <path
       style="fill:#ffc105"
       d="m 10.528802,67.266341 v 2 h 6 v -2 z m 6,2 v 2 h 2 v -2 z m -6,0 H 8.5288016 l 0.183594,10 h 1.8164064 z m 0,10 v 2 h 6 v -2 z m 6,0 h 2 v -2 h -2 z m 4,-12 v 14 h 2 v -4 h 6 v -2 h -6 v -6 h 6 v -2 z m 8,2 v 6 h 2 v -6 z m 0,8 v 4 h 2 v -4 z m 4,-10 v 2 h 4 v 12 h 2 v -12 h 4 v -2 h -6 z m -24.0000004,16 v 14 H 18.528802 v -14 z"
       id="path4" />
  </g>
</svg>
