<?xml version="1.0" encoding="UTF-8" standalone="no"?>
<!-- Generator: Gravit.io -->

<svg
   style="isolation:isolate"
   viewBox="0 0 16 16"
   width="16"
   height="16"
   version="1.1"
   id="svg6"
   sodipodi:docname="cozydrive.svg"
   inkscape:version="1.4.4 (unknown)"
   xmlns:inkscape="http://www.inkscape.org/namespaces/inkscape"
   xmlns:sodipodi="http://sodipodi.sourceforge.net/DTD/sodipodi-0.dtd"
   xmlns:xlink="http://www.w3.org/1999/xlink"
   xmlns="http://www.w3.org/2000/svg"
   xmlns:svg="http://www.w3.org/2000/svg">
  <defs
     id="defs6">
    <linearGradient
       id="linearGradient6"
       inkscape:collect="always">
      <stop
         style="stop-color:#207bf6;stop-opacity:1;"
         offset="0"
         id="stop6" />
      <stop
         style="stop-color:#ffdd55;stop-opacity:1"
         offset="1"
         id="stop7" />
    </linearGradient>
    <linearGradient
       inkscape:collect="always"
       xlink:href="#linearGradient6"
       id="linearGradient7"
       x1="5.3685594"
       y1="9.9867897"
       x2="12.829593"
       y2="4.1532364"
       gradientUnits="userSpaceOnUse" />
  </defs>
  <sodipodi:namedview
     id="namedview6"
     pagecolor="#ffffff"
     bordercolor="#000000"
     borderopacity="0.25"
     inkscape:showpageshadow="2"
     inkscape:pageopacity="0.0"
     inkscape:pagecheckerboard="0"
     inkscape:deskcolor="#d1d1d1"
     inkscape:document-units="px"
     inkscape:zoom="23.65625"
     inkscape:cx="6.678996"
     inkscape:cy="11.561427"
     inkscape:window-width="1920"
     inkscape:window-height="994"
     inkscape:window-x="0"
     inkscape:window-y="0"
     inkscape:window-maximized="1"
     inkscape:current-layer="svg6" />
  <linearGradient
     id="_lgradient_39"
     x1="0"
     y1="0.5"
     x2="1"
     y2="0.5"
     gradientTransform="matrix(15.99989,0,0,11.500052,7.2284351e-5,2.2499879)"
     gradientUnits="userSpaceOnUse">
    <stop
       offset="0%"
       stop-opacity="1"
       style="stop-color:rgb(84,51,255)"
       id="stop1" />
    <stop
       offset="51.73913043478261%"
       stop-opacity="1"
       style="stop-color:rgb(32,189,255)"
       id="stop2" />
    <stop
       offset="98.26086956521739%"
       stop-opacity="1"
       style="stop-color:rgb(165,254,203)"
       id="stop3" />
  </linearGradient>
  <g
     id="g6">
    <path
       d="m 13.396407,6.767424 c 0.0048,9.93e-4 0.01015,0.002 0.01498,0.0034 0.241701,0.06469 0.479656,0.151062 0.710805,0.255328 0.202892,0.09704 0.398293,0.208185 0.57974,0.341352 0.199149,0.14728 0.380253,0.316234 0.540253,0.506527 0.156592,0.190633 0.29174,0.39538 0.398293,0.618358 0.113701,0.240876 0.202551,0.492419 0.255999,0.751187 0.064,0.294554 0.0994,0.596335 0.103115,0.901906 0.0034,0.294554 -0.01431,0.589453 -0.05683,0.880568 -0.03573,0.244315 -0.096,0.488629 -0.184849,0.722281 -0.07489,0.204742 -0.170895,0.39882 -0.288,0.585668 -0.110301,0.176185 -0.24204,0.341354 -0.391145,0.488979 -0.152849,0.150718 -0.323741,0.283885 -0.50859,0.395032 -0.199151,0.118716 -0.408851,0.219541 -0.625703,0.294901 -0.216847,0.07537 -0.444251,0.129383 -0.671991,0.165171 -0.269958,0.04336 -0.543998,0.06848 -0.817698,0.07193 -0.0034,0 -0.0072,0 -0.01075,0 H 9.9554107 9.2442684 6.0446278 3.5557933 c -0.0034,0 -0.00715,0 -0.010583,0 -0.2845865,-0.0034 -0.5725846,-0.02865 -0.8534339,-0.07544 C 2.4538342,13.63505 2.2226869,13.573802 1.994944,13.491214 1.7924006,13.415911 1.593253,13.318872 1.4084033,13.20394 1.2307021,13.095892 1.0669587,12.966506 0.92125774,12.823016 0.76500344,12.664725 0.62611044,12.492329 0.50900484,12.305479 0.38815482,12.107617 0.29215546,11.895648 0.21726234,11.676452 0.13930534,11.450029 0.08245473,11.220166 0.05045496,10.982732 0.01471056,10.706069 -0.00299164,10.425967 4.1296435e-4,10.145521 0.00415596,9.843738 0.03956176,9.541612 0.10356131,9.243616 0.15700751,8.984846 0.24585821,8.733305 0.35955959,8.495872 0.46611159,8.273235 0.60126014,8.064706 0.75785474,7.877857 0.91410914,7.68722 1.0955545,7.518608 1.2947022,7.370987 1.4795517,7.238161 1.674955,7.119444 1.8849958,7.026191 2.115803,6.91813 2.3578439,6.832114 2.6066933,6.767424 c 0.00169,-6.88e-4 0.0034,-0.0011 0.00542,-0.0014 C 2.8620104,5.546188 3.5013256,4.4354107 4.4340851,3.6119629 5.4223337,2.7351787 6.6917721,2.2534292 8.0034229,2.249988 c 0,0 0,0 0.00374,0 v 0 0 C 9.344006,2.253428 10.63081,2.7530722 11.626549,3.6549763 12.53207,4.4753274 13.153344,5.568211 13.396407,6.767424 Z m -1.243906,1.261493 v 0 c 0.01261,0.0031 0.0041,3.43e-4 9.89e-4,-3.41e-4 z m 0,-3.41e-4 c 0,0 0,0 0,3.41e-4 0.0041,0.0034 -0.0011,0.0034 0.33804,0.02135 0.18485,0.02511 0.3697,0.06124 0.554552,0.111492 0.167145,0.04301 0.33055,0.100466 0.487144,0.176181 0.117104,0.05368 0.231147,0.118374 0.333956,0.194076 0.106904,0.07881 0.202893,0.168958 0.287998,0.269437 0.08205,0.100466 0.152848,0.208535 0.206295,0.323461 0.06774,0.132823 0.113703,0.276662 0.145703,0.420497 0.04289,0.204745 0.06774,0.413274 0.07119,0.621802 0.0036,0.215412 -0.01075,0.434607 -0.04258,0.64692 -0.02143,0.147278 -0.05683,0.294554 -0.110297,0.434607 -0.03918,0.108061 -0.08885,0.211974 -0.152847,0.312794 -0.05342,0.08259 -0.117447,0.161731 -0.184853,0.229862 -0.07457,0.0757 -0.159999,0.140396 -0.248848,0.194078 -0.110298,0.06847 -0.231149,0.12216 -0.355742,0.165517 -0.138555,0.05023 -0.28085,0.08603 -0.426551,0.107728 -0.206298,0.03233 -0.412253,0.05023 -0.618552,0.05403 H 9.9554097 6.7557714 6.0446275 3.5629418 C 3.3460922,12.308994 3.1326469,12.291032 2.9195419,12.25526 2.7700964,12.229786 2.6243951,12.190567 2.4820981,12.139992 2.3646522,12.096962 2.2546955,12.042954 2.1478026,11.978261 2.0626966,11.924587 1.9843994,11.863335 1.9132508,11.791414 1.8386988,11.719495 1.7746987,11.63691 1.7212522,11.547105 1.6538482,11.439399 1.6004016,11.324461 1.561253,11.205745 1.511552,11.069135 1.479551,10.929084 1.461849,10.785245 1.433251,10.580502 1.418956,10.375414 1.422698,10.167229 1.426098,9.958703 1.450955,9.750171 1.493848,9.548873 1.525848,9.401594 1.571804,9.261541 1.6358045,9.12493 1.6929955,9.010005 1.7638035,8.901952 1.8458454,8.804914 1.9275454,8.704449 2.0235465,8.610838 2.1300988,8.53548 2.236992,8.45633 2.3506929,8.388196 2.4715435,8.334173 2.6315424,8.262233 2.7986901,8.201353 2.9692421,8.158336 3.150688,8.107756 3.6694929,7.942584 3.8580872,7.920908 v 0 c -0.00921,0 -0.017704,-0.0017 -0.026213,-0.0045 l 0.026213,0.0045 v 0 L 3.9789394,7.21305 C 4.1423422,6.235442 4.6332325,5.344205 5.3692275,4.6938434 6.0980735,4.046922 7.0366207,3.6911157 8.0034228,3.6873309 c 0.00374,0 0.00374,0 0.00374,0 v 0 0 c 0,0 0,0 0,0 h -0.00374 c 0.9885877,0.00377 1.9414349,0.374043 2.6736822,1.0388588 0.743146,0.6754803 1.230292,1.5918373 1.372587,2.5911233 z"
       fill-rule="evenodd"
       id="path3"
       style="fill:url(#linearGradient7)" />
    <path
       d="m 6.6383255,8.688225 c 0,0 0.5382094,0.516162 1.3616931,0.516162 0.8234816,0 1.361694,-0.516162 1.361694,-0.516162"
       fill="none"
       vector-effect="non-scaling-stroke"
       stroke-width="0.684518"
       stroke="#207bf6"
       stroke-linejoin="miter"
       stroke-linecap="butt"
       stroke-miterlimit="4"
       id="path4"
       style="stroke-width:7.08399989;stroke-dasharray:none" />
    <path
       d="m 6.7083411,8.412941 -0.055151,0.345141 -0.21719,0.17102"
       fill="none"
       vector-effect="non-scaling-stroke"
       stroke-width="0.684518"
       stroke="#207bf6"
       stroke-linejoin="round"
       stroke-linecap="round"
       stroke-miterlimit="4"
       id="path5"
       style="stroke-width:6.684;stroke-dasharray:none" />
    <path
       d="m 9.2881797,8.412941 0.055161,0.345141 0.217192,0.17102"
       fill="none"
       vector-effect="non-scaling-stroke"
       stroke-width="0.684518"
       stroke="#207bf6"
       stroke-linejoin="round"
       stroke-linecap="round"
       stroke-miterlimit="4"
       id="path6"
       style="stroke-width:6.684;stroke-dasharray:none" />
  </g>
</svg>
