<?xml version="1.0" encoding="UTF-8" standalone="no"?>
<!-- Generator: Gravit.io -->

<svg
   style="isolation:isolate"
   viewBox="0 0 16 16"
   width="16"
   height="16"
   version="1.1"
   id="svg2"
   sodipodi:docname="cqrlog.svg"
   inkscape:version="1.4.4 (unknown)"
   xmlns:inkscape="http://www.inkscape.org/namespaces/inkscape"
   xmlns:sodipodi="http://sodipodi.sourceforge.net/DTD/sodipodi-0.dtd"
   xmlns:xlink="http://www.w3.org/1999/xlink"
   xmlns="http://www.w3.org/2000/svg"
   xmlns:svg="http://www.w3.org/2000/svg">
  <defs
     id="defs2">
    <linearGradient
       id="linearGradient2"
       inkscape:collect="always">
      <stop
         style="stop-color:#00d455;stop-opacity:1"
         offset="0"
         id="stop3" />
      <stop
         style="stop-color:#55ff55;stop-opacity:1"
         offset="1"
         id="stop4" />
    </linearGradient>
    <linearGradient
       inkscape:collect="always"
       xlink:href="#linearGradient2"
       id="linearGradient4"
       x1="9.100131"
       y1="7.4304276"
       x2="14.360524"
       y2="7.9999905"
       gradientUnits="userSpaceOnUse" />
  </defs>
  <sodipodi:namedview
     id="namedview2"
     pagecolor="#ffffff"
     bordercolor="#000000"
     borderopacity="0.25"
     inkscape:showpageshadow="2"
     inkscape:pageopacity="0.0"
     inkscape:pagecheckerboard="0"
     inkscape:deskcolor="#d1d1d1"
     inkscape:document-units="px"
     inkscape:zoom="23.65625"
     inkscape:cx="7.8626156"
     inkscape:cy="4.6287979"
     inkscape:window-width="1920"
     inkscape:window-height="994"
     inkscape:window-x="0"
     inkscape:window-y="0"
     inkscape:window-maximized="1"
     inkscape:current-layer="svg2" />
  <linearGradient
     id="_lgradient_0"
     x1="0.815274"
     y1="0.085982092"
     x2="0.031281486"
     y2="0.91878033"
     gradientTransform="matrix(-12.72075,0,0,12.999979,14.360518,1.4999999)"
     gradientUnits="userSpaceOnUse">
    <stop
       offset="3.0434782608695654%"
       stop-opacity="1"
       style="stop-color:rgb(198,255,221)"
       id="stop1" />
    <stop
       offset="98.26086956521739%"
       stop-opacity="1"
       style="stop-color:rgb(247,121,125)"
       id="stop2" />
  </linearGradient>
  <path
     d="m 3.5813692,4.8428902 c 0.52677,0.6543323 1.1185398,1.2555813 1.7650179,1.7918304 0.1113124,0.026271 0.225333,0.043875 0.3423328,0.055521 0.1581664,0.017604 0.316062,0.02925 0.4739576,0.037917 0.196083,0.00894 0.3891868,0.023563 0.5822907,0.046854 0.2017705,0.023563 0.4038118,0.073125 0.5969157,0.1432706 0.096417,0.035208 0.1901246,0.082062 0.2748953,0.1405623 0.149229,0.096417 0.2459163,0.2575621 0.254583,0.4360409 0.00596,0.1402915 -0.046854,0.2748954 -0.1432706,0.3772703 -0.052812,0.055521 -0.1169999,0.105354 -0.1874164,0.1405622 -0.1169998,0.061479 -0.2426663,0.105354 -0.3715827,0.134604 -0.1402915,0.034937 -0.2808537,0.064187 -0.4211452,0.08775 l 1.4657476,1.3018937 c 0.1083332,0.090729 0.2283121,0.1608748 0.3599369,0.210708 0.1256665,0.0585 0.2602704,0.093437 0.3978535,0.105354 l 0.076104,0.00271 c 0.2223538,-0.00271 0.4447076,-0.026271 0.6640822,-0.070146 0.2778746,-0.049833 0.5530405,-0.1256665 0.8192695,-0.225333 0.07583,-0.034937 0.157896,-0.055521 0.239687,-0.064187 0.131896,-0.017604 0.260541,0.023292 0.356958,0.1110414 0.09967,0.08775 0.155187,0.210708 0.155187,0.3423328 -0.003,0.1113122 -0.0409,0.2163952 -0.108333,0.3041452 -0.02627,0.03223 -0.05254,0.06148 -0.07881,0.09073 -0.06446,0.06446 -0.128916,0.128917 -0.196083,0.187416 -0.125937,0.108063 -0.251604,0.213417 -0.38052,0.318771 0.02058,0 0.03819,0.003 0.0585,0.003 0.549519,0.03954 1.098768,0.07421 1.649642,0.104812 C 11.960939,10.532818 11.66546,10.126027 11.344252,9.7387363 10.659587,8.9108002 9.910463,8.1383848 9.100131,7.4304276 8.1346117,6.5819082 7.1225092,5.7891803 6.066261,5.0576607 v 0 C 5.8658446,4.9203484 5.8154697,4.647078 5.9535945,4.447745 v 0 C 6.0917193,4.2481412 6.3649896,4.1991204 6.5635101,4.3380577 v 0 c 1.0854983,0.748853 2.1241424,1.5621641 3.1159324,2.4312668 0.8455405,0.7372072 1.6266225,1.54456 2.3405375,2.4106836 0.251062,0.3011661 0.486687,0.6139781 0.706603,0.9376239 v 0 c 0.01165,-0.04604 0.02085,-0.09235 0.0279,-0.1389377 0.02925,-0.1608748 0.0409,-0.3247287 0.0409,-0.4885826 -0.006,-0.3891868 -0.05553,-0.7783737 -0.146258,-1.1586231 -0.08775,-0.3832285 -0.20475,-0.7577904 -0.35127,-1.1234148 -0.06419,-0.1698122 -0.137313,-0.3363744 -0.222354,-0.5002283 -0.02627,0.1346039 -0.06419,0.2632495 -0.108062,0.3918952 -0.08206,0.2193746 -0.216667,0.4154576 -0.397854,0.5676657 -0.0585,0.049833 -0.125937,0.090729 -0.199062,0.1169998 -0.09371,0.035208 -0.190125,0.043875 -0.286812,0.026271 -0.09642,-0.017604 -0.187145,-0.064188 -0.26027,-0.1286458 -0.0585,-0.052542 -0.105354,-0.1140207 -0.143271,-0.1814581 -0.04117,-0.078812 -0.07042,-0.1578955 -0.09073,-0.2426662 -0.02654,-0.1172707 -0.04387,-0.2369788 -0.05579,-0.3569578 -0.02031,-0.1874163 -0.02925,-0.377541 -0.02627,-0.5676657 0.003,-0.3569577 0.01165,-0.7139155 0.03223,-1.0708732 v -0.00298 c 0,-0.031958 -0.0087,-0.061208 -0.02329,-0.090458 -0.0089,-0.026542 -0.02058,-0.049833 -0.04117,-0.070416 C 10.024754,4.6627864 9.5418594,4.2619537 9.0299852,3.8990376 8.8850896,3.7955794 8.7374857,3.6967254 8.5869026,3.6030173 v 0 c 0.00244,0.044687 0.00352,0.089916 0.00406,0.1351456 0.00298,0.2632495 -0.02925,0.5237908 -0.096417,0.7783737 v 0 C 8.4346946,4.7505362 8.1955491,4.8913693 7.960737,4.8309736 v 0 C 7.7256541,4.770307 7.584821,4.5298074 7.6460292,4.2941828 v 0 c 0.046854,-0.1784789 0.070146,-0.3629161 0.067437,-0.5500616 0,-0.1727914 -0.014625,-0.3453119 -0.041167,-0.5178325 L 7.651175,3.0835598 C 7.6262584,3.0716431 7.6010709,3.0594557 7.5758835,3.0478098 7.1165509,2.8311435 6.6396142,2.6616022 6.1450733,2.5446023 5.6916991,2.4362692 5.2293873,2.3807485 4.7643673,2.3777693 c -0.7315197,0 -1.4541018,0.1492289 -2.1241424,0.4417284 -0.076104,0.032229 -0.1229581,0.1083332 -0.1229581,0.1901247 0,0.020583 0.00298,0.038187 0.00894,0.055521 0.090458,0.2635204 0.2077288,0.5178324 0.3509994,0.7548112 0.00271,0.00487 0.00542,0.00948 0.00813,0.014354 l 0.2494371,0.064729 c 0.1784789,0.046854 0.3626452,0.070146 0.5497908,0.067437 0.1727913,0 0.3453119,-0.014625 0.5181033,-0.041167 v 0 C 4.4415345,3.8898293 4.6649716,4.0558499 4.7012632,4.295537 v 0 C 4.7378257,4.5352241 4.5718051,4.758932 4.3313055,4.7944111 v 0 c -0.210708,0.032229 -0.4243951,0.049562 -0.6407906,0.049562 -0.036292,5.416e-4 -0.072854,2.708e-4 -0.1091457,-0.00108 z m 9.7264218,6.2123648 0.14002,-0.333395 c 0.08179,-0.193104 0.140292,-0.394875 0.172521,-0.602603 0.03521,-0.2107085 0.05281,-0.4214164 0.05281,-0.6351036 C 13.667142,9.0278 13.611662,8.5744257 13.503332,8.1297181 13.406915,7.7083022 13.277999,7.2928445 13.117124,6.8890327 12.991458,6.5615957 12.836271,6.2455337 12.654812,5.9440967 12.584667,5.8270969 12.502875,5.7187638 12.409167,5.6193681 c -0.04983,-0.052542 -0.102375,-0.096417 -0.160875,-0.1346039 -0.09073,-0.061479 -0.196083,-0.093437 -0.307395,-0.096417 -0.181187,0 -0.350999,0.099396 -0.444708,0.2572912 -0.03792,0.064458 -0.07312,0.1289165 -0.102374,0.1990622 0.006,-0.1784789 0.01192,-0.3569578 0.02356,-0.5384158 0,-0.00298 0,-0.00569 0,-0.011646 v -0.023292 c 0,-0.00894 0.003,-0.014625 0,-0.020583 -0.003,-0.1432705 -0.03223,-0.2838328 -0.08775,-0.4124784 C 11.276815,4.700703 11.198002,4.5777448 11.092649,4.47537 10.609754,4.0043916 10.088942,3.574309 9.5391511,3.1824138 9.0356727,2.825456 8.5061944,2.5153524 7.9504454,2.2548112 7.4383004,2.0118741 6.9028637,1.8217494 6.3500938,1.6901246 5.8322613,1.5671665 5.2998039,1.5029791 4.7643673,1.4999999 c -0.8514986,0 -1.6940597,0.1754997 -2.4781209,0.5148533 -0.3951452,0.1754997 -0.6494573,0.5676657 -0.6467489,0.9977484 0,0.1140206 0.020583,0.2253329 0.055792,0.3333953 C 1.8063306,3.665038 1.9468928,3.9751417 2.1194134,4.264662 2.324163,4.6159323 2.5494959,4.9493275 2.7981205,5.2683687 3.4272653,6.070034 4.1468683,6.7985745 4.939867,7.4390943 c 0.2163955,0.0585 0.4357701,0.1023748 0.6581239,0.1229581 0.017604,0.00298 0.035208,0.00596 0.052812,0.00596 -0.1405623,0.1023749 -0.2193746,0.2692079 -0.2136871,0.4417285 0.011646,0.1725205 0.096687,0.3333953 0.2339996,0.4417284 L 7.634383,10.195091 c 0.00298,0.003 0.00596,0.006 0.00867,0.0089 0.1757706,0.149229 0.3775411,0.269208 0.5939366,0.353979 0.2136871,0.09371 0.4419992,0.152208 0.6730197,0.172521 0.00867,0 0.017604,0 0.023292,0 l 0.096687,0.003 c 0.00867,0 0.014625,0 0.020313,0 0.085041,0 0.1727914,-0.0057 0.2575621,-0.01165 -0.00867,0.01165 -0.020583,0.02058 -0.032229,0.03223 -0.020313,0.02329 -0.043875,0.04685 -0.061479,0.07015 -0.055521,0.06148 -0.090458,0.137583 -0.1110415,0.216395 -0.038187,0.181458 0.037917,0.368874 0.1931039,0.471249 0.046854,0.03196 0.099396,0.05552 0.1522081,0.07312 0.043875,0.01463 0.08775,0.02627 0.1316247,0.03494 0.070146,0.01192 0.1402915,0.02356 0.210708,0.03521 0.2396874,0.03223 0.4826244,0.0585 0.7255614,0.0761 0.737207,0.05254 1.474414,0.09642 2.211621,0.134604 l 0.01896,8.12e-4 c 0.01842,0.03575 0.03629,0.0715 0.05417,0.10725 0.336646,0.678978 0.570645,1.40454 0.687645,2.153393 v 0 c 0.0371,0.24077 0.261895,0.405166 0.501853,0.367249 v 0 c 0.239687,-0.03792 0.403,-0.262708 0.364271,-0.501853 v 0 c -0.131634,-0.836603 -0.389196,-1.649914 -0.766737,-2.407705 -0.08938,-0.17902 -0.182813,-0.355603 -0.280312,-0.529749 z"
     fill-rule="evenodd"
     id="path2"
     style="fill:url(#linearGradient4)" />
</svg>
