<?xml version="1.0" encoding="UTF-8" standalone="no"?>
<svg
   width="16"
   height="16"
   version="1.1"
   id="svg5"
   sodipodi:docname="cryptomator.svg"
   inkscape:version="1.4.4 (unknown)"
   xmlns:inkscape="http://www.inkscape.org/namespaces/inkscape"
   xmlns:sodipodi="http://sodipodi.sourceforge.net/DTD/sodipodi-0.dtd"
   xmlns="http://www.w3.org/2000/svg"
   xmlns:svg="http://www.w3.org/2000/svg">
  <defs
     id="defs5" />
  <sodipodi:namedview
     id="namedview5"
     pagecolor="#ffffff"
     bordercolor="#000000"
     borderopacity="0.25"
     inkscape:showpageshadow="2"
     inkscape:pageopacity="0.0"
     inkscape:pagecheckerboard="0"
     inkscape:deskcolor="#d1d1d1"
     inkscape:zoom="23.65625"
     inkscape:cx="7.6089828"
     inkscape:cy="7.7146631"
     inkscape:window-width="1920"
     inkscape:window-height="994"
     inkscape:window-x="0"
     inkscape:window-y="0"
     inkscape:window-maximized="1"
     inkscape:current-layer="svg5" />
  <g
     id="g5"
     transform="matrix(1.0256411,0,0,1,0.94871699,1.4999999)">
    <path
       style="fill:#c8c8c8;stroke-width:0.8125"
       d="M 6.875,1e-7 C 4.257478,1e-7 2.8125001,2.1926505 2.8125001,4.333334 H 10.9375 C 10.9375,2.1926505 9.307085,1e-7 6.875,1e-7 Z"
       id="path1" />
    <path
       style="fill:#585e62;stroke-width:0.8125"
       d="M 6.8750001,1.6037016 C 5.3045326,1.6037016 4.4375,2.9156584 4.4375,4.196542 L 6.8750001,4.46875 9.3125005,4.196542 c 0,-1.2808836 -0.9782692,-2.5928404 -2.4375004,-2.5928404 z"
       id="path2" />
    <path
       style="fill:#e4e4e4;stroke-width:0.8125"
       d="m 11.581716,6.8552578 a 1.3301157,1.2718719 0 0 1 -0.0085,-0.6935818 c 0.234464,-0.8081137 0.08047,-1.7001883 0.08047,-1.7001883 -2.9438478,-0.8786904 -4.7740698,-0.00724 -4.7740698,-0.00724 0,0 -1.8259273,-0.876712 -4.7720021,-0.00689 0,0 -0.1568395,0.8919227 0.075077,1.7009494 a 1.3312299,1.2729365 0 0 1 -0.011338,0.693418 C 2.0895604,7.1089631 2.0008003,7.5185717 2.0000062,8.0402798 1.9941204,11.8276 6.8674475,13 6.8674475,13 c 0,0 4.8766625,-1.158245 4.8825525,-4.9457267 0,-0.5217082 -0.08734,-0.9310129 -0.168284,-1.1990155 z"
       id="path3" />
    <path
       style="fill:#49b04a;stroke-width:0.8125"
       d="M 5.0548102,5.7303471 C 4.6785405,5.7540408 4.1769675,5.8486346 3.7440191,5.893799 3.8435225,6.3689309 3.8672658,6.8624231 3.721803,7.3267821 l 0.00325,-0.00954 C 3.6828587,7.4549252 3.625516,7.7037874 3.625,8.0424811 3.6231145,9.238899 4.3355484,9.9600245 5.2976077,10.565681 6.0740712,11.054487 6.5945625,11.173567 6.8718266,11.254399 7.1506385,11.173918 7.6678402,11.056177 8.4444583,10.570436 9.407922,9.9678255 10.122458,9.2491045 10.125,8.0535892 10.125,7.7198487 10.071512,7.4769697 10.029783,7.336304 9.8854396,6.8711514 9.909604,6.3769105 10.010744,5.9017338 9.4339184,5.8399421 8.7357081,5.6924197 8.3730476,5.7398687 7.7496146,5.8214359 7.5780033,5.920777 7.5780033,5.920777 L 6.8765871,6.2556156 6.1751709,5.9191899 c 0,0 -0.170858,-0.1007081 -0.7934572,-0.1840822 -0.090601,-0.012137 -0.2014806,-0.012664 -0.3269035,-0.00472 z"
       id="path4" />
    <path
       style="fill:#35393b;stroke-width:0.8125"
       d="M 6.875,7.3986741 6.0625001,9.7623066 6.8746366,10.15625 7.6875,9.7623066 Z"
       id="path5" />
    <circle
       style="fill:#35393b;stroke-width:0.8125"
       cx="6.8750019"
       cy="7.3125019"
       r="0.81249994"
       id="circle5" />
  </g>
</svg>
