<?xml version="1.0" encoding="UTF-8" standalone="no"?>
<!-- Generator: Gravit.io -->

<svg
   style="isolation:isolate"
   viewBox="0 0 16 16"
   width="16"
   height="16"
   version="1.1"
   id="svg2"
   sodipodi:docname="cypress.svg"
   inkscape:version="1.4.4 (unknown)"
   xmlns:inkscape="http://www.inkscape.org/namespaces/inkscape"
   xmlns:sodipodi="http://sodipodi.sourceforge.net/DTD/sodipodi-0.dtd"
   xmlns:xlink="http://www.w3.org/1999/xlink"
   xmlns="http://www.w3.org/2000/svg"
   xmlns:svg="http://www.w3.org/2000/svg">
  <defs
     id="defs2">
    <linearGradient
       id="linearGradient2"
       inkscape:collect="always">
      <stop
         style="stop-color:#b380ff;stop-opacity:1"
         offset="0"
         id="stop3" />
      <stop
         style="stop-color:#00d455;stop-opacity:1"
         offset="1"
         id="stop4" />
    </linearGradient>
    <linearGradient
       inkscape:collect="always"
       xlink:href="#linearGradient2"
       id="linearGradient4"
       x1="1.4898499"
       y1="14.5"
       x2="10.684137"
       y2="5.6638408"
       gradientUnits="userSpaceOnUse" />
  </defs>
  <sodipodi:namedview
     id="namedview2"
     pagecolor="#ffffff"
     bordercolor="#000000"
     borderopacity="0.25"
     inkscape:showpageshadow="2"
     inkscape:pageopacity="0.0"
     inkscape:pagecheckerboard="0"
     inkscape:deskcolor="#d1d1d1"
     inkscape:document-units="px"
     inkscape:zoom="11.828125"
     inkscape:cx="7.6935271"
     inkscape:cy="18.472919"
     inkscape:window-width="1920"
     inkscape:window-height="994"
     inkscape:window-x="0"
     inkscape:window-y="0"
     inkscape:window-maximized="1"
     inkscape:current-layer="svg2" />
  <linearGradient
     id="_lgradient_4"
     x1="0.99411762"
     y1="0.48015597"
     x2="0.00018059855"
     y2="0.45213065"
     gradientTransform="matrix(13.020313,0,0,13.000115,1.4898449,1.4999859)"
     gradientUnits="userSpaceOnUse">
    <stop
       offset="0%"
       stop-opacity="1"
       style="stop-color:rgb(17,153,142)"
       id="stop1" />
    <stop
       offset="99.1304347826087%"
       stop-opacity="1"
       style="stop-color:rgb(56,239,125)"
       id="stop2" />
  </linearGradient>
  <path
     d="m 8.4446364,13.318096 v 0 c -0.32483,0.02739 -0.5669306,0.314039 -0.5403687,0.639699 v 0 c 0.026562,0.325384 0.3132091,0.567484 0.6396991,0.540092 v 0 C 10.179184,14.361758 11.705387,13.611107 12.812963,12.39673 13.917772,11.182353 14.524822,9.593619 14.509881,7.951208 14.494387,6.2260678 13.79271,4.5753562 12.562562,3.3642995 11.32937,2.1560096 9.6662072,1.4847681 7.941067,1.5002626 6.2159267,1.515757 4.5652151,2.217434 3.3541584,3.4475821 2.1458685,4.6804971 1.4743504,6.3439362 1.4901216,8.0690765 v 0 c 0.00277,0.32649 0.2705993,0.5893422 0.5970894,0.5862986 v 0 C 2.4139777,8.6526083 2.6765532,8.3850524 2.6737863,8.0582857 v 0 C 2.6607821,6.6469079 3.2108348,5.2864405 4.1991589,4.2773649 5.1902499,3.2710561 6.5402033,2.696655 7.9518577,2.6839274 9.3632355,2.6711994 10.723703,3.2209759 11.732779,4.2093 c 1.006309,0.991091 1.58071,2.341321 1.593437,3.7526988 0.01218,1.3433129 -0.481988,2.6440162 -1.387582,3.6375972 -0.905319,0.993582 -2.1545584,1.605612 -3.4939976,1.7185 z M 3.3057383,10.529649 v 0 C 3.1510705,10.241895 2.7922081,10.133711 2.5044542,10.288102 v 0 c -0.2877539,0.154668 -0.3959384,0.51353 -0.2412706,0.801285 v 0 c 0.6590672,1.225167 1.6949814,2.210171 2.9519681,2.805324 v 0 c 0.2952245,0.14111 0.6488298,0.01577 0.7891099,-0.279454 v 0 c 0.14028,-0.295224 0.014388,-0.649383 -0.2808368,-0.790493 v 0 C 4.6922142,12.336966 3.8474904,11.533745 3.3057383,10.529649 Z M 7.699243,7.0392494 v 0 H 6.7701297 v 0 Q 6.685187,6.670703 6.5255389,6.5218456 v 0 0 Q 6.3661675,6.3729883 6.07537,6.3729883 v 0 0 q -0.4396548,0 -0.609817,0.3118257 v 0 0 Q 5.2812798,7.0464432 5.2812798,7.5710408 v 0 0 q 0,0.5317914 0.209175,0.8402968 v 0 0 q 0.2091749,0.3085055 0.5777213,0.3085055 v 0 0 q 0.2907975,0 0.4504456,-0.1524543 v 0 0 Q 6.6779932,8.4149346 6.7701297,8.0604992 v 0 H 7.699243 v 0 Q 7.628134,8.76937 7.131759,9.1594979 v 0 0 q -0.432461,0.3472415 -1.0705,0.3472415 v 0 0 q -0.8934207,0 -1.3543804,-0.5741244 v 0 0 Q 4.3026397,8.4362394 4.3026397,7.5923456 v 0 0 q 0,-1.0209731 0.5317914,-1.5455707 v 0 0 Q 5.2953908,5.5858153 6.0825638,5.5858153 v 0 0 q 0.7514805,0 1.1911354,0.4324609 v 0 0 Q 7.6494394,6.4012103 7.699243,7.0392494 Z M 9.9113514,8.4008236 10.684137,5.6638408 h 0.999945 l -1.545848,4.4386042 v 0 q -0.162968,0.475071 -0.4324606,0.656024 v 0 0 q -0.2694927,0.180676 -0.8012841,0.180676 v 0 0 q -0.4891817,0 -0.6806488,-0.127552 v 0 l 0.1488574,-0.659621 v 0 q 0.2553816,0.06391 0.4255438,0.06391 v 0 0 q 0.2481878,0 0.4252671,-0.166565 v 0 0 Q 9.4008649,9.8827564 9.4008649,9.6558735 v 0 -0.078026 L 8.0038748,5.6638408 h 1.0707767 z"
     fill-rule="evenodd"
     id="path2"
     style="fill:url(#linearGradient4);fill-opacity:1" />
</svg>
