<?xml version="1.0" encoding="UTF-8" standalone="no"?>
<!-- Generator: Gravit.io -->

<svg
   style="isolation:isolate"
   viewBox="0 0 16 16"
   width="16"
   height="16"
   version="1.1"
   id="svg5"
   sodipodi:docname="dbeaver.svg"
   inkscape:version="1.4.4 (unknown)"
   xmlns:inkscape="http://www.inkscape.org/namespaces/inkscape"
   xmlns:sodipodi="http://sodipodi.sourceforge.net/DTD/sodipodi-0.dtd"
   xmlns:xlink="http://www.w3.org/1999/xlink"
   xmlns="http://www.w3.org/2000/svg"
   xmlns:svg="http://www.w3.org/2000/svg">
  <defs
     id="defs5">
    <linearGradient
       id="linearGradient5"
       inkscape:collect="always">
      <stop
         style="stop-color:#ffe680;stop-opacity:1"
         offset="0"
         id="stop6" />
      <stop
         style="stop-color:#8d5fd3;stop-opacity:1"
         offset="1"
         id="stop7" />
    </linearGradient>
    <linearGradient
       inkscape:collect="always"
       xlink:href="#linearGradient5"
       id="linearGradient7"
       x1="1.0072656"
       y1="14.591914"
       x2="14.640026"
       y2="2.3454463"
       gradientUnits="userSpaceOnUse" />
    <linearGradient
       inkscape:collect="always"
       xlink:href="#_lgradient_4"
       id="linearGradient9"
       x1="8.5098715"
       y1="11.641058"
       x2="8.5163403"
       y2="8.7573605"
       gradientUnits="userSpaceOnUse" />
  </defs>
  <sodipodi:namedview
     id="namedview5"
     pagecolor="#ffffff"
     bordercolor="#000000"
     borderopacity="0.25"
     inkscape:showpageshadow="2"
     inkscape:pageopacity="0.0"
     inkscape:pagecheckerboard="0"
     inkscape:deskcolor="#d1d1d1"
     inkscape:document-units="px"
     inkscape:zoom="23.65625"
     inkscape:cx="9.2575958"
     inkscape:cy="11.730515"
     inkscape:window-width="1920"
     inkscape:window-height="994"
     inkscape:window-x="0"
     inkscape:window-y="0"
     inkscape:window-maximized="1"
     inkscape:current-layer="svg5" />
  <linearGradient
     id="_lgradient_3"
     x1="-0.014458464"
     y1="0.009839246"
     x2="1.0164566"
     y2="1.072293"
     gradientTransform="matrix(16,0,0,13.671149,0.49999999,0.92042414)"
     gradientUnits="userSpaceOnUse">
    <stop
       offset="1.3043478260869565%"
       stop-opacity="1"
       style="stop-color:rgb(254,172,94)"
       id="stop1" />
    <stop
       offset="53.04347826086957%"
       stop-opacity="1"
       style="stop-color:rgb(199,121,208)"
       id="stop2" />
    <stop
       offset="99.56521739130434%"
       stop-opacity="1"
       style="stop-color:rgb(75,192,200)"
       id="stop3" />
  </linearGradient>
  <linearGradient
     id="_lgradient_4"
     x1="0.54298681"
     y1="-0.26555973"
     x2="0.51975447"
     y2="0.98335701"
     gradientTransform="matrix(3.1390638,0,0,1.9717447,6.9306383,8.7566794)"
     gradientUnits="userSpaceOnUse">
    <stop
       offset="0.63578022"
       stop-opacity="1"
       style="stop-color:rgb(166,124,243)"
       id="stop4" />
    <stop
       offset="98.69565217391305%"
       stop-opacity="1"
       style="stop-color:rgb(88,78,123)"
       id="stop5" />
  </linearGradient>
  <g
     id="g5"
     transform="translate(-0.5,0.24372147)">
    <path
       d="m 2.3182128,4.3114029 v 0 C 2.2491064,4.1367646 2.2130213,3.9502114 2.2130213,3.7636582 2.2055319,3.2751475 2.4390638,2.8159135 2.8397447,2.5354029 L 3.2516596,2.2545518 C 3.4848511,2.0942114 3.7619574,2.0104667 4.0462128,2.0142114 4.440766,2.0074029 4.8172766,2.166722 5.0906383,2.4475731 4.1452766,2.7951475 3.2765106,3.3452752 2.5520851,4.0697007 2.4724255,4.1490199 2.3951489,4.2300412 2.3182128,4.3114029 Z M 1.5914043,5.268339 1.4511489,5.017105 1.4293617,4.9772752 c 0,0 0,0 0,-0.00374 C 1.2254468,4.6055305 1.1195745,4.1898709 1.1195745,3.7670624 1.1124255,2.9214454 1.5205957,2.123488 2.2130213,1.638722 c 0,0 0.00374,0 0.00374,-0.00374 l 0.4190685,-0.28426 c 0,0 0,0 0,0 C 3.0511489,1.0664667 3.5434043,0.91701989 4.0424681,0.92076457 4.8043404,0.9132752 5.5294468,1.252339 6.0142128,1.8392327 c 0,0.0034 0.00374,0.0034 0.00374,0.0034 l 0.043915,0.054809 0.1879149,0.2338724 c 0.411579,-0.07489 0.8316641,-0.1136985 1.2551535,-0.1136985 h 1.9901276 c 0.3564256,0 0.7108082,0.027575 1.0594042,0.081021 l 0.161362,-0.2011915 0.04392,-0.054809 c 0.0037,0 0.0037,0 0.0037,-0.0034 0.484426,-0.5868937 1.209873,-0.9259575 1.971745,-0.91846813 0.502809,-0.003745 0.991319,0.14570213 1.406638,0.42995743 0,0 0,0 0.0037,0 l 0.415319,0.2842553 c 0,0.00374 0.0037,0.00374 0.0037,0.00374 0.692425,0.484766 1.100596,1.2827234 1.093447,2.1283404 0,0.4228085 -0.105873,0.8384681 -0.306043,1.2064681 -0.0037,0.00374 -0.0037,0.00374 -0.0037,0.00374 l -0.02179,0.03983 -0.03813,0.068426 C 16.073106,6.2399135 16.5,7.6108071 16.5,9.0262965 v 4.4721705 0 c 0,0.301617 -0.245106,0.546723 -0.546723,0.546723 v 0 c -0.301617,0 -0.546724,-0.245106 -0.546724,-0.546723 v 0 -4.4721705 c 0,-1.5669787 -0.623319,-3.0760851 -1.731064,-4.1838298 C 12.567404,3.7343816 11.062043,3.1110624 9.4950638,3.1110624 H 7.5049362 c -1.5669788,0 -3.0723405,0.6233192 -4.1804256,1.7314043 C 2.216766,5.9502114 1.5934468,7.4593178 1.5934468,9.0262965 v 4.4721705 0 c 0,0.301617 -0.2451064,0.546723 -0.5467234,0.546723 v 0 C 0.74510638,14.04519 0.5,13.800084 0.5,13.498467 v 0 -4.4721705 C 0.5,7.6850199 0.88331915,6.3835731 1.5914043,5.268339 Z M 11.745617,2.3920837 v 0 c 0.266894,-0.2464681 0.618553,-0.3843404 0.985872,-0.3778723 0.284256,-0.00374 0.561362,0.08 0.794554,0.2403404 l 0.415319,0.2808511 c 0.397276,0.2805106 0.630468,0.7397446 0.623319,1.2282553 0.002,0.1252766 -0.01464,0.2505532 -0.05413,0.370383 -0.02042,-0.021787 -0.04119,-0.043234 -0.06264,-0.064341 C 13.681957,3.3037433 12.754638,2.7325092 11.745617,2.3920837 Z M 9.9577021,12.229701 v 1.633021 H 8.8645957 V 12.769275 12.40502 H 8.1354043 v 0.364255 1.093447 H 7.0422979 v -1.633021 c 0.03983,0.0034 0.08034,0.0054 0.1211915,0.0054 0.6805106,0 1.3276595,-0.594043 1.3276595,-0.594043 h 0.018723 c 0,0 0.6464681,0.593021 1.3266383,0.594043 0.040851,0 0.081362,-0.002 0.1211919,-0.0054 z M 4.6732766,6.9381263 c 0,-0.1460426 0.058213,-0.2842554 0.1603404,-0.386383 0.1017873,-0.1021277 0.2403404,-0.1603404 0.3860426,-0.1603404 0.1460425,0 0.2845957,0.058213 0.386383,0.1603404 0.1021276,0.1021276 0.1603404,0.2403404 0.1603404,0.386383 0,0.1457021 -0.058213,0.2842553 -0.1603404,0.3860425 -0.1017873,0.1021277 -0.2403405,0.1606809 -0.386383,0.1606809 -0.1457022,0 -0.2842553,-0.058553 -0.3860426,-0.1606809 C 4.7314894,7.2223816 4.6732766,7.0838284 4.6732766,6.9381263 Z m 6.5603404,0 c 0,-0.1460426 0.05821,-0.2842554 0.16034,-0.386383 0.101788,-0.1021277 0.240341,-0.1603404 0.386383,-0.1603404 0.145703,0 0.284256,0.058213 0.386043,0.1603404 0.102128,0.1021276 0.16034,0.2403404 0.16034,0.386383 0,0.1457021 -0.05821,0.2842553 -0.16034,0.3860425 -0.101787,0.1021277 -0.24034,0.1606809 -0.386043,0.1606809 -0.146042,0 -0.284595,-0.058553 -0.386383,-0.1606809 -0.102127,-0.1017872 -0.16034,-0.2403404 -0.16034,-0.3860425 z m -0.546723,4.9913187 v 0.110979 2.55149 H 8.8645957 v 0 0 0 0 H 8.1354043 6.3131064 v -2.55149 -0.110979 C 6.0162553,11.684339 5.8273191,11.313616 5.8273191,10.898637 c 0,-0.738043 0.3860426,-1.9731065 1.1237447,-1.9506384 l 3.1217022,0.094638 c 0.737702,0.022128 1.099915,1.1179574 1.099915,1.8560004 0,0.414979 -0.188936,0.785702 -0.485787,1.030808 z M 3.5798298,6.9381263 c 0,-0.4337022 0.171234,-0.8531064 0.4810213,-1.159149 0.3060425,-0.3097872 0.7251063,-0.4810212 1.1588085,-0.4810212 0.4337021,0 0.8531064,0.171234 1.1591489,0.4810212 0.3097872,0.3060426 0.4810213,0.7254468 0.4810213,1.159149 0,0.4337021 -0.1712341,0.8527659 -0.4810213,1.1588085 C 6.072766,8.406722 5.6533617,8.5779561 5.2196596,8.5779561 4.7859574,8.5779561 4.3668936,8.406722 4.0608511,8.0969348 3.7510638,7.7908922 3.5798298,7.3718284 3.5798298,6.9381263 Z m 6.5603402,0 c 0,-0.4337022 0.171234,-0.8531064 0.481021,-1.159149 0.306043,-0.3097872 0.725447,-0.4810212 1.159149,-0.4810212 0.433703,0 0.852766,0.171234 1.158809,0.4810212 0.309787,0.3060426 0.481021,0.7254468 0.481021,1.159149 0,0.4337021 -0.171234,0.8527659 -0.481021,1.1588085 -0.306043,0.3097872 -0.725106,0.4810213 -1.158809,0.4810213 -0.433702,0 -0.853106,-0.1712341 -1.159149,-0.4810213 C 10.311404,7.7908922 10.14017,7.3718284 10.14017,6.9381263 Z"
       fill-rule="evenodd"
       id="path3"
       style="fill:url(#linearGradient7)" />
    <path
       d="m 10.053362,9.2584667 c 0.157617,0.6910638 -0.8725109,1.4699573 -1.5370216,1.4699573 -0.6641702,0 -1.728,-0.7707233 -1.5700425,-1.4699573 0.120851,-0.5361702 0.9058723,-0.5011064 1.5700425,-0.5011064 0.6641702,0 1.4171915,-0.02417 1.5370216,0.5011064 z"
       id="path5"
       style="fill:url(#linearGradient9)" />
  </g>
</svg>
