<?xml version="1.0" encoding="UTF-8" standalone="no"?>
<svg
   xml:space="preserve"
   width="16"
   height="16"
   style="isolation:isolate"
   viewBox="0 0 16 16"
   version="1.1"
   id="svg3"
   sodipodi:docname="defold.svg"
   inkscape:version="1.4.4 (unknown)"
   xmlns:inkscape="http://www.inkscape.org/namespaces/inkscape"
   xmlns:sodipodi="http://sodipodi.sourceforge.net/DTD/sodipodi-0.dtd"
   xmlns:xlink="http://www.w3.org/1999/xlink"
   xmlns="http://www.w3.org/2000/svg"
   xmlns:svg="http://www.w3.org/2000/svg"><sodipodi:namedview
     id="namedview3"
     pagecolor="#ffffff"
     bordercolor="#000000"
     borderopacity="0.25"
     inkscape:showpageshadow="2"
     inkscape:pageopacity="0.0"
     inkscape:pagecheckerboard="0"
     inkscape:deskcolor="#d1d1d1"
     inkscape:zoom="33.45499"
     inkscape:cx="7.4727269"
     inkscape:cy="6.5610542"
     inkscape:window-width="1920"
     inkscape:window-height="994"
     inkscape:window-x="0"
     inkscape:window-y="0"
     inkscape:window-maximized="1"
     inkscape:current-layer="svg3" /><defs
     id="defs3"><linearGradient
       id="linearGradient3"
       inkscape:collect="always"><stop
         style="stop-color:#00ccff;stop-opacity:1"
         offset="0"
         id="stop4" /><stop
         style="stop-color:#bc5fd3;stop-opacity:1"
         offset="1"
         id="stop5" /></linearGradient><linearGradient
       id="a"
       x1="0"
       x2="1"
       y1="0.5"
       y2="0.5"
       gradientTransform="matrix(23.821,0,0,24.58,4.74,22.3)"
       gradientUnits="userSpaceOnUse"><stop
         offset="0"
         style="stop-color:#5433ff;stop-opacity:1"
         id="stop1" /><stop
         offset=".522"
         style="stop-color:#20bdff;stop-opacity:1"
         id="stop2" /><stop
         offset=".963"
         style="stop-color:#a5fecb;stop-opacity:1"
         id="stop3" /></linearGradient><linearGradient
       xlink:href="#a"
       id="b"
       x1="6.776"
       x2="41.495998"
       y1="28.047001"
       y2="19.954"
       gradientTransform="matrix(0.27459118,0,0,0.27271962,1.4098144,1.6827224)"
       gradientUnits="userSpaceOnUse" /><linearGradient
       inkscape:collect="always"
       xlink:href="#linearGradient3"
       id="linearGradient5"
       x1="2.2961841"
       y1="13.499927"
       x2="8.4430208"
       y2="6.5951276"
       gradientUnits="userSpaceOnUse" /></defs><path
     d="m 5.8397937,1.5000002 -0.079906,0.045817 C 5.0036637,1.9794413 4.2471649,2.4127928 3.4912154,2.8469623 l -0.079357,0.045817 V 5.3690732 C 2.7179668,5.7672439 2.0238002,6.1651419 1.3299084,6.5635853 l -0.079906,0.045544 5.492e-4,0.091634 c 0.00275,0.8607032 0.00275,1.7372239 0,2.5990179 l -5.492e-4,0.091634 0.080455,0.045817 C 2.024624,9.8348568 2.717692,10.232755 3.4118586,10.630653 l 5.481e-4,2.477931 0.079357,0.04527 c 0.7559492,0.433625 1.5121733,0.867248 2.268672,1.300326 L 5.8397927,14.5 8.0000013,13.261036 10.16021,14.5 l 0.07991,-0.04582 2.268672,-1.300871 0.07936,-0.04527 v -2.477386 c 0.693617,-0.398171 1.387782,-0.7957962 2.08195,-1.1934213 l 0.0799,-0.045817 -5.63e-4,-0.091634 c -0.0033,-0.861794 -8.16e-4,-1.7402237 -0.0011,-2.6006542 v -0.091361 l -0.07936,-0.045272 C 13.975369,6.1643236 13.280928,5.7666986 12.588134,5.3688005 V 2.8927792 l -0.07962,-0.045817 C 11.752565,2.4133382 10.996066,1.9799867 10.240391,1.5458171 l -0.08018,-0.045817 -0.07936,0.045817 C 9.3869621,1.9431695 8.6941686,2.3418857 8.0005515,2.7389653 7.3066595,2.3418857 6.6133168,1.9428968 5.9191504,1.5458171 Z m -0.2677266,0.767433 v 2.477385 L 5.8112361,4.6076401 7.7317267,3.505853 V 5.369346 C 7.037835,5.7658804 6.3455904,6.1654147 5.6519733,6.5619488 l -0.079632,0.045817 V 9.0846052 L 3.9475858,10.016761 V 7.5399212 L 3.7089661,7.6765538 C 3.0691688,8.0428165 2.4274493,8.4115333 1.7873772,8.7783411 c 0,-0.6212553 0,-1.2425105 5.482e-4,-1.8626749 L 3.868229,5.7222453 3.9478605,5.6769737 V 3.1990434 C 4.4890796,2.8889611 5.0308482,2.5780609 5.5720671,2.2674332 Z m 0.5354529,0 L 7.4640004,3.045775 6.10752,3.8241167 Z m 3.7846899,0 V 3.823844 L 8.5351806,3.045775 Z m 0.5351781,0 1.624482,0.9321556 v 2.4762941 l 0.07936,0.045817 c 0.693343,0.3981705 1.387234,0.7960686 2.080852,1.1936936 V 8.7777956 C 13.571457,8.4104423 12.929738,8.0419982 12.291039,7.6760083 l -0.239719,-0.1371777 5.63e-4,0.274083 c 8.15e-4,0.7338884 5.62e-4,1.4691407 5.62e-4,2.2035744 L 10.427414,9.0846053 V 6.6077659 l -0.07991,-0.045272 C 9.653891,6.1656871 8.9613721,5.7666986 8.2677547,5.3696188 c 0,-0.6198918 0,-1.2425106 5.622e-4,-1.8637658 0.6397973,0.3673533 1.2795947,0.7347066 1.9199411,1.1017871 l 0.239169,0.1371781 z M 6.1072453,7.2222031 7.7322759,8.1535406 c 0,0.6209825 0,1.242783 -5.621e-4,1.8634934 L 6.1080564,9.0854235 C 6.1074941,8.4660773 6.1077816,7.8434584 6.1074941,7.2222031 Z m 3.7849646,0 V 9.0854235 L 8.2677286,10.017034 V 8.1538133 Z m -5.944624,3.7158049 1.3564803,0.777797 -1.3564803,0.777796 z m 8.1042841,0 v 1.555593 l -1.356481,-0.777796 z"
     id="path3"
     style="fill:url(#linearGradient5)" /></svg>
