<?xml version="1.0" encoding="UTF-8" standalone="no"?>
<svg
   width="100%"
   height="100%"
   viewBox="0 0 16 16"
   version="1.1"
   id="svg1"
   sodipodi:docname="deluge.svg"
   inkscape:version="1.4.4 (unknown)"
   xmlns:inkscape="http://www.inkscape.org/namespaces/inkscape"
   xmlns:sodipodi="http://sodipodi.sourceforge.net/DTD/sodipodi-0.dtd"
   xmlns:xlink="http://www.w3.org/1999/xlink"
   xmlns="http://www.w3.org/2000/svg"
   xmlns:svg="http://www.w3.org/2000/svg">
  <sodipodi:namedview
     id="namedview1"
     pagecolor="#ffffff"
     bordercolor="#000000"
     borderopacity="0.25"
     inkscape:showpageshadow="2"
     inkscape:pageopacity="0.0"
     inkscape:pagecheckerboard="0"
     inkscape:deskcolor="#d1d1d1"
     inkscape:zoom="33.45499"
     inkscape:cx="8.1602178"
     inkscape:cy="6.8001815"
     inkscape:window-width="1920"
     inkscape:window-height="994"
     inkscape:window-x="0"
     inkscape:window-y="0"
     inkscape:window-maximized="1"
     inkscape:current-layer="svg1" />
  <defs
     id="defs1">
    <linearGradient
       id="linearGradient1"
       inkscape:collect="always">
      <stop
         style="stop-color:#2a7fff;stop-opacity:1"
         offset="0"
         id="stop1" />
      <stop
         style="stop-color:#55ddff;stop-opacity:1"
         offset="1"
         id="stop2" />
    </linearGradient>
    <style
       id="current-color-scheme"
       type="text/css">
   .ColorScheme-Text { color:#dfdfdf; } .ColorScheme-Highlight { color:#4285f4; }
  </style>
    <linearGradient
       inkscape:collect="always"
       xlink:href="#linearGradient1"
       id="linearGradient2"
       x1="3.5788"
       y1="14.5"
       x2="8.0666685"
       y2="8.0443449"
       gradientUnits="userSpaceOnUse" />
  </defs>
  <path
     style="fill:url(#linearGradient2);stroke-width:0.939221"
     class="ColorScheme-Text"
     d="M 8.012704,1.5000009 C 7.900605,1.500372 7.7835654,1.607622 7.6183607,1.8252792 L 4.1841262,6.9605576 C 3.0026157,8.7266074 3.0153457,10.63436 3.8114425,12.0755 4.6076343,13.51571 6.1750326,14.5 8.0018746,14.5 9.8286212,14.5 11.393356,13.51571 12.189458,12.0755 12.984601,10.63436 12.99695,8.7259574 11.816109,6.9589786 L 8.380733,1.815808 C 8.2323433,1.606601 8.1248042,1.4996295 8.012704,1.5000009 Z m -0.00932,1.391743 2.898815,4.5591917 c 0.705849,1.1230148 0.841702,2.4637788 -0.331546,3.4202054 -0.1406,0.12257 -0.317298,0.238648 -0.511097,0.342648 -0.4402291,0.200571 -1.1896809,0.411351 -1.7087582,0.473571 -0.2100439,0.0362 -0.4326286,0.0594 -0.6787721,0.0492 -0.026692,-0.004 -0.053578,-0.005 -0.080465,-0.006 h -0.0047 C 6.8008341,11.730607 6.1519869,10.551321 6.1519869,9.6658354 6.1524264,8.8800588 6.9636284,8.2438947 7.6538004,8.1284729 7.7853747,8.1018229 7.9227438,8.0762871 8.0666685,8.0443445 8.6471113,7.8484575 8.8979103,7.0126506 8.3480529,6.6114146 7.9576995,6.3269936 7.5026513,6.1698787 7.0461787,6.1480576 6.485491,6.1213147 6.029968,6.3047076 5.5575346,6.6463286 Z"
     id="path1" />
</svg>
