<?xml version="1.0" encoding="UTF-8" standalone="no"?>
<!-- Generator: Gravit.io -->

<svg
   style="isolation:isolate"
   viewBox="0 0 16 16"
   width="16"
   height="16"
   version="1.1"
   id="svg3"
   sodipodi:docname="desktop-environment-xfce.svg"
   inkscape:version="1.4.4 (unknown)"
   xmlns:inkscape="http://www.inkscape.org/namespaces/inkscape"
   xmlns:sodipodi="http://sodipodi.sourceforge.net/DTD/sodipodi-0.dtd"
   xmlns:xlink="http://www.w3.org/1999/xlink"
   xmlns="http://www.w3.org/2000/svg"
   xmlns:svg="http://www.w3.org/2000/svg">
  <defs
     id="defs3">
    <linearGradient
       id="linearGradient3"
       inkscape:collect="always">
      <stop
         style="stop-color:#2a7fff;stop-opacity:1"
         offset="0"
         id="stop4" />
      <stop
         style="stop-color:#00ccff;stop-opacity:1"
         offset="1"
         id="stop5" />
    </linearGradient>
    <linearGradient
       inkscape:collect="always"
       xlink:href="#linearGradient3"
       id="linearGradient5"
       x1="6.8318725"
       y1="9.9957609"
       x2="12.281046"
       y2="4.438796"
       gradientUnits="userSpaceOnUse" />
  </defs>
  <sodipodi:namedview
     id="namedview3"
     pagecolor="#ffffff"
     bordercolor="#000000"
     borderopacity="0.25"
     inkscape:showpageshadow="2"
     inkscape:pageopacity="0.0"
     inkscape:pagecheckerboard="0"
     inkscape:deskcolor="#d1d1d1"
     inkscape:document-units="px"
     inkscape:zoom="16.727495"
     inkscape:cx="4.1249452"
     inkscape:cy="17.486181"
     inkscape:window-width="1920"
     inkscape:window-height="994"
     inkscape:window-x="0"
     inkscape:window-y="0"
     inkscape:window-maximized="1"
     inkscape:current-layer="svg3" />
  <linearGradient
     id="_lgradient_0"
     x1="0"
     y1="0.5"
     x2="1"
     y2="0.5"
     gradientTransform="matrix(13.000015,0,0,13.000015,1.499971,1.4999802)"
     gradientUnits="userSpaceOnUse">
    <stop
       offset="0%"
       stop-opacity="1"
       style="stop-color:rgb(84,51,255)"
       id="stop1" />
    <stop
       offset="51.73913043478261%"
       stop-opacity="1"
       style="stop-color:rgb(32,189,255)"
       id="stop2" />
    <stop
       offset="98.26086956521739%"
       stop-opacity="1"
       style="stop-color:rgb(165,254,203)"
       id="stop3" />
  </linearGradient>
  <path
     d="m 10.67744,12.652369 v 0 c 0.270563,-0.154646 0.61723,-0.06094 0.773501,0.208812 v 0 c 0.156271,0.269751 0.06338,0.615876 -0.207459,0.771876 v 0 c -1.05273,0.606126 -2.2533355,0.904585 -3.4650453,0.863147 -1.0987721,-0.03738 -2.1710025,-0.35398 -3.1159411,-0.917855 v 0 C 4.3949119,13.418015 4.3079743,13.070265 4.4683078,12.802681 v 0 c 0.1606044,-0.267583 0.508084,-0.354521 0.7759385,-0.194188 v 0 c 0.7786467,0.46773 1.6631894,0.726918 2.5726488,0.758064 1.002897,0.03412 1.9922524,-0.212063 2.8605449,-0.714188 z m 2.129294,-7.047634 v 0 C 12.666442,5.3252347 12.77938,4.9850676 13.05888,4.8455883 v 0 c 0.2795,-0.1394793 0.618855,-0.026 0.757793,0.2535003 v 0 c 0.48425,0.9666053 0.716355,2.0407316 0.679521,3.1224412 -0.02817,0.8246885 -0.21125,1.6355644 -0.54248,2.3879402 v 0 c -0.125125,0.286 -0.459063,0.416542 -0.745063,0.291146 v 0 c -0.286,-0.125125 -0.416542,-0.459063 -0.291146,-0.745063 v 0 c 0.275708,-0.6212925 0.42575,-1.2918766 0.448771,-1.9724816 0.0306,-0.8926677 -0.1625,-1.7785646 -0.559542,-2.5783364 z M 5.6737884,3.1615446 v 0 C 5.3929339,3.2956073 5.0549335,3.1764405 4.9192459,2.895586 v 0 C 4.783829,2.6147315 4.9016417,2.2764603 5.1824962,2.1410434 v 0 C 6.1282473,1.6868554 7.170686,1.4680218 8.2215206,1.5037718 9.2325426,1.5381677 10.224606,1.8068347 11.11267,2.2924394 v 0 c 0.274354,0.149771 0.375375,0.4940006 0.225604,0.7683551 v 0 c -0.149771,0.2740837 -0.494,0.3751046 -0.768355,0.2253336 v 0 C 9.8370433,2.8850235 9.0188549,2.6621274 8.1830622,2.633419 7.3158529,2.6038981 6.4556852,2.7840025 5.6737884,3.1615446 Z M 2.9055977,9.7038024 v 0 C 3.0049937,9.999011 2.8452017,10.319407 2.5491806,10.418532 v 0 C 2.2531594,10.517657 1.9322215,10.357053 1.8330964,10.06049 v 0 C 1.5896169,9.3254477 1.4774918,8.5524885 1.5037627,7.7784459 1.5387002,6.7560489 1.8130547,5.7531519 2.3103053,4.8566925 v 0 C 2.4600763,4.583963 2.8034934,4.4853795 3.0770354,4.6367755 v 0 c 0.273542,0.1513961 0.3726671,0.4956256 0.2212711,0.7683551 v 0 C 2.8885351,6.1461315 2.662389,6.972445 2.6334098,7.8169043 2.6117431,8.4582384 2.7030141,9.0946975 2.9055977,9.7038024 Z M 12.865234,3.8930663 c -0.01083,0.3120004 -0.272459,0.5562924 -0.584188,0.5457298 -0.31173,-0.010562 -0.556293,-0.2724586 -0.54573,-0.5841881 0.01056,-0.3117296 0.272459,-0.5562924 0.584188,-0.545459 0.31173,0.010563 0.556292,0.2721878 0.54573,0.5839173 z M 4.0355157,11.727472 c -0.010563,0.311729 -0.2721879,0.556292 -0.5839174,0.545729 -0.3120004,-0.01083 -0.5562923,-0.272458 -0.5457298,-0.584188 0.010563,-0.31173 0.2724587,-0.556292 0.5841882,-0.54573 0.3117295,0.01056 0.5562923,0.272459 0.545459,0.584189 z m 9.0482813,0.308479 c 0.01056,-0.311729 -0.234001,-0.573355 -0.54573,-0.584188 -0.31173,-0.01056 -0.573355,0.234 -0.584188,0.54573 -0.01056,0.311729 0.234,0.573625 0.545729,0.584188 0.31173,0.01056 0.573626,-0.234 0.584189,-0.54573 z M 4.4425786,3.6059827 C 4.4531412,3.2942531 4.2088492,3.032357 3.8971197,3.0217945 3.5851193,3.011232 3.323494,3.2557947 3.3129315,3.5675243 3.3020981,3.8792538 3.5466609,4.1408791 3.8583905,4.1517125 4.1703908,4.162275 4.4320161,3.9177122 4.4425786,3.6059827 Z m 7.6957374,2.4545654 c -0.152479,0.1638543 -0.125937,0.77648 -0.09425,0.7713342 0.155459,-0.031688 0.140834,-0.820626 0.09425,-0.7713342 z m 0.441188,0.093167 c -0.01788,-0.049833 -0.418979,0.5132298 -0.348021,0.7204176 0.03169,0.089917 0.401917,-0.5627924 0.348021,-0.7204176 z m -2.082981,0.9573967 c 0.0054,-0.00542 0.01165,0.00217 0.01788,0.0084 0.04658,0.1543752 0.09831,0.3014379 0.405167,0.3385421 0.03602,0.00433 -0.170354,0.1248543 -0.312,0.050917 -0.129188,-0.078275 -0.140833,-0.3629216 -0.111042,-0.3978591 z m 0.79571,0.7775634 c 0.02844,-0.00433 0.04875,-0.00325 0.06879,0 0.07502,0.018958 -0.544376,0.3417921 -0.592584,0.2973754 -0.02952,-0.028438 0.330145,-0.2613545 0.524875,-0.2973754 z m 0.161958,0.2042086 c 0.06446,0.00542 -0.358584,0.4433547 -0.40625,0.3978546 -0.03494,-0.031688 0.274083,-0.4084171 0.40625,-0.3978546 z M 3.4551191,5.4267973 c -0.020042,0.039271 -0.040083,0.078271 -0.059313,0.1175418 0.3046878,0.169271 1.1827305,0.6104591 1.5995435,0.8718135 0.5267715,0.3225629 1.2387932,0.9806887 1.2948557,1.0914597 -0.5478965,0.9541469 -0.2992712,1.7986063 -0.3640004,1.888523 -0.046583,0.075021 -0.4772089,0.5478965 -0.3385421,0.6177717 0.1375835,0.06879 0.3564171,-0.039271 0.3894588,-0.060396 0.068792,-0.04225 0.1397502,-0.1037293 0.1099585,0.017875 -0.058229,0.2486251 -0.3225629,0.8463551 0.04225,0.7193341 0.044417,-0.02546 0.6315841,-0.672751 0.7025425,-0.6949591 1.1681056,0.3046881 2.4746071,0.1649381 2.7164616,0.051729 0.1259376,0.0084 0.4823543,0.232646 0.6854803,0.339625 0.203125,0.105897 0.756438,0.371314 0.592584,-0.111041 -0.05092,-0.15248 -0.414647,-0.5416674 -0.355605,-0.5671258 0.13,-0.051729 0.451751,0.1343335 0.575522,0.169271 0.370229,0.1037293 0.420063,-0.040083 0.186333,-0.3564171 -0.23075,-0.3163337 -0.265417,-0.2675836 -0.338542,-0.4135629 -0.05715,-0.1175418 0,-0.247542 0.04225,-0.2792295 0.07502,-0.057146 1.180564,-0.670855 1.439751,-0.9056678 0.384042,-0.3491046 0,-0.7848759 -0.09425,-0.8463551 C 11.485337,6.5036319 10.667419,6.6263196 10.656857,6.5353195 10.65144,6.4315902 10.653607,6.132319 10.639794,6.0285897 10.56044,5.3260472 10.23571,5.5029016 10.191294,5.5029016 9.8665642,5.5538183 9.9860019,6.050798 10.123585,6.5185278 10.134148,6.6379654 10.010377,6.5851528 9.9372518,6.4592152 9.6875432,5.7894436 9.5827305,5.8010894 9.5139388,5.7810477 9.4473137,5.7661519 9.2125009,5.909152 9.2165634,6.1799857 c 0.00108,0.077188 0.093167,0.4455214 0.093167,0.5587298 C 9.1564384,6.873049 9.148855,7.1777369 8.9879798,7.2887787 8.5194376,7.386008 7.3935821,7.0572159 7.2530195,7.0423201 6.7663314,6.9513199 6.553727,7.3164037 6.475456,7.2286536 5.843872,6.5049861 4.8788917,5.9676521 4.4609953,5.8744853 4.2990368,5.8395478 3.7522237,5.598235 3.5553276,5.4766307 3.5236401,5.4576723 3.4876192,5.4438598 3.4526816,5.425714 Z"
     fill-rule="evenodd"
     id="path3"
     style="fill:url(#linearGradient5);fill-opacity:1" />
</svg>
