<?xml version="1.0" encoding="UTF-8" standalone="no"?>
<svg
   width="16"
   height="16"
   version="1.1"
   id="svg5"
   sodipodi:docname="dia.svg"
   inkscape:version="1.4.4 (unknown)"
   xmlns:inkscape="http://www.inkscape.org/namespaces/inkscape"
   xmlns:sodipodi="http://sodipodi.sourceforge.net/DTD/sodipodi-0.dtd"
   xmlns:xlink="http://www.w3.org/1999/xlink"
   xmlns="http://www.w3.org/2000/svg"
   xmlns:svg="http://www.w3.org/2000/svg">
  <defs
     id="defs5">
    <linearGradient
       id="linearGradient1"
       inkscape:collect="always">
      <stop
         style="stop-color:#b380ff;stop-opacity:1"
         offset="0"
         id="stop1" />
      <stop
         style="stop-color:#ffdd55;stop-opacity:1"
         offset="1"
         id="stop2" />
    </linearGradient>
    <filter
       id="b-3-36"
       width="1.2393739"
       height="1.1966286"
       x="-0.11968695"
       y="-0.098314282"
       color-interpolation-filters="sRGB">
      <feGaussianBlur
         stdDeviation="1.147"
         id="feGaussianBlur7-6" />
    </filter>
    <linearGradient
       inkscape:collect="always"
       xlink:href="#linearGradient1"
       id="linearGradient2"
       x1="19.86986"
       y1="36.062737"
       x2="52.146084"
       y2="36.062737"
       gradientUnits="userSpaceOnUse" />
    <linearGradient
       inkscape:collect="always"
       xlink:href="#linearGradient1"
       id="linearGradient4"
       x1="28.288843"
       y1="35.345512"
       x2="42.321953"
       y2="35.345512"
       gradientUnits="userSpaceOnUse" />
  </defs>
  <sodipodi:namedview
     id="namedview5"
     pagecolor="#ffffff"
     bordercolor="#000000"
     borderopacity="0.25"
     inkscape:showpageshadow="2"
     inkscape:pageopacity="0.0"
     inkscape:pagecheckerboard="0"
     inkscape:deskcolor="#d1d1d1"
     inkscape:zoom="16.528621"
     inkscape:cx="8.1676505"
     inkscape:cy="17.091565"
     inkscape:window-width="1920"
     inkscape:window-height="994"
     inkscape:window-x="0"
     inkscape:window-y="0"
     inkscape:window-maximized="1"
     inkscape:current-layer="svg5" />
  <g
     id="g1"
     transform="matrix(0.33331186,0,0,0.33333334,-3.8696098,-3.9981529)">
    <path
       d="m 24.779233,18.870054 h 2.808118 v 2.860148 h -2.808118"
       opacity="0.1"
       id="path16"
       style="stroke-width:2.33917" />
    <path
       d="m 15,11 v 3 h 1 v 1 h -2 v 3 h 2 v 14 h -2 v 3 h 2 v 0.877 H 15 L 17,39 19,35.877 H 18 V 35 h 9 C 32.54,35 37,30.54 37,25 37,19.46 32.54,15 27,15 h -9 v -1 h 1 v -3 z m 3,7 h 9 c 3.878,0 7,3.122 7,7 0,3.878 -3.122,7 -7,7 h -9 z m 7,2 -5,9 h 10 z m 0,3.6 1.801,3.4 h -3.602"
       filter="url(#b)"
       opacity="0.5"
       transform="matrix(1.4033103,0,0,1.4325963,1.6256391,1.6795503)"
       id="path18"
       style="stroke-width:2.15179;filter:url(#b-3-36)" />
    <path
       d="m 35.304856,28.898116 -7.016013,12.894795 h 14.033108 m -4.490859,-2.866726 h -5.052467 l 2.526231,-4.870143"
       id="path20"
       style="fill:url(#linearGradient4)" />
    <path
       d="m 21.272846,16.005519 v 4.297903 h 1.402982 V 21.73568 H 19.86986 v 4.297904 h 2.805968 V 46.090815 H 19.86986 v 4.297879 h 2.805968 v 1.256531 h -1.402982 l 2.807047,4.474731 2.805969,-4.474731 h -1.402988 v -1.256531 h 12.631189 c 7.773452,0 14.032021,-6.389178 14.032021,-14.32595 0,-7.936783 -6.257497,-14.325951 -14.033106,-14.325951 H 25.482874 v -1.43227 h 1.402988 v -4.297902 z m 4.210028,10.028065 h 12.630104 c 5.441964,0 9.823065,4.473638 9.823065,10.028073 0,5.554424 -4.381101,10.029158 -9.823065,10.029158 H 25.482874 Z"
       id="path22"
       style="fill:url(#linearGradient2)" />
  </g>
</svg>
