<?xml version="1.0" encoding="UTF-8" standalone="no"?>
<svg
   width="16"
   height="16"
   version="1"
   id="svg2"
   sodipodi:docname="dino.svg"
   inkscape:version="1.4.4 (unknown)"
   xmlns:inkscape="http://www.inkscape.org/namespaces/inkscape"
   xmlns:sodipodi="http://sodipodi.sourceforge.net/DTD/sodipodi-0.dtd"
   xmlns:xlink="http://www.w3.org/1999/xlink"
   xmlns="http://www.w3.org/2000/svg"
   xmlns:svg="http://www.w3.org/2000/svg">
  <defs
     id="defs2">
    <linearGradient
       id="linearGradient2"
       inkscape:collect="always">
      <stop
         style="stop-color:#00ccff;stop-opacity:1"
         offset="0"
         id="stop2" />
      <stop
         style="stop-color:#ff9955;stop-opacity:1"
         offset="1"
         id="stop3" />
    </linearGradient>
    <linearGradient
       inkscape:collect="always"
       xlink:href="#linearGradient2"
       id="linearGradient3"
       x1="-0.00056920096"
       y1="7.3124738"
       x2="9.7011662"
       y2="7.2702017"
       gradientUnits="userSpaceOnUse" />
    <linearGradient
       inkscape:collect="always"
       xlink:href="#linearGradient2"
       id="linearGradient5"
       x1="0.057197869"
       y1="6.4930024"
       x2="13.000001"
       y2="6.4930024"
       gradientUnits="userSpaceOnUse" />
  </defs>
  <sodipodi:namedview
     id="namedview2"
     pagecolor="#ffffff"
     bordercolor="#000000"
     borderopacity="0.25"
     inkscape:showpageshadow="2"
     inkscape:pageopacity="0.0"
     inkscape:pagecheckerboard="0"
     inkscape:deskcolor="#d1d1d1"
     inkscape:zoom="23.65625"
     inkscape:cx="6.1717305"
     inkscape:cy="7.0383091"
     inkscape:window-width="1920"
     inkscape:window-height="994"
     inkscape:window-x="0"
     inkscape:window-y="0"
     inkscape:window-maximized="1"
     inkscape:current-layer="svg2" />
  <g
     id="g2"
     transform="translate(1.5002839,1.5000198)">
    <path
       d="M 5.8444264,-3.7502901e-6 C 5.478418,-3.7502901e-6 4.8272758,1.1162701 4.4828632,1.7566711 4.8077112,1.6856396 5.1428127,1.6417776 5.487339,1.6297203 5.50916,1.592857 5.5283874,1.5571255 5.5508145,1.5202216 5.6423247,1.3696518 5.7276357,1.2620462 5.8174072,1.1346079 c 0.072222,0.1170466 0.1390325,0.2089306 0.2110594,0.3443557 0.029432,0.055341 0.054514,0.1084343 0.082516,0.1634477 0.3308928,0.02419 0.6590342,0.077288 0.98067,0.1586865 C 6.802814,1.1707716 6.2172557,-2e-5 5.8443249,-2e-5 Z M 1.7899613,0.84579365 C 1.7554477,0.84498116 1.726676,0.84988151 1.7058528,0.8616623 1.4198985,1.0243869 1.5356777,3.3113873 1.5424051,3.4403288 1.7826571,3.182519 2.0463655,2.9450376 2.3310848,2.7341651 c -0.00407,-0.1295183 -0.00605,-0.2832324 -0.00476,-0.4951124 6.223e-4,-0.1023244 0.00968,-0.1741319 0.012695,-0.2729464 0.120841,0.067136 0.2200454,0.1131468 0.3459401,0.1888379 0.095971,0.057702 0.1874079,0.1154623 0.2792919,0.17297 C 3.2464187,2.1717464 3.5431141,2.0380844 3.8529473,1.9311938 3.2561686,1.5401364 2.1603775,0.85448806 1.7899654,0.84579446 Z M 10.167499,1.6281278 c -0.4909848,0.013549 -1.6196896,0.2620916 -2.3152584,0.4252874 0.382233,0.1572776 0.7461826,0.3557539 1.0853993,0.5919119 0.2076145,-0.04236 0.394868,-0.07409 0.5871508,-0.1079062 -0.016924,0.068853 -0.020434,0.1137236 -0.039674,0.1840768 -0.026528,0.096978 -0.054526,0.1905766 -0.082516,0.284053 0.2327625,0.201671 0.4487601,0.4219153 0.6458613,0.6585601 0.210767,-0.6424891 0.57147,-1.8572606 0.331657,-2.0090329 -0.03433,-0.021734 -0.108735,-0.029844 -0.212644,-0.026977 z m 0.426872,2.4184443 c -0.09098,7.9e-5 -0.1689,0.00182 -0.247556,0.00318 0.179782,0.2573146 0.337951,0.5290712 0.472891,0.8124855 0.05076,8.125e-4 0.09949,6e-6 0.150756,0.00158 0.05402,0.00167 0.08657,0.00835 0.13965,0.011108 -0.05112,0.10282 -0.101812,0.2033976 -0.152341,0.304682 0.144641,0.3573486 0.252574,0.7284775 0.322135,1.1076615 C 11.681143,5.5784176 12.2674,4.4959026 12.187614,4.3068372 12.094682,4.0869624 11.2301,4.0460375 10.594412,4.04659 Z m 0.78075,3.2752915 c -0.0048,0.7809997 -0.17123,1.5525493 -0.488759,2.2661033 0.301335,-0.2222879 1.28649,-0.9578391 1.33142,-1.2171032 0.03413,-0.1957684 -0.453708,-0.6873059 -0.842629,-1.0489188 z M 0.05719787,8.0470719 C 1.6058057,8.9213535 1.713937,10.041805 2.1709601,11.765168 1.9019706,11.030056 1.7486139,10.234852 1.713937,10.041805 1.6858283,9.9992113 1.6582387,9.9568029 1.631421,9.9132699 1.4269834,9.7926564 1.2423055,9.6721161 1.0950506,9.5530463 c 0,0 -0.70142686,-0.3539024 -0.97116392,-1.233028 C 0.10519951,8.2574569 0.08297072,8.2002011 0.06834598,8.1327648 0.06386772,8.1046658 0.0612954,8.075318 0.05723768,8.0470719 Z M 10.965628,9.7624726 c 0.276391,0.4162444 0.581228,0.8914594 0.860097,1.3536004 0.17102,-0.317235 0.459932,-0.891377 0.341179,-1.094986 C 12.043975,9.8119448 11.314119,9.7737499 10.965644,9.7624238 Z M 8.7487614,11.374769 c -0.1297864,0.329463 -0.2946316,0.693026 -0.4839976,0.99497 0.1993905,-0.09854 0.2975818,-0.873658 0.4839976,-0.99497 1.5301536,0.501441 3.6071026,1.753628 3.9069096,1.597956 -0.840922,-0.27462 -2.784794,-0.802574 -3.6387162,-1.597997 H 8.7487696 Z m 3.2436046,0.02381 c 0.395827,0.675638 0.698868,1.272839 0.706164,1.512279 0.01104,-0.06962 -0.02863,-0.186758 -0.09204,-0.34594 0.13081,-0.203934 0.485079,-0.805482 0.371331,-1.002932 -0.09453,-0.160783 -0.647706,-0.168169 -0.985464,-0.163448 z m -7.6678318,0.591912 c -0.1971821,0.223734 -0.3841919,0.465586 -0.5712748,0.65856 0.5713317,-0.658569 0.9120073,-1.277886 1.5722918,-1.274164 0.4463687,-0.0047 1.2527652,1.562612 1.6856125,1.453479 C 6.7758842,12.661981 6.5717228,12.39859 6.3668871,12.139651 6.1425436,12.171265 5.553884,11.375004 5.3255512,11.374883 c -0.4764252,0 -0.5709116,0.743269 -1.0009601,0.615595 z"
       opacity="0.3"
       stroke-linecap="round"
       stroke-linejoin="round"
       style="stroke-width:0.812486;-inkscape-stroke:none;fill:url(#linearGradient5);opacity:0.68662301"
       id="path1"
       sodipodi:nodetypes="cccccsccccccccscccccccccccccccccccscccccccccccccccccccccccccccccccccccccccccccccc" />
    <path
       d="m 5.6872917,1.6249672 c -2.9298227,0 -5.27595578,2.2384788 -5.63182443,4.9399931 A 4.1899877,4.1899877 0 0 0 -7.3421611e-5,7.3123819 C 0.00317652,7.6081267 0.0267256,7.8728101 0.06816236,8.1328298 0.0827871,8.2002661 0.10501589,8.2575219 0.12370306,8.3200833 0.39344824,9.1991926 1.094867,9.5531113 1.094867,9.5531113 1.2646764,9.6904214 1.4771251,9.8299414 1.7216833,9.9688764 h -0.02063 c 0,0 0.5135395,3.0537266 1.4536178,3.0309776 0.7109248,-0.01787 1.2665836,-1.653408 2.1708799,-1.624971 0.9026714,0.02844 1.2691024,1.615221 2.1677113,1.624971 0.5183658,0.0057 0.9700265,-0.901047 1.2552089,-1.624971 h 0.2681852 c 0.8539222,0.795423 2.7977936,1.323376 3.6387166,1.597996 0.01137,-0.0065 0.02698,0.02698 0.02698,0.02698 0.188496,-0.241308 -0.987658,-2.150893 -1.80908,-3.3768523 A 5.6597739,5.6597739 0 0 0 11.374728,7.3124575 5.6873985,5.6873985 0 0 0 5.6873291,1.625059 Z m 0,0.8124855 c 2.7019205,0 4.8749133,2.1729925 4.8749133,4.874913 -0.0026,0.6814803 -0.149628,1.3544946 -0.430049,1.9756397 a 0.81256674,0.81256674 0 0 0 0.06665,0.7870956 c 0.309996,0.462694 0.651288,1.021457 0.964827,1.545591 -0.01233,-0.0046 -0.02101,-0.0064 -0.03332,-0.01111 C 10.473437,11.359362 9.8380494,11.028949 9.5704166,10.77963 A 0.81256674,0.81256674 0 0 0 9.016594,10.562225 H 8.7484088 a 0.81256674,0.81256674 0 0 0 -0.7553596,0.514149 c -0.1313708,0.333476 -0.3048527,0.701882 -0.4586075,0.929889 -0.038439,0.05701 -0.072834,0.09631 -0.099976,0.123774 h -0.00159 C 7.3440982,12.05357 7.2068938,11.890769 7.0488491,11.690467 6.8908045,11.490164 6.7109283,11.252805 6.452176,11.027145 6.1934319,10.801486 5.8125062,10.576728 5.350852,10.562184 4.8776117,10.547303 4.48198,10.755978 4.2035412,10.974772 3.9251349,11.193567 3.7226798,11.436719 3.5449811,11.6492 3.4011143,11.821228 3.291445,11.944994 3.1942798,12.047505 3.0835381,11.8613 2.9527523,11.565888 2.8483398,11.242958 2.6309674,10.570642 2.5157732,9.8969129 2.5103296,9.865551 A 0.81256674,0.81256674 0 0 0 2.1231315,9.2625324 C 1.9066366,9.1395383 1.728036,9.0201842 1.6058057,8.9213535 a 0.81256674,0.81256674 0 0 0 -0.144403,-0.093631 c 0,0 -0.3900175,-0.1861241 -0.56176064,-0.7458373 C 0.87800069,8.0097261 0.87258223,7.9951444 0.86949153,7.9866702 0.83580345,7.7701753 0.81512163,7.5536641 0.81236405,7.3027199 a 0.81256674,0.81256674 0 0 0 0,-0.00159 0.81256674,0.81256674 0 0 0 0,-0.00159 c -0.003185,-0.2017726 0.0116169,-0.4039028 0.0444332,-0.6030186 a 0.81256674,0.81256674 0 0 0 0.003174,-0.02539 C 0.96467608,5.8763072 1.2767193,5.1285524 1.7390804,4.4859576 A 0.81256674,0.81256674 0 0 0 1.6248287,4.8747482 V 5.6872337 A 0.81256674,0.81256674 0 0 0 2.4373142,6.4997192 H 3.2497997 A 0.81256674,0.81256674 0 0 0 4.0622851,5.6872337 V 4.8747482 A 0.81256674,0.81256674 0 0 0 3.2497997,4.0622627 H 2.4373142 A 0.81256674,0.81256674 0 0 0 1.8898371,4.2828362 C 2.7743088,3.1767997 4.133272,2.4372754 5.6872318,2.4372754 Z M 2.4373497,4.8749092 H 3.2498352 V 5.6873947 H 2.4373497 Z"
       stroke-linecap="round"
       stroke-linejoin="round"
       style="stroke-width:0.812486;-inkscape-stroke:none;fill:url(#linearGradient3)"
       id="path2" />
  </g>
</svg>
