<?xml version="1.0" encoding="UTF-8" standalone="no"?>
<svg
   width="16px"
   height="16px"
   viewBox="0 0 16 16"
   version="1.1"
   id="svg1"
   sodipodi:docname="disk-utility.svg"
   inkscape:version="1.4.4 (unknown)"
   xmlns:inkscape="http://www.inkscape.org/namespaces/inkscape"
   xmlns:sodipodi="http://sodipodi.sourceforge.net/DTD/sodipodi-0.dtd"
   xmlns:xlink="http://www.w3.org/1999/xlink"
   xmlns="http://www.w3.org/2000/svg"
   xmlns:svg="http://www.w3.org/2000/svg">
  <defs
     id="defs1">
    <linearGradient
       id="linearGradient5"
       inkscape:collect="always">
      <stop
         style="stop-color:#bc5fd3;stop-opacity:1"
         offset="0"
         id="stop4" />
      <stop
         style="stop-color:#ffd42a;stop-opacity:1"
         offset="1"
         id="stop5" />
    </linearGradient>
    <linearGradient
       id="linearGradient1"
       inkscape:collect="always">
      <stop
         style="stop-color:#bc5fd3;stop-opacity:1"
         offset="0"
         id="stop1" />
      <stop
         style="stop-color:#ffd42a;stop-opacity:1"
         offset="1"
         id="stop2" />
    </linearGradient>
    <linearGradient
       inkscape:collect="always"
       xlink:href="#linearGradient5"
       id="linearGradient2"
       x1="7.0125942"
       y1="7.00564"
       x2="10.407187"
       y2="11.865135"
       gradientUnits="userSpaceOnUse"
       gradientTransform="matrix(0.81246154,0,0,0.8125,1.5003077,1.5)" />
    <linearGradient
       inkscape:collect="always"
       xlink:href="#linearGradient1"
       id="linearGradient4"
       x1="-9.2785692"
       y1="1.4613445e-08"
       x2="1.7213999"
       y2="1.4613445e-08"
       gradientUnits="userSpaceOnUse" />
  </defs>
  <sodipodi:namedview
     id="namedview1"
     pagecolor="#ffffff"
     bordercolor="#000000"
     borderopacity="0.25"
     inkscape:showpageshadow="2"
     inkscape:pageopacity="0.0"
     inkscape:pagecheckerboard="0"
     inkscape:deskcolor="#d1d1d1"
     inkscape:zoom="33.45499"
     inkscape:cx="3.6167998"
     inkscape:cy="9.3707994"
     inkscape:current-layer="svg1"
     inkscape:window-width="1920"
     inkscape:window-height="994"
     inkscape:window-x="0"
     inkscape:window-y="0"
     inkscape:window-maximized="1" />
  <path
     d="M 5.9624992,1.5 C 4.9405745,1.5126953 4.19476,1.4746094 3.5822404,1.8110347 3.2775673,1.9824219 3.0363678,2.268066 2.9030729,2.6235348 2.7666054,2.9790035 2.719,3.4042969 2.719,3.9375 v 8.125 c 0,0.533203 0.047605,0.958497 0.1840729,1.313965 0.1332949,0.355469 0.3744944,0.641113 0.6791675,0.809326 0.6125196,0.3396 1.3583341,0.301514 2.3802588,0.314209 h 4.0718278 c 1.025099,-0.0127 1.770913,0.02539 2.383433,-0.314209 0.304673,-0.168213 0.545872,-0.453857 0.682341,-0.809326 C 13.233395,13.020997 13.281,12.595703 13.281,12.0625 V 3.9375 C 13.281,3.4042969 13.23339,2.9790035 13.100101,2.6235348 12.963632,2.268066 12.722433,1.9824219 12.41776,1.8110347 11.80524,1.4746094 11.059426,1.5126953 10.034327,1.5 Z m 0.00635,0.8125 h 4.0623078 c 1.021924,0.012695 1.694744,0.047608 1.99307,0.2126467 0.149163,0.082519 0.234852,0.1713863 0.314194,0.384033 0.07934,0.2126467 0.13012,0.5458984 0.13012,1.0283203 v 8.125 c 0,0.482422 -0.05078,0.815674 -0.13012,1.02832 -0.07935,0.212647 -0.165031,0.301514 -0.314194,0.384033 -0.298326,0.165039 -0.971146,0.199952 -1.99307,0.212647 H 5.9688462 C 4.9469223,13.674805 4.2709283,13.639892 3.9757765,13.474853 3.8266134,13.392334 3.7409239,13.303467 3.6615821,13.09082 3.5822404,12.878174 3.5314616,12.544922 3.5314616,12.0625 v -8.125 c 0,-0.4824219 0.050779,-0.8156736 0.1301205,-1.0283203 C 3.7409239,2.696533 3.8266134,2.6076658 3.9757765,2.5251467 4.2709283,2.3601076 4.9469223,2.3251953 5.9688462,2.3125 Z M 8.2411995,5.5720217 C 7.3811326,5.5148924 6.5020241,5.7592777 5.775252,6.3178715 4.3217071,7.4318846 3.9154764,9.4599609 4.8326691,11.046875 5.7498626,12.633789 7.7080217,13.297119 9.3995918,12.595703 11.091163,11.897461 12.008355,10.040772 11.532303,8.2729496 L 11.427572,7.8793941 10.6405,8.0888672 10.748405,8.4824219 C 11.119726,9.8630373 10.408822,11.297608 9.0885717,11.84668 7.7683217,12.392578 6.2513033,11.878418 5.537226,10.640625 4.8231487,9.4028316 5.1341687,7.8317873 6.2671723,6.962158 7.2922696,6.1750486 8.6918614,6.194092 9.6979179,6.9462891 v 0 L 10.586548,6.6352535 v 0 0 C 9.9391174,5.9846189 9.0980922,5.6291502 8.2411995,5.5720217 Z M 8,8 C 7.3271803,8 6.7813077,8.5458984 6.7813077,9.21875 6.7813077,9.8916016 7.3271803,10.4375 8,10.4375 8.6728197,10.4375 9.2186923,9.8916016 9.2186923,9.21875 9.2186923,8.5458984 8.6728197,8 8,8 Z M 7.99048,8.8125 H 8 c 0.2253314,0 0.4062308,0.180908 0.4062308,0.40625 C 8.4062308,9.444092 8.2253314,9.625 8,9.625 7.7746687,9.625 7.5937693,9.444092 7.5937693,9.21875 c 0,-0.2221684 0.1745524,-0.3999028 0.3967095,-0.40625 z"
     id="path1"
     style="fill:url(#linearGradient2);stroke-width:0.999993"
     sodipodi:nodetypes="cccssccccccssccccccsssscscccsssscscccsccccccscccccccssssscsssssc" />
  <g
     transform="matrix(0.489896,0,0,0.489896,9.2595307,11.90491)"
     fill="#dedede"
     id="g3">
    <path
       d="m 1.2241501,-2.4995101 c -0.011,0 -0.014,0.019 -0.021,0.028 l -9.85,2.99899999 c -0.986,0.50000001 -0.64,1.49600001 -0.158,1.81400001 0.596,0.368 1.263,-0.004 1.867,-0.139 l 8.359,-3.763 c 0.333,-0.094 0.431,-0.712 0.077,-0.852 a 0.578,0.578 0 0 0 -0.274,-0.086 z"
       id="path3"
       style="fill:url(#linearGradient4);fill-opacity:1" />
  </g>
</svg>
