<?xml version="1.0" encoding="UTF-8" standalone="no"?>
<!-- Generator: Gravit.io -->

<svg
   style="isolation:isolate"
   viewBox="0 0 16 16"
   width="16"
   height="16"
   version="1.1"
   id="svg4"
   sodipodi:docname="gnome-baker.svg"
   inkscape:version="1.4.4 (unknown)"
   xmlns:inkscape="http://www.inkscape.org/namespaces/inkscape"
   xmlns:sodipodi="http://sodipodi.sourceforge.net/DTD/sodipodi-0.dtd"
   xmlns:xlink="http://www.w3.org/1999/xlink"
   xmlns="http://www.w3.org/2000/svg"
   xmlns:svg="http://www.w3.org/2000/svg">
  <defs
     id="defs4">
    <linearGradient
       id="linearGradient4"
       inkscape:collect="always">
      <stop
         style="stop-color:#8d5fd3;stop-opacity:1"
         offset="0"
         id="stop5" />
      <stop
         style="stop-color:#d35f8d;stop-opacity:1"
         offset="1"
         id="stop6" />
    </linearGradient>
    <linearGradient
       inkscape:collect="always"
       xlink:href="#linearGradient4"
       id="linearGradient6"
       x1="1.5"
       y1="8"
       x2="14.5"
       y2="8"
       gradientUnits="userSpaceOnUse" />
  </defs>
  <sodipodi:namedview
     id="namedview4"
     pagecolor="#ffffff"
     bordercolor="#000000"
     borderopacity="0.25"
     inkscape:showpageshadow="2"
     inkscape:pageopacity="0.0"
     inkscape:pagecheckerboard="0"
     inkscape:deskcolor="#d1d1d1"
     inkscape:document-units="px"
     inkscape:zoom="16.727495"
     inkscape:cx="9.5053086"
     inkscape:cy="13.959054"
     inkscape:window-width="1920"
     inkscape:window-height="994"
     inkscape:window-x="0"
     inkscape:window-y="0"
     inkscape:window-maximized="1"
     inkscape:current-layer="svg4" />
  <linearGradient
     id="_lgradient_14"
     x1="0.62099254"
     y1="0.043614805"
     x2="0.4883253"
     y2="0.96253371"
     gradientTransform="matrix(3.9091276,0,0,5.1170212,9.8595531,8.9868935)"
     gradientUnits="userSpaceOnUse">
    <stop
       offset="0%"
       stop-opacity="1"
       style="stop-color:rgb(255,224,49)"
       id="stop1" />
    <stop
       offset="100%"
       stop-opacity="1"
       style="stop-color:rgb(250,0,117)"
       id="stop2" />
  </linearGradient>
  <path
     d="m 12.41834,8.9871702 c -1.599276,0.639766 -2.5587868,2.1383618 -2.5587868,3.1982768 0,1.047191 0.8394678,1.896893 1.8822338,1.916808 -0.521106,-0.01023 -0.940702,-0.433978 -0.940702,-0.957574 0,-0.529681 0.479617,-1.279255 1.279255,-1.599 0,1.119383 0.858277,1.281191 0.63949,1.919021 -0.123915,0.361511 -0.426511,0.635894 -0.951213,0.638936 0.003,0 0.0066,2.77e-4 0.01,2.77e-4 1.059639,0 1.669256,-0.552085 1.918745,-1.279255 0.437851,-1.275383 -1.279255,-1.599 -1.279255,-3.8377664 z"
     id="path2"
     style="fill:#c83771" />
  <linearGradient
     id="_lgradient_15"
     x1="0.061897106"
     y1="0.14716151"
     x2="0.99042481"
     y2="0.98658085"
     gradientTransform="matrix(13,0,0,13,1.5,1.5)"
     gradientUnits="userSpaceOnUse">
    <stop
       offset="0%"
       stop-opacity="1"
       style="stop-color:rgb(22,181,228)"
       id="stop3" />
    <stop
       offset="98.26086956521739%"
       stop-opacity="1"
       style="stop-color:rgb(245,32,250)"
       id="stop4" />
  </linearGradient>
  <path
     d="m 8.7993617,13.335532 v 0 c 0.3023192,-0.04592 0.5841702,0.162362 0.6292553,0.464681 v 0 c 0.045085,0.302319 -0.1637447,0.583617 -0.4660638,0.627872 v 0 C 8.6444681,14.475106 8.3208511,14.5 8,14.5 6.2768085,14.5 4.622766,13.814043 3.4029787,12.597021 2.1859574,11.377234 1.5,9.7231915 1.5,8 1.5,6.2768085 2.1859574,4.622766 3.4029787,3.4029787 4.622766,2.1859574 6.2768085,1.5 8,1.5 9.7231915,1.5 11.377234,2.1859574 12.597021,3.4029787 13.814043,4.622766 14.5,6.2768085 14.5,8 c 0,0.4702128 -0.04979,0.9404255 -0.152128,1.4023404 v 0 c -0.06555,0.297617 -0.360681,0.4859787 -0.658298,0.4204256 v 0 C 13.391957,9.7572128 13.202213,9.4620851 13.266383,9.1644681 v 0 C 13.352128,8.782766 13.393617,8.392766 13.393617,8 13.393617,6.57 12.82383,5.1980851 11.814255,4.1857447 10.801915,3.1761702 9.43,2.606383 8,2.606383 6.57,2.606383 5.1980851,3.1761702 4.1857447,4.1857447 3.1761702,5.1980851 2.606383,6.57 2.606383,8 c 0,1.43 0.5697872,2.801915 1.5793617,3.814255 C 5.1980851,12.82383 6.57,13.393617 8,13.393617 c 0.2682979,0 0.5338298,-0.01936 0.7993617,-0.05809 z M 6.83,12.124043 v 0 c 0.1465957,0.04287 0.2315106,0.196383 0.1894681,0.342978 v 0 c -0.042043,0.146596 -0.195,0.232064 -0.3415958,0.190851 v 0 C 5.6655319,12.370213 4.7721277,11.758936 4.1387234,10.918085 3.5025532,10.077234 3.1595745,9.0538298 3.1595745,8 c 0,-0.6804255 0.1438298,-1.3553191 0.4231915,-1.9776596 v 0 C 3.6438936,5.8834894 3.8068085,5.8207021 3.9464894,5.8826596 v 0 c 0.1396808,0.061957 0.2021915,0.2259787 0.1396808,0.3664893 v 0 C 3.84,6.7995745 3.712766,7.3970213 3.712766,8 c 0,0.9321277 0.3042553,1.8393617 0.8657446,2.58617 C 5.14,11.330213 5.9310638,11.869574 6.83,12.124043 Z M 8.4674468,3.7376596 v 0 C 8.3164255,3.7207872 8.206617,3.5838723 8.2226596,3.4320213 v 0 C 8.2387021,3.2801702 8.375617,3.1703617 8.5282979,3.187234 v 0 c 1.1838298,0.13 2.2819151,0.6942554 3.0757451,1.5821277 C 12.400638,5.657234 12.840426,6.8078723 12.840426,8 c 0,0.00277 0,0.00277 0,0.00553 l -0.0028,0.1797872 v 0 C 12.834617,8.338 12.708213,8.4599787 12.555532,8.457766 v 0 C 12.402851,8.4555532 12.281426,8.3297021 12.284468,8.1770213 v 0 l 0.0028,-0.1797873 c 0,-1.0565957 -0.39,-2.074468 -1.095319,-2.86 C 10.486596,4.3517021 9.5157447,3.8538298 8.4674468,3.7376596 Z M 6.7553191,8 c 0,-0.3291489 0.13,-0.647234 0.3651064,-0.8795745 C 7.352766,6.8853191 7.6708511,6.7553191 8,6.7553191 c 0.3291489,0 0.647234,0.13 0.8795745,0.3651064 C 9.1146809,7.352766 9.2446809,7.6708511 9.2446809,8 v 0 c 0,0.3291489 -0.13,0.647234 -0.3651064,0.8795745 C 8.647234,9.1146809 8.3291489,9.2446809 8,9.2446809 v 0 c -0.3291489,0 -0.647234,-0.13 -0.8795745,-0.3651064 C 6.8853191,8.647234 6.7553191,8.3291489 6.7553191,8 Z M 5.6489362,8 c 0,-0.6223404 0.2489361,-1.2225532 0.6887234,-1.6623404 C 6.7774468,5.8978723 7.3776596,5.6489362 8,5.6489362 c 0.6223404,0 1.2225532,0.2489361 1.6623404,0.6887234 C 10.102128,6.7774468 10.351064,7.3776596 10.351064,8 v 0 c 0,0.6223404 -0.248936,1.2225532 -0.6887236,1.6623404 C 9.2225532,10.102128 8.6223404,10.351064 8,10.351064 v 0 c -0.6223404,0 -1.2225532,-0.248936 -1.6623404,-0.6887236 C 5.8978723,9.2225532 5.6489362,8.6223404 5.6489362,8 Z"
     id="path4"
     style="fill:url(#linearGradient6);fill-opacity:1" />
</svg>
