<?xml version="1.0" encoding="UTF-8" standalone="no"?>
<!-- Generator: Gravit.io -->

<svg
   style="isolation:isolate"
   viewBox="0 0 16 16"
   width="16"
   height="16"
   version="1.1"
   id="svg4"
   sodipodi:docname="distributor-logo-elementary.svg"
   inkscape:version="1.4.4 (unknown)"
   xmlns:inkscape="http://www.inkscape.org/namespaces/inkscape"
   xmlns:sodipodi="http://sodipodi.sourceforge.net/DTD/sodipodi-0.dtd"
   xmlns="http://www.w3.org/2000/svg"
   xmlns:svg="http://www.w3.org/2000/svg">
  <defs
     id="defs4" />
  <sodipodi:namedview
     id="namedview4"
     pagecolor="#ffffff"
     bordercolor="#000000"
     borderopacity="0.25"
     inkscape:showpageshadow="2"
     inkscape:pageopacity="0.0"
     inkscape:pagecheckerboard="0"
     inkscape:deskcolor="#d1d1d1"
     inkscape:document-units="px"
     inkscape:zoom="23.65625"
     inkscape:cx="8.6235139"
     inkscape:cy="7.7569353"
     inkscape:window-width="1920"
     inkscape:window-height="994"
     inkscape:window-x="0"
     inkscape:window-y="0"
     inkscape:window-maximized="1"
     inkscape:current-layer="svg4" />
  <linearGradient
     id="_lgradient_24"
     x1="0"
     y1="0.5"
     x2="1"
     y2="0.5"
     gradientTransform="matrix(12.446808,0,0,12.446808,1.7765959,1.7765959)"
     gradientUnits="userSpaceOnUse">
    <stop
       offset="0%"
       stop-opacity="1"
       style="stop-color:rgb(117,127,154)"
       id="stop1" />
    <stop
       offset="98.69565217391305%"
       stop-opacity="1"
       style="stop-color:rgb(215,221,232)"
       id="stop2" />
  </linearGradient>
  <linearGradient
     id="_lgradient_25"
     x1="0.5"
     y1="24"
     x2="47.5"
     y2="24"
     gradientUnits="userSpaceOnUse"
     gradientTransform="matrix(0.27659574,0,0,0.27659574,1.3617023,1.3617023)">
    <stop
       offset="0%"
       stop-opacity="1"
       style="stop-color:rgb(117,127,154)"
       id="stop3" />
    <stop
       offset="98.69565217391305%"
       stop-opacity="1"
       style="stop-color:rgb(215,221,232)"
       id="stop4" />
  </linearGradient>
  <path
     d="m 8.0000001,1.7765959 c -3.4372553,0 -6.2234042,2.7861489 -6.2234042,6.2234042 0,3.4372549 2.7861489,6.2234039 6.2234042,6.2234039 3.4372549,0 6.2234039,-2.786149 6.2234039,-6.2234039 0,-3.4372553 -2.786149,-6.2234042 -6.2234039,-6.2234042 z m 0,0.518617 c 2.6132769,0 4.8160849,1.7572127 5.4915319,4.1541915 -0.581958,1.2001489 -1.409809,2.2805319 -2.418,3.1537446 -0.484319,0.419596 -1.01317,0.793553 -1.5973404,1.056596 -0.5841702,0.263319 -1.2267021,0.412681 -1.8664681,0.37617 C 7.1290001,11.008255 6.6543618,10.874383 6.2333831,10.640936 7.3488937,10.036575 8.3554256,9.2308512 9.1791278,8.2658086 9.7198724,7.6324044 10.193128,6.9127022 10.375128,6.0997873 10.466404,5.6934682 10.481894,5.2680639 10.396702,4.8603618 10.311511,4.4529363 10.123149,4.0643192 9.8379788,3.7608937 9.5591703,3.4646597 9.1935107,3.2547235 8.801298,3.146298 8.4090852,3.038149 7.9917022,3.0298512 7.5914682,3.1028724 6.7912767,3.2491916 6.0765533,3.7144256 5.5034469,4.2919575 4.4933192,5.3098299 3.8687661,6.7461916 3.9832767,8.1756384 4.040532,8.8903618 4.2800639,9.592915 4.690532,10.180681 c 0.091553,0.131383 0.1925107,0.256404 0.3001064,0.374787 -0.5977234,0.209383 -1.2170213,0.358192 -1.8448936,0.442 -0.5390851,-0.871 -0.8505319,-1.8977232 -0.8505319,-2.9974679 0,-3.1507021 2.5540851,-5.7047872 5.7047872,-5.7047872 z m 0.036234,1.1525744 C 8.437298,3.4483405 8.8411278,3.5697661 9.161149,3.8115107 9.4493618,4.0291916 9.6628937,4.3392554 9.7840427,4.6794682 9.9051916,5.0199575 9.9361703,5.3894895 9.8949575,5.7485107 9.8122554,6.4665533 9.4501916,7.1245746 9.0126171,7.6998937 8.2378724,8.7180427 7.2081065,9.5331703 6.0630001,10.103511 5.9457235,10.162149 5.8267873,10.217468 5.7070214,10.270851 5.4578086,10.052894 5.2442767,9.7942767 5.0813618,9.5060639 4.7414256,8.9036384 4.6291278,8.1880852 4.6952341,7.4996384 4.7610639,6.810915 4.9972767,6.1473618 5.3148086,5.5327661 5.6829575,4.8199788 6.1847022,4.1450852 6.8869788,3.7578512 7.2379788,3.5639575 7.6351703,3.4472341 8.0362341,3.4477873 Z m 5.6173829,3.7885319 c 0.03347,0.249766 0.05117,0.5047873 0.05117,0.7636809 0,3.1507019 -2.554085,5.7047869 -5.7047869,5.7047869 -1.769383,0 -3.3506809,-0.805447 -4.3973191,-2.070042 0.645851,-0.146596 1.2773191,-0.357362 1.8827872,-0.625383 0.2647021,0.201638 0.5570638,0.367042 0.8679574,0.486255 0.8950639,0.342979 1.9115532,0.293468 2.8174043,-0.02019 0.9058511,-0.31366 1.7090851,-0.876532 2.4097021,-1.5312344 0.834213,-0.78 1.537596,-1.6991277 2.073085,-2.7078724 z"
     fill="url(#_lgradient_24)"
     vector-effect="non-scaling-stroke"
     stroke-width="0.553191"
     stroke="url(#_lgradient_25)"
     stroke-linejoin="miter"
     stroke-linecap="butt"
     stroke-miterlimit="4"
     id="path4"
     style="fill:url(#_lgradient_24);stroke:url(#_lgradient_25)" />
</svg>
