<?xml version="1.0" encoding="UTF-8" standalone="no"?>
<svg
   width="100%"
   height="100%"
   viewBox="0 0 16 16"
   version="1.1"
   id="svg1"
   sodipodi:docname="dnfdragora.svg"
   inkscape:version="1.4.4 (unknown)"
   xmlns:inkscape="http://www.inkscape.org/namespaces/inkscape"
   xmlns:sodipodi="http://sodipodi.sourceforge.net/DTD/sodipodi-0.dtd"
   xmlns:xlink="http://www.w3.org/1999/xlink"
   xmlns="http://www.w3.org/2000/svg"
   xmlns:svg="http://www.w3.org/2000/svg">
  <sodipodi:namedview
     id="namedview1"
     pagecolor="#ffffff"
     bordercolor="#000000"
     borderopacity="0.25"
     inkscape:showpageshadow="2"
     inkscape:pageopacity="0.0"
     inkscape:pagecheckerboard="0"
     inkscape:deskcolor="#d1d1d1"
     inkscape:zoom="16.727495"
     inkscape:cx="7.8314178"
     inkscape:cy="16.649235"
     inkscape:window-width="1920"
     inkscape:window-height="994"
     inkscape:window-x="0"
     inkscape:window-y="0"
     inkscape:window-maximized="1"
     inkscape:current-layer="svg1" />
  <defs
     id="defs1">
    <linearGradient
       id="linearGradient1"
       inkscape:collect="always">
      <stop
         style="stop-color:#8d5fd3;stop-opacity:1"
         offset="0"
         id="stop1" />
      <stop
         style="stop-color:#2ad4ff;stop-opacity:1"
         offset="1"
         id="stop2" />
    </linearGradient>
    <style
       id="current-color-scheme"
       type="text/css">
   .ColorScheme-Text { color:#dfdfdf; } .ColorScheme-Highlight { color:#4285f4; } .ColorScheme-NeutralText { color:#ff9800; } .ColorScheme-PositiveText { color:#4caf50; } .ColorScheme-NegativeText { color:#f44336; }
  </style>
    <linearGradient
       inkscape:collect="always"
       xlink:href="#linearGradient1"
       id="linearGradient2"
       x1="1.9515185"
       y1="7.9999998"
       x2="14.048482"
       y2="7.9999998"
       gradientUnits="userSpaceOnUse" />
  </defs>
  <path
     d="M 2.3051806,4.49417 7.6792291,1.5813945 c 0.2001691,-0.108612 0.4407312,-0.108612 0.6409003,0 l 5.3740486,2.9127755 0.01257,0.00718 0.0072,0.00359 0.01077,0.00718 0.0081,0.00449 0.009,0.00539 0.01167,0.00808 0.0072,0.00539 0.0081,0.00539 0.0063,0.00449 0.0063,0.00449 0.0063,0.00539 0.0072,0.00539 0.0063,0.00539 0.0063,0.00539 0.0063,0.00449 0.0063,0.00539 0.0063,0.00628 0.0063,0.00539 0.01167,0.010771 0.0063,0.00628 0.0063,0.00628 0.01077,0.011669 0.0054,0.00628 0.0063,0.00628 0.0054,0.00628 0.0045,0.00628 0.0054,0.00628 0.0054,0.00628 0.0054,0.00718 0.0054,0.00628 0.0045,0.00628 0.0045,0.00628 0.0054,0.00808 0.0054,0.00718 0.0081,0.011669 0.0054,0.00898 0.0063,0.00987 0.0054,0.00898 0.0045,0.00808 0.0063,0.010771 0.01526,0.029621 0.01346,0.029621 0.01167,0.030519 0.01077,0.031417 0.009,0.031417 8.97e-4,0.00539 0.0063,0.027826 8.97e-4,0.00449 0.0063,0.033212 0.0036,0.028724 c 0.0018,0.023338 0.0036,0.045779 0.0036,0.069117 v 8.977e-4 5.8255513 c 0,0.246845 -0.13554,0.473942 -0.352764,0.59153 l -5.3731503,2.913674 -0.010771,0.0054 -0.019748,0.0099 -0.029621,0.01346 -0.030519,0.01167 -0.031417,0.01077 -0.032314,0.009 -0.00539,0.0018 -0.026929,0.0063 -0.00539,8.97e-4 -0.032314,0.0054 -0.029621,0.0036 c -0.022441,0.0027 -0.045779,0.0036 -0.068219,0.0036 -0.02244,0 -0.045779,-8.98e-4 -0.068219,-0.0036 l -0.029622,-0.0036 -0.032314,-0.0054 -0.032314,-0.0072 -0.00539,-0.0018 -0.026929,-0.0072 -0.00539,-0.0018 -0.031417,-0.01077 -0.030519,-0.01167 -0.029621,-0.01346 -0.019748,-0.0099 -0.010771,-0.0054 L 2.3049089,11.50459 C 2.0870591,11.38699 1.9515185,11.159893 1.9515185,10.913048 V 5.0874966 5.0865989 c 0,-0.023338 0.0018,-0.045779 0.00359,-0.069117 l 0.00359,-0.028724 0.00628,-0.033212 0.00718,-0.032314 8.976e-4,-0.00539 0.00808,-0.026929 8.977e-4,-0.00449 0.010771,-0.031417 0.011669,-0.030519 0.013464,-0.029621 0.010772,-0.019748 0.00449,-0.00987 0.00628,-0.010771 0.00449,-0.00808 0.00628,-0.010771 0.00539,-0.00808 0.00539,-0.00898 0.00808,-0.011669 0.00539,-0.00718 0.00539,-0.00808 0.00449,-0.00628 0.00449,-0.00628 0.00539,-0.00628 0.00539,-0.00718 0.00539,-0.00628 0.00539,-0.00628 0.00449,-0.00628 0.00539,-0.00628 0.00628,-0.00628 0.00539,-0.00628 0.010771,-0.011669 0.00628,-0.00628 0.00628,-0.00628 0.011669,-0.010771 0.00628,-0.00539 0.00628,-0.00628 0.00628,-0.00539 0.00628,-0.00449 0.00628,-0.00539 0.00628,-0.00539 0.00718,-0.00539 0.00628,-0.00539 0.00628,-0.00449 0.00628,-0.00449 0.00808,-0.00539 0.00718,-0.00539 0.011669,-0.00808 0.00898,-0.00539 0.00987,-0.00628 0.00898,-0.00539 0.00718,-0.00359 z m 0.9927673,6.018539 4.0285167,2.183011 V 8.4006104 L 3.2979479,6.216702 Z M 12.701411,6.216702 8.6728939,8.4006104 V 12.69572 L 12.701411,10.512709 Z M 4.0375864,5.0865989 7.9996792,7.233705 9.274299,6.5434355 5.3122062,4.3954319 Z M 6.7250594,3.6297624 10.687152,5.7768684 11.961773,5.0865989 7.9996792,2.9385953 Z"
     id="path1"
     style="fill:url(#linearGradient2)" />
</svg>
