<?xml version="1.0" encoding="UTF-8" standalone="no"?>
<!-- Generator: Gravit.io -->

<svg
   style="isolation:isolate"
   viewBox="0 0 16 16"
   width="16"
   height="16"
   version="1.1"
   id="svg2"
   sodipodi:docname="dockbarx.svg"
   inkscape:version="1.4.4 (unknown)"
   xmlns:inkscape="http://www.inkscape.org/namespaces/inkscape"
   xmlns:sodipodi="http://sodipodi.sourceforge.net/DTD/sodipodi-0.dtd"
   xmlns:xlink="http://www.w3.org/1999/xlink"
   xmlns="http://www.w3.org/2000/svg"
   xmlns:svg="http://www.w3.org/2000/svg">
  <defs
     id="defs2">
    <linearGradient
       id="linearGradient2"
       inkscape:collect="always">
      <stop
         style="stop-color:#008080;stop-opacity:1"
         offset="0"
         id="stop3" />
      <stop
         style="stop-color:#00ccff;stop-opacity:1"
         offset="1"
         id="stop4" />
    </linearGradient>
    <linearGradient
       inkscape:collect="always"
       xlink:href="#linearGradient2"
       id="linearGradient4"
       x1="1.5"
       y1="8"
       x2="14.5"
       y2="8"
       gradientUnits="userSpaceOnUse" />
  </defs>
  <sodipodi:namedview
     id="namedview2"
     pagecolor="#ffffff"
     bordercolor="#000000"
     borderopacity="0.25"
     inkscape:showpageshadow="2"
     inkscape:pageopacity="0.0"
     inkscape:pagecheckerboard="0"
     inkscape:deskcolor="#d1d1d1"
     inkscape:document-units="px"
     inkscape:zoom="23.65625"
     inkscape:cx="10.018494"
     inkscape:cy="12.068692"
     inkscape:window-width="1920"
     inkscape:window-height="994"
     inkscape:window-x="0"
     inkscape:window-y="0"
     inkscape:window-maximized="1"
     inkscape:current-layer="svg2" />
  <linearGradient
     id="_lgradient_0"
     x1="-3.8208334e-05"
     y1="0.50000006"
     x2="0.99996185"
     y2="0.50000006"
     gradientTransform="matrix(13,0,0,13,1.5,1.5)"
     gradientUnits="userSpaceOnUse">
    <stop
       offset="0%"
       stop-opacity="1"
       style="stop-color:rgb(211,0,220)"
       id="stop1" />
    <stop
       offset="100%"
       stop-opacity="1"
       style="stop-color:rgb(135,0,255)"
       id="stop2" />
  </linearGradient>
  <path
     d="m 3.8636364,11.25 v 0 c -0.3261819,0 -0.5909091,-0.264727 -0.5909091,-0.590909 v 0 c 0,-0.326182 0.2647272,-0.590909 0.5909091,-0.590909 v 0 H 13.909091 c 0.326182,0 0.590909,0.264727 0.590909,0.590909 v 1.772727 C 14.5,13.573159 13.573159,14.5 12.431818,14.5 H 3.5681818 C 2.4268409,14.5 1.5,13.573159 1.5,12.431818 v -5.6136362 0 C 1.5,6.492 1.7647273,6.2272727 2.0909091,6.2272727 v 0 c 0.3261818,0 0.5909091,0.2647273 0.5909091,0.5909091 v 0 5.0227272 c 0,0.815455 0.6618182,1.477273 1.4772727,1.477273 h 7.6818181 c 0.815455,0 1.477273,-0.661818 1.477273,-1.477273 V 11.25 Z M 2.6818182,4.1590909 v 0 C 2.6818182,4.4852727 2.4170909,4.75 2.0909091,4.75 v 0 C 1.7647273,4.75 1.5,4.4852727 1.5,4.1590909 v 0 -0.5909091 C 1.5,2.4268409 2.4268409,1.5 3.5681818,1.5 H 12.431818 C 13.573159,1.5 14.5,2.4268409 14.5,3.5681818 v 4.7272727 0 c 0,0.3261819 -0.264727,0.5909091 -0.590909,0.5909091 v 0 c -0.326182,0 -0.590909,-0.2647272 -0.590909,-0.5909091 v 0 -4.1363636 c 0,-0.8154545 -0.661818,-1.4772727 -1.477273,-1.4772727 H 4.1590909 c -0.8154545,0 -1.4772727,0.6618182 -1.4772727,1.4772727 z m 6.09375,7.6818181 v 0 c 0.2446363,0 0.4431818,0.198546 0.4431818,0.443182 v 0 c 0,0.244636 -0.1985455,0.443182 -0.4431818,0.443182 v 0 H 7.2244318 v 0 c -0.2446363,0 -0.4431818,-0.198546 -0.4431818,-0.443182 v 0 c 0,-0.244636 0.1985455,-0.443182 0.4431818,-0.443182 v 0 z m -3.3607955,0 v 0 c 0.2446364,0 0.4431818,0.198546 0.4431818,0.443182 v 0 c 0,0.244636 -0.1985454,0.443182 -0.4431818,0.443182 v 0 H 3.8636364 v 0 c -0.2446364,0 -0.4431819,-0.198546 -0.4431819,-0.443182 v 0 c 0,-0.244636 0.1985455,-0.443182 0.4431819,-0.443182 v 0 z m 6.7954543,0 v 0 c 0.244637,0 0.443182,0.198546 0.443182,0.443182 v 0 c 0,0.244636 -0.198545,0.443182 -0.443182,0.443182 v 0 h -1.551136 v 0 c -0.244636,0 -0.443182,-0.198546 -0.443182,-0.443182 v 0 c 0,-0.244636 0.198546,-0.443182 0.443182,-0.443182 v 0 z M 5.4531818,6.9597045 v 0 0 q 0.2195227,0 0.32175,-0.1273409 v 0 0 Q 5.8768636,6.7047273 5.8863182,6.3992273 v 0 -0.062045 0 q 0,-0.3377045 -0.104,-0.4839545 v 0 0 q -0.104,-0.14625 -0.3385909,-0.14625 v 0 0 q -0.1911591,0 -0.2972273,0.1622045 v 0 0 Q 5.0404318,6.0313864 5.0404318,6.3410227 v 0 0 q 0,0.3093409 0.1069546,0.4641591 v 0 0 Q 5.2543409,6.9597045 5.4531818,6.9597045 Z M 8.0017727,5.6995909 v 0 0 q -0.2118409,0 -0.3093409,0.1302955 v 0 0 q -0.0975,0.1302954 -0.1013409,0.4304772 v 0 0.06175 0 q 0,0.3377046 0.1004546,0.4839546 v 0 0 q 0.100159,0.14625 0.317909,0.14625 v 0 0 q 0.176091,0 0.2803864,-0.1622046 v 0 0 q 0.104,-0.1622045 0.104,-0.4715454 v 0 0 q 0,-0.3096364 -0.1048864,-0.4641591 v 0 0 Q 8.1837727,5.6995909 8.0017727,5.6995909 Z M 10.784955,5.9959318 11.7115,7.3780682 H 11.047614 L 10.410023,6.3410227 9.772432,7.3780682 H 9.1496136 L 10.059318,5.9640227 9.2078182,4.63625 H 9.84925 L 10.439864,5.6227727 11.019545,4.63625 h 0.626364 z M 5.2525682,7.4155909 v 0 0 q -0.3696137,0 -0.5805682,-0.2868864 v 0 0 Q 4.4610455,6.8418182 4.4610455,6.3333409 v 0 0 q 0,-0.5155682 0.2147954,-0.8036364 v 0 0 q 0.2147955,-0.2877727 0.5915,-0.2877727 v 0 0 q 0.3959091,0 0.6039091,0.3075682 v 0 h 0.018909 v 0 Q 5.8470227,5.3152045 5.8470227,5.1314318 v 0 -0.6715682 h 0.5737728 v 2.9182046 h -0.43875 L 5.87125,7.10625 H 5.847023 v 0 q -0.195,0.3093409 -0.5944548,0.3093409 z M 8.1855455,5.2419318 v 0 0 q 0.3713863,0 0.5814545,0.2898409 v 0 0 q 0.2100682,0.2895455 0.2100682,0.7941818 v 0 0 q 0,0.5194091 -0.2165682,0.8045228 v 0 0 Q 8.5439318,7.4155909 8.1707727,7.4155909 v 0 0 q -0.3696136,0 -0.5796818,-0.2682727 v 0 h -0.039295 l -0.095727,0.23075 H 7.0190909 V 4.4598636 h 0.572 v 0.6789546 0 q 0,0.1294091 -0.022454,0.4145227 v 0 h 0.022454 v 0 Q 7.7917045,5.2419318 8.1855455,5.2419318 Z"
     fill-rule="evenodd"
     id="path2"
     style="fill:url(#linearGradient4);fill-opacity:1" />
</svg>
