<?xml version="1.0" encoding="UTF-8" standalone="no"?>
<svg
   width="16"
   height="16"
   version="1"
   id="svg6"
   sodipodi:docname="doublecmd.svg"
   inkscape:version="1.4.4 (unknown)"
   xmlns:inkscape="http://www.inkscape.org/namespaces/inkscape"
   xmlns:sodipodi="http://sodipodi.sourceforge.net/DTD/sodipodi-0.dtd"
   xmlns:xlink="http://www.w3.org/1999/xlink"
   xmlns="http://www.w3.org/2000/svg"
   xmlns:svg="http://www.w3.org/2000/svg">
  <defs
     id="defs6">
    <linearGradient
       id="linearGradient5"
       inkscape:collect="always">
      <stop
         style="stop-color:#009090;stop-opacity:1;"
         offset="0"
         id="stop5" />
      <stop
         style="stop-color:#00ffff;stop-opacity:1;"
         offset="1"
         id="stop6" />
    </linearGradient>
    <linearGradient
       id="linearGradient3"
       inkscape:collect="always">
      <stop
         style="stop-color:#c83771;stop-opacity:0.01000001;"
         offset="0"
         id="stop3" />
      <stop
         style="stop-color:#c83771;stop-opacity:0;"
         offset="1"
         id="stop4" />
    </linearGradient>
    <linearGradient
       inkscape:collect="always"
       xlink:href="#linearGradient3"
       id="linearGradient4"
       x1="1.4948183"
       y1="8"
       x2="14.505182"
       y2="8"
       gradientUnits="userSpaceOnUse" />
    <linearGradient
       inkscape:collect="always"
       xlink:href="#linearGradient5"
       id="linearGradient6"
       x1="1.4948183"
       y1="8"
       x2="14.505182"
       y2="8"
       gradientUnits="userSpaceOnUse" />
  </defs>
  <sodipodi:namedview
     id="namedview6"
     pagecolor="#ffffff"
     bordercolor="#000000"
     borderopacity="0.25"
     inkscape:showpageshadow="2"
     inkscape:pageopacity="0.0"
     inkscape:pagecheckerboard="0"
     inkscape:deskcolor="#d1d1d1"
     inkscape:zoom="16.815883"
     inkscape:cx="8.7417353"
     inkscape:cy="1.3974883"
     inkscape:current-layer="svg6"
     inkscape:window-width="1920"
     inkscape:window-height="994"
     inkscape:window-x="0"
     inkscape:window-y="0"
     inkscape:window-maximized="1" />
  <rect
     style="fill:url(#linearGradient4);fill-opacity:0.01;stroke:url(#linearGradient6);stroke-width:1.38667;stroke-dasharray:none;stroke-opacity:1"
     width="11.623693"
     height="11.613326"
     x="2.1881533"
     y="2.193337"
     rx="3.546212"
     ry="3.546212"
     id="rect2" />
  <g
     id="g3"
     transform="matrix(0.70882731,0,0,0.70882731,7.0253749,-17.683595)">
    <g
       id="g2">
      <path
         style="opacity:0.2;stroke-width:0.349561"
         d="m -8.937389,30.027488 v 1.084287 c 0,0 0,0.490627 0.496521,0.490627 h 1.489564 c 2.742214,0 4.888828,2.093582 4.888828,4.803239 0,2.70966 -2.749967,4.837585 -4.888828,4.837585 h -0.496522 -0.993042 c -0.496521,-10e-7 -0.496521,0.490627 -0.496521,0.490627 v 1.049933 c 0,0 0,0.490639 0.496521,0.490639 h 1.489564 C -3.112203,43.274425 0,40.199165 0,36.405641 0,32.612119 -3.112203,29.536862 -6.951304,29.536862 h -1.489564 c -0.496521,0 -0.496521,0.490626 -0.496521,0.490626 z"
         id="path3" />
      <path
         style="fill:#8d5fd3;fill-opacity:1;stroke-width:0.349561"
         d="m -8.937389,29.684049 v 1.084286 c 0,0 0,0.490628 0.496521,0.490628 h 1.489564 c 2.742214,0 4.888828,2.093581 4.888828,4.803243 0,2.709657 -2.749967,4.837581 -4.888828,4.837581 h -0.496522 -0.993042 c -0.496521,0 -0.496521,0.490629 -0.496521,0.490629 v 1.049934 c 0,0 0,0.490637 0.496521,0.490637 h 1.489564 C -3.112203,42.930987 0,39.855728 0,36.062206 0,32.268682 -3.112203,29.193422 -6.951304,29.193422 h -1.489564 c -0.496521,0 -0.496521,0.490627 -0.496521,0.490627 z"
         id="path4" />
      <path
         style="opacity:0.2;stroke-width:0.349561"
         d="m 11.687354,30.027488 v 1.084287 c 0,0 0,0.490627 -0.496522,0.490627 H 9.701267 c -2.742213,0 -4.888828,2.093582 -4.888828,4.803239 0,2.70966 2.749966,4.837585 4.888828,4.837585 h 0.49652 0.993045 c 0.496522,-10e-7 0.496522,0.490627 0.496522,0.490627 v 1.049933 c 0,0 0,0.490639 -0.496522,0.490639 H 9.701267 c -3.839097,0 -6.951302,-3.07526 -6.951302,-6.868784 0,-3.793522 3.112205,-6.868779 6.951302,-6.868779 h 1.489565 c 0.496522,0 0.496522,0.490626 0.496522,0.490626 z"
         id="path5" />
      <path
         style="fill:#8d5fd3;fill-opacity:1;stroke-width:0.349561"
         d="m 11.687354,29.684049 v 1.084286 c 0,0 0,0.490628 -0.496522,0.490628 H 9.701267 c -2.742213,0 -4.888828,2.093581 -4.888828,4.803243 0,2.709657 2.749966,4.837581 4.888828,4.837581 h 0.49652 0.993045 c 0.496522,0 0.496522,0.490629 0.496522,0.490629 v 1.049934 c 0,0 0,0.490637 -0.496522,0.490637 H 9.701267 c -3.839097,0 -6.951302,-3.075259 -6.951302,-6.868781 0,-3.793524 3.112205,-6.868784 6.951302,-6.868784 h 1.489565 c 0.496522,0 0.496522,0.490627 0.496522,0.490627 z"
         id="path6" />
    </g>
  </g>
</svg>
