<?xml version="1.0" encoding="UTF-8" standalone="no"?>
<!-- Generator: Gravit.io -->

<svg
   style="isolation:isolate"
   viewBox="0 0 16 16"
   width="16"
   height="16"
   version="1.1"
   id="svg3"
   sodipodi:docname="com.github.wwmm.easyeffects.svg"
   inkscape:version="1.4.4 (unknown)"
   xmlns:inkscape="http://www.inkscape.org/namespaces/inkscape"
   xmlns:sodipodi="http://sodipodi.sourceforge.net/DTD/sodipodi-0.dtd"
   xmlns="http://www.w3.org/2000/svg"
   xmlns:svg="http://www.w3.org/2000/svg">
  <defs
     id="defs3" />
  <sodipodi:namedview
     id="namedview3"
     pagecolor="#ffffff"
     bordercolor="#000000"
     borderopacity="0.25"
     inkscape:showpageshadow="2"
     inkscape:pageopacity="0.0"
     inkscape:pagecheckerboard="0"
     inkscape:deskcolor="#d1d1d1"
     inkscape:document-units="px"
     inkscape:zoom="23.65625"
     inkscape:cx="8.0317041"
     inkscape:cy="7.7146631"
     inkscape:window-width="1920"
     inkscape:window-height="994"
     inkscape:window-x="0"
     inkscape:window-y="0"
     inkscape:window-maximized="1"
     inkscape:current-layer="svg3" />
  <linearGradient
     id="_lgradient_1"
     x1="0.15277986"
     y1="1.0465246e-06"
     x2="0.4999997"
     y2="0.4999966"
     gradientTransform="matrix(0,-13.280952,13.000115,0,1.4999865,14.640472)"
     gradientUnits="userSpaceOnUse">
    <stop
       offset="0%"
       stop-opacity="1"
       style="stop-color:rgb(84,51,255)"
       id="stop1" />
    <stop
       offset="51.73913043478261%"
       stop-opacity="1"
       style="stop-color:rgb(32,189,255)"
       id="stop2" />
    <stop
       offset="0.99989998"
       stop-opacity="1"
       style="stop-color:#aa87de;stop-opacity:1"
       id="stop3" />
  </linearGradient>
  <path
     d="m 13.318096,8.4534848 v 0 c 0.02739,-0.3311937 0.314039,-0.5782747 0.639699,-0.5508828 v 0 c 0.325384,0.027115 0.567484,0.3192962 0.540092,0.6524268 v 0 c -0.136129,1.6678662 -0.88678,3.2245052 -2.101157,4.3544932 -1.214377,1.126667 -2.8031106,1.745891 -4.4455216,1.730674 -1.7251402,-0.01577 -3.3758519,-0.731283 -4.5869089,-1.986333 -1.20829,-1.25754 -1.879531,-2.9541822 -1.864037,-4.7139083 0.0155,-1.759726 0.717172,-3.4436397 1.94732,-4.6787677 1.232915,-1.232362 2.8963541,-1.917161 4.6214944,-1.90139 v 0 c 0.32649,0.003 0.5893422,0.275857 0.5862986,0.609264 v 0 c -0.00277,0.33313 -0.2703227,0.60124 -0.5970894,0.598196 v 0 c -1.4113778,-0.013 -2.7718452,0.547839 -3.7809206,1.555808 -1.006309,1.0110124 -1.58071,2.3880807 -1.593438,3.8279572 -0.01273,1.4395998 0.537049,2.8271828 1.525373,3.8564568 0.9910909,1.026507 2.3413209,1.612529 3.7526987,1.625533 1.3433129,0.01245 2.6440158,-0.491948 3.6375968,-1.415528 0.993582,-0.923302 1.605612,-2.1977213 1.7185,-3.5639992 z M 10.52965,3.436053 v 0 C 10.241896,3.281662 10.133711,2.922523 10.288103,2.634769 v 0 c 0.154667,-0.287478 0.51353,-0.395662 0.801284,-0.241271 v 0 c 1.225167,0.659067 2.210171,1.694981 2.805324,2.9522442 v 0 c 0.14111,0.2952245 0.01577,0.6488298 -0.279454,0.7888332 v 0 c -0.295224,0.14028 -0.649383,0.014388 -0.790493,-0.2808368 v 0 C 12.336966,4.822529 11.533745,3.977805 10.52965,3.436053 Z M 7.8228259,5.9301041 v 0 L 10.01778,5.0590954 C 10.302767,4.945931 10.44111,4.625528 10.327945,4.340541 v 0 C 10.215057,4.055554 9.8946543,3.91721 9.6096672,4.030375 L 7.4144366,4.901384 C 7.1147852,4.664541 6.7000321,4.589559 6.3193115,4.740629 5.9385909,4.8917 5.6881897,5.230364 5.632299,5.6085944 L 4.4660655,6.0714909 c -0.284987,0.1128881 -0.42333,0.433291 -0.310166,0.7182781 v 0 c 0.112888,0.2849871 0.433291,0.4233303 0.718278,0.3104422 L 6.0406882,6.6373147 C 6.3406164,6.8741584 6.7550927,6.9491404 7.1358133,6.7980696 7.5165339,6.6469988 7.7669352,6.3080578 7.8228259,5.9301041 Z m 2.5635001,1.9594937 v 0 l 0.65215,-0.2587019 v 0 0 c 0.284711,-0.1131648 0.423331,-0.4335677 0.310166,-0.7185548 v 0 C 11.235477,6.627354 10.915074,6.4890108 10.630087,6.6021756 L 9.9782136,6.8608774 C 9.6782855,6.6237571 9.2638091,6.5490517 8.8830885,6.7001226 8.5020912,6.8511934 8.2519666,7.1898576 8.196076,7.5680881 L 5.4864852,8.6430151 C 5.2017748,8.7561798 5.0631547,9.0765828 5.1763197,9.3615699 v 0 C 5.2894844,9.646557 5.6098874,9.7849002 5.8948745,9.6717354 l 2.709314,-1.074927 C 8.9041167,8.8336521 9.318593,8.9086341 9.6993136,8.7575633 10.080311,8.6062158 10.330436,8.2675515 10.386326,7.8895978 Z M 7.5674443,11.984835 6.9152942,12.243537 c -0.2849871,0.113165 -0.60539,-0.02518 -0.7182781,-0.310165 v 0 c -0.1131648,-0.284987 0.025179,-0.60539 0.3101655,-0.718555 L 7.159055,10.956115 C 7.2149457,10.57816 7.4653469,10.239219 7.8460676,10.088149 8.2267882,9.9370778 8.6415412,10.01206 8.9411927,10.248903 L 11.650783,9.1736997 c 0.284987,-0.112888 0.60539,0.025455 0.718279,0.3104423 v 0 c 0.113164,0.2849871 -0.02518,0.60539 -0.310166,0.718278 l -2.7093141,1.075205 v 0 C 9.2936909,11.655855 9.04329,11.994519 8.6625694,12.14559 8.2818488,12.296661 7.8670957,12.22168 7.5674443,11.984835 Z"
     fill-rule="evenodd"
     fill="url(#_lgradient_1)"
     id="path3"
     style="fill:url(#_lgradient_1);stroke-width:0.276686" />
</svg>
