<?xml version="1.0" encoding="UTF-8" standalone="no"?>
<!-- Generator: Gravit.io -->

<svg
   style="isolation:isolate"
   viewBox="0 0 16 16"
   width="16"
   height="16"
   version="1.1"
   id="svg2"
   sodipodi:docname="com.github.donadigo.eddy.svg"
   inkscape:version="1.4.4 (unknown)"
   xmlns:inkscape="http://www.inkscape.org/namespaces/inkscape"
   xmlns:sodipodi="http://sodipodi.sourceforge.net/DTD/sodipodi-0.dtd"
   xmlns:xlink="http://www.w3.org/1999/xlink"
   xmlns="http://www.w3.org/2000/svg"
   xmlns:svg="http://www.w3.org/2000/svg">
  <defs
     id="defs2">
    <linearGradient
       inkscape:collect="always"
       xlink:href="#_lgradient_2"
       id="linearGradient4"
       x1="1.5"
       y1="8"
       x2="14.5"
       y2="8"
       gradientUnits="userSpaceOnUse"
       gradientTransform="matrix(0.97304595,0,0,0.97304595,0.21563277,0.21563277)" />
    <linearGradient
       inkscape:collect="always"
       xlink:href="#_lgradient_2"
       id="linearGradient5"
       gradientUnits="userSpaceOnUse"
       gradientTransform="matrix(12.649597,0,0,12.649597,1.6752015,1.6752015)"
       x1="0"
       y1="0.5"
       x2="1"
       y2="0.5" />
  </defs>
  <sodipodi:namedview
     id="namedview2"
     pagecolor="#ffffff"
     bordercolor="#000000"
     borderopacity="0.25"
     inkscape:showpageshadow="2"
     inkscape:pageopacity="0.0"
     inkscape:pagecheckerboard="0"
     inkscape:deskcolor="#d1d1d1"
     inkscape:document-units="px"
     inkscape:zoom="16.727495"
     inkscape:cx="14.706326"
     inkscape:cy="9.5949812"
     inkscape:window-width="1920"
     inkscape:window-height="994"
     inkscape:window-x="0"
     inkscape:window-y="0"
     inkscape:window-maximized="1"
     inkscape:current-layer="svg2" />
  <linearGradient
     id="_lgradient_2"
     x1="0"
     y1="0.5"
     x2="1"
     y2="0.5"
     gradientTransform="matrix(13,0,0,13,1.5,1.5)"
     gradientUnits="userSpaceOnUse">
    <stop
       offset="0%"
       stop-opacity="1"
       style="stop-color:rgb(255,229,59)"
       id="stop1" />
    <stop
       offset="98.69565217391305%"
       stop-opacity="1"
       style="stop-color:rgb(255,0,91)"
       id="stop2" />
  </linearGradient>
  <path
     d="M 14.324798,4.0286149 V 2.5577313 c 0,-0.4871565 -0.395373,-0.8825299 -0.88253,-0.8825299 H 2.5577313 c -0.4871565,0 -0.8825299,0.3953734 -0.8825299,0.8825299 v 1.9121486 0 c 0,0.2435784 0.1976868,0.4412649 0.4412651,0.4412649 v 0 c 0.2435784,0 0.4412648,-0.1976865 0.4412648,-0.4412649 v 0 -1.6179718 c 0,-0.1623854 0.1317914,-0.2941768 0.2941769,-0.2941768 H 13.148091 c 0.162385,0 0.294177,0.1317914 0.294177,0.2941768 V 3.8815266 4.0286149 H 3.8815266 v 0 c -0.2435784,0 -0.4412651,0.1976867 -0.4412651,0.441265 v 0 c 0,0.2435784 0.1976868,0.4412649 0.4412651,0.4412649 v 0 H 13.883533 v 0 c 0.243577,0 0.441266,-0.3953732 0.441265,-0.8825299 z m -4.167306,4.7965509 c 0.0068,0.1841543 -0.05384,0.2738779 -0.108551,0.431851 l -0.09855,0.04913 c -0.080607,0.1565014 0.008,0.099431 -0.04971,0.2238674 C 9.7747697,9.641801 9.5191298,9.8797894 9.4370547,9.9015596 9.3773388,9.9003975 9.4776503,9.8309549 9.4905913,9.8038919 9.3223219,9.9195036 9.3555638,9.9774566 9.0978653,10.047764 l -0.00738,-0.01676 C 8.4556797,10.329879 7.5734438,9.7377014 7.5852109,8.9301867 7.5784418,8.9813743 7.565795,8.9684305 7.551675,8.9890223 7.5190212,8.5736445 7.743772,8.1562078 8.1226718,7.9855853 8.4933343,7.8020192 8.9278334,7.8773283 9.193181,8.1250253 9.0475627,7.9338101 8.7572106,7.7314167 8.4133183,7.750244 8.076486,7.7555391 7.7611283,7.9696998 7.6558134,8.2023936 7.4831316,8.3109447 7.4631275,8.6213011 7.3878184,8.6780773 c -0.1011973,0.743973 0.1903322,1.0652133 0.6839607,1.4435247 0.077369,0.05235 0.021769,0.0603 0.032065,0.10002 C 7.9399876,10.144841 7.7899573,10.02923 7.6664032,9.8871427 7.7320048,9.9830456 7.8026069,10.076299 7.8940959,10.149254 7.7393592,10.097193 7.5328473,9.7747667 7.4728352,9.7618232 c 0.2662297,0.4768608 1.080805,0.8366368 1.5073609,0.6580748 -0.1973921,0.0074 -0.4480307,0.0041 -0.6698398,-0.07796 -0.093253,-0.04796 -0.2197502,-0.147087 -0.1970986,-0.165619 0.5818814,0.217394 1.1831785,0.164443 1.6865147,-0.2391675 0.1282612,-0.099726 0.2682886,-0.2694656 0.3088866,-0.2718194 -0.0609,0.091788 0.01029,0.044127 -0.03647,0.1250247 0.127378,-0.2059227 -0.05561,-0.083838 0.13179,-0.3556589 l 0.06942,0.09531 c -0.02617,-0.1709165 0.212102,-0.3786055 0.18798,-0.6486594 0.0547,-0.082664 0.0609,0.08884 0.003,0.2788792 0.08031,-0.2109243 0.02118,-0.2447548 0.04175,-0.4189071 0.02235,0.058542 0.05179,0.1206124 0.06676,0.1826837 -0.05234,-0.2041586 0.05352,-0.3433043 0.08,-0.4618574 -0.02617,-0.011473 -0.08092,0.090017 -0.09354,-0.1506185 0.0018,-0.1047268 0.02912,-0.054719 0.03971,-0.080605 -0.02057,-0.011767 -0.07443,-0.092079 -0.107081,-0.2456374 0.02353,-0.036479 0.06325,0.093549 0.09563,0.098842 -0.02087,-0.1220834 -0.05647,-0.2153373 -0.05796,-0.3091798 -0.09472,-0.1973924 -0.03356,0.026182 -0.110022,-0.084722 -0.100604,-0.3135923 0.08325,-0.072955 0.09589,-0.2153373 0.152383,0.2206325 0.239166,0.5630542 0.279175,0.704553 -0.0306,-0.1726816 -0.07973,-0.3400681 -0.140028,-0.5021594 0.0465,0.019711 -0.07443,-0.3553655 0.06029,-0.1070803 C 10.571084,7.0406829 10.099222,6.5461719 9.6653117,6.3140666 9.7182647,6.3626059 9.7850421,6.4235003 9.7612149,6.4332081 9.5453097,6.3046598 9.5832584,6.2946577 9.5523702,6.240235 9.3764522,6.1687501 9.3646852,6.2461188 9.2484862,6.2405293 8.9169487,6.0646117 8.8531124,6.0831448 8.5480511,5.9731227 l 0.013825,0.065014 c -0.2197502,-0.073248 -0.2559338,0.027655 -0.4933344,0 -0.014415,-0.011178 0.076192,-0.040598 0.1506186,-0.051482 -0.2123952,0.027948 -0.2023932,-0.042067 -0.4100819,0.00764 0.051186,-0.035888 0.1053153,-0.059718 0.1600321,-0.090313 C 7.7958408,5.9145759 7.5554986,6.0048895 7.6296312,5.9228149 7.3472219,6.0487265 6.8456508,6.2258208 6.5641238,6.4896974 L 6.555316,6.4305685 C 6.4264522,6.5853044 5.9928357,6.8930131 5.9584171,7.0936418 l -0.034712,0.00794 C 5.8569265,7.2151368 5.8133881,7.3439862 5.760142,7.4607742 5.6721831,7.6105103 5.6312926,7.5184328 5.6439422,7.5419671 5.4712605,7.8920372 5.385361,8.1862139 5.3112285,8.4274389 c 0.052952,0.07884 0.00147,0.4750953 0.021181,0.791924 -0.086488,1.5661951 1.0990442,3.0865021 2.3951867,3.4374541 0.190038,0.06794 0.4724477,0.06559 0.7124957,0.07236 C 8.1567969,12.647997 8.1203193,12.686227 7.843793,12.590039 7.6446353,12.495909 7.6010973,12.388821 7.4598924,12.266445 l 0.055895,0.09883 c -0.2765283,-0.09794 -0.1609167,-0.121184 -0.385962,-0.19267 l 0.059719,-0.07765 C 7.0998225,12.088 6.9518498,11.943746 6.9115475,11.863728 l -0.098256,0.0039 C 6.6953264,11.722217 6.6326667,11.617197 6.6370794,11.536004 l -0.031479,0.05647 c -0.035889,-0.06176 -0.4339101,-0.545694 -0.2273979,-0.433023 -0.038537,-0.03473 -0.089431,-0.05678 -0.144735,-0.157385 l 0.042066,-0.04797 c -0.099137,-0.127958 -0.1829777,-0.291521 -0.1765057,-0.346238 0.052952,0.0715 0.089721,0.08503 0.1262017,0.09707 C 5.9742994,10.082771 5.9601789,10.670838 5.770435,10.071593 l 0.040008,-0.0032 C 5.779849,10.021933 5.761022,9.9716226 5.736311,9.9222036 L 5.7536669,9.7479981 C 5.5733364,9.5394267 5.7033627,8.8604667 5.7295445,8.4880391 5.7474891,8.3365383 5.8801628,8.1753292 5.9810654,7.9226317 L 5.9195825,7.9120412 C 6.0372532,7.7069999 6.5905994,7.0889349 6.8468273,7.1204117 6.9712641,6.9644981 6.8224107,7.1198235 6.7979942,7.0806978 7.0706959,6.7985823 7.1565955,6.881246 7.3407501,6.8303535 7.5390251,6.7126828 7.1701274,6.8765392 7.2642642,6.7856387 7.6075682,6.6979739 7.5075483,6.586187 7.9552851,6.5417662 c 0.047067,0.027064 -0.1097279,0.04148 -0.1491477,0.076486 0.28594,-0.140028 0.9048875,-0.1079627 1.3070272,0.077663 0.46627,0.2179851 0.9904934,0.862232 1.0113804,1.4685301 l 0.02353,0.00647 c -0.01205,0.2409271 0.03676,0.5195125 -0.04795,0.7757404 z m 3.284776,-2.590226 v 0 c 0,-0.2435782 0.197687,-0.4412649 0.441265,-0.4412649 v 0 c 0.243577,0 0.441266,0.1976867 0.441266,0.4412649 v 0 7.2073282 c 0,0.487158 -0.395373,0.882531 -0.882531,0.882531 H 2.5577313 c -0.4871565,0 -0.8825299,-0.395373 -0.8825299,-0.882531 v -7.2073281 0 c 0,-0.2435782 0.1976868,-0.4412649 0.4412651,-0.4412649 v 0 c 0.2435784,0 0.4412648,0.1976867 0.4412648,0.4412649 v 0 6.9131511 c 0,0.162386 0.1317914,0.294177 0.2941769,0.294177 H 13.148091 c 0.162385,0 0.294177,-0.131791 0.294177,-0.294177 z"
     fill-rule="evenodd"
     fill="url(#_lgradient_2)"
     id="path2"
     style="fill:url(#linearGradient5);stroke:url(#linearGradient4);stroke-width:0.350402;stroke-dasharray:none" />
</svg>
