<?xml version="1.0" encoding="UTF-8" standalone="no"?>
<!-- Generator: Gravit.io -->

<svg
   style="isolation:isolate"
   viewBox="0 0 16 16"
   width="16"
   height="16"
   version="1.1"
   id="svg2"
   sodipodi:docname="electronic-wechat.svg"
   inkscape:version="1.4.4 (unknown)"
   xmlns:inkscape="http://www.inkscape.org/namespaces/inkscape"
   xmlns:sodipodi="http://sodipodi.sourceforge.net/DTD/sodipodi-0.dtd"
   xmlns:xlink="http://www.w3.org/1999/xlink"
   xmlns="http://www.w3.org/2000/svg"
   xmlns:svg="http://www.w3.org/2000/svg">
  <defs
     id="defs2">
    <linearGradient
       id="linearGradient2"
       inkscape:collect="always">
      <stop
         style="stop-color:#d42aff;stop-opacity:1"
         offset="0"
         id="stop3" />
      <stop
         style="stop-color:#ff9955;stop-opacity:1"
         offset="1"
         id="stop4" />
    </linearGradient>
    <linearGradient
       inkscape:collect="always"
       xlink:href="#linearGradient2"
       id="linearGradient4"
       x1="1.6017841"
       y1="8.0000001"
       x2="14.398216"
       y2="8.0000001"
       gradientUnits="userSpaceOnUse" />
  </defs>
  <sodipodi:namedview
     id="namedview2"
     pagecolor="#ffffff"
     bordercolor="#000000"
     borderopacity="0.25"
     inkscape:showpageshadow="2"
     inkscape:pageopacity="0.0"
     inkscape:pagecheckerboard="0"
     inkscape:deskcolor="#d1d1d1"
     inkscape:document-units="px"
     inkscape:zoom="16.727495"
     inkscape:cx="13.51069"
     inkscape:cy="14.437308"
     inkscape:window-width="1920"
     inkscape:window-height="994"
     inkscape:window-x="0"
     inkscape:window-y="0"
     inkscape:window-maximized="1"
     inkscape:current-layer="svg2" />
  <linearGradient
     id="_lgradient_7"
     x1="0.061897106"
     y1="0.14716151"
     x2="0.99042481"
     y2="0.98658085"
     gradientTransform="matrix(12.796308,0,0,13.000111,1.6019008,1.4999999)"
     gradientUnits="userSpaceOnUse">
    <stop
       offset="0%"
       stop-opacity="1"
       style="stop-color:rgb(22,181,228)"
       id="stop1" />
    <stop
       offset="98.26086956521739%"
       stop-opacity="1"
       style="stop-color:rgb(245,32,250)"
       id="stop2" />
  </linearGradient>
  <path
     d="m 5.0822431,13.501834 -2.8209464,0.94703 C 1.7509018,14.620378 1.4792639,14.34637 1.6555175,13.837456 l 0.939328,-2.714009 -0.055098,-0.0942 C 1.9769211,10.060001 1.6809928,8.9607114 1.6809928,7.8418713 c 0,-1.6813706 0.6700599,-3.2946095 1.8570317,-4.4848397 1.1905264,-1.1869718 2.8034691,-1.8570317 4.4851359,-1.8570317 1.5806539,0 3.1026556,0.5918566 4.2700766,1.6553028 v 0 c 0.265713,0.2423117 0.284672,0.6540638 0.04236,0.9188885 v 0 c -0.242312,0.2648248 -0.653175,0.2828945 -0.917111,0.040583 v 0 C 10.488341,3.2693491 9.2785603,2.8010181 8.0231604,2.8010181 c -1.3368614,0 -2.6183288,0.5299457 -3.56447,1.4763832 -0.9464375,0.9464374 -1.4766794,2.2279048 -1.4766794,3.56447 0,0.8913396 0.2340174,1.7628326 0.6830938,2.5336087 l 0.2633436,0.562827 -0.2633436,0.673022 -0.3382884,1.021382 1.271692,-0.305704 0.4212313,-0.07317 v 0 0 l 0.7464858,0.266602 c 0.7139012,0.358432 1.5018585,0.545053 2.2987025,0.545053 0.204395,0 0.4058277,-0.01185 0.6102226,-0.03555 v 0 c 0.3237734,-0.0391 0.6176277,0.19225 0.6561377,0.516912 v 0 c 0.03851,0.324662 -0.1931387,0.619998 -0.5169122,0.6591 v 0 c -0.2488286,0.02962 -0.4976572,0.04443 -0.7494481,0.04443 -0.9834655,0 -1.9521197,-0.231055 -2.8319066,-0.672429 z M 12.89635,6.0657089 v 0 c -0.112861,-0.3074811 0.04503,-0.6478431 0.352507,-0.759816 v 0 c 0.307481,-0.1119729 0.648436,0.046507 0.761297,0.3539883 v 0 c 0.257716,0.7050145 0.388055,1.4544626 0.388055,2.2068729 0.003,2.0943078 -1.021975,4.0582769 -2.740077,5.2550239 v 0 c -0.268084,0.188102 -0.637772,0.122933 -0.824986,-0.14515 v 0 c -0.187214,-0.268084 -0.120267,-0.638364 0.149594,-0.826467 v 0 c 1.398179,-0.974579 2.233533,-2.5771531 2.23057,-4.2834069 0,-0.6131848 -0.10664,-1.2234074 -0.31696,-1.8010452 z M 7.4114567,7.8418713 c 0,-0.4902517 0.398422,-0.8886737 0.8886736,-0.8886737 0.4905479,0 0.888674,0.398422 0.888674,0.8886737 0,0.4905478 -0.3981261,0.8886736 -0.888674,0.8886736 -0.4902516,0 -0.8886736,-0.3981258 -0.8886736,-0.8886736 z m -3.1044333,0 c 0,-0.4902517 0.398422,-0.8886737 0.8886737,-0.8886737 0.4905478,0 0.8886736,0.398422 0.8886736,0.8886737 0,0.4905478 -0.3981258,0.8886736 -0.8886736,0.8886736 -0.4902517,0 -0.8886737,-0.3981258 -0.8886737,-0.8886736 z m 6.2088666,0 c 0,-0.4902517 0.398422,-0.8886737 0.888673,-0.8886737 0.490548,0 0.888674,0.398422 0.888674,0.8886737 0,0.4905478 -0.398126,0.8886736 -0.888674,0.8886736 -0.490251,0 -0.888673,-0.3981258 -0.888673,-0.8886736 z"
     fill-rule="evenodd"
     id="path2"
     style="fill:url(#linearGradient4)" />
</svg>
