<?xml version="1.0" encoding="UTF-8" standalone="no"?>
<svg
   width="100%"
   height="100%"
   viewBox="0 0 16 16"
   version="1.1"
   id="svg1"
   sodipodi:docname="enpass.svg"
   inkscape:version="1.4.4 (unknown)"
   xmlns:inkscape="http://www.inkscape.org/namespaces/inkscape"
   xmlns:sodipodi="http://sodipodi.sourceforge.net/DTD/sodipodi-0.dtd"
   xmlns:xlink="http://www.w3.org/1999/xlink"
   xmlns="http://www.w3.org/2000/svg"
   xmlns:svg="http://www.w3.org/2000/svg">
  <sodipodi:namedview
     id="namedview1"
     pagecolor="#ffffff"
     bordercolor="#000000"
     borderopacity="0.25"
     inkscape:showpageshadow="2"
     inkscape:pageopacity="0.0"
     inkscape:pagecheckerboard="0"
     inkscape:deskcolor="#d1d1d1"
     inkscape:zoom="23.65625"
     inkscape:cx="5.7912814"
     inkscape:cy="8.9405548"
     inkscape:window-width="1920"
     inkscape:window-height="994"
     inkscape:window-x="0"
     inkscape:window-y="0"
     inkscape:window-maximized="1"
     inkscape:current-layer="svg1" />
  <defs
     id="defs1">
    <linearGradient
       id="linearGradient1"
       inkscape:collect="always">
      <stop
         style="stop-color:#c83771;stop-opacity:1"
         offset="0"
         id="stop1" />
      <stop
         style="stop-color:#00aa44;stop-opacity:1"
         offset="1"
         id="stop2" />
    </linearGradient>
    <style
       id="current-color-scheme"
       type="text/css">
   .ColorScheme-Text { color:#dfdfdf; } .ColorScheme-Highlight { color:#4285f4; } .ColorScheme-NeutralText { color:#ff9800; } .ColorScheme-PositiveText { color:#4caf50; } .ColorScheme-NegativeText { color:#f44336; }
  </style>
    <linearGradient
       inkscape:collect="always"
       xlink:href="#linearGradient1"
       id="linearGradient2"
       x1="6.5999203"
       y1="10.78571"
       x2="12.886394"
       y2="3.0964334"
       gradientUnits="userSpaceOnUse" />
  </defs>
  <path
     d="M 2.7293487,1.5 C 2.2626771,1.5 1.754006,1.7145 1.424536,2.033 1.0950661,2.352429 0.94759801,3.0795 1.0166654,3.490857 L 2.5968143,12.576 c 0.098935,0.59243 0.3388029,1.105 0.6365398,1.43279 C 3.5301563,14.33564 3.8446931,14.5 4.3122975,14.5 h 7.3752715 c 0.467611,0 0.784008,-0.16436 1.080815,-0.49121 0.297732,-0.32779 0.535739,-0.84036 0.634674,-1.43279 L 14.983206,3.490857 C 15.052268,3.0795 14.906665,2.352429 14.577201,2.033 14.247726,1.7145 13.737187,1.5 13.269586,1.5 Z m 0,0.928571 H 13.269586 c 0.235202,0 0.49094,0.109572 0.656144,0.270215 0.05789,0.05571 0.07468,0.158785 0.09892,0.255357 0.03458,0.137428 0.05599,0.280428 0.03829,0.384428 9.29e-4,-0.0065 -1.579218,9.078639 -1.579218,9.078639 -9.35e-4,0.002 -9.35e-4,0.004 -9.35e-4,0.0066 -0.06624,0.394645 -0.209068,0.743786 -0.40693,0.962 -0.107339,0.118857 -0.218407,0.185715 -0.388275,0.185715 H 4.3122975 c -0.1689346,0 -0.2790695,-0.06687 -0.3864033,-0.185715 C 3.727092,13.167596 3.5833573,12.818455 3.5170895,12.42381 3.5161567,12.41721 1.9360073,3.3321677 1.9360073,3.3321677 c -0.016795,-0.0975 0.00462,-0.2395711 0.040135,-0.377 0.024265,-0.096572 0.041068,-0.1996433 0.099867,-0.2562862 C 2.2412115,2.5382388 2.4950811,2.4286671 2.7293497,2.4286671 Z M 7.999934,4.285714 c -1.2889459,0 -2.3333567,1.039072 -2.3333567,2.321429 9.338e-4,0.729857 0.3472039,1.416071 0.9333431,1.853428 v 2.325139 c 0,0.51443 0.4162709,0.92858 0.9333421,0.92858 h 0.933343 c 0.5170713,0 0.9333421,-0.41415 0.9333421,-0.92858 V 8.462429 C 9.9870201,8.024143 10.332359,7.337 10.333287,6.607143 c 0,-1.282357 -1.0444071,-2.321429 -2.333353,-2.321429 z"
     id="path1"
     style="fill:url(#linearGradient2)" />
</svg>
