<?xml version="1.0" encoding="UTF-8" standalone="no"?>
<svg
   width="16"
   height="16"
   version="1.1"
   id="svg5"
   sodipodi:docname="ente.svg"
   inkscape:version="1.4.4 (unknown)"
   xmlns:inkscape="http://www.inkscape.org/namespaces/inkscape"
   xmlns:sodipodi="http://sodipodi.sourceforge.net/DTD/sodipodi-0.dtd"
   xmlns:xlink="http://www.w3.org/1999/xlink"
   xmlns="http://www.w3.org/2000/svg"
   xmlns:svg="http://www.w3.org/2000/svg">
  <defs
     id="defs5">
    <linearGradient
       id="linearGradient5"
       inkscape:collect="always">
      <stop
         style="stop-color:#8d5fd3;stop-opacity:1;"
         offset="0"
         id="stop5" />
      <stop
         style="stop-color:#8d5fd3;stop-opacity:1;"
         offset="1"
         id="stop6" />
    </linearGradient>
    <linearGradient
       inkscape:collect="always"
       xlink:href="#linearGradient5"
       id="linearGradient6"
       x1="4"
       y1="32"
       x2="60"
       y2="32"
       gradientUnits="userSpaceOnUse"
       gradientTransform="matrix(0.22033898,0,0,0.22033898,1.9491525,1.9491525)" />
  </defs>
  <sodipodi:namedview
     id="namedview5"
     pagecolor="#ffffff"
     bordercolor="#000000"
     borderopacity="0.25"
     inkscape:showpageshadow="2"
     inkscape:pageopacity="0.0"
     inkscape:pagecheckerboard="0"
     inkscape:deskcolor="#d1d1d1"
     inkscape:zoom="16.727495"
     inkscape:cx="10.103127"
     inkscape:cy="10.55149"
     inkscape:window-width="1920"
     inkscape:window-height="994"
     inkscape:window-x="0"
     inkscape:window-y="0"
     inkscape:window-maximized="1"
     inkscape:current-layer="svg5" />
  <g
     id="g6"
     transform="matrix(0.93525297,0,0,0.93525297,-0.41727651,-0.41727651)">
    <rect
       style="fill:#444444;fill-opacity:0.01;stroke:url(#linearGradient6);stroke-width:1.561;stroke-dasharray:none"
       width="12.338983"
       height="12.338983"
       x="2.8305085"
       y="2.8305085"
       ry="2.4237287"
       id="rect2" />
    <path
       style="opacity:0.2;stroke-width:0.220339"
       d="m 7.6669492,8.779661 h 2.6894578 c 0,-0.9908644 -0.8308985,-1.3220339 -1.344729,-1.3220339 -0.5138305,0 -1.3447288,0.3302882 -1.3447288,1.3220339 z M 6.1355932,9.3023051 C 6.1117966,7.805322 7.2643898,6.3559322 9.011678,6.3559322 c 1.533559,0 2.440475,1.0563051 2.724712,2.1174576 0.103779,0.3875763 0.128017,0.7892543 0.128017,1.1876271 H 7.6669492 c 0.013,0.8033561 0.7200677,1.3059491 1.3447288,1.3220341 0.730644,0 1.193576,-0.478576 1.344729,-0.740339 l 1.058508,0.673356 c -0.202712,0.351 -1.031186,1.168678 -2.403237,1.168678 -1.3072712,0 -2.8474407,-0.99439 -2.8760848,-2.7824409 z"
       id="path3" />
    <path
       style="fill:#ab37c8;stroke-width:0.220339"
       d="m 7.6669492,8.559322 h 2.6894578 c 0,-0.9908644 -0.8308985,-1.3220339 -1.344729,-1.3220339 -0.5138305,0 -1.3447288,0.3302882 -1.3447288,1.3220339 z M 6.1355932,9.0819661 C 6.1117966,7.5849831 7.2643898,6.1355932 9.011678,6.1355932 c 1.533559,0 2.440475,1.0563051 2.724712,2.1174576 0.103779,0.3875763 0.128017,0.7892543 0.128017,1.1876272 H 7.6669492 c 0.013,0.803356 0.7200677,1.305949 1.3447288,1.322034 0.730644,0 1.193576,-0.478576 1.344729,-0.740339 l 1.058508,0.673356 c -0.202712,0.351 -1.031186,1.168678 -2.403237,1.168678 -1.3072712,0 -2.8474407,-0.99439 -2.8760848,-2.7824409 z"
       id="path4" />
    <path
       style="opacity:0.2;fill:#ffffff;stroke-width:0.220339"
       d="m 9.011678,6.1355932 c -1.7472882,0 -2.8998814,1.4491695 -2.8760848,2.9461526 2.204e-4,0.020051 0.00198,0.039661 0.00264,0.059492 0.057949,-1.4381526 1.1889491,-2.7853051 2.8734407,-2.7853051 1.5335591,0 2.4406951,1.0560847 2.7249321,2.1172373 0.08461,0.3161864 0.114576,0.6420678 0.12339,0.9675085 h 0.0044 c 0,-0.3983729 -0.02402,-0.8002712 -0.127797,-1.1878475 C 11.452373,7.191678 10.545237,6.1355932 9.011678,6.1355932 Z M 7.6823729,8.559322 c -0.00969,0.069627 -0.015644,0.1427797 -0.015644,0.220339 h 2.6896781 c 0,-0.077559 -0.0057,-0.1507118 -0.01542,-0.220339 z m -0.015644,1.1016949 c 0.013,0.8033561 0.7202881,1.3059491 1.3449492,1.3220341 0.730644,0 1.1935759,-0.478356 1.3447289,-0.740119 l 0.952085,0.605051 c 0.04517,-0.05663 0.08108,-0.108186 0.106644,-0.152475 L 10.356407,10.022593 C 10.205254,10.284356 9.742322,10.762712 9.011678,10.762712 8.4465085,10.748169 7.8158983,10.334373 7.6909661,9.6610169 Z"
       id="path5" />
  </g>
</svg>
