<?xml version="1.0" encoding="UTF-8" standalone="no"?>
<svg
   width="16"
   height="16"
   version="1"
   id="svg5"
   sodipodi:docname="etherape.svg"
   inkscape:version="1.4.4 (unknown)"
   xmlns:inkscape="http://www.inkscape.org/namespaces/inkscape"
   xmlns:sodipodi="http://sodipodi.sourceforge.net/DTD/sodipodi-0.dtd"
   xmlns="http://www.w3.org/2000/svg"
   xmlns:svg="http://www.w3.org/2000/svg">
  <defs
     id="defs5" />
  <sodipodi:namedview
     id="namedview5"
     pagecolor="#ffffff"
     bordercolor="#000000"
     borderopacity="0.25"
     inkscape:showpageshadow="2"
     inkscape:pageopacity="0.0"
     inkscape:pagecheckerboard="0"
     inkscape:deskcolor="#d1d1d1"
     inkscape:zoom="23.65625"
     inkscape:cx="8.2430647"
     inkscape:cy="9.1519155"
     inkscape:window-width="1920"
     inkscape:window-height="994"
     inkscape:window-x="0"
     inkscape:window-y="0"
     inkscape:window-maximized="1"
     inkscape:current-layer="svg5" />
  <g
     id="g5"
     transform="translate(-0.0701754,-2.3859648)">
    <rect
       style="opacity:0.2;stroke-width:0.22807"
       width="12.77193"
       height="12.77193"
       x="1.6842105"
       y="4.2280703"
       rx="6.3859649"
       ry="6.3859649"
       id="rect1" />
    <rect
       style="fill:#307ada;stroke-width:0.22807"
       width="12.77193"
       height="12.77193"
       x="1.6842105"
       y="4"
       rx="6.3859649"
       ry="6.3859649"
       id="rect2" />
    <path
       style="opacity:0.1;fill:#ffffff;stroke-width:0.22807"
       d="m 8.0701754,4 c -3.5378245,0 -6.3859649,2.8481404 -6.3859649,6.385965 0,0.03825 0.00245,0.07595 0.00312,0.114035 0.060669,-3.4845752 2.8832705,-6.2719298 6.3828467,-6.2719298 3.4995768,0 6.3221778,2.7873546 6.3828468,6.2719298 6.63e-4,-0.03809 0.0031,-0.07579 0.0031,-0.114035 C 14.45614,6.8481404 11.608,4 8.0701754,4 Z"
       id="path2" />
    <path
       style="fill:#1c1f24;stroke-width:0.22807"
       d="m 8.0701754,5.8245614 c -2.5191981,0 -4.5614035,2.0422054 -4.5614035,4.5614036 0,2.519198 2.0422054,4.561403 4.5614035,4.561403 2.5191986,0 4.5614036,-2.042205 4.5614036,-4.561403 0,-2.5191982 -2.042205,-4.5614036 -4.5614036,-4.5614036 z"
       id="path3" />
    <path
       style="opacity:0.2;fill:none;stroke:#000000;stroke-width:1.36842;stroke-linecap:round;stroke-linejoin:round"
       d="M 1.6842105,10.614206 H 6.154386 l 1.2771929,-3.1929828 1.277193,6.3859648 1.277193,-3.192982 H 14.45614"
       id="path4" />
    <path
       style="fill:none;stroke:#22d3ff;stroke-width:1.36842;stroke-linecap:round;stroke-linejoin:round"
       d="M 1.6842105,10.385965 H 6.154386 l 1.2771929,-3.1929825 1.277193,6.3859645 1.277193,-3.192982 H 14.45614"
       id="path5" />
  </g>
</svg>
