<?xml version="1.0" encoding="UTF-8" standalone="no"?>
<svg
   width="16"
   height="16"
   version="1.1"
   id="svg29"
   sodipodi:docname="fceux.svg"
   inkscape:version="1.4.4 (unknown)"
   xmlns:inkscape="http://www.inkscape.org/namespaces/inkscape"
   xmlns:sodipodi="http://sodipodi.sourceforge.net/DTD/sodipodi-0.dtd"
   xmlns:xlink="http://www.w3.org/1999/xlink"
   xmlns="http://www.w3.org/2000/svg"
   xmlns:svg="http://www.w3.org/2000/svg">
  <defs
     id="defs29">
    <linearGradient
       id="linearGradient3"
       inkscape:collect="always">
      <stop
         style="stop-color:#a793ac;stop-opacity:1"
         offset="0"
         id="stop3" />
      <stop
         style="stop-color:#e2dbe3;stop-opacity:1"
         offset="1"
         id="stop4" />
    </linearGradient>
    <linearGradient
       id="linearGradient1"
       inkscape:collect="always">
      <stop
         style="stop-color:#ff2a2a;stop-opacity:1"
         offset="0"
         id="stop1" />
      <stop
         style="stop-color:#aa87de;stop-opacity:1"
         offset="1"
         id="stop2" />
    </linearGradient>
    <linearGradient
       inkscape:collect="always"
       xlink:href="#linearGradient1"
       id="linearGradient2"
       x1="256"
       y1="512"
       x2="256.00198"
       y2="298.84195"
       gradientUnits="userSpaceOnUse"
       gradientTransform="matrix(0.02555849,0,0,0.02539063,10.474838,10)" />
    <linearGradient
       inkscape:collect="always"
       xlink:href="#linearGradient3"
       id="linearGradient4"
       x1="256"
       y1="247.77901"
       x2="255.9995"
       y2="0"
       gradientUnits="userSpaceOnUse"
       gradientTransform="matrix(0.02555849,0,0,0.02539063,10.474838,10)" />
  </defs>
  <sodipodi:namedview
     id="namedview29"
     pagecolor="#ffffff"
     bordercolor="#000000"
     borderopacity="0.25"
     inkscape:showpageshadow="2"
     inkscape:pageopacity="0.0"
     inkscape:pagecheckerboard="0"
     inkscape:deskcolor="#d1d1d1"
     inkscape:zoom="28.284271"
     inkscape:cx="7.2124892"
     inkscape:cy="10.624279"
     inkscape:window-width="1920"
     inkscape:window-height="994"
     inkscape:window-x="0"
     inkscape:window-y="0"
     inkscape:window-maximized="1"
     inkscape:current-layer="svg29" />
  <g
     id="g1"
     transform="translate(-9.0178115,-8.5)">
    <path
       class="st0"
       d="m 10.750001,16.727652 v 4.625817 c 2.3e-4,0.909721 0.741937,1.646328 1.657417,1.646531 h 9.220787 c 0.915709,-2.28e-4 1.657417,-0.736836 1.657417,-1.646531 v -4.625817 -0.01912 H 10.750001 Z m 11.334474,2.418889 c 0.19818,0 0.358764,0.159555 0.358764,0.356408 0,0.196879 -0.160584,0.356408 -0.358764,0.356408 -0.198155,0 -0.358765,-0.159529 -0.358765,-0.356408 0,-0.196853 0.16061,-0.356408 0.358765,-0.356408 z m -0.779713,-0.775049 c 0.198181,0 0.358764,0.159098 0.358764,0.356409 0,0.196421 -0.160583,0.356408 -0.358764,0.356408 -0.198181,0 -0.358995,-0.159987 -0.358995,-0.356408 0,-0.197311 0.160814,-0.356409 0.358995,-0.356409 z m 0,1.549641 c 0.198181,0 0.358764,0.159555 0.358764,0.356408 0,0.196879 -0.160583,0.356408 -0.358764,0.356408 -0.198181,0 -0.358995,-0.159529 -0.358995,-0.356408 0,-0.196853 0.160814,-0.356408 0.358995,-0.356408 z m -0.780147,-0.774592 c 0.197925,0 0.358764,0.159555 0.358764,0.356408 0,0.196879 -0.160814,0.356408 -0.358764,0.356408 -0.198385,0 -0.358765,-0.159529 -0.358765,-0.356408 -2.5e-5,-0.196853 0.160354,-0.356408 0.358765,-0.356408 z m -6.101783,-1.558756 h 5.19006 v 3.830125 h -5.19006 z m -2.710809,1.620303 h 0.772121 v -0.767051 h 0.593622 v 0.767051 h 0.772122 v 0.589723 h -0.772122 v 0.76705 h -0.593622 v -0.76705 h -0.772121 z"
       id="path1-3"
       style="fill:url(#linearGradient2);stroke-width:0.0254744" />
    <path
       class="st0"
       d="m 21.628179,10 h -9.220761 c -0.91548,2.28e-4 -1.657187,0.736836 -1.657417,1.646531 v 4.626071 0.01866 h 12.535621 v -0.01866 -4.626071 c 0,-0.909695 -0.741708,-1.646303 -1.657443,-1.646531 z m -1.270436,5.234887 h -6.679864 v -3.943901 h 6.679864 z"
       id="path2-6"
       style="fill:url(#linearGradient4);stroke-width:0.0254744" />
  </g>
</svg>
