<?xml version="1.0" encoding="UTF-8" standalone="no"?>
<svg
   height="16"
   width="16"
   version="1.1"
   id="svg6"
   sodipodi:docname="ferdi.svg"
   inkscape:version="1.4.4 (unknown)"
   xmlns:inkscape="http://www.inkscape.org/namespaces/inkscape"
   xmlns:sodipodi="http://sodipodi.sourceforge.net/DTD/sodipodi-0.dtd"
   xmlns="http://www.w3.org/2000/svg"
   xmlns:svg="http://www.w3.org/2000/svg"
   xmlns:rdf="http://www.w3.org/1999/02/22-rdf-syntax-ns#"
   xmlns:cc="http://creativecommons.org/ns#"
   xmlns:dc="http://purl.org/dc/elements/1.1/">
  <metadata
     id="metadata12">
    <rdf:RDF>
      <cc:Work
         rdf:about="">
        <dc:format>image/svg+xml</dc:format>
        <dc:type
           rdf:resource="http://purl.org/dc/dcmitype/StillImage" />
      </cc:Work>
    </rdf:RDF>
  </metadata>
  <defs
     id="defs10">
    <marker
       style="overflow:visible"
       id="DotL"
       refX="0"
       refY="0"
       orient="auto"
       inkscape:stockid="DotL"
       inkscape:isstock="true">
      <path
         transform="matrix(0.8,0,0,0.8,5.92,0.8)"
         style="fill:#000000;fill-opacity:1;fill-rule:evenodd;stroke:#000000;stroke-width:1pt;stroke-opacity:1"
         d="m -2.5,-1 c 0,2.76 -2.24,5 -5,5 -2.76,0 -5,-2.24 -5,-5 0,-2.76 2.24,-5 5,-5 2.76,0 5,2.24 5,5 z"
         id="path898" />
    </marker>
  </defs>
  <sodipodi:namedview
     pagecolor="#ffffff"
     bordercolor="#666666"
     borderopacity="1"
     objecttolerance="10"
     gridtolerance="10"
     guidetolerance="10"
     inkscape:pageopacity="0"
     inkscape:pageshadow="2"
     inkscape:window-width="1920"
     inkscape:window-height="994"
     id="namedview8"
     showgrid="false"
     inkscape:zoom="16"
     inkscape:cx="13"
     inkscape:cy="21.84375"
     inkscape:window-x="0"
     inkscape:window-y="0"
     inkscape:window-maximized="1"
     inkscape:current-layer="svg6"
     inkscape:document-rotation="0"
     inkscape:pagecheckerboard="0"
     inkscape:showpageshadow="2"
     inkscape:deskcolor="#d1d1d1" />
  <path
     style="color:#d6dbf1;fill:#3584e4;fill-opacity:1;stroke-width:0.512;stroke-dasharray:none;stroke:#3584e4;stroke-opacity:1"
     class="ColorScheme-Text "
     d="M 7.9999995,1.500015 C 4.4054998,1.500015 1.5,4.4055149 1.5,8.0000139 c 0,3.5945001 2.9054998,6.5000011 6.4999995,6.5000011 3.5944975,0 6.4999965,-2.905501 6.4999965,-6.5000012 0,-3.5944989 -2.905499,-6.4999988 -6.4999965,-6.4999988 z m 0,0.8124999 c 3.1443765,0 5.6874965,2.543124 5.6874965,5.687499 0,3.1443761 -2.54312,5.6875011 -5.6874965,5.6875011 -3.1443734,0 -5.6874996,-2.543125 -5.6874996,-5.6875012 0,-3.1443749 2.5431262,-5.6874989 5.6874996,-5.6874989 z M 8.609375,6.9592017 v 0 0 0 0 0 c 0,0 -0.027613,0.0065 0,0 z M 7.9748065,10.615454 Z"
     id="path58-9"
     sodipodi:nodetypes="ssssssssssccccccccccccccccc" />
  <path
     fill="#ffffff"
     fill-rule="evenodd"
     d="m 6.8333392,5.3549332 c -1.1233629,0 -1.3333616,1.6667685 -2.5000202,1.6667685 -0.6665517,0 -0.6665517,-0.6668119 -0.9999564,-0.6668119 0,0.9999552 1.1666591,1.6667668 2.166615,1.6667668 1.6667662,0 1.5000655,-0.9999549 2.5000219,-0.9999549 0.9999556,0 0.8332527,0.9999549 2.5000195,0.9999549 0.999957,0 2.166614,-0.667071 2.166614,-1.6667668 -0.333403,0 -0.333403,0.6668119 -0.999957,0.6668119 -1.166657,0 -1.376655,-1.6667685 -2.5000202,-1.6667685 -0.5001055,0 -0.5001055,0.3334047 -1.1666564,0.3334047 -0.6665516,0 -0.6665516,-0.3334047 -1.1666603,-0.3334047 m 1.1666604,3.3332746 c -0.3512942,0 -0.9999564,0 -0.9999564,0.3334055 0,0.8332539 0.6665486,2.3333197 0.9999564,2.3333197 0.3334036,0 0.9999556,-1.5000658 0.9999556,-2.3333197 0,-0.3336638 -0.6486619,-0.3334055 -0.9999556,-0.3334055"
     id="path3"
     style="fill:#3584e4;stroke-width:0.259257" />
</svg>
