<?xml version="1.0" encoding="UTF-8" standalone="no"?>
<svg
   width="16"
   height="16"
   viewBox="0 0 16 16"
   fill="none"
   version="1.1"
   id="svg17"
   sodipodi:docname="figma.svg"
   inkscape:version="1.4.4 (unknown)"
   xmlns:inkscape="http://www.inkscape.org/namespaces/inkscape"
   xmlns:sodipodi="http://sodipodi.sourceforge.net/DTD/sodipodi-0.dtd"
   xmlns="http://www.w3.org/2000/svg"
   xmlns:svg="http://www.w3.org/2000/svg">
  <sodipodi:namedview
     id="namedview17"
     pagecolor="#ffffff"
     bordercolor="#000000"
     borderopacity="0.25"
     inkscape:showpageshadow="2"
     inkscape:pageopacity="0.0"
     inkscape:pagecheckerboard="0"
     inkscape:deskcolor="#d1d1d1"
     inkscape:zoom="19.535484"
     inkscape:cx="10.033025"
     inkscape:cy="12.36212"
     inkscape:window-width="1920"
     inkscape:window-height="994"
     inkscape:window-x="0"
     inkscape:window-y="0"
     inkscape:window-maximized="1"
     inkscape:current-layer="svg17" />
  <g
     id="g18"
     transform="translate(-3.441419,0.068194)">
    <g
       id="g17">
      <path
         d="m 15.676337,7.996173 c 0,1.106943 -0.897407,2.004286 -2.004351,2.004286 -1.106943,0 -2.004286,-0.897343 -2.004286,-2.004286 0,-1.107008 0.897343,-2.004351 2.004286,-2.004351 1.106944,0 2.004351,0.897343 2.004351,2.004351 z"
         id="path2"
         style="fill:#00ccff;fill-opacity:1" />
      <path
         fill-rule="evenodd"
         clip-rule="evenodd"
         d="M 11.711393,5.222817 V 1.785729 c 0,-0.195466 0.171394,-0.353923 0.382717,-0.353923 h 1.286884 c 1.237705,0 2.249672,0.927883 2.249672,2.07248 0,1.144584 -1.011967,2.07248 -2.249672,2.07248 H 12.09411 c -0.211323,0 -0.382717,-0.158444 -0.382717,-0.353949 z M 12.415528,4.605368 V 2.403211 c 0,-0.125232 0.109776,-0.226753 0.245194,-0.226753 h 0.824499 c 0.792988,0 1.44131,0.594492 1.44131,1.327835 0,0.733342 -0.648322,1.327834 -1.44131,1.327834 h -0.824499 c -0.135418,0 -0.245194,-0.101547 -0.245194,-0.226759 z"
         id="path3"
         style="fill:#c83771;fill-opacity:1" />
      <path
         d="m 9.210787,14.431806 c 1.106944,0 2.004351,-0.897343 2.004351,-2.004286 V 10.423233 H 9.210787 c -1.106943,0 -2.004286,0.897343 -2.004286,2.004287 0,1.106943 0.897343,2.004286 2.004286,2.004286 z"
         id="path4"
         style="fill:#00d455;fill-opacity:1" />
      <path
         fill-rule="evenodd"
         clip-rule="evenodd"
         d="M 11.215138,9.718524 V 6.281411 c 0,-0.19544 -0.171394,-0.353885 -0.382717,-0.353885 H 9.545537 c -1.237705,0 -2.24964,0.927832 -2.24964,2.072474 0,1.144577 1.011935,2.072473 2.24964,2.072473 h 1.286884 c 0.211323,0 0.382717,-0.158444 0.382717,-0.353949 z M 10.511003,9.101075 V 6.898924 c 0,-0.125276 -0.109776,-0.226759 -0.245194,-0.226759 H 9.441374 C 8.648322,6.672165 8,7.266651 8,8 8,8.733348 8.648322,9.327835 9.441374,9.327835 h 0.824435 c 0.135418,0 0.245194,-0.101548 0.245194,-0.22676 z"
         id="path5"
         style="fill:#9955ff" />
      <path
         fill-rule="evenodd"
         clip-rule="evenodd"
         d="M 11.215138,5.222817 V 1.785729 c 0,-0.195466 -0.171394,-0.353923 -0.382717,-0.353923 H 9.545537 c -1.237705,0 -2.24964,0.927883 -2.24964,2.07248 0,1.144584 1.011935,2.07248 2.24964,2.07248 h 1.286884 c 0.211323,0 0.382717,-0.158444 0.382717,-0.353949 z M 10.511003,4.605368 V 2.403211 c 0,-0.125232 -0.109776,-0.226753 -0.245194,-0.226753 H 9.441374 C 8.648322,2.176458 8,2.77095 8,3.504293 8,4.237635 8.648322,4.832127 9.441374,4.832127 h 0.824435 c 0.135418,0 0.245194,-0.101547 0.245194,-0.226759 z"
         id="path6"
         style="fill:#d35f8d;fill-opacity:1" />
    </g>
  </g>
  <defs
     id="defs17">
    <linearGradient
       id="paint0_linear"
       x1="15.5"
       y1="155"
       x2="294.5"
       y2="155"
       gradientUnits="userSpaceOnUse">
      <stop
         stop-color="#323448"
         id="stop6" />
      <stop
         offset="1"
         stop-color="#C6C8DC"
         id="stop7" />
    </linearGradient>
    <linearGradient
       id="paint1_linear"
       x1="158.205"
       y1="124.586"
       x2="221.05"
       y2="187.431"
       gradientUnits="userSpaceOnUse"
       gradientTransform="matrix(0.06378609,0,0,0.06378609,1.576422,-1.955031)">
      <stop
         stop-color="#1ABCFE"
         id="stop8" />
      <stop
         offset="1"
         stop-color="#8FDFFF"
         id="stop9" />
    </linearGradient>
    <linearGradient
       id="paint2_linear"
       x1="158.89"
       y1="56.2686"
       x2="220.334"
       y2="118.079"
       gradientUnits="userSpaceOnUse"
       gradientTransform="matrix(0.06378609,0,0,0.06378609,1.576422,-1.955031)">
      <stop
         stop-color="#FF7262"
         id="stop10" />
      <stop
         offset="1"
         stop-color="#FCB5AD"
         id="stop11" />
    </linearGradient>
    <linearGradient
       id="paint3_linear"
       x1="149.48399"
       y1="194.05901"
       x2="88.264999"
       y2="256.90302"
       gradientUnits="userSpaceOnUse"
       gradientTransform="matrix(0.06378609,0,0,0.06378609,1.576422,-1.955031)">
      <stop
         stop-color="#0ACF83"
         id="stop12" />
      <stop
         offset="1"
         stop-color="#39E8A4"
         id="stop13" />
    </linearGradient>
    <linearGradient
       id="paint4_linear"
       x1="151.11"
       y1="126.115"
       x2="89.666496"
       y2="188.56"
       gradientUnits="userSpaceOnUse"
       gradientTransform="matrix(0.06378609,0,0,0.06378609,1.576422,-1.955031)">
      <stop
         stop-color="#A259FF"
         id="stop14" />
      <stop
         offset="1"
         stop-color="#C39AF7"
         id="stop15" />
    </linearGradient>
    <linearGradient
       id="paint5_linear"
       x1="151.11"
       y1="53.096802"
       x2="89.666496"
       y2="118.079"
       gradientUnits="userSpaceOnUse"
       gradientTransform="matrix(0.06378609,0,0,0.06378609,1.576422,-1.955031)">
      <stop
         stop-color="#F24E1E"
         id="stop16" />
      <stop
         offset="1"
         stop-color="#F58969"
         id="stop17" />
    </linearGradient>
  </defs>
</svg>
