<?xml version="1.0" encoding="UTF-8" standalone="no"?>
<svg
   width="16"
   height="16"
   version="1"
   id="svg5"
   sodipodi:docname="fiji.svg"
   inkscape:version="1.4.4 (unknown)"
   xmlns:inkscape="http://www.inkscape.org/namespaces/inkscape"
   xmlns:sodipodi="http://sodipodi.sourceforge.net/DTD/sodipodi-0.dtd"
   xmlns:xlink="http://www.w3.org/1999/xlink"
   xmlns="http://www.w3.org/2000/svg"
   xmlns:svg="http://www.w3.org/2000/svg">
  <defs
     id="defs5">
    <linearGradient
       id="linearGradient5"
       inkscape:collect="always">
      <stop
         style="stop-color:#3693ee;stop-opacity:1;"
         offset="0"
         id="stop5" />
      <stop
         style="stop-color:#8d5fd3;stop-opacity:1"
         offset="1"
         id="stop6" />
    </linearGradient>
    <linearGradient
       inkscape:collect="always"
       xlink:href="#linearGradient5"
       id="linearGradient6"
       x1="0.571429"
       y1="7.071428"
       x2="14.081429"
       y2="7.071428"
       gradientUnits="userSpaceOnUse" />
  </defs>
  <sodipodi:namedview
     id="namedview5"
     pagecolor="#ffffff"
     bordercolor="#000000"
     borderopacity="0.25"
     inkscape:showpageshadow="2"
     inkscape:pageopacity="0.0"
     inkscape:pagecheckerboard="0"
     inkscape:deskcolor="#d1d1d1"
     inkscape:zoom="23.65625"
     inkscape:cx="3.9313078"
     inkscape:cy="6.4464993"
     inkscape:window-width="1920"
     inkscape:window-height="994"
     inkscape:window-x="0"
     inkscape:window-y="0"
     inkscape:window-maximized="1"
     inkscape:current-layer="svg5" />
  <g
     id="g5"
     transform="translate(0.673571,0.77381)">
    <path
       style="opacity:0.2;stroke-width:0.311846"
       d="M 0.571429,1.035714 V 2.892857 13.72619 H 2.7707317 V 3.511904 H 14.081429 V 1.035714 H 2.4565454 Z m 3.7702328,4.023809 v 4.952381 H 6.5409634 V 5.059523 Z m 3.7702317,0 v 6.5 H 4.3416618 v 2.166667 h 5.9695342 v -2.166667 -6.5 z m 3.7702325,0 v 8.666667 h 2.199303 V 5.059523 Z"
       id="path2" />
    <path
       style="fill:url(#linearGradient6);stroke-width:0.311846"
       d="M 0.571429,0.72619 V 2.583333 13.416666 H 2.7707317 V 3.20238 H 14.081429 V 0.72619 H 2.4565454 Z M 4.3416618,4.75 V 9.70238 H 6.5409634 V 4.75 Z m 3.7702317,0 v 6.5 H 4.3416618 v 2.166666 H 10.311196 V 11.25 4.75 Z m 3.7702325,0 v 8.666666 h 2.199303 V 4.75 Z"
       id="path3" />
    <path
       style="opacity:0.1;fill:#ffffff;stroke-width:0.311846"
       d="M 0.571429,0.72619 V 1.035714 H 2.4565454 14.081429 V 0.72619 H 2.4565454 Z M 4.3416618,4.75 V 5.059523 H 6.5409634 V 4.75 Z m 3.7702317,0 V 5.059523 H 10.311196 V 4.75 Z m 3.7702325,0 v 0.309523 h 2.199303 V 4.75 Z m -7.5404642,6.5 v 0.309523 H 8.1118935 V 11.25 Z"
       id="path5" />
  </g>
</svg>
