<?xml version="1.0" encoding="UTF-8" standalone="no"?>
<!-- Generator: Gravit.io -->

<svg
   style="isolation:isolate"
   viewBox="0 0 16 16"
   width="16pt"
   height="16pt"
   version="1.1"
   id="svg3"
   sodipodi:docname="appimagekit-fluent-reader.svg"
   inkscape:version="1.4.4 (unknown)"
   xmlns:inkscape="http://www.inkscape.org/namespaces/inkscape"
   xmlns:sodipodi="http://sodipodi.sourceforge.net/DTD/sodipodi-0.dtd"
   xmlns:xlink="http://www.w3.org/1999/xlink"
   xmlns="http://www.w3.org/2000/svg"
   xmlns:svg="http://www.w3.org/2000/svg">
  <defs
     id="defs3">
    <linearGradient
       id="linearGradient3"
       inkscape:collect="always">
      <stop
         style="stop-color:#c061cb;stop-opacity:1"
         offset="0"
         id="stop4" />
      <stop
         style="stop-color:#62a0ea;stop-opacity:1"
         offset="1"
         id="stop5" />
    </linearGradient>
    <linearGradient
       inkscape:collect="always"
       xlink:href="#linearGradient3"
       id="linearGradient5"
       x1="3.8778071"
       y1="14.5"
       x2="14.5"
       y2="5.4002643"
       gradientUnits="userSpaceOnUse" />
  </defs>
  <sodipodi:namedview
     id="namedview3"
     pagecolor="#ffffff"
     bordercolor="#000000"
     borderopacity="0.25"
     inkscape:showpageshadow="2"
     inkscape:pageopacity="0.0"
     inkscape:pagecheckerboard="0"
     inkscape:deskcolor="#d1d1d1"
     inkscape:document-units="pt"
     inkscape:zoom="23.65625"
     inkscape:cx="8.2430647"
     inkscape:cy="15.619551"
     inkscape:window-width="1920"
     inkscape:window-height="994"
     inkscape:window-x="0"
     inkscape:window-y="0"
     inkscape:window-maximized="1"
     inkscape:current-layer="svg3" />
  <linearGradient
     id="_lgradient_0"
     x1="0.0078125"
     y1="1.0390625"
     x2="1.0334624"
     y2="-0.066095136"
     gradientTransform="matrix(13,0,0,13,1.5000001,1.5)"
     gradientUnits="userSpaceOnUse">
    <stop
       offset="0%"
       stop-opacity="1"
       style="stop-color:rgb(84,51,255)"
       id="stop1" />
    <stop
       offset="51.73913043478261%"
       stop-opacity="1"
       style="stop-color:rgb(32,189,255)"
       id="stop2" />
    <stop
       offset="98.26086956521739%"
       stop-opacity="1"
       style="stop-color:rgb(165,254,203)"
       id="stop3" />
  </linearGradient>
  <path
     d="m 2.4070209,6.9526875 v -1.67375 c 0,-0.281125 0.1118542,-0.5500625 0.3114584,-0.7466875 C 2.9148334,4.3329167 3.1840418,4.2210625 3.4651668,4.2210625 h 0.151125 v 0 -1.6206667 c 0,-0.2900625 0.1148333,-0.5714583 0.323375,-0.7770208 C 4.1452293,1.6148333 4.4266251,1.5 4.7166876,1.5 h 8.6829164 c 0.290063,0 0.571458,0.1148333 0.777021,0.323375 C 14.385167,2.0289375 14.5,2.3103333 14.5,2.6003958 v 8.6829162 c 0,0.290063 -0.114833,0.571459 -0.323375,0.777021 -0.205563,0.208542 -0.486958,0.323375 -0.777021,0.323375 h -1.620667 v 0.151125 c 0,0.281125 -0.111854,0.550334 -0.311187,0.746688 -0.196625,0.199604 -0.465562,0.311458 -0.746687,0.311458 H 9.0473126 c -0.0325,0.225063 -0.1370417,0.434688 -0.300625,0.595563 C 8.5503334,14.388146 8.2811251,14.5 8.0000001,14.5 H 2.5581459 C 2.2770209,14.5 2.0078126,14.388146 1.8114584,14.188542 1.6118543,13.992187 1.5000001,13.722979 1.5000001,13.441854 V 8 c 0,-0.281125 0.1118542,-0.5503333 0.3114583,-0.7466875 0.160875,-0.1635833 0.3705,-0.268125 0.5955625,-0.300625 z M 3.3140418,6.9418542 V 5.2789375 c 0,-0.039271 0.014896,-0.078542 0.045229,-0.105625 0.027354,-0.030333 0.066625,-0.0455 0.1058959,-0.0455 h 7.2558963 c 0.03927,0 0.07854,0.015167 0.105625,0.0455 0.03033,0.027083 0.0455,0.066354 0.0455,0.105625 v 7.2558955 c 0,0.03927 -0.01517,0.07854 -0.0455,0.105896 -0.02708,0.03033 -0.06635,0.04523 -0.105625,0.04523 H 9.0581459 V 8 c 0,-0.281125 -0.1118541,-0.5503333 -0.3114583,-0.7466875 C 8.5503334,7.0537083 8.2811251,6.9418542 8.0000001,6.9418542 Z M 4.5233126,4.2210625 h 6.1977504 c 0.281125,0 0.550062,0.1118542 0.746687,0.3111875 0.199333,0.196625 0.311187,0.4655625 0.311187,0.7466875 v 6.1977495 h 1.620667 c 0.05146,0 0.09967,-0.02112 0.135958,-0.05742 0.03629,-0.03629 0.05742,-0.0845 0.05742,-0.135959 V 2.6003958 c 0,-0.051458 -0.02112,-0.099667 -0.05742,-0.1359583 -0.03629,-0.036292 -0.0845,-0.057417 -0.135958,-0.057417 H 4.7166876 c -0.051458,0 -0.099667,0.021125 -0.1359583,0.057417 -0.036292,0.036292 -0.057417,0.0845 -0.057417,0.1359583 z M 3.7674168,8.9070208 v 3.9300622 h 0.9070208 v -1.511521 h 2.1162917 v -0.6045 H 4.6744376 V 9.5115208 h 2.1162917 v -0.6045 H 4.6744376 Z M 2.5581459,7.848875 h 5.4418542 c 0.039271,0 0.078542,0.015167 0.1058958,0.045229 C 8.1359589,7.921458 8.1511249,7.960729 8.1511249,8 v 5.441854 c 0,0.03927 -0.015167,0.07854 -0.045229,0.105896 -0.027354,0.03006 -0.066625,0.04523 -0.1058958,0.04523 H 2.5581459 c -0.039271,0 -0.078542,-0.01517 -0.1058958,-0.04523 -0.030063,-0.02735 -0.045229,-0.06663 -0.045229,-0.105896 V 8 c 0,-0.039271 0.015167,-0.078542 0.045229,-0.1058958 0.027354,-0.030063 0.066625,-0.045229 0.105896,-0.045229 z"
     fill-rule="evenodd"
     id="path3"
     style="fill:url(#linearGradient5)" />
</svg>
