<?xml version="1.0" encoding="UTF-8" standalone="no"?>
<svg
   width="100%"
   height="100%"
   viewBox="0 0 16 16"
   version="1.1"
   id="svg2"
   sodipodi:docname="fluxgui.svg"
   inkscape:version="1.4.4 (unknown)"
   xmlns:inkscape="http://www.inkscape.org/namespaces/inkscape"
   xmlns:sodipodi="http://sodipodi.sourceforge.net/DTD/sodipodi-0.dtd"
   xmlns="http://www.w3.org/2000/svg"
   xmlns:svg="http://www.w3.org/2000/svg">
  <sodipodi:namedview
     id="namedview2"
     pagecolor="#ffffff"
     bordercolor="#000000"
     borderopacity="0.25"
     inkscape:showpageshadow="2"
     inkscape:pageopacity="0.0"
     inkscape:pagecheckerboard="0"
     inkscape:deskcolor="#d1d1d1"
     inkscape:zoom="23.65625"
     inkscape:cx="8.7503302"
     inkscape:cy="5.1360634"
     inkscape:window-width="1920"
     inkscape:window-height="994"
     inkscape:window-x="0"
     inkscape:window-y="0"
     inkscape:window-maximized="1"
     inkscape:current-layer="svg2" />
  <defs
     id="defs1">
    <style
       id="current-color-scheme"
       type="text/css">
   .ColorScheme-Text { color:#dfdfdf; } .ColorScheme-Highlight { color:#4285f4; }
  </style>
  </defs>
  <g
     id="g2"
     transform="translate(0.5,0.5)">
    <path
       style="fill:#2a7fff;stroke-width:0.92857"
       class="ColorScheme-Text"
       d="M 9.357143,3.785714 A 0.9285714,0.9285714 0 0 0 8.428571,4.714286 0.9285714,0.9285714 0 0 0 9.357143,5.642857 0.9285714,0.9285714 0 0 0 10.28571,4.714286 0.9285714,0.9285714 0 0 0 9.357143,3.785714 Z M 6.0545484,8.4376396 c -0.5525,-0.01625 -1.145625,0.097355 -1.828125,0.3736048 C 3.4870484,9.1118694 2.6323997,9.5555527 1.6492748,10.327432 2.7380248,12.569932 5.005625,14 7.5,14 c 1.893125,0 3.688029,-0.820698 4.914899,-2.250698 -1.95,-1.09687 -3.3714395,-2.328683 -4.7770645,-2.9380576 -0.52,-0.219375 -1.0307861,-0.3654798 -1.5832861,-0.3736048 z"
       id="path1" />
    <path
       style="opacity:0.99812909;fill:#ffd42a;stroke-width:0.92857"
       class="ColorScheme-Text"
       d="M 7.5,1 C 3.90875,1 1,3.90875 1,7.5 1,8.190625 1.11433,8.873125 1.333705,9.53125 2.28433,8.791875 3.12817,8.2874719 3.916295,7.9624719 4.68817,7.6537219 5.40375,7.5236497 6.078125,7.5398998 6.744375,7.5561498 7.3702174,7.7196655 7.9552174,7.9715405 9.5964661,8.6784155 11.025957,10.019335 12.919088,11.083705 13.625958,10.019335 14,8.775625 14,7.5 14,3.90875 11.09125,1 7.5,1 Z M 9.357143,2.857143 A 1.857143,1.857143 0 0 1 11.21429,4.714286 1.857143,1.857143 0 0 1 9.357143,6.571429 1.857143,1.857143 0 0 1 7.5,4.714286 1.857143,1.857143 0 0 1 9.357143,2.857143 Z"
       id="path2" />
  </g>
</svg>
