<?xml version="1.0" encoding="UTF-8" standalone="no"?>
<svg
   viewBox="0 0 16 16"
   width="16"
   height="16"
   version="1.1"
   id="svg3"
   sodipodi:docname="focalboard.svg"
   inkscape:version="1.4.4 (unknown)"
   xmlns:inkscape="http://www.inkscape.org/namespaces/inkscape"
   xmlns:sodipodi="http://sodipodi.sourceforge.net/DTD/sodipodi-0.dtd"
   xmlns:xlink="http://www.w3.org/1999/xlink"
   xmlns="http://www.w3.org/2000/svg"
   xmlns:svg="http://www.w3.org/2000/svg">
  <sodipodi:namedview
     id="namedview3"
     pagecolor="#ffffff"
     bordercolor="#000000"
     borderopacity="0.25"
     inkscape:showpageshadow="2"
     inkscape:pageopacity="0.0"
     inkscape:pagecheckerboard="0"
     inkscape:deskcolor="#d1d1d1"
     inkscape:zoom="23.627821"
     inkscape:cx="7.4488459"
     inkscape:cy="7.1314234"
     inkscape:window-width="1920"
     inkscape:window-height="994"
     inkscape:window-x="0"
     inkscape:window-y="0"
     inkscape:window-maximized="1"
     inkscape:current-layer="svg3" />
  <defs
     id="defs3">
    <linearGradient
       id="linearGradient3"
       inkscape:collect="always">
      <stop
         style="stop-color:#00ccff;stop-opacity:1"
         offset="0"
         id="stop4" />
      <stop
         style="stop-color:#e580ff;stop-opacity:1"
         offset="1"
         id="stop5" />
    </linearGradient>
    <linearGradient
       id="A"
       x1="4.2010002"
       y1="24.028999"
       x2="43.799"
       y2="24.028999"
       gradientUnits="userSpaceOnUse"
       gradientTransform="matrix(0.27083699,0,0,0.27083699,1.4999996,0.4921457)">
      <stop
         offset="0%"
         stop-color="#5433ff"
         id="stop1" />
      <stop
         offset="51.73913043478261%"
         stop-color="#20bdff"
         id="stop2" />
      <stop
         offset="98.26086956521739%"
         stop-color="#a5fecb"
         id="stop3" />
    </linearGradient>
    <linearGradient
       inkscape:collect="always"
       xlink:href="#linearGradient3"
       id="linearGradient5"
       x1="2.6376903"
       y1="7"
       x2="13.36231"
       y2="7"
       gradientUnits="userSpaceOnUse" />
  </defs>
  <path
     d="m 11.012878,0.5 -0.872095,1.6789185 0.143544,0.656238 -1.8999221,3.4778178 A 0.9533462,0.9533462 0 0 0 8.1225056,6.3265161 C 7.7774593,6.3888086 7.4798094,6.6244368 7.3628078,6.9702956 7.1886596,7.4848859 7.4806219,8.0484977 8.0149833,8.2294168 8.5493447,8.4103359 9.1235187,8.1397697 9.2976677,7.6251795 9.4162937,7.2749872 9.3150007,6.934816 9.1015817,6.6878127 L 10.979024,3.251433 11.648803,3.0030754 12.590774,1.3620741 11.546698,1.3980954 Z M 7.9080027,2.7815308 C 5.7694738,2.8229688 3.6883624,4.1565702 2.9221646,6.4191424 1.9728809,9.223388 3.4768387,12.266242 6.2808141,13.215526 9.0847897,14.164809 12.127643,12.660852 13.076927,9.856876 13.852604,7.5655953 12.982676,5.2274596 11.24634,3.8919624 l -0.09371,0.9934301 h -5.42e-4 c 0.944409,0.9983051 1.36854,2.4353662 0.882387,3.8721564 C 11.348716,10.782868 9.0880397,11.847257 6.9847194,11.135227 4.8813993,10.423196 3.7327797,8.2044998 4.4182681,6.1791808 5.0249429,4.3870524 6.8652803,3.3819764 8.6487417,3.6043335 V 3.6037919 L 9.3824397,2.9638041 A 5.2000702,5.2000702 0 0 0 7.9082735,2.7812599 Z m 0.3420671,1.6908353 a 2.7517038,2.7517038 0 0 0 -0.5367989,0.049292 l 5.417e-4,0.00108 C 7.2089724,4.6148263 6.7396119,4.8350168 6.3561067,5.1600212 A 2.7652456,2.7652456 0 0 0 5.5205746,6.3871836 C 5.2678837,7.134152 5.3526557,7.9152459 5.694452,8.5747339 6.0338107,9.230159 6.6264021,9.765333 7.3920582,10.024524 8.1577144,10.283715 8.9537047,10.218985 9.6213177,9.904814 10.293535,9.588206 10.835751,9.018907 11.088442,8.272209 11.249048,7.7977026 11.271528,7.3278005 11.186752,6.8885029 11.084917,6.3595582 10.828163,5.8774684 10.471471,5.4861089 10.434911,5.4460249 10.397261,5.4072959 10.358803,5.3691074 l -0.207461,1.0413682 a 1.998777,1.998777 0 0 1 0.239149,0.6305085 1.8904422,1.8904422 0 0 1 -0.07015,0.9712214 C 10.141054,8.5416918 9.7548397,8.9463223 9.2754587,9.1722 A 2.1694043,2.1694043 0 0 1 7.6523326,9.25697 C 7.0927833,9.067386 6.6605275,8.6787353 6.4146075,8.2036873 6.1708542,7.7327017 6.1091034,7.1766734 6.2883975,6.6471871 A 1.955443,1.955443 0 0 1 6.8796346,5.7786129 2.0962783,2.0962783 0 0 1 7.8611479,5.3179192 v 5.416e-4 h 0.00488 A 1.9500263,1.9500263 0 0 1 8.0461295,5.2921897 L 8.7768477,4.5249085 C 8.6043247,4.4913247 8.4282805,4.4734494 8.2503406,4.4726369 Z"
     id="path3"
     style="fill:url(#linearGradient5)" />
</svg>
