<?xml version="1.0" encoding="UTF-8" standalone="no"?>
<!-- Generator: Gravit.io -->

<svg
   style="isolation:isolate"
   viewBox="0 0 16 16"
   width="16pt"
   height="16pt"
   version="1.1"
   id="svg2"
   sodipodi:docname="foot.svg"
   inkscape:version="1.4.4 (unknown)"
   xmlns:inkscape="http://www.inkscape.org/namespaces/inkscape"
   xmlns:sodipodi="http://sodipodi.sourceforge.net/DTD/sodipodi-0.dtd"
   xmlns:xlink="http://www.w3.org/1999/xlink"
   xmlns="http://www.w3.org/2000/svg"
   xmlns:svg="http://www.w3.org/2000/svg">
  <defs
     id="defs2">
    <linearGradient
       inkscape:collect="always"
       xlink:href="#linearGradient1"
       id="linearGradient4"
       x1="0"
       y1="5.9693751"
       x2="16"
       y2="5"
       gradientUnits="userSpaceOnUse"
       gradientTransform="matrix(0.8125001,0,0,0.79999997,1.5,1.6)" />
    <linearGradient
       inkscape:collect="always"
       xlink:href="#linearGradient1"
       id="linearGradient3"
       x1="-23.090647"
       y1="11.233553"
       x2="-23.647169"
       y2="40.223366"
       gradientUnits="userSpaceOnUse" />
    <linearGradient
       id="linearGradient1"
       inkscape:collect="always">
      <stop
         style="stop-color:#f6e390;stop-opacity:1;"
         offset="0"
         id="stop1-3" />
      <stop
         style="stop-color:#ffb380;stop-opacity:1"
         offset="1"
         id="stop3-6" />
    </linearGradient>
  </defs>
  <sodipodi:namedview
     id="namedview2"
     pagecolor="#ffffff"
     bordercolor="#000000"
     borderopacity="0.25"
     inkscape:showpageshadow="2"
     inkscape:pageopacity="0.0"
     inkscape:pagecheckerboard="0"
     inkscape:deskcolor="#d1d1d1"
     inkscape:document-units="pt"
     inkscape:zoom="22.512992"
     inkscape:cx="9.4612036"
     inkscape:cy="17.70089"
     inkscape:window-width="1920"
     inkscape:window-height="994"
     inkscape:window-x="0"
     inkscape:window-y="0"
     inkscape:window-maximized="1"
     inkscape:current-layer="svg2"
     showgrid="false">
    <inkscape:grid
       id="grid1"
       units="pt"
       originx="0"
       originy="0"
       spacingx="0.99999997"
       spacingy="0.99999997"
       empcolor="#0099e5"
       empopacity="0.30196078"
       color="#0099e5"
       opacity="0.14901961"
       empspacing="5"
       enabled="true"
       visible="false" />
  </sodipodi:namedview>
  <linearGradient
     id="_lgradient_3"
     x1="0"
     y1="0.5"
     x2="1"
     y2="0.5"
     gradientTransform="matrix(16,0,0,15,0,0.5)"
     gradientUnits="userSpaceOnUse">
    <stop
       offset="0%"
       stop-opacity="1"
       style="stop-color:rgb(67,233,123)"
       id="stop1" />
    <stop
       offset="97.82608695652173%"
       stop-opacity="1"
       style="stop-color:rgb(56,249,215)"
       id="stop2" />
  </linearGradient>
  <path
     d="M 7.9999998,2.9999999 8,3.1010965 v 0 0 0 0 c 0,0 -2e-7,-0.1010966 0,0 l -2e-7,-0.1010966 L 8,3.1010965 7.9999998,2.9999999 8,3.1010965 7.9999998,2.9999999 8,3.1010965 7.9999998,2.9999999 8,3.1010965 v 0 z m 0,0 L 8,3.1010965 Z M 13.318183,8.6 v 0 c 0,-0.3312 0.264724,-0.6 0.590915,-0.6 V 8 C 14.235271,8 14.5,8.2688 14.5,8.6 v 0 2.049 c 0,0.3312 -0.187317,0.7902 -0.417775,1.0242 l -1.873764,1.9026 C 11.978005,13.8098 11.52596,14 11.199771,14 H 2.9772735 C 2.1618184,14 1.5,13.328 1.5,12.5 v -2.1 0 c 0,-0.3312 0.2647272,-0.6 0.5909091,-0.6 v 0 c 0.3261822,0 0.5909092,0.2688 0.5909092,0.6 v 0 1.5 c 0,0.4968 0.3970911,0.9 0.8863639,0.9 h 7.4365888 c 0.163097,0 0.389113,-0.09511 0.504348,-0.2121 l 1.600176,-1.6248 c 0.115236,-0.117 0.208888,-0.3465 0.208888,-0.5121 z M 7.9999998,2.9999999 v 0 0 0 L 8,3.1010965 v 0 z M 2.6818183,7.4 v 0 c 0,0.3312 -0.264727,0.6 -0.5909092,0.6 V 8 C 1.7647272,8 1.5,7.7312 1.5,7.4 v 0 -2.049 C 1.5,5.0198 1.6873183,4.5608 1.917773,4.3268 L 3.7915463,2.4242 C 4.0220009,2.1902 4.4740465,2 4.8002276,2 H 13.022734 C 13.838189,2 14.5,2.672 14.5,3.5 v 2.1 0 c 0,0.3312 -0.264729,0.6 -0.590902,0.6 v 0 c -0.326191,0 -0.590915,-0.2688 -0.590915,-0.6 v 0 -1.5 c 0,-0.4968 -0.39709,-0.9 -0.886363,-0.9 H 4.9952276 C 4.8321373,3.2 4.6061138,3.2951 4.4908873,3.4121 L 2.8907052,5.0369 C 2.7754771,5.1539 2.6818183,5.3834 2.6818183,5.549 Z"
     fill-rule="evenodd"
     id="path2"
     style="fill:url(#linearGradient4);fill-opacity:1;stroke-width:0.806223"
     sodipodi:nodetypes="cccccscccccccccccccccccsssscsccssscsssscsssccccccsccsccscsssscsssssscsssscsss" />
  <g
     id="g1"
     transform="matrix(0.23333333,0,0,0.23333333,13.860947,1.8788377)">
    <path
       style="opacity:0.2;stroke-width:1.02352"
       d="m -38.075151,12.243681 a 2.0248082,2.329583 0 0 0 -2.027498,2.329997 2.0248082,2.329583 0 0 0 2.027498,2.329994 2.0248082,2.329583 0 0 0 2.021421,-2.329994 2.0248082,2.329583 0 0 0 -2.021421,-2.329997 z m 3.822067,1.552675 a 1.3287003,1.5530554 0 0 0 -1.267942,1.552671 1.3287003,1.5530554 0 0 0 1.328708,1.554645 1.3287003,1.5530554 0 0 0 1.330736,-1.554645 1.3287003,1.5530554 0 0 0 -1.330736,-1.552671 1.3287003,1.5530554 0 0 0 -0.0608,0 z m 2.949092,1.783502 a 1.0629598,1.1783046 0 0 0 -1.028939,1.177821 1.0629598,1.1783046 0 0 0 1.063369,1.177823 1.0629598,1.1783046 0 0 0 1.065403,-1.177823 1.0629598,1.1783046 0 0 0 -1.065403,-1.177821 1.0629598,1.1783046 0 0 0 -0.0344,0 z m 2.307013,1.840714 a 0.86326117,0.92484035 0 0 0 -0.81019,0.923319 0.86326117,0.92484035 0 0 0 0.862854,0.92529 0.86326117,0.92484035 0 0 0 0.862853,-0.92529 0.86326117,0.92484035 0 0 0 -0.862853,-0.923319 0.86326117,0.92484035 0 0 0 -0.05267,0 z m -9.149061,0.580035 c -1.313378,0.01697 -2.178682,0.321616 -3.015937,1.118636 -1.530685,1.456887 -1.218633,3.525934 0.789939,5.299213 4.354886,3.844616 4.877301,6.420989 0.710943,9.327877 -1.715293,1.196659 -2.956819,4.009443 -2.42247,5.482691 0.672963,1.855506 3.234743,2.566201 5.470807,1.519134 2.097552,-0.982059 4.474056,-4.341368 6.094646,-8.355236 0.13508,-0.334512 0.269025,-0.671129 0.392944,-1.014072 0.371939,-1.028784 0.686397,-2.090759 0.937797,-3.154668 0.759531,-3.213423 0.575424,-5.713614 -0.534726,-7.216875 -0.69283,-0.938233 -3.261981,-2.14317 -5.48701,-2.679197 -0.513511,-0.123698 -1.008783,-0.215777 -1.458343,-0.256479 -0.553414,-0.05009 -1.040807,-0.07669 -1.47859,-0.07103 z m 10.396753,1.489539 a 0.70826617,0.7765276 0 0 0 -0.682586,0.775354 0.70826617,0.7765276 0 0 0 0.706893,0.779293 0.70826617,0.7765276 0 0 0 0.708918,-0.779293 0.70826617,0.7765276 0 0 0 -0.708918,-0.775354 0.70826617,0.7765276 0 0 0 -0.02434,0 z m 0.05874,18.71297 v 3.030376 h 13.481552 v -3.030376 z"
       id="path2-3" />
    <path
       style="fill:url(#linearGradient3);stroke-width:1.02352"
       d="m -38.075151,11.233555 a 2.0248082,2.329583 0 0 0 -2.027498,2.329998 2.0248082,2.329583 0 0 0 2.027498,2.329994 2.0248082,2.329583 0 0 0 2.021421,-2.329994 2.0248082,2.329583 0 0 0 -2.021421,-2.329998 z m 3.822067,1.552675 a 1.3287003,1.5530554 0 0 0 -1.267942,1.552671 1.3287003,1.5530554 0 0 0 1.328708,1.554646 1.3287003,1.5530554 0 0 0 1.330736,-1.554646 1.3287003,1.5530554 0 0 0 -1.330736,-1.552671 1.3287003,1.5530554 0 0 0 -0.0608,0 z m 2.949092,1.783503 a 1.0629598,1.1783046 0 0 0 -1.028939,1.177821 1.0629598,1.1783046 0 0 0 1.063369,1.177822 1.0629598,1.1783046 0 0 0 1.065403,-1.177822 1.0629598,1.1783046 0 0 0 -1.065403,-1.177821 1.0629598,1.1783046 0 0 0 -0.0344,0 z m 2.307013,1.840714 a 0.86326117,0.92484035 0 0 0 -0.81019,0.923319 0.86326117,0.92484035 0 0 0 0.862854,0.925289 0.86326117,0.92484035 0 0 0 0.862853,-0.925289 0.86326117,0.92484035 0 0 0 -0.862853,-0.923319 0.86326117,0.92484035 0 0 0 -0.05267,0 z m -9.149061,0.580035 c -1.313378,0.01697 -2.178682,0.321617 -3.015937,1.118636 -1.530685,1.456888 -1.218633,3.525933 0.789939,5.299212 4.354886,3.844617 4.877301,6.42099 0.710943,9.327878 -1.715293,1.196657 -2.956819,4.009443 -2.42247,5.482691 0.672963,1.855505 3.234743,2.566202 5.470807,1.519133 2.097552,-0.982059 4.474056,-4.341366 6.094646,-8.355237 0.13508,-0.334511 0.269025,-0.671128 0.392944,-1.01407 0.371939,-1.028783 0.686397,-2.090759 0.937797,-3.15467 0.759531,-3.213421 0.575424,-5.713612 -0.534726,-7.216873 -0.69283,-0.938234 -3.261981,-2.143171 -5.48701,-2.6792 -0.513511,-0.123695 -1.008783,-0.215775 -1.458343,-0.256475 -0.553414,-0.05009 -1.040807,-0.07669 -1.47859,-0.07104 z m 10.396753,1.48954 a 0.70826617,0.7765276 0 0 0 -0.682586,0.77535 0.70826617,0.7765276 0 0 0 0.706893,0.779295 0.70826617,0.7765276 0 0 0 0.708918,-0.779295 0.70826617,0.7765276 0 0 0 -0.708918,-0.77535 0.70826617,0.7765276 0 0 0 -0.02434,0 z m 0.05874,18.71297 v 3.030375 h 13.481552 v -3.030375 z"
       id="path3" />
  </g>
</svg>
