<?xml version="1.0" encoding="UTF-8" standalone="no"?>
<!-- Generator: Gravit.io -->

<svg
   style="isolation:isolate"
   viewBox="0 0 16 16"
   width="16"
   height="16"
   version="1.1"
   id="svg2"
   sodipodi:docname="fr.romainvigier.MetadataCleaner.svg"
   inkscape:version="1.4.4 (unknown)"
   xmlns:inkscape="http://www.inkscape.org/namespaces/inkscape"
   xmlns:sodipodi="http://sodipodi.sourceforge.net/DTD/sodipodi-0.dtd"
   xmlns:xlink="http://www.w3.org/1999/xlink"
   xmlns="http://www.w3.org/2000/svg"
   xmlns:svg="http://www.w3.org/2000/svg">
  <defs
     id="defs2">
    <linearGradient
       id="linearGradient2"
       inkscape:collect="always">
      <stop
         style="stop-color:#8d5fd3;stop-opacity:1"
         offset="0"
         id="stop3" />
      <stop
         style="stop-color:#bc5fd3;stop-opacity:1"
         offset="1"
         id="stop4" />
    </linearGradient>
    <linearGradient
       inkscape:collect="always"
       xlink:href="#linearGradient2"
       id="linearGradient4"
       x1="1.5"
       y1="8"
       x2="14.5"
       y2="8"
       gradientUnits="userSpaceOnUse" />
  </defs>
  <sodipodi:namedview
     id="namedview2"
     pagecolor="#ffffff"
     bordercolor="#000000"
     borderopacity="0.25"
     inkscape:showpageshadow="2"
     inkscape:pageopacity="0.0"
     inkscape:pagecheckerboard="0"
     inkscape:deskcolor="#d1d1d1"
     inkscape:document-units="px"
     inkscape:zoom="16.727495"
     inkscape:cx="5.8586179"
     inkscape:cy="11.507999"
     inkscape:window-width="1920"
     inkscape:window-height="994"
     inkscape:window-x="0"
     inkscape:window-y="0"
     inkscape:window-maximized="1"
     inkscape:current-layer="svg2" />
  <linearGradient
     id="_lgradient_2"
     x1="0.031182563"
     y1="0.10866628"
     x2="0.95837951"
     y2="0.97519469"
     gradientTransform="matrix(13.000001,0,0,12.999716,1.5,1.5)"
     gradientUnits="userSpaceOnUse">
    <stop
       offset="0%"
       stop-opacity="1"
       style="stop-color:rgb(199,81,251)"
       id="stop1" />
    <stop
       offset="97.5%"
       stop-opacity="1"
       style="stop-color:rgb(109,68,222)"
       id="stop2" />
  </linearGradient>
  <path
     d="m 2.7069777,7.7347925 v 0 c 0,0.327743 -0.2704,0.5938033 -0.6034888,0.5938033 v 0 C 1.7704,8.3285958 1.5,8.0625355 1.5,7.7347925 v 0 -4.4533826 C 1.5,2.8092666 1.6900889,2.3550313 2.0309777,2.0227402 2.3689777,1.6870381 2.8306222,1.5 3.3104667,1.5 h 5.4311109 v 0 c 0.333089,0 0.6034889,0.2660603 0.6034889,0.5938033 v 0 c 0,0.327743 -0.2703999,0.5938033 -0.6034889,0.5938033 v 0 H 3.3104667 c -0.1600444,0 -0.3140223,0.062251 -0.4255334,0.1750995 C 2.7702444,2.9727118 2.7069777,3.1239341 2.7069777,3.2814099 Z M 13.293023,10.343377 v 0 c 0,-0.327459 0.270399,-0.5935191 0.603487,-0.5935191 v 0 c 0.333089,0 0.60349,0.2660601 0.60349,0.5935191 v 0 2.375213 c 0,0.472143 -0.190088,0.926379 -0.530977,1.25867 C 13.631023,14.312962 13.169376,14.5 12.689532,14.5 H 3.3104667 C 2.8306222,14.5 2.3689777,14.312962 2.0309777,13.97726 1.6900889,13.644969 1.5,13.190733 1.5,12.71859 v -0.593803 0 c 0,-0.327743 0.2704,-0.593803 0.6034889,-0.593803 v 0 c 0.3330888,0 0.6034888,0.26606 0.6034888,0.593803 v 0 0.593803 c 0,0.157476 0.063267,0.308698 0.1779556,0.418704 0.1115111,0.112848 0.265489,0.175099 0.4255334,0.175099 h 9.3790653 c 0.160045,0 0.314023,-0.06225 0.425536,-0.175099 0.114688,-0.110006 0.177955,-0.261228 0.177955,-0.418704 z M 11.457132,2.6876066 v 0 c -0.333088,0 -0.603488,-0.2660603 -0.603488,-0.5938033 v 0 C 10.853644,1.7660603 11.124044,1.5 11.457132,1.5 v 0 h 1.2324 c 0.479844,0 0.941491,0.1870381 1.279491,0.5227402 C 14.309912,2.3550313 14.5,2.8092666 14.5,3.2814099 v 2.6719727 0 c 0,0.327743 -0.270401,0.5938033 -0.60349,0.5938033 v 0 c -0.333088,0 -0.603487,-0.2660603 -0.603487,-0.5938033 v 0 -2.6719727 c 0,-0.1574758 -0.06327,-0.3086981 -0.177955,-0.4187038 C 13.003555,2.7498579 12.849577,2.6876066 12.689532,2.6876066 Z M 7.5946887,3.9499716 C 7.050711,3.9508243 6.4339332,4.0835702 5.7333776,4.3811825 4.9031111,4.7336555 4.3582666,5.266913 4.0589777,5.8814667 3.7596888,6.4963047 3.7019111,7.1796475 3.7793333,7.8442297 3.9341777,9.173394 4.6127777,10.444855 5.1740888,11.142695 c 0.099955,0.124218 0.2831111,0.144968 0.4093555,0.04662 0.1262445,-0.09807 0.1473333,-0.278567 0.047376,-0.402786 C 5.1460666,10.183911 4.4952,8.9550881 4.3582666,7.7788516 4.2898,7.1907334 4.3455555,6.6199545 4.5844666,6.1293348 4.8233777,5.6384309 5.2416888,5.2143263 5.9641999,4.907618 6.9472888,4.4897669 7.6680665,4.4502558 8.2360221,4.6043206 c 0.5682445,0.1543491 1.0070666,0.5116544 1.3947555,0.968448 0.3876894,0.4567937 0.7132664,1.0068221 1.0460664,1.5054008 0.332512,0.4982945 0.667912,0.9582149 1.152956,1.1969869 0.06932,0.033826 0.149356,0.039511 0.222732,0.01535 0.07337,-0.023877 0.134044,-0.075895 0.168423,-0.1438318 C 12.292882,8.0048323 12.23452,7.8328596 12.090667,7.7620807 11.791376,7.614838 11.483711,7.2421831 11.1642,6.763502 10.844688,6.2848209 10.509577,5.7131893 10.078267,5.204946 9.6466665,4.6969869 9.1084666,4.2461626 8.3908666,4.0514497 8.2117554,4.0028425 8.0225332,3.970722 7.8231999,3.9570779 7.7483781,3.9519579 7.6723998,3.9496879 7.5946887,3.9496879 Z m -0.0234,1.1026151 C 7.1266887,5.0446276 6.6211332,5.173394 6.0491332,5.4633314 5.0648888,5.9624787 4.6772,7.023593 4.9071555,8.1986924 5.1368222,9.3740762 5.9344444,10.704946 7.289911,11.971575 c 0.1167111,0.108868 0.3013111,0.10432 0.4119556,-0.01052 0.053445,-0.05514 0.082333,-0.12905 0.080312,-0.204946 -0.00204,-0.07618 -0.034667,-0.148379 -0.091,-0.200682 C 6.4018666,10.350483 5.6764666,9.0994883 5.4794443,8.0903923 5.2821332,7.0810119 5.5629332,6.3553155 6.3160666,5.9735645 7.0977999,5.5770324 7.6088443,5.557419 8.0103999,5.7097783 c 0.4015555,0.1523593 0.7358,0.5139284 1.0593555,0.996589 0.6471112,0.9650369 1.1939766,2.385162 2.4668206,2.97527 0.06992,0.032689 0.150224,0.036384 0.223024,0.010802 0.0728,-0.025867 0.132024,-0.079022 0.164955,-0.1478113 0.06876,-0.1432632 0.006,-0.3140989 -0.139531,-0.3814667 C 10.794711,8.703809 10.255932,7.4337692 9.5562442,6.3902786 9.2063999,5.8686754 8.8022443,5.3956794 8.2201332,5.1748152 8.0748221,5.1196703 7.9208443,5.0824332 7.7581999,5.0645253 7.6969555,5.0579875 7.6345555,5.054008 7.5712888,5.0528709 Z M 7.3595332,6.1839113 c -0.1132445,0.00199 -0.2316889,0.017339 -0.3538889,0.047186 -0.5795111,0.1424105 -0.9469777,0.5426379 -1.0197777,1.0181922 -0.0728,0.4755543 0.082045,0.9934622 0.3411777,1.533826 0.5182668,1.0807277 1.495,2.2632175 2.4009556,3.1171115 0.055756,0.05287 0.1305776,0.08158 0.208,0.07987 0.077132,-0.0017 0.1508,-0.03354 0.2042443,-0.0884 C 9.2514665,11.777143 9.2477109,11.59579 9.1312869,11.486353 8.270111,10.674531 7.3205332,9.5105173 6.8542666,8.5383741 6.6211332,8.0523024 6.5191555,7.6168277 6.5621999,7.3348493 6.6055332,7.0525867 6.7268666,6.8908471 7.1466221,6.7876634 7.505711,6.6995454 7.6417776,6.7529844 7.8113554,6.9081865 c 0.1692889,0.1552018 0.3437777,0.4664582 0.5564,0.8666856 0.4252444,0.800739 1.0423111,1.9340534 2.5407776,2.7930639 0.138956,0.07987 0.31749,0.03354 0.398379,-0.103183 0.039,-0.06566 0.04996,-0.144116 0.03033,-0.217453 -0.01993,-0.07362 -0.06847,-0.136726 -0.1352,-0.174816 C 9.8329998,9.2873792 9.3080887,8.3069926 8.8845776,7.5096646 8.6728221,7.1108584 8.496311,6.7518476 8.2088666,6.4883457 7.9930666,6.2907902 7.6992666,6.1776578 7.3595332,6.1839113 Z m 0.031779,1.1924389 c -0.036978,-5.685e-4 -0.073378,0.00597 -0.1077555,0.018761 -0.1502226,0.056566 -0.2256227,0.222285 -0.1684226,0.3700963 0.9423555,2.4297895 2.9616899,3.6245025 2.9616899,3.6245025 0.1378,0.08158 0.316622,0.03809 0.400109,-0.09721 0.03988,-0.06538 0.052,-0.143263 0.03323,-0.217169 -0.01848,-0.07391 -0.06616,-0.137578 -0.132313,-0.176805 0,0 -1.8517767,-1.1040365 -2.7181545,-3.337692 C 7.6172221,7.4511086 7.5106222,7.3777715 7.3913122,7.3763502 Z"
     fill-rule="evenodd"
     id="path2"
     style="fill:url(#linearGradient4)" />
</svg>
