<?xml version="1.0" encoding="UTF-8" standalone="no"?>
<svg
   height="16"
   width="16"
   version="1.1"
   id="svg6"
   sodipodi:docname="appimagekit-franz.svg"
   inkscape:version="1.4.4 (unknown)"
   xmlns:inkscape="http://www.inkscape.org/namespaces/inkscape"
   xmlns:sodipodi="http://sodipodi.sourceforge.net/DTD/sodipodi-0.dtd"
   xmlns="http://www.w3.org/2000/svg"
   xmlns:svg="http://www.w3.org/2000/svg"
   xmlns:rdf="http://www.w3.org/1999/02/22-rdf-syntax-ns#"
   xmlns:cc="http://creativecommons.org/ns#"
   xmlns:dc="http://purl.org/dc/elements/1.1/">
  <metadata
     id="metadata12">
    <rdf:RDF>
      <cc:Work
         rdf:about="">
        <dc:format>image/svg+xml</dc:format>
        <dc:type
           rdf:resource="http://purl.org/dc/dcmitype/StillImage" />
      </cc:Work>
    </rdf:RDF>
  </metadata>
  <defs
     id="defs10">
    <marker
       style="overflow:visible"
       id="DotL"
       refX="0"
       refY="0"
       orient="auto"
       inkscape:stockid="DotL"
       inkscape:isstock="true">
      <path
         transform="matrix(0.8,0,0,0.8,5.92,0.8)"
         style="fill:#000000;fill-opacity:1;fill-rule:evenodd;stroke:#000000;stroke-width:1pt;stroke-opacity:1"
         d="m -2.5,-1 c 0,2.76 -2.24,5 -5,5 -2.76,0 -5,-2.24 -5,-5 0,-2.76 2.24,-5 5,-5 2.76,0 5,2.24 5,5 z"
         id="path898" />
    </marker>
  </defs>
  <sodipodi:namedview
     pagecolor="#ffffff"
     bordercolor="#666666"
     borderopacity="1"
     objecttolerance="10"
     gridtolerance="10"
     guidetolerance="10"
     inkscape:pageopacity="0"
     inkscape:pageshadow="2"
     inkscape:window-width="1920"
     inkscape:window-height="994"
     id="namedview8"
     showgrid="false"
     inkscape:zoom="16"
     inkscape:cx="13"
     inkscape:cy="16.84375"
     inkscape:window-x="0"
     inkscape:window-y="0"
     inkscape:window-maximized="1"
     inkscape:current-layer="svg6"
     inkscape:document-rotation="0"
     inkscape:pagecheckerboard="0"
     inkscape:showpageshadow="2"
     inkscape:deskcolor="#d1d1d1" />
  <path
     style="color:#d6dbf1;fill:#3584e4;fill-opacity:1;stroke:#3584e4;stroke-width:0.512;stroke-dasharray:none;stroke-opacity:1"
     class="ColorScheme-Text "
     d="M 7.9999995,1.500015 C 4.4054998,1.500015 1.5,4.4055149 1.5,8.0000139 c 0,3.5945001 2.9054998,6.5000011 6.4999995,6.5000011 3.5944975,0 6.4999965,-2.905501 6.4999965,-6.5000012 0,-3.5944989 -2.905499,-6.4999988 -6.4999965,-6.4999988 z m 0,0.8124999 c 3.1443765,0 5.6874965,2.543124 5.6874965,5.687499 0,3.1443761 -2.54312,5.6875011 -5.6874965,5.6875011 -3.1443734,0 -5.6874996,-2.543125 -5.6874996,-5.6875012 0,-3.1443749 2.5431262,-5.6874989 5.6874996,-5.6874989 z m 0,0 v 0 0 0 0 z"
     id="path58-9"
     sodipodi:nodetypes="ssssssssssccccccc" />
  <path
     fill="#ffffff"
     d="m 12.002631,5.0837468 c -0.02581,-0.0048 -0.05735,0.022169 -0.09799,0.068273 -0.05977,0.067909 -0.114836,0.2687923 -0.187807,0.6855819 -0.12237,0.6988682 -0.202624,0.9906178 -0.317775,1.1569554 -0.04672,0.06744 -0.07505,0.1527302 -0.06265,0.1895472 0.03233,0.095853 0.212478,0.2202073 0.459994,0.3173713 0.25592,0.1004692 0.345681,0.1070005 0.367459,0.02759 0.0089,-0.03258 -0.0025,-0.5751575 -0.02656,-1.2062891 -0.03473,-0.924624 -0.05723,-1.2246309 -0.134723,-1.2389642 z"
     id="path1"
     style="fill:#3584e4;stroke-width:0.833361" />
  <path
     fill="#ffffff"
     d="m 4.037285,5.0836642 c -0.02897,-0.0041 -0.060328,0.01827 -0.097503,0.06 -0.060879,0.06828 -0.074499,0.246761 -0.094003,1.225959 -0.012501,0.630269 -0.016406,1.162289 -0.00841,1.1822029 0.044996,0.112001 0.557262,-0.095363 0.7386877,-0.2990942 L 4.666548,7.1505752 4.5550436,6.937404 C 4.4825342,6.7984802 4.3999609,6.4885524 4.3192888,6.0534533 4.1884516,5.3480977 4.1241115,5.0955899 4.0372694,5.0836734 Z"
     id="path2"
     style="fill:#3584e4;stroke-width:0.833361" />
  <path
     fill="#ffffff"
     d="m 9.3637126,6.7513858 c -0.1690044,-0.005 -0.3625903,0.048999 -0.6613603,0.1387536 -0.3169279,0.095145 -0.6428517,0.1730049 -0.7244392,0.1730049 -0.08159,0 -0.3331804,-0.062858 -0.5584327,-0.1395052 C 6.8577941,6.7325501 6.6341219,6.7070503 6.4046945,6.8085569 6.3028518,6.8536398 5.924598,7.136318 5.5639253,7.4364118 5.0157317,7.8925106 4.8555626,7.9983471 4.5847163,8.0850945 4.158535,8.22169 3.7992778,8.2549396 3.5042688,8.1841728 3.1038361,8.0881738 2.8873301,8.2673053 3.0595008,8.5525135 3.2236661,8.8243583 3.8802802,9.0708658 4.7498065,9.1872884 5.9570165,9.3492083 6.7564609,9.1996572 7.6049861,8.6529318 7.7676585,8.5481877 7.947497,8.4618444 8.0054134,8.4618444 c 0.057913,0 0.2555198,0.096999 0.4385766,0.2148511 0.434764,0.2799065 0.6467048,0.3690055 1.1621202,0.4904085 0.3668344,0.086418 0.5096278,0.096254 1.0253648,0.070445 1.084531,-0.0543 1.809894,-0.2375414 2.191992,-0.5538855 0.128336,-0.1065772 0.176673,-0.1884213 0.176673,-0.2993453 0,-0.2217539 -0.150004,-0.2779241 -0.531685,-0.1995032 -0.231973,0.04763 -0.36134,0.0496 -0.59483,0.0081 C 11.301946,8.0898512 11.043599,7.9489291 10.37691,7.3764114 9.8593922,6.931814 9.6457211,6.7596399 9.3638756,6.7513066 Z"
     id="path3-3"
     style="fill:#3584e4;stroke-width:0.833361" />
  <path
     fill="#ffffff"
     d="m 3.8364454,9.2533835 c -0.01203,0.011398 0.010598,0.1186032 0.05009,0.2375672 0.086596,0.2605861 0.2720192,0.4623501 0.4928582,0.5364253 0.2197741,0.07371 0.8049257,0.07468 0.9537822,0.0013 0.119122,-0.05842 0.1666725,-0.1801872 0.1666725,-0.4284962 0,-0.2447839 -0.00899,-0.2498801 -0.4629082,-0.2500435 C 4.8095982,9.3499093 4.4511487,9.3238095 4.2406899,9.2914029 4.0302282,9.2590325 3.8484594,9.2414123 3.8363767,9.2528937 Z"
     id="path4"
     style="fill:#3584e4;stroke-width:0.833361" />
  <path
     fill="#ffffff"
     d="m 12.163471,9.2533835 c 0.01202,0.011398 -0.01063,0.1186032 -0.05011,0.2375672 -0.08661,0.2605861 -0.272017,0.4623501 -0.492858,0.5364253 -0.219775,0.07371 -0.804923,0.07468 -0.953781,0.0013 -0.119168,-0.05833 -0.166669,-0.1800042 -0.166669,-0.4283452 0,-0.244784 0.009,-0.2498791 0.462903,-0.2500436 0.22734,-8.85e-5 0.585783,-0.026188 0.796252,-0.058584 0.210465,-0.032351 0.392229,-0.049989 0.404313,-0.038509 z"
     id="path5"
     style="fill:#3584e4;stroke-width:0.833361" />
</svg>
