<?xml version="1.0" encoding="UTF-8" standalone="no"?>
<!-- Generator: Gravit.io -->

<svg
   style="isolation:isolate"
   viewBox="0 0 16 16"
   width="16pt"
   height="16pt"
   version="1.1"
   id="svg5"
   sodipodi:docname="appimagekit-org.freac.freac.svg"
   inkscape:version="1.4.4 (unknown)"
   xmlns:inkscape="http://www.inkscape.org/namespaces/inkscape"
   xmlns:sodipodi="http://sodipodi.sourceforge.net/DTD/sodipodi-0.dtd"
   xmlns:xlink="http://www.w3.org/1999/xlink"
   xmlns="http://www.w3.org/2000/svg"
   xmlns:svg="http://www.w3.org/2000/svg">
  <defs
     id="defs5">
    <linearGradient
       id="linearGradient5"
       inkscape:collect="always">
      <stop
         style="stop-color:#ffdd55;stop-opacity:1"
         offset="0"
         id="stop6" />
      <stop
         style="stop-color:#bc5fd3;stop-opacity:1"
         offset="1"
         id="stop7" />
    </linearGradient>
    <linearGradient
       inkscape:collect="always"
       xlink:href="#linearGradient5"
       id="linearGradient7"
       x1="2.3967912"
       y1="2.8292816"
       x2="13.006588"
       y2="13.53532"
       gradientUnits="userSpaceOnUse" />
    <linearGradient
       inkscape:collect="always"
       xlink:href="#linearGradient5"
       id="linearGradient9"
       x1="5.9297247"
       y1="6.0416131"
       x2="12.152035"
       y2="6.0416131"
       gradientUnits="userSpaceOnUse" />
  </defs>
  <sodipodi:namedview
     id="namedview5"
     pagecolor="#ffffff"
     bordercolor="#000000"
     borderopacity="0.25"
     inkscape:showpageshadow="2"
     inkscape:pageopacity="0.0"
     inkscape:pagecheckerboard="0"
     inkscape:deskcolor="#d1d1d1"
     inkscape:document-units="pt"
     inkscape:zoom="22.627417"
     inkscape:cx="11.402097"
     inkscape:cy="10.142563"
     inkscape:window-width="1920"
     inkscape:window-height="994"
     inkscape:window-x="0"
     inkscape:window-y="0"
     inkscape:window-maximized="1"
     inkscape:current-layer="svg5" />
  <linearGradient
     id="_lgradient_21"
     x1="0.026595393"
     y1="0.98805499"
     x2="0.92217284"
     y2="0.18102705"
     gradientTransform="matrix(6.222305,0,0,7.9999983,5.9297244,2.0416128)"
     gradientUnits="userSpaceOnUse">
    <stop
       offset="1.3043478260869565%"
       stop-opacity="1"
       style="stop-color:rgb(223,87,255)"
       id="stop1" />
    <stop
       offset="52.083333333333336%"
       stop-opacity="1"
       style="stop-color:rgb(36,30,252)"
       id="stop2" />
    <stop
       offset="97.91666666666666%"
       stop-opacity="1"
       style="stop-color:rgb(14,175,254)"
       id="stop3" />
  </linearGradient>
  <path
     d="m 10.0781,2.0416129 c -0.5927357,0 -1.1852151,0 -1.1852151,0.5924814 V 6.096634 C 8.6151133,5.9638184 8.3115322,5.8945034 8.0039101,5.8934917 c -1.1454978,0 -2.0741853,0.9286906 -2.0741853,2.0741858 0,1.1452447 0.9286875,2.0739355 2.0741853,2.0739355 1.1454972,0 2.0741899,-0.9286908 2.0741899,-2.0739355 -4.96e-4,-0.021224 -0.0013,-0.042505 -0.0024,-0.063746 4.88e-4,-0.00884 0.002,-0.017195 0.0024,-0.026067 0.0071,-1.1158998 0,-2.2462169 0,-3.3669183 0,-1.5803662 1.777696,0.4935663 2.073935,0.7898071 0,-0.7900614 0,-3.259149 -2.073935,-3.2591404 z"
     id="path3"
     style="fill:url(#linearGradient9)" />
  <linearGradient
     id="_lgradient_22"
     x1="0"
     y1="0.5"
     x2="1"
     y2="0.5"
     gradientTransform="matrix(12.996205,0,0,12.999996,1.5018592,1.5000041)"
     gradientUnits="userSpaceOnUse">
    <stop
       offset="0%"
       stop-opacity="1"
       style="stop-color:rgb(136,42,233)"
       id="stop4" />
    <stop
       offset="100%"
       stop-opacity="1"
       style="stop-color:rgb(52,236,235)"
       id="stop5" />
  </linearGradient>
  <path
     d="m 7.4040317,1.5037946 c -0.3936767,0 -0.7275167,0.2823967 -0.7927685,0.6706584 L 6.4536842,3.0974542 C 6.1496271,3.192489 5.8536927,3.3175775 5.5715668,3.4694706 L 4.8248265,2.9320234 C 4.6891786,2.8342811 4.5261845,2.782567 4.3580461,2.782567 c -0.2147082,0 -0.4183154,0.084205 -0.567501,0.2363685 L 2.9788238,3.8279493 C 2.7018422,4.1046602 2.6639366,4.5419283 2.8919117,4.8622306 L 3.434774,5.6252162 C 3.2855884,5.9103204 3.1661857,6.2059841 3.0738585,6.5130195 L 2.1725176,6.6649126 C 1.7842559,6.7301644 1.5018592,7.0640044 1.5018592,7.4576811 V 8.600535 c 0,0.3936767 0.2823967,0.7277875 0.6706584,0.7927685 l 0.9230013,0.157579 c 0.095035,0.304057 0.2198525,0.5999915 0.3720164,0.8823885 l -0.5350105,0.743762 c -0.2279751,0.320302 -0.192777,0.75757 0.086912,1.034552 l 0.8090138,0.809014 c 0.1521639,0.151893 0.3530636,0.236097 0.567501,0.236097 0.1684091,0 0.3284249,-0.05171 0.4643436,-0.149456 l 0.7627148,-0.542862 c 0.2742741,0.144041 0.5620859,0.260736 0.8580203,0.353063 l 0.1518931,0.912171 C 6.6981755,14.217874 7.0320153,14.5 7.4256921,14.5 h 1.1458321 c 0.3934059,0 0.7275167,-0.282126 0.7924977,-0.670388 L 9.5188934,12.917441 C 9.825658,12.822411 10.121592,12.700025 10.403989,12.55084 l 0.751885,0.537447 c 0.135918,0.09774 0.298642,0.149456 0.467051,0.149456 v 0 c 0.214437,0 0.415337,-0.0842 0.567501,-0.236368 l 0.809013,-0.809014 c 0.276982,-0.276711 0.314888,-0.713979 0.08691,-1.034281 L 12.548634,10.403217 C 12.69809,10.118383 12.822908,9.822449 12.915235,9.518392 L 13.827406,9.366228 C 14.215668,9.300976 14.498064,8.9671362 14.498064,8.5734595 V 7.4306057 C 14.503479,7.036929 14.221083,6.7028182 13.832821,6.6378372 v 0 L 12.92065,6.4829657 C 12.88085,6.3543575 12.83617,6.2273737 12.83617,6.2273737 12.81045,6.1577897 12.668302,6.1012022 12.518846,6.1012022 h -0.259383 c -0.149456,0 -0.217957,0.109114 -0.152976,0.2436789 0.0057,0.011642 0.102345,0.2788769 0.173553,0.5534217 0.0352,0.1413337 0.151893,0.2471987 0.293227,0.268859 l 1.140146,0.192777 c 0.0352,0.00542 0.05957,0.035198 0.05957,0.070667 v 1.1428538 h -0.0027 c 0,0.035198 -0.02437,0.065252 -0.05957,0.070667 l -1.140417,0.1900695 c -0.143771,0.024368 -0.257758,0.1302328 -0.292956,0.2685882 -0.103158,0.3990918 -0.260737,0.7819384 -0.472466,1.1377097 -0.07338,0.124818 -0.06796,0.279689 0.01624,0.399092 l 0.670658,0.944661 c 0.01895,0.02735 0.01625,0.06796 -0.0081,0.09233 l -0.809014,0.809014 c -0.01922,0.01895 -0.03818,0.02166 -0.05171,0.02166 -0.01625,0 -0.02978,-0.0054 -0.04061,-0.01354 l -0.942251,-0.670388 c -0.116695,-0.0842 -0.274274,-0.08962 -0.399092,-0.01652 -0.3555003,0.212001 -0.7383469,0.369309 -1.1374387,0.472466 -0.1413337,0.03547 -0.2471986,0.152164 -0.268859,0.293227 l -0.192777,1.140417 c -0.00542,0.0352 -0.035198,0.05957 -0.070396,0.05957 H 7.4283996 c -0.035198,0 -0.064981,-0.02437 -0.070667,-0.05957 L 7.167934,12.5725 C 7.143295,12.42873 7.0374304,12.314742 6.899075,12.279273 c -0.3882617,-0.10045 -0.7629856,-0.25505 -1.1130709,-0.45595 -0.057129,-0.03276 -0.1221101,-0.04901 -0.1846544,-0.04901 -0.073374,0 -0.1494563,0.02166 -0.2117298,0.06796 l -0.9503475,0.676073 c -0.013538,0.0081 -0.027076,0.01354 -0.040613,0.01354 -0.01083,0 -0.03249,-0.0027 -0.051714,-0.02166 l -0.809014,-0.809284 c -0.024368,-0.02437 -0.027076,-0.06227 -0.00812,-0.09206 l 0.6679481,-0.936806 c 0.084205,-0.119403 0.08962,-0.276982 0.016245,-0.401799 C 4.002275,9.9174838 3.8392809,9.5346372 3.7361235,9.1355454 3.6982179,8.9969192 3.5842304,8.8910543 3.4428966,8.8666864 L 2.2946277,8.6712018 C 2.2594297,8.6657867 2.234791,8.6360038 2.234791,8.600535 V 7.4576811 c 0,-0.035198 0.024639,-0.065252 0.059837,-0.070667 L 3.4266514,7.1969448 C 3.5706926,7.1725769 3.6873877,7.066712 3.7225858,6.925649 3.8230356,6.5265572 3.9779071,6.1410031 4.1869294,5.785232 4.2603038,5.6604142 4.2519104,5.5055428 4.1679766,5.3888477 L 3.4919031,4.4387709 c -0.018953,-0.027075 -0.016245,-0.067959 0.00812,-0.092327 l 0.8090165,-0.809014 c 0.018953,-0.018953 0.037906,-0.02166 0.051714,-0.02166 0.016245,0 0.029783,0.00542 0.040613,0.013538 L 5.3379056,4.196988 C 5.4573085,4.2811919 5.6148874,4.286607 5.7397052,4.2135034 6.0927687,4.0015028 6.4756153,3.8387795 6.8747071,3.7356221 7.0130625,3.6974457 7.1189275,3.5834582 7.1432953,3.4423952 L 7.3387799,2.2938556 c 0.00542,-0.035198 0.035469,-0.059566 0.070667,-0.059566 H 7.999962 c 0.1494563,0 0.2707543,-0.1212979 0.2707543,-0.2707543 V 1.7691338 C 8.2707162,1.6196774 8.1494182,1.4991918 7.9999619,1.500004 Z m 3.3603313,5.3853026 v 0 c -0.08366,-0.2076686 0.0176,-0.4443078 0.22608,-0.5279709 v 0 c 0.208481,-0.083663 0.445661,0.017057 0.529324,0.2247261 v 0 c 0.178698,0.4494521 0.270755,0.9286871 0.270755,1.4106298 0,1.0044983 -0.400717,1.9710911 -1.110093,2.6804678 -0.7120835,0.709376 -1.6759687,1.110092 -2.6804671,1.110092 v 0 c -1.0044984,0 -1.9683836,-0.400716 -2.6804674,-1.110092 C 4.6101183,9.9675733 4.209402,9.0009805 4.209402,7.9964822 c 0,-0.9828381 0.3817635,-1.925063 1.0640643,-2.6317316 0.6795932,-0.7066687 1.610988,-1.1209227 2.5911184,-1.1561208 v 0 c 0.2241846,-0.00758 0.4129003,0.1678677 0.4210229,0.3912399 v 0 c 0.00812,0.2233723 -0.1670553,0.412088 -0.3912399,0.4210229 v 0 C 7.122718,5.0479681 6.3916815,5.3728732 5.855588,5.9279195 5.3222021,6.4829657 5.0216648,7.2248325 5.0216648,7.9964822 c 0,0 0,0 0,0 v 0 c 0,0.7906024 0.314075,1.5487144 0.8718288,2.1064678 0.5577538,0.557754 1.3158658,0.871829 2.1064683,0.871829 v 0 c 0.7906025,0 1.5487145,-0.314075 2.1064681,-0.871829 0.557754,-0.5577534 0.871829,-1.3158654 0.871829,-2.1064678 0,-0.379056 -0.0731,-0.7554045 -0.213896,-1.107385 z m -6.554961,1.107385 z m 0,0 z m 0,0 z"
     fill-rule="evenodd"
     id="path5"
     style="fill:url(#linearGradient7)" />
</svg>
