<?xml version="1.0" encoding="UTF-8" standalone="no"?>
<!-- Generator: Gravit.io -->

<svg
   style="isolation:isolate"
   viewBox="0 0 16 16"
   width="16pt"
   height="16pt"
   version="1.1"
   id="svg2"
   sodipodi:docname="freetube.svg"
   inkscape:version="1.4.4 (unknown)"
   xmlns:inkscape="http://www.inkscape.org/namespaces/inkscape"
   xmlns:sodipodi="http://sodipodi.sourceforge.net/DTD/sodipodi-0.dtd"
   xmlns:xlink="http://www.w3.org/1999/xlink"
   xmlns="http://www.w3.org/2000/svg"
   xmlns:svg="http://www.w3.org/2000/svg">
  <defs
     id="defs2">
    <linearGradient
       inkscape:collect="always"
       xlink:href="#linearGradient11"
       id="linearGradient4"
       x1="0"
       y1="5.9693751"
       x2="16"
       y2="5"
       gradientUnits="userSpaceOnUse"
       gradientTransform="matrix(0.8125001,0,0,0.79999997,1.5,1.6)" />
    <linearGradient
       inkscape:collect="always"
       xlink:href="#linearGradient11"
       id="linearGradient12"
       x1="10.770662"
       y1="28.721764"
       x2="47.570412"
       y2="28.721764"
       gradientUnits="userSpaceOnUse"
       gradientTransform="matrix(0.1680386,0,0,0.16787275,3.0982256,3.178399)" />
    <linearGradient
       id="linearGradient11"
       inkscape:collect="always">
      <stop
         style="stop-color:#c83771;stop-opacity:1;"
         offset="0"
         id="stop11" />
      <stop
         style="stop-color:#aa87de;stop-opacity:1"
         offset="1"
         id="stop12" />
    </linearGradient>
    <linearGradient
       inkscape:collect="always"
       xlink:href="#linearGradient10"
       id="linearGradient14"
       x1="28.30978"
       y1="37.704487"
       x2="31.544563"
       y2="26.775864"
       gradientUnits="userSpaceOnUse"
       gradientTransform="matrix(0.1680386,0,0,0.16787275,3.0982256,3.178399)" />
    <linearGradient
       id="linearGradient10"
       inkscape:collect="always">
      <stop
         style="stop-color:#0066ff;stop-opacity:1"
         offset="0"
         id="stop9" />
      <stop
         style="stop-color:#80b3ff;stop-opacity:1"
         offset="1"
         id="stop10" />
    </linearGradient>
  </defs>
  <sodipodi:namedview
     id="namedview2"
     pagecolor="#ffffff"
     bordercolor="#000000"
     borderopacity="0.25"
     inkscape:showpageshadow="2"
     inkscape:pageopacity="0.0"
     inkscape:pagecheckerboard="0"
     inkscape:deskcolor="#d1d1d1"
     inkscape:document-units="pt"
     inkscape:zoom="22.512992"
     inkscape:cx="9.4612036"
     inkscape:cy="14.547156"
     inkscape:window-width="1920"
     inkscape:window-height="994"
     inkscape:window-x="0"
     inkscape:window-y="0"
     inkscape:window-maximized="1"
     inkscape:current-layer="svg2"
     showgrid="false">
    <inkscape:grid
       id="grid1"
       units="pt"
       originx="0"
       originy="0"
       spacingx="0.99999997"
       spacingy="0.99999997"
       empcolor="#0099e5"
       empopacity="0.30196078"
       color="#0099e5"
       opacity="0.14901961"
       empspacing="5"
       enabled="true"
       visible="false" />
  </sodipodi:namedview>
  <linearGradient
     id="_lgradient_3"
     x1="0"
     y1="0.5"
     x2="1"
     y2="0.5"
     gradientTransform="matrix(16,0,0,15,0,0.5)"
     gradientUnits="userSpaceOnUse">
    <stop
       offset="0%"
       stop-opacity="1"
       style="stop-color:rgb(67,233,123)"
       id="stop1" />
    <stop
       offset="97.82608695652173%"
       stop-opacity="1"
       style="stop-color:rgb(56,249,215)"
       id="stop2" />
  </linearGradient>
  <path
     d="M 7.9999998,2.9999999 8,3.1010965 v 0 0 0 0 c 0,0 -2e-7,-0.1010966 0,0 l -2e-7,-0.1010966 L 8,3.1010965 7.9999998,2.9999999 8,3.1010965 7.9999998,2.9999999 8,3.1010965 7.9999998,2.9999999 8,3.1010965 v 0 z m 0,0 L 8,3.1010965 Z M 13.318183,8.6 v 0 c 0,-0.3312 0.264724,-0.6 0.590915,-0.6 V 8 C 14.235271,8 14.5,8.2688 14.5,8.6 v 0 2.049 c 0,0.3312 -0.187317,0.7902 -0.417775,1.0242 l -1.873764,1.9026 C 11.978005,13.8098 11.52596,14 11.199771,14 H 2.9772735 C 2.1618184,14 1.5,13.328 1.5,12.5 v -2.1 0 c 0,-0.3312 0.2647272,-0.6 0.5909091,-0.6 v 0 c 0.3261822,0 0.5909092,0.2688 0.5909092,0.6 v 0 1.5 c 0,0.4968 0.3970911,0.9 0.8863639,0.9 h 7.4365888 c 0.163097,0 0.389113,-0.09511 0.504348,-0.2121 l 1.600176,-1.6248 c 0.115236,-0.117 0.208888,-0.3465 0.208888,-0.5121 z M 7.9999998,2.9999999 v 0 0 0 L 8,3.1010965 v 0 z M 2.6818183,7.4 v 0 c 0,0.3312 -0.264727,0.6 -0.5909092,0.6 V 8 C 1.7647272,8 1.5,7.7312 1.5,7.4 v 0 -2.049 C 1.5,5.0198 1.6873183,4.5608 1.917773,4.3268 L 3.7915463,2.4242 C 4.0220009,2.1902 4.4740465,2 4.8002276,2 H 13.022734 C 13.838189,2 14.5,2.672 14.5,3.5 v 2.1 0 c 0,0.3312 -0.264729,0.6 -0.590902,0.6 v 0 c -0.326191,0 -0.590915,-0.2688 -0.590915,-0.6 v 0 -1.5 c 0,-0.4968 -0.39709,-0.9 -0.886363,-0.9 H 4.9952276 C 4.8321373,3.2 4.6061138,3.2951 4.4908873,3.4121 L 2.8907052,5.0369 C 2.7754771,5.1539 2.6818183,5.3834 2.6818183,5.549 Z"
     fill-rule="evenodd"
     id="path2"
     style="fill:url(#linearGradient4);fill-opacity:1;stroke-width:0.806223"
     sodipodi:nodetypes="cccccscccccccccccccccccsssscsccssscsssscsssccccccsccsccscsssscsssssscsssscsss" />
  <path
     d="m 5.3228754,4.9865 c -0.2298546,0 -0.4147648,0.192118 -0.4147648,0.430486 v 4.520235 c 0,0.645793 0.8295324,1.076279 1.2442969,1.076279 H 6.5671711 V 5.416986 C 6.5671711,5.178458 6.382265,4.9865 6.1524075,4.9865 Z m 2.1254113,0 c -0.2375486,0 -0.428641,0.184728 -0.428641,0.414355 v 0.828713 c 0,0.22963 0.1910924,0.414355 0.428641,0.414355 h 2.5719993 c 0.642962,0 1.071603,-0.82871 1.071603,-1.243068 V 4.9865 Z"
     id="path10"
     style="fill:url(#linearGradient12);stroke-width:0.167958" />
  <path
     d="M 7.2188849,7.09595 A 0.19471371,0.17192016 0 0 0 7.0196457,7.268164 V 9.485653 A 0.19471371,0.17192016 0 0 0 7.3116409,9.634379 L 9.4863693,8.525411 a 0.19471371,0.17192016 0 0 0 0,-0.297592 L 7.3114875,7.118853 a 0.19471371,0.17192016 0 0 0 -0.092599,-0.02304 z"
     id="path11"
     style="fill:url(#linearGradient14);stroke-width:0.167958" />
</svg>
