<?xml version="1.0" encoding="UTF-8" standalone="no"?>
<svg
   width="16"
   height="16"
   version="1.1"
   id="svg6"
   sodipodi:docname="fritzing.svg"
   inkscape:version="1.4.4 (unknown)"
   xmlns:inkscape="http://www.inkscape.org/namespaces/inkscape"
   xmlns:sodipodi="http://sodipodi.sourceforge.net/DTD/sodipodi-0.dtd"
   xmlns:xlink="http://www.w3.org/1999/xlink"
   xmlns="http://www.w3.org/2000/svg"
   xmlns:svg="http://www.w3.org/2000/svg">
  <defs
     id="defs6">
    <linearGradient
       id="linearGradient1"
       inkscape:collect="always">
      <stop
         style="stop-color:#00ccff;stop-opacity:1"
         offset="0"
         id="stop1" />
      <stop
         style="stop-color:#8d5fd3;stop-opacity:1"
         offset="1"
         id="stop2" />
    </linearGradient>
    <filter
       id="f"
       width="1.1201701"
       height="1.1201701"
       x="-0.060085025"
       y="-0.060085025"
       color-interpolation-filters="sRGB">
      <feGaussianBlur
         stdDeviation=".212"
         id="feGaussianBlur9" />
    </filter>
    <linearGradient
       xlink:href="#b"
       id="g"
       x1="4.9330001"
       x2="7.0489998"
       y1="10.655"
       y2="10.655"
       gradientUnits="userSpaceOnUse" />
    <linearGradient
       id="b">
      <stop
         offset="0"
         stop-color="#548fed"
         id="stop3" />
      <stop
         offset="1"
         stop-color="#5ebae3"
         id="stop4" />
    </linearGradient>
    <linearGradient
       xlink:href="#b"
       id="h"
       x1="9.1660004"
       x2="11.283"
       y1="10.655"
       y2="10.655"
       gradientUnits="userSpaceOnUse" />
    <linearGradient
       xlink:href="#a"
       id="i"
       x1="11.283"
       x2="13.399"
       y1="10.655"
       y2="10.655"
       gradientUnits="userSpaceOnUse" />
    <linearGradient
       id="a">
      <stop
         offset="0"
         stop-color="#8ae234"
         id="stop5" />
      <stop
         offset="1"
         stop-color="#47e767"
         id="stop6" />
    </linearGradient>
    <linearGradient
       xlink:href="#b"
       id="j"
       x1="7.0489998"
       x2="9.1660004"
       y1="8.5380001"
       y2="8.5380001"
       gradientUnits="userSpaceOnUse" />
    <linearGradient
       xlink:href="#c"
       id="k"
       x1="11.283"
       x2="13.399"
       y1="8.5380001"
       y2="8.5380001"
       gradientUnits="userSpaceOnUse" />
    <linearGradient
       id="c">
      <stop
         offset="0"
         stop-color="#ec4520"
         id="stop9" />
      <stop
         offset="1"
         stop-color="#f58517"
         id="stop10" />
    </linearGradient>
    <linearGradient
       xlink:href="#a"
       id="l"
       x1="7.0489998"
       x2="9.1660004"
       y1="6.4219999"
       y2="6.4219999"
       gradientUnits="userSpaceOnUse" />
    <linearGradient
       xlink:href="#b"
       id="m"
       x1="9.1660004"
       x2="11.283"
       y1="6.4219999"
       y2="6.4219999"
       gradientUnits="userSpaceOnUse" />
    <linearGradient
       xlink:href="#a"
       id="n"
       x1="4.9330001"
       x2="7.0489998"
       y1="4.3049998"
       y2="4.3049998"
       gradientUnits="userSpaceOnUse" />
    <linearGradient
       xlink:href="#c"
       id="o"
       x1="7.0489998"
       x2="9.1660004"
       y1="4.3049998"
       y2="4.3049998"
       gradientUnits="userSpaceOnUse" />
    <linearGradient
       xlink:href="#b"
       id="p"
       x1="11.283"
       x2="13.399"
       y1="4.3049998"
       y2="4.3049998"
       gradientUnits="userSpaceOnUse" />
    <linearGradient
       inkscape:collect="always"
       xlink:href="#linearGradient1"
       id="linearGradient2"
       x1="5.397679"
       y1="8.6098562"
       x2="11.897657"
       y2="8.6098562"
       gradientUnits="userSpaceOnUse"
       gradientTransform="translate(-0.64766779,-0.60985619)" />
  </defs>
  <sodipodi:namedview
     id="namedview6"
     pagecolor="#ffffff"
     bordercolor="#000000"
     borderopacity="0.25"
     inkscape:showpageshadow="2"
     inkscape:pageopacity="0.0"
     inkscape:pagecheckerboard="0"
     inkscape:deskcolor="#d1d1d1"
     inkscape:zoom="34.250485"
     inkscape:cx="7.7079201"
     inkscape:cy="9.9122685"
     inkscape:window-width="1920"
     inkscape:window-height="994"
     inkscape:window-x="0"
     inkscape:window-y="0"
     inkscape:window-maximized="1"
     inkscape:current-layer="svg6" />
  <path
     d="m 10.21857,1.5017843 c -0.2773278,-0.0069 -0.6523298,0.0037 -1.0408788,0.07616 -0.388549,0.07248 -0.810823,0.201957 -1.18052,0.50276 -0.369685,0.300827 -0.644839,0.812455 -0.644839,1.391496 v 1.944999 h -1.944648 a 0.64868279,0.64879982 0 1 0 0,1.297526 h 1.944648 v 1.350837 a 3.2496775,3.2502638 0 0 0 -2.602321,3.1841787 3.2496775,3.2502638 0 0 0 3.249678,3.250262 3.2496775,3.2502638 0 0 0 3.2496768,-3.250262 3.2496775,3.2502638 0 0 0 -2.5996188,-3.1790197 v -1.355873 h 1.9446478 a 0.64868279,0.64879982 0 1 0 0,-1.297526 H 8.6497472 v -1.944999 c 0,-0.234189 0.04848,-0.288593 0.165014,-0.383423 0.11655,-0.09484 0.341916,-0.187707 0.601682,-0.236154 0.51953,-0.0969 1.0967468,-0.03292 1.0967468,-0.03292 a 0.64868279,0.64879982 0 1 0 0.162472,-1.28733 c 0,0 -0.179666,-0.02359 -0.456994,-0.03047 z m -2.3558318,7.802967 a 1.9498065,1.9501582 0 0 1 0.01779,0 0.64868279,0.64879982 0 0 0 0.0026,0 0.64868279,0.64879982 0 0 0 0.2234,0 1.9498065,1.9501582 0 0 1 1.843081,1.9449987 1.9498065,1.9501582 0 0 1 -1.949684,1.950035 1.9498065,1.9501582 0 0 1 -1.949806,-1.950035 1.9498065,1.9501582 0 0 1 1.812622,-1.9449987 z"
     fill="#ffffff"
     stroke-width="0.324974"
     id="path2-3"
     style="fill:url(#linearGradient2)" />
</svg>
