<?xml version="1.0" encoding="UTF-8" standalone="no"?>
<!-- Generator: Gravit.io -->

<svg
   style="isolation:isolate"
   viewBox="0 0 16 16"
   width="16"
   height="16"
   version="1.1"
   id="svg5"
   sodipodi:docname="gajim.svg"
   inkscape:version="1.4.4 (unknown)"
   xmlns:inkscape="http://www.inkscape.org/namespaces/inkscape"
   xmlns:sodipodi="http://sodipodi.sourceforge.net/DTD/sodipodi-0.dtd"
   xmlns:xlink="http://www.w3.org/1999/xlink"
   xmlns="http://www.w3.org/2000/svg"
   xmlns:svg="http://www.w3.org/2000/svg">
  <defs
     id="defs5">
    <linearGradient
       id="linearGradient5"
       inkscape:collect="always">
      <stop
         style="stop-color:#ffb380;stop-opacity:1"
         offset="0"
         id="stop6" />
      <stop
         style="stop-color:#8d5fd3;stop-opacity:1"
         offset="1"
         id="stop7" />
    </linearGradient>
    <linearGradient
       inkscape:collect="always"
       xlink:href="#linearGradient5"
       id="linearGradient7"
       x1="4.0961288"
       y1="3.4042553"
       x2="9.9046395"
       y2="3.4042553"
       gradientUnits="userSpaceOnUse" />
    <linearGradient
       inkscape:collect="always"
       xlink:href="#linearGradient5"
       id="linearGradient9"
       x1="0.50053102"
       y1="9.2860641"
       x2="13.499476"
       y2="9.2860641"
       gradientUnits="userSpaceOnUse" />
  </defs>
  <sodipodi:namedview
     id="namedview5"
     pagecolor="#ffffff"
     bordercolor="#000000"
     borderopacity="0.25"
     inkscape:showpageshadow="2"
     inkscape:pageopacity="0.0"
     inkscape:pagecheckerboard="0"
     inkscape:deskcolor="#d1d1d1"
     inkscape:document-units="px"
     inkscape:zoom="23.65625"
     inkscape:cx="6.6367239"
     inkscape:cy="6.1083223"
     inkscape:window-width="1920"
     inkscape:window-height="994"
     inkscape:window-x="0"
     inkscape:window-y="0"
     inkscape:window-maximized="1"
     inkscape:current-layer="svg5" />
  <linearGradient
     id="_lgradient_2"
     x1="0"
     y1="0.5"
     x2="0.90748805"
     y2="0.92007786"
     gradientTransform="matrix(5.8085105,0,0,5.8085105,4.0961288,0.5)"
     gradientUnits="userSpaceOnUse">
    <stop
       offset="0%"
       stop-opacity="1"
       style="stop-color:rgb(247,241,7)"
       id="stop1" />
    <stop
       offset="83.88839793817618%"
       stop-opacity="1"
       style="stop-color:rgb(255,187,36)"
       id="stop2" />
  </linearGradient>
  <linearGradient
     id="_lgradient_3"
     x1="0.51100087"
     y1="1.0271784"
     x2="0.49078879"
     y2="0.12467389"
     gradientTransform="matrix(12.998893,0,0,8.4278722,0.50066074,5.0721276)"
     gradientUnits="userSpaceOnUse">
    <stop
       offset="0%"
       stop-opacity="1"
       style="stop-color:rgb(126,235,218)"
       id="stop3" />
    <stop
       offset="49.56869043334445%"
       stop-opacity="1"
       style="stop-color:rgb(115,255,68)"
       id="stop4" />
    <stop
       offset="98.69565217391305%"
       stop-opacity="1"
       style="stop-color:rgb(255,205,62)"
       id="stop5" />
  </linearGradient>
  <g
     id="g5"
     transform="matrix(1.0076971,0,0,1,0.94611656,1)">
    <path
       d="m 4.0961288,3.4042553 c 0,-0.7689362 0.3070213,-1.5102127 0.8519149,-2.0523404 C 5.4901714,0.80702128 6.231448,0.5 7.0003841,0.5 c 0.7689362,0 1.5102128,0.30702128 2.0523405,0.8519149 0.5448936,0.5421277 0.8519149,1.2834042 0.8519149,2.0523404 0,0.7689362 -0.3070213,1.5102128 -0.8519149,2.0523404 C 8.5105969,6.0014894 7.7693203,6.3085106 7.0003841,6.3085106 6.231448,6.3085106 5.4901714,6.0014894 4.9480437,5.4565957 4.4031501,4.9144681 4.0961288,4.1731915 4.0961288,3.4042553 Z m 0.8297873,0 c 0,-0.5504255 0.2185106,-1.0787234 0.6085106,-1.4659574 0.387234,-0.39 0.9155319,-0.6085107 1.4659574,-0.6085107 0.5504256,0 1.0787234,0.2185107 1.4659575,0.6085107 0.39,0.387234 0.6085106,0.9155319 0.6085106,1.4659574 0,0.5504256 -0.2185106,1.0787234 -0.6085106,1.4659575 -0.3872341,0.39 -0.9155319,0.6085106 -1.4659575,0.6085106 -0.5504255,0 -1.0787234,-0.2185106 -1.4659574,-0.6085106 -0.39,-0.3872341 -0.6085106,-0.9155319 -0.6085106,-1.4659575 z"
       fill-rule="evenodd"
       id="path2"
       style="fill:url(#linearGradient7)" />
    <path
       d="m 8.4054905,6.5934043 0.7855319,0.26 -0.4724255,1.4194893 C 8.622065,8.562766 8.2959586,8.7978723 7.9905969,8.7978723 H 6.0101714 c -0.3053617,0 -0.6314681,-0.2351063 -0.728,-0.5249787 l -0.4724256,-1.4194893 0.785532,-0.26 0.4591489,1.3746808 H 7.9463416 Z M 10.156342,5.9987234 9.7746395,5.8355319 10.101022,5.0721277 10.482725,5.2353191 c 0.423191,0.1797873 0.827021,0.4038298 1.205957,0.6638298 0.340213,0.2378724 0.65,0.5172341 0.918298,0.8353192 0.254468,0.3042553 0.459149,0.6444681 0.611276,1.0095745 0.149362,0.3678723 0.243405,0.7578723 0.279362,1.1534042 0.01106,0.1161702 -0.02766,0.2323404 -0.105106,0.3180851 -0.08021,0.085745 -0.190851,0.1355319 -0.307021,0.1355319 h -1.797873 v 3.1808512 c 0,0.257234 -0.10234,0.503404 -0.284893,0.683191 C 10.822937,13.39766 10.576767,13.5 10.319533,13.5 H 3.6812352 C 3.4240012,13.5 3.177831,13.39766 2.9980437,13.215106 2.8154905,13.035319 2.7131501,12.789149 2.7131501,12.531915 V 9.3510638 H 0.91527776 c -0.12170213,0 -0.23787234,-0.052553 -0.31531915,-0.1465957 C 0.51974585,9.1104255 0.48655436,8.9887234 0.50591606,8.8670213 0.58336287,8.4023404 0.71889478,7.9459574 0.90974585,7.5144681 1.0867671,7.1189362 1.3218735,6.7538298 1.615065,6.4302128 1.9027246,6.1176596 2.2401714,5.8548936 2.6163416,5.6557447 3.0118735,5.4455319 3.437831,5.2961702 3.8776182,5.2104255 L 4.2842139,5.1302128 4.4446395,5.9434043 4.0380437,6.023617 C 3.6784693,6.0955319 3.3299586,6.217234 3.0035756,6.3887234 2.7131501,6.543617 2.4503841,6.7482979 2.2263416,6.9917021 1.9967671,7.2461702 1.808682,7.5365957 1.6676182,7.8491489 1.5735756,8.0676596 1.4933629,8.2917021 1.4297458,8.5212766 h 2.1131915 v 4.0106384 c 0,0.03596 0.01383,0.07192 0.041489,0.09681 0.024894,0.02766 0.060851,0.04149 0.096809,0.04149 h 6.6382977 c 0.03596,0 0.07192,-0.01383 0.09681,-0.04149 0.02766,-0.02489 0.04149,-0.06085 0.04149,-0.09681 V 8.5212766 h 2.140851 C 12.559959,8.363617 12.510171,8.2087234 12.44932,8.0565957 12.330384,7.7717021 12.169959,7.5061702 11.973576,7.2682979 c -0.221277,-0.26 -0.475745,-0.4923405 -0.757873,-0.6859575 z"
       fill-rule="evenodd"
       id="path5"
       style="fill:url(#linearGradient9)" />
  </g>
</svg>
