<?xml version="1.0" encoding="UTF-8" standalone="no"?>
<!-- Generator: Gravit.io -->

<svg
   style="isolation:isolate"
   viewBox="0 0 12 12"
   width="16"
   height="16"
   version="1.1"
   id="svg3"
   sodipodi:docname="GammaRay.svg"
   inkscape:version="1.4.4 (unknown)"
   xmlns:inkscape="http://www.inkscape.org/namespaces/inkscape"
   xmlns:sodipodi="http://sodipodi.sourceforge.net/DTD/sodipodi-0.dtd"
   xmlns="http://www.w3.org/2000/svg"
   xmlns:svg="http://www.w3.org/2000/svg">
  <defs
     id="defs3" />
  <sodipodi:namedview
     id="namedview3"
     pagecolor="#ffffff"
     bordercolor="#000000"
     borderopacity="0.25"
     inkscape:showpageshadow="2"
     inkscape:pageopacity="0.0"
     inkscape:pagecheckerboard="0"
     inkscape:deskcolor="#d1d1d1"
     inkscape:document-units="px"
     inkscape:zoom="33.45499"
     inkscape:cx="8.3395632"
     inkscape:cy="9.7593813"
     inkscape:window-width="1920"
     inkscape:window-height="994"
     inkscape:window-x="0"
     inkscape:window-y="0"
     inkscape:window-maximized="1"
     inkscape:current-layer="svg3" />
  <linearGradient
     id="_lgradient_1"
     x1="0.058294971"
     y1="0.97321433"
     x2="0.91853303"
     y2="0.028207999"
     gradientTransform="matrix(35.993,0,0,47,6.003,0.5)"
     gradientUnits="userSpaceOnUse">
    <stop
       offset="0%"
       stop-opacity="1"
       style="stop-color:rgb(84,51,255)"
       id="stop1" />
    <stop
       offset="51.73913043478261%"
       stop-opacity="1"
       style="stop-color:rgb(32,189,255)"
       id="stop2" />
    <stop
       offset="98.26086956521739%"
       stop-opacity="1"
       style="stop-color:rgb(165,254,203)"
       id="stop3" />
  </linearGradient>
  <g
     id="g3"
     transform="translate(-2.1433144,-3.1233794)">
    <path
       style="opacity:0.1;stroke-width:0.242537"
       d="M 11.783779,4.491089 11.015428,4.7431 10.261289,4.621358 10.016383,5.070905 c 0,0 -0.3273,0.742902 -0.486022,1.096628 C 9.360239,6.499289 9.176037,6.895541 9.01639,7.232423 8.850693,7.582075 8.689521,7.933559 8.529421,8.285945 8.252735,8.894942 7.979738,9.506012 7.696173,10.111606 c -0.391101,0.909448 -0.978268,1.781168 -1.198475,2.754125 -0.09933,0.419843 -0.03936,1.013785 0.475126,1.111787 0.27197,0.05948 0.651604,-0.009 0.861197,-0.19564 0.348814,-0.401347 0.294817,-0.924664 0.333963,-1.430117 -0.0011,-0.159385 -0.0058,-0.373142 -0.01184,-0.596396 -0.01481,-0.549819 -0.0379,-1.15821 -0.0379,-1.15821 L 7.745439,11.35461 c -0.03879,0.270041 -0.04525,0.548726 -0.07342,0.823301 -0.0078,0.07567 -0.01725,0.151105 -0.02937,0.225957 -0.04275,0.280834 -0.246078,1.157363 -0.546183,0.747508 C 6.822356,12.777021 7.21947,12.259061 7.373584,11.847264 7.942316,10.566565 8.70741,9.345578 9.451731,8.158992 9.703469,7.757675 9.879627,7.49332 10.140499,7.098838 L 10.775264,6.116373 Z M 5.999833,6.242378 C 5.807562,6.240978 5.614518,6.273958 5.438018,6.337598 4.794752,6.583752 4.509448,7.266297 4.502923,7.957672 4.501323,8.12331 4.515713,8.289561 4.545083,8.450326 L 4.587243,8.689547 4.861992,8.298266 C 4.876302,7.812645 5.015319,7.33412 5.480651,7.157583 5.937248,6.930032 6.486427,7.188923 6.720339,7.613288 7.163126,8.404941 7.349579,9.260605 7.546008,10.131507 7.678914,9.857078 7.92971,9.345156 7.92971,9.345156 7.779181,8.462784 7.559132,7.562517 7.075618,6.786671 6.842614,6.41461 6.422829,6.245558 5.999833,6.242383 Z"
       id="path2" />
    <path
       style="fill:#356899;stroke-width:0.242537"
       d="m 10.01624,4.828157 c 0,0 -0.32718,0.74307 -0.485902,1.096795 C 9.360216,6.256708 9.176151,6.652942 9.016504,6.989825 8.850806,7.339476 8.689372,7.691226 8.529272,8.043612 8.252586,8.65261 7.979932,9.263566 7.696367,9.86916 c -0.3911,0.909448 -0.978262,1.781144 -1.198469,2.754101 -0.09933,0.419843 -0.03979,1.013747 0.474697,1.111749 0.271969,0.05948 0.651828,-0.0092 0.86142,-0.195852 0.348814,-0.401347 0.294756,-0.92467 0.333902,-1.430123 -0.0011,-0.159385 -0.0057,-0.373049 -0.01173,-0.596303 -0.01481,-0.54982 -0.03809,-1.157982 -0.03809,-1.157982 L 7.74566,11.112321 c -0.03879,0.270042 -0.04567,0.548335 -0.07384,0.82291 -0.0078,0.07567 -0.01715,0.151068 -0.02926,0.225921 C 7.59981,12.441986 7.396528,13.318531 7.096423,12.908675 6.822312,12.53432 7.219621,12.016579 7.373736,11.604782 7.942467,10.324083 8.707545,9.103271 9.451866,7.916686 9.703604,7.515368 9.87956,7.250769 10.140431,6.856288 10.301347,6.574353 10.775348,5.873803 10.775348,5.873803 Z M 6,6.000004 c -0.192271,-0.0014 -0.385259,0.03142 -0.561759,0.09504 -0.643266,0.246154 -0.92868,0.928728 -0.935205,1.620102 -0.0016,0.165638 0.01288,0.331788 0.04224,0.492553 L 4.587036,8.447163 4.86189,8.05558 C 4.87619,7.569959 5.015392,7.091507 5.480724,6.91497 5.937321,6.68742 6.486335,6.94648 6.720247,7.370843 7.163034,8.162497 7.349391,9.017883 7.54582,9.888786 7.678726,9.614356 7.929583,9.102637 7.929583,9.102637 7.779055,8.220265 7.559067,7.320152 7.075554,6.544307 6.842549,6.172245 6.422996,6.003175 6,6 Z"
       id="path3-3" />
    <path
       style="fill:#75b4f4;stroke-width:0.242537"
       d="M 11.783826,4.24838 10.01624,4.828157 10.775342,5.873803 Z"
       id="path4" />
    <path
       style="fill:#7fb9f5;stroke-width:0.242537"
       d="M 10.261425,4.378631 11.017442,4.501229 10.01623,4.828155 Z"
       id="path5" />
    <path
       style="fill:#5fa4e9;stroke-width:0.242537"
       d="m 10.01623,4.828155 0.759122,1.045659 -1.245029,0.05113 z"
       id="path6" />
    <path
       style="fill:#4993dd;stroke-width:0.242537"
       d="m 9.530323,5.924946 1.245029,-0.05113 -0.634918,0.982477 z"
       id="path7" />
    <path
       style="fill:#3c8ce0;stroke-width:0.242537"
       d="M 9.530323,5.924946 10.140434,6.856291 9.016518,6.989827 Z"
       id="path8" />
    <path
       style="fill:#3d81c3;stroke-width:0.242537"
       d="M 9.016518,6.989826 10.140434,6.856291 9.45186,7.916685 Z"
       id="path9" />
    <path
       style="fill:#3b73ac;stroke-width:0.242537"
       d="M 9.016518,6.989826 9.45186,7.916685 8.529274,8.043604 Z"
       id="path10" />
    <path
       style="fill:#407ebc;stroke-width:0.242537"
       d="m 8.118099,10.354752 0.0381,1.157994 -0.41056,-0.400422 z"
       id="path11" />
    <path
       style="fill:#3871ab;stroke-width:0.242537"
       d="m 8.156203,11.512746 -0.41056,-0.400422 -0.07382,0.822907 z"
       id="path12" />
    <path
       style="fill:#547fa9;stroke-width:0.242537"
       d="M 4.545287,8.207702 4.861874,8.055599 4.587036,8.447149 Z"
       id="path13" />
    <path
       style="fill:#3771aa;stroke-width:0.242537"
       d="m 4.503036,7.71515 c -0.0016,0.165638 0.01288,0.331788 0.04224,0.492553 L 4.861888,8.055584 Z"
       id="path14" />
  </g>
</svg>
