<?xml version="1.0" encoding="UTF-8" standalone="no"?>
<!-- Generator: Gravit.io -->

<svg
   style="isolation:isolate"
   viewBox="0 0 16 16"
   width="16"
   height="16"
   version="1.1"
   id="svg8"
   sodipodi:docname="geany.svg"
   inkscape:version="1.4.4 (unknown)"
   xmlns:inkscape="http://www.inkscape.org/namespaces/inkscape"
   xmlns:sodipodi="http://sodipodi.sourceforge.net/DTD/sodipodi-0.dtd"
   xmlns:xlink="http://www.w3.org/1999/xlink"
   xmlns="http://www.w3.org/2000/svg"
   xmlns:svg="http://www.w3.org/2000/svg">
  <defs
     id="defs8">
    <linearGradient
       id="linearGradient8"
       inkscape:collect="always">
      <stop
         style="stop-color:#8d5fd3;stop-opacity:1"
         offset="0"
         id="stop9" />
      <stop
         style="stop-color:#ffb380;stop-opacity:1"
         offset="1"
         id="stop10" />
    </linearGradient>
    <linearGradient
       inkscape:collect="always"
       xlink:href="#linearGradient8"
       id="linearGradient10"
       x1="0.56861536"
       y1="7.5"
       x2="12.947114"
       y2="7.5"
       gradientUnits="userSpaceOnUse" />
    <linearGradient
       inkscape:collect="always"
       xlink:href="#linearGradient8"
       id="linearGradient12"
       x1="0.0078289695"
       y1="7.5011282"
       x2="13.507843"
       y2="7.5011282"
       gradientUnits="userSpaceOnUse" />
    <linearGradient
       inkscape:collect="always"
       xlink:href="#linearGradient8"
       id="linearGradient14"
       x1="0.0078289695"
       y1="7.5011282"
       x2="13.507843"
       y2="7.5011282"
       gradientUnits="userSpaceOnUse" />
  </defs>
  <sodipodi:namedview
     id="namedview8"
     pagecolor="#ffffff"
     bordercolor="#000000"
     borderopacity="0.25"
     inkscape:showpageshadow="2"
     inkscape:pageopacity="0.0"
     inkscape:pagecheckerboard="0"
     inkscape:deskcolor="#d1d1d1"
     inkscape:document-units="px"
     inkscape:zoom="16.727495"
     inkscape:cx="6.6955633"
     inkscape:cy="14.138399"
     inkscape:window-width="1920"
     inkscape:window-height="994"
     inkscape:window-x="0"
     inkscape:window-y="0"
     inkscape:window-maximized="1"
     inkscape:current-layer="svg8" />
  <linearGradient
     id="_lgradient_15"
     x1="0"
     y1="0.5"
     x2="1"
     y2="0.5"
     gradientTransform="matrix(13.21883,0,0,8.704348,0.14859041,3.1478261)"
     gradientUnits="userSpaceOnUse"
     xlink:href="#linearGradient8">
    <stop
       offset="0%"
       stop-opacity="1"
       style="stop-color:rgb(247,242,6)"
       id="stop1" />
    <stop
       offset="97.82608695652173%"
       stop-opacity="1"
       style="stop-color:rgb(255,187,36)"
       id="stop2" />
  </linearGradient>
  <linearGradient
     id="_lgradient_16"
     x1="0.0063852281"
     y1="29.49073"
     x2="39.06303"
     y2="29.49073"
     gradientTransform="matrix(0.34563538,0,0,0.23002902,0.00595635,0.7173913)"
     gradientUnits="userSpaceOnUse"
     xlink:href="#linearGradient8">
    <stop
       offset="0%"
       stop-opacity="1"
       style="stop-color:rgb(247,242,6)"
       id="stop3" />
    <stop
       offset="97.82608695652173%"
       stop-opacity="1"
       style="stop-color:rgb(255,187,36)"
       id="stop4" />
  </linearGradient>
  <linearGradient
     id="_lgradient_17"
     x1="0"
     y1="0.5"
     x2="0.90748805"
     y2="0.92007786"
     gradientTransform="matrix(4.7826016,0,0,2.2419348,5.9138761,6.3695653)"
     gradientUnits="userSpaceOnUse">
    <stop
       offset="0%"
       stop-opacity="1"
       style="stop-color:rgb(255,65,108)"
       id="stop5" />
    <stop
       offset="84.34782608695653%"
       stop-opacity="1"
       style="stop-color:rgb(255,75,43)"
       id="stop6" />
  </linearGradient>
  <linearGradient
     id="_lgradient_18"
     x1="0"
     y1="0.5"
     x2="1"
     y2="0.5"
     gradientTransform="matrix(12.378499,0,0,13,0.56861537,1)"
     gradientUnits="userSpaceOnUse">
    <stop
       offset="0%"
       stop-opacity="1"
       style="stop-color:rgb(247,242,6)"
       id="stop7" />
    <stop
       offset="97.82608695652173%"
       stop-opacity="1"
       style="stop-color:rgb(255,187,36)"
       id="stop8" />
  </linearGradient>
  <g
     id="g8"
     transform="translate(1.242164,0.5)">
    <path
       d="m 7.1753575,4.6405652 c 0.08046,-0.4459565 0.3595391,-0.7265869 0.6901013,-0.859413 0.01069,-0.00311 0.020818,-0.00735 0.030946,-0.011587 0.1429155,-0.05313 0.294552,-0.07913 0.4433753,-0.07913 0.1521994,0 0.2984907,0.026565 0.4318409,0.077435 0.00337,0.00141 0.00675,0.00283 0.010128,0.00396 0.1277237,0.050022 0.24335,0.1218043 0.3415341,0.2142174 0.1744243,0.163913 0.2866747,0.3868913 0.3308435,0.6545217 z M 9.6825661,11.310413 H 6.7249489 v -0.93487 H 9.6825661 Z M 11.896629,8.3438696 c 0.09424,-0.3965 0.137571,-0.8373696 0.126317,-1.3110218 -0.0071,-0.2885435 -0.05149,-0.560413 -0.127723,-0.8102391 0.525241,0.065565 0.932888,0.5160435 0.932888,1.0606304 0,0.5443044 -0.407084,0.9945 -0.931482,1.0606305 z m -0.13335,-2.6715 H 11.656936 C 11.299085,5.0613696 10.706324,4.6730652 9.9990615,4.6428261 9.9484224,4.2177826 9.7759674,3.8574565 9.4918247,3.5903913 9.388858,3.4937391 9.2737942,3.4123478 9.1494466,3.3462174 8.5687825,3.078587 8.0305992,3.0848043 7.5171728,3.3467826 7.3874799,3.4143261 7.2665083,3.4976957 7.157915,3.5968913 6.9418539,3.7944348 6.6897827,4.1318696 6.6273276,4.6600652 6.1006787,4.7400435 5.6603981,5.0627826 5.5124188,5.4996957 5.4257693,5.7582826 5.2834166,5.9236087 5.0777647,6.005 4.713443,6.1491304 4.2287122,6.0081087 3.9240324,5.8433478 L 2.9863612,5.3371957 C 2.8299419,5.2526957 2.7205048,5.1876957 2.6327299,5.135413 2.2731908,4.9217609 2.2172063,4.9166739 1.5898415,4.9166739 H 0.41810408 c -0.12209701,0 -0.22900222,0.082522 -0.26051112,0.2009348 -0.0315089,0.118413 0.0202557,0.2433261 0.12603561,0.3046522 L 1.2055453,5.9555435 2.5466431,7.2583696 C 2.6535483,7.3626522 2.8243154,7.3595435 2.9278446,7.2521496 3.0313739,7.1447583 3.0285606,6.9732148 2.921374,6.8692148 l -1.3650107,-1.32628 c -0.015754,-0.015544 -0.033479,-0.029109 -0.05289,-0.040131 L 1.42667,5.4584338 h 0.1631711 c 0.2734523,0 0.4242448,0 0.511457,0.017239 0.064987,0.013 0.1102811,0.038717 0.2568539,0.1257609 0.086931,0.052 0.2064958,0.1229348 0.3727616,0.2128043 l 0.9376712,0.5061522 c 0.4256515,0.2303261 1.0713028,0.4004565 1.6069541,0.1885 C 5.6277638,6.3692826 5.886587,6.0801739 6.0230318,5.6735 6.1195278,5.388913 6.4807549,5.1820435 6.8822121,5.1820435 h 3.0279495 c 0.8859074,0 1.5475934,0.7839565 1.5737574,1.8638043 0.01294,0.5530652 -0.05429,1.0504565 -0.19468,1.4678696 -0.0059,0.013283 -0.01069,0.027413 -0.01435,0.042109 -0.117034,0.3320652 -0.281329,0.6115652 -0.489232,0.8252174 -0.29202,0.3006956 -0.650715,0.4530217 -1.0665201,0.4530217 H 6.6875321 c -0.7134516,0 -1.1393845,-0.4137391 -1.6789745,-0.9371304 L 4.6701182,8.5778696 c -0.1069052,-0.104 -0.2776722,-0.1011739 -0.3812015,0.0065 -0.1035293,0.1073913 -0.1007159,0.2789347 0.00647,0.3829347 l 0.3384394,0.3190653 c 0.465319,0.4513261 0.9095383,0.8823044 1.5520949,1.0329344 v 1.262131 c 0,0.1495 0.1206904,0.270739 0.2695137,0.270739 h 3.4966444 c 0.1491039,0 0.2697939,-0.121239 0.2697939,-0.270739 V 10.3145 c 0.357008,-0.08959 0.679693,-0.277239 0.949488,-0.5547609 0.227314,-0.234 0.411866,-0.5262174 0.55028,-0.8653478 h 0.04164 c 0.8845,0 1.60386,-0.722913 1.60386,-1.6111522 0,-0.8882391 -0.71936,-1.6108695 -1.60386,-1.6108695 z M 3.4530868,8.060413 c 0,-0.08337 0.067519,-0.150913 0.1502299,-0.150913 0.082993,0 0.15023,0.067543 0.15023,0.150913 0,0.083087 -0.067237,0.1506305 -0.15023,0.1506305 -0.082711,0 -0.1502299,-0.067544 -0.1502299,-0.1506305 z"
       fill-rule="evenodd"
       vector-effect="non-scaling-stroke"
       stroke-width="0.281404"
       stroke="url(#_lgradient_16)"
       stroke-linejoin="miter"
       stroke-linecap="butt"
       stroke-miterlimit="4"
       id="path4"
       style="fill:url(#linearGradient12);stroke:url(#linearGradient14);stroke-opacity:1" />
    <path
       d="M 6.7108825,7.0102391 5.913876,7.8108696 6.7108825,8.6115 7.5081702,7.8108696 Z M 8.3051768,6.3695652 7.5081702,7.1701957 8.3051768,7.9711087 9.1021832,7.1701957 Z M 9.8994711,7.0102391 9.1021832,7.8108696 9.8994711,8.6115 10.696477,7.8108696 Z"
       fill-rule="evenodd"
       id="path6"
       style="fill:#c83771" />
    <path
       d="m 1.6939334,3.2608696 v 0 c 0,0.312 -0.2520713,0.5652174 -0.5626591,0.5652174 v 0 c -0.3105877,0 -0.56265894,-0.2532174 -0.56265894,-0.5652174 v 0 -0.8478261 C 0.56861536,1.6330435 1.1987934,1 1.9752629,1 h 9.5652031 c 0.776469,0 1.406648,0.6330435 1.406648,1.4130435 v 1.4130435 0 c 0,0.312 -0.252072,0.5652173 -0.56266,0.5652173 v 0 c -0.310588,0 -0.562658,-0.2532173 -0.562658,-0.5652173 v 0 -0.8478261 c 0,-0.468 -0.378107,-0.8478261 -0.843989,-0.8478261 H 2.5379219 c -0.4658817,0 -0.8439885,0.3798261 -0.8439885,0.8478261 z M 11.821796,10.608696 v 0 c 0,-0.312 0.25207,-0.565218 0.562658,-0.565218 v 0 c 0.310588,0 0.56266,0.253218 0.56266,0.565218 v 0 1.978261 c 0,0.78 -0.630179,1.413043 -1.406648,1.413043 H 1.9752629 C 1.1987934,14 0.56861536,13.366957 0.56861536,12.586957 v -3.6739135 0 c 0,-0.312 0.25207124,-0.5652174 0.56265894,-0.5652174 v 0 c 0.3105878,0 0.5626591,0.2532174 0.5626591,0.5652174 v 0 3.1086955 c 0,0.468 0.3781068,0.847826 0.8439885,0.847826 h 8.4398851 c 0.465882,0 0.843989,-0.379826 0.843989,-0.847826 z"
       fill-rule="evenodd"
       id="path8"
       style="fill:url(#linearGradient10)" />
  </g>
</svg>
