<?xml version="1.0" encoding="UTF-8" standalone="no"?>
<svg
   width="16"
   height="16"
   version="1.1"
   id="svg6"
   sodipodi:docname="geogebra.svg"
   inkscape:version="1.4.4 (unknown)"
   xmlns:inkscape="http://www.inkscape.org/namespaces/inkscape"
   xmlns:sodipodi="http://sodipodi.sourceforge.net/DTD/sodipodi-0.dtd"
   xmlns:xlink="http://www.w3.org/1999/xlink"
   xmlns="http://www.w3.org/2000/svg"
   xmlns:svg="http://www.w3.org/2000/svg">
  <defs
     id="defs6">
    <filter
       id="f"
       width="1.1201701"
       height="1.1201701"
       x="-0.060085025"
       y="-0.060085025"
       color-interpolation-filters="sRGB">
      <feGaussianBlur
         stdDeviation=".212"
         id="feGaussianBlur9" />
    </filter>
    <linearGradient
       xlink:href="#b"
       id="g"
       x1="4.9330001"
       x2="7.0489998"
       y1="10.655"
       y2="10.655"
       gradientUnits="userSpaceOnUse" />
    <linearGradient
       id="b">
      <stop
         offset="0"
         stop-color="#548fed"
         id="stop3" />
      <stop
         offset="1"
         stop-color="#5ebae3"
         id="stop4" />
    </linearGradient>
    <linearGradient
       xlink:href="#b"
       id="h"
       x1="9.1660004"
       x2="11.283"
       y1="10.655"
       y2="10.655"
       gradientUnits="userSpaceOnUse" />
    <linearGradient
       xlink:href="#a"
       id="i"
       x1="11.283"
       x2="13.399"
       y1="10.655"
       y2="10.655"
       gradientUnits="userSpaceOnUse" />
    <linearGradient
       id="a">
      <stop
         offset="0"
         stop-color="#8ae234"
         id="stop5" />
      <stop
         offset="1"
         stop-color="#47e767"
         id="stop6" />
    </linearGradient>
    <linearGradient
       xlink:href="#b"
       id="j"
       x1="7.0489998"
       x2="9.1660004"
       y1="8.5380001"
       y2="8.5380001"
       gradientUnits="userSpaceOnUse" />
    <linearGradient
       xlink:href="#c"
       id="k"
       x1="11.283"
       x2="13.399"
       y1="8.5380001"
       y2="8.5380001"
       gradientUnits="userSpaceOnUse" />
    <linearGradient
       id="c">
      <stop
         offset="0"
         stop-color="#ec4520"
         id="stop9" />
      <stop
         offset="1"
         stop-color="#f58517"
         id="stop10" />
    </linearGradient>
    <linearGradient
       xlink:href="#a"
       id="l"
       x1="7.0489998"
       x2="9.1660004"
       y1="6.4219999"
       y2="6.4219999"
       gradientUnits="userSpaceOnUse" />
    <linearGradient
       xlink:href="#b"
       id="m"
       x1="9.1660004"
       x2="11.283"
       y1="6.4219999"
       y2="6.4219999"
       gradientUnits="userSpaceOnUse" />
    <linearGradient
       xlink:href="#a"
       id="n"
       x1="4.9330001"
       x2="7.0489998"
       y1="4.3049998"
       y2="4.3049998"
       gradientUnits="userSpaceOnUse" />
    <linearGradient
       xlink:href="#c"
       id="o"
       x1="7.0489998"
       x2="9.1660004"
       y1="4.3049998"
       y2="4.3049998"
       gradientUnits="userSpaceOnUse" />
    <linearGradient
       xlink:href="#b"
       id="p"
       x1="11.283"
       x2="13.399"
       y1="4.3049998"
       y2="4.3049998"
       gradientUnits="userSpaceOnUse" />
  </defs>
  <sodipodi:namedview
     id="namedview6"
     pagecolor="#ffffff"
     bordercolor="#000000"
     borderopacity="0.25"
     inkscape:showpageshadow="2"
     inkscape:pageopacity="0.0"
     inkscape:pagecheckerboard="0"
     inkscape:deskcolor="#d1d1d1"
     inkscape:zoom="24.21875"
     inkscape:cx="9.1664516"
     inkscape:cy="10.797419"
     inkscape:window-width="1920"
     inkscape:window-height="994"
     inkscape:window-x="0"
     inkscape:window-y="0"
     inkscape:window-maximized="1"
     inkscape:current-layer="svg6" />
  <g
     id="g1"
     transform="matrix(0.46350368,0,0,0.46141833,-5.9884066,-5.5001318)">
    <path
       d="m 26.42471,17.848901 c -7.59,2.761 -11.763,10.139 -9.295,16.447 2.471,6.31 10.659,9.194 18.246,6.433 7.585,-2.761 11.763,-10.144 9.29,-16.458 -2.47,-6.31 -10.659,-9.19 -18.246,-6.43 m 0.854,2.17 c 6.182,-2.252 12.785,0.074 14.794,5.205 2.008,5.127 -1.353,11.083 -7.54,13.334 -6.186,2.252 -12.792,-0.077 -14.796,-5.21 -2.009,-5.126 1.357,-11.079 7.543,-13.33"
       id="path2-3"
       style="fill:#d8c4ee;fill-opacity:1;stroke:#d8c4ee;stroke-opacity:1;stroke-width:1.64771068;stroke-dasharray:none" />
    <path
       d="m 32.52771,18.105901 c 0,1.619 -1.316,2.935 -2.935,2.935 -1.619,0 -2.935,-1.316 -2.935,-2.935 0,-1.619 1.316,-2.935 2.935,-2.935 1.619,0 2.935,1.316 2.935,2.935 m 12.913,4.695 c 0,1.619 -1.316,2.935 -2.935,2.935 -1.619,0 -2.935,-1.316 -2.935,-2.935 0,-1.619 1.316,-2.935 2.935,-2.935 1.619,0 2.935,1.316 2.935,2.935 m -2.348,12.914 c 0,1.619 -1.316,2.935 -2.935,2.935 -1.619,0 -2.935,-1.316 -2.935,-2.935 0,-1.619 1.316,-2.935 2.935,-2.935 1.619,0 2.935,1.316 2.935,2.935 m -15.261,4.695 c 0,1.619 -1.316,2.935 -2.935,2.935 -1.619,0 -2.935,-1.316 -2.935,-2.935 0,-1.619 1.316,-2.935 2.935,-2.935 1.619,0 2.935,1.316 2.935,2.935 m -7.043,-11.739 c 0,1.619 -1.316,2.935 -2.935,2.935 -1.619,0 -2.935,-1.316 -2.935,-2.935 0,-1.619 1.316,-2.935 2.935,-2.935 1.619,0 2.935,1.316 2.935,2.935"
       id="path3-6"
       style="fill:#8080ff;fill-opacity:1" />
  </g>
</svg>
