<?xml version="1.0" encoding="UTF-8" standalone="no"?>
<svg
   width="16"
   height="16"
   version="1.1"
   id="svg29"
   sodipodi:docname="ghex.svg"
   inkscape:version="1.4.4 (unknown)"
   xmlns:inkscape="http://www.inkscape.org/namespaces/inkscape"
   xmlns:sodipodi="http://sodipodi.sourceforge.net/DTD/sodipodi-0.dtd"
   xmlns="http://www.w3.org/2000/svg"
   xmlns:svg="http://www.w3.org/2000/svg">
  <defs
     id="defs29">
    <linearGradient
       id="_lgradient_24"
       x1="0"
       y1="0.5"
       x2="0.99995631"
       y2="0.50934696"
       gradientTransform="matrix(40.5,0,0,39.999995,11.250001,11)"
       gradientUnits="userSpaceOnUse">
      <stop
         offset="34.94098066785295%"
         stop-opacity="1"
         style="stop-color:rgb(178,229,107)"
         id="stop1" />
      <stop
         offset="0.5384922"
         stop-opacity="1"
         style="stop-color:#c1e963;stop-opacity:1;"
         id="stop2" />
      <stop
         offset="90.40515655585295%"
         stop-opacity="1"
         style="stop-color:rgb(236,244,81)"
         id="stop3" />
      <stop
         offset="100%"
         stop-opacity="1"
         style="stop-color:rgb(250,247,75)"
         id="stop4" />
    </linearGradient>
  </defs>
  <sodipodi:namedview
     id="namedview29"
     pagecolor="#ffffff"
     bordercolor="#000000"
     borderopacity="0.25"
     inkscape:showpageshadow="2"
     inkscape:pageopacity="0.0"
     inkscape:pagecheckerboard="0"
     inkscape:deskcolor="#d1d1d1"
     inkscape:zoom="14.142136"
     inkscape:cx="7.2831999"
     inkscape:cy="13.682516"
     inkscape:window-width="1920"
     inkscape:window-height="994"
     inkscape:window-x="0"
     inkscape:window-y="0"
     inkscape:window-maximized="1"
     inkscape:current-layer="svg29" />
  <g
     id="g1"
     transform="matrix(1.1234569,0,0,1.1375002,-4.6790125,-4.5124967)">
    <path
       id="rect2-3"
       d="m 11.321699,5.2857103 c -0.167097,1.1e-6 -0.251332,0.1424664 -0.251332,0.4288533 0,0.1393849 0.01891,0.2509756 0.06132,0.3248614 0.04242,0.073506 0.107731,0.1107702 0.190023,0.1107702 0.168525,0 0.251325,-0.1488574 0.251325,-0.4356316 0,-0.1390043 -0.0185,-0.2449188 -0.06133,-0.3184239 -0.04239,-0.073876 -0.106638,-0.1104294 -0.19001,-0.1104294 z m -2.6491249,0.012859 -0.2083114,0.1754718 0.055214,0.06504 0.073507,-0.06504 c 0.02947,-0.026658 0.05339,-0.048327 0.067406,-0.064697 -0.00282,0.09102 -0.0061,0.1611874 -0.0061,0.2076515 v 0.5199786 h 0.097887 V 5.2985596 h -0.079598 z m 1.3247249,0 -0.2086515,0.1754718 0.049112,0.06504 0.0796,-0.06504 c 0.02947,-0.02666 0.05339,-0.048327 0.06741,-0.064699 -0.0028,0.09102 -0.0061,0.1611883 -0.0061,0.207652 v 0.519978 h 0.09824 V 5.2985525 h -0.0796 z m 2.642699,0 -0.202215,0.1754718 0.04915,0.06504 0.07958,-0.06504 c 0.02945,-0.02666 0.05342,-0.048327 0.06736,-0.064699 -0.0033,0.09102 -0.0055,0.1611883 -0.0055,0.207652 v 0.5199781 h 0.09823 V 5.2985544 h -0.08613 z m 1.32473,0 -0.202559,0.1754718 0.04915,0.06504 0.07994,-0.06504 c 0.02942,-0.02666 0.05342,-0.048327 0.06736,-0.064699 -0.0033,0.09102 -0.0056,0.1611883 -0.0056,0.207652 v 0.5199781 h 0.09176 V 5.2985504 h -0.07966 z m -2.643029,0.078249 c 0.05279,4e-7 0.09172,0.024218 0.116516,0.077909 0.02482,0.053323 0.03694,0.1398565 0.03694,0.2598189 -1e-6,0.1207214 -0.01212,0.2128957 -0.03694,0.2665962 -0.02482,0.053321 -0.06373,0.077909 -0.116516,0.077909 -0.0521,0 -0.09208,-0.024592 -0.116522,-0.077909 -0.02406,-0.053318 -0.03694,-0.1454881 -0.03694,-0.266596 0,-0.1207225 0.01283,-0.206886 0.03694,-0.2598189 0.02444,-0.05332 0.06442,-0.077908 0.116522,-0.077908 z m -3.7757644,0.03693 c -0.029423,0.00958 -0.057774,0.021247 -0.086714,0.031842 0.00167,0.00323 0.00387,0.00568 0.0054,0.00915 0.024799,0.053322 0.036581,0.1398564 0.036581,0.2598183 -4e-7,0.1207226 -0.011792,0.2128954 -0.036581,0.2665973 -0.0248,0.053321 -0.063694,0.077908 -0.1165181,0.077908 -0.052107,0 -0.092088,-0.024591 -0.1165182,-0.077908 -0.024074,-0.053321 -0.030821,-0.1454897 -0.030821,-0.2665978 0,-0.063526 0.00221,-0.1169666 0.00743,-0.1615804 -0.035731,0.017603 -0.071933,0.034329 -0.1066994,0.053525 -0.00308,0.033569 -0.00502,0.069199 -0.00502,0.108056 0,0.1393861 0.025344,0.2509758 0.067747,0.3248611 0.042403,0.073507 0.1016389,0.1107715 0.1839279,0.1107715 0.1685306,0 0.2513306,-0.1488584 0.2513306,-0.4356326 -3.9e-6,-0.1290411 -0.017023,-0.2282551 -0.053522,-0.30081 z m 7.5898054,0.014223 -0.05489,0.04607 0.05517,0.065038 0.07958,-0.065038 c 0.0056,-0.005 0.0076,-0.00746 0.01285,-0.01219 -0.03064,-0.011874 -0.0616,-0.023139 -0.09281,-0.033878 z m 0.145315,0.052846 c -0.0019,0.050146 -0.0045,0.1057046 -0.0045,0.1361789 V 6.136977 h 0.09228 V 5.5211378 c -0.02938,-0.013456 -0.05815,-0.027939 -0.08807,-0.040313 z m -6.6085532,1.267278 c -0.1670949,1e-6 -0.2513305,0.1424665 -0.2513305,0.4288533 0,0.1393845 0.025005,0.2509765 0.067406,0.3248605 0.042402,0.073506 0.1016324,0.1104298 0.1839279,0.1104298 0.1685304,0 0.2513309,-0.1485233 0.2513309,-0.4352903 -4e-6,-0.1390056 -0.01855,-0.2449197 -0.061313,-0.3184243 -0.042403,-0.073876 -0.1066522,-0.110428 -0.1900225,-0.110428 z m 2.6491232,0 c -0.167094,1e-6 -0.251329,0.1424665 -0.251329,0.4288533 0,0.1393845 0.01892,0.2509765 0.06132,0.3248605 0.04242,0.073506 0.107737,0.1104298 0.190024,0.1104298 0.16853,0 0.25133,-0.1485233 0.25133,-0.4352903 -10e-7,-0.1390051 -0.01851,-0.2449192 -0.06133,-0.3184239 -0.04242,-0.073876 -0.10665,-0.1104294 -0.190019,-0.1104294 z m 3.967427,0 c -0.167098,1e-6 -0.245238,0.1424665 -0.245238,0.4288533 0,0.1393845 0.01892,0.2509765 0.06133,0.3248605 0.04244,0.073506 0.101627,0.1104298 0.183928,0.1104298 0.168525,0 0.257763,-0.1485233 0.257763,-0.4352903 0,-0.1390051 -0.02497,-0.2449192 -0.06776,-0.3184239 -0.04243,-0.073876 -0.106654,-0.1104294 -0.190025,-0.1104294 z m 1.32472,0 c -0.167087,1e-6 -0.251664,0.1424665 -0.251664,0.4288533 0,0.1393845 0.02532,0.2509765 0.06776,0.3248605 0.04243,0.073506 0.10164,0.1104298 0.183928,0.1104298 0.1052,0 0.179244,-0.057799 0.220176,-0.1710668 -0.01748,-0.1069497 -0.03995,-0.2123385 -0.07013,-0.3143592 5.95e-4,0.017643 0.0035,0.030751 0.0035,0.050132 -1e-6,0.1207219 -0.01175,0.2125552 -0.03658,0.2662555 -0.02484,0.053322 -0.06372,0.078251 -0.116518,0.078251 -0.05211,2e-7 -0.08599,-0.024928 -0.110421,-0.078251 -0.02404,-0.05332 -0.03696,-0.145146 -0.03696,-0.2662555 0,-0.1207231 0.01281,-0.2072188 0.03696,-0.2601594 0.02444,-0.05332 0.05829,-0.07791 0.110421,-0.07791 0.01943,2e-7 0.03615,0.00474 0.05179,0.011529 -0.01486,-0.03481 -0.03254,-0.067968 -0.04878,-0.1019608 -0.0012,-1.27e-5 -0.0023,-3.961e-4 -0.0035,-3.961e-4 z M 6.0264599,6.7484912 c -0.015909,0.033229 -0.033255,0.065584 -0.047764,0.099595 0.013437,-0.0054 0.027685,-0.00915 0.044708,-0.00915 0.052822,7e-7 0.091728,0.024216 0.1165183,0.077908 0.024799,0.053322 0.036917,0.1401971 0.036917,0.2601609 -5e-7,0.1207213 -0.012131,0.2125548 -0.036917,0.2662557 -0.024799,0.053321 -0.063696,0.07825 -0.1165183,0.07825 -0.052107,2e-7 -0.085985,-0.024929 -0.110422,-0.07825 -0.024076,-0.053322 -0.036578,-0.1451473 -0.036577,-0.2662557 0,-0.019474 0.00241,-0.03246 0.00301,-0.050133 -0.02966,0.1003107 -0.052008,0.2038577 -0.069432,0.3089381 0.0086,0.024396 0.018349,0.046676 0.02947,0.06606 0.042404,0.073506 0.1016321,0.1104302 0.1839277,0.1104302 0.1685305,0 0.2577676,-0.1485231 0.2577676,-0.4352896 C 6.281178,7.0380035 6.2561963,6.9320896 6.2134339,6.8585852 6.1715865,6.7856577 6.1082695,6.7494272 6.0264659,6.748489 Z m 1.3217103,0.012537 -0.2086531,0.1754708 0.055216,0.06504 0.079603,-0.06504 c 0.029468,-0.026683 0.047295,-0.048678 0.061312,-0.065061 -0.00282,0.09102 -1e-7,0.1615292 0,0.2079936 v 0.5199731 h 0.092127 V 6.7609531 h -0.079603 z m 2.6491228,0 -0.2086527,0.1754708 0.049117,0.06504 0.0796,-0.06504 c 0.02947,-0.026658 0.05339,-0.048665 0.0674,-0.06504 -0.0028,0.09102 -0.0061,0.1615294 -0.0061,0.207994 v 0.5199795 h 0.09823 V 6.7609959 h -0.0796 z m 2.642698,0 -0.202213,0.1754708 0.04915,0.06504 0.07958,-0.06504 c 0.02945,-0.026658 0.05342,-0.048665 0.06736,-0.06504 -0.0033,0.09102 -0.0055,0.1615294 -0.0055,0.207994 v 0.5199789 h 0.09819 V 6.7609954 h -0.08612 z m 1.32473,0 -0.202555,0.1754708 0.04915,0.06504 0.07994,-0.06504 c 0.02942,-0.026658 0.05342,-0.048665 0.06736,-0.06504 -0.0033,0.09102 -0.0055,0.1615294 -0.0055,0.207994 v 0.5199789 h 0.09176 V 6.7609624 h -0.07983 z m -5.2922192,0.077856 c 0.052822,3e-7 0.091729,0.024217 0.1165185,0.077909 0.024799,0.053321 0.036917,0.140198 0.036917,0.2601598 -6e-7,0.1207208 -0.01213,0.2125553 -0.036917,0.2662555 -0.0248,0.053322 -0.063695,0.078251 -0.1165185,0.078251 -0.052107,0 -0.092082,-0.024928 -0.1165178,-0.078251 C 8.53191,7.3898885 8.519402,7.2980615 8.519402,7.176953 c 0,-0.1207236 0.012501,-0.2072197 0.036582,-0.2601598 0.024437,-0.05332 0.064419,-0.077909 0.1165178,-0.077909 z m 2.6491232,0 c 0.05282,3e-7 0.09173,0.024217 0.116522,0.077909 0.02482,0.053321 0.03694,0.140198 0.03694,0.2601598 -1e-6,0.1207208 -0.01212,0.2125553 -0.03694,0.2662555 -0.02482,0.053322 -0.06373,0.078251 -0.116522,0.078251 -0.05211,0 -0.09208,-0.024928 -0.116519,-0.078251 -0.02405,-0.05332 -0.03694,-0.145147 -0.03694,-0.2662555 0,-0.1207236 0.01282,-0.2072197 0.03694,-0.2601598 0.02443,-0.05332 0.06442,-0.077909 0.116519,-0.077909 z m 3.967427,0 c 0.05276,3e-7 0.09172,0.024217 0.116517,0.077909 0.02485,0.053321 0.04299,0.140198 0.04299,0.2601598 0,0.1207208 -0.01829,0.2125553 -0.04299,0.2662555 -0.02484,0.053322 -0.06374,0.078251 -0.116517,0.078251 -0.0521,0 -0.08599,-0.024928 -0.110419,-0.078251 -0.02403,-0.05332 -0.03658,-0.145147 -0.03658,-0.2662555 0,-0.1207236 0.01255,-0.2072197 0.03658,-0.2601598 0.02445,-0.05332 0.05828,-0.077909 0.110419,-0.077909 z M 7.3479071,8.2101164 c -0.1670946,8e-7 -0.2516716,0.1424667 -0.2516716,0.4288533 0,0.1393861 0.025344,0.2513166 0.067747,0.3251955 0.042403,0.073507 0.1016388,0.1104305 0.1839278,0.1104305 0.1685304,0 0.2513311,-0.1488574 0.2513311,-0.4356316 -2e-6,-0.1390068 -0.018548,-0.244921 -0.061311,-0.3184253 C 7.4955271,8.2466609 7.4312772,8.2101075 7.3479062,8.2101075 Z m 3.9735199,0 c -0.167093,8e-7 -0.251331,0.1424667 -0.251331,0.4288533 0,0.1393861 0.01891,0.2513166 0.06132,0.3251955 0.04242,0.073507 0.107734,0.1104305 0.190023,0.1104305 0.168532,0 0.251334,-0.1488574 0.251334,-0.4356316 -10e-7,-0.1390054 -0.01851,-0.2449194 -0.06133,-0.3184237 -0.04241,-0.073877 -0.106645,-0.1104303 -0.190017,-0.1104303 z m 1.324404,0 c -0.1671,8e-7 -0.251334,0.1424667 -0.251334,0.4288533 0,0.1393861 0.01891,0.2513166 0.06133,0.3251955 0.04243,0.073507 0.107737,0.1104305 0.190025,0.1104305 0.168528,0 0.251668,-0.1488574 0.251668,-0.4356316 0,-0.1390054 -0.02467,-0.2449194 -0.06736,-0.3184237 -0.04244,-0.073876 -0.100911,-0.1104303 -0.184276,-0.1104303 z m 2.643027,0 c -0.167098,8e-7 -0.245238,0.1424667 -0.245238,0.4288533 0,0.1393861 0.01893,0.2513166 0.06133,0.3251955 0.04244,0.073507 0.101635,0.1104305 0.183927,0.1104305 0.168531,0 0.257768,-0.1488574 0.257768,-0.4356316 0,-0.1390054 -0.025,-0.2449194 -0.06776,-0.3184237 -0.04243,-0.073876 -0.106657,-0.1104303 -0.190023,-0.1104303 z m 1.32472,0 c -0.167093,8e-7 -0.251673,0.1424667 -0.251673,0.4288533 0,0.1393861 0.02532,0.2513166 0.06776,0.3251955 0.04243,0.073507 0.101635,0.1104305 0.183927,0.1104305 0.168534,0 0.257429,-0.1488574 0.257429,-0.4356316 0,-0.1390054 -0.02468,-0.2449194 -0.06736,-0.3184237 -0.04243,-0.073875 -0.10666,-0.11043 -0.190032,-0.11043 z m -10.5905922,0.013206 -0.2083126,0.1754722 0.055214,0.064699 0.079603,-0.064699 c 0.029465,-0.026659 0.047294,-0.048665 0.061312,-0.065039 -0.00283,0.09102 -4e-7,0.1615284 0,0.2079921 v 0.5196392 h 0.092129 V 8.2233603 h -0.079935 z m 2.649123,0 -0.2083115,0.1754722 0.055214,0.064699 0.073507,-0.064699 c 0.029469,-0.026659 0.05339,-0.048665 0.067405,-0.065039 -0.00282,0.09102 -0.00611,0.1615284 -0.00611,0.2079921 V 9.061387 h 0.097892 V 8.2233622 h -0.0796 z m 1.3247262,0 -0.2086533,0.1754722 0.049115,0.064699 0.0796,-0.064699 c 0.02946,-0.026659 0.05339,-0.048665 0.06741,-0.065039 -0.0028,0.09102 -0.0061,0.1615284 -0.0061,0.2079921 v 0.5196386 h 0.09823 v -0.838029 h -0.0796 z m 3.967426,0 -0.202554,0.1754722 0.04915,0.064699 0.07994,-0.064699 c 0.02944,-0.026659 0.05342,-0.048665 0.06736,-0.065039 -0.0033,0.09102 -0.0055,0.1615284 -0.0055,0.2079921 v 0.5196386 h 0.09153 V 8.2233615 h -0.07958 z m -6.6164194,0.077912 c 0.052822,9e-7 0.091728,0.024217 0.1165185,0.077908 0.024799,0.053322 0.036579,0.1398574 0.036579,0.2598193 -3e-7,0.1207223 -0.011792,0.212896 -0.036579,0.266597 -0.0248,0.05332 -0.063694,0.077909 -0.1165185,0.077909 -0.052108,0 -0.092089,-0.024592 -0.1165181,-0.077909 -0.024074,-0.053317 -0.030823,-0.1454887 -0.030823,-0.2665969 0,-0.120723 0.00676,-0.2068847 0.030821,-0.2598192 0.024436,-0.053319 0.064419,-0.077908 0.1165201,-0.077908 z m 3.9735224,0 c 0.05279,9e-7 0.09172,0.024217 0.116516,0.077908 0.02482,0.053322 0.03694,0.1398574 0.03694,0.2598193 0,0.1207223 -0.01212,0.212896 -0.03694,0.266597 -0.02482,0.05332 -0.06373,0.077909 -0.116516,0.077909 -0.05211,0 -0.09208,-0.024592 -0.116521,-0.077909 -0.02406,-0.053319 -0.03694,-0.1454888 -0.03694,-0.266597 0,-0.1207231 0.01283,-0.2068847 0.03694,-0.2598193 0.02444,-0.053319 0.06442,-0.077908 0.116521,-0.077908 z m 1.324395,0 c 0.05282,9e-7 0.09173,0.024217 0.116522,0.077908 0.02484,0.053322 0.03696,0.1398574 0.03696,0.2598193 -1e-6,0.1207223 -0.01212,0.212896 -0.03696,0.266597 -0.02483,0.05332 -0.06373,0.077909 -0.116522,0.077909 -0.05211,0 -0.09208,-0.024592 -0.116516,-0.077909 -0.02403,-0.053319 -0.03658,-0.1454888 -0.03658,-0.266597 0,-0.1207231 0.01254,-0.2068847 0.03658,-0.2598193 0.02445,-0.053319 0.06443,-0.077908 0.116516,-0.077908 z m 2.643028,0 c 0.0528,9e-7 0.09173,0.024217 0.116518,0.077908 0.02485,0.053322 0.04299,0.1398574 0.04299,0.2598193 0,0.1207223 -0.01826,0.212896 -0.04299,0.266597 -0.02484,0.05332 -0.06372,0.077909 -0.116518,0.077909 -0.0521,0 -0.08598,-0.024592 -0.11042,-0.077909 -0.02404,-0.053319 -0.03659,-0.1454888 -0.03659,-0.266597 0,-0.1207231 0.01255,-0.2068847 0.03659,-0.2598193 0.02445,-0.053319 0.05833,-0.077908 0.11042,-0.077908 z m 1.32473,0 c 0.05277,9e-7 0.09172,0.024217 0.116515,0.077908 0.02483,0.053322 0.03658,0.1398574 0.03658,0.2598193 -10e-7,0.1207223 -0.01175,0.212896 -0.03658,0.266597 -0.02484,0.05332 -0.06373,0.077909 -0.116515,0.077909 -0.05211,0 -0.086,-0.024592 -0.110424,-0.077909 -0.02404,-0.053319 -0.03696,-0.1454888 -0.03696,-0.266597 0,-0.1207231 0.01283,-0.2068847 0.03696,-0.2598193 0.02444,-0.053319 0.05829,-0.077908 0.110424,-0.077908 z m -9.2658716,1.371236 c -0.1670953,7e-7 -0.2516718,0.1424648 -0.2516718,0.4288526 0,0.139384 0.025344,0.250975 0.067747,0.324857 0.042403,0.07351 0.1016384,0.110437 0.1839277,0.110437 0.1685305,0 0.2513301,-0.148524 0.2513301,-0.435294 -3.2e-6,-0.1390056 -0.01855,-0.2449181 -0.06131,-0.3184224 C 7.4952642,9.7090214 7.4310143,9.6724704 7.3476439,9.6724704 Z m 3.9735216,0 c -0.167095,7e-7 -0.25133,0.1424648 -0.25133,0.4288526 0,0.139384 0.01891,0.250975 0.06132,0.324857 0.04242,0.07351 0.107737,0.110437 0.190025,0.110437 0.168529,0 0.251327,-0.148524 0.251327,-0.435294 0,-0.1390056 -0.0185,-0.2449181 -0.06133,-0.3184224 -0.04241,-0.07388 -0.106651,-0.1104302 -0.190018,-0.1104302 z m 1.324396,0 c -0.167097,7e-7 -0.251332,0.1424648 -0.251332,0.4288526 0,0.139384 0.01892,0.250975 0.06133,0.324857 0.04243,0.07351 0.107732,0.110437 0.190024,0.110437 0.168534,0 0.251674,-0.148524 0.251674,-0.435294 0,-0.1390056 -0.02468,-0.2449181 -0.06736,-0.3184224 -0.04244,-0.073878 -0.100905,-0.1104302 -0.184269,-0.1104302 z m 2.643029,0 c -0.167098,7e-7 -0.245238,0.1424648 -0.245238,0.4288526 0,0.139384 0.01892,0.250975 0.06133,0.324857 0.04243,0.07351 0.101628,0.110437 0.183928,0.110437 0.168531,0 0.25777,-0.148524 0.25777,-0.435294 0,-0.1390056 -0.02498,-0.2449181 -0.06776,-0.3184224 -0.04242,-0.073879 -0.106652,-0.1104302 -0.190023,-0.1104302 z m -9.2658692,0.012861 -0.2083113,0.175472 0.055213,0.06504 0.079601,-0.06504 c 0.029469,-0.02666 0.047294,-0.048666 0.061313,-0.065039 -0.00283,0.09102 -4e-7,0.1615282 0,0.2079926 v 0.519982 h 0.092128 V 9.6853159 h -0.079936 z m 2.6491237,0 -0.2083119,0.175472 0.055214,0.06504 0.073507,-0.06504 c 0.029466,-0.02666 0.05339,-0.048666 0.067405,-0.065039 -0.00282,0.09102 -0.0061,0.1615282 -0.0061,0.2079926 v 0.519982 h 0.097899 V 9.6853249 h -0.079603 z m 1.3247255,0 -0.2086522,0.175472 0.049117,0.06504 0.0796,-0.06504 c 0.02947,-0.02666 0.05339,-0.048666 0.06741,-0.065039 -0.0028,0.09102 -0.0061,0.1615282 -0.0061,0.2079926 v 0.519981 h 0.09822 V 9.6853151 h -0.07959 z m 3.967423,0 -0.202554,0.175472 0.04915,0.06504 0.07994,-0.06504 c 0.02946,-0.02666 0.05342,-0.048666 0.06736,-0.065039 -0.0033,0.09102 -0.0056,0.1615282 -0.0056,0.2079926 v 0.519981 h 0.09179 V 9.685317 h -0.07958 z m 2.649123,0 -0.208649,0.175472 0.05517,0.06504 0.07958,-0.06504 c 0.02942,-0.02666 0.04725,-0.048666 0.06133,-0.065039 -0.0033,0.09102 0,0.1615282 0,0.2079926 v 0.519981 h 0.09214 V 9.6853215 h -0.07958 z m -9.2658663,0.077917 c 0.052822,8e-7 0.091728,0.024557 0.1165183,0.078251 0.024799,0.053319 0.036581,0.1398564 0.036581,0.2598186 -4e-7,0.120723 -0.011792,0.212895 -0.036581,0.266594 -0.0248,0.05332 -0.063694,0.07791 -0.1165183,0.07791 -0.052105,0 -0.092088,-0.0246 -0.1165182,-0.07791 -0.024074,-0.05332 -0.030822,-0.145484 -0.030822,-0.266593 0,-0.120722 0.00676,-0.2068844 0.030821,-0.2598182 0.024437,-0.05332 0.064418,-0.07825 0.1165182,-0.07825 z m 3.9735213,0 c 0.0528,8e-7 0.09173,0.024557 0.116516,0.078251 0.02482,0.053319 0.03694,0.1398564 0.03694,0.2598186 0,0.120723 -0.01212,0.212895 -0.03694,0.266594 -0.02482,0.05332 -0.06373,0.07791 -0.116516,0.07791 -0.0521,0 -0.09208,-0.0246 -0.116517,-0.07791 -0.02405,-0.05332 -0.03694,-0.145486 -0.03694,-0.266594 0,-0.1207226 0.01283,-0.2068854 0.03694,-0.2598186 0.02444,-0.053321 0.06442,-0.078251 0.116517,-0.078251 z m 1.324403,0 c 0.05276,8e-7 0.09172,0.024557 0.116514,0.078251 0.02485,0.053319 0.03696,0.1398564 0.03696,0.2598186 -1e-6,0.120723 -0.01212,0.212895 -0.03696,0.266594 -0.02483,0.05332 -0.06374,0.07791 -0.116514,0.07791 -0.05211,0 -0.09209,-0.0246 -0.116526,-0.07791 -0.02403,-0.05332 -0.03657,-0.145486 -0.03657,-0.266594 0,-0.1207226 0.01253,-0.2068854 0.03657,-0.2598186 0.02445,-0.053321 0.06443,-0.078251 0.116526,-0.078251 z m 2.643024,0 c 0.05279,8e-7 0.09173,0.024557 0.116519,0.078251 0.02485,0.053319 0.04299,0.1398564 0.04299,0.2598186 0,0.120723 -0.01825,0.212895 -0.04299,0.266594 -0.02484,0.05332 -0.06374,0.07791 -0.116519,0.07791 -0.0521,0 -0.08599,-0.0246 -0.110426,-0.07791 -0.02404,-0.05332 -0.03658,-0.145486 -0.03658,-0.266594 0,-0.1207226 0.01255,-0.2068854 0.03658,-0.2598186 0.02445,-0.053321 0.05832,-0.078251 0.110426,-0.078251 z M 6.0223302,11.134809 c -0.1670957,10e-7 -0.2513312,0.142473 -0.2513312,0.428861 -10e-8,0.139381 0.025006,0.250976 0.067405,0.324856 0.042404,0.07352 0.101632,0.110429 0.1839276,0.110429 0.1685308,0 0.2577673,-0.148524 0.2577673,-0.435285 -8e-7,-0.139008 -0.024983,-0.244924 -0.067747,-0.318423 -0.042403,-0.07388 -0.1066528,-0.110438 -0.1900217,-0.110438 z m 1.3247252,0 c -0.1670945,10e-7 -0.2516718,0.142473 -0.2516718,0.428861 0,0.139381 0.025344,0.250976 0.067747,0.324856 0.042402,0.07352 0.1016384,0.110429 0.1839279,0.110429 0.1685304,0 0.2513305,-0.148524 0.2513305,-0.435285 -2e-7,-0.139008 -0.018548,-0.244924 -0.061312,-0.318423 -0.042405,-0.07388 -0.1066537,-0.110438 -0.190024,-0.110438 z m 3.9735216,0 c -0.167096,10e-7 -0.251331,0.142473 -0.251331,0.428861 0,0.139381 0.01891,0.250976 0.06132,0.324856 0.04242,0.07352 0.107733,0.110429 0.190024,0.110429 0.168528,0 0.251328,-0.148524 0.251328,-0.435285 0,-0.139008 -0.0185,-0.244925 -0.06133,-0.318423 -0.04242,-0.07388 -0.106653,-0.110438 -0.190025,-0.110438 z m 1.324395,0 c -0.16709,10e-7 -0.251323,0.142473 -0.251323,0.428861 0,0.139381 0.01892,0.250976 0.06133,0.324856 0.04244,0.07352 0.107734,0.110429 0.190023,0.110429 0.168532,0 0.251673,-0.148524 0.251673,-0.435285 -10e-7,-0.139008 -0.02468,-0.244925 -0.06736,-0.318423 -0.04243,-0.07388 -0.100904,-0.110438 -0.184267,-0.110438 z m 1.32473,0 c -0.1671,10e-7 -0.251334,0.142473 -0.251334,0.428861 0,0.139381 0.01892,0.250976 0.06133,0.324856 0.04243,0.07352 0.107731,0.110429 0.190023,0.110429 0.168528,0 0.251328,-0.148524 0.251328,-0.435285 0,-0.139008 -0.02468,-0.244925 -0.06736,-0.318423 -0.04243,-0.07388 -0.100563,-0.110438 -0.183933,-0.110438 z m 1.318298,0 c -0.167088,10e-7 -0.24523,0.142473 -0.24523,0.428861 0,0.139381 0.01893,0.250976 0.06133,0.324856 0.04244,0.07352 0.101635,0.110429 0.183928,0.110429 0.168534,0 0.257771,-0.148524 0.257771,-0.435285 0,-0.139008 -0.02496,-0.244925 -0.06776,-0.318423 -0.0424,-0.07388 -0.106638,-0.110438 -0.190009,-0.110438 z m -6.6164158,0.01285 -0.2083113,0.175472 0.055216,0.06499 0.073507,-0.06499 c 0.02947,-0.02666 0.05339,-0.04865 0.067405,-0.06501 -0.00282,0.09102 -0.0061,0.16152 -0.0061,0.207992 v 0.519973 h 0.097897 v -0.838411 h -0.079603 z m 1.3247258,0 -0.2086523,0.175472 0.049118,0.06499 0.0796,-0.06499 c 0.02946,-0.02666 0.05339,-0.04865 0.0674,-0.06501 -0.0028,0.09102 -0.0061,0.161521 -0.0061,0.207993 v 0.519973 h 0.09822 v -0.838408 h -0.0796 z m 6.616421,0 -0.208652,0.175472 0.05517,0.06499 0.07958,-0.06499 c 0.02946,-0.02666 0.04727,-0.04865 0.06133,-0.06501 -0.0033,0.09102 0,0.161521 0,0.207993 v 0.519973 h 0.09214 v -0.838416 h -0.07958 z m -10.5905981,0.07795 c 0.052821,10e-7 0.091729,0.02419 0.1165181,0.07793 0.024799,0.05332 0.036916,0.140197 0.036916,0.26016 -5e-7,0.120717 -0.012131,0.212553 -0.036916,0.266251 -0.0248,0.05333 -0.063695,0.07825 -0.1165181,0.07825 -0.052105,0 -0.085986,-0.02491 -0.1104223,-0.07825 -0.024076,-0.05332 -0.036577,-0.145142 -0.036576,-0.266251 -2e-7,-0.12073 0.012501,-0.207218 0.036576,-0.26016 0.024436,-0.05332 0.058322,-0.07793 0.1104223,-0.07793 z m 1.3247261,0 c 0.052822,10e-7 0.091728,0.02419 0.1165184,0.07793 0.024798,0.05332 0.036577,0.140197 0.036577,0.26016 -5e-7,0.120717 -0.011792,0.212553 -0.036577,0.266251 -0.0248,0.05333 -0.063695,0.07825 -0.1165184,0.07825 -0.052111,0 -0.092089,-0.02491 -0.1165182,-0.07825 -0.024074,-0.05332 -0.03082,-0.14514 -0.03082,-0.266249 0,-0.120731 0.00676,-0.207219 0.03082,-0.260162 0.024437,-0.05332 0.064419,-0.07793 0.1165182,-0.07793 z m 3.973523,0 c 0.0528,10e-7 0.09172,0.02419 0.116517,0.07793 0.02482,0.05332 0.03694,0.140197 0.03694,0.26016 -10e-7,0.120717 -0.01212,0.212553 -0.03694,0.266251 -0.02482,0.05333 -0.06373,0.07825 -0.116517,0.07825 -0.05211,0 -0.09208,-0.02491 -0.116521,-0.07825 -0.02406,-0.05332 -0.03694,-0.145142 -0.03694,-0.266251 0,-0.12073 0.01282,-0.207218 0.03694,-0.26016 0.02443,-0.05332 0.06442,-0.07793 0.116521,-0.07793 z m 1.324394,0 c 0.05278,10e-7 0.09173,0.02419 0.116515,0.07793 0.02484,0.05332 0.03696,0.140197 0.03696,0.26016 0,0.120717 -0.01212,0.212553 -0.03696,0.266251 -0.02483,0.05333 -0.06373,0.07825 -0.116515,0.07825 -0.0521,0 -0.09208,-0.02491 -0.116514,-0.07825 -0.02403,-0.05332 -0.03658,-0.145142 -0.03658,-0.266251 0,-0.12073 0.01253,-0.207218 0.03658,-0.26016 0.02445,-0.05332 0.06443,-0.07793 0.116514,-0.07793 z m 1.324732,0 c 0.05277,10e-7 0.09172,0.02419 0.116513,0.07793 0.02485,0.05332 0.03658,0.140197 0.03658,0.26016 -10e-7,0.120717 -0.01174,0.212553 -0.03658,0.266251 -0.02483,0.05333 -0.06373,0.07825 -0.116513,0.07825 -0.0521,0 -0.09209,-0.02491 -0.116527,-0.07825 -0.02403,-0.05332 -0.03696,-0.145142 -0.03696,-0.266251 -10e-7,-0.12073 0.01282,-0.207218 0.03696,-0.26016 0.02445,-0.05332 0.06443,-0.07793 0.116527,-0.07793 z m 1.318297,0 c 0.05279,10e-7 0.09173,0.02419 0.116514,0.07793 0.02485,0.05332 0.04299,0.140197 0.04299,0.26016 0,0.120717 -0.01827,0.212553 -0.04299,0.266251 -0.02484,0.05333 -0.06372,0.07825 -0.116514,0.07825 -0.05211,0 -0.08598,-0.02491 -0.110421,-0.07825 -0.02403,-0.05332 -0.03658,-0.145142 -0.03658,-0.266251 0,-0.12073 0.01255,-0.207218 0.03658,-0.26016 0.02445,-0.05332 0.05831,-0.07793 0.110421,-0.07793 z m -5.291824,1.371226 c -0.167093,0 -0.2516705,0.142474 -0.2516705,0.428859 0,0.139378 0.018909,0.251315 0.061312,0.325196 0.0424,0.07352 0.1080695,0.110439 0.1903645,0.110439 0.168531,-3e-6 0.251331,-0.14886 0.251331,-0.435635 0,-0.139009 -0.01854,-0.244913 -0.06131,-0.318426 -0.04241,-0.07386 -0.106653,-0.110433 -0.190024,-0.110433 z m 1.324401,0 c -0.167097,0 -0.251331,0.142474 -0.251331,0.428859 0,0.139378 0.01891,0.251315 0.06132,0.325196 0.04242,0.07352 0.107735,0.110439 0.190025,0.110439 0.168526,-3e-6 0.251324,-0.14886 0.251324,-0.435635 -10e-7,-0.139009 -0.01851,-0.244913 -0.06133,-0.318426 -0.04242,-0.07385 -0.106651,-0.110433 -0.190022,-0.110433 z m 2.649126,0 c -0.1671,0 -0.251333,0.142474 -0.251333,0.428859 0,0.139378 0.01891,0.251315 0.06133,0.325196 0.04243,0.07352 0.107736,0.110439 0.190023,0.110439 0.168529,-3e-6 0.251329,-0.14886 0.251329,-0.435635 -1e-6,-0.139009 -0.02467,-0.244913 -0.06736,-0.318426 -0.04243,-0.07385 -0.100558,-0.110433 -0.183928,-0.110433 z m 2.643027,0 c -0.167098,0 -0.251675,0.142474 -0.251675,0.428859 0,0.139378 0.02532,0.251315 0.06776,0.325196 0.04243,0.07352 0.10163,0.110439 0.183927,0.110439 0.168524,-3e-6 0.257419,-0.14886 0.257419,-0.435635 -1e-6,-0.139009 -0.02468,-0.244913 -0.06736,-0.318426 -0.04243,-0.07385 -0.106654,-0.110433 -0.190024,-0.110433 z m -10.5905986,0.01325 -0.2083112,0.175469 0.055214,0.07152 0.079602,-0.07152 c 0.029468,-0.02666 0.047294,-0.04863 0.061312,-0.06501 -0.00283,0.09102 -3e-7,0.161518 0,0.207999 v 0.519625 h 0.092131 v -0.83805 H 6.021947 Z m 1.3247254,0 -0.2086522,0.175469 0.055217,0.07152 0.079603,-0.07152 c 0.02947,-0.02666 0.047295,-0.04863 0.061313,-0.06501 -0.00282,0.09102 -4e-7,0.161519 0,0.207999 v 0.519625 h 0.092131 v -0.83805 h -0.079604 z m 1.3243978,0 -0.2083115,0.175469 0.055217,0.07152 0.073507,-0.07152 c 0.029466,-0.02666 0.05339,-0.04863 0.067405,-0.06501 -0.00282,0.09102 -0.0061,0.161518 -0.0061,0.207999 v 0.519619 h 0.097896 v -0.83805 h -0.0796 z m 3.9674294,0 -0.202215,0.175469 0.04915,0.07152 0.07958,-0.07152 c 0.02943,-0.02666 0.05342,-0.04863 0.06736,-0.06501 -0.0033,0.09102 -0.0056,0.161518 -0.0056,0.207999 v 0.519625 h 0.09816 v -0.838025 h -0.08602 z m 2.649121,0 -0.208312,0.175469 0.05517,0.07152 0.07958,-0.07152 c 0.02945,-0.02666 0.05342,-0.04863 0.06737,-0.06501 -0.0033,0.09102 -0.0056,0.161518 -0.0056,0.207999 v 0.519619 h 0.09213 v -0.838029 h -0.07997 z m -5.291824,0.07793 c 0.05282,2e-6 0.09173,0.02417 0.116518,0.07793 0.0248,0.05333 0.03658,0.139857 0.03658,0.259811 -1e-6,0.12073 -0.01177,0.2129 -0.03658,0.266593 -0.0248,0.05334 -0.06369,0.07793 -0.116518,0.07793 -0.05211,0 -0.09209,-0.02461 -0.116519,-0.07793 -0.02407,-0.05333 -0.03692,-0.145487 -0.03692,-0.266593 0,-0.120707 0.01283,-0.206881 0.03692,-0.259811 0.02444,-0.05333 0.06442,-0.07793 0.116519,-0.07793 z m 1.324396,0 c 0.05282,2e-6 0.09173,0.02417 0.116522,0.07793 0.02482,0.05333 0.03694,0.139857 0.03694,0.259811 0,0.12073 -0.01212,0.2129 -0.03694,0.266593 -0.02482,0.05334 -0.06373,0.07793 -0.116522,0.07793 -0.05211,0 -0.09208,-0.02461 -0.116518,-0.07793 -0.02405,-0.05333 -0.03694,-0.145487 -0.03694,-0.266593 0,-0.120707 0.01282,-0.206881 0.03694,-0.259811 0.02444,-0.05333 0.06442,-0.07793 0.116518,-0.07793 z m 2.649121,0 c 0.05283,2e-6 0.09173,0.02417 0.116525,0.07793 0.02485,0.05333 0.03658,0.139857 0.03658,0.259811 -10e-7,0.12073 -0.01172,0.2129 -0.03658,0.266593 -0.02483,0.05334 -0.06373,0.07793 -0.116525,0.07793 -0.05211,0 -0.09208,-0.02461 -0.116516,-0.07793 -0.02403,-0.05333 -0.03696,-0.145487 -0.03696,-0.266593 0,-0.120707 0.01281,-0.206881 0.03696,-0.259811 0.02445,-0.05333 0.06442,-0.07793 0.116516,-0.07793 z m 2.643027,0 c 0.05283,2e-6 0.09173,0.02417 0.116526,0.07793 0.02483,0.05333 0.03658,0.139857 0.03658,0.259811 -1e-6,0.12073 -0.01173,0.2129 -0.03658,0.266593 -0.02484,0.05334 -0.06373,0.07793 -0.116526,0.07793 -0.0521,0 -0.08598,-0.02461 -0.110419,-0.07793 -0.02404,-0.05333 -0.03696,-0.145487 -0.03696,-0.266593 0,-0.120707 0.0128,-0.206881 0.03696,-0.259811 0.02444,-0.05333 0.05831,-0.07793 0.110419,-0.07793 z m -9.2658648,1.371197 c -0.1670946,2e-6 -0.2516717,0.148919 -0.2516717,0.435305 0,0.139373 0.025344,0.244529 0.067747,0.318414 0.042403,0.07351 0.1016387,0.110431 0.183928,0.110431 0.1685303,0 0.251331,-0.142086 0.251331,-0.428845 -5e-7,-0.139015 -0.018548,-0.251367 -0.061313,-0.324865 -0.042403,-0.07389 -0.1066528,-0.11044 -0.1900235,-0.11044 z m 3.9735198,0 c -0.167093,2e-6 -0.251331,0.148919 -0.251331,0.435305 0,0.139373 0.01891,0.244529 0.06132,0.318414 0.04242,0.07351 0.107734,0.110431 0.190022,0.110431 0.168533,0 0.251334,-0.142086 0.251334,-0.428845 0,-0.139015 -0.01851,-0.251367 -0.06133,-0.324865 -0.04242,-0.0739 -0.106651,-0.11044 -0.190023,-0.11044 z m 5.292221,0 c -0.167096,2e-6 -0.251673,0.148919 -0.251673,0.435305 0,0.139373 0.02532,0.244529 0.06776,0.318414 0.04244,0.07351 0.101635,0.110431 0.183927,0.110431 0.0014,0 0.0023,-3.91e-4 0.0035,-3.91e-4 0.01622,-0.03396 0.03393,-0.06714 0.04878,-0.101954 -0.01565,0.0063 -0.03245,0.0116 -0.05179,0.0116 -0.05211,0 -0.08598,-0.02461 -0.110421,-0.07792 -0.02404,-0.05334 -0.03696,-0.139046 -0.03696,-0.260154 0,-0.120727 0.01281,-0.213331 0.03696,-0.266268 0.02444,-0.05333 0.05829,-0.07825 0.110421,-0.07825 0.05279,0 0.09173,0.03098 0.116519,0.08469 0.02484,0.05334 0.03658,0.139857 0.03658,0.25983 0,0.01943 -0.0026,0.03247 -0.0035,0.05016 0.02962,-0.100317 0.052,-0.203875 0.06942,-0.308954 -0.0086,-0.02441 -0.01827,-0.04679 -0.02945,-0.06606 -0.04245,-0.07385 -0.106666,-0.110425 -0.190036,-0.110425 z m -10.5905966,0.01286 -0.2083128,0.175469 0.055217,0.0715 0.079602,-0.0715 c 0.029462,-0.02667 0.047294,-0.04864 0.061312,-0.06502 -0.00283,0.09102 -4e-7,0.16153 0,0.207992 v 0.500671 c 0.00298,0.0059 0.0064,0.01282 0.00949,0.01933 h 0.082643 V 14.072063 H 6.02162 Z m 2.6491228,0 -0.2083113,0.175469 0.055213,0.0715 0.073507,-0.0715 c 0.02947,-0.02667 0.05339,-0.04864 0.067405,-0.06502 -0.00282,0.09102 -0.0061,0.16153 -0.0061,0.207992 v 0.519975 h 0.097894 v -0.838423 h -0.079606 z m 1.3247248,0 -0.2086515,0.175469 0.049115,0.0715 0.0796,-0.0715 c 0.02946,-0.02667 0.05339,-0.04864 0.06741,-0.06502 -0.0028,0.09102 -0.0061,0.16153 -0.0061,0.207992 v 0.519975 h 0.09824 v -0.83842 h -0.07961 z m 2.642704,0 -0.202219,0.175469 0.04914,0.0715 0.07958,-0.0715 c 0.02945,-0.02667 0.05342,-0.04864 0.06736,-0.06502 -0.0033,0.09102 -0.0055,0.16153 -0.0055,0.207992 v 0.519975 h 0.09823 v -0.83842 h -0.08618 z m 1.324719,0 -0.202554,0.175469 0.04914,0.0715 0.07994,-0.0715 c 0.02942,-0.02667 0.05342,-0.04864 0.06736,-0.06502 -0.0033,0.09102 -0.0055,0.16153 -0.0055,0.207992 v 0.519975 h 0.09179 v -0.838414 h -0.07958 z m 1.324403,0 -0.208317,0.175469 0.05517,0.0715 0.07958,-0.0715 c 0.02947,-0.02667 0.05342,-0.04864 0.06737,-0.06502 -0.0033,0.09102 -0.0056,0.16153 -0.0056,0.207992 v 0.519975 h 0.09213 v -0.838423 h -0.08011 z m -7.9411449,0.07794 c 0.052822,0 0.091728,0.03098 0.1165179,0.08469 0.024799,0.05334 0.036576,0.13986 0.036576,0.259828 -4e-7,0.120704 -0.011791,0.20646 -0.036576,0.260151 -0.0248,0.05332 -0.063694,0.07791 -0.1165179,0.07791 -0.052111,0 -0.092089,-0.0246 -0.1165184,-0.07791 -0.024074,-0.05333 -0.030821,-0.139054 -0.030821,-0.260157 0,-0.120728 0.00676,-0.213324 0.030821,-0.266264 0.024437,-0.05333 0.064419,-0.07825 0.1165184,-0.07825 z m 3.9735199,0 c 0.0528,0 0.09173,0.03098 0.116516,0.08469 0.02482,0.05334 0.03694,0.13986 0.03694,0.259828 0,0.120704 -0.01212,0.20646 -0.03694,0.260151 -0.02482,0.05332 -0.06372,0.07791 -0.116516,0.07791 -0.05211,0 -0.09208,-0.0246 -0.116516,-0.07791 -0.02406,-0.05333 -0.03694,-0.139048 -0.03694,-0.260151 0,-0.120728 0.01283,-0.213324 0.03694,-0.266264 0.02443,-0.05333 0.06442,-0.07825 0.116516,-0.07825 z m -2.6491221,1.371224 c -0.1670957,3e-6 -0.2513312,0.149238 -0.2513312,0.435629 0,0.139396 0.025005,0.244538 0.067405,0.31842 0.042402,0.07351 0.1016323,0.110427 0.1839278,0.110427 0.1685309,0 0.2513311,-0.142085 0.2513311,-0.428854 -7e-7,-0.138997 -0.018548,-0.251346 -0.061313,-0.324867 -0.042403,-0.07386 -0.1066521,-0.110759 -0.1900226,-0.110759 z m 2.6491221,0 c -0.167097,3e-6 -0.251332,0.149238 -0.251332,0.435629 0,0.139396 0.01891,0.244538 0.06132,0.31842 0.04242,0.07352 0.107733,0.110434 0.190023,0.110434 0.168533,0 0.251333,-0.142086 0.251333,-0.428854 0,-0.138997 -0.01851,-0.251349 -0.06133,-0.324867 -0.04242,-0.07386 -0.10665,-0.110767 -0.190021,-0.110767 z m 3.96743,0 c -0.167097,3e-6 -0.245236,0.149238 -0.245236,0.435629 0,0.129406 0.01723,0.228047 0.05354,0.300805 0.02942,-0.0095 0.05777,-0.02124 0.08671,-0.0318 -0.0019,-0.0037 -0.0043,-0.0055 -0.0055,-0.0091 -0.02403,-0.05332 -0.03659,-0.138714 -0.03659,-0.259815 0,-0.120718 0.01255,-0.213645 0.03659,-0.266584 0.02445,-0.05332 0.05831,-0.07792 0.110424,-0.07792 0.05278,0 0.09173,0.0306 0.116517,0.08435 0.02485,0.05332 0.04299,0.140173 0.04299,0.260142 0,0.06426 -0.0056,0.117095 -0.01419,0.161915 0.03587,-0.01759 0.07219,-0.03426 0.107035,-0.05353 0.0036,-0.03374 0.0055,-0.06938 0.0055,-0.108407 0,-0.138995 -0.02496,-0.251352 -0.06776,-0.32485 -0.04243,-0.07386 -0.106661,-0.110767 -0.190029,-0.110767 z m -7.9411474,0.01327 -0.208652,0.175474 0.055216,0.0715 0.079602,-0.0715 c 0.029469,-0.02667 0.047295,-0.04864 0.061313,-0.06503 -0.00282,0.09102 -2e-7,0.161539 0,0.207998 v 0.326913 c 0.030091,0.01278 0.061456,0.02281 0.092134,0.03455 v -0.679866 h -0.079607 z m 2.6491244,0 -0.2086536,0.175474 0.049116,0.0715 0.0796,-0.0715 c 0.02947,-0.02667 0.05339,-0.04864 0.0674,-0.06503 -0.0028,0.09102 -0.0061,0.161539 -0.0061,0.207998 v 0.519981 h 0.09824 v -0.838427 z m 2.642697,0 -0.202212,0.175474 0.04915,0.0715 0.07958,-0.0715 c 0.02946,-0.02667 0.05342,-0.04864 0.06736,-0.06503 -0.0033,0.09102 -0.0055,0.161539 -0.0055,0.207998 v 0.519987 h 0.09823 V 15.534511 H 12.6383 Z m 1.32473,0 -0.202555,0.175474 0.04915,0.0715 0.07994,-0.0715 c 0.02943,-0.02667 0.05342,-0.04864 0.06736,-0.06503 -0.0033,0.09102 -0.0055,0.161539 -0.0055,0.207998 v 0.519987 h 0.09179 v -0.838423 h -0.07969 z m -5.2922188,0.07793 c 0.052822,0 0.091728,0.0306 0.1165184,0.08435 0.024799,0.05333 0.036916,0.140171 0.036916,0.260143 -6e-7,0.120728 -0.01213,0.206141 -0.036916,0.259813 -0.0248,0.05333 -0.063695,0.07793 -0.1165184,0.07793 -0.052106,0 -0.092082,-0.02462 -0.1165182,-0.07793 -0.024074,-0.05333 -0.036577,-0.138714 -0.036577,-0.259813 0,-0.120713 0.012501,-0.213647 0.036577,-0.266581 0.024437,-0.05333 0.064419,-0.07793 0.1165182,-0.07793 z m 2.6491218,0 c 0.05283,0 0.09173,0.0306 0.116522,0.08435 0.02482,0.05333 0.03694,0.140171 0.03694,0.260143 0,0.120728 -0.01212,0.206141 -0.03694,0.259813 -0.02482,0.05333 -0.06373,0.07793 -0.116522,0.07793 -0.05211,0 -0.09208,-0.02462 -0.116517,-0.07793 -0.02405,-0.05333 -0.03694,-0.138714 -0.03694,-0.259813 0,-0.120713 0.01282,-0.213647 0.03694,-0.266581 0.02444,-0.05333 0.06442,-0.07793 0.116517,-0.07793 z"
       fill="#ffffff"
       fill-opacity="0.90255"
       opacity="0.57951"
       style="opacity:1;fill:#cccccc;fill-opacity:0.90255;stroke-width:0.655503" />
    <path
       d="m 7.0856947,9.2103839 v 0 c 0.1272183,0.2550637 0.02332,0.5664925 -0.2318948,0.6948079 v 0 C 6.5985856,10.033502 6.2868877,9.9293546 6.1581152,9.6727238 v 0 L 5.512955,8.3792166 7.3655232,5.2857103 h 3.1765738 l 1.554599,2.5974035 h 3.10921 l 1.865521,3.1168802 -1.865521,3.116884 h -3.723275 l -0.660709,-1.327274 v 0 c -0.127218,-0.255063 -0.02331,-0.566492 0.231896,-0.694807 v 0 c 0.255212,-0.128311 0.56691,-0.02416 0.695686,0.232467 v 0 l 0.375692,0.750653 h 2.49514 L 15.864019,10.999994 14.620336,8.9220739 H 11.511132 L 9.9565273,6.3246704 H 7.95109 L 6.6944525,8.4259703 Z m 3.5263563,5.6337631 v 0 c 0.171528,-0.22935 0.496695,-0.275837 0.72548,-0.103896 v 0 c 0.22879,0.171953 0.275168,0.497922 0.10364,0.727276 v 0 l -0.93276,1.246753 H 7.3655229 L 5.4999996,13.597392 7.3655229,10.480511 H 9.9280262 L 10.303724,9.7298667 v 0 c 0.128771,-0.2566257 0.440469,-0.360784 0.695681,-0.232468 v 0 c 0.255217,0.1283103 0.359113,0.4397385 0.231895,0.6948023 v 0 l -0.660703,1.327276 H 7.95109 L 6.7074079,13.597392 7.95109,15.675314 h 2.0391216 z"
       fill-rule="evenodd"
       id="path4"
       style="fill:#a8fc7e;fill-opacity:1;stroke-width:0.285714" />
  </g>
</svg>
