<?xml version="1.0" encoding="UTF-8" standalone="no"?>
<svg
   width="16"
   height="16"
   version="1.1"
   id="svg6"
   sodipodi:docname="ghidra.svg"
   inkscape:version="1.4.4 (unknown)"
   xmlns:inkscape="http://www.inkscape.org/namespaces/inkscape"
   xmlns:sodipodi="http://sodipodi.sourceforge.net/DTD/sodipodi-0.dtd"
   xmlns:xlink="http://www.w3.org/1999/xlink"
   xmlns="http://www.w3.org/2000/svg"
   xmlns:svg="http://www.w3.org/2000/svg">
  <defs
     id="defs6">
    <filter
       id="f"
       width="1.1201701"
       height="1.1201701"
       x="-0.060085025"
       y="-0.060085025"
       color-interpolation-filters="sRGB">
      <feGaussianBlur
         stdDeviation=".212"
         id="feGaussianBlur9" />
    </filter>
    <linearGradient
       xlink:href="#b"
       id="g"
       x1="4.9330001"
       x2="7.0489998"
       y1="10.655"
       y2="10.655"
       gradientUnits="userSpaceOnUse" />
    <linearGradient
       id="b">
      <stop
         offset="0"
         stop-color="#548fed"
         id="stop3" />
      <stop
         offset="1"
         stop-color="#5ebae3"
         id="stop4" />
    </linearGradient>
    <linearGradient
       xlink:href="#b"
       id="h"
       x1="9.1660004"
       x2="11.283"
       y1="10.655"
       y2="10.655"
       gradientUnits="userSpaceOnUse" />
    <linearGradient
       xlink:href="#a"
       id="i"
       x1="11.283"
       x2="13.399"
       y1="10.655"
       y2="10.655"
       gradientUnits="userSpaceOnUse" />
    <linearGradient
       id="a">
      <stop
         offset="0"
         stop-color="#8ae234"
         id="stop5" />
      <stop
         offset="1"
         stop-color="#47e767"
         id="stop6" />
    </linearGradient>
    <linearGradient
       xlink:href="#b"
       id="j"
       x1="7.0489998"
       x2="9.1660004"
       y1="8.5380001"
       y2="8.5380001"
       gradientUnits="userSpaceOnUse" />
    <linearGradient
       xlink:href="#c"
       id="k"
       x1="11.283"
       x2="13.399"
       y1="8.5380001"
       y2="8.5380001"
       gradientUnits="userSpaceOnUse" />
    <linearGradient
       id="c">
      <stop
         offset="0"
         stop-color="#ec4520"
         id="stop9" />
      <stop
         offset="1"
         stop-color="#f58517"
         id="stop10" />
    </linearGradient>
    <linearGradient
       xlink:href="#a"
       id="l"
       x1="7.0489998"
       x2="9.1660004"
       y1="6.4219999"
       y2="6.4219999"
       gradientUnits="userSpaceOnUse" />
    <linearGradient
       xlink:href="#b"
       id="m"
       x1="9.1660004"
       x2="11.283"
       y1="6.4219999"
       y2="6.4219999"
       gradientUnits="userSpaceOnUse" />
    <linearGradient
       xlink:href="#a"
       id="n"
       x1="4.9330001"
       x2="7.0489998"
       y1="4.3049998"
       y2="4.3049998"
       gradientUnits="userSpaceOnUse" />
    <linearGradient
       xlink:href="#c"
       id="o"
       x1="7.0489998"
       x2="9.1660004"
       y1="4.3049998"
       y2="4.3049998"
       gradientUnits="userSpaceOnUse" />
    <linearGradient
       xlink:href="#b"
       id="p"
       x1="11.283"
       x2="13.399"
       y1="4.3049998"
       y2="4.3049998"
       gradientUnits="userSpaceOnUse" />
    <linearGradient
       id="paint0_linear_54_1212"
       x1="24.016001"
       y1="34.414799"
       x2="24.016001"
       y2="15.5054"
       gradientUnits="userSpaceOnUse"
       gradientTransform="matrix(1.2750627,0,0,1.2692104,0.21981883,-0.6795695)">
      <stop
         stop-color="#FD5900"
         id="stop2" />
      <stop
         offset="1"
         stop-color="#FFDE00"
         id="stop3-3" />
    </linearGradient>
    <linearGradient
       id="linear-gradient"
       x1="-155.03999"
       y1="232.49001"
       x2="25.139999"
       y2="122.49"
       gradientTransform="rotate(-0.72,-1284.1074,964.39391)"
       gradientUnits="userSpaceOnUse">
      <stop
         offset="0"
         stop-color="#ce0e2d"
         id="stop2-3" />
      <stop
         offset="0.53"
         stop-color="#ff9e18"
         id="stop3-6" />
      <stop
         offset="0.99"
         stop-color="#f7be00"
         id="stop4-7" />
    </linearGradient>
    <linearGradient
       id="linear-gradient-2"
       x1="-166.11"
       y1="235.52"
       x2="7.8099999"
       y2="129.33"
       xlink:href="#linear-gradient"
       gradientTransform="matrix(0.37345733,0,0,0.37357643,2.86002,3.1162204)" />
    <linearGradient
       id="linear-gradient-3"
       x1="-172.52"
       y1="242.02"
       x2="1.41"
       y2="135.84"
       xlink:href="#linear-gradient"
       gradientTransform="matrix(0.37345733,0,0,0.37357643,2.86002,3.1162204)" />
    <linearGradient
       id="linear-gradient-4"
       x1="-166.11"
       y1="242.02"
       x2="7.8099999"
       y2="135.84"
       xlink:href="#linear-gradient"
       gradientTransform="matrix(0.37345733,0,0,0.37357643,2.86002,3.1162204)" />
    <linearGradient
       id="linear-gradient-5"
       x1="-166.11"
       y1="248.52"
       x2="7.8099999"
       y2="142.34"
       xlink:href="#linear-gradient"
       gradientTransform="matrix(0.37345733,0,0,0.37357643,2.86002,3.1162204)" />
    <linearGradient
       id="linear-gradient-6"
       x1="-159.91"
       y1="242.02"
       x2="14.02"
       y2="135.84"
       xlink:href="#linear-gradient"
       gradientTransform="matrix(0.37345733,0,0,0.37357643,2.86002,3.1162204)" />
    <linearGradient
       id="linear-gradient-7"
       x1="-185.27"
       y1="248.52"
       x2="-11.34"
       y2="142.34"
       xlink:href="#linear-gradient"
       gradientTransform="matrix(0.37345733,0,0,0.37357643,2.86002,3.1162204)" />
    <linearGradient
       id="linear-gradient-8"
       x1="-185.27"
       y1="254.67"
       x2="-11.34"
       y2="148.48"
       xlink:href="#linear-gradient"
       gradientTransform="matrix(0.37345733,0,0,0.37357643,2.86002,3.1162204)" />
    <linearGradient
       id="linear-gradient-9"
       x1="-191.55"
       y1="260.51001"
       x2="-17.620001"
       y2="154.32001"
       xlink:href="#linear-gradient"
       gradientTransform="matrix(0.37345733,0,0,0.37357643,2.86002,3.1162204)" />
    <linearGradient
       id="linear-gradient-10"
       x1="-172.52"
       y1="254.67"
       x2="1.41"
       y2="148.48"
       xlink:href="#linear-gradient"
       gradientTransform="matrix(0.37345733,0,0,0.37357643,2.86002,3.1162204)" />
    <linearGradient
       id="linear-gradient-11"
       x1="-159.91"
       y1="235.52"
       x2="14.02"
       y2="129.33"
       xlink:href="#linear-gradient"
       gradientTransform="matrix(0.37345733,0,0,0.37357643,2.86002,3.1162204)" />
    <linearGradient
       id="linear-gradient-12"
       x1="-171.91"
       y1="244.25"
       x2="8.2700005"
       y2="134.25"
       xlink:href="#linear-gradient"
       gradientTransform="matrix(0.37345733,0,0,0.37357643,2.86002,3.1162204)" />
    <linearGradient
       id="linear-gradient-13"
       x1="-188.7"
       y1="248.00999"
       x2="-14.77"
       y2="141.82001"
       xlink:href="#linear-gradient"
       gradientTransform="matrix(0.37345733,0,0,0.37357643,2.86002,3.1162204)" />
    <linearGradient
       id="linear-gradient-14"
       x1="-188.7"
       y1="254.5"
       x2="-14.77"
       y2="148.32001"
       xlink:href="#linear-gradient"
       gradientTransform="matrix(0.37345733,0,0,0.37357643,2.86002,3.1162204)" />
    <linearGradient
       id="linear-gradient-15"
       x1="-181.97"
       y1="254.5"
       x2="-8.04"
       y2="148.32001"
       xlink:href="#linear-gradient"
       gradientTransform="matrix(0.37345733,0,0,0.37357643,2.86002,3.1162204)" />
    <linearGradient
       id="linear-gradient-16"
       x1="-188.7"
       y1="260.64999"
       x2="-14.77"
       y2="154.46001"
       xlink:href="#linear-gradient"
       gradientTransform="matrix(0.37345733,0,0,0.37357643,2.86002,3.1162204)" />
    <linearGradient
       id="linear-gradient-17"
       x1="-188.7"
       y1="266.48999"
       x2="-14.77"
       y2="160.3"
       xlink:href="#linear-gradient"
       gradientTransform="matrix(0.37345733,0,0,0.37357643,2.86002,3.1162204)" />
    <linearGradient
       id="linear-gradient-18"
       x1="-194.72"
       y1="266.48999"
       x2="-20.790001"
       y2="160.3"
       xlink:href="#linear-gradient"
       gradientTransform="matrix(0.37345733,0,0,0.37357643,2.86002,3.1162204)" />
    <linearGradient
       inkscape:collect="always"
       xlink:href="#linear-gradient"
       id="linearGradient55"
       gradientUnits="userSpaceOnUse"
       gradientTransform="matrix(0.37342784,-0.00469438,0.00469288,0.37354693,-1.7036286,-2.8834172)"
       x1="-155.03999"
       y1="232.49001"
       x2="25.139999"
       y2="122.49" />
    <clipPath
       clipPathUnits="userSpaceOnUse"
       id="clipPath1">
      <ellipse
         class="cls-1"
         cx="30.839443"
         cy="30.843063"
         id="ellipse1"
         rx="26.795563"
         ry="26.80411"
         style="stroke-width:0.373517" />
    </clipPath>
    <clipPath
       clipPathUnits="userSpaceOnUse"
       id="clipPath2">
      <ellipse
         class="cls-1"
         cx="30.839443"
         cy="30.843063"
         id="ellipse2"
         rx="26.795563"
         ry="26.80411"
         style="stroke-width:0.373517" />
    </clipPath>
    <clipPath
       clipPathUnits="userSpaceOnUse"
       id="clipPath3">
      <ellipse
         class="cls-1"
         cx="30.839443"
         cy="30.843063"
         id="ellipse3"
         rx="26.795563"
         ry="26.80411"
         style="stroke-width:0.373517" />
    </clipPath>
    <clipPath
       clipPathUnits="userSpaceOnUse"
       id="clipPath4">
      <ellipse
         class="cls-1"
         cx="30.839443"
         cy="30.843063"
         id="ellipse4"
         rx="26.795563"
         ry="26.80411"
         style="stroke-width:0.373517" />
    </clipPath>
    <clipPath
       clipPathUnits="userSpaceOnUse"
       id="clipPath5">
      <ellipse
         class="cls-1"
         cx="30.839443"
         cy="30.843063"
         id="ellipse5"
         rx="26.795563"
         ry="26.80411"
         style="stroke-width:0.373517" />
    </clipPath>
    <clipPath
       clipPathUnits="userSpaceOnUse"
       id="clipPath6">
      <ellipse
         class="cls-1"
         cx="30.839443"
         cy="30.843063"
         id="ellipse6"
         rx="26.795563"
         ry="26.80411"
         style="stroke-width:0.373517" />
    </clipPath>
    <clipPath
       clipPathUnits="userSpaceOnUse"
       id="clipPath7">
      <ellipse
         class="cls-1"
         cx="30.839443"
         cy="30.843063"
         id="ellipse7"
         rx="26.795563"
         ry="26.80411"
         style="stroke-width:0.373517" />
    </clipPath>
    <clipPath
       clipPathUnits="userSpaceOnUse"
       id="clipPath8">
      <ellipse
         class="cls-1"
         cx="30.839443"
         cy="30.843063"
         id="ellipse8"
         rx="26.795563"
         ry="26.80411"
         style="stroke-width:0.373517" />
    </clipPath>
    <clipPath
       clipPathUnits="userSpaceOnUse"
       id="clipPath9">
      <ellipse
         class="cls-1"
         cx="30.839443"
         cy="30.843063"
         id="ellipse9"
         rx="26.795563"
         ry="26.80411"
         style="stroke-width:0.373517" />
    </clipPath>
    <clipPath
       clipPathUnits="userSpaceOnUse"
       id="clipPath10">
      <ellipse
         class="cls-1"
         cx="30.839443"
         cy="30.843063"
         id="ellipse10"
         rx="26.795563"
         ry="26.80411"
         style="stroke-width:0.373517" />
    </clipPath>
    <clipPath
       clipPathUnits="userSpaceOnUse"
       id="clipPath11">
      <ellipse
         class="cls-1"
         cx="30.839443"
         cy="30.843063"
         id="ellipse11"
         rx="26.795563"
         ry="26.80411"
         style="stroke-width:0.373517" />
    </clipPath>
    <clipPath
       clipPathUnits="userSpaceOnUse"
       id="clipPath12">
      <ellipse
         class="cls-1"
         cx="30.839443"
         cy="30.843063"
         id="ellipse12"
         rx="26.795563"
         ry="26.80411"
         style="stroke-width:0.373517" />
    </clipPath>
    <clipPath
       clipPathUnits="userSpaceOnUse"
       id="clipPath13">
      <ellipse
         class="cls-1"
         cx="30.839443"
         cy="30.843063"
         id="ellipse13"
         rx="26.795563"
         ry="26.80411"
         style="stroke-width:0.373517" />
    </clipPath>
    <clipPath
       clipPathUnits="userSpaceOnUse"
       id="clipPath14">
      <ellipse
         class="cls-1"
         cx="30.839443"
         cy="30.843063"
         id="ellipse14"
         rx="26.795563"
         ry="26.80411"
         style="stroke-width:0.373517" />
    </clipPath>
    <clipPath
       clipPathUnits="userSpaceOnUse"
       id="clipPath15">
      <ellipse
         class="cls-1"
         cx="30.839443"
         cy="30.843063"
         id="ellipse15"
         rx="26.795563"
         ry="26.80411"
         style="stroke-width:0.373517" />
    </clipPath>
    <clipPath
       clipPathUnits="userSpaceOnUse"
       id="clipPath16">
      <ellipse
         class="cls-1"
         cx="30.839443"
         cy="30.843063"
         id="ellipse16"
         rx="26.795563"
         ry="26.80411"
         style="stroke-width:0.373517" />
    </clipPath>
    <clipPath
       clipPathUnits="userSpaceOnUse"
       id="clipPath17">
      <ellipse
         class="cls-1"
         cx="30.839443"
         cy="30.843063"
         id="ellipse17"
         rx="26.795563"
         ry="26.80411"
         style="stroke-width:0.373517" />
    </clipPath>
    <clipPath
       clipPathUnits="userSpaceOnUse"
       id="clipPath18">
      <ellipse
         class="cls-1"
         cx="30.839443"
         cy="30.843063"
         id="ellipse18"
         rx="26.795563"
         ry="26.80411"
         style="stroke-width:0.373517" />
    </clipPath>
    <clipPath
       clipPathUnits="userSpaceOnUse"
       id="clipPath19">
      <ellipse
         class="cls-1"
         cx="30.839443"
         cy="30.843063"
         id="ellipse19"
         rx="26.795563"
         ry="26.80411"
         style="stroke-width:0.373517" />
    </clipPath>
    <clipPath
       clipPathUnits="userSpaceOnUse"
       id="clipPath20">
      <circle
         class="cls-1"
         cx="74.919998"
         cy="74.220001"
         id="ellipse20"
         style="stroke-width:1"
         r="71.75" />
    </clipPath>
    <clipPath
       clipPathUnits="userSpaceOnUse"
       id="clipPath21">
      <ellipse
         class="cls-1"
         cx="30.839443"
         cy="30.843063"
         id="ellipse21"
         rx="26.795563"
         ry="26.80411"
         style="stroke-width:0.373517" />
    </clipPath>
    <clipPath
       clipPathUnits="userSpaceOnUse"
       id="clipPath22">
      <ellipse
         class="cls-1"
         cx="30.839443"
         cy="30.843063"
         id="ellipse22"
         rx="26.795563"
         ry="26.80411"
         style="stroke-width:0.373517" />
    </clipPath>
    <clipPath
       clipPathUnits="userSpaceOnUse"
       id="clipPath23">
      <ellipse
         class="cls-1"
         cx="30.839443"
         cy="30.843063"
         id="ellipse23"
         rx="26.795563"
         ry="26.80411"
         style="stroke-width:0.373517" />
    </clipPath>
    <clipPath
       clipPathUnits="userSpaceOnUse"
       id="clipPath24">
      <ellipse
         class="cls-1"
         cx="30.839443"
         cy="30.843063"
         id="ellipse24"
         rx="26.795563"
         ry="26.80411"
         style="stroke-width:0.373517" />
    </clipPath>
    <clipPath
       clipPathUnits="userSpaceOnUse"
       id="clipPath25">
      <ellipse
         class="cls-1"
         cx="30.839443"
         cy="30.843063"
         id="ellipse25"
         rx="26.795563"
         ry="26.80411"
         style="stroke-width:0.373517" />
    </clipPath>
    <clipPath
       clipPathUnits="userSpaceOnUse"
       id="clipPath26">
      <ellipse
         class="cls-1"
         cx="30.839443"
         cy="30.843063"
         id="ellipse26"
         rx="26.795563"
         ry="26.80411"
         style="stroke-width:0.373517" />
    </clipPath>
    <clipPath
       clipPathUnits="userSpaceOnUse"
       id="clipPath27">
      <ellipse
         class="cls-1"
         cx="30.839443"
         cy="30.843063"
         id="ellipse27"
         rx="26.795563"
         ry="26.80411"
         style="stroke-width:0.373517" />
    </clipPath>
    <clipPath
       clipPathUnits="userSpaceOnUse"
       id="clipPath28">
      <ellipse
         class="cls-1"
         cx="30.839443"
         cy="30.843063"
         id="ellipse28"
         rx="26.795563"
         ry="26.80411"
         style="stroke-width:0.373517" />
    </clipPath>
    <clipPath
       clipPathUnits="userSpaceOnUse"
       id="clipPath29">
      <ellipse
         class="cls-1"
         cx="30.839443"
         cy="30.843063"
         id="ellipse29"
         rx="26.795563"
         ry="26.80411"
         style="stroke-width:0.373517" />
    </clipPath>
    <clipPath
       clipPathUnits="userSpaceOnUse"
       id="clipPath30">
      <ellipse
         class="cls-1"
         cx="30.839443"
         cy="30.843063"
         id="ellipse30"
         rx="26.795563"
         ry="26.80411"
         style="stroke-width:0.373517" />
    </clipPath>
    <clipPath
       clipPathUnits="userSpaceOnUse"
       id="clipPath31">
      <ellipse
         class="cls-1"
         cx="30.839443"
         cy="30.843063"
         id="ellipse31"
         rx="26.795563"
         ry="26.80411"
         style="stroke-width:0.373517" />
    </clipPath>
    <clipPath
       clipPathUnits="userSpaceOnUse"
       id="clipPath32">
      <ellipse
         class="cls-1"
         cx="30.839443"
         cy="30.843063"
         id="ellipse32"
         rx="26.795563"
         ry="26.80411"
         style="stroke-width:0.373517" />
    </clipPath>
    <clipPath
       clipPathUnits="userSpaceOnUse"
       id="clipPath33">
      <circle
         class="cls-1"
         cx="74.919998"
         cy="74.220001"
         id="ellipse33"
         style="stroke-width:1"
         r="71.75" />
    </clipPath>
    <clipPath
       clipPathUnits="userSpaceOnUse"
       id="clipPath34">
      <ellipse
         class="cls-1"
         cx="30.839443"
         cy="30.843063"
         id="ellipse34"
         rx="26.795563"
         ry="26.80411"
         style="stroke-width:0.373517" />
    </clipPath>
    <clipPath
       clipPathUnits="userSpaceOnUse"
       id="clipPath35">
      <ellipse
         class="cls-1"
         cx="30.839443"
         cy="30.843063"
         id="ellipse35"
         rx="26.795563"
         ry="26.80411"
         style="stroke-width:0.373517" />
    </clipPath>
  </defs>
  <sodipodi:namedview
     id="namedview6"
     pagecolor="#ffffff"
     bordercolor="#000000"
     borderopacity="0.25"
     inkscape:showpageshadow="2"
     inkscape:pageopacity="0.0"
     inkscape:pagecheckerboard="0"
     inkscape:deskcolor="#d1d1d1"
     inkscape:zoom="22.627417"
     inkscape:cx="7.0268736"
     inkscape:cy="4.6182912"
     inkscape:window-width="1920"
     inkscape:window-height="994"
     inkscape:window-x="0"
     inkscape:window-y="0"
     inkscape:window-maximized="1"
     inkscape:current-layer="svg6" />
  <g
     id="g35"
     transform="translate(0.18345298)">
    <path
       class="cls-4"
       d="m 10.204271,6.2649402 c 0,0 0.08084,-0.70519 -0.05942,-1.203721 -0.14026,-0.498532 -0.1948036,-0.482863 -0.1948036,-0.482863 0,0 0.2220726,0.275218 0.3603826,0.849163 0.103246,0.426053 0.01457,0.60921 0.01457,0.60921 z"
       id="path5"
       style="fill:#ffffff;stroke-width:0.0976689" />
    <path
       class="cls-6"
       d="m 38.222695,88.407455 c 7.192788,-0.07845 14.400514,-2.118178 20.353424,-6.190161 3.043677,-1.908976 5.941706,-4.109341 8.316895,-6.776677 a 23.789232,23.796819 0 0 0 3.10343,-4.367108 C 70.467,70.326356 70.8666,69.500752 71.29981,68.716242 c 0.433211,-0.784511 0.802934,-1.610115 1.191329,-2.41704 a 46.002474,46.017145 0 0 0 3.361116,-10.198637 33.192887,33.203473 0 0 0 0.373457,-10.665607 l -0.08216,-0.66123 c -0.02988,-0.22041 -0.08216,-0.44082 -0.123241,-0.657494 l -0.26142,-1.311254 c -0.07096,-0.44082 -0.22034,-0.862961 -0.332377,-1.29631 L 75.053056,40.223567 C 74.743087,39.390492 74.459259,38.546209 74.119413,37.724341 73.779567,36.902473 73.372498,36.091812 72.972899,35.296094 A 27.083126,27.091763 0 0 0 70.175704,30.760876 17.619717,17.625336 0 0 0 68.401781,28.807071 15.935424,15.940506 0 0 0 66.347766,27.18575 l -0.496698,-0.328747 0.444414,-0.373577 a 2.293028,2.2937593 0 0 1 1.299632,-0.593986 2.7299731,2.7308437 0 0 1 1.348181,0.283918 c 0.373457,0.175581 0.724507,0.373576 1.053149,0.541685 a 3.1519799,3.1529851 0 0 0 0.941113,0.336219 l -0.414538,0.777039 a 14.023323,14.027795 0 0 0 -4.739173,-3.44811 18.415181,18.421054 0 0 0 -5.736305,-1.46442 l -1.202533,-0.119544 0.914971,-0.788247 a 4.3731853,4.37458 0 0 1 1.91957,-0.915262 7.2824179,7.2847404 0 0 1 2.024139,-0.134487 10.221527,10.224787 0 0 1 1.964386,0.321275 10.456805,10.46014 0 0 1 1.867286,0.668702 l -0.661019,0.818133 a 2.8644177,2.8653312 0 0 0 -0.328643,-0.373577 1.0270077,1.0273352 0 0 0 -0.153117,-0.115809 h -0.02241 a 0.21660525,0.21667433 0 0 0 0.08216,0 h 0.06349 a 0.37345733,0.37357643 0 0 0 0.08216,-0.01868 0.37345733,0.37357643 0 0 0 0.115771,-0.05604 0.52657484,0.52674277 0 0 0 0.13071,-0.127016 0.45188337,0.45202748 0 0 0 0.06722,-0.410934 0.18672866,0.18678822 0 0 0 -0.03361,-0.07098 c 0,0 0,0 0,0 a 1.2361438,1.236538 0 0 0 0.149382,0.104601 2.5283061,2.5291124 0 0 0 0.44068,0.197996 l -0.567655,0.90779 A 19.244256,19.250393 0 0 0 59.464944,18.36934 27.113002,27.121649 0 0 0 50.811937,17.061823 h -1.284693 l 0.814137,-0.986242 c 0.0971,-0.112073 0.190463,-0.227882 0.30997,-0.343691 l 0.104568,-0.09339 0.05228,-0.04856 0.07843,-0.0523 0.08216,-0.0523 a 1.2137363,1.2141234 0 0 1 0.160587,-0.06724 0.66848862,0.66870181 0 0 1 0.354784,0 0.52284026,0.523007 0 0 1 0.123241,0.03736 0.79172954,0.79198203 0 0 1 0.175525,0.115809 0.61620459,0.61640111 0 0 1 0.17926,0.291389 0.74691466,0.74715286 0 0 1 0.02988,0.224146 0.23901269,0.23908892 0 0 1 0,0.07471 v 0.0523 a 0.74691466,0.74715286 0 0 1 -0.05602,0.168109 1.0568842,1.0572213 0 0 1 -0.123241,0.201732 1.2734895,1.2738956 0 0 1 -0.276359,0.257767 1.3855267,1.3859686 0 0 1 -0.657285,0.235354 l -2.136175,0.216674 1.721638,-1.307518 a 6.5168304,6.5189087 0 0 1 2.311701,-1.094579 9.0824823,9.0853788 0 0 1 2.487226,-0.261503 15.819652,15.824698 0 0 1 4.750377,0.967563 l -0.590063,1.120729 -1.404199,-1.001185 -0.705835,-0.481913 -0.35105,-0.227882 -0.164321,-0.09713 -0.06349,-0.03362 c 0,0 0,0 0,0 h 0.02241 0.05975 0.06349 0.07843 a 0.46308709,0.46323477 0 0 0 0.100833,0 0.61993917,0.62013687 0 0 0 0.354785,-0.205467 0.63861203,0.6388157 0 0 0 0.149383,-0.530478 v -0.05604 -0.02241 -0.04483 l -0.06722,-0.06724 -0.02614,-0.04109 -0.02241,-0.02615 v 0 l 0.05602,0.0523 0.145648,0.12328 0.324908,0.250296 c 0.22034,0.16811 0.448149,0.328748 0.679692,0.48565 a 8.3280985,8.3307544 0 0 0 1.378058,0.78451 l -0.649816,1.120729 A 19.849257,19.855587 0 0 0 49.351723,12.57144 18.097742,18.103514 0 0 0 38.749269,14.461737 l -1.867286,0.993713 0.847748,-1.923919 a 5.6466748,5.6484756 0 0 1 1.419138,-1.890296 9.0152599,9.018135 0 0 1 1.867286,-1.27016 11.349368,11.352988 0 0 1 2.054016,-0.8256042 9.2169269,9.2198663 0 0 1 2.240744,-0.3735765 l -0.250217,1.4606837 a 13.04113,13.045289 0 0 0 -5.228402,-0.8629614 14.960701,14.965472 0 0 0 -5.194792,1.1618224 16.529221,16.534493 0 0 0 -7.947172,6.926107 l -0.3025,0.496857 -0.563921,-0.100866 c -0.698365,-0.12328 -1.3071,-0.295125 -1.897163,-0.399726 a 4.2760864,4.2774501 0 0 0 -1.602132,-0.05604 1.6469468,1.6474721 0 0 0 -0.597532,0.239089 1.8672866,1.8678822 0 0 0 -0.48176,0.459499 3.641209,3.6423702 0 0 0 -0.593797,1.430798 c 0,0.104601 -0.06722,0.313804 -0.104568,0.481913 l -0.134444,0.508064 a 8.9032227,8.9060621 0 0 1 -0.373458,1.012392 l -0.231543,0.489386 c -0.08216,0.164373 -0.186729,0.313804 -0.280093,0.46697 a 8.1637772,8.1663808 0 0 1 -0.608736,0.877905 10.5427,10.546063 0 0 1 -3.342443,2.514169 19.602775,19.609027 0 0 1 -3.794326,1.374761 l -0.466822,0.112073 -0.227809,0.05604 -0.164321,0.05604 A 5.2284026,5.23007 0 0 0 10.176049,28.213085 4.6346055,4.6360835 0 0 0 8.924967,29.21427 3.7345733,3.7357643 0 0 0 8.4917565,29.845614 2.5171024,2.5179051 0 0 0 8.338639,30.170625 c -0.048549,0.123281 -0.093364,0.26524 -0.1381792,0.403463 a 8.174981,8.1775881 0 0 0 -0.3510499,1.692301 4.2910247,4.2923932 0 0 0 0.7805258,3.018498 L 6.9680506,35.703292 A 7.9807831,7.9833283 0 0 1 7.8157988,33.002335 4.3134322,4.3148078 0 0 1 8.8353373,31.78074 3.133307,3.1343062 0 0 1 10.456142,31.089623 l 1.44528,-0.160637 -0.433211,1.400911 a 1.9158361,1.9164471 0 0 0 -0.09336,0.702324 0.87389015,0.87416885 0 0 0 0.194198,0.493121 2.3677195,2.3684746 0 0 0 1.344446,0.650023 l -0.970989,1.535399 a 3.5553138,3.5564476 0 0 1 -0.608735,-1.281367 3.9959934,3.9972678 0 0 1 -0.09337,-1.374761 4.5188337,4.5202748 0 0 1 1.041946,-2.420776 l 1.120372,-1.32246 0.57139,1.643736 a 2.1847254,2.1854221 0 0 0 0.746915,1.034807 1.4452799,1.4457408 0 0 0 1.056884,0.27271 l -0.444414,1.819318 a 2.4125344,2.4133037 0 0 1 -0.918705,-1.14688 2.6142013,2.615035 0 0 1 -0.06722,-1.382233 9.5119582,9.5149917 0 0 1 0.253951,-0.945148 6.4384044,6.4404577 0 0 0 0.186729,-0.717267 l 0.280093,-1.610114 1.303366,0.986241 a 4.4441422,4.4455595 0 0 0 1.262286,0.698588 1.0008656,1.0011848 0 0 0 0.911236,-0.100865 0.87015558,0.87043308 0 0 0 0.298766,-0.295126 2.9167017,2.9176319 0 0 0 0.250216,-0.608929 5.8968912,5.8987718 0 0 1 0.39213,-1.001185 3.0399427,3.0409121 0 0 1 0.903767,-1.027335 l 0.05975,-0.04109 0.06349,-0.03362 a 6.0686816,6.070617 0 0 1 2.636609,-0.601459 c 0.840279,-0.02241 1.605866,0.0523 2.304231,0.05977 l 0.05602,2.077085 c -0.145648,0 -0.295031,0 -0.451883,0 h -0.373458 -0.0971 -0.08963 -0.08963 a 0.88882845,0.8891119 0 0 1 -0.175525,-0.05977 l -0.08963,-0.04483 a 1.068088,1.0684286 0 0 1 -0.395865,-0.373576 1.0792917,1.0796359 0 0 1 -0.126975,-0.664966 0.98219278,0.98250601 0 0 1 0.112037,-0.336219 0.91123589,0.91152649 0 0 1 0.168056,-0.235353 1.0046002,1.0049206 0 0 1 0.224074,-0.179317 1.2734895,1.2738956 0 0 1 0.168056,-0.08219 l 0.104568,-0.03362 a 0.67222319,0.67243757 0 0 1 0.115772,-0.02241 h 0.09336 0.0971 0.373458 0.436945 v 2.084556 a 3.7345733,3.7357643 0 0 0 -1.01207,0.212939 1.4041996,1.4046474 0 0 0 -0.631143,0.433349 c -0.246481,0.336218 -0.276358,0.859225 0,1.557813 0.276359,0.698588 0.769322,1.434534 1.198798,2.379682 a 6.0163976,6.0183163 0 0 1 0.283828,0.784511 5.2806866,5.2823707 0 0 1 0.149383,0.825604 9.0750131,9.0779072 0 0 1 0.02988,1.520456 c -0.04855,0.967563 -0.186729,1.867882 -0.250217,2.7159 -0.02988,0.410934 -0.03361,0.874169 -0.0859,1.385969 a 4.3881236,4.3895231 0 0 1 -0.48176,1.703508 2.5320407,2.5328482 0 0 1 -0.746915,0.833076 2.5843247,2.5851489 0 0 1 -0.489229,0.287654 l -0.250216,0.08966 a 2.1249722,2.1256499 0 0 1 -0.231544,0.07098 7.5886529,7.5910731 0 0 1 -1.546113,0.216674 19.046324,19.052398 0 0 1 -2.856949,-0.145695 l 0.900032,-1.699773 a 11.233596,11.237179 0 0 0 2.266886,2.073349 6.5803182,6.5824167 0 0 0 2.655282,1.12073 l 0.328643,0.108337 a 0.45935252,0.45949901 0 0 1 0.0971,0.04483 0.04108031,0.04109341 0 0 1 0.02988,0 c 0,0 -0.08963,0 -0.112037,0.02615 a 1.4378107,1.4382693 0 0 0 0.242747,-0.373576 c 0.126976,-0.254032 0.246482,-0.571572 0.410803,-0.945148 l 0.466822,-0.975035 c 0.582593,-1.258952 1.142779,-2.555263 1.691762,-3.851573 0.548982,-1.29631 1.075557,-2.615035 1.598397,-3.918817 l 1.561052,-3.971117 0.369722,-0.941413 0.888829,0.373577 a 1.9121015,1.9127113 0 0 0 1.165187,0.100865 3.1146341,3.1156274 0 0 0 1.210001,-0.601458 6.0873545,6.0892958 0 0 0 1.811268,-2.405832 10.236465,10.23973 0 0 0 0.705835,-3.152985 c 0.05602,-1.053485 -0.115772,-2.103235 -0.631143,-2.820502 l 1.407934,-1.053485 a 6.1359039,6.1378607 0 0 1 0.709569,1.255216 7.9845177,7.9870641 0 0 1 0.429476,1.307518 8.2459378,8.2485676 0 0 1 0.212871,1.359818 5.9192987,5.9211864 0 0 1 -0.06722,1.442005 l -0.956051,-0.997449 a 13.246531,13.250756 0 0 1 5.69149,0.41467 17.757896,17.763559 0 0 1 5.060347,2.454397 27.034576,27.043198 0 0 1 4.208864,3.605013 l 0.937378,1.008656 0.896298,1.038542 c 0.283827,0.373577 0.575124,0.698588 0.858951,1.064693 0.283828,0.366105 0.563921,0.747153 0.83281,1.120729 a 19.535553,19.541783 0 0 1 3.361116,10.482555 24.696733,24.704609 0 0 1 -2.166052,10.729115 l 0.03361,-0.112073 -0.287562,1.550342 v 0.06724 l -0.02241,0.04856 a 25.727475,25.73568 0 0 1 -3.54411,5.532667 21.055524,21.062239 0 0 1 -2.307966,2.34606 19.289071,19.295223 0 0 1 -2.640343,1.953805 20.950956,20.957638 0 0 1 -6.027602,2.499226 19.546757,19.55299 0 0 1 -3.19306,0.664966 9.3028221,9.3057889 0 0 1 -3.260282,-0.212938 l 0.04855,-0.197996 a 9.0712785,9.0741715 0 0 0 3.174387,0.100866 19.191972,19.198093 0 0 0 3.1109,-0.747153 l 1.542379,-0.489385 C 44.791809,69.553053 45.295976,69.37 45.78894,69.157062 a 17.81018,17.81586 0 0 0 2.80093,-1.520456 18.938021,18.944061 0 0 0 2.505899,-1.961277 20.278733,20.2852 0 0 0 2.166052,-2.327381 24.819974,24.82789 0 0 0 3.278956,-5.435537 l -0.03735,0.115809 0.257685,-1.554078 v -0.0523 l 0.02241,-0.05977 A 23.621176,23.628709 0 0 0 58.650811,46.07751 18.247125,18.252944 0 0 0 55.338244,36.364523 C 53.22821,33.581378 50.729781,30.970079 47.869097,29.038689 a 16.290209,16.295404 0 0 0 -4.623401,-2.189158 11.651869,11.655585 0 0 0 -4.981921,-0.310068 l -1.161452,0.190524 0.179259,-1.199181 a 5.9753173,5.9772229 0 0 0 -1.008335,-3.993532 l 1.407934,-1.04975 a 5.1350383,5.1366759 0 0 1 0.847749,1.946334 7.8724805,7.8749911 0 0 1 0.156852,1.976219 11.950635,11.954446 0 0 1 -0.79173,3.735764 7.947172,7.9497064 0 0 1 -0.974724,1.755809 7.5849184,7.5873373 0 0 1 -1.39673,1.460684 4.9707171,4.9723023 0 0 1 -1.934509,0.967563 3.8727525,3.8739876 0 0 1 -2.315435,-0.179316 l 1.251082,-0.523007 -1.49383,3.95991 c -0.534044,1.333668 -1.04568,2.644921 -1.587193,3.978589 -0.541513,1.333668 -1.086761,2.637449 -1.699231,3.948703 l -0.448149,0.948884 c -0.123241,0.27271 -0.246482,0.620137 -0.43321,1.001185 a 3.6524127,3.6535775 0 0 1 -0.373458,0.616401 2.2855589,2.2862878 0 0 1 -0.690896,0.646287 1.9008978,1.901504 0 0 1 -1.120372,0.242825 2.8382757,2.8391809 0 0 1 -0.489229,-0.112073 c -0.13071,-0.0523 -0.26142,-0.108338 -0.373457,-0.16811 l 0.328642,0.108337 a 8.6455372,8.6482944 0 0 1 -3.506764,-1.44574 13.478075,13.482373 0 0 1 -2.696362,-2.446926 l -1.661885,-1.957541 2.561917,0.257768 a 17.152895,17.158365 0 0 0 2.543245,0.127016 5.6018599,5.6036464 0 0 0 1.120372,-0.156902 0.47802538,0.47817783 0 0 0 0.08963,-0.02989 0.51910569,0.51927124 0 0 1 0.07096,-0.02242 c 0.02614,-0.02615 0.07096,-0.02989 0.08963,-0.05604 a 0.50043282,0.50059242 0 0 0 0.149383,-0.179317 2.3975961,2.3983607 0 0 0 0.216605,-0.892847 c 0.04108,-0.373577 0.04481,-0.821869 0.07843,-1.314989 0.07096,-0.963828 0.201667,-1.834261 0.239013,-2.674808 a 7.2151956,7.2174966 0 0 0 -0.03735,-1.180501 3.0772884,3.0782698 0 0 0 -0.272624,-0.989978 c -0.313704,-0.702323 -0.829075,-1.494305 -1.22494,-2.461868 a 4.5263028,4.5277463 0 0 1 -0.35105,-1.71098 c 0,-0.164374 0,-0.328748 0.04108,-0.489386 0.04108,-0.160637 0.06722,-0.328747 0.115771,-0.485649 0.04855,-0.156902 0.119507,-0.310068 0.186729,-0.459499 a 2.9876586,2.9886114 0 0 1 0.291297,-0.455763 3.4955606,3.4966754 0 0 1 1.546113,-1.12073 5.6504094,5.6522114 0 0 1 1.628274,-0.347426 v 2.084557 H 24.98737 24.759561 c 0,0 0,0 0,0 h 0.04108 0.09336 l 0.09336,-0.02989 a 1.4154033,1.4158547 0 0 0 0.160586,-0.07845 1.120372,1.1207293 0 0 0 0.224075,-0.179317 1.0718225,1.0721644 0 0 0 0.168056,-0.231617 l 0.05228,-0.119545 a 1.0755571,1.0759001 0 0 0 0.05602,-0.216674 1.0456805,1.046014 0 0 0 -0.519105,-1.053486 0.56392057,0.56410041 0 0 0 -0.08216,-0.04109 0.85521729,0.85549002 0 0 0 -0.164321,-0.05604 h -0.06722 -0.03734 0.22034 c 0.112037,0 0.231543,0 0.351049,0 l 0.05602,2.077085 c -0.814137,0 -1.553582,-0.08592 -2.240744,-0.06724 a 3.947444,3.9487029 0 0 0 -1.755249,0.373576 l 0.12324,-0.07472 a 0.87015558,0.87043308 0 0 0 -0.272623,0.313804 4.279821,4.2811859 0 0 0 -0.257686,0.672438 4.7317044,4.7332134 0 0 1 -0.455618,1.042278 3.0175352,3.0184976 0 0 1 -2.240744,1.389704 3.2490788,3.2501149 0 0 1 -1.254816,-0.227881 6.3487746,6.3507993 0 0 1 -1.867287,-1.016128 l 1.598397,-0.638816 a 8.1114932,8.1140801 0 0 1 -0.246482,0.960091 7.0060595,7.0082938 0 0 0 -0.231543,0.743417 0.78799497,0.78824627 0 0 0 0,0.325012 0.47802538,0.47817783 0 0 0 0.168056,0.175581 l 2.012935,1.494306 -2.461084,0.306332 a 3.361116,3.3621879 0 0 1 -1.318304,-0.08966 3.4134,3.4144886 0 0 1 -1.176391,-0.571572 4.1379072,4.1392268 0 0 1 -1.419138,-1.994898 l 1.688027,0.325011 a 2.5133678,2.5141694 0 0 0 -0.593797,1.344875 1.7813915,1.7819596 0 0 0 0.30997,1.281368 l 1.516236,2.05467 -2.498429,-0.496857 A 5.3889893,5.3907079 0 0 1 11.255341,35.662199 3.5142335,3.5153542 0 0 1 10.064012,34.731994 2.8196028,2.820502 0 0 1 9.459011,33.207802 3.7569807,3.7581789 0 0 1 9.6457397,31.747118 l 1.0195383,1.255217 a 1.2062672,1.2066519 0 0 0 -0.646081,0.272711 2.4050652,2.4058322 0 0 0 -0.5564514,0.68738 6.240472,6.2424621 0 0 0 -0.6610195,2.02852 L 8.4282688,38.232405 7.1024953,36.364523 A 6.0500087,6.0519382 0 0 1 6.1539137,34.306117 6.4309352,6.4329861 0 0 1 6.0082653,32.064658 9.5978534,9.6009143 0 0 1 6.4526795,29.991309 c 0.052284,-0.164374 0.1083026,-0.328747 0.175525,-0.508064 A 5.1873223,5.1889766 0 0 1 6.88589,28.941559 5.5309031,5.5326669 0 0 1 7.5506441,27.992675 6.3823858,6.3844212 0 0 1 9.3170972,26.651535 6.905226,6.9074282 0 0 1 10.329167,26.195772 l 0.295031,-0.09339 0.239013,-0.05604 0.470556,-0.112073 a 17.761631,17.767295 0 0 0 3.476888,-1.214124 8.7164941,8.7192739 0 0 0 2.79346,-2.073349 6.1993917,6.2013687 0 0 0 0.496699,-0.679909 c 0.07096,-0.12328 0.156852,-0.235353 0.220339,-0.373576 l 0.182995,-0.373577 a 7.1479733,7.1502529 0 0 0 0.3025,-0.788246 l 0.0971,-0.41467 c 0.03361,-0.145695 0.06349,-0.250296 0.104568,-0.459499 a 5.2694829,5.2711634 0 0 1 0.933643,-2.088292 3.6860238,3.6871994 0 0 1 0.911236,-0.851754 3.4134,3.4144886 0 0 1 1.18386,-0.463235 5.9753173,5.9772229 0 0 1 2.240744,0.06351 c 0.675958,0.130752 1.303366,0.313804 1.867287,0.41467 l -0.877625,0.407198 a 18.146292,18.152079 0 0 1 8.772512,-7.5723943 16.518018,16.523285 0 0 1 5.74004,-1.2328022 14.6582,14.662875 0 0 1 5.810996,1.0011848 l 3.428338,1.3523467 -3.686024,0.09339 a 7.6446715,7.6471095 0 0 0 -1.844879,0.302597 9.7957858,9.7989098 0 0 0 -1.788861,0.702324 7.6558753,7.6583168 0 0 0 -1.557317,1.053485 4.2200678,4.2214137 0 0 0 -1.056884,1.378497 l -1.008335,-0.915262 a 18.430119,18.435997 0 0 1 5.60186,-1.867882 20.566295,20.572854 0 0 1 5.86328,-0.115809 21.160092,21.166841 0 0 1 10.688349,4.482917 l 3.570252,2.88401 -4.220068,-1.759545 A 9.2953529,9.2983173 0 0 1 57.948712,15.892532 C 57.70223,15.720687 57.459483,15.545106 57.201797,15.36579 l -0.373457,-0.283919 -0.182994,-0.160637 -0.104568,-0.0934 -0.06722,-0.07471 a 0.29876586,0.29886114 0 0 1 -0.05602,-0.06724 l -0.04108,-0.05977 c -0.01867,-0.03362 -0.03361,-0.06351 -0.04855,-0.09713 v -0.0523 -0.02615 a 0.47802538,0.47817783 0 0 1 0,-0.05604 0.66848862,0.66870181 0 0 1 0.149383,-0.545422 0.69089606,0.6911164 0 0 1 0.373457,-0.209203 h 0.104568 0.05602 a 0.23901269,0.23908892 0 0 1 0.07469,0 l 0.08963,0.02242 h 0.04481 l 0.100833,0.04483 0.126976,0.07098 0.205401,0.127016 0.373458,0.24656 0.724507,0.504328 1.415403,1.019864 3.67482,2.652393 -4.264882,-1.539135 a 14.404249,14.408843 0 0 0 -4.35451,-0.919005 c -1.456483,-0.0523 -2.920436,0.242824 -4.033339,1.083371 l -0.414538,-1.090843 a 0.17552495,0.17558092 0 0 0 0.07096,-0.02241 c 0,0 0,0 0,0 0,0 0,0 -0.01867,0.03736 a 0.37345733,0.37357643 0 0 0 -0.02614,0.07845 v 0.07845 a 0.46308709,0.46323477 0 0 0 0.02241,0.175581 0.63114289,0.63134417 0 0 0 0.156852,0.254032 0.54151313,0.54168582 0 0 0 0.156852,0.09713 l 0.100834,0.03736 a 0.66475405,0.66496605 0 0 0 0.26142,0 l 0.06722,-0.02989 v 0 h -0.01867 l -0.04481,0.03736 c -0.06349,0.06351 -0.134444,0.145695 -0.209136,0.231618 l -0.470556,-0.978771 a 28.233374,28.242378 0 0 1 9.026464,1.419591 20.364628,20.371123 0 0 1 7.842603,4.744421 l 1.762719,1.748337 -2.330374,-0.844283 a 3.5142335,3.5153542 0 0 1 -0.631143,-0.291389 2.1809908,2.1816864 0 0 1 -0.324907,-0.239089 1.5199713,1.5204561 0 0 1 -0.182995,-0.205467 0.99713107,0.99744907 0 0 1 -0.100833,-0.201731 0.61620459,0.61640111 0 0 1 0.07469,-0.552893 0.61247002,0.61266535 0 0 1 0.156853,-0.153167 0.78052582,0.78077474 0 0 1 0.149382,-0.07098 0.34731532,0.34742608 0 0 1 0.119507,-0.02615 h 0.0971 a 0.80293326,0.80318932 0 0 1 0.227809,0.04109 1.2436129,1.2440095 0 0 1 0.242747,0.112073 2.3938615,2.3946249 0 0 1 0.321173,0.239089 3.9026291,3.9038737 0 0 1 0.463087,0.511799 l 1.366854,1.770753 -2.031608,-0.945149 a 9.8854155,9.8885681 0 0 0 -3.439542,-0.911526 6.4869538,6.4890226 0 0 0 -1.729107,0.100865 3.361116,3.3621879 0 0 0 -1.467687,0.679909 l -0.287563,-0.90779 a 19.266664,19.272808 0 0 1 6.038805,1.591435 14.938293,14.943057 0 0 1 5.034205,3.735765 l 0.840279,0.941412 -1.258551,-0.186788 a 3.8988945,3.9001379 0 0 1 -1.23616,-0.437086 C 69.193511,27.33518 68.876072,27.148392 68.554899,26.99149 a 1.8448792,1.8454676 0 0 0 -0.896298,-0.212939 1.3855267,1.3859686 0 0 0 -0.773056,0.373577 l -0.05228,-0.717267 a 17.145426,17.150894 0 0 1 2.177256,1.737131 19.367497,19.373674 0 0 1 1.844879,2.069613 27.923405,27.93231 0 0 1 2.838276,4.699591 c 0.403334,0.818133 0.776791,1.640001 1.142779,2.476812 0.365988,0.836811 0.631143,1.718452 0.941113,2.577678 l 0.373457,1.32246 c 0.112037,0.444556 0.26142,0.877905 0.332377,1.329932 l 0.253951,1.348611 c 0.04108,0.224146 0.09336,0.444556 0.123241,0.672438 l 0.07469,0.679909 a 33.768012,33.778781 0 0 1 -0.455618,10.882281 46.51411,46.528944 0 0 1 -3.476887,10.306974 c -0.3996,0.814397 -0.795464,1.632529 -1.221206,2.431982 -0.425741,0.799454 -0.855217,1.598908 -1.333242,2.368475 a 23.938615,23.946249 0 0 1 -3.196795,4.419409 c -2.442411,2.708429 -5.388989,4.893851 -8.466278,6.787884 -0.765587,0.478178 -1.546113,0.937677 -2.330374,1.385969 a 26.844113,26.852674 0 0 1 -2.405065,1.273895 38.092648,38.104796 0 0 1 -5.093958,1.890297 39.130859,39.143338 0 0 1 -5.306828,1.120729 41.013084,41.026164 0 0 1 -5.411397,0.373577 z"
       id="path6"
       style="opacity:0.01;fill:#672f25;fill-opacity:0;stroke-width:0.373517"
       clip-path="url(#clipPath35)"
       transform="matrix(0.26080788,0,0,0.26217702,-0.48917081,-0.656861)" />
    <path
       class="cls-7"
       d="m 55.338244,36.364523 c -3.361116,-7.075538 -2.390127,-5.069432 -2.390127,-5.069432 0,0 -0.689014,-1.112203 1.062501,-0.955301 1.029327,0.08669 3.121976,2.959538 3.121976,2.959538 0.358288,-2.269848 0.864868,-4.512139 -0.512047,-7.104424 -0.307665,-3.667505 0.512047,7.104424 0.512047,7.104424 0,0 0.409478,-0.04148 -0.03529,-7.145907 1.621947,0.02952 -0.476745,0.04148 0,0 0,0 -3.154098,-4.431821 -5.560843,-9.312003 -4.877353,-7.4864712 -0.7021,-0.384783 -0.7021,-0.384783 0,0 -1.826207,0.586515 0.7021,0.384783 -2.431208,1.531663 3.699192,8.61411 5.560843,9.312003 0,0 -2.74871,-14.019065 -8.499953,-14.381434 -5.46368,-0.34369 -10.184181,2.05467 -10.184181,2.05467 0,0 0.332377,-1.019863 2.58059,-2.465604 1.28637,-0.855089 2.778564,-1.349205 4.320901,-1.4307978 0,0 -4.45908,-1.8678821 -10.524027,0.033622 -4.881087,1.5391348 -7.794055,5.8277918 -8.738902,7.4304348 -1.676823,-0.186788 -2.756115,-0.339954 -2.756115,-0.339954 -0.675957,-0.138224 -2.203398,-0.571572 -3.095961,1.983691 -0.892563,2.555262 -0.83281,3.877723 -2.93164,5.663418 -2.09883,1.785696 -7.6185295,2.013577 -8.7239632,3.571391 -1.1054337,1.557814 -1.8037989,4.012211 -1.6170703,5.103054 0.2037718,0.862031 0.5228418,1.692631 0.9485816,2.46934 0.1418063,-0.897257 0.4441629,-1.76159 0.8925631,-2.551527 0.3613666,-0.680441 1.0262458,-1.146976 1.7888608,-1.255217 0,0 -0.422007,1.210388 0.08963,2.009842 0.511636,0.799453 2.076422,1.083371 2.076422,1.083371 -0.369501,-0.530263 -0.54733,-1.170652 -0.504167,-1.815581 -0.02687,-0.764083 0.268565,-1.504277 0.814137,-2.039728 0.802933,2.338589 2.853214,1.983691 2.853214,1.983691 -0.413525,-0.436247 -0.646968,-1.012701 -0.65355,-1.61385 -0.05602,-0.799453 0.246481,-1.031071 0.601266,-1.51672 0,0 1.900898,1.229066 3.058615,0.840547 1.157718,-0.38852 1.027008,-3.197814 3.013801,-3.459318 0.870886,-0.101851 1.732469,-0.271725 2.576856,-0.508064 -0.687162,0.268975 -2.139911,1.068429 -1.79633,2.988612 0.448149,2.491754 1.829941,3.436903 1.721638,4.781778 -0.108302,1.344875 -0.07469,5.872621 -0.698365,6.907427 -0.623674,1.034807 -5.004328,0.556629 -5.004328,0.556629 0,0 1.594663,1.942598 3.305097,2.704694 1.710435,0.762095 3.077288,1.371025 3.700962,0.336218 0.623674,-1.034806 5.915564,-14.009115 5.915564,-14.009115 0,0 1.210002,0.612665 3.349913,-0.650023 2.13991,-1.262688 2.614201,-4.811664 2.614201,-4.811664 l 0.06722,-0.02615 c 0.111841,-1.037447 0.07285,-2.08563 -0.115772,-3.111892 -0.09141,-0.467832 -0.216214,-0.928511 -0.373457,-1.378497 -0.05586,-0.105869 -0.118222,-0.208176 -0.186729,-0.306332 0,0 0.05975,0 0.186729,0.306332 0.440754,0.834222 0.745833,1.733357 0.903767,2.6636 0.125623,0.560521 0.144626,1.13969 0.05602,1.707245 1.288428,-0.261504 4.929637,-0.478178 10.613658,3.336037 l -0.0523,-0.104602 c 9.575445,6.821506 3.090359,6.933572 -1.764586,19.515625 -2.203399,5.734399 0.295632,5.185081 -11.378642,3.929864 5.614324,-1.658538 -1.425349,-3.078162 -0.872632,2.783252 7.35182,0.09422 6.067227,-2.734953 12.251274,-6.713116 l 3.19865,-8.894761 c 0,0 -3.19865,8.894761 5.213469,-3.149335 z"
       id="path7"
       style="fill:#e1251b;fill-opacity:1;stroke-width:0.373517"
       sodipodi:nodetypes="cccccccccccccccccccsssccccsccccccscccsscsscsccccccccccccccccc"
       clip-path="url(#clipPath34)"
       transform="matrix(0.26080788,0,0,0.26217702,-0.48917081,-0.656861)" />
    <polygon
       class="cls-6"
       points="23.74,67.09 23.59,69.26 17.26,69.88 "
       id="polygon7"
       style="fill:#672f25"
       transform="matrix(0.09740061,0,0,0.09794316,0.25674502,0.1601403)"
       clip-path="url(#clipPath33)" />
    <path
       class="cls-6"
       d="m 37.352539,20.487524 c 0,0 1.777657,1.374762 2.614201,2.656129 a 9.3663098,9.3692969 0 0 1 1.090496,2.861595 l -3.768185,1.229067 a 8.9629759,8.9658343 0 0 0 0.321174,-4.034626 c -0.205402,-1.311253 -2.199664,-3.915081 -2.199664,-3.915081 z"
       id="path8"
       style="fill:#672f25;stroke-width:0.373517"
       clip-path="url(#clipPath32)"
       transform="matrix(0.26080788,0,0,0.26217702,-0.48917081,-0.656861)" />
    <path
       class="cls-6"
       d="m 41.326125,11.237772 c 0,0 -3.443277,2.196629 -4.272352,2.988611 a 10.957238,10.960732 0 0 0 -1.493829,1.890297 c 0,0 1.635743,-1.221595 2.614201,-1.867882 0.978458,-0.646287 4.197661,-1.849203 4.197661,-1.849203 l -2.158584,0.268975 z"
       id="path9"
       style="fill:#672f25;stroke-width:0.373517"
       clip-path="url(#clipPath31)"
       transform="matrix(0.26080788,0,0,0.26217702,-0.48917081,-0.656861)" />
    <path
       class="cls-8"
       d="m 35.552475,21.697912 c 0,0 1.665619,2.409568 1.329508,4.441824 -0.336112,2.032256 -1.120372,3.563919 -2.438677,3.978589 a 11.491282,11.494947 0 0 1 -2.748646,0.448291 7.0620781,7.0643303 0 0 0 3.480623,-3.773121 8.7276978,8.7304812 0 0 0 0.377192,-5.095583 z"
       id="path11"
       style="fill:#ff7f40;stroke-width:0.373517"
       clip-path="url(#clipPath30)"
       transform="matrix(0.26080788,0,0,0.26217702,-0.48917081,-0.656861)" />
    <path
       class="cls-6"
       d="m 22.966963,31.097095 c -0.313705,-1.561549 -0.627409,-3.698407 1.030742,-3.83663 a 13.560236,13.56456 0 0 1 3.081023,0.108337 4.8549453,4.8564936 0 0 0 -2.827072,-0.579043 9.9526378,9.9558119 0 0 0 -2.838276,0.982506 l 0.866421,1.311253 c 0,0 0.784261,2.480548 0.687162,2.013577 z"
       id="path12"
       style="fill:#672f25;stroke-width:0.373517"
       clip-path="url(#clipPath29)"
       transform="matrix(0.26080788,0,0,0.26217702,-0.48917081,-0.656861)" />
    <path
       class="cls-6"
       d="m 15.833928,30.129532 c 0,0 2.367719,0.650023 2.785991,0.466971 0.418273,-0.183053 1.766453,-1.972484 1.766453,-1.972484 L 19.6656,31.466936 17.798313,31.61263 Z"
       id="path13"
       style="fill:#672f25;stroke-width:0.373517"
       clip-path="url(#clipPath28)"
       transform="matrix(0.26080788,0,0,0.26217702,-0.48917081,-0.656861)" />
    <path
       class="cls-6"
       d="m 22.630851,42.106392 c 0,0 -2.300497,0.112073 -2.479757,0.642552 -0.179259,0.530478 2.102565,2.734579 2.102565,2.734579 l -4.455346,-3.537768 z"
       id="path14"
       style="fill:#672f25;stroke-width:0.373517"
       clip-path="url(#clipPath27)"
       transform="matrix(0.26080788,0,0,0.26217702,-0.48917081,-0.656861)" />
    <path
       class="cls-8"
       d="m 21.312547,43.088898 c 0,0 0.209136,0.452028 1.669354,1.281368 1.460218,0.829339 1.986793,0.706059 2.416269,0.209202 0.429476,-0.496856 5.097692,-13.138683 5.097692,-13.138683 0,0 -4.574852,11.715357 -6.21433,11.887202 a 9.4596742,9.462691 0 0 1 -2.968985,-0.239089 z"
       id="path15"
       style="fill:#ff7f40;stroke-width:0.373517"
       clip-path="url(#clipPath26)"
       transform="matrix(0.26080788,0,0,0.26217702,-0.48917081,-0.656861)" />
    <path
       class="cls-6"
       d="m 35.526333,16.161509 c 0,0 0.900032,-3.171664 4.481488,-5.297313 1.867286,-1.1207297 5.303094,-0.9302058 5.303094,-0.9302058 0,0 -3.017536,0.9862418 -4.347044,2.0135768 z"
       id="path16"
       style="fill:#672f25;stroke-width:0.373517"
       clip-path="url(#clipPath25)"
       transform="matrix(0.26080788,0,0,0.26217702,-0.48917081,-0.656861)" />
    <path
       class="cls-6"
       d="m 50.834349,16.471578 c 0,0 0.04596,-2.290024 0.119502,-2.192894 0.07354,0.09713 0.175861,2.428247 0.175861,2.428247 0,0 -0.09499,-1.143144 -0.157255,-0.825604 -0.06227,0.31754 -0.138108,0.590251 -0.138108,0.590251 z"
       id="path17"
       style="fill:#672f25;stroke-width:0.0639394"
       clip-path="url(#clipPath24)"
       transform="matrix(0.26080788,0,0,0.26217702,-0.48917081,-0.656861)" />
    <path
       class="cls-8"
       d="m 28.385829,14.323513 c 0,0 4.668216,-5.0246027 9.05634,-5.1740333 4.388123,-0.1494305 6.617664,0.239089 6.617664,0.239089 0,0 -5.149977,-0.09713 -8.9331,1.1991803 a 24.771425,24.779325 0 0 0 -6.740904,3.735764 z"
       id="path18"
       style="fill:#ff7f40;stroke-width:0.373517"
       clip-path="url(#clipPath23)"
       transform="matrix(0.26080788,0,0,0.26217702,-0.48917081,-0.656861)" />
    <path
       class="cls-8"
       d="m 35.526333,16.161509 c 0,0 6.173249,-5.005924 12.361437,-4.378315 3.681546,0.353005 0.03077,1.798875 3.24161,3.634898 0,0 0.156852,-3.272529 -6.337571,-2.230251 -6.494423,1.042278 -9.284149,3.197814 -9.284149,3.197814"
       id="path19"
       style="fill:#ff7f40;stroke-width:0.373517"
       sodipodi:nodetypes="cccsc"
       clip-path="url(#clipPath22)"
       transform="matrix(0.26080788,0,0,0.26217702,-0.48917081,-0.656861)" />
    <path
       class="cls-6"
       d="m 11.397255,35.688349 c 0,0 1.624539,0.500593 2.293028,0.638816 a 4.6980932,4.6995915 0 0 0 1.381792,0.03362 c 0,0 -1.684293,-1.150615 -1.867287,-1.5877 -0.182994,-0.437084 -0.746915,0.470706 -0.746915,0.470706 z"
       id="path21"
       style="fill:#672f25;stroke-width:0.373517"
       clip-path="url(#clipPath21)"
       transform="matrix(0.26080788,0,0,0.26217702,-0.48917081,-0.656861)" />
    <polygon
       class="cls-6"
       points="39.44,81.45 36.25,78.58 33.86,83.01 "
       id="polygon21"
       style="fill:#672f25"
       transform="matrix(0.09740061,0,0,0.09794316,0.25674502,0.1601403)"
       clip-path="url(#clipPath20)" />
    <path
       class="cls-6"
       d="m 20.240724,23.244518 a 13.306285,13.310528 0 0 0 1.553583,-2.293759 25.141147,25.149165 0 0 0 1.04568,-2.573941 l 0.156852,3.735764 z"
       id="path22"
       style="fill:#672f25;stroke-width:0.373517"
       clip-path="url(#clipPath19)"
       transform="matrix(0.26080788,0,0,0.26217702,-0.48917081,-0.656861)" />
    <path
       class="cls-9"
       d="m 19.609581,36.603612 a 0.67222319,0.67243757 0 0 1 -0.336111,-0.07098 0.80666783,0.80692509 0 0 1 -0.26142,-0.201731 0.90003217,0.9003192 0 0 1 -0.168056,-0.306333 1.2286746,1.2290665 0 0 1 -0.06349,-0.373576 v 0 a 1.1614523,1.1618227 0 0 1 0.05602,-0.373577 0.9784582,0.97877025 0 0 1 0.160586,-0.310068 0.77679125,0.77703897 0 0 1 0.257686,-0.209203 0.72077265,0.72100251 0 0 1 0.336111,-0.08219 0.74691466,0.74715286 0 0 1 0.336112,0.07098 0.72450722,0.72473827 0 0 1 0.257686,0.205467 0.99713107,0.99744907 0 0 1 0.17179,0.302597 1.374323,1.3747613 0 0 1 0.05602,0.362369 v 0 a 1.2622858,1.2626883 0 0 1 -0.05602,0.373576 0.97472363,0.97503448 0 0 1 -0.160587,0.310069 0.78799497,0.78824627 0 0 1 -0.257685,0.212938 0.72077265,0.72100251 0 0 1 -0.328643,0.08966 z m 0,-0.295126 a 0.37345733,0.37357643 0 0 0 0.197933,-0.0523 0.49296368,0.49312089 0 0 0 0.145648,-0.145695 0.74691466,0.74715286 0 0 0 0.09336,-0.216675 0.83654442,0.8368112 0 0 0 0.02988,-0.261503 v 0 a 0.87389015,0.87416885 0 0 0 -0.03735,-0.265239 0.69836521,0.69858792 0 0 0 -0.100833,-0.212939 0.45188337,0.45202748 0 0 0 -0.149383,-0.141959 0.37345733,0.37357643 0 0 0 -0.201667,-0.0523 0.37345733,0.37357643 0 0 0 -0.194198,0.05604 0.42947593,0.42961289 0 0 0 -0.149383,0.145695 0.69463063,0.69485216 0 0 0 -0.09336,0.212938 1.1689214,1.1692942 0 0 0 -0.02988,0.261504 v 0 a 1.1614523,1.1618227 0 0 0 0.03735,0.261503 0.70209978,0.70232369 0 0 0 0.100833,0.212939 0.51537112,0.51553547 0 0 0 0.153118,0.145695 0.37345733,0.37357643 0 0 0 0.197932,0.0523 z"
       id="path23"
       style="fill:url(#linearGradient55);stroke-width:0.373517"
       clip-path="url(#clipPath18)"
       transform="matrix(0.26080788,0,0,0.26217702,-0.48917081,-0.656861)" />
    <path
       class="cls-10"
       d="m 12.779047,39.457736 a 0.71703807,0.71726675 0 0 1 -0.324908,-0.07098 0.70956893,0.70979522 0 0 1 -0.250217,-0.19426 0.91123589,0.91152649 0 0 1 -0.164321,-0.295125 1.172656,1.17303 0 0 1 -0.05975,-0.373577 v 0 a 1.0718225,1.0721644 0 0 1 0.05228,-0.373576 0.90750131,0.90779072 0 0 1 0.164321,-0.29139 0.74691466,0.74715286 0 0 1 0.246482,-0.205467 0.67595777,0.67617334 0 0 1 0.324908,-0.07845 0.76558753,0.76583168 0 0 1 0.324908,0.06724 0.80666783,0.80692509 0 0 1 0.250216,0.197996 1.0232731,1.0235994 0 0 1 0.164321,0.295125 1.1502486,1.1506154 0 0 1 0.05975,0.373576 v 0 a 1.1875943,1.187973 0 0 1 -0.05228,0.373577 0.98966192,0.98997754 0 0 1 -0.156852,0.298861 0.72077265,0.72100251 0 0 1 -0.57139,0.283918 z m 0,-0.287654 a 0.37345733,0.37357643 0 0 0 0.190463,-0.0523 0.42947593,0.42961289 0 0 0 0.141914,-0.141959 0.6012663,0.60145805 0 0 0 0.08963,-0.205467 0.92990875,0.93020531 0 0 0 0.02988,-0.254032 v 0 a 0.92617418,0.92646955 0 0 0 -0.03735,-0.254032 0.69463063,0.69485216 0 0 0 -0.0971,-0.205467 0.42947593,0.42961289 0 0 0 -0.145648,-0.138223 0.37345733,0.37357643 0 0 0 -0.194198,-0.05977 0.37345733,0.37357643 0 0 0 -0.186728,0.05604 0.41827221,0.4184056 0 0 0 -0.141914,0.138223 0.6012663,0.60145805 0 0 0 -0.08963,0.205467 0.94484704,0.94514837 0 0 0 -0.02988,0.254032 v 0 a 0.92617418,0.92646955 0 0 0 0.03361,0.254032 0.69463063,0.69485216 0 0 0 0.0971,0.205467 0.47802538,0.47817783 0 0 0 0.149382,0.138223 0.37345733,0.37357643 0 0 0 0.190464,0.05977 z"
       id="path24"
       style="fill:url(#linear-gradient-2);stroke-width:0.373517"
       clip-path="url(#clipPath17)"
       transform="matrix(0.26080788,0,0,0.26217702,-0.48917081,-0.656861)" />
    <path
       class="cls-11"
       d="m 10.415062,41.915868 a 0.71703807,0.71726675 0 0 1 -0.324908,-0.07098 0.74691466,0.74715286 0 0 1 -0.2502165,-0.19426 0.98592735,0.98624178 0 0 1 -0.1643212,-0.295125 1.2697549,1.2701599 0 0 1 -0.059753,-0.373577 v 0 a 1.172656,1.17303 0 0 1 0.052284,-0.373576 0.94858162,0.94888413 0 0 1 0.1568521,-0.298861 0.82907527,0.82933967 0 0 1 0.2502166,-0.205467 0.7693221,0.76956745 0 0 1 0.321173,-0.07845 0.71703807,0.71726675 0 0 1 0.324908,0.07098 0.70956893,0.70979522 0 0 1 0.250216,0.19426 0.98592735,0.98624178 0 0 1 0.164321,0.295125 1.1539831,1.1543512 0 0 1 0.06349,0.373577 v 0 a 1.2921624,1.2925744 0 0 1 -0.05228,0.373576 0.92243961,0.92273378 0 0 1 -0.160586,0.298861 0.72077265,0.72100251 0 0 1 -0.57139,0.283918 z m 0,-0.287653 a 0.37345733,0.37357643 0 0 0 0.190463,-0.0523 0.46682166,0.46697054 0 0 0 0.141914,-0.141959 0.79546411,0.7957178 0 0 0 0.08963,-0.205467 0.92990875,0.93020531 0 0 0 0.02614,-0.254032 v 0 a 0.92617418,0.92646955 0 0 0 -0.03361,-0.254032 0.80293326,0.80318932 0 0 0 -0.0971,-0.205467 0.46308709,0.46323477 0 0 0 -0.145649,-0.138223 0.37345733,0.37357643 0 0 0 -0.373457,0 0.46682166,0.46697054 0 0 0 -0.145649,0.138223 0.7693221,0.76956745 0 0 0 -0.089629,0.209203 1.0755571,1.0759001 0 0 0 -0.029877,0.254032 v 0 a 1.09423,1.0945789 0 0 0 0.037346,0.254032 0.61247002,0.61266535 0 0 0 0.097099,0.205467 0.46308709,0.46323477 0 0 0 0.145648,0.138223 0.35104989,0.35116184 0 0 0 0.190463,0.0523 z"
       id="path25"
       style="fill:url(#linear-gradient-3);stroke-width:0.373517"
       clip-path="url(#clipPath16)"
       transform="matrix(0.26080788,0,0,0.26217702,-0.48917081,-0.656861)" />
    <path
       class="cls-12"
       d="m 12.808923,41.885982 a 0.71703807,0.71726675 0 0 1 -0.324908,-0.07098 0.70956893,0.70979522 0 0 1 -0.250216,-0.19426 0.91123589,0.91152649 0 0 1 -0.164321,-0.295125 1.1577177,1.1580869 0 0 1 -0.05975,-0.373577 v 0 a 1.0718225,1.0721644 0 0 1 0.05228,-0.373576 0.94858162,0.94888413 0 0 1 0.156852,-0.298861 0.72077265,0.72100251 0 0 1 0.571389,-0.283918 0.71703807,0.71726675 0 0 1 0.324908,0.07098 0.74691466,0.74715286 0 0 1 0.250217,0.19426 0.98592735,0.98624178 0 0 1 0.164321,0.295125 1.1502486,1.1506154 0 0 1 0.05975,0.373577 v 0 a 1.0867608,1.0871074 0 0 1 -0.05228,0.373576 0.98966192,0.98997754 0 0 1 -0.156852,0.298861 0.72077265,0.72100251 0 0 1 -0.57139,0.283918 z m 0,-0.287654 a 0.37345733,0.37357643 0 0 0 0.190464,-0.0523 0.42947593,0.42961289 0 0 0 0.141913,-0.141959 0.6012663,0.60145805 0 0 0 0.08963,-0.205467 0.92990875,0.93020531 0 0 0 0.02988,-0.254032 v 0 a 0.92617418,0.92646955 0 0 0 -0.03735,-0.254032 0.79919869,0.79945356 0 0 0 -0.09336,-0.205467 0.44067965,0.44082019 0 0 0 -0.149383,-0.138224 0.32864245,0.32874726 0 0 0 -0.190464,-0.04856 0.37345733,0.37357643 0 0 0 -0.190463,0.0523 0.45561794,0.45576324 0 0 0 -0.141914,0.138223 0.59006258,0.59025076 0 0 0 -0.08963,0.209203 0.91123589,0.91152649 0 0 0 -0.02988,0.254032 v 0 a 0.80293326,0.80318932 0 0 0 0.03735,0.254032 0.69089606,0.6911164 0 0 0 0.09336,0.205467 0.47429081,0.47444207 0 0 0 0.149383,0.138224 0.32864245,0.32874726 0 0 0 0.190463,0.04483 z"
       id="path26"
       style="fill:url(#linear-gradient-4);stroke-width:0.373517"
       clip-path="url(#clipPath15)"
       transform="matrix(0.26080788,0,0,0.26217702,-0.48917081,-0.656861)" />
    <path
       class="cls-13"
       d="m 12.8388,44.310493 a 0.66848862,0.66870181 0 0 1 -0.324908,-0.06724 0.79172954,0.79198203 0 0 1 -0.250216,-0.19426 0.91123589,0.91152649 0 0 1 -0.164322,-0.295126 1.172656,1.17303 0 0 1 -0.05975,-0.373576 v 0 a 1.1577177,1.1580869 0 0 1 0.05228,-0.373576 0.96725448,0.96756295 0 0 1 0.156852,-0.302597 0.74691466,0.74715286 0 0 1 0.246482,-0.201732 0.67595777,0.67617334 0 0 1 0.324908,-0.07845 0.70583435,0.70605945 0 0 1 0.575124,0.26524 0.94111247,0.9414126 0 0 1 0.164322,0.295125 1.120372,1.1207293 0 0 1 0.05975,0.373576 v 0 a 1.0867608,1.0871074 0 0 1 -0.05228,0.373577 0.98966192,0.98997754 0 0 1 -0.156852,0.298861 0.77305667,0.77330321 0 0 1 -0.246482,0.205467 0.71703807,0.71726675 0 0 1 -0.324908,0.07471 z m 0,-0.283918 a 0.35104989,0.35116184 0 0 0 0.186729,-0.0523 0.42947593,0.42961289 0 0 0 0.141913,-0.141959 0.6012663,0.60145805 0 0 0 0.08963,-0.205468 0.80293326,0.80318932 0 0 0 0.02988,-0.254032 v 0 a 0.80293326,0.80318932 0 0 0 -0.03735,-0.254031 0.74691466,0.74715286 0 0 0 -0.09336,-0.205468 0.44067965,0.44082019 0 0 0 -0.149383,-0.138223 0.37345733,0.37357643 0 0 0 -0.373458,0 0.41827221,0.4184056 0 0 0 -0.141913,0.138223 0.6012663,0.60145805 0 0 0 -0.08963,0.205468 0.94484704,0.94514837 0 0 0 -0.02988,0.254031 v 0 a 0.92617418,0.92646955 0 0 0 0.03735,0.254032 0.69089606,0.6911164 0 0 0 0.09336,0.205468 0.52284026,0.523007 0 0 0 0.149383,0.138223 0.37345733,0.37357643 0 0 0 0.190463,0.05604 z"
       id="path27"
       style="fill:url(#linear-gradient-5);stroke-width:0.373517"
       clip-path="url(#clipPath14)"
       transform="matrix(0.26080788,0,0,0.26217702,-0.48917081,-0.656861)" />
    <path
       class="cls-14"
       d="m 15.128093,41.856096 a 0.70583435,0.70605945 0 0 1 -0.575124,-0.265239 0.87389015,0.87416885 0 0 1 -0.164321,-0.295125 1.1502486,1.1506154 0 0 1 -0.05975,-0.373577 v 0 a 1.0867608,1.0871074 0 0 1 0.05228,-0.373576 0.98966192,0.98997754 0 0 1 0.156852,-0.298861 0.72077265,0.72100251 0 0 1 0.571389,-0.283919 0.71703807,0.71726675 0 0 1 0.324908,0.07098 0.74691466,0.74715286 0 0 1 0.250217,0.19426 1.0755571,1.0759001 0 0 1 0.164321,0.295125 1.1577177,1.1580869 0 0 1 0.05975,0.373577 v 0 a 1.0718225,1.0721644 0 0 1 -0.05228,0.373576 0.90750131,0.90779072 0 0 1 -0.156852,0.298861 0.72077265,0.72100251 0 0 1 -0.57139,0.283918 z m 0,-0.283918 a 0.37345733,0.37357643 0 0 0 0.190464,-0.05604 0.45561794,0.45576324 0 0 0 0.141913,-0.138224 0.62367374,0.62387264 0 0 0 0.08963,-0.209202 0.90003217,0.9003192 0 0 0 0.02988,-0.250297 v 0 a 0.92617418,0.92646955 0 0 0 -0.03735,-0.254032 0.69463063,0.69485216 0 0 0 -0.0971,-0.205467 0.46682166,0.46697054 0 0 0 -0.145648,-0.138223 0.37345733,0.37357643 0 0 0 -0.373458,0 0.45561794,0.45576324 0 0 0 -0.141913,0.138223 0.62367374,0.62387264 0 0 0 -0.08963,0.209203 0.92990875,0.93020531 0 0 0 -0.02988,0.254032 v 0 a 0.92617418,0.92646955 0 0 0 0.03361,0.254032 0.69463063,0.69485216 0 0 0 0.0971,0.205467 0.44067965,0.44082019 0 0 0 0.149383,0.138223 0.37345733,0.37357643 0 0 0 0.182994,0.0523 z"
       id="path28"
       style="fill:url(#linear-gradient-6);stroke-width:0.373517"
       clip-path="url(#clipPath13)"
       transform="matrix(0.26080788,0,0,0.26217702,-0.48917081,-0.656861)" />
    <path
       class="cls-18"
       d="M 10.474815,46.637874 A 0.66848862,0.66870181 0 0 1 10.149907,46.570631 0.74691466,0.74715286 0 0 1 9.8996907,46.372635 0.90376674,0.90405496 0 0 1 9.7353694,46.07751 1.2473475,1.2477453 0 0 1 9.6756163,45.703933 v 0 a 1.1577177,1.1580869 0 0 1 0.052284,-0.373576 0.96725448,0.96756295 0 0 1 0.1568521,-0.302597 0.71703807,0.71726675 0 0 1 0.2464816,-0.201731 0.67595777,0.67617334 0 0 1 0.324908,-0.07845 0.70583435,0.70605945 0 0 1 0.575124,0.265239 0.90376674,0.90405496 0 0 1 0.164322,0.295125 1.120372,1.1207293 0 0 1 0.05975,0.373577 v 0 a 1.0606188,1.0609571 0 0 1 -0.05228,0.373576 0.83280985,0.83307544 0 0 1 -0.156852,0.302597 0.71703807,0.71726675 0 0 1 -0.246482,0.201731 0.67595777,0.67617334 0 0 1 -0.324909,0.07845 z m 0,-0.283918 a 0.34358074,0.34369032 0 0 0 0.186729,-0.0523 0.46682166,0.46697054 0 0 0 0.141913,-0.141959 0.6012663,0.60145805 0 0 0 0.08963,-0.205467 0.80293326,0.80318932 0 0 0 0.02988,-0.254032 v 0 a 0.78052582,0.78077474 0 0 0 -0.03735,-0.250297 0.64981575,0.65002299 0 0 0 -0.09336,-0.205467 0.49296368,0.49312089 0 0 0 -0.149383,-0.141959 0.37345733,0.37357643 0 0 0 -0.190463,-0.04856 0.37345733,0.37357643 0 0 0 -0.190464,0.0523 0.46682166,0.46697054 0 0 0 -0.141914,0.141959 0.74691466,0.74715286 0 0 0 -0.08963,0.205467 0.92990875,0.93020531 0 0 0 -0.02988,0.254032 v 0 a 1.0643534,1.0646928 0 0 0 0.03735,0.250296 0.64981575,0.65002299 0 0 0 0.09336,0.205467 0.4892291,0.48938512 0 0 0 0.149383,0.141959 0.37345733,0.37357643 0 0 0 0.197933,0.04856 z"
       id="path32"
       style="fill:url(#linear-gradient-10);stroke-width:0.373517"
       clip-path="url(#clipPath9)"
       transform="matrix(0.26080788,0,0,0.26217702,-0.48917081,-0.656861)" />
    <path
       class="cls-19"
       d="m 15.098217,39.427849 a 0.71703807,0.71726675 0 0 1 -0.324908,-0.07472 0.74691466,0.74715286 0 0 1 -0.253951,-0.19426 0.9784582,0.97877025 0 0 1 -0.160587,-0.295125 1.0531497,1.0534855 0 0 1 -0.05975,-0.373576 v 0 a 1.0718225,1.0721644 0 0 1 0.05228,-0.373577 0.81787155,0.81813238 0 0 1 0.156852,-0.298861 0.72077265,0.72100251 0 0 1 0.57139,-0.283918 0.71703807,0.71726675 0 0 1 0.324908,0.07098 0.74691466,0.74715286 0 0 1 0.250216,0.19426 0.9784582,0.97877025 0 0 1 0.160587,0.295126 1.1577177,1.1580869 0 0 1 0.06349,0.373576 v 0 a 1.172656,1.17303 0 0 1 -0.05228,0.373576 0.94858162,0.94888413 0 0 1 -0.156852,0.298862 0.72077265,0.72100251 0 0 1 -0.571389,0.283918 z m 0,-0.287653 a 0.37345733,0.37357643 0 0 0 0.190463,-0.0523 0.42947593,0.42961289 0 0 0 0.141914,-0.141959 0.74691466,0.74715286 0 0 0 0.08963,-0.205467 0.91123589,0.91152649 0 0 0 0.02988,-0.254032 v 0 a 1.09423,1.0945789 0 0 0 -0.03735,-0.254032 0.69463063,0.69485216 0 0 0 -0.0971,-0.205467 0.46308709,0.46323477 0 0 0 -0.145648,-0.138223 0.34358074,0.34369032 0 0 0 -0.194198,-0.04856 0.37345733,0.37357643 0 0 0 -0.186728,0.0523 0.45561794,0.45576324 0 0 0 -0.141914,0.138224 0.59006258,0.59025076 0 0 0 -0.08963,0.209202 0.80293326,0.80318932 0 0 0 -0.02988,0.254032 v 0 a 0.92617418,0.92646955 0 0 0 0.03361,0.254032 0.69463063,0.69485216 0 0 0 0.0971,0.205467 0.44067965,0.44082019 0 0 0 0.149382,0.138224 0.32864245,0.32874726 0 0 0 0.190464,0.04857 z"
       id="path33"
       style="fill:url(#linear-gradient-11);stroke-width:0.373517"
       clip-path="url(#clipPath8)"
       transform="matrix(0.26080788,0,0,0.26217702,-0.48917081,-0.656861)" />
    <path
       class="cls-20"
       d="m 17.014053,37.111676 -0.347316,0.100865 -0.07469,-0.276446 0.515371,-0.171846 h 0.239013 l 0.02614,1.946334 h -0.321173 z"
       id="path34"
       style="fill:url(#linear-gradient-12);stroke-width:0.373517"
       clip-path="url(#clipPath7)"
       transform="matrix(0.26080788,0,0,0.26217702,-0.48917081,-0.656861)" />
    <path
       class="cls-21"
       d="m 7.9241014,40.402884 -0.332377,0.09713 -0.070957,-0.26524 0.4966982,-0.168109 h 0.2315436 l 0.022407,1.867882 H 7.9465088 Z"
       id="path35"
       style="fill:url(#linear-gradient-13);stroke-width:0.373517"
       clip-path="url(#clipPath6)"
       transform="matrix(0.26080788,0,0,0.26217702,-0.48917081,-0.656861)" />
    <path
       class="cls-22"
       d="M 7.9577126,42.827395 7.621601,42.924525 7.550644,42.659286 8.0473422,42.494912 h 0.2315436 l 0.022407,1.867882 H 7.9763854 Z"
       id="path36"
       style="fill:url(#linear-gradient-14);stroke-width:0.373517"
       clip-path="url(#clipPath5)"
       transform="matrix(0.26080788,0,0,0.26217702,-0.48917081,-0.656861)" />
    <path
       class="cls-23"
       d="m 10.467346,42.797509 -0.332377,0.09713 -0.07469,-0.26524 0.500433,-0.164373 h 0.231544 l 0.02241,1.867882 h -0.324908 z"
       id="path37"
       style="fill:url(#linear-gradient-15);stroke-width:0.373517"
       clip-path="url(#clipPath4)"
       transform="matrix(0.26080788,0,0,0.26217702,-0.48917081,-0.656861)" />
    <path
       class="cls-24"
       d="m 7.9838546,45.12489 -0.3323771,0.09713 -0.074691,-0.265239 0.5004328,-0.164374 h 0.2315435 l 0.022407,1.867882 H 8.0025274 Z"
       id="path38"
       style="fill:url(#linear-gradient-16);stroke-width:0.373517"
       clip-path="url(#clipPath3)"
       transform="matrix(0.26080788,0,0,0.26217702,-0.48917081,-0.656861)" />
    <path
       class="cls-25"
       d="m 8.0137312,47.306576 -0.3361116,0.09713 -0.070957,-0.265239 0.4966982,-0.168109 h 0.2315436 l 0.022407,1.867882 H 8.032404 Z"
       id="path39"
       style="fill:url(#linear-gradient-17);stroke-width:0.373517"
       clip-path="url(#clipPath2)"
       transform="matrix(0.26080788,0,0,0.26217702,-0.48917081,-0.656861)" />
    <path
       class="cls-7"
       d="m 10.483808,5.7752242 c 0,0 1.767821,0.89324 1.767821,3.059741 0,1.8188058 -0.945759,3.7610218 -4.1112794,4.3819558 -3.8346625,0.753221 -6.4508436,-2.067548 -6.4508436,-2.067548 0,0 1.9706154,3.171256 5.0521701,3.350627 3.0466901,-0.04406 4.9372389,-1.366333 4.9372389,-1.366333 0.210109,0.21609 1.692944,-1.810901 2.250376,-2.66805 0.246422,-0.8266248 0.636214,-2.0312958 0.636214,-2.0312958 l -0.666832,-2.201703 -2.922019,-1.282076 z"
       id="path41"
       style="fill:#e1251b;stroke-width:0.0976689"
       sodipodi:nodetypes="csccccccccc" />
    <path
       class="cls-6"
       d="m 9.8283015,6.2012742 c 0.3530975,-0.01571 0.7063255,0.02799 1.0451065,0.129288 0.348498,0.09698 0.656175,0.305297 0.876605,0.593533 0.19645,0.303421 0.329041,0.644076 0.389606,1.000978 0.07082,0.350261 0.10348,0.707239 0.0974,1.064614 -0.0072,0.723308 -0.176295,1.4356988 -0.494795,2.0842748 -0.165267,0.329398 -0.381604,0.630254 -0.640896,0.891285 -0.06428,0.06754 -0.135388,0.127326 -0.205516,0.187998 -0.07013,0.06074 -0.141228,0.110725 -0.212333,0.166532 -0.07111,0.05582 -0.141227,0.108762 -0.215256,0.15867 -0.07402,0.04994 -0.146101,0.103804 -0.222071,0.151808 -0.6067906,0.399923 -1.2796513,0.687811 -1.9869742,0.85014 -0.7144633,0.157843 -1.4540905,0.161548 -2.1700823,0.01087 C 5.7387868,13.412545 5.3946894,13.30811 5.0595673,13.178797 4.7284032,13.052458 4.4050351,12.916321 4.0855601,12.766439 3.4516358,12.471456 2.8382402,12.133772 2.2495579,11.75569 l 0.02533,-0.05193 c 0.6594053,0.223338 1.3110161,0.456394 1.9645727,0.673861 l 0.4870034,0.159626 c 0.1636311,0.04899 0.3272659,0.09797 0.4869999,0.145931 0.3195955,0.09751 0.644887,0.175031 0.9740089,0.232121 0.6482367,0.109605 1.3096257,0.115516 1.959698,0.01752 0.6538486,-0.111018 1.2814191,-0.343513 1.850612,-0.685594 0.072071,-0.04214 0.1422032,-0.08914 0.2133072,-0.133214 0.07111,-0.04407 0.141231,-0.09113 0.20941,-0.141055 0.137303,-0.09046 0.267549,-0.191308 0.389606,-0.301677 0.240468,-0.222668 0.444004,-0.482549 0.602906,-0.769811 0.323401,-0.593441 0.512947,-1.2511858 0.555185,-1.9265558 0.02549,-0.338768 0.01438,-0.679317 -0.03312,-1.015679 -0.03996,-0.332089 -0.145605,-0.65278 -0.310705,-0.943186 -0.194163,-0.273949 -0.471275,-0.477358 -0.789919,-0.579827 -0.322779,-0.113803 -0.167407,-0.397863 -0.509447,-0.399483 z"
       id="path42"
       style="fill:#672f25;stroke-width:0.0976689"
       sodipodi:nodetypes="ccccccccccccccccccccccccccccccccc" />
    <path
       class="cls-27"
       d="m 8.5543015,13.794791 c 2.9600025,-0.57787 3.8901805,-2.384886 4.0294615,-4.0920268 0.164608,-2.025475 -0.822063,-2.938325 -1.370425,-3.376123 0.356484,0.293828 1.000302,1.267376 1.000302,2.508324 0,1.8188058 -0.945759,3.7610218 -4.111277,4.3819558 -2.0668428,0.404539 -4.6966571,-0.819753 -5.837219,-1.488738 0.9009551,0.880539 3.6603148,2.58082 6.2891575,2.066608 z"
       id="path43"
       style="fill:#ff9e18;stroke-width:0.0976689" />
  </g>
</svg>
