<?xml version="1.0" encoding="UTF-8" standalone="no"?>
<!-- Generator: Gravit.io -->

<svg
   style="isolation:isolate"
   viewBox="0 0 16 16"
   width="16"
   height="16"
   version="1.1"
   id="svg2"
   sodipodi:docname="ghostwriter.svg"
   inkscape:version="1.4.4 (unknown)"
   xmlns:inkscape="http://www.inkscape.org/namespaces/inkscape"
   xmlns:sodipodi="http://sodipodi.sourceforge.net/DTD/sodipodi-0.dtd"
   xmlns:xlink="http://www.w3.org/1999/xlink"
   xmlns="http://www.w3.org/2000/svg"
   xmlns:svg="http://www.w3.org/2000/svg">
  <defs
     id="defs2">
    <linearGradient
       id="linearGradient2"
       inkscape:collect="always">
      <stop
         style="stop-color:#8d5fd3;stop-opacity:1"
         offset="0"
         id="stop3" />
      <stop
         style="stop-color:#00ccff;stop-opacity:1"
         offset="1"
         id="stop4" />
    </linearGradient>
    <linearGradient
       inkscape:collect="always"
       xlink:href="#linearGradient2"
       id="linearGradient4"
       x1="1.8671075"
       y1="8"
       x2="14.132892"
       y2="8"
       gradientUnits="userSpaceOnUse" />
  </defs>
  <sodipodi:namedview
     id="namedview2"
     pagecolor="#ffffff"
     bordercolor="#000000"
     borderopacity="0.25"
     inkscape:showpageshadow="2"
     inkscape:pageopacity="0.0"
     inkscape:pagecheckerboard="0"
     inkscape:deskcolor="#d1d1d1"
     inkscape:document-units="px"
     inkscape:zoom="23.65625"
     inkscape:cx="11.202114"
     inkscape:cy="13.675033"
     inkscape:window-width="1920"
     inkscape:window-height="994"
     inkscape:window-x="0"
     inkscape:window-y="0"
     inkscape:window-maximized="1"
     inkscape:current-layer="svg2" />
  <linearGradient
     id="_lgradient_21"
     x1="0.061897106"
     y1="0.14716151"
     x2="0.99042481"
     y2="0.98658085"
     gradientTransform="matrix(12.265792,0,0,13.00029,1.8671075,1.5)"
     gradientUnits="userSpaceOnUse">
    <stop
       offset="0%"
       stop-opacity="1"
       style="stop-color:rgb(22,181,228)"
       id="stop1" />
    <stop
       offset="98.26086956521739%"
       stop-opacity="1"
       style="stop-color:rgb(245,32,250)"
       id="stop2" />
  </linearGradient>
  <path
     d="m 3.1096352,10.019361 v 0 c 0.030447,0.318969 -0.20356,0.601691 -0.5225286,0.631558 v 0 c -0.3189686,0.02958 -0.6025607,-0.2053 -0.6330077,-0.524268 v 0 C 1.8961046,9.502632 1.8671075,9.2077311 1.8671075,8.5805228 1.8700072,8.081192 1.8990044,7.5818612 1.9598984,7.08543 2.0297815,6.5368041 2.1428703,5.9968772 2.3026446,5.471449 2.4331318,5.0388116 2.6103043,4.6235724 2.8309726,4.231821 2.9498609,4.0198519 3.0835377,3.8194816 3.2288134,3.6249108 3.3679997,3.4419388 3.5190748,3.2650562 3.6814589,3.1023822 3.8412331,2.942608 4.0126063,2.7918228 4.1952883,2.6552463 4.3782602,2.51606 4.5699314,2.3910823 4.7732014,2.2779934 5.2116382,2.0341274 5.6790722,1.8511554 6.1668041,1.7348769 6.7647253,1.5898911 7.3742453,1.5115989 7.9898546,1.5 c 0.0029,0 0.0058,0 0.0087,0 h 0.2351668 c 0.0029,0 0.0058,0 0.0058,0 0.3891416,0.0029 0.7721939,0.043496 1.1526361,0.1159886 0.359855,0.072493 0.7142005,0.1800722 1.0508575,0.3279577 0.664904,0.2902614 1.254126,0.7286982 1.727359,1.2776142 0.214868,0.2496654 0.40654,0.5167291 0.574724,0.7982914 0.194571,0.3221583 0.360144,0.6617148 0.502229,1.0102605 0.151076,0.365654 0.276053,0.7402971 0.374644,1.1204497 0.121788,0.4645343 0.220668,0.9319682 0.293161,1.4052016 0.029,0.1916712 0.05509,0.3833423 0.07829,0.5721137 0.02349,0.2087795 0.04379,0.4149492 0.06118,0.6240186 0.05509,0.6330076 0.07829,1.268625 0.07829,1.901633 -0.0029,0.879483 -0.0348,1.756357 -0.0348,1.756357 -0.03683,0.482222 -0.220379,1.025919 -0.40944,1.21353 0,0 -0.400451,0.272863 -0.841787,0.470334 -0.342746,0.147885 -0.7142,0.226468 -1.088844,0.229367 -0.374352,-0.0029 -0.743197,-0.08148 -1.085653,-0.229367 -0.20617,-0.09308 -0.40364,-0.20037 -0.589512,-0.325058 C 9.8769775,13.933976 9.6563095,14.082151 9.4240425,14.206839 9.0697085,14.392711 8.6808566,14.494201 8.2801161,14.5 7.8854649,14.4971 7.4963232,14.392711 7.153867,14.19814 6.9389981,14.076352 6.7386278,13.931076 6.5556559,13.768692 6.3929819,13.861483 6.2218987,13.942675 6.0476259,14.009368 5.7138687,14.131446 5.3624233,14.19524 5.0083682,14.19524 4.645324,14.19234 4.2883691,14.131446 3.9456228,14.015458 3.5770691,13.88758 3.2259137,13.713307 2.9005657,13.501338 v 0 C 2.6314722,13.326776 2.5546298,12.967211 2.7294826,12.698697 v 0 c 0.1745628,-0.268223 0.5347073,-0.344486 0.8040908,-0.169923 v 0 c 0.2467657,0.159774 0.5109297,0.290551 0.7895923,0.386242 0.223568,0.07539 0.4558351,0.116279 0.6881022,0.119178 0.2148689,0 0.426838,-0.03799 0.6269183,-0.113379 0.4384368,-0.165573 0.8159797,-0.455835 0.8159797,-0.455835 0.1504951,-0.209939 0.3676837,-0.172243 0.4848322,0.08438 0,0 0.3511554,0.385952 0.7895923,0.641417 0.1684734,0.09308 0.3569548,0.145276 0.548626,0.148175 0.2090694,-0.0029 0.4123394,-0.05799 0.5982111,-0.156874 0.464244,-0.249666 0.859185,-0.61242 0.859185,-0.61242 0.157165,-0.243576 0.4146605,-0.265904 0.5747245,-0.04959 0,0 0.383342,0.310849 0.830478,0.50803 0.194571,0.08728 0.40625,0.130777 0.618219,0.133677 0.214869,-0.0029 0.426838,-0.0464 0.621409,-0.133677 0.185872,-0.08119 0.362754,-0.182682 0.362754,-0.182682 0.08989,-0.06727 0.181232,-0.416399 0.20414,-0.779153 0.002,-0.03393 0.02523,-0.721739 0.02523,-1.412741 0,-0.604011 -0.0232,-1.2048316 -0.07249,-1.8059425 -0.0174,-0.1942808 -0.0377,-0.3888517 -0.06089,-0.5834225 -0.0203,-0.1771726 -0.0435,-0.3540551 -0.06988,-0.5312277 C 12.701601,7.3002989 12.61171,6.8705612 12.498331,6.4469129 12.41134,6.1128658 12.30405,5.7878078 12.173273,5.4685493 12.054384,5.1721984 11.912009,4.8877364 11.746434,4.6148733 11.613048,4.3884056 11.461973,4.1764365 11.290599,3.9792559 10.930746,3.5611171 10.48361,3.2302596 9.9784785,3.0066916 9.7172145,2.8962125 9.4472515,2.8121208 9.1685885,2.7570262 8.8609289,2.6958423 8.5471798,2.6639454 8.2337206,2.6610457 H 8.0072529 C 7.478925,2.6726445 6.9534967,2.7396279 6.4367676,2.8643157 6.0534253,2.9542068 5.6848716,3.0994825 5.3392256,3.2911536 5.1855408,3.3781451 5.0344656,3.4770253 4.8949894,3.5814151 4.7558031,3.6858048 4.625026,3.7991836 4.5032379,3.9238713 4.3782602,4.048849 4.2622717,4.1822359 4.157592,4.3246119 4.0416034,4.475687 3.9369237,4.6351713 3.8441328,4.800745 3.6640606,5.1200036 3.5219746,5.4569504 3.4143952,5.8081058 3.2752089,6.2697404 3.1734289,6.7458735 3.1125349,7.227806 c -0.055095,0.4500357 -0.081192,0.9000714 -0.084092,1.3527168 0,0.5924117 0.028997,0.8525161 0.081192,1.4388382 z M 5.2328061,6.7044076 C 5.1922101,5.9565712 5.6613839,5.3221137 6.279893,5.288767 6.8984021,5.2551303 7.4336894,5.8347832 7.4742854,6.5826196 7.5148814,7.3304559 7.0457076,7.9649135 6.4271985,7.9985501 5.8086894,8.0321868 5.2736921,7.4522439 5.2328061,6.7044076 Z m 3.2929158,0 C 8.4851259,5.9565712 8.9542997,5.3221137 9.5728085,5.288767 10.191318,5.2551303 10.726316,5.8347832 10.767202,6.5826196 10.807798,7.3304559 10.338624,7.9649135 9.7201145,7.9985501 9.1016055,8.0321868 8.5663179,7.4522439 8.5257219,6.7044076 Z M 6.2285681,9.3170503 h 3.5428714 c 0.2946105,0 0.5335475,0.2215382 0.5335475,0.4941114 v 0 c 0,0.2725733 -0.238937,0.4938213 -0.5335475,0.4938213 H 6.2285681 c -0.294611,0 -0.5335475,-0.221248 -0.5335475,-0.4938213 v 0 c 0,-0.2725732 0.2389365,-0.4941114 0.5335475,-0.4941114 z"
     fill-rule="evenodd"
     id="path2"
     style="fill:url(#linearGradient4)" />
</svg>
