<?xml version="1.0" encoding="UTF-8" standalone="no"?>
<svg
   width="16"
   height="16"
   version="1.1"
   viewBox="0 0 16 16"
   id="svg1"
   sodipodi:docname="gnome-firmware.svg"
   inkscape:version="1.4.4 (unknown)"
   xmlns:inkscape="http://www.inkscape.org/namespaces/inkscape"
   xmlns:sodipodi="http://sodipodi.sourceforge.net/DTD/sodipodi-0.dtd"
   xmlns:xlink="http://www.w3.org/1999/xlink"
   xmlns="http://www.w3.org/2000/svg"
   xmlns:svg="http://www.w3.org/2000/svg">
  <defs
     id="defs1">
    <linearGradient
       id="linearGradient1"
       inkscape:collect="always">
      <stop
         style="stop-color:#49b700;stop-opacity:1;"
         offset="0"
         id="stop1" />
      <stop
         style="stop-color:#ffd42a;stop-opacity:1"
         offset="1"
         id="stop2" />
    </linearGradient>
    <linearGradient
       inkscape:collect="always"
       xlink:href="#linearGradient1"
       id="linearGradient2"
       x1="1.0665655"
       y1="7.9999999"
       x2="14.933435"
       y2="7.9999999"
       gradientUnits="userSpaceOnUse" />
  </defs>
  <sodipodi:namedview
     id="namedview1"
     pagecolor="#ffffff"
     bordercolor="#000000"
     borderopacity="0.25"
     inkscape:showpageshadow="2"
     inkscape:pageopacity="0.0"
     inkscape:pagecheckerboard="0"
     inkscape:deskcolor="#d1d1d1"
     inkscape:zoom="23.625"
     inkscape:cx="8.2116402"
     inkscape:cy="8.6137566"
     inkscape:current-layer="svg1"
     inkscape:window-width="1920"
     inkscape:window-height="994"
     inkscape:window-x="0"
     inkscape:window-y="0"
     inkscape:window-maximized="1" />
  <path
     d="m 2.366557,1.5000128 c -0.7143197,0 -1.2999915,0.5856718 -1.2999915,1.2999916 0,0.7143191 0.5856718,1.2999915 1.2999915,1.2999915 0.5585891,0 1.0392999,-0.3622385 1.2221653,-0.8632724 l 1.5436967,-0.0034 0.3148407,0.6229126 C 5.5555924,4.0695187 5.8128868,4.1541569 6.0295523,4.0492129 6.1311151,3.9984316 6.208977,3.9070284 6.2462171,3.7986957 6.280072,3.6903632 6.2732988,3.5684932 6.2225194,3.4669296 L 5.667319,2.3667083 3.5920992,2.3701 C 3.4092854,1.8656741 2.9285661,1.5000564 2.3665535,1.5000564 Z m 6.4999596,0 V 2.3666742 H 7.999853 V 3.2333348 H 7.1331917 V 4.0999959 H 7.999853 V 4.966657 H 7.1331917 V 5.8333183 H 7.999853 V 6.6999792 H 7.1331917 V 7.5666409 H 7.999853 v 0.86666 h 0.8666636 v 0.8666634 h 0.866663 V 8.4333009 H 10.599837 V 9.2999643 H 11.4665 V 8.4333009 h 0.86666 v 0.8666634 h 0.866661 V 8.4333009 h 0.866659 v -0.86666 h 0.866662 V 6.6999792 H 14.06648 V 5.8333183 h 0.866662 V 4.966657 H 14.06648 V 4.0999959 h 0.866662 V 3.2333348 H 14.06648 V 2.3666742 H 13.199821 V 1.5000128 H 12.33316 V 2.3666742 H 11.4665 V 1.5000128 H 10.599837 V 2.3666742 H 9.7331796 V 1.5000128 Z M 2.366557,2.3666742 c 0.2437484,0 0.4333305,0.1895821 0.4333305,0.4333302 0,0.2437483 -0.1895821,0.4333304 -0.4333305,0.4333304 -0.2437481,0 -0.43333,-0.1895821 -0.43333,-0.4333304 0,-0.2437482 0.1895819,-0.4333302 0.43333,-0.4333302 z m 6.9332866,0.8666606 h 3.4666444 c 0.240065,0 0.433333,0.1932655 0.433333,0.4333305 v 3.4666454 c 0,0.2400631 -0.193268,0.4333302 -0.433333,0.4333302 H 9.2998436 c -0.240063,0 -0.433327,-0.1932671 -0.433327,-0.4333302 V 3.6666654 c 0,-0.2400651 0.1932639,-0.4333306 0.433327,-0.4333306 z M 1.0665655,4.966657 v 0.8666613 h 2.7929884 l 0.9005475,1.4422112 h -0.0034 C 4.6145107,7.4820403 4.5332613,7.7325527 4.5332613,8.0000058 c 0,0.7143175 0.5856724,1.2999895 1.2999918,1.2999895 0.7143198,0 1.2999913,-0.585672 1.2999913,-1.2999895 0,-0.71432 -0.5856715,-1.2999922 -1.2999913,-1.2999922 -0.1286469,0 -0.2539053,0.020312 -0.3723955,0.054166 L 4.3402824,4.9666918 H 1.0666435 Z m 0,2.5999839 v 0.86666 h 1.4997568 l 1.7333223,2.5999831 h 0.8294203 l 0.6229129,1.283091 c -0.12187,0.128645 -0.2166654,0.28099 -0.2776001,0.450255 H 4.7668268 L 3.0335047,10.166652 H 1.0666175 v 0.866658 h 1.4997568 l 1.7333223,2.599981 h 1.1747591 c 0.1828135,0.501035 0.6635328,0.866665 1.2255453,0.866665 0.7143181,0 1.299992,-0.585674 1.299992,-1.299989 0,-0.714324 -0.5856739,-1.299994 -1.299992,-1.299994 -0.060936,0 -0.1218701,0.0069 -0.1828138,0.01351 L 6.0906258,11.033336 h 1.6588767 l 0.690621,1.195039 c -0.2708281,0.24036 -0.440095,0.585672 -0.440095,0.971613 0,0.714326 0.585671,1.299994 1.2999901,1.299994 0.7143184,0 1.2999924,-0.585668 1.2999924,-1.299994 0,-0.71432 -0.585674,-1.299991 -1.2999924,-1.299991 -0.01693,0 -0.03046,0 -0.04738,0.0033 l -0.501041,-0.869954 h 1.5979504 l 0.694002,1.19166 c -0.27083,0.240361 -0.443485,0.58906 -0.443485,0.974994 0,0.714316 0.585673,1.29999 1.29999,1.29999 0.714317,0 1.299993,-0.585674 1.299993,-1.29999 0,-0.714318 -0.585676,-1.299993 -1.299993,-1.299993 -0.01353,0 -0.03044,0 -0.04402,0.0033 l -0.50442,-0.869999 h 1.056284 c 0.182814,0.501035 0.663532,0.866664 1.225546,0.866664 0.714319,0 1.29999,-0.585672 1.29999,-1.299991 0,-0.7143237 -0.585671,-1.2999937 -1.29999,-1.2999937 -0.561978,0 -1.042676,0.3656279 -1.225546,0.8666607 H 4.7670693 L 3.0337475,7.56669 H 1.0668608 Z m 4.7666359,0 c 0.2437484,0 0.4333304,0.189579 0.4333304,0.4333262 0,0.2437494 -0.189582,0.4333338 -0.4333304,0.4333338 -0.2437487,0 -0.4333306,-0.1895844 -0.4333306,-0.4333338 0,-0.2437472 0.1895819,-0.4333262 0.4333306,-0.4333262 z m 7.7999476,2.5999861 c 0.243749,0 0.433331,0.189578 0.433331,0.43333 0,0.243747 -0.189582,0.433327 -0.433331,0.433327 -0.243747,0 -0.433328,-0.18958 -0.433328,-0.433327 0,-0.243752 0.189581,-0.43333 0.433328,-0.43333 z m -6.9332868,2.59998 c 0.2437489,0 0.4333295,0.189581 0.4333295,0.433328 0,0.243751 -0.1895806,0.433333 -0.4333295,0.433333 -0.2437485,0 -0.4333304,-0.189582 -0.4333304,-0.433333 0,-0.243747 0.1895819,-0.433328 0.4333304,-0.433328 z m 2.5999814,0 c 0.243748,0 0.433336,0.189581 0.433336,0.433328 0,0.243751 -0.189588,0.433333 -0.433336,0.433333 -0.243746,0 -0.433327,-0.189582 -0.433327,-0.433333 0,-0.243747 0.189581,-0.433328 0.433327,-0.433328 z m 2.5999854,0 c 0.243746,0 0.433331,0.189581 0.433331,0.433328 0,0.243751 -0.189585,0.433333 -0.433331,0.433333 -0.243747,0 -0.433329,-0.189582 -0.433329,-0.433333 0,-0.243747 0.189582,-0.433328 0.433329,-0.433328 z"
     fill="#dedede"
     id="path1"
     style="fill:url(#linearGradient2);fill-opacity:1;stroke-width:0.8125" />
</svg>
