<?xml version="1.0" encoding="UTF-8" standalone="no"?>
<svg
   width="16"
   height="16"
   viewBox="0 0 16 16"
   fill="none"
   version="1.1"
   id="svg7"
   sodipodi:docname="gnome-window-manager.svg"
   inkscape:version="1.4.4 (unknown)"
   xmlns:inkscape="http://www.inkscape.org/namespaces/inkscape"
   xmlns:sodipodi="http://sodipodi.sourceforge.net/DTD/sodipodi-0.dtd"
   xmlns:xlink="http://www.w3.org/1999/xlink"
   xmlns="http://www.w3.org/2000/svg"
   xmlns:svg="http://www.w3.org/2000/svg">
  <sodipodi:namedview
     id="namedview7"
     pagecolor="#ffffff"
     bordercolor="#000000"
     borderopacity="0.25"
     inkscape:showpageshadow="2"
     inkscape:pageopacity="0.0"
     inkscape:pagecheckerboard="0"
     inkscape:deskcolor="#d1d1d1"
     inkscape:zoom="26.285714"
     inkscape:cx="6.3532609"
     inkscape:cy="9.339674"
     inkscape:window-width="1920"
     inkscape:window-height="996"
     inkscape:window-x="0"
     inkscape:window-y="0"
     inkscape:window-maximized="1"
     inkscape:current-layer="svg7" />
  <path
     d="m 2.7265676,9.2999999 h 4.3945563 c 0.242663,0 0.439438,-0.194023 0.439438,-0.4333012 0,-0.2393761 -0.196775,-0.433398 -0.439438,-0.433398 H 2.7265676 c -0.2426621,0 -0.4394378,0.1940219 -0.4394378,0.433398 0,0.2392782 0.1967757,0.4333012 0.4394378,0.4333012 z m 0,1.7333011 h 4.3945563 c 0.242663,0 0.439438,-0.194023 0.439438,-0.433302 0,-0.239277 -0.196775,-0.433299 -0.439438,-0.433299 H 2.7265676 c -0.2426621,0 -0.4394378,0.194022 -0.4394378,0.433299 0,0.239278 0.1967757,0.433302 0.4394378,0.433302 z m 6.1523082,1.733398 h 4.3945572 c 0.242663,0 0.439437,-0.194021 0.439437,-0.4334 V 7.133301 c 0,-0.2392788 -0.196774,-0.4333015 -0.439437,-0.4333015 H 8.8788758 c -0.2426631,0 -0.439438,0.1940227 -0.439438,0.4333015 v 5.200001 c 0,0.239376 0.1967749,0.433397 0.439438,0.433397 z M 9.3184024,7.5666985 H 12.833996 V 11.899999 H 9.3184024 Z m -6.5918348,0 h 1.7578407 c 0.2426634,0 0.4394377,-0.194022 0.4394377,-0.4333975 0,-0.2392788 -0.1967743,-0.4333015 -0.4394377,-0.4333015 H 2.7265676 c -0.2426621,0 -0.4394378,0.1940227 -0.4394378,0.4333015 0,0.2393755 0.1967757,0.4333975 0.4394378,0.4333975 z m 0,-3.4666985 c 0.242663,0 0.4394381,-0.194023 0.4394381,-0.4333014 0,-0.2393759 -0.1967751,-0.4333991 -0.4394381,-0.4333991 -0.2426621,0 -0.4394378,0.1940232 -0.4394378,0.4333991 C 2.2871298,3.905977 2.4839055,4.1 2.7265676,4.1 Z M 15.060564,1.4999997 H 0.93945553 c -0.2426989,0 -0.43945555,0.1940227 -0.43945555,0.4333011 V 14.066698 c 0,0.239279 0.19675665,0.433302 0.43945555,0.433302 H 15.060564 C 15.303224,14.5 15.5,14.305978 15.5,14.066698 V 1.9333008 C 15.5,1.6940224 15.303224,1.4999997 15.060564,1.4999997 Z M 14.621124,13.633302 H 1.3789017 V 5.8332999 H 14.621124 Z m 0,-8.666603 H 1.3789017 V 2.3666991 H 14.621124 Z m -11.8945564,7.8 h 4.3945563 c 0.242663,0 0.439438,-0.194021 0.439438,-0.4334 0,-0.239277 -0.196775,-0.4333 -0.439438,-0.4333 H 2.7265676 c -0.2426621,0 -0.4394378,0.194023 -0.4394378,0.4333 0,0.239378 0.1967757,0.4334 0.4394378,0.4334 z M 4.4844083,4.1 c 0.2426634,0 0.4394377,-0.194023 0.4394377,-0.4333014 0,-0.2393759 -0.1967743,-0.4333991 -0.4394377,-0.4333991 -0.2427521,0 -0.4395273,0.1940232 -0.4395273,0.4333991 C 4.044881,3.905977 4.2416562,4.1 4.4844083,4.1 Z m 1.7577519,0 c 0.2427509,0 0.4394378,-0.194023 0.4394378,-0.4333014 0,-0.2393759 -0.1966869,-0.4333991 -0.4394378,-0.4333991 -0.2426631,0 -0.4394381,0.1940232 -0.4394381,0.4333991 C 5.8027221,3.905977 5.9994971,4.1 6.2421602,4.1 Z"
     stroke-width="0.372572"
     id="path2"
     style="fill:url(#linearGradient9);fill-opacity:1" />
  <defs
     id="defs7">
    <linearGradient
       id="linearGradient7"
       inkscape:collect="always">
      <stop
         style="stop-color:#9141ac;stop-opacity:1"
         offset="0"
         id="stop8" />
      <stop
         style="stop-color:#ffbe6f;stop-opacity:1"
         offset="1"
         id="stop9" />
    </linearGradient>
    <linearGradient
       id="paint0_linear"
       x1="26.8414"
       y1="85.259102"
       x2="86.040199"
       y2="7.0078702"
       gradientUnits="userSpaceOnUse">
      <stop
         stop-color="#0072FF"
         id="stop2" />
      <stop
         offset="1"
         stop-color="#00E5A1"
         id="stop3" />
    </linearGradient>
    <linearGradient
       id="paint1_linear"
       x1="157.5"
       y1="221"
       x2="157.5"
       y2="88"
       gradientUnits="userSpaceOnUse"
       gradientTransform="matrix(0.08661027,0,0,0.09501603,-5.6411157,-6.6799801)">
      <stop
         stop-color="#5570FF"
         id="stop4" />
      <stop
         offset="1"
         stop-color="#4DD3FF"
         id="stop5" />
    </linearGradient>
    <linearGradient
       id="paint2_linear"
       x1="157.5"
       y1="221"
       x2="157.5"
       y2="88"
       gradientUnits="userSpaceOnUse"
       gradientTransform="matrix(0.08661027,0,0,0.09501603,-5.6411157,-6.6799801)">
      <stop
         stop-color="#5570FF"
         id="stop6" />
      <stop
         offset="1"
         stop-color="#4DD3FF"
         id="stop7" />
    </linearGradient>
    <linearGradient
       inkscape:collect="always"
       xlink:href="#linearGradient7"
       id="linearGradient9"
       x1="3.125"
       y1="14.5"
       x2="11.958081"
       y2="4.9666991"
       gradientUnits="userSpaceOnUse" />
  </defs>
</svg>
