<?xml version="1.0" encoding="UTF-8" standalone="no"?>
<svg
   width="16"
   height="16"
   viewBox="0 0 4.2333332 4.2333334"
   version="1.1"
   id="svg1443"
   inkscape:version="1.4.4 (unknown)"
   sodipodi:docname="gnome-twofactorauth.svg"
   xmlns:inkscape="http://www.inkscape.org/namespaces/inkscape"
   xmlns:sodipodi="http://sodipodi.sourceforge.net/DTD/sodipodi-0.dtd"
   xmlns:xlink="http://www.w3.org/1999/xlink"
   xmlns="http://www.w3.org/2000/svg"
   xmlns:svg="http://www.w3.org/2000/svg"
   xmlns:rdf="http://www.w3.org/1999/02/22-rdf-syntax-ns#"
   xmlns:cc="http://creativecommons.org/ns#"
   xmlns:dc="http://purl.org/dc/elements/1.1/">
  <defs
     id="defs1437">
    <linearGradient
       id="linearGradient1"
       inkscape:collect="always">
      <stop
         style="stop-color:#3485fd;stop-opacity:1;"
         offset="0"
         id="stop1" />
      <stop
         style="stop-color:#3485fd;stop-opacity:1;"
         offset="1"
         id="stop2" />
    </linearGradient>
    <filter
       color-interpolation-filters="sRGB"
       height="1.1311001"
       width="1.1106"
       y="-0.065563001"
       x="-0.055319"
       id="c-9">
      <feGaussianBlur
         id="feGaussianBlur1093"
         stdDeviation="1.1062912" />
    </filter>
    <linearGradient
       gradientUnits="userSpaceOnUse"
       gradientTransform="matrix(0.13235,0,0,0.13075,-32.379,1.0873)"
       y2="269.48999"
       y1="235.14999"
       x2="657.65002"
       x1="319.20999"
       id="a-12">
      <stop
         id="stop1076"
         offset="0"
         stop-color="#e54c18" />
      <stop
         id="stop1078"
         offset="1"
         stop-color="#fec350" />
    </linearGradient>
    <linearGradient
       id="paint1_linear_8_721"
       x1="12.0001"
       y1="14.825"
       x2="12.0001"
       y2="8.7750196"
       gradientUnits="userSpaceOnUse"
       gradientTransform="matrix(0.58965537,0,0,0.59037149,1.1261742,1.2356487)">
      <stop
         stop-color="#02AA93"
         id="stop4" />
      <stop
         offset="1"
         stop-color="#67FF80"
         id="stop5" />
    </linearGradient>
    <linearGradient
       inkscape:collect="always"
       xlink:href="#linearGradient1"
       id="linearGradient2"
       x1="-1.3600134"
       y1="24.672567"
       x2="12.686057"
       y2="24.672567"
       gradientUnits="userSpaceOnUse" />
  </defs>
  <sodipodi:namedview
     id="base"
     pagecolor="#ffffff"
     bordercolor="#666666"
     borderopacity="1.0"
     inkscape:pageopacity="0.0"
     inkscape:pageshadow="2"
     inkscape:zoom="15.839192"
     inkscape:cx="16.28871"
     inkscape:cy="15.625797"
     inkscape:document-units="px"
     inkscape:current-layer="layer1"
     inkscape:document-rotation="0"
     showgrid="false"
     units="px"
     inkscape:window-width="1920"
     inkscape:window-height="994"
     inkscape:window-x="0"
     inkscape:window-y="0"
     inkscape:window-maximized="1"
     inkscape:showpageshadow="2"
     inkscape:pagecheckerboard="0"
     inkscape:deskcolor="#d1d1d1" />
  <metadata
     id="metadata1440">
    <rdf:RDF>
      <cc:Work
         rdf:about="">
        <dc:format>image/svg+xml</dc:format>
        <dc:type
           rdf:resource="http://purl.org/dc/dcmitype/StillImage" />
      </cc:Work>
    </rdf:RDF>
  </metadata>
  <g
     inkscape:label="Capa 1"
     inkscape:groupmode="layer"
     id="layer1">
    <g
       id="g2"
       transform="matrix(0.22286988,0,0,0.22286988,0.85454969,-3.3821055)">
      <rect
         ry="3.1142132"
         rx="3.1143851"
         y="17.64992"
         x="-1.3600134"
         height="14.045296"
         width="14.04607"
         id="rect849"
         style="fill:#000000;fill-opacity:0.01;stroke:url(#linearGradient2);stroke-width:1.38785;stroke-linecap:round;stroke-linejoin:round;stroke-dasharray:none" />
      <path
         d="m 6.1495018,23.373709 c 0,-0.129174 -0.0513,-0.253059 -0.14252,-0.3444 -0.09122,-0.09136 -0.21493,-0.142649 -0.343946,-0.142649 -0.129017,0 -0.252786,0.05132 -0.344004,0.142649 -0.09122,0.09136 -0.142461,0.215233 -0.142461,0.3444 v 0.455222 L 4.7828579,23.601649 c -0.055368,-0.03466 -0.1171653,-0.05777 -0.1816726,-0.068 -0.064511,-0.01027 -0.1303853,-0.0075 -0.1937495,0.0085 -0.063364,0.01584 -0.1229015,0.04423 -0.1750625,0.08355 -0.052166,0.03932 -0.095885,0.08879 -0.1285556,0.145416 -0.032667,0.05661 -0.053619,0.119199 -0.061608,0.184131 -0.00798,0.06489 -0.00283,0.130709 0.015133,0.193589 0.017963,0.06281 0.048392,0.12145 0.089462,0.17228 0.041065,0.05084 0.091933,0.09288 0.1495715,0.12357 l 0.3937304,0.227293 -0.3937304,0.227942 c -0.1118165,0.0646 -0.193424,0.171031 -0.2268759,0.295836 -0.033451,0.124866 -0.016001,0.257874 0.048506,0.369809 0.064509,0.111991 0.1707948,0.193702 0.2954763,0.227173 0.1246711,0.03347 0.2575202,0.01607 0.369378,-0.04858 l 0.3937132,-0.227985 v 0.455238 c 0,0.129171 0.05125,0.253089 0.142461,0.344423 0.09122,0.09134 0.214987,0.142625 0.344005,0.142625 0.129015,0 0.252725,-0.0513 0.343944,-0.142625 0.09122,-0.09134 0.14252,-0.215256 0.14252,-0.344423 v -0.454589 l 0.393713,0.227295 c 0.111798,0.0646 0.244649,0.08208 0.369361,0.04858 0.124652,-0.03347 0.230967,-0.11518 0.295476,-0.227172 0.06451,-0.111924 0.08197,-0.244946 0.04847,-0.36981 -0.03343,-0.124799 -0.115042,-0.231249 -0.22684,-0.295836 l -0.39372,-0.227369 0.393715,-0.227293 c 0.111798,-0.0646 0.193405,-0.170963 0.22684,-0.295834 0.03349,-0.124799 0.01605,-0.257817 -0.04847,-0.369809 -0.06451,-0.111924 -0.170825,-0.193657 -0.295476,-0.227141 -0.124712,-0.03349 -0.257563,-0.01607 -0.369361,0.04855 l -0.393712,0.227288 z M 2.2467323,22.886651 c 0.129017,0 0.2527501,0.05132 0.3439815,0.142649 0.091232,0.09136 0.1424846,0.215233 0.1424846,0.3444 v 0.454573 l 0.3930642,-0.227282 c 0.1118164,-0.0646 0.2446775,-0.08206 0.3693599,-0.04855 0.1246757,0.03349 0.2309683,0.115204 0.2954764,0.227138 0.064511,0.111992 0.081955,0.245006 0.048507,0.369812 -0.033452,0.124864 -0.1150593,0.231247 -0.2268759,0.295834 L 3.2190172,24.672519 3.61273,24.899811 c 0.055363,0.032 0.1038982,0.07457 0.1428254,0.125333 0.038924,0.05077 0.067488,0.108688 0.08405,0.170497 0.016559,0.06181 0.020793,0.126271 0.012479,0.18975 -0.00833,0.06346 -0.029045,0.124621 -0.060988,0.180069 -0.031941,0.05543 -0.074478,0.104025 -0.1251726,0.142982 -0.050698,0.03903 -0.108567,0.06759 -0.1703043,0.08419 -0.061737,0.01651 -0.1261331,0.02075 -0.189504,0.01249 -0.063374,-0.0085 -0.1244925,-0.0291 -0.1798559,-0.06109 L 2.7331975,25.516745 v 0.45459 c 0,0.129171 -0.051254,0.253088 -0.1424844,0.344421 -0.091232,0.09134 -0.2149638,0.142628 -0.3439817,0.142628 -0.1290213,0 -0.2527554,-0.0513 -0.343987,-0.142628 -0.091227,-0.09134 -0.1424777,-0.215254 -0.1424777,-0.344421 V 25.516097 L 1.3659047,25.74339 C 1.2545963,25.80273 1.1246235,25.81649 1.0033905,25.78177 0.8821589,25.746998 0.7791334,25.666518 0.7160463,25.557187 0.6529543,25.447852 0.6347333,25.318266 0.6652113,25.195763 0.6956903,25.073262 0.7724992,24.967408 0.8794394,24.90046 l 0.3937131,-0.227952 -0.393713,-0.227293 c -0.055369,-0.03193 -0.1038982,-0.07457 -0.1428254,-0.125332 -0.038931,-0.05073 -0.067493,-0.108688 -0.084054,-0.170495 -0.016559,-0.06181 -0.020793,-0.126274 -0.01248,-0.189754 0.00831,-0.06342 0.029045,-0.124619 0.060988,-0.180068 0.031942,-0.05543 0.074474,-0.104023 0.1251725,-0.142983 0.050699,-0.03896 0.1085673,-0.06756 0.1703045,-0.08414 0.061737,-0.01651 0.1261264,-0.02075 0.1895039,-0.01249 0.063375,0.0082 0.1244884,0.02908 0.1798561,0.06107 l 0.3943608,0.22793 v -0.455219 c 0,-0.129173 0.051254,-0.253057 0.1424778,-0.3444 0.091232,-0.09136 0.2149637,-0.142648 0.343987,-0.142648 z m 7.3197052,0.487058 c 0,-0.129174 -0.0513,-0.253059 -0.142521,-0.3444 -0.09122,-0.09136 -0.214929,-0.142649 -0.343947,-0.142649 -0.129016,0 -0.252785,0.05132 -0.344005,0.142649 -0.09122,0.09136 -0.142459,0.215233 -0.142459,0.3444 v 0.455222 l -0.393713,-0.227282 c -0.05537,-0.03466 -0.117165,-0.05777 -0.181673,-0.068 -0.06451,-0.01027 -0.130371,-0.0075 -0.193761,0.0085 -0.06334,0.01584 -0.122883,0.04423 -0.175069,0.08355 -0.05214,0.03932 -0.09588,0.08879 -0.128544,0.145416 -0.03267,0.05661 -0.0536,0.119199 -0.06162,0.184131 -0.008,0.06489 -0.0028,0.130709 0.01515,0.193589 0.01798,0.06281 0.04841,0.12145 0.08944,0.17228 0.0411,0.05084 0.09193,0.09288 0.149597,0.12357 l 0.393713,0.227293 -0.393713,0.227942 c -0.05538,0.032 -0.103898,0.07457 -0.142873,0.125333 -0.03892,0.05077 -0.06747,0.108688 -0.08403,0.170496 -0.01656,0.06181 -0.02083,0.126273 -0.0125,0.189752 0.0084,0.06346 0.02907,0.124619 0.06103,0.180068 0.0319,0.05543 0.07448,0.104025 0.125183,0.142983 0.05065,0.03903 0.108557,0.06759 0.170294,0.08419 0.06174,0.01651 0.126125,0.02075 0.189515,0.01249 0.06334,-0.0085 0.124478,-0.02909 0.179845,-0.06109 l 0.393713,-0.227944 v 0.455237 c 0,0.129172 0.05124,0.25309 0.142459,0.344424 0.09122,0.09134 0.214989,0.142625 0.344005,0.142625 0.129018,0 0.252727,-0.0513 0.343948,-0.142625 0.09122,-0.09134 0.14252,-0.215257 0.14252,-0.344424 v -0.454588 l 0.393711,0.227295 c 0.1118005,0.0646 0.2446485,0.08207 0.3693595,0.04858 0.124654,-0.03347 0.230969,-0.115182 0.295477,-0.227172 0.06452,-0.111925 0.08198,-0.244948 0.04847,-0.369809 -0.03343,-0.1248 -0.115041,-0.231251 -0.226841,-0.295837 l -0.393715,-0.227348 0.393713,-0.227292 c 0.05538,-0.03193 0.103898,-0.07457 0.142815,-0.125333 0.03892,-0.05073 0.06747,-0.108687 0.08403,-0.170494 0.01649,-0.06181 0.02074,-0.126271 0.01248,-0.189752 -0.0082,-0.06342 -0.02907,-0.124621 -0.06097,-0.180068 -0.03196,-0.05543 -0.07448,-0.104025 -0.125184,-0.142984 -0.05071,-0.03896 -0.108556,-0.06756 -0.170294,-0.08414 -0.06174,-0.01651 -0.126125,-0.02075 -0.189515,-0.01249 -0.0634,0.0082 -0.124477,0.02907 -0.1798445,0.06107 l -0.393712,0.227281 z"
         id="path2-8"
         style="fill:#d35f8d;fill-opacity:1" />
    </g>
  </g>
</svg>
