<?xml version="1.0" encoding="UTF-8" standalone="no"?>
<svg
   width="16"
   height="16"
   version="1.1"
   id="svg9"
   sodipodi:docname="gnvim.svg"
   inkscape:version="1.4.4 (unknown)"
   xmlns:inkscape="http://www.inkscape.org/namespaces/inkscape"
   xmlns:sodipodi="http://sodipodi.sourceforge.net/DTD/sodipodi-0.dtd"
   xmlns="http://www.w3.org/2000/svg"
   xmlns:svg="http://www.w3.org/2000/svg">
  <defs
     id="defs9" />
  <sodipodi:namedview
     id="namedview9"
     pagecolor="#ffffff"
     bordercolor="#000000"
     borderopacity="0.25"
     inkscape:showpageshadow="2"
     inkscape:pageopacity="0.0"
     inkscape:pagecheckerboard="0"
     inkscape:deskcolor="#d1d1d1"
     inkscape:zoom="17.677669"
     inkscape:cx="13.97243"
     inkscape:cy="12.473364"
     inkscape:window-width="1920"
     inkscape:window-height="994"
     inkscape:window-x="0"
     inkscape:window-y="0"
     inkscape:window-maximized="1"
     inkscape:current-layer="svg9" />
  <g
     id="g9"
     transform="translate(0,-0.2938269)">
    <path
       style="opacity:0.2;stroke-width:0.22807"
       d="M 4.5789473,2.021897 1.614035,4.9868093 v 6.8421057 l 2.9649123,2.964912 h 7.2982457 l 2.508772,-2.736842 V 10.004353 L 11.877193,7.4955812 H 6.3121914 L 8.68421,10.004353 h 3.192983 v 1.596492 0.22807 H 4.5789473 V 4.9868093 H 14.385965 L 11.192982,2.021897 Z"
       id="path1" />
    <path
       style="fill:#95d25f;stroke-width:0.22807"
       d="M 2.9824561,11.600845 H 13.473684 l -1.596491,2.964912 H 4.5789473 Z"
       id="path2" />
    <path
       style="fill:#95d25f;stroke-width:0.22807"
       d="M 4.5789473,1.7938268 2.9824561,4.7587391 H 14.385965 L 11.192982,1.7938268 Z"
       id="path3" />
    <path
       style="fill:#50a635;stroke-width:0.22807"
       d="m 11.877193,9.7762828 v 1.5964912 3.192983 l 2.508772,-2.736842 V 9.7762828 Z"
       id="path4" />
    <path
       style="fill:#37b4ee;stroke-width:0.22807"
       d="m 8.68421,9.7762828 h 5.701755 L 11.877193,7.267511 H 6.3122806 Z"
       id="path5" />
    <path
       style="fill:#37b4ee;stroke-width:0.22807"
       d="M 4.5789473,1.7938268 1.614035,4.7587391 v 6.8421059 l 2.9649123,2.964912 V 11.600845 4.7587391 Z"
       id="path6" />
    <path
       style="fill:#229ed1;stroke-width:0.22807"
       d="m 1.614035,11.600845 h 2.9649123 v 2.964912 z"
       id="path7" />
    <path
       style="fill:#229ed1;stroke-width:0.22807"
       d="M 1.614035,4.7587391 H 4.5789473 V 1.7938268 Z"
       id="path8" />
    <path
       style="opacity:0.2;fill:#ffffff;stroke-width:0.22807"
       d="M 4.5789473,1.7938268 1.614035,4.7587391 V 4.9868093 L 4.5789473,2.021897 h 6.6140347 l 2.94754,2.7368421 h 0.245443 L 11.192982,1.7938268 Z M 6.3121914,7.267511 6.5277891,7.4955812 h 5.3494039 l 2.508772,2.5087718 V 9.7762828 L 11.877193,7.267511 Z m -1.7332441,4.333334 v 0.22807 h 7.2982457 v -0.22807 z"
       id="path9" />
  </g>
</svg>
