<?xml version="1.0" encoding="UTF-8" standalone="no"?>
<!-- Generator: Gravit.io -->

<svg
   style="isolation:isolate"
   viewBox="0 0 16 16"
   width="16"
   height="16"
   version="1.1"
   id="svg4"
   sodipodi:docname="godot.svg"
   inkscape:version="1.4.4 (unknown)"
   xmlns:inkscape="http://www.inkscape.org/namespaces/inkscape"
   xmlns:sodipodi="http://sodipodi.sourceforge.net/DTD/sodipodi-0.dtd"
   xmlns="http://www.w3.org/2000/svg"
   xmlns:svg="http://www.w3.org/2000/svg">
  <defs
     id="defs4" />
  <sodipodi:namedview
     id="namedview4"
     pagecolor="#ffffff"
     bordercolor="#000000"
     borderopacity="0.25"
     inkscape:showpageshadow="2"
     inkscape:pageopacity="0.0"
     inkscape:pagecheckerboard="0"
     inkscape:deskcolor="#d1d1d1"
     inkscape:document-units="px"
     inkscape:zoom="33.45499"
     inkscape:cx="9.3409086"
     inkscape:cy="8.5039632"
     inkscape:window-width="1920"
     inkscape:window-height="994"
     inkscape:window-x="0"
     inkscape:window-y="0"
     inkscape:window-maximized="1"
     inkscape:current-layer="svg4" />
  <linearGradient
     id="_lgradient_13"
     x1="0"
     y1="0.5"
     x2="0.90748805"
     y2="0.92007786"
     gradientTransform="matrix(35.07,0,0,6.2,4.33,30.53)"
     gradientUnits="userSpaceOnUse">
    <stop
       offset="2.1739130434782608%"
       stop-opacity="1"
       style="stop-color:rgb(0,177,255)"
       id="stop1" />
    <stop
       offset="83.88839793817618%"
       stop-opacity="1"
       style="stop-color:#9141ac;stop-opacity:1"
       id="stop2" />
  </linearGradient>
  <linearGradient
     id="_lgradient_14"
     x1="0"
     y1="0.5"
     x2="0.90748805"
     y2="0.92007786"
     gradientTransform="matrix(46.400501,0,0,42.837463,0.8,2.582)"
     gradientUnits="userSpaceOnUse">
    <stop
       offset="0%"
       stop-opacity="1"
       style="stop-color:rgb(0,196,255)"
       id="stop3" />
    <stop
       offset="83.88839793817618%"
       stop-opacity="1"
       style="stop-color:#9141ac;stop-opacity:1"
       id="stop4" />
  </linearGradient>
  <g
     id="g4"
     transform="matrix(0.30172413,0,0,0.30172413,0.75854534,0.7586455)">
    <path
       d="m 37.9,30.53 h 1.5 v 3 h -1.5 -0.64 v 3.2 H 26.78 v -3.2 h -5.56 v 3.2 H 10.74 v -3.2 H 5.83 4.33 v -3 h 1.5 7.91 v 3.2 h 4.48 v -3.2 h 11.56 v 3.2 h 4.48 v -3.2 z"
       fill="url(#_lgradient_13)"
       id="path2"
       style="fill:url(#_lgradient_13)" />
    <path
       d="m 12.777129,23.476226 c 0,-0.590007 0.479005,-1.069012 1.069012,-1.069012 0.590006,0 1.069011,0.479005 1.069011,1.069012 0,0.590006 -0.479005,1.069011 -1.069011,1.069011 -0.590007,0 -1.069012,-0.479005 -1.069012,-1.069011 z m 20.308219,0 c 0,-0.590007 0.479006,-1.069012 1.069012,-1.069012 0.590006,0 1.069012,0.479005 1.069012,1.069012 0,0.590006 -0.479006,1.069011 -1.069012,1.069011 -0.590006,0 -1.069012,-0.479005 -1.069012,-1.069011 z m -9.619103,-1.069012 h 1.068011 v 4.275046 h -1.068011 z m -12.292133,1.069012 c 0,-0.706008 0.278003,-1.390015 0.780008,-1.892021 0.502006,-0.502005 1.186013,-0.780008 1.892021,-0.780008 0.705007,0 1.389015,0.278003 1.89202,0.780008 0.502006,0.502006 0.780009,1.186013 0.780009,1.892021 0,0.705007 -0.278003,1.389015 -0.780009,1.89202 -0.503005,0.502005 -1.187013,0.780008 -1.89202,0.780008 -0.706008,0 -1.390015,-0.278003 -1.892021,-0.780008 -0.502005,-0.503005 -0.780008,-1.187013 -0.780008,-1.89202 z m 20.308219,0 c 0,-0.706008 0.278003,-1.390015 0.780009,-1.892021 0.503005,-0.502005 1.187012,-0.780008 1.89202,-0.780008 0.706008,0 1.390015,0.278003 1.89202,0.780008 0.502006,0.502006 0.780009,1.186013 0.780009,1.892021 0,0.705007 -0.278003,1.389015 -0.780009,1.89202 -0.502005,0.502005 -1.186012,0.780008 -1.89202,0.780008 -0.705008,0 -1.389015,-0.278003 -1.89202,-0.780008 -0.502006,-0.503005 -0.780009,-1.187013 -0.780009,-1.89202 z m -8.016086,-3.207035 h 1.068011 c 1.180013,0 2.138023,0.95801 2.138023,2.138023 v 4.275046 c 0,1.180013 -0.95801,2.138023 -2.138023,2.138023 h -1.068011 c -1.180013,0 -2.138023,-0.95801 -2.138023,-2.138023 v -4.275046 c 0,-1.180013 0.95801,-2.138023 2.138023,-2.138023 z M 9.0360889,23.476226 c 0,-1.272014 0.5020054,-2.501027 1.4110151,-3.399037 0.89801,-0.90901 2.127023,-1.411015 3.399037,-1.411015 1.272014,0 2.501027,0.502005 3.399037,1.411015 0.908009,0.89801 1.411015,2.127023 1.411015,3.399037 0,1.272013 -0.503006,2.501027 -1.411015,3.399036 -0.89801,0.90801 -2.127023,1.411015 -3.399037,1.411015 -1.272014,0 -2.501027,-0.503005 -3.399037,-1.411015 C 9.5380943,25.977253 9.0360889,24.748239 9.0360889,23.476226 Z m 20.3082191,0 c 0,-1.272014 0.503006,-2.501027 1.411015,-3.399037 0.89801,-0.90901 2.127023,-1.411015 3.399037,-1.411015 1.272014,0 2.501027,0.502005 3.399037,1.411015 0.90901,0.89801 1.411015,2.127023 1.411015,3.399037 0,1.272013 -0.502005,2.501027 -1.411015,3.399036 -0.89801,0.90801 -2.127023,1.411015 -3.399037,1.411015 -1.272014,0 -2.501027,-0.503005 -3.399037,-1.411015 -0.908009,-0.898009 -1.411015,-2.127023 -1.411015,-3.399036 z M 7.4330716,25.614249 v 0 c 0,0.884009 -0.7190078,1.603017 -1.6030173,1.603017 v 0 c -0.8850096,0 -1.6040173,-0.719008 -1.6040173,-1.603017 v 0 -4.682051 L 1.1130034,17.819164 c -0.41700453,-0.418004 -0.41700453,-1.095011 0,-1.512016 l 6.0980658,-6.099066 c 0.4180045,-0.4170042 1.0950118,-0.4170042 1.5120163,0 l 1.7670195,1.767019 3.121033,-1.251013 -0.859009,-4.2960465 C 12.636128,5.8500353 12.987132,5.2030283 13.535137,4.9840259 L 19.3412,2.6660009 c 0.548006,-0.2190024 1.259014,0.002 1.586017,0.4930053 l 1.79002,2.681029 h 2.566027 l 1.79002,-2.681029 c 0.327003,-0.4910053 1.038011,-0.7120077 1.586017,-0.4930053 l 5.806062,2.318025 c 0.548006,0.2190024 0.89901,0.8660094 0.783009,1.4440156 l -0.859009,4.2960465 3.121033,1.251013 1.767019,-1.767019 c 0.417005,-0.4170042 1.094012,-0.4170042 1.512017,0 l 6.098065,6.099066 c 0.417005,0.417005 0.417005,1.094012 0,1.512016 l -3.113033,3.113034 v 13.232143 c 0,0.150002 -0.022,0.300003 -0.064,0.449005 -0.246002,0.866009 -0.588006,1.710018 -1.005011,2.512027 -0.406004,0.780008 -0.898009,1.507016 -1.454015,2.170023 -0.566006,0.695008 -1.208013,1.315015 -1.913021,1.87002 -0.770008,0.599007 -1.593017,1.133013 -2.458027,1.582018 -0.374004,0.193002 -0.749008,0.364003 -1.123012,0.535005 -0.406004,0.171002 -0.823009,0.331004 -1.240013,0.481006 -1.304014,0.470005 -2.650029,0.823008 -4.018043,1.058011 -1.77502,0.299003 -3.560039,0.491005 -5.366058,0.566006 -2.416026,0.096 -4.853053,-0.032 -7.247079,-0.374004 -1.81702,-0.267003 -3.580039,-0.769008 -5.269057,-1.486016 -0.90901,-0.395004 -1.78502,-0.855009 -2.6190287,-1.389015 C 9.2070907,41.636422 8.4700828,41.069415 7.7860754,40.438409 7.1120681,39.808402 6.4920614,39.124394 5.9360554,38.397387 5.3590492,37.627378 4.8460437,36.81537 4.4080389,35.97136 4.2900377,35.746358 4.226037,35.490355 4.226037,35.233352 v -2.137023 -1.604017 h 3.2070346 v 1.604017 1.731019 c 0.3100033,0.567006 0.6730073,1.112012 1.0580114,1.635018 0.4380047,0.578006 0.9300101,1.123012 1.4750159,1.614017 0.5450061,0.513006 1.1330121,0.962011 1.7530191,1.358015 0.684007,0.438005 1.411015,0.823009 2.159023,1.143012 1.432016,0.610007 2.929032,1.037011 4.468048,1.262014 2.202024,0.320003 4.436048,0.438004 6.659072,0.342003 1.656018,-0.064 3.313036,-0.246002 4.959054,-0.524005 1.176013,-0.203002 2.341025,-0.513006 3.474037,-0.90901 0.353004,-0.128001 0.705008,-0.267003 1.047012,-0.416004 0.310003,-0.129002 0.620006,-0.278004 0.92001,-0.428005 0.684007,-0.363004 1.336014,-0.780009 1.956021,-1.261014 0.523005,-0.417004 1.00401,-0.887009 1.432015,-1.400015 0.406004,-0.492005 0.769008,-1.026011 1.069012,-1.604017 0.288003,-0.545006 0.523005,-1.122012 0.705007,-1.710019 V 19.607184 l 2.544028,-2.544028 -3.078033,-3.079033 -1.753019,1.753019 -7.568082,-3.024033 1.069011,-5.3450573 -2.896031,-1.1650126 -1.89202,2.8430307 h -5.986065 l -1.89202,-2.8430307 -2.896032,1.1650126 1.069012,5.3450573 -7.5680817,3.024033 -1.7530189,-1.753019 -3.0780333,3.079033 2.5440275,2.544028 z"
       fill-rule="evenodd"
       fill="url(#_lgradient_14)"
       id="path4"
       style="fill:url(#_lgradient_14);stroke-width:1.00001" />
  </g>
</svg>
