<?xml version="1.0" encoding="UTF-8" standalone="no"?>
<!-- Generator: Gravit.io -->

<svg
   style="isolation:isolate"
   viewBox="0 0 16 16"
   width="16"
   height="16"
   version="1.1"
   id="svg9"
   sodipodi:docname="google-webdesigner.svg"
   inkscape:version="1.4.4 (unknown)"
   xmlns:inkscape="http://www.inkscape.org/namespaces/inkscape"
   xmlns:sodipodi="http://sodipodi.sourceforge.net/DTD/sodipodi-0.dtd"
   xmlns:xlink="http://www.w3.org/1999/xlink"
   xmlns="http://www.w3.org/2000/svg"
   xmlns:svg="http://www.w3.org/2000/svg">
  <defs
     id="defs9">
    <linearGradient
       id="linearGradient12"
       inkscape:collect="always">
      <stop
         style="stop-color:#b5835a;stop-opacity:1"
         offset="0"
         id="stop12" />
      <stop
         style="stop-color:#c061cb;stop-opacity:1"
         offset="1"
         id="stop13" />
    </linearGradient>
    <linearGradient
       id="linearGradient9"
       inkscape:collect="always">
      <stop
         style="stop-color:#3584e4;stop-opacity:1"
         offset="0"
         id="stop10" />
      <stop
         style="stop-color:#dc8add;stop-opacity:1"
         offset="1"
         id="stop11" />
    </linearGradient>
    <linearGradient
       inkscape:collect="always"
       xlink:href="#linearGradient9"
       id="linearGradient11"
       x1="7.4962206"
       y1="12.509061"
       x2="29.5"
       y2="12.509061"
       gradientUnits="userSpaceOnUse" />
    <linearGradient
       inkscape:collect="always"
       xlink:href="#linearGradient12"
       id="linearGradient13"
       x1="27.499604"
       y1="26.733354"
       x2="40.50358"
       y2="26.733354"
       gradientUnits="userSpaceOnUse" />
  </defs>
  <sodipodi:namedview
     id="namedview9"
     pagecolor="#ffffff"
     bordercolor="#000000"
     borderopacity="0.25"
     inkscape:showpageshadow="2"
     inkscape:pageopacity="0.0"
     inkscape:pagecheckerboard="0"
     inkscape:deskcolor="#d1d1d1"
     inkscape:document-units="px"
     inkscape:zoom="23.65625"
     inkscape:cx="10.779392"
     inkscape:cy="7.2073976"
     inkscape:window-width="1920"
     inkscape:window-height="994"
     inkscape:window-x="0"
     inkscape:window-y="0"
     inkscape:window-maximized="1"
     inkscape:current-layer="svg9" />
  <linearGradient
     id="_lgradient_18"
     x1="0"
     y1="0.5"
     x2="1"
     y2="0.5"
     gradientTransform="matrix(13.004,0,0,11.467,27.5,21)"
     gradientUnits="userSpaceOnUse">
    <stop
       offset="0%"
       stop-opacity="1"
       style="stop-color:rgb(117,127,154)"
       id="stop1" />
    <stop
       offset="98.69565217391305%"
       stop-opacity="1"
       style="stop-color:rgb(215,221,232)"
       id="stop2" />
  </linearGradient>
  <linearGradient
     id="_lgradient_19"
     x1="0"
     y1="0.5"
     x2="1"
     y2="0.5"
     gradientTransform="matrix(16.96,0,0,17.997,26.5,4.503)"
     gradientUnits="userSpaceOnUse">
    <stop
       offset="0%"
       stop-opacity="1"
       style="stop-color:rgb(255,224,49)"
       id="stop3" />
    <stop
       offset="100%"
       stop-opacity="1"
       style="stop-color:rgb(250,0,117)"
       id="stop4" />
  </linearGradient>
  <linearGradient
     id="_lgradient_20"
     x1="0"
     y1="0.5"
     x2="1"
     y2="0.5"
     gradientTransform="matrix(22.004,0,0,21.982,7.496,1.518)"
     gradientUnits="userSpaceOnUse">
    <stop
       offset="0%"
       stop-opacity="1"
       style="stop-color:rgb(84,51,255)"
       id="stop5" />
    <stop
       offset="51.73913043478261%"
       stop-opacity="1"
       style="stop-color:rgb(32,189,255)"
       id="stop6" />
    <stop
       offset="98.26086956521739%"
       stop-opacity="1"
       style="stop-color:rgb(165,254,203)"
       id="stop7" />
  </linearGradient>
  <linearGradient
     id="_lgradient_21"
     x1="0"
     y1="0.5"
     x2="1"
     y2="0.5"
     gradientTransform="matrix(25.997,0,0,26,4.503,20.5)"
     gradientUnits="userSpaceOnUse">
    <stop
       offset="0%"
       stop-opacity="1"
       style="stop-color:rgb(247,242,6)"
       id="stop8" />
    <stop
       offset="97.82608695652173%"
       stop-opacity="1"
       style="stop-color:rgb(255,187,36)"
       id="stop9" />
  </linearGradient>
  <g
     id="g9"
     transform="matrix(0.28900537,0,0,0.28900537,1.0691776,1.0612545)">
    <path
       d="M 34.68,21 H 39 c 0.46,0 0.9,0.21 1.18,0.58 0.29,0.36 0.39,0.83 0.28,1.28 -0.34,1.33 -0.85,2.61 -1.53,3.79 -0.65,1.11 -1.48,2.1 -2.46,2.94 -0.99,0.83 -2.11,1.48 -3.31,1.94 -1.29,0.49 -2.64,0.8 -4.02,0.93 -0.42,0.04 -0.85,-0.1 -1.16,-0.39 -0.31,-0.29 -0.49,-0.7 -0.48,-1.13 l 0.1,-4.97 c 0.01,-0.35 0.14,-0.68 0.36,-0.95 0.23,-0.26 0.54,-0.44 0.89,-0.5 0.99,-0.17 1.94,-0.52 2.8,-1.04 0.71,-0.45 1.31,-1.05 1.75,-1.77 C 33.68,21.27 34.16,21 34.68,21 Z m 0.78,3 h 1.45 c -0.17,0.39 -0.36,0.78 -0.58,1.15 -0.47,0.81 -1.08,1.53 -1.79,2.15 -0.73,0.6 -1.56,1.09 -2.45,1.43 -0.5,0.19 -1.03,0.35 -1.55,0.47 l 0.04,-2 c 0.93,-0.27 1.82,-0.67 2.65,-1.17 0.86,-0.54 1.62,-1.23 2.23,-2.03 z"
       fill-rule="evenodd"
       id="path2"
       style="fill:url(#linearGradient13)" />
    <path
       d="M 28,6 V 21 H 41.963 C 41.987,20.667 42,20.334 42,20 42,12.268 35.732,6 28,6 Z"
       fill="none"
       id="path3" />
    <path
       d="M 41.96,22.5 H 35 c -0.39,0 -0.77,-0.15 -1.05,-0.43 -0.28,-0.28 -0.44,-0.65 -0.45,-1.04 -0.01,-0.87 -0.16,-1.73 -0.45,-2.55 -0.2,-0.6 -0.54,-1.15 -0.98,-1.6 C 31.62,16.44 31.08,16.11 30.49,15.91 29.69,15.64 28.84,15.5 28,15.5 27.6,15.5 27.22,15.34 26.94,15.06 26.66,14.78 26.5,14.4 26.5,14 V 6 c 0,-0.42 0.18,-0.83 0.49,-1.11 0.31,-0.28 0.73,-0.42 1.15,-0.38 1.17,0.11 2.33,0.3 3.47,0.57 1.05,0.25 2.07,0.58 3.07,1 1.84,0.76 3.5,1.9 4.87,3.34 1.34,1.46 2.35,3.19 2.95,5.08 0.33,1 0.57,2.03 0.72,3.08 0.16,1.13 0.24,2.28 0.24,3.42 0,0.4 -0.16,0.78 -0.44,1.06 -0.28,0.28 -0.66,0.44 -1.06,0.44 z m -1.55,-3 h -4.03 c -0.1,-0.68 -0.27,-1.35 -0.49,-2 -0.36,-1.03 -0.94,-1.97 -1.7,-2.74 -0.77,-0.77 -1.71,-1.34 -2.74,-1.7 -0.63,-0.21 -1.29,-0.36 -1.95,-0.45 v -4.9 c 0.48,0.08 0.95,0.18 1.42,0.29 0.89,0.21 1.76,0.49 2.6,0.85 1.45,0.59 2.76,1.49 3.84,2.62 1.04,1.14 1.82,2.49 2.29,3.95 0.28,0.84 0.48,1.7 0.6,2.58 0.07,0.5 0.13,1 0.16,1.5 z"
       fill-rule="evenodd"
       fill="url(#_lgradient_19)"
       id="path4"
       style="fill:url(#_lgradient_19)" />
    <path
       d="M 27.5,3 C 17.283,3 9,11.283 9,21.5 9.004,21.667 9.009,21.833 9.018,22 H 28 V 3.018 C 27.833,3.009 27.667,3.004 27.5,3 Z"
       fill="none"
       id="path5" />
    <path
       d="M 29.5,3.02 V 14 c 0,0.4 -0.16,0.78 -0.44,1.07 -0.29,0.28 -0.67,0.43 -1.08,0.43 -0.95,-0.01 -1.9,0.14 -2.81,0.43 -0.69,0.24 -1.33,0.63 -1.86,1.14 -0.54,0.55 -0.95,1.21 -1.22,1.93 -0.35,0.99 -0.55,2.02 -0.59,3.06 -0.02,0.39 -0.18,0.75 -0.46,1.02 C 20.76,23.35 20.39,23.5 20,23.5 H 9 C 8.58,23.5 8.19,23.33 7.9,23.02 7.62,22.72 7.47,22.31 7.5,21.89 7.61,20.41 7.82,18.94 8.12,17.49 8.4,16.16 8.79,14.85 9.29,13.58 10.2,11.22 11.58,9.07 13.36,7.27 15.15,5.5 17.3,4.13 19.65,3.23 c 1.26,-0.49 2.56,-0.87 3.89,-1.14 1.44,-0.29 2.9,-0.48 4.37,-0.57 0.41,-0.02 0.82,0.12 1.12,0.41 0.3,0.28 0.47,0.67 0.47,1.09 z m -3,1.63 v 7.93 c -0.77,0.1 -1.54,0.26 -2.27,0.51 -1.14,0.38 -2.18,1.01 -3.03,1.85 -0.86,0.86 -1.52,1.9 -1.93,3.05 -0.29,0.81 -0.5,1.65 -0.63,2.51 h -7.98 c 0.1,-0.8 0.23,-1.6 0.4,-2.39 0.25,-1.18 0.59,-2.33 1.03,-3.45 0.76,-1.97 1.91,-3.76 3.39,-5.27 1.5,-1.47 3.28,-2.62 5.24,-3.36 1.11,-0.43 2.25,-0.76 3.42,-1 0.78,-0.16 1.57,-0.28 2.36,-0.38 z"
       fill-rule="evenodd"
       id="path7"
       style="fill:url(#linearGradient11)" />
    <path
       d="M 6,22 C 6,34.703 16.297,45 29,45 V 22 Z"
       fill="none"
       id="path8" />
    <path
       d="m 30.5,32 v 13 c 0,0.43 -0.18,0.84 -0.5,1.12 -0.32,0.28 -0.75,0.42 -1.17,0.37 -1.74,-0.2 -3.45,-0.51 -5.15,-0.94 C 22.12,45.16 20.59,44.64 19.1,44.01 16.34,42.85 13.83,41.17 11.69,39.07 9.6,36.95 7.94,34.45 6.8,31.7 6.19,30.24 5.7,28.73 5.34,27.19 4.94,25.53 4.67,23.84 4.51,22.14 4.47,21.72 4.61,21.3 4.89,20.99 5.17,20.68 5.58,20.5 6,20.5 h 14 c 0.39,0 0.77,0.16 1.05,0.43 0.28,0.28 0.44,0.65 0.45,1.05 0.02,1.25 0.22,2.49 0.6,3.68 0.29,0.92 0.77,1.77 1.4,2.49 0.63,0.68 1.39,1.22 2.24,1.58 1.07,0.44 2.2,0.7 3.36,0.77 0.38,0.03 0.73,0.2 0.99,0.47 0.26,0.28 0.41,0.65 0.41,1.03 z m -3,1.33 v 9.95 C 26.46,43.11 25.43,42.9 24.41,42.64 23,42.29 21.62,41.82 20.28,41.25 17.87,40.24 15.67,38.78 13.81,36.94 12,35.11 10.56,32.94 9.57,30.55 9.02,29.24 8.58,27.88 8.26,26.5 8.02,25.51 7.83,24.51 7.69,23.5 h 10.9 c 0.11,1.04 0.33,2.07 0.65,3.07 0.42,1.32 1.11,2.54 2.03,3.59 0.92,1.01 2.05,1.81 3.32,2.34 0.93,0.38 1.91,0.66 2.91,0.83 z"
       fill-rule="evenodd"
       fill="url(#_lgradient_21)"
       id="path9"
       style="fill:url(#_lgradient_21)" />
  </g>
</svg>
