<?xml version="1.0" encoding="UTF-8" standalone="no"?>
<svg
   width="16"
   height="16"
   version="1.1"
   id="svg9"
   sodipodi:docname="grafx2.svg"
   inkscape:version="1.4.4 (unknown)"
   xmlns:inkscape="http://www.inkscape.org/namespaces/inkscape"
   xmlns:sodipodi="http://sodipodi.sourceforge.net/DTD/sodipodi-0.dtd"
   xmlns:xlink="http://www.w3.org/1999/xlink"
   xmlns="http://www.w3.org/2000/svg"
   xmlns:svg="http://www.w3.org/2000/svg">
  <defs
     id="defs9">
    <linearGradient
       id="linearGradient3"
       inkscape:collect="always">
      <stop
         style="stop-color:#a987de;stop-opacity:1;"
         offset="0"
         id="stop4" />
      <stop
         style="stop-color:#2ad4ff;stop-opacity:1"
         offset="1"
         id="stop5" />
    </linearGradient>
    <linearGradient
       id="_lgradient_9"
       x1="0"
       y1="0.5"
       x2="1"
       y2="0.5"
       gradientTransform="matrix(44.000005,0,0,44,9.0000003,9)"
       gradientUnits="userSpaceOnUse">
      <stop
         offset="0%"
         stop-opacity="1"
         style="stop-color:rgb(84,51,255)"
         id="stop1-5" />
      <stop
         offset="51.73913043478261%"
         stop-opacity="1"
         style="stop-color:rgb(32,189,255)"
         id="stop2-3" />
      <stop
         offset="98.26086956521739%"
         stop-opacity="1"
         style="stop-color:rgb(165,254,203)"
         id="stop3" />
    </linearGradient>
    <linearGradient
       inkscape:collect="always"
       xlink:href="#linearGradient3"
       id="linearGradient5"
       x1="28.374725"
       y1="53"
       x2="44.672234"
       y2="9.3116951"
       gradientUnits="userSpaceOnUse"
       gradientTransform="matrix(0.30588235,0,0,0.30588235,-1.4823532,-1.4058824)" />
  </defs>
  <sodipodi:namedview
     id="namedview9"
     pagecolor="#ffffff"
     bordercolor="#000000"
     borderopacity="0.25"
     inkscape:showpageshadow="2"
     inkscape:pageopacity="0.0"
     inkscape:pagecheckerboard="0"
     inkscape:deskcolor="#d1d1d1"
     inkscape:zoom="28.284271"
     inkscape:cx="12.780955"
     inkscape:cy="10.447503"
     inkscape:window-width="1920"
     inkscape:window-height="994"
     inkscape:window-x="0"
     inkscape:window-y="0"
     inkscape:window-maximized="1"
     inkscape:current-layer="svg9" />
  <path
     d="m 7.6702458,7.228827 c 0.110585,0 0.220884,0.0426 0.305752,0.127506 L 8.2817499,7.662513 7.6693878,8.274874 7.3636358,7.96898 c -0.169734,-0.169818 -0.169734,-0.442548 0,-0.612647 0.08487,-0.08491 0.196024,-0.127506 0.30661,-0.127506 z M 10.894077,3.209876 v 7.95e-4 c -0.02515,6.12e-4 -0.04886,0.01086 -0.06658,0.02859 l -0.263748,0.263896 c -0.01829,0.01827 -0.02858,0.04317 -0.02858,0.0689 V 5.086666 H 9.0209789 c -0.02572,3.98e-4 -0.05058,0.01057 -0.06886,0.02888 L 7.9759978,6.092124 c -0.038,0.03802 -0.038,0.09977 0,0.138082 L 9.5950559,7.850588 9.3581699,8.087301 8.3020379,7.030104 c -0.3480421,-0.348204 -0.915543,-0.348204 -1.263876,0 -0.348039,0.348491 -0.348039,0.915974 0,1.264462 l 1.056137,1.057196 -0.4163371,0.416534 -0.829533,-0.08805 c 0.258605,-0.349637 0.268601,-0.832209 -0.04772,-1.148682 -0.348045,-0.34849 -0.914976,-0.34849 -1.263021,0 l -1.688491,1.689286 c -0.555215,0.555473 -0.555215,1.459149 0,2.014906 0.555214,0.555473 1.45875,0.555473 2.013964,0 0.270316,-0.270445 0.376051,-0.624941 0.383474,-0.979722 l 0.22889,0.228992 c 0.038,0.03802 0.09973,0.03802 0.138014,0 l 0.18717,-0.188108 c 0.038,-0.03803 0.038,-0.09978 0,-0.138082 l -0.937548,-0.937987 c -0.03829,-0.03802 -0.09973,-0.03802 -0.138017,0 l -0.5629299,0.56319 c -0.038,0.03802 -0.038,0.09977 0,0.137797 l 0.187455,0.187537 c 0.01825,0.01856 0.04343,0.02888 0.06944,0.02888 0.02601,0 0.05086,-0.01026 0.06915,-0.02888 l 0.2283161,-0.228421 c 0.136871,0.346206 0.102008,0.747874 -0.178885,1.028612 -0.3769031,0.377078 -0.9855521,0.377078 -1.3624541,0 -0.3771909,-0.377082 -0.3771909,-0.986012 0,-1.363378 L 5.8631628,8.85747 c 0.169733,-0.169812 0.442342,-0.169812 0.6123641,0 0.169733,0.1701 0.169733,0.442836 0,0.612649 L 6.1000478,9.845197 c -0.01855,0.01828 -0.02886,0.04317 -0.02886,0.06918 0,0.02602 0.01026,0.05118 0.02886,0.06947 l 0.938115,0.937984 c 0.03829,0.03802 0.100015,0.03802 0.1380231,0 l 0.18745,-0.187541 c 0.01856,-0.01827 0.02887,-0.04317 0.02887,-0.06918 0,-0.02603 -0.01028,-0.05089 -0.02887,-0.06918 l -0.44377,-0.444263 0.883253,0.09177 c 0.02943,0.0029 0.05858,-0.0077 0.07944,-0.02887 l 0.794098,-0.794471 c 0.01857,-0.01827 0.02886,-0.04317 0.02886,-0.06918 0,-0.02603 -0.01028,-0.05118 -0.02886,-0.06947 L 7.9954298,8.600471 8.6077918,7.987823 9.2890189,8.669371 c 0.03829,0.03802 0.100013,0.03802 0.1380169,0 L 10.177416,7.918926 c 0.01829,-0.01827 0.02886,-0.04345 0.02886,-0.06947 0,-0.02603 -0.01057,-0.05089 -0.02886,-0.06919 L 9.4959018,7.098718 9.9899638,6.604993 c 0.038,-0.03802 0.038,-0.09977 0,-0.137795 L 9.8025118,6.279099 c -0.01829,-0.01856 -0.04343,-0.02888 -0.06944,-0.02888 -0.026,0 -0.05086,0.01026 -0.06915,0.02888 L 9.1707178,6.773105 8.5583549,6.160456 9.1730039,5.545522 h 1.3621701 v 1.779051 c -3.06e-4,0.03974 0.02372,0.07576 0.06029,0.09091 0.03686,0.01517 0.07887,0.0066 0.106871,-0.02173 L 10.966082,7.1299 c 0.01828,-0.01827 0.02858,-0.04317 0.02858,-0.06918 V 5.54553 h 1.513902 c 0.02601,0 0.05086,-0.01003 0.06915,-0.02801 l 0.263745,-0.263874 c 0.02829,-0.02801 0.03686,-0.07033 0.02172,-0.106924 -0.01515,-0.03687 -0.05115,-0.0606 -0.09087,-0.0606 H 10.994665 V 3.307645 c 0,-0.02631 -0.01057,-0.05175 -0.02972,-0.07004 -0.01886,-0.01856 -0.04458,-0.02831 -0.07087,-0.02772 z M 2.2081373,5.903186 V 2.457145 h 3.8353355 l 1.82537,1.929425 2.1345512,-1.929464 h 3.750754 l -0.140588,3.452367 -1.897094,2.176433 2.056543,2.223316 V 13.7148 H 10.003394 L 7.8719838,11.766372 5.8777378,13.7148 2.2081373,13.714667 V 10.328088 L 4.2775378,8.070183 Z M 1.2705881,6.281405 V 1.5 H 6.4498078 L 7.8968428,3.051209 9.6347769,1.5 h 5.0946351 v 4.775405 l -1.753359,1.79163 1.753359,1.87311 V 14.5 H 9.6347769 L 7.8937028,13.101732 6.2652108,14.5 H 1.2705881 V 9.965303 L 2.9928038,8.082758 Z m 8.9205449,2.733053 c -0.3237561,0 -0.6477962,0.122924 -0.8938262,0.369067 -0.492062,0.492299 -0.492062,1.296205 0,1.788494 l 0.133731,0.134367 0.5220651,-0.521456 -0.134303,-0.134653 c -0.207169,-0.207265 -0.207169,-0.53717 0,-0.744436 0.2071691,-0.207265 0.5369251,-0.207265 0.7440931,0 0.08573,0.08576 0.132874,0.190683 0.14659,0.301033 v 2.378262 l 0.494633,0.494585 0.185452,-0.185542 0.454915,-0.455122 1.146999,-1.147828 -0.521207,-0.521733 -1.024986,1.025176 c -0.0011,-0.548322 0.0015,-1.096933 0,-1.648118 v -0.01118 l -0.0015,-0.01086 C 11.411239,9.855235 11.292369,9.59136 11.084917,9.383521 10.838885,9.137376 10.515131,9.014738 10.19109,9.014738 Z"
     fill-rule="evenodd"
     id="path3"
     style="fill:url(#linearGradient5);stroke-width:0.305882"
     sodipodi:nodetypes="scccccsccccscccccccccccccccccsccccccccccscccccscccsccccscccccsccccccscccccscccccccccscscccscscccccccccccccccccccccccccccccccccccccccccccsscccccccccccccc" />
</svg>
