<?xml version="1.0" encoding="UTF-8" standalone="no"?>
<svg
   width="100%"
   height="100%"
   viewBox="0 0 16 16"
   version="1.1"
   id="svg2"
   sodipodi:docname="guake.svg"
   inkscape:version="1.4.4 (unknown)"
   xmlns:inkscape="http://www.inkscape.org/namespaces/inkscape"
   xmlns:sodipodi="http://sodipodi.sourceforge.net/DTD/sodipodi-0.dtd"
   xmlns:xlink="http://www.w3.org/1999/xlink"
   xmlns="http://www.w3.org/2000/svg"
   xmlns:svg="http://www.w3.org/2000/svg">
  <sodipodi:namedview
     id="namedview2"
     pagecolor="#ffffff"
     bordercolor="#000000"
     borderopacity="0.25"
     inkscape:showpageshadow="2"
     inkscape:pageopacity="0.0"
     inkscape:pagecheckerboard="0"
     inkscape:deskcolor="#d1d1d1"
     inkscape:zoom="23.65625"
     inkscape:cx="8.1585205"
     inkscape:cy="9.4478203"
     inkscape:window-width="1920"
     inkscape:window-height="994"
     inkscape:window-x="0"
     inkscape:window-y="0"
     inkscape:window-maximized="1"
     inkscape:current-layer="svg2" />
  <defs
     id="defs1">
    <linearGradient
       id="linearGradient2"
       inkscape:collect="always">
      <stop
         style="stop-color:#33d17a;stop-opacity:1"
         offset="0"
         id="stop2" />
      <stop
         style="stop-color:#62a0ea;stop-opacity:1"
         offset="1"
         id="stop3" />
    </linearGradient>
    <style
       id="current-color-scheme"
       type="text/css">
   .ColorScheme-Text { color:#dfdfdf; } .ColorScheme-Highlight { color:#4285f4; } .ColorScheme-NeutralText { color:#ff9800; } .ColorScheme-PositiveText { color:#4caf50; } .ColorScheme-NegativeText { color:#f44336; }
  </style>
    <linearGradient
       inkscape:collect="always"
       xlink:href="#linearGradient2"
       id="linearGradient3"
       x1="1.75"
       y1="8"
       x2="14.25"
       y2="8"
       gradientUnits="userSpaceOnUse" />
  </defs>
  <path
     style="fill:url(#linearGradient3);stroke-width:1.18613"
     class="ColorScheme-Text"
     d="M 9.488093,13.318181 H 14.25 V 14.5 H 9.488093 Z M 5.9166655,1.5 H 7.1071412 V 2.6818181 H 10.67857 V 5.0454543 H 7.1071412 v 1.1818181 h 1.1904757 c 0.892857,0 1.7142841,0.3746371 2.2297591,0.9513638 0.515481,0.5755457 0.746428,1.2976362 0.746428,2.0031819 0,0.7055459 -0.230947,1.4300009 -0.746428,2.0055439 -0.515475,0.576733 -1.3369021,0.949 -2.2297591,0.949 H 7.1071412 v 1.181819 H 5.9166655 V 12.136362 H 2.3452383 V 9.772727 H 5.9166655 V 8.5909095 H 4.7261897 c -0.892857,0 -1.7142851,-0.3722733 -2.2297613,-0.949 C 1.980952,7.0663638 1.75,6.3419095 1.75,5.6363638 1.75,4.9308181 1.980952,4.2087276 2.4964284,3.6331819 3.0119046,3.0564543 3.8333327,2.6818181 4.7261897,2.6818181 H 5.9166655 Z M 7.1071412,8.5909095 V 9.772727 h 1.1904757 c 0.2976187,0 0.3690476,-0.06855 0.4488096,-0.157182 C 8.8261879,9.526909 8.8928552,9.3626362 8.8928552,9.1818181 8.8928552,9.001 8.8261879,8.8390905 8.7464265,8.7504543 8.6666645,8.6618181 8.5964262,8.5909095 8.2976169,8.5909095 Z M 4.7261897,5.0454543 c -0.2976196,0 -0.3690476,0.070909 -0.4488096,0.1595457 -0.079762,0.088638 -0.1464287,0.2505457 -0.1464287,0.4313638 0,0.1808181 0.066666,0.3450905 0.1464287,0.4337267 0.079762,0.088638 0.15119,0.1571819 0.4488096,0.1571819 H 5.9166655 V 5.0454543 Z"
     id="path2" />
</svg>
