<?xml version="1.0" encoding="UTF-8" standalone="no"?>
<!-- Generator: Gravit.io -->

<svg
   style="isolation:isolate"
   viewBox="0 0 16 16"
   width="16pt"
   height="16pt"
   version="1.1"
   id="svg4"
   sodipodi:docname="gufw.svg"
   inkscape:version="1.4.4 (unknown)"
   xmlns:inkscape="http://www.inkscape.org/namespaces/inkscape"
   xmlns:sodipodi="http://sodipodi.sourceforge.net/DTD/sodipodi-0.dtd"
   xmlns:xlink="http://www.w3.org/1999/xlink"
   xmlns="http://www.w3.org/2000/svg"
   xmlns:svg="http://www.w3.org/2000/svg">
  <defs
     id="defs4">
    <linearGradient
       id="linearGradient4"
       inkscape:collect="always">
      <stop
         style="stop-color:#33d17a;stop-opacity:1"
         offset="0"
         id="stop5" />
      <stop
         style="stop-color:#57e389;stop-opacity:1"
         offset="1"
         id="stop6" />
    </linearGradient>
    <linearGradient
       inkscape:collect="always"
       xlink:href="#linearGradient4"
       id="linearGradient6"
       x1="2.8102846"
       y1="9.8753672"
       x2="13"
       y2="0"
       gradientUnits="userSpaceOnUse" />
  </defs>
  <sodipodi:namedview
     id="namedview4"
     pagecolor="#ffffff"
     bordercolor="#000000"
     borderopacity="0.25"
     inkscape:showpageshadow="2"
     inkscape:pageopacity="0.0"
     inkscape:pagecheckerboard="0"
     inkscape:deskcolor="#d1d1d1"
     inkscape:document-units="pt"
     inkscape:zoom="17.213631"
     inkscape:cx="4.4151057"
     inkscape:cy="23.556913"
     inkscape:window-width="1920"
     inkscape:window-height="994"
     inkscape:window-x="0"
     inkscape:window-y="0"
     inkscape:window-maximized="1"
     inkscape:current-layer="svg4" />
  <linearGradient
     id="_lgradient_9"
     x1="0"
     y1="0.5"
     x2="1"
     y2="0.5"
     gradientTransform="matrix(8.9374999,0,0,8.9374999,2.03125,2.03125)"
     gradientUnits="userSpaceOnUse">
    <stop
       offset="0%"
       stop-opacity="1"
       style="stop-color:rgb(71,118,230)"
       id="stop1" />
    <stop
       offset="98.26086956521739%"
       stop-opacity="1"
       style="stop-color:rgb(142,84,233)"
       id="stop2" />
  </linearGradient>
  <linearGradient
     id="_lgradient_10"
     x1="0"
     y1="0.5"
     x2="1"
     y2="0.5"
     gradientTransform="matrix(0,-13,13,0,0,13)"
     gradientUnits="userSpaceOnUse">
    <stop
       offset="0%"
       stop-opacity="1"
       style="stop-color:rgb(71,118,230)"
       id="stop3" />
    <stop
       offset="98.26086956521739%"
       stop-opacity="1"
       style="stop-color:rgb(142,84,233)"
       id="stop4" />
  </linearGradient>
  <g
     id="g4"
     transform="rotate(180,7.25,7.25)">
    <path
       d="m 4.8154167,1.351458 v 0 c -0.2841042,0.09262 -0.589875,-0.06256 -0.6825,-0.346666 v 0 c -0.092625,-0.284105 0.062563,-0.589875 0.3466666,-0.6825 v 0 C 5.1295833,0.108333 5.809375,0 6.491875,0 8.7533333,0 10.860417,1.175417 12.04125,3.10375 12.666875,4.1220833 13,5.2975 13,6.491875 13,8.7533333 11.824583,10.860417 9.89625,12.04125 8.8779167,12.666875 7.7052083,13 6.508125,13 4.2466667,13 2.139583,11.824583 0.95875,9.89625 0.333125,8.8779167 0,7.7052083 0,6.508125 0,4.980625 0.53625,3.4991667 1.513958,2.326458 v 0 C 1.706792,2.097875 2.049667,2.067542 2.279063,2.258748 v 0 C 2.508458,2.449958 2.53825,2.792292 2.345417,3.0225 v 0 c -0.815209,0.9777083 -1.262084,2.21 -1.262084,3.485625 0,0.9939583 0.27625,1.9716667 0.798959,2.8220833 0.985833,1.6060417 2.740833,2.5864587 4.625833,2.5864587 0.9966667,0 1.9716667,-0.27625 2.8220833,-0.798959 1.6060417,-0.985833 2.5864587,-2.740833 2.5864587,-4.625833 0,-0.9939583 -0.27625,-1.9716667 -0.798959,-2.8220833 C 10.131875,2.06375 8.376875,1.083333 6.491875,1.083333 c -0.56875,0 -1.1347917,0.08938 -1.6764583,0.268125 z"
       id="path4"
       style="fill:url(#linearGradient6)" />
  </g>
  <g
     transform="matrix(0.58105752,0,0,0.58105752,3.080186,-159.35277)"
     id="g3">
    <path
       fill="#67d388"
       d="m 8.45,281.65 a 17.984,16.236 0 0 0 -6.333,1.048 v 4.17 c 0.03,1.967 0.157,3.596 1.069,4.799 1.099,1.443 2.925,2.715 5.28,3.742 2.35,-1.024 4.19,-2.299 5.287,-3.742 0.911,-1.203 1.033,-2.832 1.064,-4.8 v -4.145 A 17.984,16.236 0 0 0 8.451,281.65 Z"
       style="paint-order:markers stroke fill"
       id="path1" />
    <path
       d="m 8.467,281.66 v 13.758 c 2.35,-1.024 4.188,-2.299 5.286,-3.742 0.912,-1.203 1.033,-2.832 1.064,-4.8 v -4.146 a 17.984,16.236 0 0 0 -6.35,-1.07"
       opacity="0.1"
       id="path2-3" />
    <rect
       width="4.2329998"
       height="0.79400003"
       x="207.09"
       y="198.97"
       fill="#ffffff"
       ry="0"
       style="paint-order:markers stroke fill"
       transform="rotate(45)"
       id="rect2" />
    <rect
       width="6.3499999"
       height="0.79400003"
       x="-199.77"
       y="210.53"
       fill="#ffffff"
       ry="0"
       style="paint-order:markers stroke fill"
       transform="rotate(-45)"
       id="rect3" />
  </g>
</svg>
