<?xml version="1.0" encoding="UTF-8" standalone="no"?>
<svg
   width="16"
   height="16"
   version="1.1"
   viewBox="0 0 16 16"
   id="svg3"
   sodipodi:docname="GuitarPro.svg"
   inkscape:version="1.4.4 (unknown)"
   xmlns:inkscape="http://www.inkscape.org/namespaces/inkscape"
   xmlns:sodipodi="http://sodipodi.sourceforge.net/DTD/sodipodi-0.dtd"
   xmlns:xlink="http://www.w3.org/1999/xlink"
   xmlns="http://www.w3.org/2000/svg"
   xmlns:svg="http://www.w3.org/2000/svg">
  <sodipodi:namedview
     id="namedview3"
     pagecolor="#ffffff"
     bordercolor="#000000"
     borderopacity="0.25"
     inkscape:showpageshadow="2"
     inkscape:pageopacity="0.0"
     inkscape:pagecheckerboard="0"
     inkscape:deskcolor="#d1d1d1"
     inkscape:zoom="31.541667"
     inkscape:cx="9.7014531"
     inkscape:cy="10.351387"
     inkscape:window-width="1920"
     inkscape:window-height="994"
     inkscape:window-x="0"
     inkscape:window-y="0"
     inkscape:window-maximized="1"
     inkscape:current-layer="svg3" />
  <defs
     id="defs2">
    <linearGradient
       id="linearGradient13">
      <stop
         stop-color="#93c2ff"
         offset="0"
         id="stop1" />
      <stop
         stop-color="#1b43e0"
         offset="1"
         id="stop2" />
    </linearGradient>
    <linearGradient
       id="linearGradient7"
       x1="61.1819"
       x2="109.182"
       y1="50.388401"
       y2="98.388397"
       gradientTransform="matrix(0.2875118,0.0041146,-0.0041146,0.2875118,-15.115924,-11.049682)"
       gradientUnits="userSpaceOnUse"
       xlink:href="#linearGradient13" />
    <linearGradient
       id="linearGradient17"
       x2="48"
       y2="48"
       gradientUnits="userSpaceOnUse"
       xlink:href="#linearGradient13"
       gradientTransform="matrix(-0.22290863,0.20522493,-0.20522493,-0.22290863,18.776766,8.9493645)" />
  </defs>
  <g
     id="g7"
     transform="matrix(0.99244188,0,0,0.99244188,-1.3678701,-1.2747601)">
    <path
       d="m 8.1568498,6.886388 -0.00632,0.4399656 C 7.9267844,7.0554248 7.5899265,6.8810168 7.2094562,6.8755686 6.5210053,6.8657708 5.958805,7.4120522 5.9489522,8.1005029 l -0.014162,0.9896244 c -0.00989,0.6884496 0.5364838,1.2506517 1.2249341,1.2605037 0.3804758,0.0052 0.7221825,-0.159258 0.9536107,-0.4236694 l -0.00686,0.4818924 c 0.00451,0.520218 -0.485129,0.970453 -1.7123102,0.10814 l -0.011392,0.924964 c 2.2221809,1.073892 2.6773693,-0.637996 2.682828,-1.019384 l 0.050409,-3.5224616 z m -0.6478814,0.6721224 0.00563,6.5e-5 c 0.3357559,0.00487 0.6022652,0.2788789 0.5974626,0.6146292 L 8.0995918,9.046121 c -0.0048,0.3357555 -0.2790488,0.60226 -0.6148013,0.5974556 l -0.00564,-6.5e-5 C 7.1433773,9.6387085 6.8770429,9.3644653 6.8818479,9.0287117 L 6.8943409,8.1557955 C 6.8991442,7.8200429 7.1732168,7.553706 7.5089684,7.5585104 Z m 2.8406126,-0.6407433 -0.006,0.4399668 c 0.231387,-0.2644123 0.573092,-0.4291142 0.953568,-0.4236694 0.68845,0.00975 1.234785,0.5720529 1.224932,1.2605037 l -0.01418,0.9896234 c -0.01,0.6884504 -0.572043,1.2347884 -1.260491,1.2249374 -0.380474,-0.0051 -0.717326,-0.17986 -0.941094,-0.4507878 l -0.02485,1.7360738 -0.9610901,0.120931 0.068057,-4.7556112 z m 0.62838,0.6903915 -0.0052,-8.02e-5 c -0.335985,-0.00487 -0.610228,0.2615294 -0.615031,0.597285 l -0.01249,0.8729153 c -0.0046,0.3357555 0.2617,0.6099988 0.597452,0.6148063 l 0.0052,8.06e-5 c 0.335796,0.00487 0.609872,-0.2617041 0.614675,-0.5974602 l 0.01255,-0.8729165 C 11.580025,7.8870366 11.313671,7.6129651 10.97792,7.6081586 Z"
       fill="url(#linearGradient7)"
       fill-rule="evenodd"
       style="fill:url(#linearGradient7);stroke-width:0.302994;paint-order:normal"
       id="path2" />
    <path
       d="M 3.6676918,6.1927497 C 3.61682,5.288741 3.6444114,4.1138865 4.0752427,3.7172336 5.2439091,2.6412813 12.519079,4.6512271 14.385374,6.678336 c 1.798437,1.9534066 0.479807,4.870748 -1.457486,6.654354 -1.937293,1.783601 -4.9534359,2.857167 -6.7518816,0.903753 -1.0276823,-1.116232 -1.696607,-3.5018 -1.9829403,-4.6846914"
       fill="none"
       stroke="url(#linearGradient17)"
       stroke-linecap="round"
       stroke-linejoin="round"
       stroke-width="1.24136"
       id="path3"
       style="stroke:url(#linearGradient17)" />
  </g>
</svg>
