<?xml version="1.0" encoding="UTF-8" standalone="no"?>
<!-- Generator: Gravit.io -->

<svg
   style="isolation:isolate"
   viewBox="0 0 16 16"
   width="16"
   height="16"
   version="1.1"
   id="svg2"
   sodipodi:docname="guvcview.svg"
   inkscape:version="1.4.4 (unknown)"
   xmlns:inkscape="http://www.inkscape.org/namespaces/inkscape"
   xmlns:sodipodi="http://sodipodi.sourceforge.net/DTD/sodipodi-0.dtd"
   xmlns:xlink="http://www.w3.org/1999/xlink"
   xmlns="http://www.w3.org/2000/svg"
   xmlns:svg="http://www.w3.org/2000/svg">
  <defs
     id="defs2">
    <linearGradient
       id="linearGradient2"
       inkscape:collect="always">
      <stop
         style="stop-color:#c83771;stop-opacity:1"
         offset="0"
         id="stop3" />
      <stop
         style="stop-color:#8d5fd3;stop-opacity:1"
         offset="1"
         id="stop4" />
    </linearGradient>
    <linearGradient
       inkscape:collect="always"
       xlink:href="#linearGradient2"
       id="linearGradient4"
       x1="2.548387"
       y1="7.9999997"
       x2="13.451613"
       y2="7.9999997"
       gradientUnits="userSpaceOnUse" />
  </defs>
  <sodipodi:namedview
     id="namedview2"
     pagecolor="#ffffff"
     bordercolor="#000000"
     borderopacity="0.25"
     inkscape:showpageshadow="2"
     inkscape:pageopacity="0.0"
     inkscape:pagecheckerboard="0"
     inkscape:deskcolor="#d1d1d1"
     inkscape:document-units="px"
     inkscape:zoom="23.65625"
     inkscape:cx="5.0303831"
     inkscape:cy="7.8837517"
     inkscape:window-width="1920"
     inkscape:window-height="994"
     inkscape:window-x="0"
     inkscape:window-y="0"
     inkscape:window-maximized="1"
     inkscape:current-layer="svg2" />
  <linearGradient
     id="_lgradient_5"
     x1="0"
     y1="0.5"
     x2="1"
     y2="0.5"
     gradientTransform="matrix(10.903226,0,0,13,2.548387,1.4999995)"
     gradientUnits="userSpaceOnUse">
    <stop
       offset="0%"
       stop-opacity="1"
       style="stop-color:rgb(175,104,229)"
       id="stop1" />
    <stop
       offset="98.26086956521739%"
       stop-opacity="1"
       style="stop-color:rgb(250,172,128)"
       id="stop2" />
  </linearGradient>
  <path
     d="m 8.304731,12.395398 c -0.101204,0.005 -0.202968,0.0078 -0.3047311,0.0078 -0.1017634,0 -0.2035269,-0.0028 -0.3047312,-0.0081 v 0 c -0.1389462,0.239592 -0.2941075,0.470796 -0.464086,0.690258 -0.079118,0.102882 -0.163828,0.20185 -0.2535699,0.296344 H 9.022387 C 8.922577,13.277141 8.828645,13.166991 8.74086,13.051808 8.581226,12.841292 8.436409,12.622389 8.304731,12.395378 Z M 9.212495,12.264 c 0.993032,-0.224774 1.91086,-0.727161 2.642774,-1.457119 1.02043,-1.0232256 1.596344,-2.4098923 1.596344,-3.8552686 0,-1.4453763 -0.575914,-2.832043 -1.596344,-3.8552688 C 10.832043,2.0759135 9.445376,1.4999995 7.9999999,1.4999995 c -1.4453763,0 -2.832043,0.575914 -3.8552688,1.5963441 C 3.124301,4.1195694 2.548387,5.5062361 2.548387,6.9516124 c 0,0.2683871 0.01957,0.5395699 0.05871,0.8051613 v 0 c 0.044731,0.3055699 0.3290537,0.5166452 0.6346236,0.4710753 v 0 C 3.5472902,8.1822791 3.7589246,7.8973973 3.7141935,7.5918275 v 0 0 0 0 0 0 C 3.6834408,7.3793543 3.6666666,7.1668812 3.6666666,6.9516124 c 0,-1.1490323 0.4556989,-2.2505376 1.2692473,-3.064086 0.8135484,-0.8135484 1.9150537,-1.2692473 3.064086,-1.2692473 1.1490321,0 2.2505381,0.4556989 3.0640861,1.2692473 0.813548,0.8135484 1.269247,1.9150537 1.269247,3.064086 0,1.1490323 -0.455699,2.2505376 -1.269247,3.0640856 -0.813548,0.813549 -1.915054,1.269248 -3.0640861,1.269248 -1.1322581,0 -2.2225806,-0.444516 -3.0305376,-1.238495 v 0 C 4.7488816,9.8303436 4.394387,9.8342576 4.1782795,10.054838 v 0 c -0.2161076,0.220581 -0.2121936,0.575076 0.00839,0.791183 v 0 c 0.7238064,0.709828 1.6259785,1.197678 2.6,1.418538 -0.067376,0.106516 -0.1409033,0.209118 -0.2180645,0.309204 -0.139785,0.178925 -0.2991398,0.341076 -0.4752689,0.486452 -0.1453763,0.117419 -0.3047311,0.22086 -0.4752688,0.301936 -0.013978,0.0067 -0.028237,0.01314 -0.042495,0.01957 H 3.5967741 v 0 0 0 0 0 c -0.3086452,0 -0.5591398,0.250495 -0.5591398,0.559139 v 0 c 0,0.308646 0.2504946,0.55914 0.5591398,0.55914 h 8.8064519 c 0.308645,0 0.559139,-0.250495 0.559139,-0.55914 v 0 c 0,-0.308645 -0.250494,-0.559139 -0.559139,-0.559139 H 10.42471 C 10.4029,13.371921 10.3811,13.361591 10.35957,13.350971 10.180645,13.261511 10.015699,13.152476 9.861935,13.023874 9.694193,12.88129 9.543226,12.71914 9.409032,12.543011 9.339699,12.45243 9.27372,12.359613 9.212495,12.264 Z M 9.065161,3.909892 v 0 C 8.918667,3.8604081 8.839548,3.7013328 8.889032,3.5548382 v 0 C 8.938512,3.4083436 9.097591,3.3292253 9.244086,3.3787092 v 0 c 1.00086,0.3354838 1.822796,1.0623656 2.28129,2.0129032 v 0 c 0.06794,0.1389462 0.01034,0.306129 -0.128602,0.3732258 v 0 c -0.138946,0.067097 -0.306688,0.00895 -0.374624,-0.13 v 0 C 10.627957,4.8184941 9.923441,4.197849 9.065161,3.909892 Z M 7.72043,3.3172038 c 0,-0.1543226 0.1252473,-0.2795699 0.2795699,-0.2795699 0.1543221,0 0.2795701,0.1252473 0.2795701,0.2795699 0,0.1543226 -0.125248,0.2795699 -0.2795701,0.2795699 -0.1543226,0 -0.2795699,-0.1252473 -0.2795699,-0.2795699 z M 7.3010752,7.2311823 c 0,-0.1845161 0.072688,-0.3634409 0.204086,-0.4948387 0.1313978,-0.1313979 0.3103226,-0.204086 0.4948387,-0.204086 0.1845161,0 0.3634411,0.072688 0.4948391,0.204086 0.131397,0.1313978 0.204086,0.3103226 0.204086,0.4948387 0,0.1845161 -0.07269,0.3634409 -0.204086,0.4948387 C 8.363441,7.8574189 8.184516,7.930107 7.9999999,7.930107 7.8154838,7.930107 7.636559,7.857419 7.5051612,7.726021 7.3737633,7.5946232 7.3010752,7.4156984 7.3010752,7.2311823 Z m -0.5591398,0 c 0,-0.3326882 0.1313978,-0.6541936 0.3690322,-0.8890323 0.2348388,-0.2376344 0.5563441,-0.3690322 0.8890323,-0.3690322 0.3326881,0 0.6541931,0.1313978 0.8890321,0.3690322 0.237635,0.2348387 0.369032,0.5563441 0.369032,0.8890323 0,0.3326882 -0.131397,0.6541935 -0.369032,0.8890323 C 8.654193,8.357849 8.332688,8.4892468 7.9999999,8.4892468 7.6673117,8.4892468 7.3458064,8.357849 7.1109676,8.1202146 6.8733332,7.8853758 6.7419354,7.5638705 6.7419354,7.2311823 Z m -0.5591398,0 c 0,-0.4808602 0.1929032,-0.9449462 0.5311828,-1.2860215 C 7.0550537,5.6068812 7.5191397,5.413978 7.9999999,5.413978 c 0.4808601,0 0.9449461,0.1929032 1.2860211,0.5311828 0.33828,0.3410753 0.531183,0.8051613 0.531183,1.2860215 0,0.4808602 -0.192903,0.9449462 -0.531183,1.2860215 C 8.944946,8.8554834 8.48086,9.0483866 7.9999999,9.0483866 7.5191397,9.0483866 7.0550537,8.8554834 6.7139784,8.5172038 6.3756988,8.1761285 6.1827956,7.7120425 6.1827956,7.2311823 Z m -0.5591398,0 c 0,-0.6290323 0.2516129,-1.2356989 0.696129,-1.6802151 0.4445162,-0.4445161 1.0511828,-0.696129 1.6802151,-0.696129 0.6290321,0 1.2356991,0.2516129 1.6802151,0.696129 0.444516,0.4445162 0.696129,1.0511828 0.696129,1.6802151 0,0.6290323 -0.251613,1.2356989 -0.696129,1.680215 C 9.235699,9.3559135 8.629032,9.6075264 7.9999999,9.6075264 7.3709676,9.6075264 6.764301,9.3559135 6.3197848,8.9113973 5.8752687,8.4668812 5.6236558,7.8602146 5.6236558,7.2311823 Z"
     fill-rule="evenodd"
     id="path2"
     style="fill:url(#linearGradient4);fill-opacity:1" />
</svg>
