<?xml version="1.0" encoding="UTF-8" standalone="no"?>
<!-- Generator: Gravit.io -->

<svg
   style="isolation:isolate"
   viewBox="0 0 16 16"
   width="16"
   height="16"
   version="1.1"
   id="svg4"
   sodipodi:docname="hb-icon.svg"
   inkscape:version="1.4.4 (unknown)"
   xmlns:inkscape="http://www.inkscape.org/namespaces/inkscape"
   xmlns:sodipodi="http://sodipodi.sourceforge.net/DTD/sodipodi-0.dtd"
   xmlns:xlink="http://www.w3.org/1999/xlink"
   xmlns="http://www.w3.org/2000/svg"
   xmlns:svg="http://www.w3.org/2000/svg">
  <defs
     id="defs4">
    <linearGradient
       id="linearGradient4"
       inkscape:collect="always">
      <stop
         style="stop-color:#ffd322;stop-opacity:1;"
         offset="0"
         id="stop5" />
      <stop
         style="stop-color:#ffccaa;stop-opacity:1"
         offset="1"
         id="stop6" />
    </linearGradient>
    <linearGradient
       inkscape:collect="always"
       xlink:href="#linearGradient4"
       id="linearGradient6"
       x1="3.5725923"
       y1="15.119686"
       x2="14.257344"
       y2="5.508131"
       gradientUnits="userSpaceOnUse" />
  </defs>
  <sodipodi:namedview
     id="namedview4"
     pagecolor="#ffffff"
     bordercolor="#000000"
     borderopacity="0.25"
     inkscape:showpageshadow="2"
     inkscape:pageopacity="0.0"
     inkscape:pagecheckerboard="0"
     inkscape:deskcolor="#d1d1d1"
     inkscape:document-units="px"
     inkscape:zoom="23.65625"
     inkscape:cx="10.272127"
     inkscape:cy="9.6169089"
     inkscape:window-width="1920"
     inkscape:window-height="994"
     inkscape:window-x="0"
     inkscape:window-y="0"
     inkscape:window-maximized="1"
     inkscape:current-layer="svg4" />
  <linearGradient
     id="_lgradient_5"
     x1="0"
     y1="0.5"
     x2="1"
     y2="0.5"
     gradientTransform="matrix(10.978644,0,0,5.5059889,3.3913425,-0.88031535)"
     gradientUnits="userSpaceOnUse">
    <stop
       offset="0%"
       stop-opacity="1"
       style="stop-color:rgb(67,233,123)"
       id="stop1" />
    <stop
       offset="97.82608695652173%"
       stop-opacity="1"
       style="stop-color:rgb(56,249,215)"
       id="stop2" />
  </linearGradient>
  <linearGradient
     id="_lgradient_6"
     x1="0"
     y1="0.5"
     x2="0.90748805"
     y2="0.92007786"
     gradientTransform="matrix(12.157975,0,0,11.46331,2.801677,3.6563421)"
     gradientUnits="userSpaceOnUse">
    <stop
       offset="0%"
       stop-opacity="1"
       style="stop-color:rgb(247,241,7)"
       id="stop3" />
    <stop
       offset="83.88839793817618%"
       stop-opacity="1"
       style="stop-color:rgb(255,187,36)"
       id="stop4" />
  </linearGradient>
  <g
     id="g4"
     transform="matrix(0.82250539,0,0,0.81249993,0.69560558,2.2152562)">
    <path
       d="m 5.4533383,2.081012 c 0.039,0.074667 0.078,0.1496664 0.1139998,0.2276662 0.1406663,0.2876661 0.2696661,0.5813321 0.3896658,0.8783315 L 6.0706704,3.4596759 6.24167,3.8763416 5.4113384,4.2210076 5.2376721,3.8073419 5.1236723,3.5316757 c 0,-0.003 0,-0.003 0,-0.006 C 5.0096725,3.2466763 4.8900061,2.9740102 4.7580064,2.7013441 4.3713405,1.9190123 3.9126748,1.1756804 3.3913425,0.47434855 4.1526743,0.65134825 4.8960061,0.88801445 5.621338,1.1786804 5.912004,1.2956802 6.1966701,1.4306799 6.4723362,1.5863463 6.7273357,1.736346 6.9700019,1.9070123 7.191668,2.1020119 c 0.006,0.003 0.012,0.006 0.015,0.012 0.117,-0.4106659 0.260666,-0.8153317 0.434666,-1.20799755 0.296666,-0.6833319 0.743332,-1.29466403 1.306664,-1.7863297 0.581665,0.49766566 1.042998,1.1209977 1.351997,1.8223296 0.182666,0.41366585 0.329666,0.84233175 0.440333,1.27966415 0.107999,-0.083667 0.215999,-0.1646663 0.326666,-0.2456663 0.266999,-0.1946662 0.542665,-0.3806658 0.827331,-0.5513322 0.242666,-0.1469997 0.494666,-0.2789994 0.755332,-0.3956658 0.539332,-0.23999945 1.129998,-0.35066595 1.72033,-0.32366595 -0.491666,0.65033195 -0.925998,1.34266385 -1.294664,2.07099575 -0.162,0.314666 -0.296666,0.644332 -0.395666,0.985998 l -0.129,0.4286658 -0.859998,-0.2549995 0.125666,-0.4313325 c 0.117,-0.3926659 0.27,-0.7733317 0.458666,-1.1389977 0.03,-0.057 0.06,-0.1169997 0.093,-0.1769996 -0.003,0.003 -0.006,0.003 -0.009,0.006 C 12.097992,2.3506781 11.846325,2.5213444 11.600659,2.701344 11.069994,3.08801 10.566661,3.5076757 10.089996,3.9540082 10.053996,3.04001 9.844329,2.1440119 9.478663,1.3046803 9.340664,0.99301415 9.163997,0.69634815 8.953998,0.42634865 8.759332,0.68734815 8.594332,0.96901425 8.465666,1.2656803 7.998,2.3266781 7.755334,3.4686759 7.752334,4.6256734 7.557334,3.9123417 7.155668,3.2676763 6.601336,2.7763439 6.4213363,2.6233443 6.2296701,2.4856779 6.0260038,2.368678 5.8400042,2.2636783 5.6483379,2.1676785 5.4533383,2.081012 Z"
       id="path2"
       style="fill:#66ff00;fill-opacity:1" />
    <path
       d="M 6.4903362,7.9986667 8.053,9.4913307 v 0 L 6.578336,11.035328 5.0160058,9.4729967 Z M 5.7373377,7.2793347 4.6713399,6.2610035 C 4.3603405,6.7193359 4.1910075,7.2640015 4.1910075,7.8246671 v 0.8233316 l 0.088667,0.088667 z M 8.723665,5.7656711 10.269662,7.1710016 v 0 L 8.772665,8.7379986 7.227335,7.2620014 Z M 7.970667,5.0460059 H 6.9700019 c -0.5599989,0 -1.1039978,0.1686664 -1.5616635,0.4786657 l 1.0656645,1.0176646 z m 0.835665,5.1646571 1.492996,1.425997 v 0 l -1.540663,1.578996 v 0 L 7.315001,11.771993 Z m 2.234328,-2.3389961 1.553664,1.4126637 v 0 L 11.02666,10.890994 9.525997,9.4576636 Z M 5.7253377,13.436656 c 0.3829993,0.191333 0.8089984,0.293333 1.2446642,0.293333 H 7.800334 v 0 0 L 6.5956693,12.525325 Z M 4.8930061,12.799657 C 4.4416737,12.292325 4.1910075,11.63366 4.1910075,10.950994 v -0.829998 l 1.6679966,1.667663 z M 12.85999,5.9670041 c 0.456666,0.5086656 0.710332,1.1713309 0.710332,1.857663 v 0.9376647 0 0 0 0 L 11.760992,7.1176684 12.837323,5.9906707 Z M 12.024325,5.333672 C 11.644326,5.1460057 11.22266,5.0460059 10.791327,5.0460059 h -1.30933 l 1.507997,1.3706639 z m 1.340997,4.6516577 0.205,0.1863333 v 0 0.779331 c 0,0 0,0 0,0.0037 0,0.388999 -0.05233,0.777998 -0.163333,1.153331 -0.076,0.261666 -0.184,0.514666 -0.323999,0.746999 v 0 0 L 11.779992,11.610693 Z M 9.331664,14.120655 c 0.045,0.092 0.07,0.194999 0.07,0.304332 v 0 c 0,0.383333 -0.311333,0.694666 -0.694666,0.694666 v 0 H 6.9700019 c -1.1046644,0 -2.167329,-0.441333 -2.948994,-1.219331 C 3.2426761,13.118657 2.801677,12.055659 2.801677,10.950994 V 7.8246671 c 0,-1.1043311 0.4409991,-2.1673291 1.2193309,-2.9489942 0.781665,-0.7779983 1.8443296,-1.2193307 2.948994,-1.2193307 h 3.8213251 c 1.104665,0 2.167329,0.4413324 2.948995,1.2193307 0.778331,0.7816651 1.21933,1.844663 1.21933,2.9489942 v 3.1263269 c 0,0.521333 -0.073,1.042332 -0.218666,1.545997 -0.132,0.461999 -0.340666,0.902998 -0.614999,1.302664 -0.256999,0.378666 -0.590665,0.698332 -0.979664,0.941332 -0.392333,0.242999 -0.843999,0.374999 -1.305998,0.378666 v 0 c -0.383332,0.0037 -0.697998,-0.304333 -0.701665,-0.687666 v 0 c -0.004,-0.383666 0.304333,-0.697998 0.687665,-0.701998 v 0 c 0.184333,-0.003 0.363,-0.04667 0.524666,-0.133667 v 0 l -1.298664,-1.24033 -1.57433,1.613663 z"
       fill-rule="evenodd"
       id="path4"
       style="fill:url(#linearGradient6)" />
  </g>
</svg>
