<?xml version="1.0" encoding="UTF-8" standalone="no"?>
<!-- Generator: Gravit.io -->

<svg
   style="isolation:isolate"
   viewBox="0 0 16 16"
   width="16"
   height="16"
   version="1.1"
   id="svg2"
   sodipodi:docname="heynote.svg"
   inkscape:version="1.4.4 (unknown)"
   xmlns:inkscape="http://www.inkscape.org/namespaces/inkscape"
   xmlns:sodipodi="http://sodipodi.sourceforge.net/DTD/sodipodi-0.dtd"
   xmlns:xlink="http://www.w3.org/1999/xlink"
   xmlns="http://www.w3.org/2000/svg"
   xmlns:svg="http://www.w3.org/2000/svg">
  <defs
     id="defs2">
    <linearGradient
       id="linearGradient2"
       inkscape:collect="always">
      <stop
         style="stop-color:#2ad4ff;stop-opacity:1"
         offset="0"
         id="stop3" />
      <stop
         style="stop-color:#8d5fd3;stop-opacity:1"
         offset="1"
         id="stop4" />
    </linearGradient>
    <linearGradient
       inkscape:collect="always"
       xlink:href="#linearGradient2"
       id="linearGradient4"
       x1="2.1218486"
       y1="13.936033"
       x2="10.674208"
       y2="9.0568027"
       gradientUnits="userSpaceOnUse" />
  </defs>
  <sodipodi:namedview
     id="namedview2"
     pagecolor="#ffffff"
     bordercolor="#000000"
     borderopacity="0.25"
     inkscape:showpageshadow="2"
     inkscape:pageopacity="0.0"
     inkscape:pagecheckerboard="0"
     inkscape:deskcolor="#d1d1d1"
     inkscape:document-units="px"
     inkscape:zoom="23.65625"
     inkscape:cx="5.0726552"
     inkscape:cy="6.1505945"
     inkscape:window-width="1920"
     inkscape:window-height="994"
     inkscape:window-x="0"
     inkscape:window-y="0"
     inkscape:window-maximized="1"
     inkscape:current-layer="svg2" />
  <linearGradient
     id="_lgradient_13"
     x1="0.52604169"
     y1="0.020833334"
     x2="0.54180372"
     y2="0.92452484"
     gradientTransform="matrix(13,0,0,13,1.5,1.5)"
     gradientUnits="userSpaceOnUse">
    <stop
       offset="0%"
       stop-opacity="1"
       style="stop-color:rgb(17,153,142)"
       id="stop1" />
    <stop
       offset="99.1304347826087%"
       stop-opacity="1"
       style="stop-color:rgb(56,239,125)"
       id="stop2" />
  </linearGradient>
  <path
     d="m 13.055646,3.8110208 v 8.3779582 c 0,0.478292 -0.388375,0.866667 -0.866667,0.866667 H 3.8110208 c -0.4782916,0 -0.8666666,-0.388375 -0.8666666,-0.866667 V 3.8110208 c 0,-0.4782916 0.388375,-0.8666666 0.8666666,-0.8666666 h 8.3779582 c 0.478292,0 0.866667,0.388375 0.866667,0.8666666 z M 14.5,3.5223125 V 12.477688 C 14.5,13.593792 13.593792,14.5 12.477688,14.5 H 3.5223125 C 2.4062083,14.5 1.5,13.593792 1.5,12.477688 V 3.5223125 C 1.5,2.4062083 2.4062083,1.5 3.5223125,1.5 H 12.477688 C 13.593792,1.5 14.5,2.4062083 14.5,3.5223125 Z M 10.674208,8.2540417 V 12.031896 H 9.0933542 v -3.3840627 0 q 0,-1.2542291 -0.93275,-1.2542291 v 0 0 q -0.6632709,0 -0.95875,0.4509375 v 0 0 Q 6.9066458,8.2954792 6.9066458,9.3059583 v 0 2.7259377 H 5.3257917 V 3.9681042 h 1.5808541 v 1.642875 0 q 0,0.19175 -0.036292,0.9016041 v 0 l -0.036292,0.466375 h 0.082875 v 0 q 0.5286667,-0.849875 1.6791667,-0.849875 v 0 0 q 1.0207708,0 1.5494375,0.5495209 v 0 0 q 0.528667,0.54925 0.528667,1.5754375 z"
     id="path2"
     fill-rule="evenodd"
     style="fill:url(#linearGradient4)" />
</svg>
