<?xml version="1.0" encoding="UTF-8" standalone="no"?>
<!-- Generator: Gravit.io -->

<svg
   style="isolation:isolate"
   viewBox="0 0 16 16"
   width="16"
   height="16"
   version="1.1"
   id="svg9"
   sodipodi:docname="hyperspace.svg"
   inkscape:version="1.4.4 (unknown)"
   xmlns:inkscape="http://www.inkscape.org/namespaces/inkscape"
   xmlns:sodipodi="http://sodipodi.sourceforge.net/DTD/sodipodi-0.dtd"
   xmlns:xlink="http://www.w3.org/1999/xlink"
   xmlns="http://www.w3.org/2000/svg"
   xmlns:svg="http://www.w3.org/2000/svg">
  <defs
     id="defs9">
    <linearGradient
       id="linearGradient9"
       inkscape:collect="always">
      <stop
         style="stop-color:#bc5fd3;stop-opacity:1"
         offset="0"
         id="stop9" />
      <stop
         style="stop-color:#9955ff;stop-opacity:1"
         offset="1"
         id="stop10" />
    </linearGradient>
    <linearGradient
       inkscape:collect="always"
       xlink:href="#linearGradient9"
       id="linearGradient10"
       x1="0.00016800063"
       y1="6.5000732"
       x2="13.000135"
       y2="6.5000732"
       gradientUnits="userSpaceOnUse" />
  </defs>
  <sodipodi:namedview
     id="namedview9"
     pagecolor="#ffffff"
     bordercolor="#000000"
     borderopacity="0.25"
     inkscape:showpageshadow="2"
     inkscape:pageopacity="0.0"
     inkscape:pagecheckerboard="0"
     inkscape:deskcolor="#d1d1d1"
     inkscape:document-units="px"
     inkscape:zoom="23.65625"
     inkscape:cx="6.2562748"
     inkscape:cy="9.997358"
     inkscape:window-width="1920"
     inkscape:window-height="994"
     inkscape:window-x="0"
     inkscape:window-y="0"
     inkscape:window-maximized="1"
     inkscape:current-layer="svg9" />
  <linearGradient
     id="_lgradient_38"
     x1="0"
     y1="0.5"
     x2="1"
     y2="0.5"
     gradientTransform="matrix(7.670009,0,0,5.5767357,2.8923551,3.5119533)"
     gradientUnits="userSpaceOnUse">
    <stop
       offset="0%"
       stop-opacity="1"
       style="stop-color:rgb(255,224,49)"
       id="stop1" />
    <stop
       offset="98.69565217391305%"
       stop-opacity="1"
       style="stop-color:rgb(252,82,82)"
       id="stop2" />
  </linearGradient>
  <linearGradient
     id="_lgradient_39"
     x1="0.55000013"
     y1="0.083333336"
     x2="0.49888888"
     y2="1.0203704"
     gradientTransform="matrix(2.7083365,0,0,4.0625047,2.708459,4.8750591)"
     gradientUnits="userSpaceOnUse">
    <stop
       offset="0%"
       stop-opacity="1"
       style="stop-color:rgb(247,242,6)"
       id="stop3" />
    <stop
       offset="97.82608695652173%"
       stop-opacity="1"
       style="stop-color:rgb(255,187,36)"
       id="stop4" />
  </linearGradient>
  <linearGradient
     id="_lgradient_40"
     x1="0"
     y1="0.5"
     x2="1"
     y2="0.5"
     gradientTransform="matrix(2.1666692,0,0,1.3541682,6.5001301,8.1250629)"
     gradientUnits="userSpaceOnUse">
    <stop
       offset="0%"
       stop-opacity="1"
       style="stop-color:rgb(178,254,250)"
       id="stop5" />
    <stop
       offset="98.26086956521739%"
       stop-opacity="1"
       style="stop-color:rgb(14,210,247)"
       id="stop6" />
  </linearGradient>
  <linearGradient
     id="_lgradient_41"
     x1="0.57576865"
     y1="0.38670361"
     x2="0.1279486"
     y2="0.79178208"
     gradientTransform="matrix(13.000015,0,0,13.000015,1.2250169e-4,5.3373759e-5)"
     gradientUnits="userSpaceOnUse">
    <stop
       offset="0%"
       stop-opacity="1"
       style="stop-color:rgb(211,0,220)"
       id="stop7" />
    <stop
       offset="100%"
       stop-opacity="1"
       style="stop-color:rgb(135,0,255)"
       id="stop8" />
  </linearGradient>
  <g
     id="g9"
     transform="translate(1.4998485,1.4999268)">
    <path
       d="M 5.6529625,8.6187927 C 5.3658788,8.5082926 4.1631066,8.2385423 3.6988977,7.9587711 2.933251,7.4975414 2.9134801,7.0948118 2.9134801,7.0948118 c 0,0 -0.462313,-3.1435663 2.9304201,-3.5755459 0.832001,-0.04875 1.4235017,0.1408335 1.8863564,0.6050423 0.6421466,0.6443133 1.0624805,1.535356 0.9230011,2.4659405 C 8.5590076,7.2204786 8.42982,7.420083 8.5757993,7.5297706 8.6936119,7.6183332 8.7117578,7.6196874 8.8490705,7.548729 9.1402166,7.3981454 9.2247167,7.1587285 9.2241751,6.6441446 9.2239042,6.3890193 9.2025084,6.1311856 9.1762375,5.9055812 9.1334458,5.5380599 9.1377791,5.4828098 9.2171334,5.3747472 9.5031337,4.9847468 9.9478426,5.1307261 10.238447,5.7103101 10.761969,6.7535613 10.646323,7.6627499 9.9240092,8.4200008 9.6298839,8.7284803 9.1648625,8.9760223 8.7886745,9.0461682 c -1.597106,0.098313 -2.0112107,0.052 -3.135712,-0.4273755"
       fill="url(#_lgradient_38)"
       id="path2"
       style="fill:url(#_lgradient_38);stroke-width:0.270834" />
    <path
       d="M 4.6714614,8.8411471 C 4.8772949,8.7588137 5.2407537,8.4435633 5.3368996,8.2648131 5.4436081,8.0657504 5.4433373,5.9432271 5.336358,5.6515392 5.1513786,5.1464345 4.7158781,4.8750591 4.0899815,4.8750591 c -0.3268962,0 -0.3935213,0.016792 -0.5904174,0.1500419 C 2.9408343,5.4029139 2.708459,5.9632687 2.708459,6.9323116 c 0,0.5053756 0.021396,0.6857508 0.1161877,0.9760844 0.128646,0.394063 0.3661671,0.7312509 0.6131674,0.8701886 0.328792,0.1849794 0.861251,0.2120627 1.2336473,0.062563 z"
       fill="url(#_lgradient_39)"
       id="path4"
       style="fill:url(#_lgradient_39);stroke-width:0.270834" />
    <path
       d="M 8.2145072,9.3389394 C 8.5194659,9.1926892 8.6846744,8.9527306 8.6651744,8.6843345 8.6435077,8.3853341 8.5183826,8.3466049 8.0186945,8.4850009 7.584819,8.605251 7.5745273,8.6030844 7.192381,8.3200632 7.0742975,8.2323131 6.9407765,8.1483547 6.8958181,8.133188 6.6975679,8.0662921 6.4768385,8.4265008 6.502026,8.7756054 c 0.015437,0.2136878 0.3699588,0.566584 0.657855,0.6548758 0.2965628,0.091 0.7572509,0.051188 1.0546262,-0.091542 z"
       fill="url(#_lgradient_40)"
       id="path6"
       style="fill:url(#_lgradient_40);stroke-width:0.270834" />
    <path
       d="m 9.1775917,11.152442 v 0 c 0.2705628,-0.154646 0.6172299,-0.06094 0.7735009,0.208812 v 0 c 0.1562714,0.269751 0.063375,0.615876 -0.2074586,0.771876 v 0 C 8.6909036,12.739256 7.490298,13.037715 6.2785882,12.996277 5.1798161,12.958902 4.1075857,12.642297 3.1626471,12.078422 v 0 C 2.8950634,11.918088 2.8081258,11.570338 2.9684593,11.302754 v 0 c 0.1606044,-0.267583 0.508084,-0.354521 0.7759385,-0.194188 v 0 c 0.7786467,0.46773 1.6631894,0.726918 2.5726488,0.758064 1.002897,0.03412 1.9922524,-0.212063 2.8605451,-0.714188 z M 11.306886,4.1048082 v 0 C 11.166594,3.8253079 11.279532,3.4851408 11.559032,3.3456615 v 0 c 0.2795,-0.1394793 0.618855,-0.026 0.757793,0.2535003 v 0 c 0.48425,0.9666053 0.716355,2.0407316 0.679521,3.1224412 -0.02817,0.8246885 -0.21125,1.6355644 -0.54248,2.3879403 v 0 c -0.125125,0.2860003 -0.459063,0.4165422 -0.745063,0.2911462 v 0 c -0.286,-0.1251252 -0.416542,-0.4590631 -0.291146,-0.7450634 v 0 c 0.275708,-0.6212924 0.42575,-1.2918765 0.448771,-1.9724815 0.0306,-0.8926677 -0.1625,-1.7785646 -0.559542,-2.5783364 z M 4.1739399,1.6616178 v 0 C 3.8930854,1.7956805 3.555085,1.6765137 3.4193974,1.3956592 v 0 C 3.2839805,1.1148047 3.4017932,0.77653346 3.6826477,0.64111663 v 0 C 4.6283988,0.18692859 5.6708375,-0.031905 6.7216721,0.00384504 7.7326941,0.03824092 8.7247578,0.3069079 9.6128214,0.79251264 v 0 C 9.8871758,0.94228365 9.9881968,1.2865132 9.8384258,1.5608677 v 0 C 9.6886548,1.8349514 9.3444252,1.9359723 9.0700707,1.7862013 v 0 C 8.3371948,1.3850967 7.5190064,1.1622006 6.6832137,1.1334922 5.8160044,1.1039713 4.9558367,1.2840757 4.1739399,1.6616178 Z M 1.4057492,8.2038756 v 0 c 0.099396,0.2952086 -0.060396,0.6156049 -0.3564171,0.71473 v 0 C 0.75331089,9.0177307 0.43237301,8.8571263 0.3332479,8.5605635 v 0 C 0.08976844,7.8255209 -0.02235669,7.0525617 0.00391417,6.2785191 0.03885171,5.2561221 0.3132062,4.2532251 0.81045679,3.3567657 v 0 C 0.9602278,3.0840362 1.3036449,2.9854527 1.5771869,3.1368487 v 0 C 1.8507289,3.2882448 1.949854,3.6324743 1.798458,3.9052038 v 0 C 1.3886866,4.6462047 1.1625405,5.4725182 1.1335613,6.3169775 1.1118946,6.9583116 1.2031656,7.5947707 1.4057492,8.2038756 Z M 11.365386,2.3931395 c -0.01083,0.3120004 -0.272459,0.5562924 -0.584188,0.5457298 -0.31173,-0.010562 -0.556293,-0.2724586 -0.54573,-0.5841881 0.01056,-0.3117296 0.272459,-0.5562924 0.584188,-0.545459 0.31173,0.010563 0.556292,0.2721878 0.54573,0.5839173 z M 2.5356672,10.227545 C 2.5251047,10.539274 2.2634793,10.783837 1.9517498,10.773274 1.6397494,10.762441 1.3954575,10.500816 1.40602,10.189086 1.4165825,9.8773567 1.6784787,9.6327939 1.9902082,9.6433564 c 0.3117295,0.010563 0.5562923,0.2724587 0.545459,0.5841886 z m 9.0482818,0.308479 c 0.01056,-0.311729 -0.234001,-0.5733547 -0.54573,-0.584188 -0.31173,-0.010563 -0.573355,0.234 -0.584188,0.54573 -0.01056,0.311729 0.234,0.573625 0.545729,0.584188 0.31173,0.01056 0.573626,-0.234 0.584189,-0.54573 z M 2.9427301,2.1060559 C 2.9532927,1.7943263 2.7090007,1.5324302 2.3972712,1.5218677 2.0852708,1.5113052 1.8236455,1.7558679 1.813083,2.0675975 1.8022496,2.379327 2.0468124,2.6409523 2.358542,2.6517857 2.6705423,2.6623482 2.9321676,2.4177854 2.9427301,2.1060559 Z"
       fill-rule="evenodd"
       id="path8"
       style="fill:url(#linearGradient10)" />
    <path
       d="m 6.7763805,6.4783944 v 0 c -0.059854,0.043333 -0.1446252,0.030062 -0.1895836,-0.029792 v 0 C 6.5418386,6.3887484 6.5540261,6.3039775 6.6138803,6.2590191 v 0 C 6.8088805,6.1154773 7.0417975,6.0342272 7.2855478,6.0261022 c 0.2166669,0.00542 0.4279171,0.075833 0.603959,0.2031252 v 0 c 0.059854,0.044958 0.072583,0.1297293 0.028438,0.1895836 v 0 C 7.8737985,6.4786652 7.788215,6.491936 7.7270066,6.4486027 v 0 C 7.5997148,6.3538109 7.4453396,6.3023525 7.2855478,6.2969358 7.1013809,6.3050608 6.925339,6.3673526 6.7763805,6.4783944 Z"
       fill="#000000"
       id="path9"
       style="stroke-width:0.270834" />
  </g>
</svg>
