<?xml version="1.0" encoding="UTF-8" standalone="no"?>
<!-- Generator: Gravit.io -->

<svg
   style="isolation:isolate"
   viewBox="0 0 16 16"
   width="16"
   height="16"
   version="1.1"
   id="svg3"
   sodipodi:docname="io.github.seadve.Mousai.svg"
   inkscape:version="1.4.4 (unknown)"
   xmlns:inkscape="http://www.inkscape.org/namespaces/inkscape"
   xmlns:sodipodi="http://sodipodi.sourceforge.net/DTD/sodipodi-0.dtd"
   xmlns:xlink="http://www.w3.org/1999/xlink"
   xmlns="http://www.w3.org/2000/svg"
   xmlns:svg="http://www.w3.org/2000/svg">
  <defs
     id="defs3">
    <linearGradient
       id="linearGradient3"
       inkscape:collect="always">
      <stop
         style="stop-color:#ffff00;stop-opacity:1"
         offset="0"
         id="stop4" />
      <stop
         style="stop-color:#00ccff;stop-opacity:1"
         offset="1"
         id="stop5" />
    </linearGradient>
    <linearGradient
       inkscape:collect="always"
       xlink:href="#linearGradient3"
       id="linearGradient5"
       x1="2.2895131"
       y1="12.523118"
       x2="14.640474"
       y2="4.1955085"
       gradientUnits="userSpaceOnUse" />
  </defs>
  <sodipodi:namedview
     id="namedview3"
     pagecolor="#ffffff"
     bordercolor="#000000"
     borderopacity="0.25"
     inkscape:showpageshadow="2"
     inkscape:pageopacity="0.0"
     inkscape:pagecheckerboard="0"
     inkscape:deskcolor="#d1d1d1"
     inkscape:document-units="px"
     inkscape:zoom="23.65625"
     inkscape:cx="4.6076618"
     inkscape:cy="3.3606341"
     inkscape:window-width="1920"
     inkscape:window-height="994"
     inkscape:window-x="0"
     inkscape:window-y="0"
     inkscape:window-maximized="1"
     inkscape:current-layer="svg3" />
  <linearGradient
     id="_lgradient_0"
     x1="1.1234108"
     y1="0.2384859"
     x2="0.12334016"
     y2="0.83654284"
     gradientTransform="matrix(13.280952,0,0,13.000115,1.3595253,1.4999859)"
     gradientUnits="userSpaceOnUse">
    <stop
       offset="2.1739130434782608%"
       stop-opacity="1"
       style="stop-color:rgb(242,79,92)"
       id="stop1" />
    <stop
       offset="49.56521739130435%"
       stop-opacity="1"
       style="stop-color:rgb(208,103,207)"
       id="stop2" />
    <stop
       offset="98.26086956521739%"
       stop-opacity="1"
       style="stop-color:rgb(49,193,233)"
       id="stop3" />
  </linearGradient>
  <path
     d="m 8.4534901,13.318096 v 0 c -0.3314704,0.02739 -0.5782747,0.314039 -0.5511594,0.639699 v 0 c 0.027115,0.325384 0.3195728,0.567484 0.6524267,0.540092 v 0 C 10.2229,14.361758 11.779539,13.611107 12.909249,12.39673 14.036194,11.182353 14.655418,9.593619 14.6402,7.951208 14.624152,6.2260678 13.908641,4.5753562 12.653868,3.3642995 11.396051,2.1560096 9.6994094,1.4847681 7.93996,1.5002626 6.180234,1.515757 4.49632,2.217434 3.2609149,3.4475821 2.0288299,4.6804971 1.3437542,6.3439362 1.359802,8.0690765 v 0 c 0.00304,0.32649 0.2758564,0.5893422 0.608987,0.5862986 v 0 C 2.3019195,8.6526083 2.5700287,8.3850524 2.5669852,8.0582857 v 0 C 2.5539809,6.6469079 3.1151011,5.2864405 4.12307,4.2773649 5.1338057,3.2710561 6.511151,2.696655 7.9507508,2.6839274 9.3906273,2.6711994 10.77821,3.2209759 11.807484,4.2093 c 1.02623,0.991091 1.612252,2.341321 1.625256,3.7526988 0.01245,1.3433129 -0.491672,2.6440162 -1.415251,3.6375972 -0.92358,0.993582 -2.197721,1.605612 -3.5639989,1.7185 z M 3.4360574,10.529649 v 0 C 3.2813897,10.241895 2.9225273,10.133711 2.6347733,10.288102 v 0 C 2.3470194,10.44277 2.238835,10.801632 2.3935027,11.089387 v 0 c 0.6590672,1.225167 1.6949814,2.210171 2.9519681,2.805324 v 0 c 0.2952245,0.14111 0.6488299,0.01577 0.7891099,-0.279454 v 0 c 0.14028,-0.295224 0.014388,-0.649383 -0.2808368,-0.790493 v 0 C 4.8225334,12.336966 3.9778095,11.533745 3.4360574,10.529649 Z M 5.7878925,8.8158533 c 0.3821041,0 0.6917162,0.3096122 0.6917162,0.6917162 0,0.382104 -0.3096121,0.6917165 -0.6917162,0.6917165 -0.382104,0 -0.6917162,-0.3096125 -0.6917162,-0.6917165 0,-0.382104 0.3096122,-0.6917162 0.6917162,-0.6917162 z m 3.5969243,0 c 0.3821041,0 0.6917162,0.3096122 0.6917162,0.6917162 0,0.382104 -0.3096121,0.6917165 -0.6917162,0.6917165 -0.382104,0 -0.6917162,-0.3096125 -0.6917162,-0.6917165 0,-0.382104 0.3096122,-0.6917162 0.6917162,-0.6917162 z M 6.4796087,5.218929 V 5.6339587 6.0489884 8.1529125 C 6.2654534,8.0433446 6.0283331,7.9860705 5.7878925,7.9857938 c -0.8405735,0 -1.5217756,0.6812022 -1.5217756,1.5217757 0,0.8405735 0.6812021,1.5217765 1.5217756,1.5217765 0.8184387,-0.0017 1.4891267,-0.650214 1.5179021,-1.468376 0.00221,-0.017431 0.00387,-0.035139 0.00387,-0.053401 V 6.0489884 H 10.076533 V 8.1529125 C 9.8623777,8.0433446 9.6252574,7.9860705 9.3848168,7.9857938 c -0.8405735,0 -1.5217756,0.6812022 -1.5217756,1.5217757 0,0.8405735 0.6812021,1.5217765 1.5217756,1.5217765 0.8184382,-0.0017 1.4891272,-0.650214 1.5179022,-1.468376 0.0022,-0.017431 0.0039,-0.035139 0.0039,-0.053401 V 6.0489884 5.6339587 5.218929 H 10.491563 6.8946385 Z"
     fill-rule="evenodd"
     id="path3"
     style="fill:url(#linearGradient5)" />
</svg>
