<?xml version="1.0" encoding="UTF-8" standalone="no"?>
<svg
   width="16"
   height="16"
   version="1.1"
   id="svg23"
   sodipodi:docname="io.gitlab.zehkira.Monophony.svg"
   inkscape:version="1.4.4 (unknown)"
   xmlns:inkscape="http://www.inkscape.org/namespaces/inkscape"
   xmlns:sodipodi="http://sodipodi.sourceforge.net/DTD/sodipodi-0.dtd"
   xmlns:xlink="http://www.w3.org/1999/xlink"
   xmlns="http://www.w3.org/2000/svg"
   xmlns:svg="http://www.w3.org/2000/svg">
  <sodipodi:namedview
     id="namedview23"
     pagecolor="#ffffff"
     bordercolor="#000000"
     borderopacity="0.25"
     inkscape:showpageshadow="2"
     inkscape:pageopacity="0.0"
     inkscape:pagecheckerboard="0"
     inkscape:deskcolor="#d1d1d1"
     inkscape:zoom="24.090573"
     inkscape:cx="6.0604619"
     inkscape:cy="8.5718177"
     inkscape:window-width="1920"
     inkscape:window-height="994"
     inkscape:window-x="0"
     inkscape:window-y="0"
     inkscape:window-maximized="1"
     inkscape:current-layer="svg23" />
  <defs
     id="defs22">
    <linearGradient
       id="linearGradient1"
       inkscape:collect="always">
      <stop
         style="stop-color:#00ccff;stop-opacity:1"
         offset="0"
         id="stop25" />
      <stop
         style="stop-color:#d35f8d;stop-opacity:1"
         offset="1"
         id="stop26" />
    </linearGradient>
    <linearGradient
       id="linearGradient24"
       x1="0%"
       x2="0%"
       y1="0%"
       y2="100%">
      <stop
         offset="0%"
         style="stop-color:#ff2a2a;stop-opacity:1"
         id="stop23" />
      <stop
         offset="100%"
         style="stop-color:#d35f8d;stop-opacity:1"
         id="stop24" />
    </linearGradient>
    <style
       id="current-color-scheme"
       type="text/css">
   .ColorScheme-Text { color:#d5c289; } .ColorScheme-Highlight { color:#5294e2; }
  </style>
    <linearGradient
       id="arrongin"
       x1="0%"
       x2="0%"
       y1="0%"
       y2="100%">
      <stop
         offset="0%"
         style="stop-color:#dd9b44; stop-opacity:1"
         id="stop1" />
      <stop
         offset="100%"
         style="stop-color:#ad6c16; stop-opacity:1"
         id="stop2" />
    </linearGradient>
    <linearGradient
       id="aurora"
       x1="0%"
       x2="0%"
       y1="0%"
       y2="100%">
      <stop
         offset="0%"
         style="stop-color:#09D4DF; stop-opacity:1"
         id="stop3" />
      <stop
         offset="100%"
         style="stop-color:#9269F4; stop-opacity:1"
         id="stop4" />
    </linearGradient>
    <linearGradient
       id="fitdance"
       x1="0%"
       x2="0%"
       y1="0%"
       y2="100%">
      <stop
         offset="0%"
         style="stop-color:#1AD6AB; stop-opacity:1"
         id="stop5" />
      <stop
         offset="100%"
         style="stop-color:#329DB6; stop-opacity:1"
         id="stop6" />
    </linearGradient>
    <linearGradient
       id="oomox"
       x1="0%"
       x2="0%"
       y1="0%"
       y2="100%">
      <stop
         offset="0%"
         style="stop-color:#303b3d; stop-opacity:1"
         id="stop7" />
      <stop
         offset="100%"
         style="stop-color:#bc985d; stop-opacity:1"
         id="stop8" />
    </linearGradient>
    <linearGradient
       id="rainblue"
       x1="0%"
       x2="0%"
       y1="0%"
       y2="100%">
      <stop
         offset="0%"
         style="stop-color:#00F260; stop-opacity:1"
         id="stop9" />
      <stop
         offset="100%"
         style="stop-color:#0575E6; stop-opacity:1"
         id="stop10" />
    </linearGradient>
    <linearGradient
       id="sunrise"
       x1="0%"
       x2="0%"
       y1="0%"
       y2="100%">
      <stop
         offset="0%"
         style="stop-color: #FF8501; stop-opacity:1"
         id="stop11" />
      <stop
         offset="100%"
         style="stop-color: #FFCB01; stop-opacity:1"
         id="stop12" />
    </linearGradient>
    <linearGradient
       id="telinkrin"
       x1="0%"
       x2="0%"
       y1="0%"
       y2="100%">
      <stop
         offset="0%"
         style="stop-color: #b2ced6; stop-opacity:1"
         id="stop13" />
      <stop
         offset="100%"
         style="stop-color: #6da5b7; stop-opacity:1"
         id="stop14" />
    </linearGradient>
    <linearGradient
       id="60spsycho"
       x1="0%"
       x2="0%"
       y1="0%"
       y2="100%">
      <stop
         offset="0%"
         style="stop-color: #df5940; stop-opacity:1"
         id="stop15" />
      <stop
         offset="25%"
         style="stop-color: #d8d15f; stop-opacity:1"
         id="stop16" />
      <stop
         offset="50%"
         style="stop-color: #e9882a; stop-opacity:1"
         id="stop17" />
      <stop
         offset="100%"
         style="stop-color: #279362; stop-opacity:1"
         id="stop18" />
    </linearGradient>
    <linearGradient
       id="90ssummer"
       x1="0%"
       x2="0%"
       y1="0%"
       y2="100%">
      <stop
         offset="0%"
         style="stop-color: #f618c7; stop-opacity:1"
         id="stop19" />
      <stop
         offset="20%"
         style="stop-color: #94ffab; stop-opacity:1"
         id="stop20" />
      <stop
         offset="50%"
         style="stop-color: #fbfd54; stop-opacity:1"
         id="stop21" />
      <stop
         offset="100%"
         style="stop-color: #0f83ae; stop-opacity:1"
         id="stop22" />
    </linearGradient>
    <linearGradient
       inkscape:collect="always"
       xlink:href="#linearGradient24"
       id="linearGradient25"
       x1="1273"
       y1="-320"
       x2="1288.9919"
       y2="-320"
       gradientUnits="userSpaceOnUse"
       gradientTransform="matrix(0.99949997,0,0,1,0.63661597,-1)" />
    <linearGradient
       id="b-0"
       y1="10"
       y2="32"
       x2="0"
       gradientUnits="userSpaceOnUse"
       gradientTransform="matrix(0.2409091,0,0,0.2409091,5.4110921,3.1730215)"
       xlink:href="#rainblue">
      <stop
         stop-color="#f67400"
         id="stop7-2" />
      <stop
         offset="1"
         stop-color="#ed1515"
         id="stop9-3" />
    </linearGradient>
    <linearGradient
       inkscape:collect="always"
       xlink:href="#linearGradient24"
       id="linearGradient27"
       x1="5.0000043"
       y1="8"
       x2="10.999996"
       y2="8"
       gradientUnits="userSpaceOnUse"
       gradientTransform="matrix(0.50000002,0,0,0.50000002,4,3.9999999)" />
    <linearGradient
       id="_lgradient_10"
       x1="0"
       y1="0.5"
       x2="1"
       y2="0.5"
       gradientTransform="matrix(7.999999,0,0,7.999999,4.0000002,4)"
       gradientUnits="userSpaceOnUse">
      <stop
         offset="0%"
         stop-opacity="1"
         style="stop-color:rgb(135,154,242)"
         id="stop4-3" />
      <stop
         offset="47.91666666666667%"
         stop-opacity="1"
         style="stop-color:rgb(211,32,139)"
         id="stop5-6" />
      <stop
         offset="97.91666666666666%"
         stop-opacity="1"
         style="stop-color:rgb(253,160,0)"
         id="stop6-7" />
    </linearGradient>
    <linearGradient
       id="_lgradient_13"
       x1="-8.3266727e-16"
       y1="1"
       x2="0.9620378"
       y2="0.066200122"
       gradientTransform="matrix(2.0445958,0,0,5.3036325,11.382273,6.3963654)"
       gradientUnits="userSpaceOnUse">
      <stop
         offset="0%"
         stop-opacity="1"
         style="stop-color:rgb(135,154,242)"
         id="stop12-5" />
      <stop
         offset="47.91666666666667%"
         stop-opacity="1"
         style="stop-color:rgb(211,32,139)"
         id="stop13-3" />
      <stop
         offset="97.91666666666666%"
         stop-opacity="1"
         style="stop-color:rgb(253,160,0)"
         id="stop14-5" />
    </linearGradient>
    <linearGradient
       id="_lgradient_15"
       x1="0.1375"
       y1="0.11538462"
       x2="0.94519234"
       y2="1.0078895"
       gradientTransform="matrix(1.1859605,0,0,3.0480645,12.4781,3.7000001)"
       gradientUnits="userSpaceOnUse">
      <stop
         offset="0%"
         stop-opacity="1"
         style="stop-color:rgb(241,123,65)"
         id="stop18-6" />
      <stop
         offset="50%"
         stop-opacity="1"
         style="stop-color:rgb(224,91,162)"
         id="stop19-2" />
      <stop
         offset="97.5%"
         stop-opacity="1"
         style="stop-color:rgb(205,75,201)"
         id="stop20-9" />
    </linearGradient>
    <linearGradient
       inkscape:collect="always"
       xlink:href="#linearGradient1"
       id="linearGradient26"
       x1="4.0000006"
       y1="8"
       x2="11.999999"
       y2="8"
       gradientUnits="userSpaceOnUse" />
    <linearGradient
       inkscape:collect="always"
       xlink:href="#linearGradient1"
       id="linearGradient29"
       x1="11.382269"
       y1="9.0481834"
       x2="13.426868"
       y2="9.0481834"
       gradientUnits="userSpaceOnUse" />
    <linearGradient
       inkscape:collect="always"
       xlink:href="#linearGradient1"
       id="linearGradient31"
       x1="12.478102"
       y1="5.2240396"
       x2="13.664063"
       y2="5.2240396"
       gradientUnits="userSpaceOnUse" />
  </defs>
  <g
     id="g31">
    <g
       transform="matrix(1.0005003,0,0,1,-1273.6369,328)"
       id="g23"
       style="stroke-width:0.99975">
      <path
         d="m 1276.994,-326 c -1.258,0.015 -2.178,-0.03 -2.931,0.385 a 1.88,1.88 0 0 0 -0.838,0.998 c -0.165,0.438 -0.225,0.96 -0.225,1.617 v 6 c 0,0.658 0.06,1.179 0.225,1.617 0.165,0.439 0.461,0.79 0.838,0.998 0.753,0.416 1.673,0.37 2.931,0.385 h 8.004 c 1.258,-0.015 2.18,0.03 2.932,-0.385 a 1.88,1.88 0 0 0 0.838,-0.998 c 0.164,-0.438 0.224,-0.96 0.224,-1.617 v -6 c 0,-0.658 -0.06,-1.179 -0.224,-1.617 a 1.88,1.88 0 0 0 -0.838,-0.998 c -0.753,-0.416 -1.674,-0.37 -2.932,-0.385 z m 0.01,1 h 8 c 1.259,0.015 2.088,0.06 2.454,0.262 0.183,0.1 0.289,0.212 0.386,0.472 0.097,0.26 0.16,0.674 0.16,1.266 v 6 c 0,0.592 -0.063,1.006 -0.16,1.266 -0.098,0.26 -0.203,0.371 -0.387,0.472 -0.366,0.202 -1.194,0.247 -2.453,0.262 H 1277 c -1.258,-0.015 -2.089,-0.06 -2.455,-0.262 -0.183,-0.1 -0.287,-0.212 -0.385,-0.472 -0.098,-0.26 -0.16,-0.674 -0.16,-1.266 v -6 c 0,-0.592 0.063,-1.006 0.16,-1.266 0.098,-0.26 0.202,-0.371 0.385,-0.472 0.366,-0.202 1.197,-0.247 2.455,-0.262 z"
         font-weight="400"
         overflow="visible"
         class="ColorScheme-Text"
         id="path22"
         style="fill:url(#linearGradient25);fill-opacity:1;stroke-width:0.99975" />
    </g>
    <g
       id="g1"
       transform="translate(-2.0000006)">
      <path
         fill="#ffffff"
         d="M 7.9925001,6.5000043 A 1.4999978,1.4999978 0 0 0 6.5000023,8.0000021 1.4999978,1.4999978 0 0 0 8.0000001,9.5000003 1.4999978,1.4999978 0 0 0 9.4999977,8.0000021 1.4999978,1.4999978 0 0 0 8.0000001,6.5000043 a 1.4999978,1.4999978 0 0 0 -0.0075,0 z M 7.6450007,7.2216699 c 0.028998,0.0015 0.056167,0.011085 0.081416,0.028668 l 0.9344151,0.6439154 c 0.029417,0.020748 0.049834,0.048083 0.061167,0.081833 a 0.15749977,0.15749977 0 0 1 0,0.1020833 0.15716643,0.15716643 0 0 1 -0.0615,0.081499 l -0.934165,0.643916 a 0.15624979,0.15624979 0 0 1 -0.1109165,0.027333 c -0.0405,-0.005 -0.074,-0.022749 -0.1010833,-0.05325 C 7.487251,8.7471676 7.4735,8.7115846 7.4735,8.670751 V 7.3833363 c 0,-0.040834 0.013752,-0.076666 0.040834,-0.1071662 a 0.1568331,0.1568331 0 0 1 0.1010833,-0.05325 c 0.010002,-0.00126 0.019998,-0.00165 0.029584,-0.00107 z"
         id="path3"
         style="fill:url(#linearGradient27);stroke-width:0.499998" />
      <path
         d="m 8.0000002,11.14292 c -0.8343876,0 -1.634388,-0.33145 -2.2228066,-0.920113 C 5.1885365,9.634388 4.8570753,8.834388 4.8570753,7.9999999 c 0,-0.834388 0.3314612,-1.6343879 0.9201183,-2.2228065 0.5884186,-0.5886568 1.388419,-0.9201229 2.2228066,-0.9201229 0.8343884,0 1.6343884,0.3314661 2.2228078,0.9201229 0.588661,0.5884186 0.920112,1.3884185 0.920112,2.2228065 0,0.8343881 -0.331451,1.6343881 -0.920112,2.2228071 C 9.6343886,10.81147 8.8343886,11.14292 8.0000002,11.14292 Z m 0,0.85708 C 6.9399406,12 5.9228656,11.57708 5.1713433,10.828661 4.4229258,10.077138 4.0000006,9.0600596 4.0000006,7.9999999 c 0,-1.0600596 0.4229252,-2.0771346 1.1713427,-2.8286568 C 5.9228656,4.4229293 6.9399406,4 8.0000002,4 c 1.0600604,0 2.0771358,0.4229293 2.8286608,1.1713431 0.748419,0.7515222 1.171338,1.7685972 1.171338,2.8286568 0,1.0600597 -0.422919,2.0771381 -1.171338,2.8286611 C 10.077136,11.57708 9.0600606,12 8.0000002,12 Z M 5.7404176,7.7308652 v 0 C 5.7309845,7.8884773 5.5959418,8.0088358 5.4390447,7.9995226 v 0 c -0.156896,-0.00952 -0.2765364,-0.144 -0.2669857,-0.2999399 v 0 C 5.2119559,7.008 5.514747,6.3594028 6.0176712,5.8822694 c 0.5057905,-0.4742696 1.171345,-0.737195 1.8629259,-0.737195 0.2113435,0 0.4198208,0.022936 0.6228061,0.071637 v 0 c 0.1545071,0.036064 0.2505071,0.1903295 0.2142094,0.3441213 v 0 C 8.6813086,5.714628 8.5277618,5.8101504 8.374925,5.7738526 v 0 C 8.2120606,5.736596 8.0463299,5.716556 7.880597,5.716556 7.3349252,5.716556 6.809075,5.9252722 6.4119406,6.2994802 6.0119418,6.6736898 5.7748072,7.1880766 5.7404176,7.730884 Z"
         fill-rule="evenodd"
         id="path6"
         style="fill:url(#linearGradient26)" />
    </g>
    <path
       d="M 12.715294,6.7480646 V 6.396366 h 0.711574 V 6.7480646 10.17596 L 12.136546,11.451466 11.885121,11.7 l -0.502852,-0.497076 0.251425,-0.248535 1.0816,-1.069157 z"
       id="path14"
       style="isolation:isolate;fill:url(#linearGradient29);stroke-width:0.235823;fill-opacity:1" />
    <path
       d="m 12.715294,3.7 h 0.711574 c 0.130937,0 0.237195,0.1050356 0.237195,0.2344735 v 2.5791328 c 0,0.1294391 -0.106224,0.234473 -0.237195,0.234473 h -0.711574 c -0.130937,0 -0.237192,-0.1050353 -0.237192,-0.234473 V 3.9344735 C 12.478102,3.8050346 12.584363,3.7 12.715294,3.7 Z"
       id="path20"
       style="fill:url(#linearGradient31)" />
  </g>
</svg>
