<?xml version="1.0" encoding="UTF-8" standalone="no"?>
<!-- Generator: Gravit.io -->

<svg
   style="isolation:isolate"
   viewBox="0 0 16 16"
   width="16"
   height="16"
   version="1.1"
   id="svg4"
   sodipodi:docname="io.github.aandrew_me.ytdn.svg"
   inkscape:version="1.4.4 (unknown)"
   xml:space="preserve"
   xmlns:inkscape="http://www.inkscape.org/namespaces/inkscape"
   xmlns:sodipodi="http://sodipodi.sourceforge.net/DTD/sodipodi-0.dtd"
   xmlns:xlink="http://www.w3.org/1999/xlink"
   xmlns="http://www.w3.org/2000/svg"
   xmlns:svg="http://www.w3.org/2000/svg"><defs
     id="defs4"><linearGradient
       id="linearGradient8"
       inkscape:collect="always"><stop
         style="stop-color:#bc5fd3;stop-opacity:1"
         offset="0"
         id="stop8" /><stop
         style="stop-color:#8d5fd3;stop-opacity:1"
         offset="1"
         id="stop9" /></linearGradient><linearGradient
       id="linearGradient6"
       x1="0"
       y1="0.5"
       x2="1"
       y2="0.5"
       gradientTransform="matrix(46.5,0,0,41,0.75,3.5)"
       gradientUnits="userSpaceOnUse"
       spreadMethod="pad"
       inkscape:collect="always"><stop
         offset="0"
         stop-opacity="1"
         style="stop-color:#4498ec;stop-opacity:1;"
         id="stop5" /><stop
         offset="0.98695654"
         stop-opacity="1"
         style="stop-color:#00fdfd;stop-opacity:1;"
         id="stop6" /></linearGradient><linearGradient
       inkscape:collect="always"
       xlink:href="#linearGradient6"
       id="linearGradient2"
       gradientUnits="userSpaceOnUse"
       gradientTransform="matrix(46.5,0,0,41,0.75,3.5)"
       x1="0"
       y1="0.5"
       x2="1"
       y2="0.5"
       spreadMethod="pad" /><linearGradient
       inkscape:collect="always"
       xlink:href="#linearGradient6"
       id="linearGradient3"
       gradientUnits="userSpaceOnUse"
       gradientTransform="matrix(46.5,0,0,41,0.75,3.5)"
       x1="0"
       y1="0.5"
       x2="1"
       y2="0.5"
       spreadMethod="pad" /><linearGradient
       inkscape:collect="always"
       xlink:href="#linearGradient6"
       id="linearGradient5"
       gradientUnits="userSpaceOnUse"
       gradientTransform="matrix(46.5,0,0,41,0.75,3.5)"
       x1="0"
       y1="0.5"
       x2="1"
       y2="0.5"
       spreadMethod="pad" /><linearGradient
       inkscape:collect="always"
       xlink:href="#linearGradient6"
       id="linearGradient7"
       gradientUnits="userSpaceOnUse"
       gradientTransform="matrix(46.5,0,0,41,0.75,3.5)"
       x1="0"
       y1="0.5"
       x2="1"
       y2="0.5"
       spreadMethod="pad" /><linearGradient
       inkscape:collect="always"
       xlink:href="#linearGradient8"
       id="linearGradient9"
       x1="1.8897277"
       y1="15.9812"
       x2="10.351537"
       y2="7.5573139"
       gradientUnits="userSpaceOnUse" /><linearGradient
       inkscape:collect="always"
       xlink:href="#linearGradient8"
       id="linearGradient11"
       x1="4.2763262"
       y1="9.9137249"
       x2="10.351537"
       y2="9.9137249"
       gradientUnits="userSpaceOnUse" /><linearGradient
       inkscape:collect="always"
       xlink:href="#linearGradient8"
       id="linearGradient13"
       x1="7.1993713"
       y1="9.1893167"
       x2="22.285036"
       y2="9.1893167"
       gradientUnits="userSpaceOnUse" /></defs><sodipodi:namedview
     id="namedview4"
     pagecolor="#ffffff"
     bordercolor="#000000"
     borderopacity="0.25"
     inkscape:showpageshadow="2"
     inkscape:pageopacity="0.0"
     inkscape:pagecheckerboard="0"
     inkscape:deskcolor="#d1d1d1"
     inkscape:zoom="23.658613"
     inkscape:cx="7.9886338"
     inkscape:cy="10.419038"
     inkscape:window-width="1920"
     inkscape:window-height="994"
     inkscape:window-x="0"
     inkscape:window-y="0"
     inkscape:window-maximized="1"
     inkscape:current-layer="svg4"
     showgrid="false"><inkscape:grid
       id="grid1"
       units="px"
       originx="0"
       originy="0"
       spacingx="1"
       spacingy="1"
       empcolor="#0099e5"
       empopacity="0.30196078"
       color="#0099e5"
       opacity="0.14901961"
       empspacing="5"
       enabled="true"
       visible="false" /></sodipodi:namedview><g
     id="g7"
     transform="translate(0.05974623,-2.0000001)"><path
       d="m 5.5475129,15.100561 c 0.1623602,0 0.318226,0.05659 0.4345069,0.158959 0.1131883,0.09989 0.1775138,0.237509 0.1775138,0.380386 0,0.143187 -0.064325,0.280806 -0.1775138,0.380387 -0.1162809,0.102674 -0.2721467,0.159268 -0.4345069,0.159268 H 2.7611021 C 1.6511766,16.179561 0.75,15.278384 0.75,14.168459 V 5.5111021 C 0.75,4.4011766 1.6511766,3.5 2.7611021,3.5 H 13.119376 c 1.109925,0 2.017096,0.9011928 2.011102,2.0111021 l -0.03697,6.8457159 c -0.007,1.288047 -1.141902,1.323545 -1.149787,-0.02376 L 13.906745,6.0155012 C 13.902107,5.2228876 13.262871,4.5789997 12.470244,4.5789997 H 3.4102337 c -0.7926272,0 -1.4365014,0.6438743 -1.4365014,1.4365015 V 13.66406 c 0,0.792627 0.6438742,1.436501 1.4365014,1.436501 z"
       id="path2"
       sodipodi:nodetypes="scscssssssssssssssss"
       style="fill:url(#linearGradient9)" /><path
       d="M 9.5596825,10.926543 5.6429352,13.000116 C 4.888656,13.399676 4.276326,13.031041 4.276326,12.17749 V 7.6499594 c 0,-0.853551 0.61233,-1.222186 1.3666092,-0.8226252 l 3.9167473,2.0735721 c 1.0558055,0.5588284 1.0558055,1.4668087 0,2.0256367 z M 7.4650809,10.637078 6.8799656,10.946954 C 6.1256863,11.346206 5.5133563,10.977571 5.5133563,10.12402 V 9.7034297 c 0,-0.8535509 0.61233,-1.222186 1.3666093,-0.8229344 l 0.5851153,0.3098761 c 0.7542793,0.3992515 0.7542793,1.0474556 0,1.4467066 z"
       fill-rule="evenodd"
       id="path4"
       style="fill:url(#linearGradient11)" /><g
       style="fill:url(#linearGradient7)"
       id="g2"
       transform="matrix(-0.2225806,0.22651837,-0.22651837,-0.2225806,16.795334,11.993372)"><g
         id="SVGRepo_bgCarrier-3"
         stroke-width="0"
         style="fill:url(#linearGradient2)" /><g
         id="SVGRepo_tracerCarrier-6"
         stroke-linecap="round"
         stroke-linejoin="round"
         style="fill:url(#linearGradient3)" /><g
         id="SVGRepo_iconCarrier-7"
         style="fill:url(#linearGradient5)"><path
           d="m 7.552505,16.30609 c -0.4708449,-0.470988 -0.4708449,-1.234458 0,-1.705445 L 18.167366,4.1316357 h -6.73735 c -1.6081508,0 -1.6081508,-2.4122269 0,-2.4122269 h 9.648908 c 0.666118,0 1.206113,0.5399954 1.206113,1.2061135 V 12.57443 c 0,1.608151 -2.412227,1.608151 -2.412227,0 V 5.8370802 L 9.2579493,16.30609 c -0.4709871,0.470845 -1.2344573,0.470845 -1.7054443,0 z"
           id="path1-5"
           sodipodi:nodetypes="cccssssssccc"
           style="fill:url(#linearGradient13);fill-opacity:1" /></g></g></g></svg>
