<?xml version="1.0" encoding="UTF-8" standalone="no"?>
<svg
   width="16"
   height="16"
   viewBox="0 0 16 16"
   fill="none"
   version="1.1"
   id="svg12"
   sodipodi:docname="io.github.lawstorant.boxflat.svg"
   inkscape:version="1.4.4 (unknown)"
   xmlns:inkscape="http://www.inkscape.org/namespaces/inkscape"
   xmlns:sodipodi="http://sodipodi.sourceforge.net/DTD/sodipodi-0.dtd"
   xmlns:xlink="http://www.w3.org/1999/xlink"
   xmlns="http://www.w3.org/2000/svg"
   xmlns:svg="http://www.w3.org/2000/svg">
  <defs
     id="defs12">
    <linearGradient
       id="linearGradient1"
       inkscape:collect="always">
      <stop
         style="stop-color:#8d5fd3;stop-opacity:1"
         offset="0"
         id="stop1" />
      <stop
         style="stop-color:#00ccff;stop-opacity:1"
         offset="1"
         id="stop2" />
    </linearGradient>
    <linearGradient
       inkscape:collect="always"
       xlink:href="#linearGradient1"
       id="linearGradient2"
       x1="0.81582741"
       y1="7.2475682"
       x2="13.817559"
       y2="7.2475682"
       gradientUnits="userSpaceOnUse" />
    <linearGradient
       inkscape:collect="always"
       xlink:href="#linearGradient1"
       id="linearGradient4"
       x1="5.2667179"
       y1="7.2605629"
       x2="9.3943844"
       y2="7.2605629"
       gradientUnits="userSpaceOnUse" />
  </defs>
  <sodipodi:namedview
     id="namedview12"
     pagecolor="#ffffff"
     bordercolor="#000000"
     borderopacity="0.25"
     inkscape:showpageshadow="2"
     inkscape:pageopacity="0.0"
     inkscape:pagecheckerboard="0"
     inkscape:deskcolor="#d1d1d1"
     inkscape:zoom="25.15625"
     inkscape:cx="6.2409938"
     inkscape:cy="6.5391304"
     inkscape:window-width="1920"
     inkscape:window-height="994"
     inkscape:window-x="0"
     inkscape:window-y="0"
     inkscape:window-maximized="1"
     inkscape:current-layer="svg12"
     showgrid="false">
    <inkscape:grid
       id="grid1"
       units="px"
       originx="0"
       originy="0"
       spacingx="1"
       spacingy="1"
       empcolor="#0099e5"
       empopacity="0.30196078"
       color="#0099e5"
       opacity="0.14901961"
       empspacing="5"
       enabled="true"
       visible="false" />
  </sodipodi:namedview>
  <g
     id="g1"
     transform="translate(0.6833066,0.75243176)"
     style="fill:url(#linearGradient2)">
    <path
       d="M 8.7087106,7.2675117 C 8.2516343,7.7245747 7.7945714,8.181651 7.3375085,8.6387139 c 0.058923,0.048645 0.1178578,0.097291 0.176784,0.1459365 1.0607552,0.8756483 2.1215238,1.7512936 3.1822795,2.6269426 0.05892,0.04865 0.11786,0.09729 0.176781,0.145936 0.251402,-0.251386 0.502786,-0.50277 0.754173,-0.754159 -0.04865,-0.05893 -0.09731,-0.117858 -0.14595,-0.176798 C 10.605944,9.5658196 9.7302954,8.5050617 8.8546471,7.4443092 8.8060043,7.3853696 8.7573561,7.3264487 8.7087106,7.2675117 Z"
       fill="black"
       id="path9"
       style="fill:url(#linearGradient2)" />
    <path
       d="M 7.1143806,5.8682175 C 7.6278586,6.2608593 8.1413232,6.6535011 8.6548013,7.0461403 8.6982419,6.9773711 8.7384356,6.9126009 8.7799614,6.8458781 9.5511963,5.6386467 10.167235,4.3941005 10.901166,3.2372441 10.941515,3.1720497 10.980675,3.1086652 11.023044,3.0412792 10.740633,2.825322 10.458232,2.6093702 10.175821,2.393413 10.121135,2.4529596 10.069648,2.5085314 10.016864,2.5660558 9.0468334,3.6018502 8.202782,4.7144523 7.2700687,5.6998826 7.2184287,5.7558868 7.1680106,5.8100701 7.1143806,5.8682175 Z"
       fill="black"
       id="path11"
       style="fill:url(#linearGradient2)" />
    <path
       d="m 2.5000907,10.099118 c 0.2099709,0.286888 0.4199417,0.573774 0.6299125,0.860662 0.067716,-0.04057 0.1315736,-0.07826 0.1967543,-0.116904 C 4.502564,10.142113 5.690499,9.462835 6.8746391,8.7559782 6.9400888,8.7171542 7.0041635,8.6792997 7.0721189,8.638577 6.6903513,8.1169667 6.3085838,7.5953565 5.9268162,7.0737462 5.8677396,7.1259932 5.8125411,7.1753719 5.7560024,7.2257228 4.7368831,8.136231 3.6990796,9.0300264 2.6715947,9.9466311 2.6148036,9.9971619 2.5593876,10.046707 2.5000907,10.099118 Z"
       fill="black"
       id="path12"
       inkscape:label="path12"
       style="fill:url(#linearGradient2)" />
    <path
       d="M 4.9713445,2.4737225 C 4.6791359,2.6175695 4.3250038,2.4963627 4.1806868,2.2031952 4.0363725,1.9100332 4.1577244,1.555638 4.4512168,1.4125403 6.3936012,0.45944539 8.6913424,0.53381957 10.567117,1.616804 c 1.491918,0.8613525 2.582215,2.2824328 3.030386,3.9469502 0.444129,1.6656103 0.210457,3.4414485 -0.650912,4.9333658 -0.861363,1.491931 -2.282446,2.582215 -3.9469635,3.030386 C 7.3340305,13.971648 5.5581923,13.737963 4.0662747,12.876594 2.5743467,12.015228 1.4840546,10.594162 1.0358866,8.9296308 0.59174976,7.2640338 0.82543232,5.4881956 1.6868009,3.996278 c 0.00161,-0.00269 0.00295,-0.00513 0.00443,-0.00771 L 1.7691301,3.8595427 C 1.9350694,3.5786407 2.2974169,3.4858778 2.5778623,3.6525771 2.8583104,3.8192792 2.9512935,4.1824297 2.7853703,4.4633209 L 2.7089389,4.5897943 C 2.004185,5.8104622 1.8137202,7.2632201 2.1807784,8.6250036 2.5452717,9.9853074 3.4365986,11.148201 4.6572531,11.852952 5.877921,12.557704 7.3306788,12.748171 8.6935447,12.385144 10.055328,12.018099 11.218222,11.126775 11.922971,9.9061071 12.627725,8.6854526 12.818176,7.2326921 12.455165,5.8698289 12.088123,4.5080453 11.196793,3.3451488 9.9761252,2.6404004 8.4432647,1.7553871 6.5618395,1.6927681 4.9713445,2.4736983 Z"
       fill="black"
       id="path10"
       style="fill:url(#linearGradient2)" />
    <circle
       stroke="black"
       stroke-width="1.24661"
       id="circle11"
       r="1.4405282"
       cy="7.2605629"
       cx="7.3305511"
       style="fill:url(#linearGradient2);stroke:url(#linearGradient4)" />
  </g>
</svg>
