<?xml version="1.0" encoding="UTF-8" standalone="no"?>
<!-- Generator: Gravit.io -->

<svg
   style="isolation:isolate"
   viewBox="0 0 16 16"
   width="16"
   height="16"
   version="1.1"
   id="svg2"
   sodipodi:docname="ivpn.svg"
   inkscape:version="1.4.4 (unknown)"
   xmlns:inkscape="http://www.inkscape.org/namespaces/inkscape"
   xmlns:sodipodi="http://sodipodi.sourceforge.net/DTD/sodipodi-0.dtd"
   xmlns:xlink="http://www.w3.org/1999/xlink"
   xmlns="http://www.w3.org/2000/svg"
   xmlns:svg="http://www.w3.org/2000/svg">
  <defs
     id="defs2">
    <linearGradient
       id="linearGradient2"
       inkscape:collect="always">
      <stop
         style="stop-color:#8d5fd3;stop-opacity:1"
         offset="0"
         id="stop3" />
      <stop
         style="stop-color:#ffdd55;stop-opacity:1"
         offset="1"
         id="stop4" />
    </linearGradient>
    <linearGradient
       inkscape:collect="always"
       xlink:href="#linearGradient2"
       id="linearGradient4"
       x1="2.6631439"
       y1="14"
       x2="12.939977"
       y2="3.1249998"
       gradientUnits="userSpaceOnUse" />
  </defs>
  <sodipodi:namedview
     id="namedview2"
     pagecolor="#ffffff"
     bordercolor="#000000"
     borderopacity="0.25"
     inkscape:showpageshadow="2"
     inkscape:pageopacity="0.0"
     inkscape:pagecheckerboard="0"
     inkscape:deskcolor="#d1d1d1"
     inkscape:document-units="px"
     inkscape:zoom="23.65625"
     inkscape:cx="8.5812417"
     inkscape:cy="3.4029062"
     inkscape:window-width="1920"
     inkscape:window-height="994"
     inkscape:window-x="0"
     inkscape:window-y="0"
     inkscape:window-maximized="1"
     inkscape:current-layer="svg2" />
  <linearGradient
     id="_lgradient_22"
     x1="0"
     y1="0.5"
     x2="1"
     y2="0.5"
     gradientTransform="matrix(16,0,0,11.999995,-1.0000001e-8,1.9999992)"
     gradientUnits="userSpaceOnUse">
    <stop
       offset="0%"
       stop-opacity="1"
       style="stop-color:rgb(255,229,59)"
       id="stop1" />
    <stop
       offset="98.69565217391305%"
       stop-opacity="1"
       style="stop-color:rgb(255,0,91)"
       id="stop2" />
  </linearGradient>
  <path
     d="M 14.256278,4.6249988 H 11.913157 L 8.8480214,12.875002 H 7.1656024 L 4.4410387,4.6249988 H 1.7437204 L 1.3554703,3.1249997 H 5.0847167 L 7.1281395,9.5000002 H 8.8514279 L 11.235422,3.1249997 h 3.409109 z M 4.1856107,10.999996 H 5.0370369 L 4.6964667,9.8749973 H 2.3363131 l 1.1919971,2.6250017 h 0.9978713 1.1919966 l -0.3405702,-1.125 H 4.1617709 L 3.9914858,10.999996 Z M 3.1638993,7.6250016 H 4.0153256 L 3.6747554,6.4999956 H 0.9740314 L 2.166028,9.1249958 H 3.5044703 4.355896 L 4.0153256,7.9999969 H 2.7994891 L 2.629204,7.6250016 Z M 11.91656,10.999996 h -0.851426 l 0.340568,-1.1249987 h 2.360153 l -1.191996,2.6250007 h -0.99787 -1.191996 l 0.340567,-1.124999 h 1.21584 l 0.170284,-0.375003 z M 15.025971,5.7499954 H 12.601106 L 9.535972,14 H 6.4504047 L 3.7258407,5.7499954 H 0.9740314 L 0,1.9999998 H 5.8067265 L 7.8501491,8.3749935 H 8.1702864 L 10.55428,1.9999998 H 16 Z m -2.087698,1.8750062 h -0.85143 l 0.340575,-1.1250059 h 2.70072 l -1.191996,2.6250001 h -1.338444 -0.851421 l 0.340566,-1.1249989 h 1.215838 L 13.472967,7.6250016 Z M 0.6777355,2.5625001"
     fill-rule="evenodd"
     id="path2"
     style="fill:url(#linearGradient4);fill-opacity:1" />
</svg>
