<?xml version="1.0" encoding="UTF-8" standalone="no"?>
<svg
   width="16"
   height="16"
   viewBox="0 0 4.2333332 4.2333334"
   version="1.1"
   id="svg1443"
   inkscape:version="1.4.4 (unknown)"
   sodipodi:docname="JabRef.svg"
   xmlns:inkscape="http://www.inkscape.org/namespaces/inkscape"
   xmlns:sodipodi="http://sodipodi.sourceforge.net/DTD/sodipodi-0.dtd"
   xmlns:xlink="http://www.w3.org/1999/xlink"
   xmlns="http://www.w3.org/2000/svg"
   xmlns:svg="http://www.w3.org/2000/svg"
   xmlns:rdf="http://www.w3.org/1999/02/22-rdf-syntax-ns#"
   xmlns:cc="http://creativecommons.org/ns#"
   xmlns:dc="http://purl.org/dc/elements/1.1/">
  <defs
     id="defs1437">
    <linearGradient
       id="linearGradient4"
       inkscape:collect="always">
      <stop
         style="stop-color:#3d528f;stop-opacity:1;"
         offset="0"
         id="stop3" />
      <stop
         style="stop-color:#7137c8;stop-opacity:1"
         offset="1"
         id="stop4" />
    </linearGradient>
    <linearGradient
       id="linearGradient1"
       inkscape:collect="always">
      <stop
         style="stop-color:#3d528f;stop-opacity:1;"
         offset="0"
         id="stop1" />
      <stop
         style="stop-color:#000000;stop-opacity:0;"
         offset="1"
         id="stop2" />
    </linearGradient>
    <filter
       color-interpolation-filters="sRGB"
       height="1.1311001"
       width="1.1106"
       y="-0.065563001"
       x="-0.055319"
       id="c-9">
      <feGaussianBlur
         id="feGaussianBlur1093"
         stdDeviation="1.1062912" />
    </filter>
    <linearGradient
       gradientUnits="userSpaceOnUse"
       gradientTransform="matrix(0.13235,0,0,0.13075,-32.379,1.0873)"
       y2="269.48999"
       y1="235.14999"
       x2="657.65002"
       x1="319.20999"
       id="a-12">
      <stop
         id="stop1076"
         offset="0"
         stop-color="#e54c18" />
      <stop
         id="stop1078"
         offset="1"
         stop-color="#fec350" />
    </linearGradient>
    <linearGradient
       xlink:href="#a-7"
       id="c-36"
       x1="8.6850004"
       x2="8.7620001"
       y1="16.868999"
       y2="4.5339999"
       gradientTransform="matrix(1.0634748,0,0,1.0634748,-0.80999368,1.8113865)"
       gradientUnits="userSpaceOnUse" />
    <linearGradient
       id="a-7">
      <stop
         offset="0"
         style="stop-color:#2369ff;stop-opacity:1;"
         id="stop8" />
      <stop
         offset="1"
         style="stop-color:#7fa8ff;stop-opacity:1"
         id="stop10" />
    </linearGradient>
    <linearGradient
       inkscape:collect="always"
       xlink:href="#linearGradient1"
       id="linearGradient2"
       x1="-15.978943"
       y1="15.163145"
       x2="-4.6018596"
       y2="15.163145"
       gradientUnits="userSpaceOnUse" />
    <linearGradient
       inkscape:collect="always"
       xlink:href="#linearGradient4"
       id="linearGradient3"
       gradientUnits="userSpaceOnUse"
       x1="-12.3809"
       y1="9.1424074"
       x2="-8.809948"
       y2="16.260046" />
  </defs>
  <sodipodi:namedview
     id="base"
     pagecolor="#ffffff"
     bordercolor="#666666"
     borderopacity="1.0"
     inkscape:pageopacity="0.0"
     inkscape:pageshadow="2"
     inkscape:zoom="22.4"
     inkscape:cx="6.9642857"
     inkscape:cy="16.272321"
     inkscape:document-units="px"
     inkscape:current-layer="layer1"
     inkscape:document-rotation="0"
     showgrid="false"
     units="px"
     inkscape:window-width="1920"
     inkscape:window-height="994"
     inkscape:window-x="0"
     inkscape:window-y="0"
     inkscape:window-maximized="1"
     inkscape:showpageshadow="2"
     inkscape:pagecheckerboard="0"
     inkscape:deskcolor="#d1d1d1">
    <inkscape:grid
       id="grid1"
       units="px"
       originx="0"
       originy="0"
       spacingx="0.26458332"
       spacingy="0.26458334"
       empcolor="#0099e5"
       empopacity="0.30196078"
       color="#0099e5"
       opacity="0.14901961"
       empspacing="5"
       enabled="true"
       visible="false" />
  </sodipodi:namedview>
  <metadata
     id="metadata1440">
    <rdf:RDF>
      <cc:Work
         rdf:about="">
        <dc:format>image/svg+xml</dc:format>
        <dc:type
           rdf:resource="http://purl.org/dc/dcmitype/StillImage" />
      </cc:Work>
    </rdf:RDF>
  </metadata>
  <g
     inkscape:label="Capa 1"
     inkscape:groupmode="layer"
     id="layer1">
    <g
       id="g1"
       transform="matrix(0.28888891,0,0,0.28564467,5.0894495,-2.2146049)"
       style="fill:url(#linearGradient2)">
      <path
         style="opacity:0.1;stroke-width:0.264583;fill:url(#linearGradient2)"
         d="m -14.236931,9.4078583 c -0.0023,0.204075 -0.0044,0.408232 -0.0067,0.6123657 1.035095,0.437569 2.720502,1.433002 3.500561,2.880444 -0.194258,-2.440429 -3.487737,-3.5302947 -3.493843,-3.4928097 z m 7.8930585,0 c -0.00611,-0.03749 -3.2995848,1.0523807 -3.4938435,3.4928097 0.7800594,-1.447442 2.4659828,-2.442875 3.501078,-2.880444 -0.00228,-0.2041337 -0.00489,-0.4082907 -0.00723,-0.6123657 z m -8.8485555,0.8459427 c -0.0079,0.386158 -0.0159,0.772427 -0.02377,1.158585 1.015006,0.20982 3.51905,1.165879 4.528921,2.987932 -0.224904,-3.089036 -4.495392,-4.206225 -4.505151,-4.146517 z m 9.8040524,0 c -0.0098,-0.05971 -4.280247,1.057481 -4.5051511,4.146517 1.0099283,-1.822053 3.5139151,-2.778112 4.5289231,-2.987932 -0.0079,-0.386158 -0.0159,-0.772427 -0.02377,-1.158585 z M -15.66165,11.890394 c -0.05441,-0.0051 -0.08438,-0.0044 -0.08527,10e-4 -0.01803,0.720269 -0.03577,1.44084 -0.05374,2.161109 2.162241,0.126553 2.29168,1.494116 2.161109,2.368847 l -2.232422,0.728152 -0.10697,4.034381 3.918624,-1.544609 c 0.457683,-0.190265 0.915302,-0.373358 1.373042,-0.541052 v -2.780709 c 0,-1.24209 -0.622071,-2.427883 -1.716174,-3.184301 -1.291751,-0.89293 -2.877301,-1.207242 -3.258199,-1.242818 z m 10.7424964,0 c -0.380898,0.03558 -1.9664482,0.349888 -3.2581988,1.242818 -1.0940463,0.756418 -1.7161171,1.942211 -1.7161743,3.184301 v 2.780709 c 0.4577406,0.167694 0.9153594,0.350787 1.3730428,0.541052 l 3.9186243,1.544609 -0.106971,-4.034379 -2.2324216,-0.728121 c -0.1305711,-0.874732 -0.00114,-2.242294 2.1611086,-2.368848 -0.01792,-0.720268 -0.03571,-1.44084 -0.05374,-2.161108 -8.73e-4,-0.0054 -0.03085,-0.0061 -0.08527,-10e-4 z"
         id="path2-3" />
      <path
         style="fill:url(#linearGradient3);fill-opacity:1;stroke-width:0.264583"
         d="m -14.236931,9.1433413 c -0.0023,0.204075 -0.0044,0.408232 -0.0067,0.612366 1.035095,0.4375687 2.720502,1.4330017 3.500561,2.8804437 -0.194258,-2.440429 -3.487737,-3.5302947 -3.493843,-3.4928097 z m 7.8930585,0 c -0.00611,-0.03749 -3.2995848,1.0523807 -3.4938435,3.4928097 0.7800594,-1.447442 2.4659828,-2.442875 3.501078,-2.8804437 -0.00228,-0.204134 -0.00489,-0.408291 -0.00723,-0.612366 z m -8.8485555,0.845943 c -0.0079,0.3861577 -0.0159,0.7724267 -0.02377,1.1585847 1.015006,0.20982 3.51905,1.165879 4.528921,2.987932 -0.224904,-3.089036 -4.495392,-4.2062247 -4.505151,-4.1465167 z m 9.8040524,0 c -0.0098,-0.05971 -4.280247,1.0574807 -4.5051511,4.1465167 1.0099283,-1.822053 3.5139151,-2.778112 4.5289231,-2.987932 -0.0079,-0.386158 -0.0159,-0.772427 -0.02377,-1.1585847 z M -15.66165,11.625877 c -0.05441,-0.0051 -0.08438,-0.0044 -0.08527,0.001 -0.01803,0.720269 -0.03577,1.44084 -0.05374,2.161109 2.162241,0.126553 2.29168,1.494116 2.161109,2.368847 l -2.232422,0.728121 -0.10697,4.034381 3.918624,-1.544609 c 0.457683,-0.190265 0.915302,-0.373358 1.373042,-0.541052 v -2.780709 c 0,-1.24209 -0.622071,-2.427883 -1.716174,-3.184301 -1.291751,-0.89293 -2.877301,-1.207242 -3.258199,-1.242818 z m 10.7424964,0 c -0.380898,0.03558 -1.9664482,0.349888 -3.2581988,1.242818 -1.0940463,0.756418 -1.7161171,1.942211 -1.7161743,3.184301 v 2.780709 c 0.4577406,0.167694 0.9153594,0.350787 1.3730428,0.541052 l 3.9186243,1.544609 -0.106971,-4.034379 -2.2324216,-0.728121 c -0.1305711,-0.874732 -0.00114,-2.242294 2.1611086,-2.368848 -0.01792,-0.720268 -0.03571,-1.44084 -0.05374,-2.161108 -8.73e-4,-0.0054 -0.03085,-0.0061 -0.08527,-0.001 z"
         id="path3-6" />
    </g>
  </g>
</svg>
