<?xml version="1.0" encoding="UTF-8" standalone="no"?>
<!-- Created with Inkscape (http://www.inkscape.org/) -->

<svg
   width="16"
   height="16"
   viewBox="0 0 4.2333333 4.2333335"
   version="1.1"
   id="svg8"
   inkscape:version="1.4.4 (unknown)"
   sodipodi:docname="jami.svg"
   xmlns:inkscape="http://www.inkscape.org/namespaces/inkscape"
   xmlns:sodipodi="http://sodipodi.sourceforge.net/DTD/sodipodi-0.dtd"
   xmlns="http://www.w3.org/2000/svg"
   xmlns:svg="http://www.w3.org/2000/svg"
   xmlns:rdf="http://www.w3.org/1999/02/22-rdf-syntax-ns#"
   xmlns:cc="http://creativecommons.org/ns#"
   xmlns:dc="http://purl.org/dc/elements/1.1/">
  <defs
     id="defs2">
    <linearGradient
       id="linearGradient1169"
       gradientUnits="userSpaceOnUse"
       x1="9.0577002"
       y1="447.19119"
       x2="67.718597"
       y2="447.19119"
       gradientTransform="translate(-8.0854,-395.1333)">
      <stop
         offset="0"
         style="stop-color:#551aa6;stop-opacity:1"
         id="stop1143" />
      <stop
         offset="1"
         style="stop-color:#32c0ff;stop-opacity:1"
         id="stop1162" />
    </linearGradient>
  </defs>
  <sodipodi:namedview
     id="base"
     pagecolor="#ffffff"
     bordercolor="#666666"
     borderopacity="1.0"
     inkscape:pageopacity="0"
     inkscape:pageshadow="2"
     inkscape:zoom="32"
     inkscape:cx="10.3125"
     inkscape:cy="5.453125"
     inkscape:document-units="mm"
     inkscape:current-layer="layer1"
     showgrid="false"
     units="px"
     inkscape:window-width="1920"
     inkscape:window-height="994"
     inkscape:window-x="0"
     inkscape:window-y="0"
     inkscape:window-maximized="1"
     inkscape:showpageshadow="2"
     inkscape:pagecheckerboard="0"
     inkscape:deskcolor="#d1d1d1" />
  <metadata
     id="metadata5">
    <rdf:RDF>
      <cc:Work
         rdf:about="">
        <dc:format>image/svg+xml</dc:format>
        <dc:type
           rdf:resource="http://purl.org/dc/dcmitype/StillImage" />
      </cc:Work>
    </rdf:RDF>
  </metadata>
  <g
     inkscape:label="Layer 1"
     inkscape:groupmode="layer"
     id="layer1"
     transform="translate(0,-280.06665)">
    <g
       id="g1"
       transform="translate(1.331678,-1.7011257)">
      <path
         style="opacity:0.2;stroke-width:0.101165"
         d="m 1.6906467,283.92182 0.2850342,0.60892 c 0.5380128,-0.1118 0.620742,-0.27942 0.6239248,-0.28874 0.00317,-0.009 0.00635,-0.0156 0.00635,-0.0218 v -0.0373 c 0,0 -0.00126,-0.002 -0.00329,-0.005 v 0.0449 C 2.4725743,284.0959 2.0550721,283.982 1.6906575,283.92138 Z"
         id="path1" />
      <path
         style="opacity:0.2;stroke-width:0.101165"
         d="m 1.6827714,283.90128 -0.4542256,0.62211 c 0.2943057,0.35152 0.6001551,0.62944 0.8307145,0.68979 0.00631,7.7e-4 0.012678,0.002 0.018291,0.002 0.00637,-0.003 0.00952,-0.009 0.012703,-0.0154 0.00955,-0.0124 0.1846507,-0.29201 -0.4074819,-1.29822 z"
         id="path2" />
      <path
         style="opacity:0.2;stroke-width:0.101165"
         d="m -0.38639339,284.39993 -0.0510622,0.14729 c -0.18782682,0.48757 -0.0922328,0.63985 -0.0858658,0.65228 0.003185,0.006 0.006335,0.0124 0.0127022,0.0154 0.012734,0 0.0253719,-0.003 0.0381059,-0.006 0,0 4.8559e-4,0 5.0471e-4,0 0.16936901,-0.0471 0.41712708,-0.19443 0.78244647,-0.61374 z"
         id="path3" />
      <path
         style="opacity:0.2;stroke-width:0.101165"
         d="m -0.40882525,283.35435 c -0.20056097,-0.5031 -0.10187227,-0.66149 -0.0955052,-0.67081 0.0127339,-0.0155 0.0286514,-0.0279 0.0445691,-0.0373 l 0.55393021,-0.34472 c -0.04775261,0.22049 0.07322075,0.559 0.26104768,0.95341 z"
         id="path4" />
      <ellipse
         style="fill:#4b5b90;stroke-width:0.101165"
         cx="0.78499019"
         cy="283.85147"
         rx="1.09258"
         ry="1.0654334"
         id="ellipse4" />
      <path
         style="fill:#4767b5;stroke-width:0.101165"
         d="m 1.6572714,283.78575 c 0.8308957,0.13043 0.9486852,0.3323 0.9486852,0.3323 0,0.0124 0,0.0249 0,0.0373 0,0.006 -0.00317,0.0124 -0.00637,0.0217 -0.00317,0.009 -0.085955,0.17702 -0.6239677,0.28882 z"
         id="path5" />
      <path
         style="fill:#4b5b90;stroke-width:0.101165"
         d="m -0.43747677,284.48231 c -0.18782712,0.48758 -0.0923219,0.63975 -0.0859547,0.65217 0.003185,0.006 0.006367,0.0124 0.012734,0.0155 0.012734,0 0.0254679,-0.003 0.0382023,-0.006 0,0 0.34704474,0.0794 0.74498319,-0.47335 v 0 l 0.13048146,-0.11451 -0.78940254,-0.22093 z"
         id="path6" />
      <path
         style="fill:#2f4479;stroke-width:0.101165"
         d="m 0.80409118,282.62207 c -0.45524164,-0.48447 -0.67490359,-0.45652 -0.68763773,-0.45652 -0.006367,0 -0.0159175,0.003 -0.02228443,0.006 -0.01591745,0.006 -0.03183489,0.0559 -0.03183489,0.0559 0,0 -0.09550537,0.27018 0.28969916,0.99068 z"
         id="path7" />
      <path
         style="fill:#2f4479;stroke-width:0.101165"
         d="m 1.2020297,284.49473 c 0.6176006,0.68944 0.8340792,0.64907 0.8340792,0.64907 0.012734,0.003 0.028651,0.006 0.041386,0.006 0.00637,-0.003 0.00955,-0.009 0.012734,-0.0155 0.00955,-0.0124 0.1846435,-0.29193 -0.407489,-1.29813 z"
         id="path8" />
      <path
         style="opacity:0.2;stroke-width:0.101165"
         d="m -0.97526048,284.17636 c -0.0221299,0.0161 -0.042532,0.0325 -0.0602078,0.0497 9.903e-4,0.006 0.00339,0.0112 0.00584,0.016 0.00637,0.0155 0.15913471,0.3262 1.43253792,0.379 L 0.317806,284.48695 c -0.87119945,-0.0458 -1.18471506,-0.21584 -1.29306874,-0.31055 z"
         id="path9" />
      <path
         style="fill:#4767b5;stroke-width:0.101165"
         d="m 0.4029692,284.55593 c -1.27340301,-0.0528 -1.4262116,-0.36335 -1.4325785,-0.37888 -0.00319,-0.006 -0.00637,-0.0124 -0.00637,-0.0217 0.00318,-0.0217 0.0477526,-0.0621 0.0477526,-0.0621 0,0 0.3374519,-0.20186 0.90093269,-0.31056 z"
         id="path10" />
      <path
         style="fill:#4b5b90;stroke-width:0.101165"
         d="m 1.2816174,283.14381 c 0.3342684,-0.76708 0.2037446,-0.94099 0.2037446,-0.94099 -0.00318,-0.009 -0.00637,-0.0217 -0.00955,-0.031 -0.00637,-0.003 -0.012734,-0.003 -0.022284,-0.006 -0.015917,-0.003 -0.3629199,-0.0466 -1.09512684,0.95341 z"
         id="path11" />
      <path
         style="fill:#0084db;stroke-width:0.101165"
         d="m -0.40882525,283.22455 c -0.20056097,-0.5031 -0.10187227,-0.66149 -0.0955052,-0.6708 0.0127339,-0.0155 0.0286514,-0.0279 0.0445691,-0.0373 l 0.55393021,-0.34472 c -0.04775261,0.2205 0.07322075,0.559 0.26104768,0.95341 z"
         id="path12" />
      <path
         style="fill:#0cb4ff;stroke-width:0.101165"
         d="m 1.3485479,283.0961 c -0.095505,-0.003 -0.38528138,-0.0172 -0.56355773,-0.0172 -1.6267726,0 -1.80504907,0.34044 -1.81459947,0.35908 -0.00637,0.0186 -0.00637,0.0373 -0.00637,0.059 v 0.66459 c 0.15917533,-0.15527 0.50617771,-0.26397 0.92958437,-0.32608 0.2737816,-0.0373 0.54756325,-0.059 0.82452849,-0.0621 l 0.35786484,0.009 c 0.073195,0.002 0.3680517,-0.68035 0.2725465,-0.68656 z"
         id="path13" />
      <path
         style="fill:#0cb4ff;stroke-width:0.101165"
         d="m 1.4333183,283.82152 c 0.3949273,0.0389 1.007096,0.17852 1.1694548,0.3369 v -0.63975 c 0,-0.0186 -0.00317,-0.0404 -0.00637,-0.059 -0.00317,-0.009 -0.1675136,-0.26041 -0.8815731,-0.31152 z"
         id="path14" />
      <path
         style="opacity:0.2;stroke-width:0.101165"
         d="m 1.4758551,282.23667 c 0.079587,0.36646 -0.2355364,1.07446 -0.67486035,1.72353 -0.68176502,0.9719 -1.07606791,1.20805 -1.308464,1.25774 l 0.56976331,0.36035 c 0.01591744,0.009 0.03513653,0.0186 0.05423781,0.0248 0.0127336,0 0.3375812,0.0731 1.14592853,-1.02485 0.031835,-0.0342 0.1114735,-0.16139 0.1719604,-0.25145 0.8850153,-1.32918 0.6685839,-1.67713 0.6590336,-1.69266 -0.012734,-0.0155 -0.028718,-0.0279 -0.044635,-0.0373 z"
         id="path15" />
      <path
         style="opacity:0.2;fill:#ffffff;stroke-width:0.101165"
         d="m 0.78499017,283.0789 c -1.6267726,0 -1.80506497,0.34033 -1.81461557,0.35896 -0.00637,0.0186 -0.00635,0.0373 -0.00635,0.0591 v 0.0649 c 0,-0.0218 -1.6e-5,-0.0404 0.00635,-0.0591 0.00955,-0.0186 0.18784299,-0.35897 1.81461565,-0.35897 0.17827628,0 0.46795775,0.0141 0.56346295,0.0172 0.0068,3.8e-4 0.011474,0.005 0.014481,0.0114 0.00767,-0.0454 0.00481,-0.0751 -0.014481,-0.0763 -0.095505,-0.003 -0.38518667,-0.0172 -0.56346295,-0.0172 z m 0.92979043,0.0692 -0.2814776,0.67332 c 0.00811,7.7e-4 0.017033,0.002 0.025785,0.003 l 0.2556924,-0.61159 c 0.7140595,0.0511 0.8783398,0.30225 0.8815226,0.31156 0.00317,0.0186 0.00635,0.0404 0.00635,0.0591 v -0.0649 c 0,-0.0186 -0.00317,-0.0404 -0.00635,-0.0591 -0.00317,-0.009 -0.1674631,-0.26046 -0.8815226,-0.31156 z"
         id="path16" />
      <path
         style="fill:#00ccfa;stroke-width:0.101165"
         d="m 1.4758551,282.17177 c 0.079587,0.36646 -0.2355364,1.07446 -0.67486035,1.72353 -0.68176502,0.97189 -1.07606791,1.20806 -1.308464,1.25774 l 0.56976331,0.36035 c 0.01591744,0.009 0.03513653,0.0186 0.05423781,0.0248 0.0127336,0 0.3375812,0.0731 1.14592853,-1.02485 0.031835,-0.0342 0.1114735,-0.16138 0.1719604,-0.25145 0.8850153,-1.32919 0.6685839,-1.67713 0.6590336,-1.69265 -0.012734,-0.0155 -0.028718,-0.028 -0.044635,-0.0373 z"
         id="path17" />
      <path
         style="opacity:0.2;stroke-width:0.101165"
         d="m 0.71812661,283.83829 c -0.2754036,0.003 -0.54773034,0.0245 -0.81996849,0.0614 0.05932103,0.10069 0.18021741,0.29629 0.25642902,0.4115 0.88501526,1.32919 1.29896586,1.27646 1.31806696,1.27335 0.019101,-0.006 0.038142,-0.0156 0.05406,-0.025 l 0.5507356,-0.34162 c -0.360643,-0.0776 -0.9180895,-0.71645 -1.32144548,-1.33525 l -0.0248959,-0.0444 z"
         id="path18" />
      <path
         style="opacity:0.2;fill:#ffffff;stroke-width:0.101165"
         d="m 1.4758549,282.17172 c 0.00489,0.0225 0.00832,0.0464 0.010289,0.0714 l 0.562701,0.35377 c 0.015918,0.009 0.03185,0.0217 0.044584,0.0373 0.0029,0.005 0.024636,0.0407 0.029088,0.12473 0.00668,-0.13167 -0.025529,-0.18384 -0.029088,-0.18963 -0.012734,-0.0155 -0.028667,-0.028 -0.044584,-0.0373 z m 0.010924,0.16452 c -0.018168,0.39037 -0.3051021,0.99665 -0.68578394,1.55908 -0.68176502,0.9719 -1.0760424,1.20809 -1.3084385,1.25778 l 0.0706233,0.0446 c 0.2391461,-0.0813 0.62030933,-0.35721 1.23781516,-1.2375 0.40261218,-0.59483 0.69999678,-1.23839 0.68578398,-1.62398 z"
         id="path19" />
      <path
         style="fill:#0084db;stroke-width:0.101165"
         d="m 0.71812661,283.77339 c -0.2754036,0.003 -0.54773034,0.0245 -0.81996849,0.0614 0.05932103,0.10069 0.18021741,0.29629 0.25642902,0.4115 0.88501526,1.32919 1.29896586,1.27646 1.31806696,1.27335 0.019101,-0.006 0.038142,-0.0156 0.05406,-0.025 l 0.5507356,-0.34162 c -0.360643,-0.0777 -0.9180895,-0.71646 -1.32144548,-1.33526 l -0.0248959,-0.0444 z"
         id="path20" />
      <path
         style="opacity:0.2;stroke-width:0.101165"
         d="m 0.71817738,283.77338 c -0.27696528,0.003 -0.55083571,0.0249 -0.82461751,0.0621 -0.42340627,0.0621 -0.77036089,0.17074 -0.92953627,0.32601 v 0.065 c 0.15917538,-0.15528 0.50612989,-0.26416 0.92953627,-0.32627 0.2737818,-0.0373 0.54765223,-0.059 0.82461751,-0.0621 l 0.0757041,0.002 c 0.00242,-0.003 0.004686,-0.006 0.007114,-0.01 0.0121,-0.0179 0.0236923,-0.0359 0.0355659,-0.0539 z m 0.93461712,0.0774 c -0.011797,0.0196 -0.022985,0.0387 -0.035312,0.0588 0.3795058,0.0567 0.846361,0.17818 0.9851713,0.3136 v -0.0649 c -0.1347263,-0.13124 -0.5771634,-0.24871 -0.9498593,-0.3075 z"
         id="path21" />
      <path
         style="opacity:0.1;fill:#ffffff;stroke-width:0.101165"
         d="m 0.09412528,282.17172 -0.55393641,0.34477 c -0.0159174,0.009 -0.0317232,0.0217 -0.0444573,0.0373 -0.003533,0.005 -0.0352952,0.0565 -0.0288338,0.18683 0.004537,-0.0827 0.0259627,-0.11774 0.0288338,-0.12194 0.0127343,-0.0155 0.0285398,-0.0279 0.0444573,-0.0373 l 0.54504512,-0.33919 c 0.0014874,-0.0245 0.0040809,-0.0483 0.0088924,-0.0705 z m -0.0094002,0.14133 c -0.0097959,0.19748 0.0834806,0.46784 0.22469947,0.777 0.009647,-3.8e-4 0.0190482,-0.001 0.0288338,-0.002 -0.14213767,-0.30269 -0.24274083,-0.57104 -0.25353307,-0.77548 z m 0.63345154,1.46033 c -0.01178,1.3e-4 -0.0235431,3.9e-4 -0.0353117,7.7e-4 l 0.0731638,0.10863 c 0.37792788,0.57979 0.89105358,1.17729 1.25089828,1.31418 l 0.070496,-0.0437 c -0.3606426,-0.0777 -0.9180383,-0.71655 -1.32139417,-1.33536 l -0.024642,-0.044 z"
         id="path22" />
    </g>
  </g>
  <style
     id="style815"
     type="text/css">
	.st0{fill:url(#SVGID_1_);}
	.st1{fill:url(#SVGID_2_);}
	.st2{fill:url(#SVGID_3_);}
	.st3{fill:url(#SVGID_4_);}
	.st4{fill:url(#SVGID_5_);}
	.st5{fill:url(#SVGID_6_);}
	.st6{opacity:0.4;fill:url(#SVGID_7_);enable-background:new    ;}
	.st7{fill:url(#SVGID_8_);}
	.st8{fill:url(#SVGID_9_);}
	.st9{fill:url(#SVGID_10_);}
	.st10{fill:url(#SVGID_11_);}
	.st11{fill:url(#SVGID_12_);}
	.st12{fill:url(#SVGID_13_);}
	.st13{fill:url(#SVGID_14_);}
	.st14{fill:url(#SVGID_15_);}
	.st15{fill:url(#SVGID_16_);}
	.st16{opacity:0.2;fill:url(#SVGID_17_);enable-background:new    ;}
	.st17{fill:url(#SVGID_18_);}
	.st18{fill:url(#SVGID_19_);}
	.st19{opacity:0.25;fill:url(#SVGID_20_);enable-background:new    ;}
	.st20{fill:url(#SVGID_21_);}
	.st21{fill:url(#SVGID_22_);}
	.st22{opacity:0.2;fill:url(#SVGID_23_);enable-background:new    ;}
	.st23{fill:url(#SVGID_24_);}
</style>
</svg>
