<?xml version="1.0" encoding="UTF-8" standalone="no"?>
<svg
   width="16"
   height="16"
   version="1.1"
   id="svg5"
   sodipodi:docname="JavaFXSceneBuilder2.0.svg"
   inkscape:version="1.4.4 (unknown)"
   xmlns:inkscape="http://www.inkscape.org/namespaces/inkscape"
   xmlns:sodipodi="http://sodipodi.sourceforge.net/DTD/sodipodi-0.dtd"
   xmlns:xlink="http://www.w3.org/1999/xlink"
   xmlns="http://www.w3.org/2000/svg"
   xmlns:svg="http://www.w3.org/2000/svg">
  <defs
     id="defs5">
    <linearGradient
       id="linearGradient5"
       inkscape:collect="always">
      <stop
         style="stop-color:#7c6f91;stop-opacity:1"
         offset="0"
         id="stop5" />
      <stop
         style="stop-color:#432076;stop-opacity:1;"
         offset="1"
         id="stop6" />
    </linearGradient>
    <linearGradient
       inkscape:collect="always"
       xlink:href="#linearGradient5"
       id="linearGradient6"
       x1="2.0000003"
       y1="1020.3622"
       x2="61.999999"
       y2="1020.3622"
       gradientUnits="userSpaceOnUse" />
  </defs>
  <sodipodi:namedview
     id="namedview5"
     pagecolor="#ffffff"
     bordercolor="#000000"
     borderopacity="0.25"
     inkscape:showpageshadow="2"
     inkscape:pageopacity="0.0"
     inkscape:pagecheckerboard="0"
     inkscape:deskcolor="#d1d1d1"
     inkscape:zoom="16.727495"
     inkscape:cx="5.7390542"
     inkscape:cy="1.8831272"
     inkscape:window-width="1920"
     inkscape:window-height="994"
     inkscape:window-x="0"
     inkscape:window-y="0"
     inkscape:window-maximized="1"
     inkscape:current-layer="svg5" />
  <g
     transform="matrix(-0.03921174,0.22814676,-0.23403889,-0.03822454,247.94713,39.508329)"
     id="g5">
    <path
       style="opacity:0.2"
       d="m 43.430878,996.36281 c -2.53698,0.192 -4.11162,1.0846 -5.801582,2.3756 -1.553858,-0.4232 -3.120124,-0.6298 -4.090416,-0.4354 -2.22338,0.4456 -3.805754,1.3388 -5.242922,2.79159 -0.08324,0 -0.17182,-0.076 -0.25394,-0.078 -2.28871,-0.036 -3.351242,0.6152 -3.87945,0.8084 -1.024356,0.3628 -1.868248,1.2024 -2.625368,1.843 -0.795578,-0.9042 -1.895132,-2.1944 -2.496443,-2.846 -1.76163,-1.98219 -3.341691,-3.25459 -4.711597,-3.74399 -1.959417,-0.685 -4.297716,-0.5092 -6.0164672,0.2138 -1.7187516,0.7228 -2.9327586,1.7992 -3.9341444,2.94319 -0.3343766,0.3818 -1.5208354,1.2044 -2.1643656,3.7092 -0.6435301,2.5048 0.2930624,4.838 1.0939032,6.2166 1.6016818,2.7574 3.8776366,5.2772 8.712157,11.139 0.259871,0.315 0.420963,0.5112 0.675876,0.8202 -0.671758,0.3848 -1.374904,0.7082 -1.945585,1.2792 -1.7778126,1.7796 -2.5658452,4.2342 -2.6253674,6.279 -0.07533,2.5874 1.0836182,4.5766 2.2229674,5.8826 1.138591,1.305 2.382643,2.1538 3.691923,2.8186 1.359568,0.691 1.549929,0.6702 2.785546,1.1392 1.235617,0.4688 2.853684,1.066 4.688157,1.7224 3.668944,1.3128 8.183682,2.8554 12.197018,4.059 1.860016,0.5578 3.35493,0.9788 5.219482,1.0574 1.142642,0.048 2.473702,-0.2698 3.738804,-0.7386 0.798882,-0.2012 1.547608,-0.5636 2.199526,-1.0652 h 0.0078 0.004 c 1.31268,-1.0112 4.182372,-3.424 7.27055,-6.0262 3.089158,-2.6034 5.49664,-4.5844 6.89159,-5.9176 0.451472,-0.4314 1.043742,-0.9586 1.70727,-1.9866 0.663528,-1.0282 1.198054,-2.6464 1.242362,-3.962 0.08862,-2.631 -0.589908,-3.8108 -1.246268,-5.7112 -1.492356,-4.3214 -3.480768,-8.9878 -5.446074,-12.9546 -0.982654,-1.9834 -1.950828,-3.7836 -2.910564,-5.3304 -0.959738,-1.5468 -1.55556,-2.73439 -3.457516,-4.23399 -1.877518,-1.4808 -3.715696,-2.0882 -5.50077,-2.0684 z"
       id="path1" />
    <path
       style="fill:url(#linearGradient6)"
       d="m 43.430878,995.3628 c -2.53698,0.192 -4.11162,1.0846 -5.801582,2.3756 -1.553858,-0.4232 -3.120124,-0.6298 -4.090416,-0.4354 -2.22338,0.4456 -3.805754,1.3388 -5.242922,2.7916 -0.08324,0 -0.17182,-0.076 -0.25394,-0.078 -2.28871,-0.036 -3.351242,0.6152 -3.87945,0.8084 -1.024356,0.3628 -1.868248,1.2024 -2.625368,1.843 -0.795578,-0.9042 -1.895132,-2.1944 -2.496443,-2.846 -1.76163,-1.9822 -3.341691,-3.2546 -4.711597,-3.744 -1.959417,-0.685 -4.297716,-0.5092 -6.0164672,0.2138 -1.7187516,0.7228 -2.9327586,1.7992 -3.9341444,2.9432 -0.3343766,0.3818 -1.5208354,1.2044 -2.1643656,3.7092 -0.6435301,2.5048 0.2930624,4.838 1.0939032,6.2166 1.6016818,2.7574 3.8776366,5.2772 8.712157,11.139 0.259871,0.315 0.420963,0.5112 0.675876,0.8202 -0.671758,0.3848 -1.374904,0.7082 -1.945585,1.2792 -1.7778126,1.7796 -2.5658452,4.2342 -2.6253674,6.279 -0.07533,2.5874 1.0836182,4.5766 2.2229674,5.8826 1.138591,1.305 2.382643,2.1538 3.691923,2.8186 1.359568,0.691 1.549929,0.6702 2.785546,1.1392 1.235617,0.4688 2.853684,1.066 4.688157,1.7224 3.668944,1.3128 8.183682,2.8554 12.197018,4.059 1.860016,0.5578 3.35493,0.9788 5.219482,1.0574 1.142642,0.048 2.473702,-0.2698 3.738804,-0.7386 0.798882,-0.2012 1.547608,-0.5636 2.199526,-1.0652 h 0.0078 0.004 c 1.31268,-1.0112 4.182372,-3.424 7.27055,-6.0262 3.089158,-2.6034 5.49664,-4.5844 6.89159,-5.9176 0.451472,-0.4314 1.043742,-0.9586 1.70727,-1.9866 0.663528,-1.0282 1.198054,-2.6464 1.242362,-3.962 0.08862,-2.631 -0.589908,-3.8108 -1.246268,-5.7112 -1.492356,-4.3214 -3.480768,-8.9878 -5.446074,-12.9546 -0.982654,-1.9834 -1.950828,-3.7836 -2.910564,-5.3304 -0.959738,-1.5468 -1.55556,-2.7344 -3.457516,-4.234 -1.877518,-1.4808 -3.715696,-2.0882 -5.50077,-2.0684 z"
       id="path2" />
    <path
       style="opacity:0.2"
       d="m 41.212742,1039.7928 c 1.698302,-1.3142 12.585656,-10.5336 13.678886,-11.5834 1.439636,-1.3822 1.451776,-1.7448 0.1823,-5.4382 -2.777992,-8.0834 -7.664564,-18.129 -9.864172,-19.8716 -0.915572,-0.7256 -2.605002,-0.7146 -3.792066,0.022 -1.655424,1.0306 -1.581882,2.4168 0.302752,5.7082 0.67889,1.1856 1.234338,2.6358 1.234338,2.7344 0,0.098 -0.235804,0.18 -0.52401,0.18 -0.368968,0 -1.212216,-1.0454 -2.85024,-3.533 -2.492468,-3.7864 -3.211914,-4.3878 -4.849562,-4.058 -1.23462,0.2486 -2.641198,1.2026 -3.104822,2.1056 -0.53617,1.0444 -0.314738,1.5722 2.181436,5.2004 1.533238,2.2288 1.951562,3.0258 1.713478,3.2658 -0.17326,0.176 -0.402344,0.317 -0.509102,0.317 -0.10676,0 -1.502842,-1.793 -3.102368,-3.9846 -1.022824,-1.4012 -1.820686,-2.4314 -2.415852,-3.116 -1.023322,-1.393 -1.993866,-0.9606 -3.248888,-0.499 -0.898318,0.4418 -1.806922,1.078 -2.254854,1.6696 -1.053114,1.3906 -0.897628,2.2688 0.831768,4.6968 0.831378,1.1672 2.065254,2.8064 2.741948,3.6432 1.184676,1.465 1.470764,2.4976 0.757484,2.7338 -0.41472,0.136 -0.19948,0.3744 -8.152204,-8.974 -4.92518,-5.7896 -7.237938,-8.3078 -7.816259,-8.5108 -1.089207,-0.3826 -2.275359,0.118 -3.439238,1.4542 -1.7207996,1.974 -1.9228988,1.6244 7.755698,13.4166 4.751007,5.7884 8.758811,10.682 8.906241,10.8746 0.547048,0.7148 -0.934094,-0.134 -3.530222,-1.0018 -2.185507,-0.73 -2.977643,-0.87 -4.408584,-0.7782 -2.371221,0.198 -3.449629,1.5012 -3.50184,3.3036 -0.03647,1.2586 1.169865,2.4712 2.645684,3.224 0.844464,0.4312 10.988682,4.2384 18.671158,6.5532 3.357056,1.0116 4.696274,1.0686 5.761092,0.2444 z"
       id="path3" />
    <path
       style="fill:#e9e0f6;fill-opacity:1"
       d="m 41.212742,1038.7928 c 1.698302,-1.3142 12.585656,-10.5336 13.678886,-11.5834 1.439636,-1.3822 1.451776,-1.7448 0.1823,-5.4382 -2.777992,-8.0834 -7.664564,-18.129 -9.864172,-19.8716 -0.915572,-0.7256 -2.605002,-0.7146 -3.792066,0.022 -1.655424,1.0306 -1.581882,2.4168 0.302752,5.7082 0.67889,1.1856 1.234338,2.6358 1.234338,2.7344 0,0.098 -0.235804,0.18 -0.52401,0.18 -0.368968,0 -1.212216,-1.0454 -2.85024,-3.533 -2.492468,-3.7864 -3.211914,-4.3878 -4.849562,-4.058 -1.23462,0.2486 -2.641198,1.2026 -3.104822,2.1056 -0.53617,1.0444 -0.314738,1.5722 2.181436,5.2004 1.533238,2.2288 1.951562,3.0258 1.713478,3.2658 -0.17326,0.176 -0.402344,0.317 -0.509102,0.317 -0.10676,0 -1.502842,-1.793 -3.102368,-3.9846 -1.022824,-1.4012 -1.820686,-2.4314 -2.415852,-3.116 -1.023322,-1.393 -1.993866,-0.9606 -3.248888,-0.499 -0.898318,0.4418 -1.806922,1.078 -2.254854,1.6696 -1.053114,1.3906 -0.897628,2.2688 0.831768,4.6968 0.831378,1.1672 2.065254,2.8064 2.741948,3.6432 1.184676,1.465 1.470764,2.4976 0.757484,2.7338 -0.41472,0.136 -0.19948,0.3744 -8.152204,-8.974 -4.92518,-5.7896 -7.237938,-8.3078 -7.816259,-8.5108 -1.089207,-0.3826 -2.275359,0.118 -3.439238,1.4542 -1.7207996,1.974 -1.9228988,1.6244 7.755698,13.4166 4.751007,5.7884 8.758811,10.682 8.906241,10.8746 0.547048,0.7148 -0.934094,-0.134 -3.530222,-1.0018 -2.185507,-0.73 -2.977643,-0.87 -4.408584,-0.7782 -2.371221,0.198 -3.449629,1.5012 -3.50184,3.3036 -0.03647,1.2586 1.169865,2.4712 2.645684,3.224 0.844464,0.4312 10.988682,4.2384 18.671158,6.5532 3.357056,1.0116 4.696274,1.0686 5.761092,0.2444 z"
       id="path4" />
    <path
       style="opacity:0.1;fill:#ffffff"
       transform="translate(0,988.3622)"
       d="m 43.431641,7 c -2.53698,0.192 -4.112773,1.0859531 -5.802735,2.3769531 -1.553858,-0.4232 -3.119551,-0.6299469 -4.089844,-0.4355469 -2.223379,0.4456001 -3.805019,1.3382158 -5.242187,2.7910158 -0.08324,0 -0.171786,-0.07612 -0.253906,-0.07813 -2.28871,-0.036 -3.352652,0.615394 -3.88086,0.808594 -1.024356,0.3628 -1.86788,1.20315 -2.625,1.84375 -0.795578,-0.9042 -1.894782,-2.196057 -2.496093,-2.847657 -1.76163,-1.9821996 -3.341032,-3.2547402 -4.710938,-3.7441402 -1.959417,-0.685 -4.298827,-0.5081563 -6.017578,0.2148437 -1.7187516,0.7228 -2.9322079,1.7993594 -3.9335938,2.9433595 -0.3343765,0.3818 -1.5205322,1.204184 -2.1640624,3.708984 -0.1960474,0.763072 -0.2342814,1.505762 -0.1855469,2.214844 0.028002,-0.399084 0.079737,-0.803001 0.1855469,-1.214844 0.6435302,-2.5048 1.8296859,-3.327184 2.1640624,-3.708984 1.0013859,-1.14399 2.2148422,-2.2205595 3.9335938,-2.9433595 1.718751,-0.723 4.058161,-0.8998437 6.017578,-0.2148437 1.369906,0.4894 2.949308,1.7619502 4.710938,3.7441402 0.601311,0.6516 1.700515,1.943457 2.496093,2.847657 0.75712,-0.6406 1.600644,-1.48095 2.625,-1.84375 0.528208,-0.1932 1.59215,-0.844594 3.88086,-0.808594 0.08212,0.002 0.170666,0.07813 0.253906,0.07813 1.437168,-1.45279 3.018808,-2.345416 5.242187,-2.7910158 0.970293,-0.1944 2.535986,0.012347 4.089844,0.4355468 C 39.318868,9.0859531 40.894661,8.192 43.431641,8 c 1.785074,-0.0198 3.622482,0.5875594 5.5,2.068359 1.901956,1.4996 2.497293,2.687575 3.457031,4.234375 0.959736,1.5468 1.929455,3.346679 2.912109,5.330078 1.965306,3.966801 3.952957,8.633679 5.445313,12.955079 0.570574,1.65202 1.156624,2.762331 1.242187,4.751953 5.37e-4,-0.01313 0.0035,-0.02794 0.0039,-0.04102 0.08862,-2.631 -0.589734,-3.810537 -1.246094,-5.710937 C 59.253731,27.266487 57.26608,22.599609 55.300774,18.632808 54.31812,16.649409 53.348401,14.84953 52.388665,13.30273 51.428927,11.75593 50.83359,10.567955 48.931634,9.0683554 47.054123,7.5875594 45.216715,6.9802 43.431641,7 Z M 12.132812,33.076172 c -0.487999,0.270192 -0.971163,0.549058 -1.382812,0.960937 -1.7778126,1.7796 -2.5654778,4.234497 -2.625,6.279297 -0.00713,0.244925 0.00756,0.478758 0.021484,0.712891 0.1208889,-1.98491 0.906981,-4.293947 2.603516,-5.992188 0.570681,-0.571 1.273554,-0.894496 1.945312,-1.279297 -0.211966,-0.256941 -0.369541,-0.447529 -0.5625,-0.68164 z"
       id="path5" />
  </g>
</svg>
