<?xml version="1.0" encoding="UTF-8" standalone="no"?>
<svg
   width="16"
   height="16"
   version="1.1"
   id="svg6"
   sodipodi:docname="jellyfin.svg"
   inkscape:version="1.4.4 (unknown)"
   xmlns:inkscape="http://www.inkscape.org/namespaces/inkscape"
   xmlns:sodipodi="http://sodipodi.sourceforge.net/DTD/sodipodi-0.dtd"
   xmlns="http://www.w3.org/2000/svg"
   xmlns:svg="http://www.w3.org/2000/svg">
  <defs
     id="defs6" />
  <sodipodi:namedview
     id="namedview6"
     pagecolor="#ffffff"
     bordercolor="#000000"
     borderopacity="0.25"
     inkscape:showpageshadow="2"
     inkscape:pageopacity="0.0"
     inkscape:pagecheckerboard="0"
     inkscape:deskcolor="#d1d1d1"
     inkscape:zoom="8.5"
     inkscape:cx="31"
     inkscape:cy="32.294118"
     inkscape:window-width="1920"
     inkscape:window-height="994"
     inkscape:window-x="0"
     inkscape:window-y="0"
     inkscape:window-maximized="1"
     inkscape:current-layer="svg6" />
  <g
     id="g1"
     transform="translate(4.7194502e-4,0.44827583)">
    <path
       style="opacity:0.2;stroke-width:0.896553"
       d="m 8.0003611,1.5000002 c -1.661033,0 -7.00796497,9.6939438 -6.192686,11.3309998 0.815278,1.637058 11.5789919,1.618179 12.3853719,0 C 14.999426,11.212822 9.6611241,1.5000002 8.0003611,1.5000002 Z m 8.86e-4,2.486481 c 1.088207,0 4.5855729,6.3625618 4.0572459,7.4235478 -0.528326,1.060716 -7.5799639,1.072583 -8.1144929,0 -0.53453,-1.072582 2.969039,-7.4235478 4.057247,-7.4235478 z m -8.86e-4,2.444457 c -0.55125,0 -2.32566,3.116099 -2.05489,3.6421688 0.270771,0.52607 3.842244,0.520323 4.1097789,0 C 10.322784,9.5527842 8.5516111,6.4311992 8.0003611,6.4309382 Z"
       id="path2" />
    <path
       style="fill:#4287ea;stroke-width:0.896553"
       d="m 8.0002931,5.9827582 c -0.55125,0 -2.325824,3.115995 -2.055053,3.642075 0.270771,0.5260808 3.842572,0.5203338 4.1101059,0 0.267535,-0.520333 -1.5038019,-3.641814 -2.0550529,-3.642075 z"
       id="path4" />
    <path
       style="fill:#a245e9;stroke-width:0.896553"
       d="m 8.0002931,1.0517242 c -1.661033,0 -7.00794697,9.6938878 -6.192668,11.3309768 0.815279,1.637089 11.5789559,1.61821 12.3853349,0 C 14.99934,10.764491 9.6610561,1.0517242 8.0002931,1.0517242 Z m 4.0583249,9.9104578 c -0.528327,1.060737 -7.5805029,1.072603 -8.1150319,0 -0.53453,-1.0726028 2.969309,-7.4243478 4.057515,-7.4243478 1.088208,0 4.5858439,6.363342 4.0575169,7.4243478 z"
       id="path5" />
    <path
       style="opacity:0.2;fill:#ffffff;stroke-width:0.896553"
       d="m 8.0003611,1.0517242 c -1.588734,0 -6.545524,8.8632 -6.260978,11.0676848 0.280861,-2.7583798 4.764951,-10.6194088 6.260978,-10.6194088 1.496677,0 5.9780989,7.885906 6.2592269,10.6290408 C 14.548541,9.9515872 9.5905351,1.0517242 8.0003611,1.0517242 Z m 0,4.931034 c -0.55125,0 -2.32566,3.116172 -2.05489,3.642242 0.0034,0.0065 0.01311,0.01198 0.01751,0.01839 0.250171,-1.01408 1.573881,-3.212354 2.03738,-3.212354 0.463429,2.2e-4 1.784851,2.201118 2.0365029,3.213228 0.0047,-0.0066 0.01486,-0.01241 0.01839,-0.01927 0.267532,-0.520324 -1.5036409,-3.641981 -2.0548909,-3.642241 z m -4.087015,4.8863828 c -0.03072,0.231385 -0.02836,0.422686 0.03064,0.541083 0.534529,1.072582 7.5861669,1.060715 8.1144929,0 0.05829,-0.117046 0.05995,-0.307155 0.02889,-0.537581 -0.0082,0.03187 -0.01605,0.06352 -0.02889,0.08931 -0.528326,1.060715 -7.5799639,1.072582 -8.1144929,0 -0.0134,-0.02689 -0.02222,-0.05946 -0.03064,-0.09281 z"
       id="path6" />
  </g>
</svg>
