<?xml version="1.0" encoding="UTF-8" standalone="no"?>
<!-- Generator: Gravit.io -->

<svg
   style="isolation:isolate"
   viewBox="0 0 16 16"
   width="16pt"
   height="16pt"
   version="1.1"
   id="svg2"
   sodipodi:docname="jitsi.svg"
   inkscape:version="1.4.4 (unknown)"
   xmlns:inkscape="http://www.inkscape.org/namespaces/inkscape"
   xmlns:sodipodi="http://sodipodi.sourceforge.net/DTD/sodipodi-0.dtd"
   xmlns:xlink="http://www.w3.org/1999/xlink"
   xmlns="http://www.w3.org/2000/svg"
   xmlns:svg="http://www.w3.org/2000/svg">
  <defs
     id="defs2">
    <linearGradient
       id="linearGradient2"
       inkscape:collect="always">
      <stop
         style="stop-color:#3584e4;stop-opacity:1"
         offset="0"
         id="stop3" />
      <stop
         style="stop-color:#99c1f1;stop-opacity:1"
         offset="1"
         id="stop4" />
    </linearGradient>
    <linearGradient
       inkscape:collect="always"
       xlink:href="#linearGradient2"
       id="linearGradient4"
       x1="4.9972277"
       y1="5.2649817"
       x2="13.423935"
       y2="13.29069"
       gradientUnits="userSpaceOnUse" />
  </defs>
  <sodipodi:namedview
     id="namedview2"
     pagecolor="#ffffff"
     bordercolor="#000000"
     borderopacity="0.25"
     inkscape:showpageshadow="2"
     inkscape:pageopacity="0.0"
     inkscape:pagecheckerboard="0"
     inkscape:deskcolor="#d1d1d1"
     inkscape:document-units="pt"
     inkscape:zoom="16.727495"
     inkscape:cx="7.771636"
     inkscape:cy="7.8613087"
     inkscape:window-width="1920"
     inkscape:window-height="994"
     inkscape:window-x="0"
     inkscape:window-y="0"
     inkscape:window-maximized="1"
     inkscape:current-layer="svg2" />
  <linearGradient
     id="_lgradient_12"
     x1="0"
     y1="0.5"
     x2="1"
     y2="0.5"
     gradientTransform="matrix(13.00002,0,0,13.00002,1.4999907,1.4999984)"
     gradientUnits="userSpaceOnUse">
    <stop
       offset="0%"
       stop-opacity="1"
       style="stop-color:rgb(59,228,234)"
       id="stop1" />
    <stop
       offset="98.26086956521739%"
       stop-opacity="1"
       style="stop-color:rgb(26,147,237)"
       id="stop2" />
  </linearGradient>
  <path
     d="m 8.4438976,13.318101 v 0 C 8.1197095,13.345451 7.877855,13.631997 7.9043967,13.95781 v 0 c 0.026813,0.325542 0.312813,0.567668 0.6388969,0.540043 v 0 C 10.175879,14.361894 11.69959,13.611143 12.805404,12.396724 13.90851,11.182305 14.514636,9.5935945 14.49974,7.9512586 14.484032,6.2260475 13.783656,4.5753158 12.555425,3.3641472 11.324215,2.1562286 9.6637328,1.4845609 7.9412301,1.5002692 6.2187274,1.5159776 4.5704331,2.217437 3.3614312,3.447564 2.1551376,4.6806701 1.4845532,6.3438602 1.5002615,8.0690713 v 0 c 0.00298,0.3266255 0.2700213,0.5893342 0.5961052,0.5863551 v 0 c 0.3263546,-0.00298 0.5885218,-0.270563 0.5855426,-0.5971885 v 0 C 2.6691801,6.6469232 3.218431,5.2865252 4.2050784,4.2773986 5.1947049,3.2712512 6.5426446,2.696542 7.9517926,2.6838128 9.3612115,2.6710838 10.719443,3.221147 11.726944,4.2091485 c 1.004793,0.9912516 1.578149,2.3413579 1.591149,3.7529434 0.01192,1.3433355 -0.481543,2.6438791 -1.385586,3.6375681 -0.904043,0.99369 -2.1512323,1.605774 -3.4886094,1.718441 z M 3.5325981,10.529596 v 0 C 3.3812021,10.241971 3.0299307,10.133637 2.7482636,10.288283 v 0 c -0.2816672,0.154375 -0.3872924,0.513501 -0.2361671,0.801126 v 0 c 0.645126,1.224982 1.6591276,2.210004 2.8895254,2.805297 v 0 c 0.2892505,0.141104 0.6351052,0.01598 0.7724179,-0.279501 v 0 c 0.1373127,-0.295208 0.014083,-0.649459 -0.2748963,-0.790293 v 0 C 4.8897461,12.33687 4.0628906,11.533848 3.5325981,10.529596 Z M 9.3633782,4.6920451 C 9.3289823,4.921983 9.2750864,5.1410875 9.1716279,5.3721087 9.2840239,5.2404835 9.3501073,5.0982958 9.3720449,4.9395872 9.3809824,4.8740454 9.3899199,4.8098578 9.3633782,4.6920451 Z M 9.1131278,5.0839416 c -0.174417,0.1725211 -0.3891881,0.2673129 -0.5251467,0.327438 -0.038187,0.015437 -0.075833,0.032771 -0.112396,0.051729 -0.00894,0.00677 -0.020854,0.012188 -0.031146,0.0195 -0.083146,0.049562 -0.2077295,0.1248543 -0.2261462,0.1690002 v 0.00379 C 8.1611471,5.7783593 8.1300012,5.963068 8.1180845,6.0684223 8.2510639,5.9863597 8.3856683,5.9313804 8.4980643,5.8850678 8.6031478,5.8425469 8.6930646,5.8067969 8.738023,5.7640051 8.9403358,5.5771298 9.0613985,5.2670252 9.1131278,5.0839416 Z m 0.088021,0.5980009 c -0.045229,0.031958 -0.1346044,0.1034585 -0.1952712,0.1584378 -0.026813,0.023562 -0.04875,0.052812 -0.063917,0.085583 -0.00162,0.00352 -0.00325,0.00704 -0.00515,0.00894 -0.032771,0.099667 0.011917,0.2369796 0.098583,0.2865422 0.021937,0.014083 0.044688,0.023021 0.065542,0.024917 h 0.00867 c 0.065271,0 0.1194377,-0.049833 0.1589795,-0.1478753 0.025729,-0.078 0.029521,-0.1619586 0.010292,-0.2421253 C 9.2620851,5.7943409 9.2358151,5.73557 9.2011481,5.6819449 Z M 8.7277313,5.979318 C 8.3217515,6.1179849 8.1990638,6.1965267 8.1318971,6.2534017 c -0.036292,0.030063 -0.057417,0.1156461 0.044958,0.3526256 0.051729,0.118896 0.229667,0.2827504 0.3055005,0.2973755 0.00569,0.00135 0.011646,0.00217 0.017333,0.00162 0.1278335,0 0.4146465,-0.1920212 0.4682716,-0.2795005 l 0.00515,-0.00704 0.00515,-0.00542 C 8.9972109,6.595194 9.0494818,6.497423 9.0749402,6.440277 8.8022106,6.3552352 8.7729606,6.2032975 8.7450647,6.0684223 c -0.00162,-0.014625 -0.0046,-0.028979 -0.00867,-0.042792 -0.0019,-0.015708 -0.00487,-0.031146 -0.00867,-0.046313 z m 1.0356683,0.4717924 c -0.00975,5.417e-4 -0.0195,0.00298 -0.028438,0.00704 -0.036292,0.014625 -0.094792,0.1866044 -0.069063,0.3133546 0.017604,0.087209 0.1170002,0.3772715 0.1673753,0.51648 0.016792,0.053083 0.027625,0.078 0.029521,0.088833 0.00433,0.010292 0.00785,0.021125 0.010292,0.032229 0.039813,0.1229585 0.1400211,0.439834 0.1708961,0.6976678 0.07069,-0.327438 0.09858,-0.6635427 0.08315,-0.9985641 C 10.124692,6.9377987 10.078108,6.7712359 9.9922542,6.6255273 9.9245457,6.5171938 9.8400456,6.4511104 9.7712538,6.4511104 c -0.00271,0 -0.00515,0 -0.00785,0 z m -0.2548545,0.039271 c -0.089104,0.03575 -0.172792,0.084229 -0.2486254,0.1440835 l -0.00515,0.00352 C 9.2084613,6.6742774 9.1635029,6.7121941 9.1198986,6.7520067 8.8417524,7.0098404 8.6323979,7.1439032 8.4980643,7.150674 h -0.00704 C 8.3740224,7.1398406 8.1958138,6.9640695 8.1232304,6.8746944 c -0.016521,-0.011104 -0.03575,-0.016521 -0.05525,-0.015979 -0.022208,0 -0.04875,0.00542 -0.074479,0.010833 -0.017063,0.00325 -0.036021,0.0065 -0.05525,0.00894 -0.073938,0.00975 -0.1470632,0.024643 -0.2193758,0.044414 C 7.6657922,6.9345487 7.6127087,6.947007 7.5598962,6.9602779 7.3632709,7.0190488 7.214854,7.0883822 7.1419997,7.1544657 l -0.00515,0.00515 C 7.0864747,7.1953657 6.968662,7.2966576 6.9329119,7.4713454 v 0.00162 c -0.074208,0.3222921 0.038458,0.7193344 0.1882295,0.9471056 0.070958,0.1067085 0.1451669,0.1730628 0.2074586,0.1833545 0.014896,0.0019 0.034396,0.00352 0.05525,0.00352 0.2402296,0 0.746147,-0.1476044 1.0795434,-0.2456462 l 0.1348752,-0.039 c 0.00623,-0.00162 0.012729,-0.00352 0.018958,-0.00542 -0.017333,-0.0195 -0.050104,-0.047938 -0.1002085,-0.092625 C 8.2941265,8.0693421 8.0836887,7.9964878 7.8553758,7.9964878 c -0.050375,0 -0.1012918,0.00325 -0.1589794,0.010562 -0.1931045,0.02275 -0.3539797,0.069333 -0.431709,0.092625 -0.020583,0.0084 -0.041979,0.013542 -0.063917,0.015979 -0.023292,0 -0.043875,-0.014896 -0.052,-0.037375 -0.0065,-0.022479 2.708e-4,-0.046854 0.017333,-0.062292 h 0.00163 C 7.3004419,7.9003407 7.551234,7.6850279 8.0230264,7.5886111 c 0.080979,-0.015708 0.1687294,-0.024917 0.2608129,-0.024917 0.2104378,0 0.430084,0.044688 0.6510844,0.133521 0.2990004,0.1213336 0.5040216,0.2757088 0.6686885,0.4005632 0.089646,0.065813 0.1660211,0.1243127 0.2331879,0.1568127 0.017604,0.00921 0.025729,0.010563 0.02925,0.010563 0.00921,-0.013271 0.015708,-0.028438 0.019229,-0.044417 0.00298,-0.00677 0.021938,-0.089104 -0.112396,-0.5554801 C 9.7084204,7.439112 9.6347536,7.2156741 9.5518785,6.9957571 9.4568158,6.7574234 9.479295,6.5905898 9.5085451,6.4903814 Z M 8.2716473,7.7489458 c -0.2071878,0 -0.3883756,0.040625 -0.5302925,0.090729 0.034937,-0.00162 0.070958,-0.00162 0.1088752,-0.00162 0.043333,0 0.089646,2.708e-4 0.1365002,0.00352 0.148146,0.010833 0.5286675,0.079896 0.8707305,0.5021258 0.069333,0.083688 0.1435419,0.1549169 0.3556047,0.1549169 0.074479,0 0.1627711,-0.00894 0.2678546,-0.026813 l 0.029521,-0.00894 C 9.582754,8.4433645 9.6401704,8.4257605 9.6829621,8.4130315 9.594941,8.3510092 9.4928367,8.2705716 9.3549823,8.1603423 9.0142735,7.8876127 8.6502729,7.7489458 8.2716473,7.7489458 Z m 0.454459,0.7103969 c -0.00488,0.0019 -0.013542,0.00352 -0.027625,0.00704 l -0.00515,0.0019 C 8.622377,8.4950928 8.4945435,8.5395095 8.3477516,8.5909679 8.1700846,8.6535305 7.969126,8.7225931 7.8017507,8.7851557 7.5872504,8.8672184 7.5187294,8.8991768 7.4959794,8.9097393 l -0.013812,0.040896 c -0.049834,0.1587085 -0.1657508,0.5218965 -0.7374809,0.7762094 0.1194377,0.1232294 0.3751048,0.3436883 0.8810223,0.3436883 0.043333,0 0.089646,-0.0016 0.1346043,-0.0054 0.3840423,-0.02871 0.7439804,-0.2031222 1.0107516,-0.4896643 0.2453754,-0.2613546 0.3832298,-0.5893343 0.3867507,-0.9024181 -0.088021,-0.00731 -0.174417,-0.029792 -0.2556671,-0.066084 0,-0.00162 -0.1072502,-0.05525 -0.1725211,-0.1421877 -0.0019,-0.0019 -0.00352,-0.00352 -0.00352,-0.00542 z m 1.2022311,0.026813 c -0.085042,0.053896 -0.1776669,0.09425 -0.2746254,0.1191668 -0.1194377,0.035479 -0.2348129,0.054979 -0.2971047,0.065813 -0.00542,0.063917 -0.015708,0.1868753 -0.031146,0.2813963 -0.016521,0.088021 -0.040896,0.174417 -0.072583,0.2581046 l 0.091542,0.085584 C 9.4329825,9.2355523 9.7262954,9.0056144 9.9283374,8.4861557 Z M 6.2487899,8.9240935 C 6.2073524,8.9349268 5.9237894,9.1323646 5.8620393,9.7216989 5.8308934,10.006345 5.8842477,10.371158 5.9292061,10.594054 5.9654978,10.461888 6.0226437,10.317804 6.1331439,10.1702 6.2366024,10.031262 6.3487276,9.9226575 6.4890195,9.8265116 6.4408111,9.8067407 6.3974777,9.7758656 6.3628109,9.7357822 6.3110817,9.6721363 6.28779,9.5887195 6.2988942,9.5061152 6.3351859,9.0627603 6.2853525,8.9560518 6.2626024,8.9311351 c -0.00515,-0.00731 -0.00894,-0.00704 -0.010292,-0.00704 z m 0.3076672,0.1121251 c -0.0019,0.09425 -0.013542,0.1811878 -0.024375,0.2686671 -0.00677,0.047938 -0.012458,0.096146 -0.017062,0.1443544 -0.00677,0.098042 0.013812,0.1318961 0.022479,0.1405627 0.00515,0.00731 0.013813,0.012458 0.030875,0.012458 0.01625,-5.417e-4 0.031958,-0.00406 0.046854,-0.010563 C 6.7844991,9.5185736 6.9448327,9.3901984 7.0228328,9.3211358 6.9033951,9.265344 6.7222073,9.1478021 6.5564571,9.0362186 Z M 9.2693989,4.0049399 c 0.0019,0 0.00406,0 0.00596,0 0.062292,0 0.114021,0 0.3041463,0.6072093 0.1002085,0.3185005 0.026,0.6193968 -0.2212712,0.8899597 l -0.00867,0.010833 c 0.0019,0.0019 0.0019,0.00352 0.00352,0.00515 0.1040002,0.1760419 0.1606044,0.3967714 0.1435419,0.5608967 -0.00352,0.036021 -0.00948,0.071771 -0.017333,0.1069793 v 0.00162 c 0.020583,-0.0019 0.044688,-0.00352 0.072584,-0.00352 0.1224168,0 0.2984588,0.0195 0.4420007,0.114021 0.086396,0.056875 0.1968964,0.1440836 0.2765214,0.3168755 0.09154,0.1996045 0.126208,0.4753133 0.101833,0.8190013 -0.02112,0.4054385 -0.08477,0.7675433 -0.189853,1.0733146 C 10.105463,8.7383015 9.9909,8.9538852 9.8438373,9.144823 9.6155244,9.4332609 9.3771907,9.5296778 9.3270865,9.5310319 c -0.034396,0 -0.051458,-0.012458 -0.1224169,-0.063917 -0.00677,-0.00379 -0.015979,-0.011104 -0.022479,-0.01625 -0.1348754,0.2475423 -0.3442299,0.4609593 -0.608022,0.6215641 -0.2835629,0.171979 -0.6058551,0.264604 -0.9346473,0.268667 -0.3661673,0 -0.6927928,-0.122688 -0.943314,-0.352355 -0.3006255,0.199605 -0.4958966,0.377271 -0.6562302,1.123148 L 5.9844562,11.368368 5.8652893,11.137076 C 5.8073309,11.018993 5.7621017,10.89468 5.7306849,10.766576 5.6488931,10.440763 5.6117889,10.104387 5.6201848,9.7680115 5.6253306,9.3511983 5.7458516,9.0806354 5.8498518,8.9292393 5.9687478,8.7496765 6.1244772,8.6391763 6.2558316,8.6391763 h 0.024104 c 0.2090837,0.024917 0.3401672,0.1153752 0.5822926,0.2795005 l 0.075833,0.051729 c 0.083146,0.054979 0.1817295,0.1121252 0.2126046,0.1245836 0.021125,-0.012458 0.070958,-0.095875 0.086396,-0.2207295 l 0.00325,-0.017875 v -0.00542 c -0.00162,-0.0019 -0.00162,-0.00162 -0.00325,-0.00162 C 7.0745621,8.7921974 6.8522075,8.5286762 6.7376449,8.1370506 6.6290405,7.7451541 6.6512489,7.4215078 6.8034575,7.1720699 7.050187,6.7666317 7.5793962,6.6734649 7.7516465,6.6434024 c 0.053625,-0.010833 0.1088751,-0.021125 0.1625002,-0.030333 0.010562,-0.0019 0.018417,-0.00569 0.026,-0.00704 -0.00217,-0.00569 -0.00406,-0.011646 -0.00515,-0.017875 -0.00325,-0.015979 -0.00948,-0.036021 -0.013812,-0.058771 C 7.8670216,6.2783185 7.8949175,6.0684223 7.9279592,5.8975262 7.965876,5.7068592 7.9883552,5.5928382 8.079897,5.4845047 8.2028555,5.3098169 8.4151892,5.2372335 8.5430227,5.1925459 8.5687519,5.1838792 8.5939395,5.1744 8.6188562,5.1638375 8.9815026,4.9842747 9.0952528,4.8009203 9.1285653,4.6779618 c 0.025729,-0.1015627 0.069063,-0.369959 0.050104,-0.5554801 -0.00406,-0.031146 0.00542,-0.062292 0.026,-0.085583 0.016521,-0.019229 0.039813,-0.030604 0.06473,-0.031959 z m 0.00596,-0.3382714 c -0.1197085,8.125e-4 -0.2337295,0.053083 -0.314438,0.1440836 -0.081792,0.09425 -0.1207918,0.219917 -0.1069793,0.3455838 0.012458,0.1302711 -0.020854,0.3539798 -0.041438,0.4344174 -0.0019,0.00488 -0.039813,0.1207918 -0.3301463,0.2670421 -0.014354,0.0046 -0.028979,0.010021 -0.043063,0.015979 C 8.2889806,4.925233 8.0086677,5.021379 7.8242299,5.2743377 7.6842089,5.4484838 7.6476463,5.6256091 7.6083754,5.8298177 7.5750629,5.9844638 7.5604378,6.1431724 7.5653128,6.3016102 v 0.033854 l -0.033042,0.00894 C 7.0626454,6.4508396 6.7238323,6.6702149 6.5269362,6.9922362 6.3232692,7.3272576 6.2880608,7.7437999 6.4251027,8.2350924 c 0.00135,0.00677 0.00515,0.01625 0.00677,0.024917 l 0.020854,0.065813 -0.065542,-0.010563 c -0.024104,-0.00515 -0.046583,-0.00704 -0.070958,-0.010833 -0.020042,-0.00217 -0.040354,-0.00325 -0.060396,-0.00352 -0.2277712,0 -0.4717924,0.1495002 -0.6513552,0.3986673 -0.138396,0.1941878 -0.3060421,0.534355 -0.3125422,1.0646475 -0.00352,0.3989378 0.038188,0.7656468 0.1226877,1.0914598 0.063917,0.24023 0.1348753,0.387834 0.1622295,0.439834 l 0.537335,1.037834 0.2453754,-1.148335 C 6.4594986,10.724326 6.5561862,10.549638 6.6721031,10.4302 l 0.022479,-0.02329 0.027625,0.01788 c 0.2662298,0.166021 0.5839178,0.252959 0.9173142,0.252959 0.3864798,-0.0041 0.7651054,-0.112125 1.0985017,-0.313355 0.2177504,-0.132166 0.402459,-0.293854 0.5511467,-0.4807295 l 0.018958,-0.014354 0.034667,-0.00163 C 9.4289199,9.8657825 9.5502535,9.8194699 9.6742953,9.7430948 9.7780247,9.679178 9.9388999,9.5594695 10.097608,9.3585108 10.268234,9.1369688 10.400942,8.8869892 10.489776,8.6196763 10.605151,8.2849258 10.676651,7.8933002 10.700484,7.455362 10.72838,7.052903 10.681255,6.7214025 10.56588,6.4689854 10.427755,6.1670058 10.160442,5.9489846 9.8438373,5.8796512 l -0.026,-0.00704 -0.00515,-0.028438 C 9.798608,5.7534426 9.7753163,5.6646091 9.7436288,5.5787548 l -0.00704,-0.021396 0.010292,-0.017875 C 9.9508166,5.2388585 10.0039,4.8564412 9.8904207,4.5086907 9.8023997,4.2240444 9.7333371,4.0423149 9.6742953,3.9337106 9.5551285,3.7132519 9.3926282,3.6666685 9.2753572,3.6666685 Z"
     fill-rule="evenodd"
     id="path2"
     style="fill:url(#linearGradient4)" />
</svg>
