<?xml version="1.0" encoding="UTF-8" standalone="no"?>
<svg
   width="16"
   height="16"
   viewBox="0 0 4.233333 4.233333"
   version="1.1"
   id="svg8"
   inkscape:version="1.4.3 (unknown)"
   sodipodi:docname="jupyterlab.svg"
   inkscape:export-filename="/home/nihil/Immagini/Icone/Linux/jupyter.png"
   inkscape:export-xdpi="96"
   inkscape:export-ydpi="96"
   xmlns:inkscape="http://www.inkscape.org/namespaces/inkscape"
   xmlns:sodipodi="http://sodipodi.sourceforge.net/DTD/sodipodi-0.dtd"
   xmlns:xlink="http://www.w3.org/1999/xlink"
   xmlns="http://www.w3.org/2000/svg"
   xmlns:svg="http://www.w3.org/2000/svg"
   xmlns:rdf="http://www.w3.org/1999/02/22-rdf-syntax-ns#"
   xmlns:cc="http://creativecommons.org/ns#"
   xmlns:dc="http://purl.org/dc/elements/1.1/">
  <defs
     id="defs2">
    <linearGradient
       id="linearGradient1"
       inkscape:collect="always">
      <stop
         style="stop-color:#00d4aa;stop-opacity:1;"
         offset="0"
         id="stop1" />
      <stop
         style="stop-color:#00ccff;stop-opacity:1"
         offset="1"
         id="stop2" />
    </linearGradient>
    <clipPath
       clipPathUnits="userSpaceOnUse"
       id="clipPath945">
      <g
         id="use947"
         inkscape:label="Clip">
        <path
           d="M 37,24 A 13,9 0 0 1 24,33 13,9 0 0 1 11,24 13,9 0 0 1 24,15 13,9 0 0 1 37,24"
           style="fill:#ffffff;fill-opacity:1;stroke-width:0.805993"
           id="path985" />
      </g>
    </clipPath>
    <linearGradient
       id="_lgradient_21"
       x1="0.13409057"
       y1="0.17616323"
       x2="0.83489352"
       y2="0.87127662"
       gradientTransform="matrix(12.7,0,0,12.7,4.9455961,4.4928303)"
       gradientUnits="userSpaceOnUse">
      <stop
         offset="0%"
         stop-opacity="1"
         style="stop-color:rgb(255,224,49)"
         id="stop14" />
      <stop
         offset="0.82803166"
         stop-opacity="1"
         style="stop-color:rgb(252,82,82)"
         id="stop16" />
    </linearGradient>
    <linearGradient
       inkscape:collect="always"
       xlink:href="#linearGradient1"
       id="linearGradient2"
       x1="0.39687836"
       y1="2.1166668"
       x2="3.8364551"
       y2="2.1166668"
       gradientUnits="userSpaceOnUse" />
    <linearGradient
       inkscape:collect="always"
       xlink:href="#linearGradient1"
       id="linearGradient4"
       x1="1.267809"
       y1="2.1166668"
       x2="2.9655242"
       y2="2.1166668"
       gradientUnits="userSpaceOnUse" />
    <filter
       id="filter3393"
       x="-0.51843675"
       y="-0.33101304"
       width="2.0368735"
       height="1.6620261"
       color-interpolation-filters="sRGB">
      <feGaussianBlur
         stdDeviation="0.19991353"
         id="feGaussianBlur6" />
    </filter>
    <filter
       id="filter1"
       x="-0.58427984"
       y="-0.33101305"
       width="2.1685596"
       height="1.662026"
       color-interpolation-filters="sRGB">
      <feGaussianBlur
         stdDeviation="0.19991353"
         id="feGaussianBlur1" />
    </filter>
    <filter
       id="filter2"
       x="-0.58427984"
       y="-0.33101305"
       width="2.1685596"
       height="1.662026"
       color-interpolation-filters="sRGB">
      <feGaussianBlur
         stdDeviation="0.19991353"
         id="feGaussianBlur2" />
    </filter>
    <filter
       id="filter3"
       x="-0.58427984"
       y="-0.33101305"
       width="2.1685596"
       height="1.662026"
       color-interpolation-filters="sRGB">
      <feGaussianBlur
         stdDeviation="0.19991353"
         id="feGaussianBlur3" />
    </filter>
  </defs>
  <sodipodi:namedview
     id="base"
     pagecolor="#ffffff"
     bordercolor="#666666"
     borderopacity="1.0"
     inkscape:pageopacity="0.0"
     inkscape:pageshadow="2"
     inkscape:zoom="15.193652"
     inkscape:cx="10.464897"
     inkscape:cy="24.023191"
     inkscape:document-units="mm"
     inkscape:current-layer="layer1"
     inkscape:document-rotation="0"
     showgrid="false"
     inkscape:snap-intersection-paths="false"
     inkscape:snap-global="true"
     inkscape:snap-grids="true"
     inkscape:snap-to-guides="true"
     inkscape:snap-bbox="false"
     inkscape:window-width="1920"
     inkscape:window-height="994"
     inkscape:window-x="0"
     inkscape:window-y="0"
     inkscape:window-maximized="1"
     units="px"
     inkscape:showpageshadow="2"
     inkscape:pagecheckerboard="0"
     inkscape:deskcolor="#d1d1d1" />
  <metadata
     id="metadata5">
    <rdf:RDF>
      <cc:Work
         rdf:about="">
        <dc:format>image/svg+xml</dc:format>
        <dc:type
           rdf:resource="http://purl.org/dc/dcmitype/StillImage" />
      </cc:Work>
    </rdf:RDF>
  </metadata>
  <g
     inkscape:label="Livello 1"
     id="layer1"
     inkscape:groupmode="layer">
    <path
       d="M 2.116624,1.190625 A 0.92603844,0.92603844 0 0 0 1.267809,1.7464938 1.0032087,0.69452887 0 0 1 2.1110428,1.42216 a 1.0032087,0.69452887 0 0 1 0.00556,0 1.0032087,0.69452887 0 0 1 0.848853,0.3243741 A 0.92603844,0.92603844 0 0 0 2.1165977,1.190625 Z M 2.9655243,2.4867602 A 1.0032087,0.69452887 0 0 1 2.116624,2.8112136 1.0032087,0.69452887 0 0 1 1.267809,2.4869197 0.92603844,0.92603844 0 0 0 2.116624,3.0427083 0.92603844,0.92603844 0 0 0 2.9655243,2.4867602 Z"
       clip-path="none"
       id="path849"
       style="fill:url(#linearGradient4);fill-opacity:1" />
    <path
       d="m 2.825072,3.3476073 v 0 c 0.071584,-0.040918 0.1633104,-0.016124 0.2046547,0.055246 v 0 c 0.041351,0.071373 0.01677,0.1629518 -0.054894,0.2042267 v 0 C 2.6962994,3.7674502 2.3786416,3.8464177 2.0580399,3.8354537 1.7673273,3.8255657 1.4836304,3.7417963 1.2336145,3.5926052 v 0 c -0.070794,-0.042422 -0.0938,-0.1344311 -0.051379,-0.2052304 v 0 c 0.042487,-0.070796 0.1344318,-0.0938 0.2052983,-0.051379 v 0 c 0.2060202,0.1237533 0.4400522,0.19233 0.680683,0.2005717 0.2653484,0.00903 0.527117,-0.056109 0.7568552,-0.1889602 z M 3.3884469,1.4829185 v 0 c -0.037117,-0.073948 -0.00718,-0.1639501 0.066719,-0.2008546 v 0 c 0.073946,-0.036896 0.1637354,-0.00687 0.2004973,0.067068 v 0 c 0.1281252,0.2557465 0.1895363,0.5399437 0.179789,0.8261458 -0.00744,0.2181962 -0.05589,0.4327435 -0.1435307,0.6318066 v 0 c -0.033098,0.075672 -0.1214579,0.1102112 -0.1971281,0.077035 v 0 C 3.4191194,2.8510123 3.3845829,2.762658 3.4177594,2.6869874 v 0 C 3.4907124,2.5226026 3.5304059,2.3451763 3.5364971,2.1651014 3.5446371,1.9289148 3.4935051,1.6945226 3.3884469,1.4829185 Z M 1.5011904,0.83649338 v 0 c -0.074305,0.035464 -0.16374,0.00396 -0.19964,-0.070369 v 0 c -0.035823,-0.074308 -0.00457,-0.1638126 0.069647,-0.1996392 v 0 c 0.2502304,-0.1201687 0.5260414,-0.1780699 0.8040753,-0.1686123 0.2675002,0.0091 0.5299844,0.080181 0.7649513,0.2086683 v 0 c 0.072593,0.039619 0.099317,0.1307036 0.059696,0.2032953 v 0 c -0.039621,0.072514 -0.1307036,0.099245 -0.2032919,0.059615 v 0 C 2.6027211,0.76332518 2.3862428,0.70435308 2.165106,0.69675288 c -0.2294488,-0.0078 -0.4570377,0.039845 -0.6639156,0.1397405 z M 0.76877506,2.5674655 v 0 c 0.026298,0.078101 -0.015983,0.1628767 -0.094304,0.1891052 v 0 c -0.078323,0.026224 -0.1632378,-0.016274 -0.1894622,-0.094734 v 0 c -0.064415,-0.1944798 -0.094089,-0.3989908 -0.08714,-0.6037896 0.00925,-0.2705075 0.081835,-0.5358595 0.2133984,-0.7730473 v 0 c 0.039622,-0.072164 0.1304888,-0.098242 0.2028638,-0.058186 v 0 c 0.072374,0.040062 0.098599,0.1311332 0.05855,0.2032953 v 0 c -0.1084192,0.196056 -0.1682526,0.4146833 -0.1759194,0.6381125 -0.00579,0.1696868 0.018408,0.3380826 0.072011,0.4992424 z M 2.6978836,0.68350738 Z M 1.0677293,3.1028925 c -0.00286,0.082478 -0.072012,0.1471868 -0.15449254,0.1443905 -0.08255,-0.00288 -0.1471865,-0.072087 -0.1443911,-0.154565 0.00286,-0.082478 0.072086,-0.1471866 0.1545661,-0.1443908 0.082477,0.00282 0.14718604,0.072088 0.14431754,0.1545653 z m 2.3940254,0.081618 C 3.4646147,3.1020319 3.3998397,3.0328127 3.3173642,3.029945 3.2348882,3.027135 3.1656628,3.091856 3.1627992,3.1743358 c -0.00286,0.082478 0.061913,0.1517734 0.14439,0.1545659 0.082479,0.0028 0.1517689,-0.061912 0.1545655,-0.1443912 z M 1.1754334,0.95408288 c 0.00286,-0.082481 -0.061839,-0.1517701 -0.1443184,-0.1545651 -0.08255,-0.00287 -0.15177364,0.061914 -0.15456814,0.1443905 -0.00293,0.082477 0.061842,0.15170082 0.14432174,0.15456482 0.08255,0.00286 0.1517684,-0.061914 0.1545648,-0.14439022 z"
       fill-rule="evenodd"
       id="path8-4-6"
       style="isolation:isolate;fill:url(#linearGradient2);fill-opacity:1;stroke-width:0.0716625"
       sodipodi:nodetypes="sssssscsssssscssssssscsssssscsssssssssssssscssssssscsssssscscccccccsscscccsscccs" />
    <g
       id="g1"
       transform="matrix(0.04636812,0,0,0.04636812,0.68553743,0.68338707)"
       style="fill:#e5e5e5;fill-opacity:1">
      <path
         d="M 6.3302,7.7848 V 9.2082 H 6.03301 L 5.980872,9.02572 H 5.960017 q -0.06778,0.10949 -0.1877,0.15902 -0.11731,0.049531 -0.25026,0.049531 -0.22941,0 -0.36757,-0.12252 -0.13817,-0.12513 -0.13817,-0.39886 v -0.92806 h 0.38843 v 0.8316 q 0,0.1512 0.054745,0.22941 0.054745,0.078207 0.17466,0.078207 0.17727,0 0.24244,-0.11992 0.065173,-0.12252 0.065173,-0.34933 v -0.66998 z"
         id="path15"
         style="opacity:0.33882;fill:#e5e5e5;stroke-width:0.26458;filter:url(#filter3393);fill-opacity:1"
         transform="matrix(5.0047233,0,0,5.0367969,-12.010405,-11.850055)" />
      <path
         d="m 10.418,8.9241 q 0.06517,0 0.12513,-0.013034 0.05996,-0.013035 0.11992,-0.031283 v 0.28937 q -0.06257,0.026069 -0.15642,0.044318 -0.09124,0.020855 -0.20073,0.020855 -0.12774,0 -0.22941,-0.041711 Q 9.977427,9.150905 9.91747,9.049235 9.860118,8.944955 9.860118,8.762475 v -0.68562 h -0.18509 v -0.16424 l 0.21377,-0.13035 0.1121,-0.29979 h 0.24766 v 0.3024 h 0.39886 v 0.29197 h -0.39886 v 0.68562 q 0,0.080814 0.04692,0.12252 0.04692,0.039104 0.12252,0.039104 z"
         id="path18"
         style="opacity:0.33882;fill:#e5e5e5;stroke-width:0.26458;filter:url(#filter3393);fill-opacity:1"
         transform="matrix(5.0047233,0,0,5.0367969,-12.010405,-11.850055)" />
      <path
         d="m 11.536,7.7588 q 0.29458,0 0.46664,0.16945 0.17206,0.16684 0.17206,0.47706 v 0.1877 h -0.91763 q 0.0052,0.16424 0.09646,0.25808 0.09385,0.093849 0.25808,0.093849 0.13817,0 0.25026,-0.026069 0.1121,-0.028676 0.23202,-0.086028 v 0.29979 q -0.10428,0.052138 -0.22159,0.0756 -0.1147,0.026069 -0.27894,0.026069 -0.21377,0 -0.378,-0.078207 -0.16424,-0.080814 -0.25808,-0.24244 -0.09385,-0.16163 -0.09385,-0.40668 0,-0.25026 0.08342,-0.4145 0.08603,-0.16684 0.23723,-0.25026 0.1512,-0.083421 0.35193,-0.083421 z m 0.0026,0.27633 q -0.1121,0 -0.1877,0.072994 -0.07299,0.072993 -0.08603,0.2268 h 0.54484 Q 11.80711,8.204574 11.74193,8.121154 11.67676,8.035126 11.53859,8.035126 Z"
         id="path19"
         style="opacity:0.33882;fill:#e5e5e5;stroke-width:0.26458;filter:url(#filter3393);fill-opacity:1"
         transform="matrix(5.0047233,0,0,5.0367969,-12.010405,-11.850055)" />
      <path
         d="m 13.285,7.7588 q 0.02868,0 0.06778,0.00261 0.0391,0.00261 0.06257,0.00782 L 13.38667,8.1342 Q 13.36842,8.12899 13.33192,8.12638 13.29803,8.12117 13.27196,8.12117 q -0.09906,0 -0.1903,0.036497 -0.09124,0.03389 -0.14859,0.1121 -0.05475,0.078207 -0.05475,0.21377 v 0.72472 h -0.38843 v -1.4234 h 0.29458 l 0.05735,0.23984 h 0.01825 q 0.06257,-0.10949 0.17206,-0.1877 Q 13.14162,7.75879 13.285,7.75879 Z"
         id="path20"
         style="opacity:0.33882;fill:#e5e5e5;stroke-width:0.26458;filter:url(#filter3393);fill-opacity:1"
         transform="matrix(5.0047233,0,0,5.0367969,-12.010405,-11.850055)" />
      <path
         d="m 7.3739001,36.663363 q -0.378376,0 -0.6653773,-0.05252 -0.2870547,-0.03955 -0.4958093,-0.09199 v -1.65444 q 0.2087546,0.05251 0.4435933,0.092 0.2218093,0.03953 0.4827706,0.03953 0.339212,0 0.6131707,-0.131254 0.2870507,-0.131213 0.4435987,-0.498956 0.1564426,-0.367653 0.1564426,-1.05043 V 24.531126 H 10.32234 v 8.771064 q 0,1.20804 -0.3783573,1.943297 -0.3653173,0.748416 -1.030712,1.076724 Q 8.2478734,36.6636 7.3737241,36.6636 Z"
         id="path21"
         style="fill:#e5e5e5;stroke-width:1.3284;fill-opacity:1" />
      <path
         d="M 19.050898,26.736839 V 33.90621 H 17.563555 L 17.30262,32.987095 h -0.10436 q -0.339245,0.551479 -0.939385,0.800947 -0.587107,0.2495 -1.252494,0.2495 -1.14814,0 -1.839585,-0.617119 -0.691493,-0.630239 -0.691493,-2.008977 v -4.674457 h 1.943985 v 4.188622 q 0,0.761559 0.273963,1.155459 0.273992,0.39393 0.87415,0.39393 0.887182,0 1.213352,-0.604006 0.326195,-0.61711 0.326195,-1.759503 v -3.374566 z"
         id="path22"
         style="fill:#e5e5e5;stroke-width:1.3284;fill-opacity:1" />
      <path
         d="m 25.052054,26.605381 q 1.200347,0 1.944002,0.945422 0.743652,0.932247 0.743652,2.757384 0,1.825125 -0.769791,2.783635 -0.769769,0.94539 -1.970053,0.94539 -0.769775,0 -1.226396,-0.275736 -0.456639,-0.288858 -0.743666,-0.64338 h -0.104346 q 0.104346,0.55146 0.104346,1.0504 v 2.888732 H 21.085814 V 26.736829 h 1.578703 l 0.273968,0.932241 h 0.09143 q 0.287045,-0.433301 0.769785,-0.748407 0.482741,-0.315128 1.252464,-0.315128 z m -0.62623,1.562523 q -0.756722,0 -1.069855,0.472682 -0.300072,0.472702 -0.326167,1.444369 v 0.21008 q 0,1.037319 0.300074,1.601908 0.313145,0.551483 1.122013,0.551483 0.665376,0 0.978499,-0.551483 0.326184,-0.564627 0.326184,-1.615059 0,-2.11398 -1.330748,-2.11398 z"
         id="path23"
         style="fill:#e5e5e5;stroke-width:1.3284;fill-opacity:1" />
      <path
         d="m 28.065885,26.736839 h 2.126696 l 1.343855,4.031055 q 0.10416,0.288857 0.156427,0.603992 0.05211,0.302025 0.07825,0.643416 h 0.03907 q 0.03895,-0.341386 0.104187,-0.643416 0.07816,-0.315127 0.169625,-0.603992 l 1.317727,-4.031055 h 2.087621 l -3.013822,8.088592 q -0.404419,1.116101 -1.187301,1.667591 -0.769694,0.564624 -1.787366,0.564624 -0.326228,0 -0.574082,-0.03951 -0.234822,-0.02628 -0.41747,-0.06567 v -1.549425 q 0.143572,0.02631 0.339195,0.05251 0.208799,0.02631 0.430561,0.02631 0.613179,0 0.96549,-0.380782 0.365301,-0.367642 0.53484,-0.892866 l 0.116933,-0.354526 z"
         id="path24"
         style="fill:#e5e5e5;stroke-width:1.3284;fill-opacity:1" />
      <path
         d="m 39.508237,32.474774 q 0.326161,0 0.62622,-0.06573 0.300088,-0.06565 0.60013,-0.157466 v 1.457485 q -0.31314,0.131253 -0.782714,0.223241 -0.456727,0.105027 -1.004683,0.105027 -0.63928,0 -1.148092,-0.210096 -0.495665,-0.21008 -0.795809,-0.722159 -0.287154,-0.525232 -0.287154,-1.444358 V 28.20737 h -0.926196 v -0.827283 l 1.069858,-0.656541 0.560998,-1.509977 h 1.239388 v 1.523144 h 1.996172 v 1.470559 h -1.996172 v 3.453331 q 0,0.407063 0.23487,0.617112 0.234788,0.197009 0.613184,0.197009 z"
         id="path25"
         style="fill:#e5e5e5;stroke-width:1.3284;fill-opacity:1" />
      <path
         d="m 45.103379,26.605381 q 1.474365,0 2.335541,0.853497 0.861191,0.840321 0.861191,2.402844 v 0.945394 h -4.592605 q 0.02619,0.827256 0.482672,1.299916 0.469912,0.472687 1.291673,0.472687 0.691635,0 1.252543,-0.131227 0.561034,-0.144566 1.161186,-0.433317 v 1.509964 q -0.52188,0.262611 -1.108894,0.380784 -0.574182,0.131227 -1.396136,0.131227 -1.06982,0 -1.891816,-0.393947 -0.822053,-0.407021 -1.291592,-1.221115 -0.469636,-0.814098 -0.469636,-2.048353 0,-1.260508 0.41746,-2.087736 0.430551,-0.840369 1.187247,-1.260537 0.756734,-0.420147 1.761213,-0.420147 z m 0.01676,1.391813 q -0.561012,0 -0.9394,0.367664 -0.365305,0.36765 -0.430574,1.142348 h 2.726803 q -0.01672,-0.656544 -0.339169,-1.076738 -0.326251,-0.433302 -1.017744,-0.433302 z"
         id="path26"
         style="fill:#e5e5e5;stroke-width:1.3284;fill-opacity:1" />
      <path
         d="m 53.861738,26.605381 q 0.143705,0 0.339248,0.0138 0.195713,0.0138 0.313012,0.03947 l -0.143688,1.838268 q -0.09204,-0.02629 -0.274074,-0.03947 -0.169654,-0.02629 -0.300073,-0.02629 -0.49584,0 -0.952395,0.183843 -0.456714,0.170708 -0.74373,0.564618 -0.273947,0.39386 -0.273947,1.07666 v 3.650096 h -1.943977 v -7.169439 h 1.474376 l 0.287053,1.208035 h 0.09197 q 0.313214,-0.551481 0.861114,-0.945418 0.548008,-0.393908 1.26557,-0.393908 z"
         id="path27"
         style="fill:#e5e5e5;stroke-width:1.3284;fill-opacity:1" />
    </g>
  </g>
</svg>
