<?xml version="1.0" encoding="UTF-8" standalone="no"?>
<!-- Generator: Gravit.io -->

<svg
   style="isolation:isolate"
   viewBox="0 0 16 16"
   width="16"
   height="16"
   version="1.1"
   id="svg3"
   sodipodi:docname="E51E_KakaoTalk.0.svg"
   inkscape:version="1.4.4 (unknown)"
   xmlns:inkscape="http://www.inkscape.org/namespaces/inkscape"
   xmlns:sodipodi="http://sodipodi.sourceforge.net/DTD/sodipodi-0.dtd"
   xmlns:xlink="http://www.w3.org/1999/xlink"
   xmlns="http://www.w3.org/2000/svg"
   xmlns:svg="http://www.w3.org/2000/svg">
  <defs
     id="defs3">
    <linearGradient
       id="linearGradient1"
       inkscape:collect="always">
      <stop
         style="stop-color:#ff9955;stop-opacity:1"
         offset="0"
         id="stop4" />
      <stop
         style="stop-color:#e580ff;stop-opacity:1"
         offset="1"
         id="stop5" />
    </linearGradient>
    <linearGradient
       inkscape:collect="always"
       xlink:href="#linearGradient1"
       id="linearGradient5"
       x1="1.6018449"
       y1="8.0000001"
       x2="14.398155"
       y2="8.0000001"
       gradientUnits="userSpaceOnUse" />
  </defs>
  <sodipodi:namedview
     id="namedview3"
     pagecolor="#ffffff"
     bordercolor="#000000"
     borderopacity="0.25"
     inkscape:showpageshadow="2"
     inkscape:pageopacity="0.0"
     inkscape:pagecheckerboard="0"
     inkscape:deskcolor="#d1d1d1"
     inkscape:document-units="px"
     inkscape:zoom="22.052893"
     inkscape:cx="7.7540848"
     inkscape:cy="11.313709"
     inkscape:window-width="1920"
     inkscape:window-height="994"
     inkscape:window-x="0"
     inkscape:window-y="0"
     inkscape:window-maximized="1"
     inkscape:current-layer="svg3" />
  <linearGradient
     id="_lgradient_15"
     x1="-0.089014739"
     y1="1.0851064"
     x2="0.91188473"
     y2="0.21627283"
     gradientTransform="matrix(-46.264,0,0,47,47.132,0.5)"
     gradientUnits="userSpaceOnUse">
    <stop
       offset="0%"
       stop-opacity="1"
       style="stop-color:rgb(84,51,255)"
       id="stop1" />
    <stop
       offset="51.73913043478261%"
       stop-opacity="1"
       style="stop-color:rgb(32,189,255)"
       id="stop2" />
    <stop
       offset="98.26086956521739%"
       stop-opacity="1"
       style="stop-color:rgb(165,254,203)"
       id="stop3" />
  </linearGradient>
  <path
     id="path3"
     d="m 8.0232036,1.4999994 c -1.6814273,0 -3.2946336,0.670149 -4.4848265,1.8572992 -1.1871502,1.1901926 -1.8572992,2.8033992 -1.8572992,4.4848265 0,1.1185544 0.2959589,2.2182799 0.8585553,3.1874729 l 0.055103,0.094 -0.9391841,2.714234 c -0.1761917,0.508936 0.095409,0.782486 0.6057292,0.610996 l 2.8211985,-0.947288 0.1507233,0.07658 c 0.879852,0.441447 1.8481574,0.672177 2.831733,0.672177 0.2517024,0 0.5009046,-0.01457 0.7495644,-0.04416 0.323894,-0.03928 0.5554436,-0.334764 0.5169967,-0.659211 -0.038447,-0.324724 -0.3327577,-0.556274 -0.6563751,-0.516997 -0.2044044,0.02379 -0.4057816,0.03566 -0.610186,0.03566 -0.7968732,0 -1.5846351,-0.186485 -2.2985294,-0.544954 L 5.0196785,12.254021 4.5987071,12.326952 3.3268784,12.63245 3.6651953,11.611422 3.9285558,10.938029 3.6651953,10.375653 C 3.2165566,9.6047798 2.9820788,8.7330409 2.9820788,7.8421251 c 0,-1.3367887 0.5302043,-2.6180454 1.4764395,-3.5642804 0.9465116,-0.9465114 2.2281733,-1.4768445 3.5646853,-1.4768445 1.2554694,0 2.4651324,0.4681356 3.3953244,1.3139663 0.263872,0.242298 0.675006,0.2241854 0.917305,-0.040517 C 12.578131,3.8094704 12.558822,3.3978221 12.29329,3.155524 11.125778,2.0920122 9.60395,1.4999994 8.0232036,1.4999994 Z m 5.4005104,3.7709171 c -0.05823,0.0028 -0.11701,0.014245 -0.174628,0.03525 -0.307575,0.1120214 -0.465349,0.4521189 -0.352498,0.7596937 0.210213,0.5775325 0.316843,1.187767 0.316843,1.8009804 0.003,1.706321 -0.832268,3.3090094 -2.230461,4.2834574 -0.269957,0.188085 -0.336763,0.558525 -0.149508,0.826547 0.187256,0.268021 0.5565,0.333136 0.824521,0.14505 1.718215,-1.196831 2.743207,-3.1606692 2.740165,-5.2550544 0,-0.7523412 -0.12996,-1.5019173 -0.387748,-2.2069606 -0.08464,-0.2304736 -0.297897,-0.3772438 -0.528747,-0.3889632 -0.01924,-9.681e-4 -0.03853,-9.404e-4 -0.05794,0 z M 4.3584411,6.7554592 c -0.1149254,0 -0.207447,0.092522 -0.207447,0.207447 0,0.1149257 0.092522,0.207447 0.207447,0.207447 h 0.4148941 v 1.8670233 c 0,0.1149257 0.092522,0.207447 0.207447,0.207447 0.1149256,0 0.207447,-0.092521 0.207447,-0.207447 V 7.1703532 h 0.4148941 c 0.1149256,0 0.207447,-0.092521 0.207447,-0.207447 0,-0.1149251 -0.092521,-0.207447 -0.207447,-0.207447 z m 2.3783478,0 c -0.00136,5.53e-5 -0.00271,3.319e-4 -0.00405,4.149e-4 -2.213e-4,1.58e-5 -5.532e-4,-1.66e-5 -8.021e-4,0 -0.00147,1.106e-4 -0.00299,2.766e-4 -0.00446,4.149e-4 -0.00463,3.596e-4 -0.00922,9.681e-4 -0.013775,0.00163 -8.574e-4,1.383e-4 -0.0016,2.6e-4 -0.00243,4.149e-4 -0.00581,9.404e-4 -0.011341,0.00219 -0.017016,0.00365 -0.00124,3.319e-4 -0.00241,4.702e-4 -0.00365,8.022e-4 -0.00334,8.851e-4 -0.00645,0.00219 -0.00973,0.00324 -0.00144,4.978e-4 -0.00299,6.914e-4 -0.00446,0.00122 -0.006,0.00207 -0.011733,0.00431 -0.017423,0.00689 -0.00598,0.00268 -0.011808,0.00572 -0.017423,0.00891 -0.054043,0.03069 -0.09109,0.083819 -0.1016977,0.1438355 L 5.8178711,9.0025652 C 5.7881259,9.1135746 5.8535329,9.226863 5.9645427,9.2566068 6.0755521,9.2863517 6.1888403,9.2209455 6.2185843,9.1099354 L 6.3599808,8.6224824 H 7.129804 L 7.2712081,9.1099019 C 7.3009527,9.2209135 7.4142404,9.2863171 7.5252497,9.2565733 7.6362613,9.2268287 7.7016649,9.1135411 7.6719211,9.0025318 L 6.949098,6.9252255 c -0.010984,-0.059267 -0.047439,-0.111799 -0.1008873,-0.1422149 -0.00578,-0.00329 -0.01167,-0.00618 -0.017827,-0.00891 -0.00608,-0.00271 -0.012206,-0.00514 -0.018637,-0.00729 -0.00417,-0.00141 -0.00826,-0.00289 -0.01256,-0.00405 -0.00122,-3.043e-4 -0.00246,-5.255e-4 -0.00365,-8.021e-4 -0.00387,-9.681e-4 -0.00781,-0.00169 -0.01175,-0.00243 -0.00271,-5.532e-4 -0.00537,-0.00122 -0.0081,-0.00163 -0.00462,-6.915e-4 -0.00917,-0.00127 -0.013775,-0.00163 -0.00152,-1.383e-4 -0.00296,-3.043e-4 -0.00446,-4.149e-4 -2.766e-4,-1.63e-5 -5.532e-4,1.55e-5 -8.021e-4,0 -0.00388,-2.379e-4 -0.00785,-3.872e-4 -0.01175,-4.149e-4 -0.00268,-8e-7 -0.00545,-1.029e-4 -0.0081,0 z m 1.5631457,0 c -0.1149256,0 -0.207447,0.092522 -0.207447,0.207447 v 2.0744703 c 0,0.1149257 0.092521,0.207447 0.207447,0.207447 h 1.2446822 c 0.1149251,0 0.207447,-0.092521 0.207447,-0.207447 0,-0.1149251 -0.092522,-0.207447 -0.207447,-0.207447 H 8.5073817 V 6.9629062 c 0,-0.1149251 -0.092522,-0.207447 -0.2074471,-0.207447 z m 2.0744704,0 c -0.114925,0 -0.207447,0.092522 -0.207447,0.207447 v 2.0744703 c 0,0.1149257 0.09252,0.207447 0.207447,0.207447 0.114925,0 0.207447,-0.092521 0.207447,-0.207447 V 8.3502082 l 0.670961,0.7998057 c 0.07387,0.088036 0.20409,0.099398 0.292128,0.025527 0.08804,-0.073873 0.0994,-0.2044941 0.02552,-0.2925326 l -0.781167,-0.8934 0.781167,-0.8929947 c 0.07567,-0.086498 0.06251,-0.21866 -0.02552,-0.2925327 -0.08804,-0.073874 -0.218255,-0.062512 -0.292128,0.025527 L 10.581852,7.6294136 V 6.9629062 c 0,-0.1149251 -0.09252,-0.207447 -0.207447,-0.207447 z m -3.6295126,0.7467282 0.264576,0.705401 h -0.529152 z"
     style="fill:url(#linearGradient5)" />
</svg>
