<?xml version="1.0" encoding="UTF-8" standalone="no"?>
<!-- Generator: Gravit.io -->

<svg
   style="isolation:isolate"
   viewBox="0 0 16 16"
   width="16"
   height="16"
   version="1.1"
   id="svg3"
   sodipodi:docname="keeweb.svg"
   inkscape:version="1.4.4 (unknown)"
   xmlns:inkscape="http://www.inkscape.org/namespaces/inkscape"
   xmlns:sodipodi="http://sodipodi.sourceforge.net/DTD/sodipodi-0.dtd"
   xmlns:xlink="http://www.w3.org/1999/xlink"
   xmlns="http://www.w3.org/2000/svg"
   xmlns:svg="http://www.w3.org/2000/svg">
  <defs
     id="defs3">
    <linearGradient
       id="linearGradient3"
       inkscape:collect="always">
      <stop
         style="stop-color:#8d5fd3;stop-opacity:1"
         offset="0"
         id="stop4" />
      <stop
         style="stop-color:#ffd42a;stop-opacity:1"
         offset="1"
         id="stop5" />
    </linearGradient>
    <linearGradient
       inkscape:collect="always"
       xlink:href="#linearGradient3"
       id="linearGradient5"
       x1="3.4130344"
       y1="13.499927"
       x2="12.70653"
       y2="2.500073"
       gradientUnits="userSpaceOnUse" />
  </defs>
  <sodipodi:namedview
     id="namedview3"
     pagecolor="#ffffff"
     bordercolor="#000000"
     borderopacity="0.25"
     inkscape:showpageshadow="2"
     inkscape:pageopacity="0.0"
     inkscape:pagecheckerboard="0"
     inkscape:deskcolor="#d1d1d1"
     inkscape:document-units="px"
     inkscape:zoom="16.727495"
     inkscape:cx="5.9781815"
     inkscape:cy="12.046036"
     inkscape:window-width="1920"
     inkscape:window-height="994"
     inkscape:window-x="0"
     inkscape:window-y="0"
     inkscape:window-maximized="1"
     inkscape:current-layer="svg3" />
  <linearGradient
     id="_lgradient_2"
     x1="0"
     y1="0.5"
     x2="1"
     y2="0.5"
     gradientTransform="matrix(13.000015,0,0,13.000015,1.499971,1.4999803)"
     gradientUnits="userSpaceOnUse">
    <stop
       offset="0%"
       stop-opacity="1"
       style="stop-color:rgb(84,51,255)"
       id="stop1" />
    <stop
       offset="51.73913043478261%"
       stop-opacity="1"
       style="stop-color:rgb(32,189,255)"
       id="stop2" />
    <stop
       offset="98.26086956521739%"
       stop-opacity="1"
       style="stop-color:rgb(165,254,203)"
       id="stop3" />
  </linearGradient>
  <path
     d="m 7.8474993,5.7062977 c 0.3472087,0.3472088 0.3472087,0.9100011 0,1.2572098 C 7.6365199,7.1742161 7.3339987,7.2649454 7.0417692,7.205362 7.1013522,7.4973207 7.0106232,7.8001127 6.7999147,8.0110921 6.452706,8.35803 5.8899137,8.35803 5.5427049,8.0110921 5.195767,7.6638834 5.195767,7.101091 5.5427049,6.7538823 5.7539552,6.5431737 6.0564763,6.4524444 6.348435,6.5120278 6.2888516,6.2197983 6.3798517,5.9172771 6.5902895,5.7062977 c 0.3472087,-0.3472087 0.9100011,-0.3472087 1.2572098,0 z m 0.3883755,2.0675441 c 0.010833,0.00813 0.020854,0.017875 0.030604,0.027625 L 9.7330432,9.2680312 10.152294,8.8490515 9.8903975,8.5871553 c -0.086938,-0.086667 -0.086938,-0.2275003 0,-0.3141671 L 9.9949393,8.1681756 c 0.086938,-0.086667 0.2277707,-0.086667 0.3144377,0 l 0.942772,0.9427721 c 0.08667,0.086667 0.08667,0.2275002 0,0.3144378 l -0.104812,0.1045418 c -0.08667,0.086938 -0.227501,0.086938 -0.314167,0 l -0.261897,-0.2618961 -0.418979,0.4192505 0.628334,0.6283343 c 0.231292,0.231292 0.278417,0.560084 0.104812,0.733417 v 0 c -0.173333,0.173334 -0.501854,0.12648 -0.733146,-0.104812 L 9.3666053,10.158532 v 0 L 9.2617926,10.05372 v 0 L 7.637874,8.4300718 C 7.628124,8.4200509 7.6186449,8.4100301 7.610249,8.3994676 6.7787897,9.0055934 5.7317468,9.0380934 5.1237252,8.4300718 4.4295786,7.7356543 4.5701413,6.469507 5.4381631,5.6014851 6.3059141,4.7337341 7.5723323,4.5929006 8.266479,5.2873181 v 0 C 8.8747713,5.8953396 8.8422713,6.9423825 8.2358748,7.7738418 Z M 10.67744,12.652368 v 0 c 0.270563,-0.154646 0.61723,-0.06094 0.773501,0.208813 v 0 c 0.156272,0.26975 0.06338,0.615876 -0.207458,0.771876 v 0 c -1.052731,0.606126 -2.2533365,0.904584 -3.4650463,0.863147 -1.0987721,-0.03738 -2.1710025,-0.35398 -3.1159412,-0.917855 v 0 C 4.3949119,13.418015 4.3079743,13.070265 4.4683078,12.802681 v 0 C 4.6289122,12.535097 4.9763917,12.44816 5.2442462,12.608493 v 0 c 0.7786468,0.46773 1.6631895,0.726918 2.5726489,0.758064 1.002897,0.03412 1.9922523,-0.212063 2.8605449,-0.714189 z m 2.129295,-7.0476329 v 0 C 12.666443,5.3252348 12.779381,4.9850677 13.058881,4.8455884 v 0 c 0.2795,-0.1394794 0.618855,-0.026 0.757793,0.2535003 v 0 c 0.48425,0.9666053 0.716355,2.0407315 0.679521,3.1224412 -0.02817,0.8246885 -0.21125,1.6355645 -0.542479,2.3879401 v 0 c -0.125126,0.286001 -0.459064,0.416542 -0.745064,0.291147 v 0 c -0.286,-0.125126 -0.416542,-0.459064 -0.291146,-0.745064 v 0 c 0.275709,-0.6212923 0.42575,-1.2918765 0.448771,-1.9724815 0.0306,-0.8926677 -0.1625,-1.7785646 -0.559542,-2.5783364 z M 5.6737884,3.1615447 v 0 C 5.3929339,3.2956074 5.0549335,3.1764406 4.9192458,2.8955861 v 0 C 4.783829,2.6147316 4.9016417,2.2764604 5.1824961,2.1410436 v 0 C 6.1282473,1.6868555 7.170686,1.4680219 8.2215206,1.503772 9.2325426,1.5381678 10.224606,1.8068348 11.11267,2.2924396 v 0 c 0.274354,0.149771 0.375375,0.4940005 0.225604,0.768355 v 0 c -0.149771,0.2740836 -0.494,0.3751046 -0.768355,0.2253336 v 0 C 9.8370433,2.8850236 9.0188548,2.6621275 8.1830622,2.6334191 7.3158528,2.6038982 6.4556852,2.7840026 5.6737884,3.1615447 Z M 2.9055976,9.7038025 v 0 c 0.099396,0.2952087 -0.060396,0.6156045 -0.3564171,0.7147305 v 0 c -0.2960211,0.09913 -0.616959,-0.06148 -0.7160841,-0.358042 v 0 C 1.5896169,9.3254479 1.4774918,8.5524886 1.5037626,7.778446 1.5387002,6.756049 1.8130547,5.7531519 2.3103053,4.8566925 v 0 c 0.149771,-0.2727294 0.493188,-0.3713129 0.76673,-0.2199169 v 0 c 0.273542,0.151396 0.3726671,0.4956256 0.2212711,0.7683551 v 0 C 2.8885351,6.1461316 2.662389,6.972445 2.6334098,7.8169044 2.6117431,8.4582385 2.7030141,9.0946977 2.9055976,9.7038025 Z M 12.865235,3.8930664 c -0.01083,0.3120004 -0.272459,0.5562923 -0.584188,0.5457298 -0.31173,-0.010563 -0.556292,-0.2724586 -0.54573,-0.5841882 0.01056,-0.3117295 0.272459,-0.5562923 0.584188,-0.5454589 0.31173,0.010563 0.556293,0.2721878 0.54573,0.5839173 z M 4.0355156,11.727471 c -0.010562,0.31173 -0.2721878,0.556293 -0.5839173,0.54573 -0.3120004,-0.01083 -0.5562924,-0.272458 -0.5457298,-0.584188 0.010563,-0.311729 0.2724586,-0.556292 0.5841882,-0.54573 0.3117295,0.01056 0.5562923,0.272459 0.5454589,0.584188 z m 9.0482824,0.30848 c 0.01056,-0.31173 -0.234,-0.573355 -0.54573,-0.584188 -0.311729,-0.01056 -0.573355,0.234 -0.584188,0.54573 -0.01056,0.311729 0.234,0.573625 0.54573,0.584188 0.311729,0.01056 0.573625,-0.234 0.584188,-0.54573 z M 4.4425786,3.6059827 C 4.4531411,3.2942532 4.2088492,3.0323571 3.8971196,3.0217945 3.5851193,3.011232 3.323494,3.2557948 3.3129314,3.5675244 3.3020981,3.8792539 3.5466609,4.1408792 3.8583904,4.1517125 4.1703908,4.1622751 4.4320161,3.9177123 4.4425786,3.6059827 Z"
     fill-rule="evenodd"
     id="path3"
     style="fill:url(#linearGradient5);fill-opacity:1" />
</svg>
