<?xml version="1.0" encoding="UTF-8" standalone="no"?>
<svg
   width="16"
   height="16"
   version="1"
   id="svg4"
   sodipodi:docname="kicad.svg"
   inkscape:version="1.4.4 (unknown)"
   xmlns:inkscape="http://www.inkscape.org/namespaces/inkscape"
   xmlns:sodipodi="http://sodipodi.sourceforge.net/DTD/sodipodi-0.dtd"
   xmlns:xlink="http://www.w3.org/1999/xlink"
   xmlns="http://www.w3.org/2000/svg"
   xmlns:svg="http://www.w3.org/2000/svg">
  <defs
     id="defs4">
    <linearGradient
       id="linearGradient1"
       inkscape:collect="always">
      <stop
         style="stop-color:#000000;stop-opacity:0;"
         offset="0"
         id="stop1" />
      <stop
         style="stop-color:#000000;stop-opacity:0;"
         offset="1"
         id="stop2" />
    </linearGradient>
    <linearGradient
       inkscape:collect="always"
       xlink:href="#linearGradient1"
       id="linearGradient2"
       x1="1.66488"
       y1="32"
       x2="62.33512"
       y2="32"
       gradientUnits="userSpaceOnUse" />
    <linearGradient
       inkscape:collect="always"
       xlink:href="#linearGradient1"
       id="linearGradient3"
       gradientUnits="userSpaceOnUse"
       x1="1.66488"
       y1="32"
       x2="62.33512"
       y2="32" />
    <linearGradient
       inkscape:collect="always"
       xlink:href="#linearGradient1"
       id="linearGradient4"
       gradientUnits="userSpaceOnUse"
       x1="1.66488"
       y1="32"
       x2="62.33512"
       y2="32" />
    <linearGradient
       inkscape:collect="always"
       xlink:href="#linearGradient1"
       id="linearGradient5"
       gradientUnits="userSpaceOnUse"
       x1="1.66488"
       y1="32"
       x2="62.33512"
       y2="32" />
    <linearGradient
       inkscape:collect="always"
       xlink:href="#linearGradient1"
       id="linearGradient6"
       gradientUnits="userSpaceOnUse"
       x1="1.66488"
       y1="32"
       x2="62.33512"
       y2="32" />
    <linearGradient
       inkscape:collect="always"
       xlink:href="#linearGradient1"
       id="linearGradient7"
       gradientUnits="userSpaceOnUse"
       x1="1.66488"
       y1="32"
       x2="62.33512"
       y2="32" />
  </defs>
  <sodipodi:namedview
     id="namedview4"
     pagecolor="#ffffff"
     bordercolor="#000000"
     borderopacity="0.25"
     inkscape:showpageshadow="2"
     inkscape:pageopacity="0.0"
     inkscape:pagecheckerboard="0"
     inkscape:deskcolor="#d1d1d1"
     inkscape:zoom="24.21875"
     inkscape:cx="10.446452"
     inkscape:cy="8.6090323"
     inkscape:window-width="1920"
     inkscape:window-height="994"
     inkscape:window-x="0"
     inkscape:window-y="0"
     inkscape:window-maximized="1"
     inkscape:current-layer="svg4" />
  <g
     id="g4"
     transform="matrix(0.21420477,0,0,0.21427309,1.1454474,1.1432611)"
     style="fill:url(#linearGradient2);stroke:#000000;stroke-width:2.42492;stroke-dasharray:none;stroke-opacity:1">
    <rect
       style="fill:url(#linearGradient3);fill-opacity:0.01;stroke:#8d5fd3;stroke-width:4.67024;stroke-dasharray:none;stroke-opacity:1"
       width="56"
       height="56"
       x="4"
       y="4"
       rx="8.3999996"
       ry="8.3999996"
       id="rect2" />
    <path
       style="opacity:0.1;fill:url(#linearGradient4);stroke:#000000;stroke-width:2.42492;stroke-dasharray:none;stroke-opacity:1"
       d="m 42,27 h 10 v 26 l 2,2 H 42 l 2,-2 V 29 Z m -32,-12 2,2 v 36 l -2,2 H 22 L 20,53 V 43 l 8,10 v 2 H 40 L 24,35 40,15 H 28 v 2 L 20,27 V 17 l 2,-2 z"
       id="path2" />
    <path
       style="fill:url(#linearGradient5);stroke:#8d5fd3;stroke-width:2.42492;stroke-dasharray:none;stroke-opacity:1"
       d="m 42,26 h 10 v 26 l 2,2 H 42 l 2,-2 V 28 Z m -32,-12 2,2 v 36 l -2,2 H 22 L 20,52 V 42 l 8,10 v 2 H 40 L 24,34 40,14 H 28 v 2 L 20,26 V 16 l 2,-2 z"
       id="path3" />
    <circle
       style="opacity:0.1;fill:url(#linearGradient6);stroke:#000000;stroke-width:2.42492;stroke-dasharray:none;stroke-opacity:1"
       cx="48"
       cy="17"
       r="6"
       id="circle3" />
    <circle
       fill="#ff7700"
       cx="48"
       cy="16"
       r="6"
       id="circle4"
       style="fill:url(#linearGradient7);stroke:#ff9955;stroke-width:2.42492;stroke-dasharray:none;stroke-opacity:1" />
  </g>
</svg>
