<?xml version="1.0" encoding="UTF-8" standalone="no"?>
<svg
   width="16"
   height="16"
   viewBox="0 0 16 16"
   fill="none"
   version="1.1"
   id="svg18"
   sodipodi:docname="kmix.svg"
   inkscape:version="1.4.4 (unknown)"
   xmlns:inkscape="http://www.inkscape.org/namespaces/inkscape"
   xmlns:sodipodi="http://sodipodi.sourceforge.net/DTD/sodipodi-0.dtd"
   xmlns:xlink="http://www.w3.org/1999/xlink"
   xmlns="http://www.w3.org/2000/svg"
   xmlns:svg="http://www.w3.org/2000/svg">
  <sodipodi:namedview
     id="namedview20"
     pagecolor="#ffffff"
     bordercolor="#000000"
     borderopacity="1"
     inkscape:showpageshadow="2"
     inkscape:pageopacity="0.0"
     inkscape:pagecheckerboard="0"
     inkscape:deskcolor="#d1d1d1"
     showgrid="false"
     inkscape:zoom="13.906434"
     inkscape:cx="3.9909584"
     inkscape:cy="13.698695"
     inkscape:current-layer="svg18"
     inkscape:window-width="1920"
     inkscape:window-height="994"
     inkscape:window-x="0"
     inkscape:window-y="0"
     inkscape:window-maximized="1" />
  <defs
     id="defs16">
    <linearGradient
       id="linearGradient3"
       inkscape:collect="always">
      <stop
         style="stop-color:#00ccff;stop-opacity:1"
         offset="0"
         id="stop3" />
      <stop
         style="stop-color:#8d5fd3;stop-opacity:1"
         offset="1"
         id="stop4" />
    </linearGradient>
    <linearGradient
       id="linearGradient9689"
       x1="7.4274006"
       y1="21.325018"
       x2="20.555401"
       y2="5.5247698"
       gradientUnits="userSpaceOnUse"
       gradientTransform="translate(0.30000015,-0.06250654)">
      <stop
         id="stop6"
         offset="0"
         style="stop-color:#b900ff;stop-opacity:1;" />
      <stop
         offset="1"
         id="stop8"
         style="stop-color:#6444ff;stop-opacity:1;" />
    </linearGradient>
    <linearGradient
       id="linearGradient1135"
       x1="17.296173"
       y1="2.7374878"
       x2="12.8548"
       y2="5.393187"
       gradientUnits="userSpaceOnUse"
       gradientTransform="translate(0.30000015)">
      <stop
         id="stop11"
         offset="0"
         style="stop-color:#000000;stop-opacity:0;" />
      <stop
         offset="1"
         id="stop13"
         style="stop-color:#000000;stop-opacity:0" />
    </linearGradient>
    <linearGradient
       id="paint0_linear"
       x1="28.999437"
       y1="113.15477"
       x2="92.128899"
       y2="28.7416"
       gradientUnits="userSpaceOnUse">
      <stop
         id="stop1661"
         offset="0"
         style="stop-color:#b900ff;stop-opacity:1;" />
      <stop
         offset="1"
         id="stop1663"
         style="stop-color:#6444ff;stop-opacity:1;" />
    </linearGradient>
    <linearGradient
       inkscape:collect="always"
       xlink:href="#linearGradient3"
       id="linearGradient4"
       x1="1.2"
       y1="9.2375024"
       x2="10.398056"
       y2="9.2375024"
       gradientUnits="userSpaceOnUse" />
    <linearGradient
       inkscape:collect="always"
       xlink:href="#linearGradient3"
       id="linearGradient9"
       x1="11.796496"
       y1="9.2375031"
       x2="16.299725"
       y2="9.2375031"
       gradientUnits="userSpaceOnUse" />
  </defs>
  <g
     id="g1"
     transform="translate(-0.8062189,-1.2375069)">
    <path
       fill-rule="evenodd"
       clip-rule="evenodd"
       d="M 14.993268,4.69348 C 14.783443,4.3376062 14.324917,4.2191851 13.969057,4.4289606 c -0.35586,0.2097826 -0.474316,0.6683231 -0.264491,1.0241829 0.705123,1.196232 1.099228,2.169706 1.099228,3.7843591 0,1.6108774 -0.411017,2.5960714 -1.102175,3.7892644 -0.207018,0.357404 -0.08505,0.815088 0.272421,1.022176 0.357333,0.207018 0.814947,0.08512 1.022105,-0.272421 0.773194,-1.335018 1.30358,-2.580633 1.30358,-4.5390194 0,-1.9546602 -0.508141,-3.1897063 -1.306457,-4.5440226 z m -1.78393,1.8215937 C 13.020004,6.1479507 12.568916,6.0038384 12.201758,6.1932139 11.8346,6.3825684 11.69046,6.8337054 11.879934,7.2008353 c 0.330035,0.6398949 0.518105,1.2997548 0.518105,2.0366673 0,0.7222459 -0.196421,1.4023164 -0.520421,2.0411234 -0.186948,0.368351 -0.03979,0.818527 0.328632,1.005404 0.368351,0.186877 0.818526,0.03979 1.005474,-0.328632 0.40814,-0.804561 0.682245,-1.71572 0.682245,-2.7178954 0,-1.0112986 -0.262877,-1.9048357 -0.684631,-2.7224289 z"
       id="path4"
       style="fill:url(#linearGradient9);fill-opacity:1" />
    <path
       fill-rule="evenodd"
       clip-rule="evenodd"
       d="M 9.7866325,2.8568581 C 9.6030802,2.7642265 9.3974415,2.7242447 9.1925453,2.7413704 8.9876358,2.7584861 8.7914946,2.8320385 8.6258504,2.9538673 c -0.011088,0.00816 -0.021965,0.01661 -0.032618,0.025333 L 5.0182382,5.906182 h -2.705397 c -0.2951389,0 -0.5781971,0.1172387 -0.7868965,0.3259419 C 1.3172456,6.4408313 1.2,6.7238869 1.2,7.0190266 v 4.4369604 c 0,0.295153 0.1172456,0.578209 0.325945,0.786899 0.2086994,0.208703 0.4917576,0.325955 0.7868965,0.325955 h 2.705397 l 3.5749922,2.926955 c 0.010653,0.0088 0.02153,0.01711 0.032618,0.02533 0.1656442,0.121776 0.3617854,0.195398 0.5666949,0.212511 0.2048962,0.01711 0.4105356,-0.02281 0.5940879,-0.115541 0.1835517,-0.09259 0.3378675,-0.234266 0.4457945,-0.409368 0.107926,-0.174969 0.165259,-0.37647 0.16563,-0.582083 V 14.625175 3.8497497 3.848276 C 10.397687,3.642664 10.340351,3.4411636 10.232428,3.266167 10.124501,3.0911445 9.9701982,2.9494574 9.7866325,2.8568125 Z M 5.9817124,7.1746554 8.8062189,4.8621248 V 13.612889 L 5.9779981,11.29732 5.9740781,11.29412 C 5.7181279,11.087303 5.3985795,10.975291 5.0695728,10.977028 H 2.7918392 V 7.4980507 h 2.2917973 c 0.328171,0.00154 0.6463001,-0.1129811 0.8980759,-0.3233693 z"
       id="path1"
       sodipodi:nodetypes="ccsccsssscscccsccsccccccccccccccc"
       style="fill:url(#linearGradient4);fill-opacity:1" />
  </g>
</svg>
