<?xml version="1.0" encoding="UTF-8" standalone="no"?>
<svg
   width="16"
   height="16"
   version="1.1"
   id="svg6492"
   sodipodi:docname="ktnef.svg"
   inkscape:version="1.4.4 (unknown)"
   xmlns:inkscape="http://www.inkscape.org/namespaces/inkscape"
   xmlns:sodipodi="http://sodipodi.sourceforge.net/DTD/sodipodi-0.dtd"
   xmlns:xlink="http://www.w3.org/1999/xlink"
   xmlns="http://www.w3.org/2000/svg"
   xmlns:svg="http://www.w3.org/2000/svg">
  <sodipodi:namedview
     id="namedview6494"
     pagecolor="#ffffff"
     bordercolor="#666666"
     borderopacity="1.0"
     inkscape:showpageshadow="2"
     inkscape:pageopacity="0.0"
     inkscape:pagecheckerboard="0"
     inkscape:deskcolor="#d1d1d1"
     showgrid="false"
     inkscape:zoom="19.666667"
     inkscape:cx="12.20339"
     inkscape:cy="9.8898303"
     inkscape:window-width="1920"
     inkscape:window-height="994"
     inkscape:window-x="0"
     inkscape:window-y="0"
     inkscape:window-maximized="1"
     inkscape:current-layer="svg6492" />
  <defs
     id="defs6462">
    <linearGradient
       id="linearGradient1"
       inkscape:collect="always">
      <stop
         style="stop-color:#ff94ff;stop-opacity:1;"
         offset="0"
         id="stop1" />
      <stop
         style="stop-color:#00ccff;stop-opacity:1"
         offset="1"
         id="stop2" />
    </linearGradient>
    <linearGradient
       id="a"
       x1="543.79999"
       x2="503.79999"
       gradientUnits="userSpaceOnUse"
       gradientTransform="matrix(0,1,-1.16667,0,-371.2088,-545.25371)">
      <stop
         stop-color="#197cf1"
         id="stop6427" />
      <stop
         offset="1"
         stop-color="#21c9fb"
         id="stop6429" />
    </linearGradient>
    <linearGradient
       id="b"
       y1="547.79999"
       x1="384.57001"
       y2="530.47998"
       x2="394.57001"
       gradientUnits="userSpaceOnUse"
       gradientTransform="translate(-303.1088,-545.25371)">
      <stop
         stop-color="#ffffff"
         stop-opacity="0"
         id="stop6432" />
      <stop
         offset="1"
         stop-color="#ffffff"
         stop-opacity=".314"
         id="stop6434" />
    </linearGradient>
    <linearGradient
       id="c"
       x1="384.57001"
       x2="414.57001"
       gradientUnits="userSpaceOnUse"
       gradientTransform="translate(-303.1088,-545.25371)">
      <stop
         stop-opacity=".275"
         id="stop6437" />
      <stop
         offset="1"
         stop-color="#ffffff"
         stop-opacity="0"
         id="stop6439" />
    </linearGradient>
    <linearGradient
       id="d"
       y1="547.79999"
       x1="432.57001"
       y2="527.79999"
       x2="421.01999"
       gradientUnits="userSpaceOnUse"
       gradientTransform="translate(-303.1088,-545.25371)">
      <stop
         stop-opacity=".082"
         id="stop6442" />
      <stop
         offset="1"
         stop-opacity="0"
         id="stop6444" />
    </linearGradient>
    <linearGradient
       id="e"
       y1="44"
       y2="20"
       x2="0"
       gradientUnits="userSpaceOnUse"
       gradientTransform="translate(81.461202,-45.453707)">
      <stop
         stop-color="#eef1f2"
         id="stop6447" />
      <stop
         offset="1"
         stop-color="#f9fafb"
         id="stop6449" />
    </linearGradient>
    <linearGradient
       id="f"
       y1="511.79999"
       x1="414.57001"
       y2="519.79999"
       x2="422.57001"
       gradientUnits="userSpaceOnUse"
       gradientTransform="translate(-336.03651,-549.25371)">
      <stop
         stop-color="#292c2f"
         id="stop6452" />
      <stop
         offset="1"
         stop-opacity="0"
         id="stop6454" />
    </linearGradient>
    <linearGradient
       id="g"
       y1="527.79999"
       y2="511.79999"
       x2="0"
       gradientUnits="userSpaceOnUse"
       gradientTransform="translate(-443.17516,-537.24971)">
      <stop
         stop-color="#7cbaf8"
         id="stop6457" />
      <stop
         offset="1"
         stop-color="#f4fcff"
         id="stop6459" />
    </linearGradient>
    <linearGradient
       inkscape:collect="always"
       xlink:href="#b-5"
       id="linearGradient1095"
       gradientUnits="userSpaceOnUse"
       gradientTransform="matrix(1.445657,0,0,1.445657,-504.70411,-730.10818)"
       x1="399.57001"
       y1="545.79999"
       x2="399.57001"
       y2="517.79999" />
    <linearGradient
       id="b-5"
       x1="399.57001"
       x2="399.57001"
       y1="545.79999"
       y2="517.79999"
       gradientTransform="matrix(2.1429,0,0,2.1429,-826.34,-1107.5)"
       gradientUnits="userSpaceOnUse">
      <stop
         id="stop7"
         stop-color="#3889e9"
         offset="0" />
      <stop
         id="stop9"
         stop-color="#5ea5fb"
         offset="1" />
    </linearGradient>
    <linearGradient
       gradientUnits="userSpaceOnUse"
       gradientTransform="matrix(0.29999835,0,0,0.29999835,-102.81483,2.0000887)"
       y2="209.87"
       y1="-9.0071001"
       x2="97.425003"
       x1="97.425003"
       id="b-3">
      <stop
         id="stop859"
         offset="0"
         stop-color="#5beaff" />
      <stop
         id="stop861"
         offset="1"
         stop-color="#4076ff" />
    </linearGradient>
    <linearGradient
       id="g-9"
       y1="527.79999"
       y2="511.79999"
       x2="0"
       gradientUnits="userSpaceOnUse"
       gradientTransform="translate(-384.82526,-502.97551)">
      <stop
         stop-color="#7cbaf8"
         id="stop6457-4" />
      <stop
         offset="1"
         stop-color="#f4fcff"
         id="stop6459-9" />
    </linearGradient>
    <linearGradient
       id="b-3-3"
       y1="44"
       y2="4"
       x2="0"
       gradientUnits="userSpaceOnUse">
      <stop
         stop-color="#7cbaf8"
         id="stop7-6" />
      <stop
         offset="1"
         stop-color="#f4fcff"
         id="stop9-7" />
    </linearGradient>
    <linearGradient
       id="c-5"
       y1="39"
       y2="9"
       x2="0"
       gradientUnits="userSpaceOnUse"
       gradientTransform="matrix(1.02857,0,0,1.2,-5.314,-4.8)">
      <stop
         stop-color="#197cf1"
         id="stop12-3" />
      <stop
         offset="1"
         stop-color="#20bcfa"
         id="stop14-5" />
    </linearGradient>
    <linearGradient
       id="a-6"
       y1="1016.36"
       x1="13"
       y2="1040.36"
       gradientUnits="userSpaceOnUse"
       x2="36">
      <stop
         stop-color="#292c2f"
         id="stop2-2" />
      <stop
         offset="1"
         stop-opacity="0"
         id="stop4-9" />
    </linearGradient>
    <linearGradient
       id="b-3-36"
       y1="44"
       y2="4"
       x2="0"
       gradientUnits="userSpaceOnUse"
       gradientTransform="matrix(1.05,0,0,1.05,2.8000076,2.8000057)">
      <stop
         stop-color="#7cbaf8"
         id="stop7-6-7" />
      <stop
         offset="1"
         stop-color="#f4fcff"
         id="stop9-7-5" />
    </linearGradient>
    <linearGradient
       inkscape:collect="always"
       xlink:href="#linearGradient1"
       id="linearGradient2"
       x1="3.9748929"
       y1="11.480467"
       x2="15.005786"
       y2="2.6157725"
       gradientUnits="userSpaceOnUse"
       gradientTransform="matrix(0.99999971,0,0,0.85999991,-0.12500677,0.87728803)" />
    <linearGradient
       inkscape:collect="always"
       xlink:href="#linearGradient1"
       id="linearGradient4"
       x1="7.1817846"
       y1="6.8266325"
       x2="7.9502759"
       y2="2.9328284"
       gradientUnits="userSpaceOnUse"
       gradientTransform="matrix(0.99999971,0,0,0.85999991,-0.12500677,0.87728803)" />
  </defs>
  <circle
     id="circle54-9"
     stroke-width="1.06018"
     fill="url(#b)"
     r="0"
     cy="38.627277"
     cx="74.366203"
     style="fill:url(#linearGradient1095)" />
  <circle
     id="circle866"
     stroke-width="0.674631"
     r="0"
     cy="-839.65723"
     cx="-876.8772"
     style="fill:#5e4aa6" />
  <circle
     id="circle868"
     r="0"
     cy="-866.14307"
     cx="-796.98431"
     style="fill:#5e4aa6;stroke-width:0.674631" />
  <circle
     id="circle870"
     fill-rule="evenodd"
     r="0"
     cy="-12.409245"
     cx="-55.206669"
     style="fill:#5e4aa6;stroke-width:0.674631" />
  <circle
     id="circle872"
     r="0"
     cy="-914.38568"
     cx="-744.0246"
     style="fill:#5e4aa6;stroke-width:0.674631" />
  <circle
     id="circle874"
     fill-rule="evenodd"
     r="0"
     cy="-60.627094"
     cx="-2.2489548"
     style="fill:#5e4aa6;stroke-width:0.674631" />
  <circle
     id="circle878"
     r="0"
     cy="-850.61078"
     cx="-817.04004"
     style="fill:#5e4aa6;stroke-width:0.674631;image-rendering:optimizeSpeed" />
  <circle
     id="circle880"
     r="0"
     cy="-850.61078"
     cx="-817.04004"
     style="fill:#5e4aa6;stroke-width:0.674631;image-rendering:optimizeSpeed" />
  <circle
     id="circle882"
     r="0"
     cy="-872.19897"
     cx="-873.84399"
     style="fill:#5e4aa6;stroke-width:0.674631;image-rendering:optimizeSpeed" />
  <circle
     id="circle884"
     r="0"
     cy="-865.25031"
     cx="-793.29309"
     style="fill:#5e4aa6;stroke-width:0.674631;image-rendering:optimizeSpeed" />
  <circle
     id="circle886"
     r="0"
     cy="-891.76263"
     cx="-713.38025"
     style="fill:#5e4aa6;stroke-width:0.674636;image-rendering:optimizeSpeed" />
  <circle
     id="circle888"
     fill-rule="evenodd"
     r="0"
     cy="-38.023201"
     cx="28.402266"
     style="fill:#5e4aa6;stroke-width:0.674636;image-rendering:optimizeSpeed" />
  <circle
     id="circle890"
     r="0"
     cy="-940.00555"
     cx="-660.42017"
     style="fill:#5e4aa6;stroke-width:0.674636;image-rendering:optimizeSpeed" />
  <circle
     id="circle892"
     fill-rule="evenodd"
     r="0"
     cy="-86.241364"
     cx="81.360321"
     style="fill:#5e4aa6;stroke-width:0.674636;image-rendering:optimizeSpeed" />
  <g
     id="g1"
     transform="translate(0.12500698,0.24271195)">
    <path
       d="m 2.4358235,11.405405 c -0.1950996,-0.180676 -0.1950996,-0.473945 0,-0.654596 L 3.8501233,9.4410021 c 0.1951867,-0.1813198 0.5117218,-0.1813198 0.706911,0 0.1951894,0.1806547 0.1951894,0.4739209 0,0.6545709 l -1.4142992,1.309831 c -0.1952194,0.180823 -0.5117241,0.180823 -0.7069116,10e-7 z m 10.1715935,0 -1.414303,-1.309832 c -0.195038,-0.1806558 -0.195038,-0.4739162 0,-0.6545709 0.195324,-0.1813198 0.511688,-0.1813198 0.707038,0 l 1.414342,1.3098069 c 0.195002,0.180651 0.195002,0.47392 0,0.654596 -0.195346,0.180823 -0.511792,0.180823 -0.707077,0 z m 2.692385,-6.9689252 -6.0104604,5.103332 c -0.7810403,0.7233272 -2.047394,0.7233272 -2.8285003,0 L 2.9343255,6.2737683 2.7088901,6.0651044 1.7459068,5.1731278 l -0.0039,0.0012 C 1.6507875,5.0687531 1.5207553,4.9787763 1.3750065,4.9787763 c -0.2763491,0 -0.50013182,0.2073635 -0.50013182,0.463062 v 1.304592 0.5480643 4.6301394 c 0,0.511885 0.44762792,0.926259 1.00013572,0.926259 H 13.874757 c 0.552499,0 0.999938,-0.414374 0.999938,-0.926259 V 6.3681679 c 0,-0.255958 0.223916,-0.463063 0.5003,-0.463063 0.276148,0 0.499998,0.2071323 0.499998,0.463063 V 11.92464 c 0,1.023064 -0.895769,1.852648 -2.000236,1.852648 H 1.8752349 c -1.10460529,-3.7e-5 -2.00024187,-0.829616 -2.00024187,-1.85268 V 5.4418383 c 0,-0.7669474 0.67188323,-1.3887562 1.50024047,-1.3887562 0.3860014,0 0.7343805,0.1634897 1.0000984,0.4006953 v -0.00782 l 4.7928457,4.4388248 c 0.3902858,0.362027 1.0234499,0.362027 1.4138282,0 L 14.592165,3.7814019 C 14.788009,3.600744 14.881959,3.3635415 14.880783,3.1268285 h -0.007 C 14.874206,2.6151916 14.42676,2.6637851 13.874246,2.6637851 H 3.3750709 c -0.2757542,0 -0.5001005,-0.2073342 -0.5001005,-0.4632924 0,-0.2556989 0.2243463,-0.4630645 0.5001005,-0.4630645 H 13.875045 c 0.917232,0 1.688922,0.2543676 1.924305,0.926331 v 0 c 0.170612,0.6143662 0.01982,1.2921749 -0.499502,1.7728624 z M 1.3752781,2.6636448 c -0.2763492,0 -0.50013147,-0.2073368 -0.50013147,-0.4632921 0,-0.2556972 0.22378227,-0.4630646 0.50013147,-0.4630646 0.2762523,0 0.5000046,0.2073371 0.5000046,0.4630646 0,0.2559553 -0.2237523,0.4632921 -0.5000046,0.4632921 z"
       id="path2-3"
       style="fill:url(#linearGradient2);fill-opacity:1;stroke-width:0.0300745" />
    <path
       d="M 6.9933648,5.455302 H 6.0462407 a 0.06340217,0.05394979 0 0 1 -0.049756,-0.0874 L 7.8252686,3.3995228 a 0.06340217,0.05394979 0 0 1 0.099492,0 l 1.8287537,1.9683768 a 0.06340217,0.05394979 0 0 1 -0.049723,0.087402 h -0.947135 a 0.06340217,0.05394979 0 0 0 -0.06338,0.053947 V 7.98714 a 0.06340217,0.05394979 0 0 1 -0.06334,0.053952 H 7.1201618 A 0.06340217,0.05394979 0 0 1 7.0567768,7.987138 V 5.5092476 a 0.06340217,0.05394979 0 0 0 -0.063413,-0.053954 z"
       stroke="none"
       id="path2-6"
       style="color:#d6dbf1;fill:url(#linearGradient4);fill-opacity:1;stroke-width:0.548164"
       class="ColorScheme-Text" />
  </g>
</svg>
