<?xml version="1.0" encoding="UTF-8" standalone="no"?>
<!-- Created with Inkscape (http://www.inkscape.org/) -->

<svg
   width="16"
   height="16"
   id="svg2"
   version="1.1"
   inkscape:version="1.4.4 (unknown)"
   viewBox="0 0 16 16"
   sodipodi:docname="kxstitch.svg"
   inkscape:export-filename="/home/yurchor/Install/Ukrainization/kde4doc/extragear-graphics/kxstitch-icon/128-apps-kxstitch.png"
   inkscape:export-xdpi="359.8009"
   inkscape:export-ydpi="359.8009"
   xmlns:inkscape="http://www.inkscape.org/namespaces/inkscape"
   xmlns:sodipodi="http://sodipodi.sourceforge.net/DTD/sodipodi-0.dtd"
   xmlns="http://www.w3.org/2000/svg"
   xmlns:svg="http://www.w3.org/2000/svg"
   xmlns:rdf="http://www.w3.org/1999/02/22-rdf-syntax-ns#"
   xmlns:cc="http://creativecommons.org/ns#"
   xmlns:dc="http://purl.org/dc/elements/1.1/">
  <defs
     id="defs4">
    <linearGradient
       id="a-3"
       y1="543.79999"
       y2="503.79999"
       x2="0"
       gradientUnits="userSpaceOnUse"
       gradientTransform="matrix(1.0499472,0,0,1.0499996,-1036.978,347.49749)">
      <stop
         stop-color="#c6cdd1"
         id="stop2-6" />
      <stop
         offset="1"
         stop-color="#e0e5e7"
         id="stop4-7" />
    </linearGradient>
    <linearGradient
       id="a-1"
       y1="510.79999"
       y2="527.14001"
       gradientUnits="userSpaceOnUse"
       x2="0">
      <stop
         stop-color="#7cbaf8"
         id="stop2-2" />
      <stop
         offset="1"
         stop-color="#f4fcff"
         id="stop4-70" />
    </linearGradient>
    <linearGradient
       id="c-9"
       y1="503.79999"
       x1="400.57001"
       y2="519.79999"
       x2="416.57001"
       gradientUnits="userSpaceOnUse">
      <stop
         stop-color="#292c2f"
         id="stop12-3" />
      <stop
         offset="1"
         stop-opacity="0"
         id="stop14-6" />
    </linearGradient>
    <linearGradient
       id="b-0"
       y1="542.79999"
       x1="408.57001"
       y2="521.79999"
       x2="387.57001"
       gradientUnits="userSpaceOnUse"
       gradientTransform="translate(-384.57,-499.8)">
      <stop
         stop-color="#197cf1"
         id="stop7-6" />
      <stop
         offset="1"
         stop-color="#20bcfa"
         id="stop9-2" />
    </linearGradient>
    <linearGradient
       id="a-7"
       y1="543.79999"
       y2="503.79999"
       x2="0"
       gradientUnits="userSpaceOnUse"
       gradientTransform="matrix(1.0499472,0,0,1.0499996,-1103.228,341.99748)">
      <stop
         stop-color="#c6cdd1"
         id="stop2-5" />
      <stop
         offset="1"
         stop-color="#e0e5e7"
         id="stop4-3" />
    </linearGradient>
    <linearGradient
       id="linearGradient2257">
      <stop
         id="stop2259"
         offset="0"
         style="stop-color:#b4942a;stop-opacity:1;" />
      <stop
         id="stop2261"
         offset="1"
         style="stop-color:#e4dcc9;stop-opacity:1" />
    </linearGradient>
    <linearGradient
       id="linearGradient2598">
      <stop
         style="stop-color:#252525;stop-opacity:1;"
         offset="0"
         id="stop2600" />
      <stop
         id="stop2606"
         offset="0.5"
         style="stop-color:#252525;stop-opacity:1;" />
      <stop
         style="stop-color:#252525;stop-opacity:1;"
         offset="0.75"
         id="stop2608" />
      <stop
         style="stop-color:#000000;stop-opacity:1;"
         offset="1"
         id="stop2602" />
    </linearGradient>
    <linearGradient
       id="linearGradient3311">
      <stop
         id="stop3313"
         offset="0"
         style="stop-color:#2d2d2d;stop-opacity:1;" />
      <stop
         style="stop-color:#000000;stop-opacity:1;"
         offset="0.5"
         id="stop3319" />
      <stop
         id="stop3315"
         offset="1"
         style="stop-color:#000000;stop-opacity:1;" />
    </linearGradient>
    <linearGradient
       id="linearGradient3303">
      <stop
         id="stop3305"
         offset="0"
         style="stop-color:#ffffff;stop-opacity:0.68345326;" />
      <stop
         id="stop3307"
         offset="1"
         style="stop-color:#ffffff;stop-opacity:0;" />
    </linearGradient>
    <linearGradient
       id="linearGradient3225">
      <stop
         id="stop3227"
         offset="0"
         style="stop-color:#ffffff;stop-opacity:1;" />
      <stop
         id="stop3229"
         offset="1"
         style="stop-color:#aeaeae;stop-opacity:1;" />
    </linearGradient>
    <linearGradient
       id="linearGradient3207">
      <stop
         id="stop3209"
         offset="0"
         style="stop-color:#ffffff;stop-opacity:1;" />
      <stop
         id="stop3211"
         offset="1"
         style="stop-color:#252525;stop-opacity:0;" />
    </linearGradient>
    <linearGradient
       id="linearGradient3251">
      <stop
         style="stop-color:#000000;stop-opacity:1;"
         offset="0"
         id="stop3253" />
      <stop
         id="stop14161"
         offset="0.7087912"
         style="stop-color:#090909;stop-opacity:0.67870039;" />
      <stop
         style="stop-color:#131313;stop-opacity:0;"
         offset="1"
         id="stop3255" />
    </linearGradient>
    <linearGradient
       id="linearGradient3273">
      <stop
         id="stop3275"
         offset="0"
         style="stop-color:#ffffff;stop-opacity:0.55035973;" />
      <stop
         id="stop3277"
         offset="1"
         style="stop-color:#ffffff;stop-opacity:0;" />
    </linearGradient>
    <linearGradient
       id="linearGradient3259">
      <stop
         style="stop-color:#ffffff;stop-opacity:0.55035973;"
         offset="0"
         id="stop3261" />
      <stop
         style="stop-color:#000000;stop-opacity:0;"
         offset="1"
         id="stop3263" />
    </linearGradient>
    <linearGradient
       id="a-3-3"
       y1="543.79999"
       y2="503.79999"
       x2="0"
       gradientUnits="userSpaceOnUse"
       gradientTransform="matrix(1.0499472,0,0,1.0499996,-1103.2269,341.99747)">
      <stop
         stop-color="#c6cdd1"
         id="stop2-6-6" />
      <stop
         offset="1"
         stop-color="#e0e5e7"
         id="stop4-7-7" />
    </linearGradient>
  </defs>
  <sodipodi:namedview
     id="base"
     pagecolor="#ffffff"
     bordercolor="#666666"
     borderopacity="1.0"
     inkscape:pageopacity="0.0"
     inkscape:pageshadow="2"
     inkscape:zoom="22.627417"
     inkscape:cx="4.7729708"
     inkscape:cy="11.026446"
     inkscape:document-units="px"
     inkscape:current-layer="layer1"
     showgrid="false"
     inkscape:window-width="1920"
     inkscape:window-height="994"
     inkscape:window-x="0"
     inkscape:window-y="0"
     inkscape:window-maximized="1"
     fit-margin-top="0"
     fit-margin-left="0"
     fit-margin-right="0"
     fit-margin-bottom="0"
     inkscape:showpageshadow="2"
     inkscape:pagecheckerboard="0"
     inkscape:deskcolor="#d1d1d1">
    <inkscape:grid
       type="xygrid"
       id="grid6718"
       originx="-62.25"
       originy="9.4999809"
       spacingy="1"
       spacingx="1"
       units="px"
       visible="false" />
  </sodipodi:namedview>
  <metadata
     id="metadata7">
    <rdf:RDF>
      <cc:Work
         rdf:about="">
        <dc:format>image/svg+xml</dc:format>
        <dc:type
           rdf:resource="http://purl.org/dc/dcmitype/StillImage" />
      </cc:Work>
    </rdf:RDF>
  </metadata>
  <g
     inkscape:label="Layer 1"
     inkscape:groupmode="layer"
     id="layer1"
     transform="translate(-646.25,-863.98737)">
    <g
       id="g11-0"
       transform="matrix(0.22413793,0,0,0.22413793,647.07759,864.81496)"
       style="fill:#ffffff;fill-opacity:1">
      <path
         style="opacity:1;fill:#aa87de;fill-opacity:0.6"
         d="M 5.890625,3 C 4.2901806,3 3,4.2901806 3,5.890625 V 26.109376 C 3,27.70982 4.2901806,29 5.890625,29 H 26.109376 C 27.70982,29 29,27.70982 29,26.109376 V 5.890625 C 29,4.2901806 27.70982,3 26.109376,3 Z m 4.664063,6 H 21.445312 C 22.30709,9 23,9.6929098 23,10.554688 V 21.445312 C 23,22.30709 22.30709,23 21.445312,23 H 10.554688 C 9.6929098,23 9,22.30709 9,21.445312 V 10.554688 C 9,9.6929098 9.6929098,9 10.554688,9 Z"
         id="path2-9" />
      <path
         style="opacity:1;fill:#ff80e5;fill-opacity:0.6"
         d="M 37.890626,3 C 36.290182,3 35,4.2901806 35,5.890625 V 26.109376 C 35,27.70982 36.290182,29 37.890626,29 h 20.21875 C 59.70982,29 61,27.70982 61,26.109376 V 5.890625 C 61,4.2901806 59.70982,3 58.109376,3 Z m 4.664062,6 H 53.445312 C 54.30709,9 55,9.6929098 55,10.554688 V 21.445312 C 55,22.30709 54.30709,23 53.445312,23 H 42.554688 C 41.69291,23 41,22.30709 41,21.445312 V 10.554688 C 41,9.6929098 41.69291,9 42.554688,9 Z"
         id="path3-3" />
      <path
         style="opacity:1;fill:#ff55dd;fill-opacity:0.6"
         d="M 5.890625,35 C 4.2901806,35 3,36.29018 3,37.890624 V 58.109376 C 3,59.70982 4.2901806,61 5.890625,61 H 26.109376 C 27.70982,61 29,59.70982 29,58.109376 V 37.890624 C 29,36.29018 27.70982,35 26.109376,35 Z m 4.664063,6 H 21.445312 C 22.30709,41 23,41.69291 23,42.554688 V 53.445312 C 23,54.30709 22.30709,55 21.445312,55 H 10.554688 C 9.6929098,55 9,54.30709 9,53.445312 V 42.554688 C 9,41.69291 9.6929098,41 10.554688,41 Z"
         id="path4-6" />
      <path
         style="opacity:1;fill:#aa87de;fill-opacity:0.6"
         d="M 37.890626,35 C 36.290182,35 35,36.29018 35,37.890624 V 58.109376 C 35,59.70982 36.290182,61 37.890626,61 h 20.21875 C 59.70982,61 61,59.70982 61,58.109376 V 37.890624 C 61,36.29018 59.70982,35 58.109376,35 Z m 4.664062,6 H 53.445312 C 54.30709,41 55,41.69291 55,42.554688 V 53.445312 C 55,54.30709 54.30709,55 53.445312,55 H 42.554688 C 41.69291,55 41,54.30709 41,53.445312 V 42.554688 C 41,41.69291 41.69291,41 42.554688,41 Z"
         id="path5-0" />
      <path
         style="opacity:0.1;fill:#ffffff;fill-opacity:1;stroke:#0a0202;stroke-width:10;stroke-linecap:round"
         d="M 16.05,48.949499 47.95,17.0495"
         id="path6-62" />
      <path
         style="fill:#ffffff;fill-opacity:1;stroke:#c5251a;stroke-width:10;stroke-linecap:round"
         d="m 16.05,47.95 31.9,-31.9"
         id="path7-6" />
      <path
         style="opacity:0.1;fill:#ffffff;fill-opacity:1;stroke:#0a0202;stroke-width:10;stroke-linecap:round"
         d="M 47.95,48.949499 16.05,17.0495"
         id="path8-1" />
      <path
         style="fill:#ffffff;fill-opacity:1;stroke:#f44336;stroke-width:10;stroke-linecap:round"
         d="M 47.95,47.95 16.05,16.05"
         id="path9-8" />
      <path
         style="opacity:0.1;fill:#ffffff;fill-opacity:1"
         d="M 15.996094,11 A 5.0005,5.0005 0 0 0 11.039062,16.501953 5.0005,5.0005 0 0 1 15.996094,12 a 5.0005,5.0005 0 0 1 3.589844,1.515625 l 31.898437,31.898437 a 5.0005,5.0005 0 0 1 1.509766,3.111329 5.0005,5.0005 0 0 0 -1.509766,-4.111329 L 19.585938,12.515625 A 5.0005,5.0005 0 0 0 15.996094,11 Z"
         id="path11-9" />
    </g>
  </g>
</svg>
