<?xml version="1.0" encoding="UTF-8" standalone="no"?>
<!-- Generator: Gravit.io -->

<svg
   style="isolation:isolate"
   viewBox="0 0 16 16"
   width="16"
   height="16"
   version="1.1"
   id="svg3"
   sodipodi:docname="lazarus.svg"
   inkscape:version="1.4.4 (unknown)"
   xmlns:inkscape="http://www.inkscape.org/namespaces/inkscape"
   xmlns:sodipodi="http://sodipodi.sourceforge.net/DTD/sodipodi-0.dtd"
   xmlns:xlink="http://www.w3.org/1999/xlink"
   xmlns="http://www.w3.org/2000/svg"
   xmlns:svg="http://www.w3.org/2000/svg">
  <defs
     id="defs3">
    <linearGradient
       id="linearGradient3"
       inkscape:collect="always">
      <stop
         style="stop-color:#bc5fd3;stop-opacity:1"
         offset="0"
         id="stop4" />
      <stop
         style="stop-color:#7137c8;stop-opacity:1"
         offset="1"
         id="stop5" />
    </linearGradient>
    <linearGradient
       inkscape:collect="always"
       xlink:href="#linearGradient3"
       id="linearGradient5"
       x1="3.2938192"
       y1="12.510611"
       x2="11.11823"
       y2="4.5759578"
       gradientUnits="userSpaceOnUse" />
  </defs>
  <sodipodi:namedview
     id="namedview3"
     pagecolor="#ffffff"
     bordercolor="#000000"
     borderopacity="0.25"
     inkscape:showpageshadow="2"
     inkscape:pageopacity="0.0"
     inkscape:pagecheckerboard="0"
     inkscape:deskcolor="#d1d1d1"
     inkscape:document-units="px"
     inkscape:zoom="23.65625"
     inkscape:cx="5.7067371"
     inkscape:cy="7.3764861"
     inkscape:window-width="1920"
     inkscape:window-height="994"
     inkscape:window-x="0"
     inkscape:window-y="0"
     inkscape:window-maximized="1"
     inkscape:current-layer="svg3" />
  <linearGradient
     id="_lgradient_27"
     x1="0"
     y1="0.5"
     x2="1"
     y2="0.5"
     gradientTransform="matrix(12.999998,0,0,12.999992,1.4998293,1.4999913)"
     gradientUnits="userSpaceOnUse">
    <stop
       offset="0%"
       stop-opacity="1"
       style="stop-color:rgb(84,51,255)"
       id="stop1" />
    <stop
       offset="51.73913043478261%"
       stop-opacity="1"
       style="stop-color:rgb(32,189,255)"
       id="stop2" />
    <stop
       offset="98.26086956521739%"
       stop-opacity="1"
       style="stop-color:rgb(165,254,203)"
       id="stop3" />
  </linearGradient>
  <path
     d="m 10.485237,3.2845858 v 0 C 10.195287,3.1327349 10.083362,2.7748202 10.235835,2.4857778 v 0 C 10.388309,2.1970121 10.747692,2.085544 11.03792,2.237395 v 0 c 1.235622,0.6477868 2.233508,1.674233 2.84257,2.9255513 v 0 c 0.144142,0.2940211 0.02166,0.6486166 -0.273287,0.79134 v 0 C 13.311976,6.0972862 12.95537,5.9747543 12.811228,5.6807332 v 0 C 12.312146,4.6542871 11.498119,3.8170323 10.485237,3.2845858 Z M 7.9578917,2.6063735 v 0 C 8.2642282,2.6047139 8.5119636,2.3557779 8.510575,2.0504164 v 0 C 8.5089086,1.7450549 8.2586736,1.4983317 7.9523371,1.4999913 v 0 C 6.3526107,1.5082913 4.8112076,2.1029696 3.622522,3.1678625 2.4338363,4.2355214 1.67841,5.6987119 1.50344,7.2836045 v 0 c -0.033883,0.303702 0.186357,0.5778082 0.4915825,0.6112763 v 0 c 0.304948,0.033468 0.5799009,-0.1858723 0.6137839,-0.4895742 v 0 C 2.7532262,6.0914777 3.3808966,4.8744572 4.3668392,3.9921173 5.3527817,3.1070115 6.630341,2.6146714 7.9578917,2.6063735 Z M 2.9365282,9.936156 v 0 C 2.8259916,9.6507094 2.5038244,9.5082627 2.2172068,9.6180711 v 0 C 1.9303114,9.7278796 1.7872803,10.049007 1.897817,10.334454 v 0 c 0.5304648,1.363616 1.5052981,2.511487 2.7689709,3.258295 v 0 c 0.263566,0.155724 0.6046187,0.06887 0.760981,-0.193616 v 0 c 0.1563621,-0.26249 0.069155,-0.602149 -0.1944112,-0.757872 v 0 C 4.1835371,12.021687 3.375342,11.070198 2.9365282,9.936156 Z m 4.879721,3.454679 v 0 c -0.3066142,-0.0047 -0.5593487,0.239531 -0.5637925,0.544893 v 0 c -0.00472,0.305361 0.2405145,0.556787 0.5471287,0.561489 v 0 l 0.1833021,0.0028 c 0.00278,0 0.00555,0 0.00833,0 1.6413859,0 3.2244475,-0.616808 4.4297975,-1.725956 1.205349,-1.109149 1.949667,-2.63319 2.077423,-4.2623381 v 0 C 14.521208,8.2079869 14.29236,7.9413488 13.987411,7.9170084 v 0 c -0.305224,-0.02434 -0.572679,0.2035743 -0.597119,0.5089358 v 0 c -0.105539,1.3497864 -0.7221,2.6138278 -1.721928,3.5348918 -0.99983,0.921063 -2.3107157,1.432765 -3.671594,1.432765 z M 8.0617628,4.1276491 c -0.05249,0 -0.041937,0.1938935 0.013054,0.2378722 0.061656,0.049511 0.1521962,0.2226594 0.1788583,0.3424253 l 0.021108,0.093489 -0.1702487,0.034021 c -0.4049307,0.081319 -0.483806,0.346021 -0.2224619,0.7470846 0.091929,0.1407872 0.092762,0.1446595 0.074988,0.450021 -0.013332,0.2290211 -0.00667,0.3457445 0.02694,0.4555529 0.05249,0.1701063 0.1982995,0.326936 0.3510512,0.3764466 0.1691377,0.054766 0.6285035,0.028489 0.7990299,-0.045362 C 9.3207141,6.7381577 9.5631727,6.4977965 9.6309389,6.3265839 9.7106476,6.1246691 9.680653,5.8461374 9.5534524,5.6030099 9.4312508,5.3695632 9.1121387,5.0520315 8.8905099,4.943606 8.7733078,4.8860742 8.7183171,4.8368402 8.6788795,4.7549679 8.6230557,4.6379679 8.1209194,4.1276491 8.0617628,4.1276491 Z M 5.8529739,4.6808403 c -0.00693,-5.532e-4 -0.013887,0.00221 -0.019719,0.00774 C 5.7727101,4.7461173 5.7235514,5.048989 5.729106,5.3319462 5.7343869,5.5996907 5.7271531,5.6547333 5.6710609,5.7440736 5.4855367,6.0405841 5.4538754,6.584371 5.6044052,6.8924984 5.7377158,7.1652216 5.9585114,7.331179 6.2948427,7.4108385 6.5298026,7.4664342 6.6886643,7.4586895 6.9094599,7.3820726 7.5182447,7.1710302 7.6235044,6.7591794 7.1866348,6.295052 7.0097205,6.106967 6.9269568,5.9540097 6.9269568,5.8148821 6.9269568,5.6456056 6.8616902,5.4796483 6.751709,5.3681802 6.6525594,5.2677761 6.6472825,5.2663931 6.4575927,5.282159 6.3514997,5.2912867 6.2259656,5.3073292 6.179307,5.318393 6.1020979,5.3366483 6.0898778,5.3272441 6.034054,5.2099676 6.0004487,5.1391591 5.9726757,5.020223 5.9721202,4.944989 5.9715647,4.8290955 5.9018544,4.6852658 5.8529739,4.6808403 Z m 5.3829681,1.1074886 c -0.06554,-0.014383 -0.08609,0.1543403 -0.03361,0.2765956 0.02444,0.056425 0.04054,0.1518509 0.03583,0.2124254 l -0.0081,0.110085 -0.139421,0.00277 c -0.10861,0.00249 -0.161101,0.021294 -0.236921,0.085464 -0.08916,0.074681 -0.224684,0.3285955 -0.22524,0.421255 -2.78e-4,0.020468 -0.08277,0.2201701 -0.183857,0.4431061 -0.101094,0.2229361 -0.19219,0.4494678 -0.203022,0.503404 -0.05693,0.2895955 0.101372,0.5069997 0.480197,0.6580208 0.159972,0.063617 0.326887,0.068596 0.508245,0.015213 0.294672,-0.087128 0.484084,-0.2519786 0.598787,-0.5208295 0.06055,-0.1418935 0.06915,-0.1991488 0.06776,-0.4572124 -0.0013,-0.3341277 -0.05853,-0.5451701 -0.212947,-0.7858082 -0.04833,-0.075234 -0.107482,-0.2212765 -0.131367,-0.3247232 -0.0486,-0.2118722 -0.25329,-0.6259358 -0.316334,-0.6397656 z M 4.1560419,7.7239447 c -0.00722,-0.00166 -0.012775,-2.766e-4 -0.016664,0.00387 -0.058046,0.061957 0.029163,0.6643826 0.1172022,0.8082123 0.021386,0.035128 0.052213,0.1554467 0.068877,0.2669147 0.074987,0.5050635 0.4288156,0.976659 0.8304136,1.1080418 0.1371987,0.044809 0.4346479,0.028766 0.6271149,-0.034021 0.1591397,-0.052 0.2130195,-0.088234 0.332999,-0.2226594 C 6.3651085,9.3749436 6.4101009,9.0994545 6.2429072,8.8756886 6.198748,8.8164972 6.0634934,8.705859 5.9429584,8.6300718 5.8221459,8.554008 5.6121817,8.4146038 5.4763717,8.3194549 5.0786618,8.0406466 5.0364468,8.01437 4.9270211,7.9817318 4.7878783,7.940519 4.6456803,7.9842211 4.5298668,8.1042636 l -0.09054,0.094042 -0.056935,-0.099851 C 4.3510085,8.0434126 4.3254573,7.9703913 4.3254573,7.9369233 4.3251797,7.8766254 4.2065887,7.7358383 4.1560419,7.7239447 Z m 4.826119,0.5526379 C 8.813301,8.277689 8.6183343,8.306455 8.3936505,8.363157 7.7584814,8.5235825 7.4579772,8.7144334 7.3213338,9.0449651 c -0.059156,0.1429999 -0.063878,0.1919573 -0.04777,0.4655104 0.016386,0.2785317 0.011943,0.3191912 -0.050546,0.4583188 -0.063323,0.1410637 -0.13581,0.2198937 -0.4713083,0.5152977 -0.1066484,0.09377 -0.1160912,0.115893 -0.1280335,0.287936 -0.01111,0.160149 -5.555e-4,0.213808 0.076376,0.385021 0.1646941,0.366212 0.4621433,0.611553 0.8343017,0.687893 0.1763588,0.03596 0.2927279,0.03623 0.595176,0.0011 1.1759098,-0.137185 2.5279003,-0.581121 2.9139453,-0.956738 0.20191,-0.196659 0.282174,-0.377829 0.295782,-0.665765 C 11.364808,9.6744966 11.128738,9.3447947 10.707144,9.3431351 10.3772,9.3417522 10.045312,9.1406672 9.9092246,8.8601993 9.8084085,8.652476 9.603999,8.4455825 9.4129207,8.3576251 9.2934966,8.3028592 9.151021,8.2757529 8.9821609,8.2765826 Z"
     fill-rule="evenodd"
     id="path3"
     style="fill:url(#linearGradient5)" />
</svg>
