<?xml version="1.0" encoding="UTF-8" standalone="no"?>
<svg
   width="16"
   height="16"
   viewBox="0 0 16 16"
   fill="none"
   version="1.1"
   id="svg5"
   sodipodi:docname="lightdm-gtk-greeter-settings.svg"
   inkscape:version="1.4.4 (unknown)"
   xmlns:inkscape="http://www.inkscape.org/namespaces/inkscape"
   xmlns:sodipodi="http://sodipodi.sourceforge.net/DTD/sodipodi-0.dtd"
   xmlns:xlink="http://www.w3.org/1999/xlink"
   xmlns="http://www.w3.org/2000/svg"
   xmlns:svg="http://www.w3.org/2000/svg">
  <sodipodi:namedview
     id="namedview5"
     pagecolor="#ffffff"
     bordercolor="#000000"
     borderopacity="0.25"
     inkscape:showpageshadow="2"
     inkscape:pageopacity="0.0"
     inkscape:pagecheckerboard="0"
     inkscape:deskcolor="#d1d1d1"
     inkscape:zoom="22.597954"
     inkscape:cx="9.3371285"
     inkscape:cy="16.926311"
     inkscape:window-width="1920"
     inkscape:window-height="994"
     inkscape:window-x="0"
     inkscape:window-y="0"
     inkscape:window-maximized="1"
     inkscape:current-layer="svg5" />
  <defs
     id="defs5">
    <linearGradient
       id="paint0_linear_642_20"
       x1="7.99932"
       y1="184.888"
       x2="220.70599"
       y2="92.643997"
       gradientUnits="userSpaceOnUse">
      <stop
         stop-color="#0357D1"
         id="stop2" />
      <stop
         offset="1"
         stop-color="#27CDFC"
         id="stop3" />
    </linearGradient>
    <linearGradient
       id="paint1_linear_642_20"
       x1="7.99932"
       y1="184.888"
       x2="220.70599"
       y2="92.643997"
       gradientUnits="userSpaceOnUse">
      <stop
         stop-color="#0357D1"
         id="stop4" />
      <stop
         offset="1"
         stop-color="#27CDFC"
         id="stop5" />
    </linearGradient>
    <clipPath
       id="clip0_642_20">
      <rect
         width="192"
         height="192"
         fill="#ffffff"
         id="rect5"
         x="0"
         y="0" />
    </clipPath>
    <linearGradient
       id="linearGradient4"
       x1="0"
       x2="0"
       y1="0"
       y2="1">
      <stop
         offset="0"
         style="stop-color:#4bc0c8;stop-opacity:1;"
         id="stop1" />
      <stop
         offset="0.52062726"
         style="stop-color:#c779d0;stop-opacity:1;"
         id="stop4-7" />
      <stop
         offset="100%"
         style="stop-color:#ffe680;stop-opacity:1"
         id="stop2-5" />
    </linearGradient>
    <linearGradient
       inkscape:collect="always"
       xlink:href="#linearGradient4"
       id="linearGradient26"
       x1="15.5"
       y1="15"
       x2="0.49999961"
       y2="1.0000001"
       gradientUnits="userSpaceOnUse"
       gradientTransform="matrix(0.86666667,0,0,0.85714286,1.0666698,1.1428602)" />
    <linearGradient
       xlink:href="#linearGradient4"
       id="linearGradient4503-0-3-2"
       y1="37"
       y2="4"
       x2="0"
       gradientUnits="userSpaceOnUse"
       gradientTransform="matrix(0.22499999,0,0,0.22499999,2.5063599,2.8519402)" />
    <linearGradient
       id="linearGradient10"
       x1="6.0302329"
       x2="6.0302329"
       y1="3.1042628"
       y2="9.3494005"
       gradientTransform="scale(0.82737599,1.2086403)"
       gradientUnits="userSpaceOnUse">
      <stop
         offset="0"
         style="stop-color:#4bc0c8;stop-opacity:1;"
         id="stop8" />
      <stop
         offset="0.52062726"
         style="stop-color:#c779d0;stop-opacity:1;"
         id="stop9" />
      <stop
         offset="100%"
         style="stop-color:#ffe680;stop-opacity:1"
         id="stop10" />
    </linearGradient>
    <linearGradient
       inkscape:collect="always"
       xlink:href="#linearGradient4"
       id="linearGradient12"
       x1="4.9892702"
       y1="7.526"
       x2="10.156347"
       y2="7.526"
       gradientUnits="userSpaceOnUse" />
    <linearGradient
       inkscape:collect="always"
       xlink:href="#linearGradient10"
       id="linearGradient7"
       x1="5.3749971"
       y1="6.6204576"
       x2="10.625003"
       y2="6.6204576"
       gradientUnits="userSpaceOnUse" />
    <linearGradient
       inkscape:collect="always"
       xlink:href="#linearGradient10"
       id="linearGradient8"
       x1="4.4999952"
       y1="10.273071"
       x2="6.405118"
       y2="10.273071"
       gradientUnits="userSpaceOnUse" />
    <linearGradient
       inkscape:collect="always"
       xlink:href="#linearGradient10"
       id="linearGradient9"
       x1="7.0477586"
       y1="10.273091"
       x2="8.9522762"
       y2="10.273091"
       gradientUnits="userSpaceOnUse" />
    <linearGradient
       inkscape:collect="always"
       xlink:href="#linearGradient10"
       id="linearGradient11"
       x1="9.5955"
       y1="10.273068"
       x2="11.499996"
       y2="10.273068"
       gradientUnits="userSpaceOnUse" />
  </defs>
  <path
     class="ColorScheme-Text"
     d="m 2.8928598,2.0000002 c -0.76329,0 -1.39286,0.678 -1.39286,1.5 V 12.5 c 0,0.82299 0.62957,1.5 1.39286,1.5 H 13.10714 C 13.87043,14 14.5,13.32299 14.5,12.5 V 3.5000002 c 0,-0.822 -0.62957,-1.5 -1.39286,-1.5 z m 0,1 h 3.25 0.92857 v 0 H 10.6 v 0 0 0 h 2.50714 c 0.26557,0 0.46428,0.215 0.46428,0.5 V 12.5 c 0,0.28599 0.0526,-0.5 0.0526,-0.5 H 2.0000198 c 0,0 0.42212,0.77897 0.42857,0.5 V 3.5000002 c 0,-0.285 0.19872,-0.5 0.4642901,-0.5 z m 4.17857,0 h 1.85714 v 0 0 z"
     font-family="sans-serif"
     font-weight="400"
     overflow="visible"
     id="path22"
     sodipodi:nodetypes="sssssssssscccccccssscccssccccc"
     style="color:#d5c289;fill:url(#linearGradient26);stroke-width:0.861892" />
  <path
     d="M 8.6776255,6.9222745 C 8.1136217,7.1854136 7.9812507,7.1617808 7.3227478,6.8881229 6.0319989,6.3527555 5.3749971,8.5528454 5.3749971,8.5528454 c 1.7073766,0.6616403 3.4567524,0.672465 5.2500059,0.012888 0,0 -0.586502,-2.2768343 -1.9473775,-1.6424518 z M 8.0213736,4.1861296 c 0.7110025,0 1.288877,0.5916888 1.288877,1.320263 0,0.7288539 -0.5778767,1.3202621 -1.288877,1.3202621 -0.7117549,0 -1.2892532,-0.5914636 -1.2892532,-1.3202621 0,-0.7284833 0.5774995,-1.320263 1.2892532,-1.320263 z"
     id="path11"
     style="fill:url(#linearGradient7);stroke-width:0.59587;fill-opacity:1" />
  <path
     d="M 4.4999953,10.219951 4.6326535,9.8042437 C 4.9380862,9.9140283 5.160365,10.008554 5.2983456,10.088279 5.2616429,9.7354846 5.2428985,9.4923683 5.2406203,9.3600525 H 5.6586631 C 5.6527089,9.5527006 5.6310475,9.7948303 5.5920431,10.085894 5.7901665,9.9842603 6.0171521,9.8906245 6.2724639,9.8044412 L 6.405118,10.220113 c -0.2441069,0.08196 -0.4834878,0.13655 -0.717567,0.16394 0.1173129,0.103609 0.2824406,0.288241 0.4952756,0.553483 L 5.8373049,11.186089 C 5.7258624,11.032138 5.5943846,10.82265 5.4422542,10.557266 5.3001531,10.832272 5.1751483,11.041742 5.067841,11.186089 L 4.7276196,10.937581 C 4.9504956,10.658364 5.110286,10.474081 5.206395,10.384093 4.9581738,10.335401 4.7229076,10.280485 4.5000221,10.220131 Z"
     id="path8-4"
     style="fill:url(#linearGradient8);fill-opacity:1;fill-rule:nonzero;stroke-width:0.59421" />
  <path
     d="M 7.0477584,10.219951 7.1804168,9.8042437 C 7.4858495,9.9140283 7.7075335,10.008554 7.8460944,10.088279 7.8093913,9.7354846 7.7900051,9.4923683 7.788369,9.3600525 H 8.2064174 C 8.200465,9.5527006 8.178205,9.7948303 8.139798,10.085894 8.3379199,9.9842603 8.5643357,9.8906245 8.8202181,9.8044412 l 0.1320586,0.4157108 c -0.243514,0.08196 -0.4829169,0.136546 -0.7169832,0.163941 0.1167584,0.103608 0.2818461,0.288236 0.495275,0.553467 L 8.3850472,11.18613 C 8.2736248,11.032159 8.1421314,10.822674 7.989997,10.557289 7.8478959,10.832295 7.7228917,11.041767 7.6155831,11.186114 L 7.275362,10.937582 c 0.2228763,-0.279206 0.3826668,-0.463492 0.4781889,-0.553467 -0.2476515,-0.0486 -0.4829124,-0.103611 -0.70579,-0.163952 z"
     id="path9-7"
     style="fill:url(#linearGradient9);fill-opacity:1;fill-rule:nonzero;stroke-width:0.59421" />
  <path
     d="M 9.5955185,10.219951 9.7281782,9.8042437 c 0.3048338,0.1097846 0.5271258,0.2043103 0.6650928,0.2840353 -0.03668,-0.3527944 -0.05541,-0.5959107 -0.05714,-0.7282265 h 0.417448 c -0.0057,0.1926481 -0.02764,0.4347778 -0.06607,0.7258415 0.197526,-0.1016337 0.424537,-0.1952695 0.679833,-0.2814528 l 0.132654,0.4156718 c -0.244108,0.08196 -0.482917,0.13655 -0.717575,0.16394 0.117347,0.103609 0.282438,0.288241 0.495869,0.553483 l -0.346115,0.248545 c -0.111448,-0.153929 -0.242926,-0.363438 -0.39446,-0.628816 -0.142101,0.275 -0.267105,0.484471 -0.375004,0.628818 L 9.8230929,10.937574 c 0.2228751,-0.27921 0.3820681,-0.4635 0.4781861,-0.553482 -0.247653,-0.04861 -0.4829136,-0.103615 -0.7057789,-0.163955 z"
     id="path10-6"
     style="fill:url(#linearGradient11);fill-opacity:1;fill-rule:nonzero;stroke-width:0.59421" />
</svg>
