<?xml version="1.0" encoding="UTF-8" standalone="no"?>
<!-- Generator: Gravit.io -->

<svg
   style="isolation:isolate"
   viewBox="0 0 16 16"
   width="16"
   height="16"
   version="1.1"
   id="svg2"
   sodipodi:docname="linphone.svg"
   inkscape:version="1.4.4 (unknown)"
   xmlns:inkscape="http://www.inkscape.org/namespaces/inkscape"
   xmlns:sodipodi="http://sodipodi.sourceforge.net/DTD/sodipodi-0.dtd"
   xmlns:xlink="http://www.w3.org/1999/xlink"
   xmlns="http://www.w3.org/2000/svg"
   xmlns:svg="http://www.w3.org/2000/svg">
  <defs
     id="defs2">
    <linearGradient
       id="linearGradient2"
       inkscape:collect="always">
      <stop
         style="stop-color:#ab37c8;stop-opacity:1"
         offset="0"
         id="stop3" />
      <stop
         style="stop-color:#ffdd55;stop-opacity:1"
         offset="1"
         id="stop4" />
    </linearGradient>
    <linearGradient
       inkscape:collect="always"
       xlink:href="#linearGradient2"
       id="linearGradient4"
       x1="3.3389442"
       y1="12.238824"
       x2="12.684106"
       y2="3.7862756"
       gradientUnits="userSpaceOnUse" />
  </defs>
  <sodipodi:namedview
     id="namedview2"
     pagecolor="#ffffff"
     bordercolor="#000000"
     borderopacity="0.25"
     inkscape:showpageshadow="2"
     inkscape:pageopacity="0.0"
     inkscape:pagecheckerboard="0"
     inkscape:deskcolor="#d1d1d1"
     inkscape:document-units="px"
     inkscape:zoom="16.727495"
     inkscape:cx="7.8314178"
     inkscape:cy="7.3830542"
     inkscape:window-width="1920"
     inkscape:window-height="994"
     inkscape:window-x="0"
     inkscape:window-y="0"
     inkscape:window-maximized="1"
     inkscape:current-layer="svg2" />
  <linearGradient
     id="_lgradient_32"
     x1="0"
     y1="0.5"
     x2="1"
     y2="0.5"
     gradientTransform="matrix(12.999881,0,0,13.000061,1.5001158,1.5000397)"
     gradientUnits="userSpaceOnUse">
    <stop
       offset="0%"
       stop-opacity="1"
       style="stop-color:rgb(255,153,102)"
       id="stop1" />
    <stop
       offset="98.26086956521739%"
       stop-opacity="1"
       style="stop-color:rgb(255,94,98)"
       id="stop2" />
  </linearGradient>
  <path
     d="m 3.8101997,5.0338885 v 0 l -0.26148,-0.66774 -0.3358946,-1.0133658 1.2626928,0.3033044 v 0 l 0.4182505,0.072593 v 0 0 0 L 5.6349717,3.4641706 C 6.3438208,3.1085522 7.1262022,2.9233954 7.9174072,2.9233954 c 0.2029485,0 0.4029557,0.011756 0.6059043,0.035268 v 0 C 8.8447937,2.9974584 9.136569,2.7679225 9.1748056,2.4458085 v 0 C 9.2130424,2.1236946 8.983034,1.8306767 8.6615518,1.7918819 v 0 c -0.2470679,-0.02939 -0.4941355,-0.044085 -0.7441446,-0.044085 -0.9765059,0 -1.9383055,0.2292417 -2.8118665,0.6671521 L 4.9558293,2.4904813 2.1548456,1.5505904 C 1.6480624,1.3807164 1.3783469,1.6525735 1.5533532,2.157493 l 0.9279749,2.6788949 -0.016472,0.029684 C 1.9383671,5.8094895 1.6648279,6.8704671 1.6648279,7.9490786 1.6589432,10.123936 2.7825154,12.154782 4.6296411,13.306869 v 0 c 0.2758923,0.171931 0.6397291,0.08817 0.8117941,-0.186627 v 0 c 0.1720651,-0.27509 0.08765,-0.637762 -0.188242,-0.809693 v 0 C 3.7501975,11.373009 2.8383998,9.7212932 2.8413411,7.9490786 c 0,-0.8787598 0.2235374,-1.7428246 0.6500235,-2.5128416 z m 8.3797153,5.9323635 v 0 l 0.261479,0.66774 0.335895,1.013365 -1.262693,-0.303303 -0.41825,-0.07259 v 0 0 l -0.741203,0.264508 c -0.7088493,0.355619 -1.4912305,0.540776 -2.2824358,0.540776 -0.2029483,0 -0.4029556,-0.01176 -0.6059042,-0.03527 v 0 c -0.3214823,-0.0388 -0.6135516,0.190741 -0.6514942,0.512855 v 0 c -0.038236,0.322113 0.1917717,0.615132 0.5132538,0.653926 v 0 c 0.2470679,0.02939 0.4941358,0.04409 0.7441446,0.04409 0.9765061,0 1.9383048,-0.229242 2.8118658,-0.667151 l 0.149711,-0.07553 2.800984,0.939597 c 0.506784,0.170168 0.776206,-0.101689 0.601493,-0.606608 l -0.927975,-2.678896 0.01648,-0.02968 c 0.526489,-0.943417 0.800028,-2.0043946 0.800028,-3.0830062 0.0059,-2.1748571 -1.117687,-4.2057033 -2.964812,-5.3577898 v 0 C 11.094581,2.5213408 10.730745,2.6051021 10.558679,2.8798983 v 0 c -0.172066,0.2747961 -0.08764,0.6377621 0.188243,0.8096934 v 0 c 1.502996,0.9375397 2.414793,2.5892555 2.411851,4.3614701 0,0.8787598 -0.223537,1.7428241 -0.650023,2.5128422 z M 11.212232,9.5223232 c -0.0068,-0.073475 -0.0503,-0.137545 -0.117063,-0.1675228 C 10.644858,9.1481889 10.192195,8.9415776 9.741885,8.7349661 9.691295,8.7120419 9.6292339,8.723504 9.5924678,8.7670012 L 8.9812692,9.4559018 C 8.9330322,9.5108608 8.857147,9.5293768 8.7903801,9.5017498 8.4733097,9.3709649 8.0459414,9.1505401 7.6141609,8.7784633 7.0970834,8.3355566 6.7938371,7.860027 6.623831,7.5502568 6.708834,7.4929469 6.9409013,7.3207213 7.0441403,7.0015463 c 0,-0.00235 0.00235,-0.0047 0.00235,-0.0047 C 7.1109074,6.7993434 7.0970834,6.5859723 7.0259043,6.3908229 6.9041352,6.0669456 6.6605971,5.4400577 6.5661818,5.3436587 6.550299,5.3277881 6.5317689,5.3116236 6.5317689,5.3116236 6.4629428,5.2496107 6.3732337,5.2152245 6.2791125,5.2105221 6.2467586,5.2081721 6.2123452,5.2081721 6.1755795,5.2081721 6.0699874,5.2061121 5.9758663,5.2061121 5.9067462,5.2152221 5.711445,5.2428511 5.5690869,5.3736364 5.4793778,5.4838488 5.3714327,5.6146341 5.2426045,5.8097834 5.1576014,6.0669456 c -0.00676,0.022924 -0.013529,0.043791 -0.020588,0.066715 -0.094121,0.3259346 -0.075886,0.6750873 0.036766,0.9963196 0.1055918,0.3009532 0.2597151,0.658923 0.4917823,1.0377595 0.3929554,0.6454036 0.8203239,1.0448131 1.1097462,1.3087349 0.3264824,0.3009532 0.7306146,0.6703854 1.3718143,0.9780984 0.5929627,0.284789 1.1306291,0.390299 1.4912305,0.43409 0.1470641,0.01381 0.4182513,0.01587 0.7285563,-0.101102 0.142359,-0.05525 0.261774,-0.121674 0.358249,-0.192798 0.255007,-0.181336 0.434426,-0.454663 0.480311,-0.7623761 0,-0.0024 0,-0.0047 0,-0.0068 0.01619,-0.1172654 0.01382,-0.2180731 0.0069,-0.3033039 z"
     fill-rule="evenodd"
     id="path2"
     style="fill:url(#linearGradient4)" />
</svg>
