<?xml version="1.0" encoding="UTF-8" standalone="no"?>
<svg
   width="16"
   height="16"
   version="1.1"
   id="svg4"
   sodipodi:docname="localsend.svg"
   inkscape:version="1.4.4 (unknown)"
   xmlns:inkscape="http://www.inkscape.org/namespaces/inkscape"
   xmlns:sodipodi="http://sodipodi.sourceforge.net/DTD/sodipodi-0.dtd"
   xmlns:xlink="http://www.w3.org/1999/xlink"
   xmlns="http://www.w3.org/2000/svg"
   xmlns:svg="http://www.w3.org/2000/svg">
  <defs
     id="defs4">
    <linearGradient
       id="linearGradient4"
       inkscape:collect="always">
      <stop
         style="stop-color:#008080;stop-opacity:1;"
         offset="0"
         id="stop4" />
      <stop
         style="stop-color:#cd87de;stop-opacity:1"
         offset="1"
         id="stop5" />
    </linearGradient>
    <linearGradient
       inkscape:collect="always"
       xlink:href="#linearGradient4"
       id="linearGradient5"
       x1="1.638298"
       y1="7.7234298"
       x2="14.361702"
       y2="7.7234298"
       gradientUnits="userSpaceOnUse" />
    <linearGradient
       inkscape:collect="always"
       xlink:href="#linearGradient4"
       id="linearGradient7"
       x1="4.680851"
       y1="7.7234077"
       x2="11.319149"
       y2="7.7234077"
       gradientUnits="userSpaceOnUse" />
  </defs>
  <sodipodi:namedview
     id="namedview4"
     pagecolor="#ffffff"
     bordercolor="#000000"
     borderopacity="0.25"
     inkscape:showpageshadow="2"
     inkscape:pageopacity="0.0"
     inkscape:pagecheckerboard="0"
     inkscape:deskcolor="#d1d1d1"
     inkscape:zoom="16.727495"
     inkscape:cx="9.9237813"
     inkscape:cy="3.8559271"
     inkscape:window-width="1920"
     inkscape:window-height="994"
     inkscape:window-x="0"
     inkscape:window-y="0"
     inkscape:window-maximized="1"
     inkscape:current-layer="svg4" />
  <g
     id="g4">
    <circle
       style="opacity:0.1;stroke-width:0.276596"
       cx="8"
       cy="8"
       r="3.3191488"
       id="circle2" />
    <circle
       style="fill:url(#linearGradient7);stroke-width:0.276596"
       cx="8"
       cy="7.7234077"
       r="3.3191488"
       id="circle3" />
    <path
       style="opacity:0.1;stroke-width:0.276596"
       d="M 8,1.6383005 A 6.361702,6.361702 0 0 0 6.104766,1.9342575 1.3829787,1.3829787 0 0 0 7.584,3.0417475 c 0,0 0.231787,-0.02047 0.416,-0.02047 0.184213,0 0.416,0.02047 0.416,0.02047 A 1.3829787,1.3829787 0 0 0 9.896617,1.9290025 6.361702,6.361702 0 0 0 8,1.6383005 Z m 2.95183,0.72717 a 1.3829787,1.3829787 0 0 0 0.260276,1.834659 c 0,0 0.178405,0.149086 0.308958,0.279639 0.13,0.130553 0.277702,0.308127 0.277702,0.308127 a 1.3829787,1.3829787 0 0 0 1.835213,0.259724 6.361702,6.361702 0 0 0 -2.682149,-2.682149 z m -5.883745,0.0053 a 6.361702,6.361702 0 0 0 -2.689617,2.684085 1.3829787,1.3829787 0 0 0 1.82166,-0.266915 c 0,0 0.149361,-0.177851 0.279638,-0.308127 0.130277,-0.130277 0.308128,-0.279639 0.308128,-0.279639 a 1.3829787,1.3829787 0 0 0 0.280191,-1.829404 z m -3.128298,3.719107 a 6.361702,6.361702 0 0 0 -0.301489,1.910125 6.361702,6.361702 0 0 0 0.301489,1.9101702 1.3829787,1.3829787 0 0 0 0.02489,-0.0011 1.3829787,1.3829787 0 0 0 1.084808,-1.6269372 c 0,0 -0.02821,-0.189744 -0.02821,-0.282127 0,-0.09238 0.02821,-0.282128 0.02821,-0.282128 a 1.3829787,1.3829787 0 0 0 -1.084808,-1.626936 1.3829787,1.3829787 0 0 0 -0.02489,-0.0011 z M 14.071,6.1034275 a 1.3829787,1.3829787 0 0 0 -1.112745,1.480617 c 0,0 0.02047,0.231787 0.02047,0.416 0,0.184212 -0.02047,0.416 -0.02047,0.416 A 1.3829787,1.3829787 0 0 0 14.065745,9.8952787 6.361702,6.361702 0 0 0 14.361702,8.0000445 6.361702,6.361702 0 0 0 14.071,6.1034275 Z M 3.060277,10.688279 a 1.3829787,1.3829787 0 0 0 -0.67849,0.229021 1.3829787,1.3829787 0 0 0 -0.01245,0.01134 6.361702,6.361702 0 0 0 2.700957,2.701511 1.3829787,1.3829787 0 0 0 0.01245,-0.01272 1.3829787,1.3829787 0 0 0 -0.383639,-1.917362 c 0,0 -0.152957,-0.113128 -0.21934,-0.178958 l -8.3e-4,-8.29e-4 C 4.412825,11.453902 4.300531,11.300941 4.300531,11.300941 A 1.3829787,1.3829787 0 0 0 3.41985,10.712069 1.3829787,1.3829787 0 0 0 3.060276,10.688279 Z m 9.888297,0.01825 a 1.3829787,1.3829787 0 0 0 -1.149808,0.505617 c 0,0 -0.148532,0.178957 -0.279638,0.310064 -0.130554,0.13 -0.307022,0.276596 -0.307022,0.276596 a 1.3829787,1.3829787 0 0 0 -0.267468,1.823319 6.361702,6.361702 0 0 0 2.677447,-2.677447 1.3829787,1.3829787 0 0 0 -0.673511,-0.238149 z M 7.584,12.958295 A 1.3829787,1.3829787 0 0 0 6.104766,14.065785 6.361702,6.361702 0 0 0 8,14.361742 6.361702,6.361702 0 0 0 9.895234,14.065785 1.3829787,1.3829787 0 0 0 8.416,12.958295 c 0,0 -0.231787,0.02047 -0.416,0.02047 -0.184213,0 -0.416,-0.02047 -0.416,-0.02047 z"
       id="path3" />
    <path
       style="fill:url(#linearGradient5);stroke-width:0.276596"
       d="M 8,1.3617045 A 6.361702,6.361702 0 0 0 6.104766,1.6576615 1.3829787,1.3829787 0 0 0 7.584,2.7651515 c 0,0 0.231787,-0.02047 0.416,-0.02047 0.184213,0 0.416,0.02047 0.416,0.02047 A 1.3829787,1.3829787 0 0 0 9.896617,1.6524065 6.361702,6.361702 0 0 0 8,1.3617045 Z m 2.95183,0.72717 a 1.3829787,1.3829787 0 0 0 0.260276,1.83466 c 0,0 0.178405,0.149085 0.308958,0.279638 0.13,0.130553 0.277702,0.308128 0.277702,0.308128 a 1.3829787,1.3829787 0 0 0 1.835213,0.259723 6.361702,6.361702 0 0 0 -2.682149,-2.682149 z m -5.883745,0.0053 a 6.361702,6.361702 0 0 0 -2.689617,2.684085 1.3829787,1.3829787 0 0 0 1.82166,-0.266915 c 0,0 0.149361,-0.177851 0.279638,-0.308128 0.130277,-0.130277 0.308128,-0.279638 0.308128,-0.279638 a 1.3829787,1.3829787 0 0 0 0.280191,-1.829404 z m -3.128298,3.719106 a 6.361702,6.361702 0 0 0 -0.301489,1.910126 6.361702,6.361702 0 0 0 0.301489,1.9101702 1.3829787,1.3829787 0 0 0 0.02489,-0.0011 1.3829787,1.3829787 0 0 0 1.084808,-1.6269362 c 0,0 -0.02821,-0.189745 -0.02821,-0.282128 0,-0.09238 0.02821,-0.282128 0.02821,-0.282128 a 1.3829787,1.3829787 0 0 0 -1.084808,-1.626936 1.3829787,1.3829787 0 0 0 -0.02489,-0.0011 z M 14.071,5.8268305 a 1.3829787,1.3829787 0 0 0 -1.112745,1.480617 c 0,0 0.02047,0.231787 0.02047,0.416 0,0.184213 -0.02047,0.416 -0.02047,0.416 A 1.3829787,1.3829787 0 0 0 14.065745,9.6186817 6.361702,6.361702 0 0 0 14.361702,7.7234475 6.361702,6.361702 0 0 0 14.071,5.8268305 Z M 3.060277,10.411682 a 1.3829787,1.3829787 0 0 0 -0.67849,0.229021 1.3829787,1.3829787 0 0 0 -0.01245,0.01134 6.361702,6.361702 0 0 0 2.700957,2.70151 1.3829787,1.3829787 0 0 0 0.01245,-0.01272 1.3829787,1.3829787 0 0 0 -0.383639,-1.917362 c 0,0 -0.152957,-0.113127 -0.21934,-0.178957 l -8.3e-4,-8.3e-4 c -0.06611,-0.06638 -0.178404,-0.21934 -0.178404,-0.21934 A 1.3829787,1.3829787 0 0 0 3.41985,10.435471 1.3829787,1.3829787 0 0 0 3.060276,10.411681 Z m 9.888297,0.01826 a 1.3829787,1.3829787 0 0 0 -1.149808,0.505617 c 0,0 -0.148532,0.178958 -0.279638,0.310064 -0.130554,0.13 -0.307022,0.276596 -0.307022,0.276596 a 1.3829787,1.3829787 0 0 0 -0.267468,1.823319 6.361702,6.361702 0 0 0 2.677447,-2.677447 1.3829787,1.3829787 0 0 0 -0.673511,-0.238149 z M 7.584,12.681708 A 1.3829787,1.3829787 0 0 0 6.104766,13.789198 6.361702,6.361702 0 0 0 8,14.085155 6.361702,6.361702 0 0 0 9.895234,13.789198 1.3829787,1.3829787 0 0 0 8.416,12.681708 c 0,0 -0.231787,0.02047 -0.416,0.02047 -0.184213,0 -0.416,-0.02047 -0.416,-0.02047 z"
       id="path4" />
  </g>
</svg>
