<?xml version="1.0" encoding="UTF-8" standalone="no"?>
<!-- Generator: Gravit.io -->

<svg
   style="isolation:isolate"
   viewBox="0 0 16 16"
   width="16"
   height="16"
   version="1.1"
   id="svg6"
   sodipodi:docname="logo_about_biz.svg"
   inkscape:version="1.4.4 (unknown)"
   xmlns:inkscape="http://www.inkscape.org/namespaces/inkscape"
   xmlns:sodipodi="http://sodipodi.sourceforge.net/DTD/sodipodi-0.dtd"
   xmlns="http://www.w3.org/2000/svg"
   xmlns:svg="http://www.w3.org/2000/svg">
  <defs
     id="defs6" />
  <sodipodi:namedview
     id="namedview6"
     pagecolor="#ffffff"
     bordercolor="#000000"
     borderopacity="0.25"
     inkscape:showpageshadow="2"
     inkscape:pageopacity="0.0"
     inkscape:pagecheckerboard="0"
     inkscape:deskcolor="#d1d1d1"
     inkscape:document-units="px"
     inkscape:zoom="11.828125"
     inkscape:cx="8.9616909"
     inkscape:cy="-3.5085865"
     inkscape:window-width="1920"
     inkscape:window-height="994"
     inkscape:window-x="0"
     inkscape:window-y="0"
     inkscape:window-maximized="1"
     inkscape:current-layer="svg6" />
  <linearGradient
     id="_lgradient_18"
     x1="0.030761719"
     y1="0.92285156"
     x2="0.93603516"
     y2="0.10107422"
     gradientTransform="matrix(13,0,0,13,1.5,1.5)"
     gradientUnits="userSpaceOnUse">
    <stop
       offset="0%"
       stop-opacity="1"
       style="stop-color:rgb(243,137,95)"
       id="stop1" />
    <stop
       offset="66.47858673673248%"
       stop-opacity="1"
       style="stop-color:rgb(150,34,170)"
       id="stop2" />
    <stop
       offset="100%"
       stop-opacity="1"
       style="stop-color:rgb(74,30,239)"
       id="stop3" />
  </linearGradient>
  <linearGradient
     id="_lgradient_19"
     x1="0"
     y1="0.5"
     x2="1"
     y2="0.5"
     gradientTransform="matrix(8.6165624,0,0,7.3154791,3.6918541,4.3423958)"
     gradientUnits="userSpaceOnUse">
    <stop
       offset="0%"
       stop-opacity="1"
       style="stop-color:rgb(135,154,242)"
       id="stop4" />
    <stop
       offset="47.91666666666667%"
       stop-opacity="1"
       style="stop-color:rgb(211,32,139)"
       id="stop5" />
    <stop
       offset="97.91666666666666%"
       stop-opacity="1"
       style="stop-color:rgb(253,160,0)"
       id="stop6" />
  </linearGradient>
  <g
     id="g6">
    <path
       d="M 14.5,3.5223125 V 12.477688 C 14.5,13.593792 13.593792,14.5 12.477688,14.5 H 3.5223125 C 2.4062083,14.5 1.5,13.593792 1.5,12.477688 V 3.5223125 C 1.5,2.4062083 2.4062083,1.5 3.5223125,1.5 H 12.477688 C 13.593792,1.5 14.5,2.4062083 14.5,3.5223125 Z m -1.444354,0.2887083 v 8.3779582 c 0,0.478292 -0.388375,0.866667 -0.866667,0.866667 H 3.8110208 c -0.4782916,0 -0.8666666,-0.388375 -0.8666666,-0.866667 V 3.8110208 c 0,-0.4782916 0.388375,-0.8666666 0.8666666,-0.8666666 h 8.3779582 c 0.478292,0 0.866667,0.388375 0.866667,0.8666666 z"
       fill-rule="evenodd"
       fill="url(#_lgradient_18)"
       id="path3"
       style="fill:url(#_lgradient_18);stroke-width:0.270833" />
    <path
       d="M 10.178854,9.0164375 C 9.1393958,8.49725 9.256125,7.6316667 9.1269375,7.202125 8.3889167,4.5417292 6.9185625,4.3429375 6.7463125,4.3429375 6.3403333,4.3302083 5.6207292,4.5225 5.5652083,5.3685833 5.4912708,6.5737917 7.133875,6.496875 7.7429792,6.984375 8.1611458,7.3175 8.4441667,8.0612083 7.6815,7.9011458 6.7587708,7.5420208 5.6759792,7.6508958 5.2269375,7.8431875 4.4702292,8.1703542 4.1996667,8.5933958 4.1257292,8.6830417 4.0520625,8.7729583 3.1106458,10.119271 4.2549167,11.228333 5.153,12.100146 6.3771667,11.484813 6.8570833,10.792292 7.1460625,10.37575 7.3491875,9.9654375 7.5766875,9.5998125 8.4750417,8.4715208 9.545375,9.2087292 9.8283958,9.7346875 c 0.4306252,0.8011255 0.7380212,1.2052085 1.1255832,0.9360005 0.393792,-0.26948 0.3445,-1.0963338 -0.775125,-1.6542505 z M 9.9868333,7.9355417 C 10.397146,7.4342292 10.943958,7.16475 11.202604,7.2359792 c 0.144896,0.039813 0.383229,0.056604 0.532188,0.037917 0.533812,-0.067708 0.738833,-0.6045 0.426021,-1.04325 -0.07827,-0.1096875 -0.226959,-0.2665 -0.332042,-0.3504583 -0.6305,-0.5037504 -1.272646,-0.2228962 -1.724125,0.6115413 -0.1863335,0.2873541 -0.2743543,0.8341666 -0.2727293,1.3888333 2.708e-4,0.1343333 0.069875,0.1589792 0.1549166,0.054979 z"
       fill-rule="evenodd"
       fill="url(#_lgradient_19)"
       id="path6"
       style="fill:url(#_lgradient_19);stroke-width:0.270833" />
  </g>
</svg>
