<?xml version="1.0" encoding="UTF-8" standalone="no"?>
<!-- Created with Inkscape (http://www.inkscape.org/) -->

<svg
   width="16"
   height="16"
   viewBox="0 0 4.2333333 4.2333333"
   version="1.1"
   id="svg1"
   inkscape:version="1.4.4 (unknown)"
   sodipodi:docname="com.logseq.Logseq.svg"
   xmlns:inkscape="http://www.inkscape.org/namespaces/inkscape"
   xmlns:sodipodi="http://sodipodi.sourceforge.net/DTD/sodipodi-0.dtd"
   xmlns:xlink="http://www.w3.org/1999/xlink"
   xmlns="http://www.w3.org/2000/svg"
   xmlns:svg="http://www.w3.org/2000/svg">
  <sodipodi:namedview
     id="namedview1"
     pagecolor="#ffffff"
     bordercolor="#666666"
     borderopacity="1.0"
     inkscape:showpageshadow="2"
     inkscape:pageopacity="0.0"
     inkscape:pagecheckerboard="0"
     inkscape:deskcolor="#d1d1d1"
     inkscape:document-units="px"
     inkscape:zoom="16.548485"
     inkscape:cx="8.1578466"
     inkscape:cy="4.4414943"
     inkscape:window-width="1920"
     inkscape:window-height="994"
     inkscape:window-x="0"
     inkscape:window-y="0"
     inkscape:window-maximized="1"
     inkscape:current-layer="layer1" />
  <defs
     id="defs1">
    <linearGradient
       id="linearGradient5"
       inkscape:collect="always">
      <stop
         style="stop-color:#8d5fd3;stop-opacity:1"
         offset="0"
         id="stop1" />
      <stop
         style="stop-color:#00cdd7;stop-opacity:1;"
         offset="1"
         id="stop4" />
    </linearGradient>
    <linearGradient
       inkscape:collect="always"
       xlink:href="#linearGradient2"
       id="linearGradient3"
       x1="15.078401"
       y1="0.98243433"
       x2="3.4142568"
       y2="12.785362"
       gradientUnits="userSpaceOnUse"
       gradientTransform="matrix(0.20312496,0,0,0.20312496,-0.02050275,-1.3299287e-6)" />
    <linearGradient
       id="linearGradient2"
       inkscape:collect="always">
      <stop
         style="stop-color:#2086d7;stop-opacity:1;"
         offset="0"
         id="stop2" />
      <stop
         style="stop-color:#8d5fd3;stop-opacity:1"
         offset="1"
         id="stop3" />
    </linearGradient>
    <linearGradient
       inkscape:collect="always"
       xlink:href="#linearGradient5"
       id="linearGradient4"
       x1="10.559498"
       y1="7.1664028"
       x2="6.8839021"
       y2="12.580176"
       gradientUnits="userSpaceOnUse"
       gradientTransform="matrix(0.20312496,0,0,0.20312496,-0.02050275,-1.3299287e-6)" />
  </defs>
  <g
     inkscape:label="Capa 1"
     inkscape:groupmode="layer"
     id="layer1">
    <g
       id="g1"
       transform="translate(0.41737814,0.39687665)">
      <rect
         style="display:inline;fill:none;fill-opacity:0.649331;stroke:url(#linearGradient3);stroke-width:0.269011;stroke-miterlimit:4.4;stroke-dasharray:none;paint-order:stroke fill markers"
         id="rect1"
         width="3.1810243"
         height="3.1705728"
         x="0.10877635"
         y="0.13450362"
         ry="0.83257639" />
      <path
         style="fill:url(#linearGradient4);stroke-width:0.0799654"
         d="M 2.000399,0.72022636 A 0.23327407,0.36417192 78.453373 0 0 1.859991,0.73912489 0.23327407,0.36417192 78.453373 0 0 1.5880775,1.0536761 0.23327407,0.36417192 78.453373 0 0 2.01836,1.181121 0.23327407,0.36417192 78.453373 0 0 2.2902732,0.86656981 0.23327407,0.36417192 78.453373 0 0 2.000399,0.72022697 Z M 0.87541747,0.80066009 A 0.40069663,0.31371625 45.000001 0 0 0.6872174,0.88624809 0.40069663,0.31371625 45.000001 0 0 0.76983811,1.3935286 0.40069663,0.31371625 45.000001 0 0 1.2719643,1.4338236 0.40069663,0.31371625 45.000001 0 0 1.189344,0.92654309 0.40069663,0.31371625 45.000001 0 0 0.87541747,0.80066009 Z M 1.9391753,1.4399147 A 0.83963643,0.63972297 0 0 0 1.0995389,2.0796377 0.83963643,0.63972297 0 0 0 1.9391753,2.7193605 0.83963643,0.63972297 0 0 0 2.7788117,2.0796377 0.83963643,0.63972297 0 0 0 1.9391753,1.4399147 Z"
         id="path4" />
    </g>
  </g>
</svg>
