<?xml version="1.0" encoding="UTF-8" standalone="no"?>
<svg
   width="16"
   height="16"
   version="1"
   id="svg21"
   sodipodi:docname="lunarclient.svg"
   inkscape:version="1.4.4 (unknown)"
   xmlns:inkscape="http://www.inkscape.org/namespaces/inkscape"
   xmlns:sodipodi="http://sodipodi.sourceforge.net/DTD/sodipodi-0.dtd"
   xmlns="http://www.w3.org/2000/svg"
   xmlns:svg="http://www.w3.org/2000/svg">
  <defs
     id="defs21" />
  <sodipodi:namedview
     id="namedview21"
     pagecolor="#ffffff"
     bordercolor="#000000"
     borderopacity="0.25"
     inkscape:showpageshadow="2"
     inkscape:pageopacity="0.0"
     inkscape:pagecheckerboard="0"
     inkscape:deskcolor="#d1d1d1"
     inkscape:zoom="32.742616"
     inkscape:cx="7.2382732"
     inkscape:cy="8.8722294"
     inkscape:window-width="1920"
     inkscape:window-height="994"
     inkscape:window-x="0"
     inkscape:window-y="0"
     inkscape:window-maximized="1"
     inkscape:current-layer="svg21" />
  <g
     id="g1"
     transform="translate(-9.245661,-8.3790587)">
    <path
       style="opacity:0.31057063;stroke-width:0.341694;stroke:#d063d2;stroke-opacity:1"
       d="m 17.635265,10.220531 a 0.51195177,0.51323486 0 0 0 -0.226622,0.06348 c 0,0 -1.514662,0.832041 -3.033411,1.726648 -0.759375,0.447304 -1.519089,0.909466 -2.100925,1.298328 -0.290919,0.194431 -0.535909,0.368805 -0.725859,0.52588 -0.09498,0.07854 -0.176138,0.15057 -0.251285,0.236545 -0.07515,0.08597 -0.194629,0.159454 -0.194629,0.459727 v 5.61094 h 1.023801 v -5.448565 c 0.02338,-0.02214 0.03453,-0.03474 0.07332,-0.06682 0.140384,-0.116087 0.367173,-0.279697 0.642542,-0.463736 0.550739,-0.368079 1.300877,-0.825382 2.051602,-1.267591 1.377025,-0.811126 2.538139,-1.449405 2.757464,-1.570288 0.216748,0.122229 1.34735,0.757569 2.691478,1.567616 0.733647,0.442136 1.467019,0.899098 2.004944,1.266922 0.268962,0.183911 0.490428,0.347344 0.627211,0.463068 0.03822,0.03234 0.04922,0.04539 0.07199,0.06749 v 5.451907 h 1.023801 v -5.61094 c 0,-0.294166 -0.115649,-0.368843 -0.189297,-0.455049 -0.07365,-0.08621 -0.152907,-0.159163 -0.245952,-0.237882 -0.186089,-0.157438 -0.425995,-0.331989 -0.710529,-0.526548 -0.569065,-0.389118 -1.311927,-0.850952 -2.054267,-1.298328 -1.484681,-0.894751 -2.965424,-1.727317 -2.965424,-1.727317 a 0.51195177,0.51323486 0 0 0 -0.234621,-0.06548 0.51195177,0.51323486 0 0 0 -0.03533,0 z m 0.121977,1.881673 -0.120644,0.221177 -0.220623,0.120945 0.220623,0.120946 0.120644,0.221177 0.120643,-0.221177 0.220624,-0.120946 -0.220624,-0.120945 z m -1.567029,0.8239 c -1.63005,0.655708 -2.698594,2.23911 -2.69881,3.999891 10e-7,1.726745 1.015027,3.212224 2.47752,3.900329 H 10.42 v 0.227859 h 1.365068 V 21.28271 H 10.42 v 0.227859 h 2.047602 v 0.227859 h -1.365068 v 0.228526 h 2.730137 v 0.22786 h -1.365069 v 0.227858 h 3.071404 v 0.228527 h -0.682534 v 0.227859 h 4.777738 v -0.227859 h -0.682534 v -0.228527 h 3.071404 v -0.227858 h -1.365068 v -0.22786 h 2.730136 V 21.738428 H 22.02308 v -0.227859 h 2.047602 V 21.28271 h -1.365068 v -0.228527 h 1.365068 v -0.227859 h -4.450469 c 0.96415,-0.454712 1.748083,-1.261538 2.161581,-2.294625 -0.50911,0.20499 -1.053052,0.30988 -1.60169,0.310048 -2.374797,0 -4.299831,-1.929859 -4.299831,-4.310608 1.67e-4,-0.550013 0.105461,-1.09465 0.30994,-1.605035 z m 4.638432,1.228834 -0.120643,0.221177 -0.220624,0.120946 0.220624,0.120945 0.120643,0.221177 0.120644,-0.221177 0.220623,-0.120945 -0.220623,-0.120946 z m -3.753937,0.171061 -0.181299,0.331431 -0.330602,0.181753 0.330602,0.181752 0.181299,0.331431 0.181298,-0.331431 0.330602,-0.181752 -0.330602,-0.181753 z m -4.095205,0.171062 -0.120644,0.221176 -0.220623,0.120946 0.220623,0.120946 0.120644,0.221176 0.120643,-0.221176 0.220624,-0.120946 -0.220624,-0.120946 z m 5.80154,0.684244 -0.120644,0.221177 -0.220623,0.120945 0.220623,0.120946 0.120644,0.221177 0.120643,-0.221177 0.220624,-0.120946 -0.220624,-0.120945 z m 2.730136,0.684245 -0.241286,0.442354 -0.441248,0.241891 0.441248,0.241891 0.241286,0.442353 0.241286,-0.442353 0.441248,-0.241891 -0.441248,-0.241891 z m -2.047602,0.855306 -0.181298,0.331431 -0.330603,0.181752 0.330603,0.181753 0.181298,0.331431 0.181298,-0.331431 0.330602,-0.181753 -0.330602,-0.181752 z m -6.142807,1.881673 -0.241286,0.442353 -0.441248,0.241892 0.441248,0.241891 0.241286,0.442353 0.241286,-0.442353 0.441248,-0.241891 -0.441248,-0.241892 z"
       id="path3" />
    <path
       style="fill:#ffe680;stroke-width:0.341694"
       d="m 17.757242,11.760082 0.120656,0.221163 0.220611,0.120959 -0.220611,0.120958 -0.120656,0.221164 -0.120656,-0.221164 -0.220611,-0.120958 0.220611,-0.120959 z"
       id="path4" />
    <path
       style="fill:#f6d32d;stroke-width:0.341694"
       d="m 20.828645,13.812816 0.120656,0.221164 0.220611,0.120958 -0.220611,0.120959 -0.120656,0.221164 -0.120656,-0.221164 -0.220611,-0.120959 0.220611,-0.120958 z"
       id="path5" />
    <path
       style="fill:#f5c211;stroke-width:0.341694"
       d="m 12.979503,14.154938 0.120656,0.221164 0.220611,0.120959 -0.220611,0.120958 -0.120656,0.221164 -0.120656,-0.221164 -0.220611,-0.120958 0.220611,-0.120959 z"
       id="path6" />
    <path
       style="fill:#ffe680;stroke-width:0.341694"
       d="m 17.074708,13.983877 0.180984,0.331746 0.330916,0.181438 -0.330916,0.181437 -0.180984,0.331746 -0.180984,-0.331746 -0.330917,-0.181437 0.330917,-0.181438 z"
       id="path7" />
    <path
       style="fill:#ffbe6f;stroke-width:0.341694"
       d="m 18.781043,14.839183 0.120656,0.221164 0.220611,0.120958 -0.220611,0.120958 -0.120656,0.221164 -0.120656,-0.221164 -0.220611,-0.120958 0.220611,-0.120958 z"
       id="path8" />
    <path
       style="fill:#ffeeaa;stroke-width:0.341694"
       d="m 21.511179,15.523427 0.241313,0.442328 0.441221,0.241917 -0.441221,0.241917 -0.241313,0.442328 -0.241312,-0.442328 -0.441222,-0.241917 0.441222,-0.241917 z"
       id="path9" />
    <path
       style="fill:#ffe680;stroke-width:0.341694"
       d="m 19.463577,16.378734 0.180984,0.331745 0.330916,0.181438 -0.330916,0.181438 -0.180984,0.331746 -0.180984,-0.331746 -0.330917,-0.181438 0.330917,-0.181438 z"
       id="path10" />
    <path
       style="fill:#ffe680;stroke-width:0.341694"
       d="m 13.32077,18.260406 0.241312,0.442328 0.441222,0.241917 -0.441222,0.241917 -0.241312,0.442328 -0.241312,-0.442328 -0.441222,-0.241917 0.441222,-0.241917 z"
       id="path11" />
    <path
       style="fill:none;stroke:#dc8add;stroke-width:1.02508;stroke-linejoin:round;stroke-opacity:1"
       d="m 11.614435,19.799957 v -5.61083 c 0,-0.478969 6.040397,-3.797535 6.040397,-3.797535 0,0 5.90395,3.318566 5.90395,3.797535 v 5.61083"
       id="path12" />
    <path
       style="fill:#ffeeaa;stroke-width:0.341694"
       d="m 16.19007,12.583831 a 4.2999502,4.310727 0 0 0 -2.698667,4.000145 4.2999502,4.310727 0 0 0 4.299951,4.310726 4.2999502,4.310727 0 0 0 3.990144,-2.70543 4.2999502,4.310727 0 0 1 -1.601283,0.310582 4.2999502,4.310727 0 0 1 -4.299951,-4.310727 4.2999502,4.310727 0 0 1 0.309806,-1.605296 z"
       id="path13" />
    <rect
       style="fill:#ffffff;stroke-width:0.341694"
       width="13.650682"
       height="0.22819561"
       x="10.42"
       y="20.484201"
       id="rect13" />
    <rect
       style="fill:#ffffff;stroke-width:0.341694"
       width="13.650682"
       height="0.22819561"
       x="10.42"
       y="20.939226"
       id="rect14" />
    <rect
       style="fill:#ffffff;stroke-width:0.341694"
       width="12.285613"
       height="0.22819561"
       x="11.102534"
       y="21.397669"
       id="rect15" />
    <rect
       style="fill:#ffffff;stroke-width:0.341694"
       width="9.5554781"
       height="0.22819561"
       x="12.467602"
       y="21.852692"
       id="rect16" />
    <rect
       style="fill:#ffffff;stroke-width:0.341694"
       width="4.777739"
       height="0.22819561"
       x="14.856472"
       y="22.307714"
       id="rect17" />
    <rect
       style="fill:#99c1f1;stroke-width:0.341694"
       width="10.920546"
       height="0.22819561"
       x="11.785069"
       y="20.713423"
       id="rect18" />
    <rect
       style="fill:#99c1f1;stroke-width:0.341694"
       width="9.5554781"
       height="0.22819561"
       x="12.467602"
       y="21.168446"
       id="rect19" />
    <rect
       style="fill:none;stroke-width:0.341694"
       width="6.8253412"
       height="0.22819561"
       x="13.83267"
       y="21.62347"
       id="rect20" />
    <rect
       style="fill:#99c1f1;stroke-width:0.341694"
       width="3.4126706"
       height="0.22819561"
       x="15.539006"
       y="22.081913"
       id="rect21" />
  </g>
</svg>
