<?xml version="1.0" encoding="UTF-8" standalone="no"?>
<!-- Generator: Gravit.io -->

<svg
   style="isolation:isolate"
   viewBox="0 0 16 16"
   width="16"
   height="16"
   version="1.1"
   id="svg2"
   sodipodi:docname="makehuman.svg"
   inkscape:version="1.4.4 (unknown)"
   xmlns:inkscape="http://www.inkscape.org/namespaces/inkscape"
   xmlns:sodipodi="http://sodipodi.sourceforge.net/DTD/sodipodi-0.dtd"
   xmlns:xlink="http://www.w3.org/1999/xlink"
   xmlns="http://www.w3.org/2000/svg"
   xmlns:svg="http://www.w3.org/2000/svg">
  <defs
     id="defs2">
    <linearGradient
       id="linearGradient2"
       inkscape:collect="always">
      <stop
         style="stop-color:#ffcc00;stop-opacity:1"
         offset="0"
         id="stop3" />
      <stop
         style="stop-color:#7137c8;stop-opacity:1"
         offset="1"
         id="stop4" />
    </linearGradient>
    <linearGradient
       inkscape:collect="always"
       xlink:href="#linearGradient2"
       id="linearGradient4"
       x1="5.3988919"
       y1="5.3971415"
       x2="10.230515"
       y2="9.1836195"
       gradientUnits="userSpaceOnUse" />
  </defs>
  <sodipodi:namedview
     id="namedview2"
     pagecolor="#ffffff"
     bordercolor="#000000"
     borderopacity="0.25"
     inkscape:showpageshadow="2"
     inkscape:pageopacity="0.0"
     inkscape:pagecheckerboard="0"
     inkscape:deskcolor="#d1d1d1"
     inkscape:document-units="px"
     inkscape:zoom="23.65625"
     inkscape:cx="8.2430647"
     inkscape:cy="8.8560106"
     inkscape:window-width="1920"
     inkscape:window-height="994"
     inkscape:window-x="0"
     inkscape:window-y="0"
     inkscape:window-maximized="1"
     inkscape:current-layer="svg2" />
  <linearGradient
     id="_lgradient_12"
     x1="0"
     y1="0.5"
     x2="1"
     y2="0.5"
     gradientTransform="matrix(13,0,0,13,1.5,1.5)"
     gradientUnits="userSpaceOnUse">
    <stop
       offset="0%"
       stop-opacity="1"
       style="stop-color:rgb(255,224,49)"
       id="stop1" />
    <stop
       offset="98.69565217391305%"
       stop-opacity="1"
       style="stop-color:rgb(252,82,82)"
       id="stop2" />
  </linearGradient>
  <path
     d="m 8,4.4791667 c -0.2992708,0 -0.5416667,0.2423958 -0.5416667,0.5416666 C 7.4583333,5.3201042 7.7007292,5.5625 8,5.5625 8.2992708,5.5625 8.5416667,5.3201042 8.5416667,5.0208333 8.5416667,4.7215625 8.2992708,4.4791667 8,4.4791667 Z m -3.7916667,0.5416666 2.4375,1.625 1.0833334,5.9583337 V 8 h 0.5416666 v 4.604167 l 1.0833334,-5.9583337 2.4375003,-1.625 -3.5208337,1.1128542 V 7.1875 H 7.7291667 V 6.1336875 Z m 6.9577087,8.0261457 v 0 c 0.158437,0.253229 -0.02112,0.652709 -0.400834,0.891313 C 10.418542,14.156042 9.2214583,14.5 8,14.5 6.2775,14.5 4.6227083,13.814792 3.4039583,12.596042 2.1852083,11.377292 1.5,9.7225 1.5,8 1.5,7.17125 1.6570833,6.350625 1.6622292,6.3378958 c 0.1676458,-0.416 0.5286666,-0.6638125 0.806,-0.5533125 v 0 c 0.2773333,0.1105 0.3870208,0.4880417 0.2451041,0.8422917 0,0 -0.13,0.6825 -0.13,1.373125 0,1.4354167 0.5714584,2.813958 1.5870834,3.829583 1.015625,1.015625 2.3941666,1.587084 3.8295833,1.587084 1.0183333,0 2.015,-0.287084 2.1905,-0.397042 0.379979,-0.238333 0.817104,-0.225875 0.975542,0.02735 z M 6.0865625,2.3571875 v 0 C 5.9901458,2.0738958 6.214125,1.742125 6.58625,1.6164583 6.58625,1.6164583 7.2904167,1.5 8,1.5 9.7225,1.5 11.377292,2.1852083 12.596042,3.4039583 13.814792,4.6227083 14.5,6.2775 14.5,8 c 0,0.934375 -0.200417,1.8579167 -0.364,2.213521 -0.124854,0.271646 -0.446604,0.391354 -0.717979,0.267312 v 0 C 13.146646,10.356792 13.027208,10.035313 13.15125,9.763125 13.24875,9.5491667 13.416667,8.7772917 13.416667,8 c 0,-1.4354167 -0.571459,-2.8139583 -1.587084,-3.8295833 C 10.813958,3.1547917 9.4354167,2.5833333 8,2.5833333 c -0.5904167,0 -1.178125,0.094792 -1.178125,0.094792 C 6.5125833,2.7842917 6.1829792,2.6404792 6.0865625,2.3571875 Z"
     fill-rule="evenodd"
     id="path2"
     style="fill:url(#linearGradient4)" />
</svg>
