<?xml version="1.0" encoding="UTF-8" standalone="no"?>
<svg
   width="16"
   height="16"
   version="1.1"
   viewBox="0 0 16 16"
   id="svg4"
   sodipodi:docname="masterduel.svg"
   inkscape:version="1.4.4 (unknown)"
   xmlns:inkscape="http://www.inkscape.org/namespaces/inkscape"
   xmlns:sodipodi="http://sodipodi.sourceforge.net/DTD/sodipodi-0.dtd"
   xmlns:xlink="http://www.w3.org/1999/xlink"
   xmlns="http://www.w3.org/2000/svg"
   xmlns:svg="http://www.w3.org/2000/svg">
  <sodipodi:namedview
     id="namedview4"
     pagecolor="#ffffff"
     bordercolor="#000000"
     borderopacity="0.25"
     inkscape:showpageshadow="2"
     inkscape:pageopacity="0.0"
     inkscape:pagecheckerboard="0"
     inkscape:deskcolor="#d1d1d1"
     inkscape:zoom="15.770833"
     inkscape:cx="7.6089828"
     inkscape:cy="2.2509908"
     inkscape:window-width="1920"
     inkscape:window-height="994"
     inkscape:window-x="0"
     inkscape:window-y="0"
     inkscape:window-maximized="1"
     inkscape:current-layer="svg4" />
  <defs
     id="defs2">
    <linearGradient
       id="linearGradient7">
      <stop
         stop-color="#ffe752"
         offset=".34628"
         id="stop6" />
      <stop
         stop-color="#a77400"
         offset=".897198"
         id="stop7"
         style="stop-color:#ff7f2a;stop-opacity:1" />
    </linearGradient>
    <linearGradient
       id="linearGradient14">
      <stop
         stop-color="#ffe752"
         offset=".34628"
         id="stop1" />
      <stop
         stop-color="#a77400"
         offset=".897198"
         id="stop2" />
    </linearGradient>
    <linearGradient
       id="linearGradient20"
       x1="-11.6925"
       x2="12.5979"
       y1="-11.3704"
       y2="12.92"
       gradientTransform="matrix(0.522841,0,0,0.522841,6.1133,5.94489)"
       gradientUnits="userSpaceOnUse"
       xlink:href="#linearGradient7" />
    <linearGradient
       id="linearGradient9"
       x2="12.7"
       y2="12.7"
       gradientUnits="userSpaceOnUse"
       xlink:href="#linearGradient14" />
    <linearGradient
       inkscape:collect="always"
       xlink:href="#linearGradient14"
       id="linearGradient4"
       gradientUnits="userSpaceOnUse"
       x2="12.7"
       y2="12.7" />
    <linearGradient
       inkscape:collect="always"
       xlink:href="#linearGradient14"
       id="linearGradient5"
       gradientUnits="userSpaceOnUse"
       x2="12.7"
       y2="12.7" />
    <linearGradient
       inkscape:collect="always"
       xlink:href="#linearGradient14"
       id="linearGradient6"
       gradientUnits="userSpaceOnUse"
       x2="12.7"
       y2="12.7" />
  </defs>
  <g
     fill="none"
     stroke-linejoin="round"
     id="g4"
     transform="matrix(1.0391027,0,0,1.0319602,1.4016982,1.4470591)">
    <g
       stroke="url(#linearGradient9)"
       stroke-opacity="0.999789"
       id="g3"
       style="stroke:url(#linearGradient9)">
      <circle
         cx="6.3499999"
         cy="5.7174001"
         r="0.47883901"
         stroke-width="0.548811"
         style="stroke:url(#linearGradient4);paint-order:stroke fill markers"
         id="circle2" />
      <path
         transform="translate(0,-0.632599)"
         d="m 4.32642,6.08609 c 1.15214,0 1.28215,-0.760965 2.02358,-0.760965 M 8.37358,6.08609 C 7.22144,6.08609 7.09143,5.325125 6.35,5.325125 m -2.02358,1.28879 c 1.15214,0 1.28215,0.760965 2.02358,0.760965 M 8.37358,6.613915 C 7.22144,6.613915 7.09143,7.37488 6.35,7.37488"
         stroke-linecap="round"
         stroke-width="0.5"
         id="path2"
         style="stroke:url(#linearGradient5)" />
      <path
         d="m 5.8912,7.13339 c 0,0.881623 -0.166795,1.3603 -0.559648,1.37283 m 1.47724,-1.37283 c 0,0.881623 0.138515,1.39234 0.562783,1.38119 C 7.569152,8.5093903 7.735416,8.370872 7.766412,8.163427 7.7929964,7.985504 7.7128466,7.779993 7.587853,7.728874 7.414906,7.6581422 7.180371,7.829177 7.360082,8.092472"
         stroke-linecap="round"
         stroke-width="0.4"
         id="path3"
         style="stroke:url(#linearGradient6);fill:#ff7f2a" />
    </g>
    <path
       d="M 7.416,3.08454 C 7.967375,2.503268 7.951245,1.58743 7.3797444,1.02593 c -0.573708,-0.563545 -1.49256,-0.55685 -2.05949,0 -0.571501,0.5615 -0.58763,1.47734 -0.036255,2.05861 m 0,0 h -4.634 l 1.425,2.25182 m 2.1375,3.37773 2.1375,3.37773 2.1375,-3.37773 M 10.625,5.33636 12.05,3.08454 H 7.4159989"
       stroke="url(#linearGradient20)"
       stroke-linecap="round"
       stroke-width="1.11"
       style="stroke:url(#linearGradient20);paint-order:stroke fill markers"
       id="path4" />
  </g>
</svg>
