<?xml version="1.0" encoding="UTF-8" standalone="no"?>
<svg
   width="16"
   height="16"
   version="1.1"
   id="svg6"
   sodipodi:docname="mediawriter.svg"
   inkscape:version="1.4.4 (unknown)"
   xmlns:inkscape="http://www.inkscape.org/namespaces/inkscape"
   xmlns:sodipodi="http://sodipodi.sourceforge.net/DTD/sodipodi-0.dtd"
   xmlns="http://www.w3.org/2000/svg"
   xmlns:svg="http://www.w3.org/2000/svg">
  <defs
     id="defs6" />
  <sodipodi:namedview
     id="namedview6"
     pagecolor="#ffffff"
     bordercolor="#000000"
     borderopacity="0.25"
     inkscape:showpageshadow="2"
     inkscape:pageopacity="0.0"
     inkscape:pagecheckerboard="0"
     inkscape:deskcolor="#d1d1d1"
     inkscape:zoom="23.5"
     inkscape:cx="8.8085106"
     inkscape:cy="5.3829787"
     inkscape:window-width="1920"
     inkscape:window-height="994"
     inkscape:window-x="0"
     inkscape:window-y="0"
     inkscape:window-maximized="1"
     inkscape:current-layer="svg6" />
  <g
     id="g1"
     transform="translate(0.32974762,0.57648337)">
    <rect
       style="opacity:0.2;stroke-width:0.172107"
       width="4.2510853"
       height="2.5153961"
       x="3.5136669"
       y="11.447619"
       rx="0.60723412"
       ry="0.35930446"
       id="rect1" />
    <rect
       style="fill:#aaeeff;stroke-width:0.172107"
       width="4.2510853"
       height="2.5153961"
       x="3.5136669"
       y="11.315227"
       rx="0.60723412"
       ry="0.35930446"
       id="rect2" />
    <path
       style="fill:#42a5e9;fill-opacity:0.01;stroke:#42a5e9;stroke-width:1.16099;stroke-dasharray:none;stroke-opacity:1"
       d="m 7.6702446,1.4645127 c -2.6581079,0 -4.8128799,2.1545224 -4.8128799,4.8130942 0.00128,0.069379 0.00339,0.1387528 0.00768,0.2081295 h -0.00768 V 9.993955 h 0.00173 c 0.025208,0.593554 0.4999173,1.06891 1.092127,1.094175 v 0.0023 h 3.7190389 c 2.6581064,6e-6 4.8128794,-2.1549449 4.8128794,-4.8126605 4.25e-4,-2.6586346 -2.154349,-4.813157 -4.812883,-4.813157 z m 0,0"
       id="path3" />
    <path
       style="opacity:0.2;stroke-width:0.218765"
       d="M 8.6546974,3.8709478 A 1.4219873,1.4219873 0 0 0 7.2327104,5.292935 v 2.7345908 h -0.00768 A 0.76568544,0.76568544 0 0 1 6.4670269,8.6838276 0.76568544,0.76568544 0 0 1 5.7013416,7.9181422 0.76568544,0.76568544 0 0 1 6.4670269,7.1524568 H 6.7951758 V 6.2773876 h -0.328151 a 1.6407544,1.6407544 0 0 0 -0.00813,0 1.6407544,1.6407544 0 0 0 -1.6326302,1.6407546 1.6407544,1.6407544 0 0 0 1.6407547,1.6407549 1.6407544,1.6407544 0 0 0 1.6373362,-1.5313713 h 0.00339 V 7.9262604 a 1.6407544,1.6407544 0 0 0 0,-0.00813 V 7.1524565 H 8.5453147 A 0.43753454,0.43753454 0 0 0 8.9828492,6.7149219 0.43753454,0.43753454 0 0 0 8.5453147,6.2773874 H 8.1077802 V 5.2929347 a 0.54691816,0.54691816 0 0 1 0.546918,-0.5469181 0.54691816,0.54691816 0 0 1 0.5469184,0.5469181 v 0.1093838 a 0.43753454,0.43753454 0 0 0 0.4375348,0.4375345 0.43753454,0.43753454 0 0 0 0.4375356,-0.4375345 0.43753454,0.43753454 0 0 0 0,-0.010681 v -0.208086 h -0.0045 A 1.4219873,1.4219873 0 0 0 8.6546974,3.8709478 Z"
       id="path4" />
    <path
       style="fill:#ffffff;stroke-width:0.218765"
       d="m 8.6546974,3.6521805 a 1.4219873,1.4219873 0 0 0 -1.421987,1.4219872 v 2.7345909 h -0.00768 A 0.76568544,0.76568544 0 0 1 6.4670269,8.4650602 0.76568544,0.76568544 0 0 1 5.7013416,7.6993748 0.76568544,0.76568544 0 0 1 6.4670269,6.9336895 H 6.7951758 V 6.0586206 h -0.328151 a 1.6407544,1.6407544 0 0 0 -0.00813,0 1.6407544,1.6407544 0 0 0 -1.6326323,1.6407542 1.6407544,1.6407544 0 0 0 1.6407548,1.6407546 1.6407544,1.6407544 0 0 0 1.6373361,-1.5313708 h 0.00339 V 7.7074931 a 1.6407544,1.6407544 0 0 0 0,-0.00813 V 6.9336938 H 8.5453108 A 0.43753454,0.43753454 0 0 0 8.9828492,6.4961548 0.43753454,0.43753454 0 0 0 8.5453147,6.0586203 H 8.1077802 V 5.0741675 a 0.54691816,0.54691816 0 0 1 0.546918,-0.5469181 0.54691816,0.54691816 0 0 1 0.5469184,0.5469181 v 0.1093836 a 0.43753454,0.43753454 0 0 0 0.4375348,0.4375347 0.43753454,0.43753454 0 0 0 0.4375356,-0.4375347 0.43753454,0.43753454 0 0 0 0,-0.010681 V 4.9647839 h -0.0045 A 1.4219873,1.4219873 0 0 0 8.6546974,3.6521805 Z"
       id="path5" />
    <rect
       style="opacity:1;stroke-width:0.172107;fill:#004152;fill-opacity:1"
       width="0.89496541"
       height="0.39716786"
       x="4.1848903"
       y="13.036288"
       id="rect5" />
    <rect
       style="opacity:1;stroke-width:0.172107;fill:#004152;fill-opacity:1"
       width="0.89496541"
       height="0.39716786"
       x="6.1985631"
       y="13.036288"
       id="rect6" />
  </g>
</svg>
