<?xml version="1.0" encoding="UTF-8" standalone="no"?>
<!-- Generator: Gravit.io -->

<svg
   style="isolation:isolate"
   viewBox="0 0 16 16"
   width="16"
   height="16"
   version="1.1"
   id="svg3"
   sodipodi:docname="mega.svg"
   inkscape:version="1.4.4 (unknown)"
   xmlns:inkscape="http://www.inkscape.org/namespaces/inkscape"
   xmlns:sodipodi="http://sodipodi.sourceforge.net/DTD/sodipodi-0.dtd"
   xmlns="http://www.w3.org/2000/svg"
   xmlns:svg="http://www.w3.org/2000/svg">
  <defs
     id="defs3" />
  <sodipodi:namedview
     id="namedview3"
     pagecolor="#ffffff"
     bordercolor="#000000"
     borderopacity="0.25"
     inkscape:showpageshadow="2"
     inkscape:pageopacity="0.0"
     inkscape:pagecheckerboard="0"
     inkscape:deskcolor="#d1d1d1"
     inkscape:document-units="px"
     inkscape:zoom="23.65625"
     inkscape:cx="6.5099075"
     inkscape:cy="5.8969617"
     inkscape:window-width="1920"
     inkscape:window-height="994"
     inkscape:window-x="0"
     inkscape:window-y="0"
     inkscape:window-maximized="1"
     inkscape:current-layer="svg3" />
  <linearGradient
     id="_lgradient_46"
     x1="-0.014458464"
     y1="0.009839246"
     x2="1.0164566"
     y2="1.072293"
     gradientTransform="matrix(13,0,0,13,1.5,1.5)"
     gradientUnits="userSpaceOnUse">
    <stop
       offset="0%"
       stop-opacity="1"
       style="stop-color:rgb(249,212,35)"
       id="stop1" />
    <stop
       offset="51.56237565086822%"
       stop-opacity="1"
       style="stop-color:rgb(255,78,80)"
       id="stop2" />
    <stop
       offset="99.1304347826087%"
       stop-opacity="1"
       style="stop-color:rgb(138,35,135)"
       id="stop3" />
  </linearGradient>
  <path
     d="m 5.1654348,3.4415217 v 0 c -0.265087,0.1639131 -0.6146739,0.081957 -0.78,-0.1822826 v 0 C 4.2201087,2.995 4.3012174,2.6459783 4.5663043,2.4806522 v 0 C 5.5978261,1.8391304 6.7876087,1.5 8,1.5 c 1.0993478,0 2.181739,0.2797826 3.145435,0.811087 v 0 c 0.273,0.1511956 0.37163,0.4956956 0.220435,0.7686956 v 0 c -0.151196,0.273 -0.495696,0.3716304 -0.768696,0.2204348 v 0 C 9.8030435,2.8593478 8.91,2.6304348 8,2.6304348 c -1.0032609,0 -1.983913,0.2797826 -2.8345652,0.8110869 z M 3.2776087,10.557609 v 0 c 0.1497826,0.274413 0.048326,0.618348 -0.226087,0.767282 v 0 c -0.274413,0.148935 -0.6177826,0.04691 -0.7658695,-0.2275 v 0 C 1.7684783,10.147826 1.5,9.0823913 1.5,8 1.5,7.1747826 1.6554348,6.3580435 1.9606522,5.595 v 0 C 2.0759565,5.3047609 2.4051957,5.1631739 2.6954348,5.2784783 v 0 c 0.2902391,0.1153043 0.4318261,0.4445434 0.3165217,0.7347826 v 0 C 2.7576087,6.6434783 2.6304348,7.318913 2.6304348,8 c 0,0.8930435 0.2232609,1.7719565 0.6471739,2.557609 z m 7.2121743,2.198695 v 0 c 0.276108,-0.143565 0.618065,-0.03589 0.763043,0.240218 v 0 c 0.144978,0.276108 0.03872,0.618065 -0.237391,0.763043 v 0 C 10.085652,14.245652 9.0513043,14.5 8,14.5 6.9882609,14.5 5.9878261,14.265435 5.0834783,13.810435 v 0 C 4.8042609,13.669978 4.6915,13.329435 4.8319565,13.050217 v 0 c 0.1404565,-0.279217 0.481,-0.391978 0.7602174,-0.251521 v 0 C 6.3382609,13.174565 7.1634783,13.369565 8,13.369565 c 0.8676087,0 1.721087,-0.20913 2.489783,-0.613261 z m 2.543478,-6.6328257 v 0 c -0.109087,-0.2916522 0.03956,-0.6172174 0.332065,-0.7263044 v 0 c 0.2925,-0.1090869 0.618631,0.04013 0.727717,0.3334783 v 0 C 14.361522,6.4569565 14.5,7.2256522 14.5,8 c 0,1.0230435 -0.240217,2.034783 -0.706522,2.947609 v 0 c -0.140456,0.277521 -0.480435,0.387739 -0.758804,0.245869 v 0 c -0.27837,-0.141869 -0.389152,-0.482695 -0.247283,-0.760217 v 0 C 13.171739,9.6786957 13.369565,8.845 13.369565,8 c 0,-0.6415217 -0.113043,-1.2745652 -0.336304,-1.8765217 z M 3.2776087,12.270217 c 0,-0.312 0.2532174,-0.565217 0.5652174,-0.565217 0.312,0 0.5652174,0.253217 0.5652174,0.565217 0,0.312 -0.2532174,0.565218 -0.5652174,0.565218 -0.312,0 -0.5652174,-0.253218 -0.5652174,-0.565218 z M 11.835,4.1395652 c 0,-0.312 0.253217,-0.5652174 0.565217,-0.5652174 0.312,0 0.565218,0.2532174 0.565218,0.5652174 0,0.312 -0.253218,0.5652174 -0.565218,0.5652174 -0.312,0 -0.565217,-0.2532174 -0.565217,-0.5652174 z m -9.0533696,0 c 0,0.312 0.2532174,0.5652174 0.5652174,0.5652174 0.312,0 0.5652174,-0.2532174 0.5652174,-0.5652174 0,-0.312 -0.2532174,-0.5652174 -0.5652174,-0.5652174 -0.312,0 -0.5652174,0.2532174 -0.5652174,0.5652174 z M 11.705,12.270217 c 0,0.312 0.253217,0.565218 0.565217,0.565218 0.312,0 0.565218,-0.253218 0.565218,-0.565218 0,-0.312 -0.253218,-0.565217 -0.565218,-0.565217 -0.312,0 -0.565217,0.253217 -0.565217,0.565217 z M 5.1301087,5.5045652 V 10.495435 H 6.6273696 V 7.7504565 L 8,8.9981739 9.3726304,7.7504565 V 10.495435 H 10.869891 V 5.5045652 H 9.3726304 L 8,6.7522826 6.6273696,5.5045652 Z"
     fill-rule="evenodd"
     fill="url(#_lgradient_46)"
     id="path3"
     style="fill:url(#_lgradient_46);stroke-width:0.282609" />
</svg>
