<?xml version="1.0" encoding="UTF-8" standalone="no"?>
<svg
   width="16"
   height="16"
   version="1.0"
   id="svg6"
   sodipodi:docname="meld.svg"
   inkscape:version="1.4.4 (unknown)"
   xmlns:inkscape="http://www.inkscape.org/namespaces/inkscape"
   xmlns:sodipodi="http://sodipodi.sourceforge.net/DTD/sodipodi-0.dtd"
   xmlns:xlink="http://www.w3.org/1999/xlink"
   xmlns="http://www.w3.org/2000/svg"
   xmlns:svg="http://www.w3.org/2000/svg">
  <defs
     id="defs6">
    <linearGradient
       id="linearGradient1"
       inkscape:collect="always">
      <stop
         style="stop-color:#2a7fff;stop-opacity:1;"
         offset="0"
         id="stop1" />
      <stop
         style="stop-color:#ff9955;stop-opacity:1"
         offset="1"
         id="stop2" />
    </linearGradient>
    <linearGradient
       inkscape:collect="always"
       xlink:href="#linearGradient1"
       id="linearGradient2"
       x1="1.9596193"
       y1="1.7280703"
       x2="14.052004"
       y2="14.107265"
       gradientUnits="userSpaceOnUse" />
  </defs>
  <sodipodi:namedview
     id="namedview6"
     pagecolor="#ffffff"
     bordercolor="#000000"
     borderopacity="0.25"
     inkscape:showpageshadow="2"
     inkscape:pageopacity="0.0"
     inkscape:pagecheckerboard="0"
     inkscape:deskcolor="#d1d1d1"
     inkscape:zoom="28.284271"
     inkscape:cx="6.3286057"
     inkscape:cy="5.5331106"
     inkscape:window-width="1920"
     inkscape:window-height="994"
     inkscape:window-x="0"
     inkscape:window-y="0"
     inkscape:window-maximized="1"
     inkscape:current-layer="svg6" />
  <g
     id="g2">
    <path
       style="opacity:0.2;stroke-width:0.230097"
       d="m 2.510184,1.7280702 c -0.5598523,0 -1.0101841,0.4370811 -1.0101841,0.979989 v 4.0838813 0.7750823 c 0.3053457,0.7588381 0.7456364,1.4675191 1.3402623,2.0882678 0.6951796,0.7257184 1.7276354,1.3330644 2.7965959,1.5581824 1.0689604,0.225116 2.2664358,0.06804 3.1067242,-0.732319 C 9.0313902,10.207024 9.2746375,9.8014665 9.360212,9.3853481 9.4457844,8.9692309 9.3740369,8.5431874 9.0346681,8.2280702 8.9269617,8.128061 8.6748489,8.0434031 8.5132535,8.0151462 8.3526524,7.9870597 8.1168667,7.9891462 8,8.1140352 8.1303978,8.2289377 8.2332365,8.414005 8.2040319,8.5710664 8.1746224,8.7291919 8.0859068,8.8853101 7.9818641,8.9906799 7.6552494,9.3214629 7.2136406,9.5452328 6.7830634,9.4619655 6.352487,9.3786965 5.9322741,9.1433074 5.6486467,8.8632813 5.0284032,8.2509177 4.7506604,7.338525 4.7645087,6.5603069 4.7691178,6.3008996 4.8025157,6.0393883 4.8606304,5.7798791 5.0930943,4.7418398 5.751679,3.4525889 6.5010463,2.7775492 6.9795205,2.3465341 7.5092077,2.0001232 8.0725445,1.7280702 Z M 8,8.1140352 C 7.869602,7.9991323 7.7667632,7.8140655 7.7959681,7.6570041 7.8253762,7.4988784 7.9140934,7.3427602 8.0181359,7.2373906 8.3447498,6.9066074 8.7863594,6.6828373 9.2169366,6.7661039 c 0.4305764,0.08327 0.8507894,0.3186593 1.1344164,0.5986853 0.620244,0.6123631 0.897986,1.5247563 0.884138,2.3029742 -0.0046,0.2594073 -0.03801,0.5209186 -0.09612,0.7804276 -0.232463,1.038039 -0.891048,2.327291 -1.6404151,3.00233 C 9.0204797,13.881537 8.4907923,14.227947 7.9274555,14.5 H 13.489816 C 14.049668,14.5 14.5,14.062919 14.5,13.520011 V 9.4361296 8.6610473 C 14.194654,7.9022097 13.754364,7.1935284 13.159738,6.5727797 12.464558,5.8470615 11.432102,5.2397152 10.363142,5.0145969 9.2941815,4.7894813 8.0967056,4.9465542 7.2564175,5.7469164 6.96861,6.0210465 6.7253625,6.4266038 6.6397878,6.8427224 6.5542166,7.2588397 6.6259629,7.6848829 6.9653316,8.0000001 7.0730381,8.1000093 7.3251511,8.1846672 7.4867465,8.212925 7.6473476,8.2410096 7.8831333,8.2389231 8,8.1140352 Z"
       id="path4" />
    <path
       style="fill:url(#linearGradient2);stroke-width:0.230097"
       d="M 2.510184,1.5 C 1.9503317,1.5 1.4999999,1.9370811 1.4999999,2.4799891 v 4.0838815 0.7750823 c 0.3053457,0.7588376 0.7456364,1.4675189 1.3402623,2.0882675 0.6951796,0.7257186 1.7276354,1.3330646 2.7965959,1.5581826 1.0689604,0.225116 2.2664358,0.06804 3.1067242,-0.732319 C 9.0313902,9.9789537 9.2746375,9.5733964 9.360212,9.1572777 9.4457844,8.7411605 9.3740386,8.3151173 9.0346681,8.0000001 8.9269617,7.8999908 8.6748489,7.815333 8.5132535,7.7870752 8.3526524,7.7589896 8.1168667,7.7610752 8,7.885965 8.1303978,8.0008678 8.2332365,8.1859347 8.2040319,8.342996 8.1746224,8.5011218 8.0859068,8.6572399 7.9818641,8.7626096 7.6552494,9.0933927 7.2136406,9.3171629 6.7830634,9.2338963 6.352487,9.1506264 5.9322741,8.915237 5.6486467,8.635211 5.0284032,8.0228478 4.7506604,7.1104546 4.7645087,6.3322368 4.7691178,6.0728294 4.8025157,5.8113182 4.8606304,5.5518092 5.0930943,4.5137698 5.751679,3.2245187 6.5010463,2.5494791 6.9795205,2.1184639 7.5092077,1.772053 8.0725445,1.5 Z M 8,7.885965 C 7.869602,7.7710624 7.7667632,7.5859951 7.7959681,7.4289338 7.8253762,7.2708082 7.9140934,7.1146901 8.0181359,7.0093202 8.3447498,6.6785373 8.7863594,6.4547674 9.2169366,6.5380347 c 0.4305764,0.083269 0.8507894,0.3186581 1.1344164,0.5986841 0.620244,0.6123636 0.897986,1.5247563 0.884138,2.3029744 -0.0046,0.2594074 -0.03801,0.5209186 -0.09612,0.7804278 -0.232463,1.038039 -0.891048,2.327291 -1.6404151,3.00233 -0.4784742,0.431015 -1.0081616,0.777426 -1.5714984,1.049479 H 13.489816 C 14.049668,14.27193 14.5,13.834849 14.5,13.291941 V 9.2080597 8.4329774 C 14.194654,7.6741393 13.754364,6.9654582 13.159738,6.3447096 12.464558,5.6189913 11.432102,5.011645 10.363142,4.7865268 9.2941815,4.5614109 8.0967056,4.7184839 7.2564175,5.518846 6.96861,5.7929764 6.7253625,6.1985336 6.6397878,6.614652 6.5542166,7.0307693 6.6259629,7.4568127 6.9653316,7.7719299 7.0730381,7.8719392 7.3251511,7.956597 7.4867465,7.9848539 7.6473476,8.0129395 7.8831333,8.010853 8,7.885965 Z"
       id="path5" />
    <path
       style="opacity:0.2;fill:#ffffff;stroke-width:0.230097"
       d="M 2.5101841,1.5 C 1.9503317,1.5 1.4999999,1.9370811 1.4999999,2.4799891 v 0.2280701 c 0,-0.5429079 0.4503318,-0.979989 1.0101842,-0.979989 h 5.13072 C 7.7824561,1.6471416 7.926139,1.570704 8.0725445,1.5 Z M 9.5447475,4.693428 C 8.7176012,4.6801494 7.8866334,4.9185743 7.2564172,5.518846 6.9686098,5.7929764 6.7253627,6.1985334 6.639788,6.6146518 6.6107063,6.7560681 6.6014496,6.8984179 6.6130373,7.0373835 6.6183153,6.9725604 6.6264604,6.9075202 6.639788,6.8427222 6.7253627,6.4266036 6.9686098,6.0210465 7.2564172,5.7469164 8.0967053,4.946554 9.2941815,4.7894813 10.363142,5.0145969 11.432102,5.2397152 12.464558,5.8470615 13.159738,6.5727797 13.754364,7.1935284 14.194654,7.9022094 14.5,8.6610473 V 8.4329774 C 14.194654,7.6741393 13.754364,6.9654582 13.159738,6.3447096 12.464558,5.6189913 11.432102,5.011645 10.363142,4.7865268 10.095902,4.7302479 9.8204628,4.6978536 9.5447475,4.693428 Z M 4.7690426,6.4948262 c -7.8e-4,0.021789 -0.00415,0.04372 -0.00453,0.065481 C 4.750663,7.338525 5.0284058,8.2509177 5.6486495,8.8632813 5.9322769,9.1433074 6.3524899,9.3786965 6.7830662,9.4619655 7.2136435,9.5452328 7.655252,9.3214629 7.9818664,8.9906799 8.0859092,8.8853101 8.1746266,8.7291919 8.2040345,8.5710664 8.2140989,8.5169532 8.2042664,8.459879 8.1872551,8.4031319 8.1490058,8.5398929 8.0726,8.6707149 7.9818629,8.7626096 7.6552485,9.0933927 7.2136399,9.3171629 6.7830624,9.2338963 6.3524868,9.1506264 5.9322736,8.915237 5.6486462,8.635211 5.0708281,8.0647343 4.7935247,7.2350204 4.7690424,6.4948262 Z m 3.0437016,1.102042 c -0.00561,0.020052 -0.013016,0.039914 -0.016779,0.060136 -0.018503,0.099503 0.018874,0.2085565 0.079799,0.3055783 0.047579,-0.017768 0.091242,-0.041362 0.1242339,-0.076617 C 7.9145259,7.8106502 7.8451078,7.704827 7.8127414,7.5968682 Z M 8,7.885965 c 0.047787,0.042108 0.08899,0.09533 0.1242327,0.1514528 0.1209612,-0.045171 0.2737566,-0.04243 0.3890208,-0.022272 0.1615952,0.028258 0.413708,0.1129152 0.5214144,0.2129245 C 9.2587037,8.436096 9.3644543,8.6926761 9.3869629,8.9626167 9.4155856,8.6111628 9.3211907,8.266049 9.0346679,8.0000012 8.9269615,7.8999922 8.6748487,7.8153341 8.5132535,7.7870763 8.3526524,7.7589908 8.1168667,7.7610763 8,7.8859659 Z m 3.230957,1.619209 c -0.0086,0.2379436 -0.03835,0.4772072 -0.09159,0.714947 -0.232463,1.038039 -0.891049,2.32729 -1.6404153,3.00233 -0.4784742,0.431015 -1.0081614,0.777426 -1.5714982,1.049479 h 0.4316404 c 0.4031081,-0.230466 0.7857345,-0.502411 1.1398578,-0.821409 0.7493663,-0.67504 1.4079523,-1.964291 1.6404153,-3.00233 0.05812,-0.259509 0.09153,-0.5210203 0.09612,-0.7804276 9.46e-4,-0.053231 -0.0027,-0.1082417 -0.0045,-0.1625894 z"
       id="path6" />
  </g>
</svg>
