<?xml version="1.0" encoding="UTF-8" standalone="no"?>
<!-- Generator: Gravit.io -->

<svg
   style="isolation:isolate"
   viewBox="0 0 16 16"
   width="16pt"
   height="16pt"
   version="1.1"
   id="svg6"
   sodipodi:docname="mendeley-desktop.svg"
   inkscape:version="1.4.4 (unknown)"
   xmlns:inkscape="http://www.inkscape.org/namespaces/inkscape"
   xmlns:sodipodi="http://sodipodi.sourceforge.net/DTD/sodipodi-0.dtd"
   xmlns:xlink="http://www.w3.org/1999/xlink"
   xmlns="http://www.w3.org/2000/svg"
   xmlns:svg="http://www.w3.org/2000/svg">
  <defs
     id="defs6">
    <linearGradient
       id="linearGradient6"
       inkscape:collect="always">
      <stop
         style="stop-color:#c83771;stop-opacity:1"
         offset="0"
         id="stop7" />
      <stop
         style="stop-color:#975cf6;stop-opacity:1"
         offset="1"
         id="stop8" />
    </linearGradient>
    <linearGradient
       inkscape:collect="always"
       xlink:href="#linearGradient6"
       id="linearGradient8"
       x1="0.95873946"
       y1="47.030327"
       x2="46.958538"
       y2="1.0297469"
       gradientUnits="userSpaceOnUse" />
    <linearGradient
       inkscape:collect="always"
       xlink:href="#linearGradient4144"
       id="linearGradient863"
       gradientUnits="userSpaceOnUse"
       gradientTransform="matrix(0.23135738,0,0,0.22724617,2.4473118,2.5458139)"
       x1="14.023"
       y1="8.1289997"
       x2="27.879"
       y2="34.944" />
    <linearGradient
       id="linearGradient4144">
      <stop
         style="stop-color:#c83771;stop-opacity:1"
         offset="0"
         id="stop1141" />
      <stop
         style="stop-color:#de87aa;stop-opacity:1"
         offset="1"
         id="stop1143" />
    </linearGradient>
  </defs>
  <sodipodi:namedview
     id="namedview6"
     pagecolor="#ffffff"
     bordercolor="#000000"
     borderopacity="0.25"
     inkscape:showpageshadow="2"
     inkscape:pageopacity="0.0"
     inkscape:pagecheckerboard="0"
     inkscape:deskcolor="#d1d1d1"
     inkscape:document-units="pt"
     inkscape:zoom="24.34375"
     inkscape:cx="2.0539153"
     inkscape:cy="17.971759"
     inkscape:window-width="1920"
     inkscape:window-height="994"
     inkscape:window-x="0"
     inkscape:window-y="0"
     inkscape:window-maximized="1"
     inkscape:current-layer="svg6" />
  <linearGradient
     id="_lgradient_3"
     x1="0"
     y1="0.5"
     x2="1.0176991"
     y2="0.5"
     gradientTransform="matrix(27,0,0,22.68,10.5,12.66)"
     gradientUnits="userSpaceOnUse">
    <stop
       offset="0%"
       stop-opacity="1"
       style="stop-color:rgb(84,51,255)"
       id="stop1" />
    <stop
       offset="51.73913043478261%"
       stop-opacity="1"
       style="stop-color:rgb(32,189,255)"
       id="stop2" />
    <stop
       offset="98.26086956521739%"
       stop-opacity="1"
       style="stop-color:rgb(165,254,203)"
       id="stop3" />
  </linearGradient>
  <linearGradient
     id="_lgradient_4"
     x1="0.071553186"
     y1="0.74391294"
     x2="0.99873358"
     y2="0.49568295"
     gradientTransform="matrix(46,0,0,46,0.959,1.03)"
     gradientUnits="userSpaceOnUse">
    <stop
       offset="0%"
       stop-opacity="1"
       style="stop-color:rgb(84,51,255)"
       id="stop4" />
    <stop
       offset="51.73913043478261%"
       stop-opacity="1"
       style="stop-color:rgb(32,189,255)"
       id="stop5" />
    <stop
       offset="98.26086956521739%"
       stop-opacity="1"
       style="stop-color:rgb(165,254,203)"
       id="stop6" />
  </linearGradient>
  <g
     id="g6"
     transform="matrix(0.28260514,0,0,0.28260514,1.2291655,1.2089882)">
    <path
       d="m 33.433,40.492 v 0 c 0.958,-0.547 2.184,-0.216 2.736,0.739 v 0 c 0.553,0.955 0.225,2.179 -0.733,2.732 v 0 c -3.725,2.144 -7.974,3.2 -12.261,3.054 -3.888,-0.133 -7.682,-1.253 -11.026,-3.248 v 0 c -0.947,-0.568 -1.255,-1.798 -0.687,-2.745 v 0 c 0.568,-0.947 1.798,-1.255 2.745,-0.687 v 0 c 2.755,1.655 5.886,2.572 9.104,2.682 3.548,0.121 7.05,-0.75 10.122,-2.527 v 0 z m 7.534,-24.937 v 0 c -0.496,-0.989 -0.096,-2.193 0.892,-2.686 v 0 c 0.989,-0.494 2.19,-0.092 2.681,0.896 v 0 c 1.715,3.421 2.536,7.221 2.405,11.049 -0.099,2.918 -0.747,5.788 -1.919,8.449 v 0 c -0.443,1.012 -1.624,1.474 -2.637,1.031 v 0 c -1.012,-0.443 -1.473,-1.625 -1.03,-2.637 v 0 c 0.975,-2.198 1.506,-4.571 1.589,-6.98 0.107,-3.158 -0.576,-6.293 -1.981,-9.122 v 0 z M 15.727,6.91 v 0 c -0.993,0.474 -2.19,0.052 -2.669,-0.942 v 0 c -0.48,-0.994 -0.063,-2.19 0.931,-2.67 v 0 C 17.336,1.691 21.024,0.917 24.742,1.043 28.32,1.165 31.83,2.116 34.973,3.834 v 0 c 0.971,0.53 1.328,1.748 0.798,2.718 v 0 C 35.241,7.523 34.023,7.88 33.052,7.35 v 0 C 30.459,5.931 27.564,5.142 24.606,5.041 21.538,4.936 18.494,5.573 15.727,6.91 Z M 5.933,30.059 v 0 c 0.351,1.045 -0.215,2.178 -1.262,2.529 v 0 C 3.623,32.939 2.488,32.371 2.137,31.321 v 0 C 1.276,28.72 0.879,25.985 0.972,23.246 1.095,19.628 2.067,16.079 3.826,12.907 v 0 c 0.53,-0.964 1.745,-1.313 2.713,-0.778 v 0 c 0.967,0.536 1.318,1.754 0.783,2.719 v 0 c -1.45,2.622 -2.251,5.546 -2.352,8.535 -0.078,2.268 0.246,4.521 0.963,6.676 z M 41.174,9.498 c -0.038,1.103 -0.964,1.969 -2.067,1.931 -1.103,-0.038 -1.969,-0.964 -1.931,-2.067 0.038,-1.103 0.964,-1.968 2.067,-1.931 1.103,0.038 1.968,0.964 1.931,2.067 z M 9.931,37.22 C 9.893,38.323 8.967,39.188 7.864,39.15 6.761,39.113 5.896,38.187 5.933,37.083 5.971,35.98 6.897,35.115 8,35.153 9.103,35.19 9.969,36.116 9.931,37.22 Z m 32.016,1.091 c 0.038,-1.103 -0.827,-2.029 -1.93,-2.067 -1.103,-0.037 -2.03,0.828 -2.067,1.931 -0.038,1.103 0.827,2.029 1.93,2.067 1.104,0.038 2.03,-0.827 2.067,-1.931 z M 11.371,8.482 C 11.409,7.379 10.544,6.453 9.44,6.415 8.337,6.377 7.411,7.243 7.373,8.346 c -0.037,1.103 0.828,2.029 1.931,2.067 1.103,0.037 2.029,-0.828 2.067,-1.931 z"
       fill-rule="evenodd"
       id="path6"
       style="fill:url(#linearGradient8)" />
  </g>
  <path
     style="fill:url(#linearGradient863);fill-opacity:1;stroke-width:0.229294"
     d="M 6.0380732,5.5005332 C 5.7359932,5.5100931 5.4442031,5.6438963 5.220689,5.8468735 4.9935272,6.0532758 4.8307125,6.3367926 4.7977439,6.6416376 c -0.016497,0.1524521 -4.336e-4,0.3087255 0.050207,0.4533789 0.050657,0.1446511 0.1363859,0.2776656 0.2501424,0.3806951 0.1341832,0.1214647 0.3018748,0.1980327 0.4559591,0.2930416 0.077049,0.0475 0.1514926,0.1003551 0.2153239,0.1644166 0.063833,0.064092 0.1168879,0.1401447 0.1461037,0.2258487 0.025992,0.076088 0.032422,0.1584214 0.020888,0.2379799 -0.011551,0.079552 -0.041143,0.1564389 -0.084141,0.2244568 C 5.7662347,8.7574872 5.6275779,8.8565589 5.4754142,8.9095169 5.2989276,8.9709712 5.1045,8.9740056 4.9344085,9.0513886 4.7998046,9.112482 4.6865784,9.2193066 4.6159457,9.3489499 c -0.070608,0.1297375 -0.09859,0.2819185 -0.081434,0.4285355 0.020095,0.172375 0.1027489,0.3362466 0.2266264,0.4579026 0.1238766,0.121619 0.2877825,0.200956 0.4595918,0.227067 0.2519058,0.03851 0.5211789,-0.04204 0.704299,-0.218986 0.091553,-0.08849 0.1613997,-0.19904 0.2003853,-0.3201546 0.038995,-0.121071 0.047045,-0.252431 0.021628,-0.377071 C 6.1276467,9.4511114 6.0895916,9.3608231 6.0543104,9.2703429 6.0190106,9.1798356 5.9859191,9.0871752 5.9774117,8.9903809 5.9624039,8.8194912 6.0279555,8.6457335 6.1416074,8.5171422 6.2552648,8.3885975 6.4140802,8.3038817 6.5817423,8.2665411 6.6899242,8.2420961 6.802713,8.2369031 6.9119572,8.2560401 c 0.1092496,0.019185 0.2150001,0.061596 0.3035182,0.1283242 0.088534,0.066553 0.1592827,0.1570562 0.1985822,0.2605245 0.0393,0.1034587 0.046259,0.2199262 0.014958,0.3260113 -0.032088,0.1087807 -0.1010952,0.201966 -0.1709865,0.2912951 -0.069895,0.089399 -0.14303,0.1789932 -0.1845624,0.2844732 -0.045803,0.116397 -0.050387,0.247475 -0.018992,0.368481 0.031409,0.1209936 0.097699,0.2319606 0.1845602,0.3219766 0.096095,0.09954 0.2177792,0.174076 0.3501151,0.214961 0.1323404,0.04089 0.2677057,0.04791 0.4062157,0.04791 0.1385063,0 0.2829042,-0.0061 0.4152631,-0.04791 0.132342,-0.04088 0.2540303,-0.115406 0.3501153,-0.214961 0.086852,-0.08999 0.15318,-0.200984 0.1845647,-0.3219496 0.03141,-0.121012 0.026859,-0.252087 -0.01899,-0.368466 C 8.8847808,9.4412214 8.8116491,9.35153 8.7417558,9.2622383 8.6718618,9.1728741 8.6028666,9.0797183 8.5707696,8.9709424 8.5394193,8.8648581 8.5463384,8.7484036 8.585729,8.6449296 8.6250289,8.541471 8.6957812,8.4509492 8.7843114,8.3844086 8.8728433,8.317856 8.9785899,8.274906 9.0878305,8.2560833 c 0.1092486,-0.019185 0.2220377,-0.013965 0.3302182,0.010502 0.1676592,0.037406 0.3264672,0.121999 0.4401342,0.2505975 0.113662,0.1285447 0.1792231,0.3024214 0.1641981,0.4732386 -0.0087,0.096854 -0.04161,0.1894498 -0.0769,0.2799631 -0.03532,0.090506 -0.0734,0.1806509 -0.09273,0.2759289 -0.02539,0.12459 -0.01736,0.255964 0.02186,0.377075 0.039,0.1210426 0.108837,0.2316236 0.2003891,0.3201216 0.183124,0.176935 0.452397,0.257446 0.704299,0.218992 0.171789,-0.02573 0.335717,-0.105454 0.459593,-0.227069 0.123871,-0.121626 0.206458,-0.2855396 0.226624,-0.4579056 0.01708,-0.146597 -0.01082,-0.298823 -0.08144,-0.4285396 -0.07063,-0.1298494 -0.183863,-0.2364236 -0.318479,-0.297562 -0.17011,-0.077369 -0.36452,-0.080403 -0.541002,-0.1418553 -0.152159,-0.052961 -0.290815,-0.1520123 -0.376811,-0.2880607 -0.043,-0.068 -0.07253,-0.1448691 -0.08413,-0.2244568 -0.01154,-0.079541 -0.0051,-0.1618974 0.02088,-0.237981 0.02914,-0.085549 0.08231,-0.1615858 0.146101,-0.2258464 0.06386,-0.064092 0.138274,-0.1169131 0.215327,-0.1644164 0.154098,-0.095 0.321793,-0.1715617 0.455957,-0.2930463 0.113755,-0.1029924 0.199477,-0.2359649 0.250139,-0.3806893 0.05065,-0.1447283 0.06668,-0.3009363 0.05019,-0.4533837 C 11.169243,6.3368137 11.006452,6.0533034 10.779293,5.8469204 10.555779,5.6438738 10.263994,5.5098258 9.9619079,5.5005843 c -0.151042,-0.0049 -0.30317,0.021095 -0.442401,0.080415 C 9.380274,5.6395836 9.2543937,5.7306419 9.1580812,5.8469613 9.0476601,5.9803098 8.9782591,6.1422349 8.9147118,6.3030421 8.8511663,6.4639804 8.7910991,6.6279454 8.6948731,6.7717818 8.5361874,7.0088761 8.2857423,7.2341824 8.0000621,7.2341824 7.7143838,7.2341824 7.4639365,7.0088367 7.3052499,6.7717818 7.2090147,6.6279161 7.1489556,6.4639385 7.0853969,6.3030388 7.0218513,6.1421226 6.9524521,5.9801822 6.8420272,5.8469613 6.7457232,5.7306442 6.6198314,5.6395757 6.4806015,5.5809992 6.3413682,5.5224148 6.1892535,5.4959989 6.0382,5.5005843 Z M 7.9999135,7.6965257 A 0.46320059,0.46242316 0 0 1 8.4631156,8.1589228 0.46320059,0.46242316 0 0 1 7.9999135,8.621321 0.46320059,0.46242316 0 0 1 7.5367137,8.1589228 0.46320059,0.46242316 0 0 1 7.9999135,7.6965257 Z"
     id="path1167-9" />
</svg>
