<?xml version="1.0" encoding="UTF-8" standalone="no"?>
<!-- Generator: Gravit.io -->

<svg
   style="isolation:isolate"
   viewBox="0 0 16 16"
   width="16"
   height="16"
   version="1.1"
   id="svg2"
   sodipodi:docname="mixbus.svg"
   inkscape:version="1.4.4 (unknown)"
   xmlns:inkscape="http://www.inkscape.org/namespaces/inkscape"
   xmlns:sodipodi="http://sodipodi.sourceforge.net/DTD/sodipodi-0.dtd"
   xmlns="http://www.w3.org/2000/svg"
   xmlns:svg="http://www.w3.org/2000/svg">
  <defs
     id="defs2" />
  <sodipodi:namedview
     id="namedview2"
     pagecolor="#ffffff"
     bordercolor="#000000"
     borderopacity="0.25"
     inkscape:showpageshadow="2"
     inkscape:pageopacity="0.0"
     inkscape:pagecheckerboard="0"
     inkscape:deskcolor="#d1d1d1"
     inkscape:document-units="px"
     inkscape:zoom="25.091242"
     inkscape:cx="8.1303269"
     inkscape:cy="9.2661813"
     inkscape:window-width="1920"
     inkscape:window-height="994"
     inkscape:window-x="0"
     inkscape:window-y="0"
     inkscape:window-maximized="1"
     inkscape:current-layer="svg2" />
  <linearGradient
     id="_lgradient_11"
     x1="0"
     y1="0.5"
     x2="1"
     y2="0.5"
     gradientTransform="matrix(15.999806,0,0,13.000246,6.2667784e-5,1.4998488)"
     gradientUnits="userSpaceOnUse">
    <stop
       offset="0%"
       stop-opacity="1"
       style="stop-color:#de87aa;stop-opacity:1"
       id="stop1" />
    <stop
       offset="98.26086956521739%"
       stop-opacity="1"
       style="stop-color:#c83771;stop-opacity:1"
       id="stop2" />
  </linearGradient>
  <path
     d="m 8.7828398,8.8436497 c 0,0 0.00322,0 0.00322,0 h -0.00992 0.00322 0.00348 l 4.9311642,-0.0068 v 0.01698 l -0.493142,4.2743823 c 0,0 0,0 0,0 -0.0035,0.0035 -0.0068,0.0068 -0.01018,0.01039 0,0 0,0 -0.0033,0 H 9.7123161 c -0.00666,0 -0.00991,0 -0.016615,0 -0.1332081,0.0033 -0.263191,-0.04434 -0.363159,-0.136306 -0.079875,-0.08842 -0.1265093,-0.204205 -0.1232849,-0.326577 0,-0.04763 0.00353,-0.09526 0.013394,-0.139599 0,-0.0033 0,-0.0033 0,-0.0033 l 0.389701,-2.024828 0.01687,-0.149734 c 0,-0.01697 0,-0.0375 0.00323,-0.05776 C 9.6356836,9.9840089 9.5123958,9.6741537 9.2893916,9.4529727 9.0661229,9.2353397 8.7662199,9.1160087 8.459619,9.1195557 H 8.0265079 c -0.319748,0 -0.6298217,0.105396 -0.8863149,0.302761 -0.2564928,0.197365 -0.4398085,0.473017 -0.5296059,0.7861663 l -0.6231242,2.225486 c -0.056806,0.194071 -0.1766179,0.36078 -0.3398408,0.473017 -0.1533004,0.129465 -0.3433137,0.197365 -0.5397765,0.204206 h -0.016619 l -3.7084822,-0.08513 0.369856,-2.218646 c 0.030014,-0.183684 0.1232852,-0.350392 0.2599659,-0.469723 0.1399051,-0.119078 0.3165233,-0.186978 0.4998388,-0.186978 h 2.9618246 c 0.3333912,0 0.6499145,-0.122624 0.8962372,-0.3470983 0.2465707,-0.224727 0.4065687,-0.534329 0.4465062,-0.867747 l 0.069954,-0.602482 0.00348,-0.09172 c 0,-0.01039 0.00322,-0.02381 0.00322,-0.0342 0,-0.326577 -0.1232854,-0.643019 -0.353236,-0.874588 C 6.3139135,7.1015687 6.004088,6.9756497 5.6843399,6.9789437 H 2.6555394 c -0.00322,0 -0.00992,0 -0.013148,0 -0.083348,0 -0.1634709,-0.0304 -0.2232532,-0.08488 -0.050108,-0.05447 -0.076651,-0.129465 -0.076651,-0.200912 0,-0.02711 0.00322,-0.05447 0.0067,-0.07829 0,0 0,-0.0033 0,-0.0033 L 2.918725,3.02151 7.1702082,3.1608562 c 0.00322,0 0.0067,0 0.0067,0 0.10989,0 0.2165554,0.047631 0.2964305,0.1259184 0.066729,0.071447 0.1034406,0.1667088 0.1066652,0.2688116 l -0.0067,0.1190777 -0.3864759,3.3278418 -0.013395,0.177097 c 0,0.01343 0,0.02711 0,0.04079 -0.00322,0.432227 0.1634708,0.850772 0.4631262,1.157081 0.3066008,0.306055 0.7198671,0.473017 1.1462806,0.466176 z M 2.8187573,1.6566767 h 0.023317 l 4.3680711,0.1431466 c 0.4564285,0.010134 0.8930125,0.2006586 1.2162333,0.5340762 0.3165233,0.333671 0.4896685,0.7828726 0.4864434,1.2455022 0,0.016975 0,0.030656 0,0.044337 l -0.013394,0.1940714 -0.3864755,3.3275886 -0.0067,0.102103 c 0.00348,0.06131 0.026791,0.115784 0.066729,0.160122 0.053334,0.05092 0.1232855,0.07803 0.193238,0.07474 0.00322,0 0.0067,0 0.00992,0 v 0 l 4.9343914,-0.0068 h 0.0035 v 0 h -0.0068 c 0,0 0.0033,0 0.0033,0 0.356461,-0.0033 0.696302,0.1396 0.94957,0.391437 0.250041,0.258677 0.389948,0.605776 0.386474,0.966303 0,0.01039 0,0.02052 0,0.03066 l -0.0033,0.09881 -0.496364,4.3118793 c 0,0.0033 0,0.0033 0,0.0068 -0.03671,0.333417 -0.193487,0.639726 -0.43981,0.8642 -0.243346,0.224727 -0.556644,0.350646 -0.886315,0.353939 0,0 -0.0035,0 -0.0068,0 H 9.719015 C 9.229346,14.509972 8.7595223,14.322744 8.4062863,13.978939 8.0632207,13.635387 7.8732075,13.158823 7.8766803,12.665537 c 0,-0.132759 0.013147,-0.265518 0.039936,-0.39473 L 8.2596835,10.480841 H 8.0265079 c -0.063254,0 -0.1165876,0.04079 -0.1332076,0.10185 l -0.626349,2.23258 c 0,0.0066 0,0.01013 -0.00348,0.01343 -0.1399054,0.469723 -0.4264136,0.881428 -0.8163622,1.170762 -0.3797786,0.299468 -0.8461293,0.462629 -1.3258755,0.473017 -0.0067,0 -0.013395,0 -0.020092,0 H 5.0711286 L 1.0562951,14.38051 C 0.77301173,14.37721 0.50659629,14.261433 0.30666074,14.057227 0.11019802,13.853022 -0.00316493,13.574076 5.9817784e-5,13.284742 c 0,-0.01697 0.0034729022,-0.03395 0.0034729022,-0.05092 l 0.0099223,-0.105649 0.42318864,-2.552064 C 0.51999434,10.079271 0.77648739,9.6232287 1.1530409,9.2963987 1.5328192,8.9698217 2.0157902,8.7894317 2.5124043,8.7894317 h 2.9618246 c 0.01017,0 0.016868,-0.0068 0.016868,-0.01368 l 0.053084,-0.435521 H 2.6590066 c -0.436584,0.0068 -0.8597725,-0.163415 -1.1728229,-0.473017 -0.3066011,-0.313149 -0.4797462,-0.741829 -0.4765214,-1.18419 0,-0.09526 0.00992,-0.194071 0.023317,-0.289333 L 1.6193919,2.687839 c 0,-0.00329 0.00322,-0.00329 0.00322,-0.00684 0.046888,-0.2857871 0.1932427,-0.5444645 0.4100463,-0.7314418 0.2165555,-0.1872307 0.4864436,-0.2893335 0.769479,-0.2928805 0.0067,0 0.013395,0 0.01662,0 z m 7.4903897,4.117302 0.349763,-2.4940448 c 0.01664,-0.091715 0.06995,-0.176843 0.143379,-0.2346084 0.06648,-0.064859 0.156526,-0.1056498 0.249796,-0.1089434 l 3.508051,-0.064606 -0.409794,2.5723316 c -0.01985,0.09172 -0.06996,0.176843 -0.139906,0.238156 -0.07317,0.05776 -0.163223,0.09172 -0.256493,0.09172 z m -1.3459685,0.02052 0.016615,-0.156575 0.366383,-2.6029878 c 0,-0.00329 0.00343,-0.010134 0.00343,-0.013428 C 9.4262615,2.6265267 9.6326401,2.2692935 9.9360166,2.0106162 10.232447,1.7453516 10.612227,1.5920707 11.005401,1.5750958 c 0.0035,0 0.0099,0 0.0134,0 l 4.094461,-0.07474 h 0.0068 c 0.229951,-0.00684 0.452957,0.084875 0.619654,0.2449961 0.169919,0.1700024 0.266661,0.4048642 0.259965,0.6465666 0,0.020269 0,0.04079 -0.0035,0.057765 l -0.0068,0.085128 -0.533079,3.1814022 c -0.07987,0.398276 -0.293206,0.758803 -0.603031,1.017481 -0.309826,0.258677 -0.699526,0.40157 -1.099398,0.40157 h -3.514794 c -0.3365623,0.00329 -0.6630087,-0.125918 -0.9063546,-0.364074 -0.239873,-0.244996 -0.3763051,-0.57512 -0.3696081,-0.922218 0,-0.01698 0,-0.03395 0,-0.05447 z"
     fill-rule="evenodd"
     fill="url(#_lgradient_11)"
     id="path2"
     style="fill:url(#_lgradient_11);stroke-width:0.250694" />
</svg>
