<?xml version="1.0" encoding="UTF-8" standalone="no"?>
<!-- Generator: Gravit.io -->

<svg
   style="isolation:isolate"
   viewBox="0 0 16 16"
   width="16"
   height="16"
   version="1.1"
   id="svg7"
   sodipodi:docname="mkvmerge.svg"
   inkscape:version="1.4.4 (unknown)"
   xmlns:inkscape="http://www.inkscape.org/namespaces/inkscape"
   xmlns:sodipodi="http://sodipodi.sourceforge.net/DTD/sodipodi-0.dtd"
   xmlns="http://www.w3.org/2000/svg"
   xmlns:svg="http://www.w3.org/2000/svg">
  <defs
     id="defs7" />
  <sodipodi:namedview
     id="namedview7"
     pagecolor="#ffffff"
     bordercolor="#000000"
     borderopacity="0.25"
     inkscape:showpageshadow="2"
     inkscape:pageopacity="0.0"
     inkscape:pagecheckerboard="0"
     inkscape:deskcolor="#d1d1d1"
     inkscape:document-units="px"
     inkscape:zoom="16.727495"
     inkscape:cx="10.342254"
     inkscape:cy="2.4809453"
     inkscape:window-width="1920"
     inkscape:window-height="994"
     inkscape:window-x="0"
     inkscape:window-y="0"
     inkscape:window-maximized="1"
     inkscape:current-layer="svg7" />
  <linearGradient
     id="_lgradient_5"
     x1="0"
     y1="0.5"
     x2="1"
     y2="0.5"
     gradientTransform="matrix(4.1502973,0,0,4.1502973,5.6151026,5.1080399)"
     gradientUnits="userSpaceOnUse">
    <stop
       offset="0%"
       stop-opacity="1"
       style="stop-color:rgb(84,51,255)"
       id="stop1" />
    <stop
       offset="51.73913043478261%"
       stop-opacity="1"
       style="stop-color:rgb(32,189,255)"
       id="stop2" />
    <stop
       offset="98.26086956521739%"
       stop-opacity="1"
       style="stop-color:rgb(165,254,203)"
       id="stop3" />
  </linearGradient>
  <linearGradient
     id="_lgradient_6"
     x1="0"
     y1="0.5"
     x2="1"
     y2="0.5"
     gradientTransform="matrix(1.9368054,0,0,1.9368054,7.8285945,4.0012939)"
     gradientUnits="userSpaceOnUse">
    <stop
       offset="0%"
       stop-opacity="1"
       style="stop-color:rgb(255,229,59)"
       id="stop4" />
    <stop
       offset="98.69565217391305%"
       stop-opacity="1"
       style="stop-color:rgb(255,0,91)"
       id="stop5" />
  </linearGradient>
  <linearGradient
     id="_lgradient_7"
     x1="0.57576865"
     y1="0.38670361"
     x2="0.1279486"
     y2="0.79178208"
     gradientTransform="matrix(13.020313,0,0,13.000115,0.49501906,0.55903733)"
     gradientUnits="userSpaceOnUse">
    <stop
       offset="0%"
       stop-opacity="1"
       style="stop-color:#2a7fff;stop-opacity:1"
       id="stop6" />
    <stop
       offset="100%"
       stop-opacity="1"
       style="stop-color:rgb(135,0,255)"
       id="stop7" />
  </linearGradient>
  <g
     id="g7"
     transform="translate(0.99482818,0.94094857)">
    <path
       d="m 7.6902511,5.1080398 c -1.1463121,0 -2.0751486,0.9285599 -2.0751486,2.0751487 0,1.1465888 0.9285598,2.0751486 2.0751486,2.0751486 1.1465888,0 2.0751487,-0.9285598 2.0751487,-2.0751486 0,-1.1465888 -0.9285599,-2.0751487 -2.0751487,-2.0751487 z M 7.3192145,6.2048251 c 0.7794259,0 1.4169115,0.629185 1.4169115,1.4086109 0,0.7794258 -0.6374856,1.4171881 -1.4169115,1.4171881 -0.7797025,0 -1.4088875,-0.6377623 -1.4088875,-1.4171881 0,-0.7794259 0.629185,-1.4086109 1.4088875,-1.4086109 z"
       fill="url(#_lgradient_5)"
       id="path3"
       style="fill:url(#_lgradient_5);stroke-width:0.276686" />
    <path
       d="m 9.7653998,4.9746769 c -0.00277,0.5328982 -0.4355046,0.9634224 -0.9684027,0.9634224 -0.5328982,0 -0.9656359,-0.4305242 -0.9684027,-0.9634224 -0.00166,-0.3472415 0.1823364,-0.6687512 0.4828179,-0.842787 0.3002048,-0.1740358 0.6709647,-0.1740358 0.9711695,0 0.3004816,0.1740358 0.4844781,0.4955455 0.482818,0.842787"
       fill="url(#_lgradient_6)"
       id="path5"
       style="fill:url(#_lgradient_6);stroke-width:0.276686" />
    <path
       d="m 5.6159325,8.5884791 c -0.00553,0.00166 -0.010791,0.00304 -0.016048,0.00415 C 5.5284996,8.4919155 5.459328,8.3878814 5.39403,8.279697 4.9242163,7.5011012 4.7346861,6.6555473 4.8038577,5.9273085 4.873306,5.198793 5.1953691,4.5936797 5.7465286,4.2616559 6.0218316,4.095644 6.330337,4.0123613 6.6543369,4.0057209 v 0 c 0.3237232,-0.00692 0.6634942,0.062808 1.0002217,0.2030879 0.6734549,0.28056 1.3289251,0.8450005 1.7937584,1.6266398 0.1629684,0.2741963 0.2913509,0.5564165 0.3859777,0.8386367 v 0 C 9.0396511,7.2673012 7.9522732,7.8046263 6.8878603,8.1856236 6.761968,7.9991369 6.5489194,7.8749047 6.3068187,7.8749047 c -0.382104,0 -0.6917162,0.3096122 -0.6917162,0.6917162 0,0.00719 0,0.014664 8.3e-4,0.021858 z M 6.1986343,9.2483764 C 6.506033,9.53198 6.8430371,9.7453053 7.1844682,9.8858621 7.8546029,10.161442 8.5333148,10.157845 9.0806007,9.8280346 9.6281633,9.4979476 9.949673,8.898368 10.021611,8.1753862 10.054811,7.841979 10.033511,7.4833933 9.948566,7.1170604 v 0 C 9.1099295,7.7091695 8.0206148,8.2135689 6.9982582,8.5716013 6.995768,8.9514918 6.6872626,9.2583371 6.3068187,9.2583371 c -0.037076,0 -0.073322,-0.00304 -0.1081844,-0.00996 z m 0.3619059,3.1287706 v 0 c 0.3248299,0.02739 0.5669306,0.314039 0.5403687,0.639699 v 0 C 7.0740703,13.34223 6.7874231,13.58433 6.4612097,13.556938 v 0 C 4.8259926,13.420809 3.29979,12.670158 2.192214,11.455781 1.0874048,10.241404 0.48035468,8.6526704 0.49529575,7.0102594 0.51079019,5.2851192 1.2124671,3.6344076 2.4426152,2.4233509 3.6755302,1.215061 5.3389694,0.54381957 7.0641096,0.55931401 8.7892498,0.57480845 10.439961,1.2764854 11.651018,2.5066335 c 1.208013,1.232915 1.879531,2.8963541 1.864037,4.6214944 v 0 c -0.003,0.32649 -0.270599,0.5893422 -0.597089,0.5862986 v 0 C 12.591199,7.7116597 12.328347,7.4441038 12.33139,7.1173371 v 0 C 12.344118,5.7059593 11.794342,4.3454919 10.806018,3.3364163 9.8149266,2.3301075 8.4646966,1.7557064 7.0533188,1.7429788 5.6419411,1.7302512 4.2814736,2.2800273 3.272398,3.2683514 2.2660893,4.2594424 1.6916881,5.6096724 1.6789605,7.0210502 c -0.012174,1.3433129 0.4819879,2.644016 1.3875828,3.6375968 0.9053181,0.993582 2.1545576,1.605612 3.4939969,1.7185 z M 5.3090872,8.6648446 C 5.2543033,8.5882024 5.2025629,8.5076867 5.1524827,8.4249574 4.6533403,7.5982182 4.4477622,6.6967736 4.5235743,5.9001932 4.5993864,5.1036128 4.9618457,4.4060862 5.6009915,4.0206619 5.9205644,3.8280881 6.2766599,3.7331847 6.6452063,3.7251608 v 0 c 0.3682697,-0.0083 0.7489903,0.070278 1.1175367,0.2238393 0.7370928,0.3068454 1.4337893,0.9125121 1.9276747,1.7425715 0.1563279,0.2631289 0.283327,0.5337283 0.3779533,0.8057111 0.587406,-0.4811578 0.971723,-0.9919211 0.993582,-1.4855298 0.02103,-0.4759007 -0.944885,-0.7232584 -0.944885,-0.7232584 0,-0.043993 1.302364,0.021305 1.308451,0.7603344 0.0055,0.6756684 -0.488075,1.3181344 -1.230425,1.8875552 0.114825,0.4343978 0.14692,0.8643686 0.106801,1.2672241 -0.07858,0.79077 -0.4407617,1.4824862 -1.0757572,1.8654208 -0.6352722,0.382657 -1.4152514,0.37906 -2.1487473,0.07719 C 6.535085,9.9232147 6.013531,9.5383438 5.5807934,9.0165131 4.9878542,9.1703508 4.4851149,9.2541868 4.1561346,9.2580604 3.4970674,9.2658076 2.6623043,9.1576232 2.5751481,8.479188 2.5120635,7.9872394 3.3202648,7.199513 3.3202648,7.199513 h -2.767e-4 c 0,0 -0.5943226,0.7592277 -0.4363346,1.1310943 C 3.0599028,8.7453604 3.676637,8.842754 4.119612,8.8314099 4.4582763,8.8225559 4.8650054,8.7638984 5.3090872,8.6648446 Z m 6.3903508,0.9238562 v 0 c 0.154391,-0.287754 0.51353,-0.3959384 0.801284,-0.2415473 v 0 c 0.287478,0.1546677 0.395662,0.5135301 0.241271,0.8012845 v 0 c -0.659067,1.225167 -1.694981,2.210171 -2.9522448,2.805324 v 0 c -0.2952245,0.14111 -0.6488298,0.01577 -0.7888332,-0.279454 v 0 C 8.8606349,12.379084 8.9865273,12.024925 9.2817518,11.883815 v 0 C 10.312962,11.396017 11.157686,10.592796 11.699438,9.5887008 Z"
       fill-rule="evenodd"
       fill="url(#_lgradient_7)"
       id="path7"
       style="fill:url(#_lgradient_7);stroke-width:0.276686" />
  </g>
</svg>
