<?xml version="1.0" encoding="UTF-8" standalone="no"?>
<!-- Generator: Gravit.io -->

<svg
   style="isolation:isolate"
   viewBox="0 0 16 16"
   width="16"
   height="16"
   version="1.1"
   id="svg2"
   sodipodi:docname="monero.svg"
   inkscape:version="1.4.4 (unknown)"
   xmlns:inkscape="http://www.inkscape.org/namespaces/inkscape"
   xmlns:sodipodi="http://sodipodi.sourceforge.net/DTD/sodipodi-0.dtd"
   xmlns="http://www.w3.org/2000/svg"
   xmlns:svg="http://www.w3.org/2000/svg">
  <defs
     id="defs2" />
  <sodipodi:namedview
     id="namedview2"
     pagecolor="#ffffff"
     bordercolor="#000000"
     borderopacity="0.25"
     inkscape:showpageshadow="2"
     inkscape:pageopacity="0.0"
     inkscape:pagecheckerboard="0"
     inkscape:deskcolor="#d1d1d1"
     inkscape:document-units="px"
     inkscape:zoom="23.65625"
     inkscape:cx="7.2285337"
     inkscape:cy="8.6869221"
     inkscape:window-width="1920"
     inkscape:window-height="994"
     inkscape:window-x="0"
     inkscape:window-y="0"
     inkscape:window-maximized="1"
     inkscape:current-layer="svg2" />
  <linearGradient
     id="_lgradient_3"
     x1="0.54427081"
     y1="0.98958331"
     x2="0.52052361"
     y2="0.015946219"
     gradientTransform="matrix(13,0,0,13,1.5,1.5)"
     gradientUnits="userSpaceOnUse">
    <stop
       offset="0%"
       stop-opacity="1"
       style="stop-color:#8d5fd3;stop-opacity:1"
       id="stop1" />
    <stop
       offset="98.69565217391305%"
       stop-opacity="1"
       style="stop-color:rgb(252,82,82)"
       id="stop2" />
  </linearGradient>
  <path
     d="M 2.8333125,9.625 H 4.4791667 V 5.0208333 L 8,8.5416667 11.520833,5.0208333 V 9.625 h 1.646396 C 13.332708,9.0998542 13.416667,8.5525 13.416667,8 c 0,-1.4354167 -0.571459,-2.8139583 -1.587084,-3.8295833 C 10.813958,3.1547917 9.4354167,2.5833333 8,2.5833333 c -1.4354167,0 -2.8139583,0.5714584 -3.8295833,1.5870834 C 3.1547917,5.1860417 2.5833333,6.5645833 2.5833333,8 c 0,0.5560208 0.085854,1.1036458 0.2499792,1.625 z m 9.6912295,1.354167 H 10.166667 V 8.2708333 L 8,10.4375 5.8333333,8.2708333 v 2.7083337 h -2.35625 C 3.6775,11.283042 3.9093333,11.5685 4.1704167,11.829583 5.1860417,12.845208 6.5645833,13.416667 8,13.416667 c 1.0345833,0 2.0475,-0.297917 2.919583,-0.853125 0.641334,-0.411396 1.188146,-0.952792 1.604959,-1.584375 z m 1.58275,-0.752917 0.02167,0.0081 -0.1625,0.354792 -0.151666,0.365625 -0.01896,-0.0081 C 13.251458,12.016458 12.42,12.912917 11.398958,13.54125 10.375208,14.166875 9.1997917,14.5 8,14.5 6.2775,14.5 4.6227083,13.814792 3.4039583,12.596042 2.1852083,11.377292 1.5,9.7225 1.5,8 1.5,6.2775 2.1852083,4.6227083 3.4039583,3.4039583 4.6227083,2.1852083 6.2775,1.5 8,1.5 9.7225,1.5 11.377292,2.1852083 12.596042,3.4039583 13.814792,4.6227083 14.5,6.2775 14.5,8 c 0,0.7583333 -0.132708,1.51125 -0.392708,2.22625 -0.02708,0.07583 -0.05687,0.151667 -0.08667,0.2275 l -0.05417,0.135417 -0.065,0.138125 c -0.03521,0.07312 -0.07042,0.14625 -0.105625,0.219375 h -0.0027 z"
     fill-rule="evenodd"
     fill="url(#_lgradient_3)"
     id="path2"
     style="fill:url(#_lgradient_3);stroke-width:0.270833" />
</svg>
