<?xml version="1.0" encoding="UTF-8" standalone="no"?>
<svg
   width="16"
   height="16"
   version="1.1"
   id="svg10"
   sodipodi:docname="mongodb-compass.svg"
   inkscape:version="1.4.4 (unknown)"
   xml:space="preserve"
   xmlns:inkscape="http://www.inkscape.org/namespaces/inkscape"
   xmlns:sodipodi="http://sodipodi.sourceforge.net/DTD/sodipodi-0.dtd"
   xmlns:xlink="http://www.w3.org/1999/xlink"
   xmlns="http://www.w3.org/2000/svg"
   xmlns:svg="http://www.w3.org/2000/svg"><defs
     id="defs10"><linearGradient
       id="linearGradient6"
       inkscape:collect="always"><stop
         style="stop-color:#00d455;stop-opacity:1"
         offset="0"
         id="stop6" /><stop
         style="stop-color:#80ff80;stop-opacity:1"
         offset="1"
         id="stop7" /></linearGradient><linearGradient
       id="paint154_linear_890_11"
       x1="778"
       y1="812.29199"
       x2="788"
       y2="812.29199"
       gradientUnits="userSpaceOnUse"><stop
         stop-color="#EFF2F6"
         id="stop1050" /><stop
         offset="0.600785"
         stop-color="#B7C6CD"
         id="stop1051" /></linearGradient><linearGradient
       id="paint155_linear_890_11"
       x1="783"
       y1="813"
       x2="783"
       y2="817"
       gradientUnits="userSpaceOnUse"><stop
         stop-color="#EFF2F6"
         id="stop1052" /><stop
         offset="0.734138"
         stop-color="#B7C6CD"
         id="stop1053" /></linearGradient><radialGradient
       id="paint156_radial_890_11"
       cx="0"
       cy="0"
       r="1"
       gradientUnits="userSpaceOnUse"
       gradientTransform="matrix(6.9999948,6.9999948,-6.9999948,6.9999948,45.000143,44.000006)"><stop
         offset="0.600678"
         stop-color="#B7C6CD"
         id="stop1054" /><stop
         offset="0.876735"
         stop-color="#EFF2F6"
         id="stop1055" /></radialGradient><linearGradient
       id="paint157_linear_890_11"
       x1="803"
       y1="805"
       x2="763"
       y2="765"
       gradientUnits="userSpaceOnUse"
       gradientTransform="matrix(0.29166667,0,0,0.29166667,-183.37486,-184.95833)"><stop
         offset="0.314714"
         stop-color="#2E2E41"
         id="stop1056" /><stop
         offset="0.711139"
         stop-color="#566C80"
         id="stop1057" /></linearGradient><linearGradient
       id="paint158_linear_890_11"
       x1="792"
       y1="794"
       x2="774"
       y2="776"
       gradientUnits="userSpaceOnUse"
       xlink:href="#paint160_linear_890_11"
       gradientTransform="matrix(0.29166667,0,0,0.29166667,-183.37486,-184.95833)"><stop
         offset="0.304478"
         stop-color="#2E2E41"
         id="stop1058"
         style="stop-color:#ffcc00;stop-opacity:1" /><stop
         offset="1"
         stop-color="#566C80"
         id="stop1059"
         style="stop-color:#ffb380;stop-opacity:1" /></linearGradient><linearGradient
       id="paint160_linear_890_11"
       x1="784"
       y1="798"
       x2="782"
       y2="796"
       gradientUnits="userSpaceOnUse"><stop
         stop-color="#FF7E07"
         id="stop1062" /><stop
         offset="1"
         stop-color="#FFE607"
         id="stop1063" /></linearGradient><linearGradient
       id="paint159_linear_890_11"
       x1="788"
       y1="790"
       x2="778"
       y2="780"
       gradientUnits="userSpaceOnUse"
       gradientTransform="matrix(0.29166667,0,0,0.29166667,-183.37486,-184.95833)"><stop
         offset="0.39139399"
         stop-color="#5200FF"
         id="stop1060"
         style="stop-color:#854cff;stop-opacity:1;" /><stop
         offset="1"
         stop-color="#0085FF"
         id="stop1061"
         style="stop-color:#40a4ff;stop-opacity:1;" /></linearGradient><linearGradient
       id="c"
       x1="23.813"
       x2="23.813"
       y1="13.436"
       y2="35.035999"
       gradientTransform="matrix(1.2307,0,0,1.2307,-4.055,41.465)"
       gradientUnits="userSpaceOnUse"><stop
         offset="0"
         stop-color="#20adff"
         id="stop3" /><stop
         offset="1"
         stop-color="#345da2"
         id="stop4" /></linearGradient><filter
       id="c-3"
       width="1.0595472"
       height="1.049413"
       x="-0.029773597"
       y="-0.024706516"
       color-interpolation-filters="sRGB"><feGaussianBlur
         stdDeviation="2.056"
         id="feGaussianBlur6" /></filter><linearGradient
       id="d"
       x1="69.128998"
       x2="69.128998"
       y1="139.33"
       y2="-18.862"
       gradientUnits="userSpaceOnUse"><stop
         offset="0"
         stop-color="#6c523c"
         id="stop3-6" /><stop
         offset="1"
         stop-color="#ae7952"
         stop-opacity=".965"
         id="stop4-7" /></linearGradient><linearGradient
       id="e"
       x1="78.639"
       x2="78.639"
       y1="143.06"
       y2="-25.268999"
       gradientUnits="userSpaceOnUse"><stop
         offset="0"
         stop-color="#291d1a"
         id="stop1" /><stop
         offset="1"
         stop-color="#513c34"
         id="stop2" /></linearGradient><filter
       id="b-367"
       width="1.1317421"
       height="1.3293637"
       x="-0.065871052"
       y="-0.16468184"
       color-interpolation-filters="sRGB"><feGaussianBlur
         stdDeviation="1.074"
         id="feGaussianBlur5" /></filter><filter
       id="c-5"
       width="1.1008317"
       height="1.3361104"
       x="-0.050415915"
       y="-0.16805519"
       color-interpolation-filters="sRGB"><feGaussianBlur
         stdDeviation=".548"
         id="feGaussianBlur2" /></filter><linearGradient
       inkscape:collect="always"
       xlink:href="#linearGradient6"
       id="linearGradient7"
       x1="0.86892831"
       y1="7.8839288"
       x2="14.898928"
       y2="7.8839288"
       gradientUnits="userSpaceOnUse"
       gradientTransform="matrix(0.94204189,0,0,0.94204189,0.5730097,0.57300954)" /></defs><sodipodi:namedview
     id="namedview10"
     pagecolor="#ffffff"
     bordercolor="#000000"
     borderopacity="0.25"
     inkscape:showpageshadow="2"
     inkscape:pageopacity="0.0"
     inkscape:pagecheckerboard="0"
     inkscape:deskcolor="#d1d1d1"
     inkscape:zoom="23.5"
     inkscape:cx="12.297872"
     inkscape:cy="8.3617021"
     inkscape:window-width="1920"
     inkscape:window-height="994"
     inkscape:window-x="0"
     inkscape:window-y="0"
     inkscape:window-maximized="1"
     inkscape:current-layer="svg10"
     showgrid="false"
     showguides="false"><inkscape:grid
       id="grid1"
       units="px"
       originx="0"
       originy="0"
       spacingx="1"
       spacingy="1"
       empcolor="#0099e5"
       empopacity="0.30196078"
       color="#0099e5"
       opacity="0.14901961"
       empspacing="5"
       enabled="true"
       visible="false" /></sodipodi:namedview><rect
     style="fill:#ffffff;fill-opacity:0.00771454;stroke:url(#linearGradient7);stroke-width:0.970308;stroke-dasharray:none"
     width="12.246544"
     height="12.031692"
     x="1.8767281"
     y="1.9841542"
     rx="3.6739635"
     ry="3.6095078"
     id="rect2" /><g
     id="g1"
     transform="translate(-8.2308624,-13.099501)"><path
       fill="#abacac"
       d="m 16.257653,23.653658 c -0.02931,0.09605 -0.0238,0.198463 -0.03868,0.297478 -0.02422,0.236706 -0.04249,0.475115 -0.103689,0.70651 -0.0221,0.09816 -0.05673,0.193357 -0.08435,0.290036 0.06651,0.128344 0.08839,0.270707 0.103048,0.411794 0.03036,0.164679 0.03825,0.332749 0.051,0.498915 0.01063,0.08308 -0.03315,0.188472 0.04037,0.251151 q 0.12643,0.0414 0.250306,0.08946 c -0.01081,-0.160426 -0.02697,-0.320848 -0.02251,-0.481915 -0.0064,-0.152347 0.01849,-0.303425 0.03038,-0.454924 0.0076,-0.07331 0.0078,-0.148312 0.0372,-0.21737 0.0223,-0.06544 0.068,-0.121329 0.09987,-0.182737 a 1.0624179,1.0624179 0 0 1 -0.137069,-0.111131 c -0.03675,-0.08414 -0.08371,-0.164887 -0.113674,-0.251367 -0.07246,-0.27559 -0.11602,-0.561382 -0.112194,-0.846111 z"
       id="path1"
       style="stroke-width:0.212487" /><path
       fill="#0d6436"
       d="m 16.23874,16.320212 a 1.232405,1.232405 0 0 1 -0.172106,0.212698 c -0.136631,0.136411 -0.287496,0.251792 -0.384596,0.364834 l -0.0032,0.0035 -0.0032,0.0032 c -0.358461,0.35867 -0.704596,0.727967 -0.919417,1.162283 l -0.0021,0.0043 -0.0023,0.0041 c -0.155535,0.260506 -0.293437,0.523136 -0.380556,0.802763 l -0.0014,0.0056 -0.0023,0.0056 c -0.280045,0.658694 -0.392236,1.383689 -0.397973,2.101457 v 0.0014 c 0.0075,1.446382 0.815087,2.817539 1.968448,3.727607 l 0.01445,0.01149 0.0102,0.01488 0.0029,0.0041 c 0.01127,-0.03912 0.01911,-0.06504 0.03334,-0.117942 0.05185,-0.227987 0.0799,-0.463208 0.104118,-0.702463 l 0.01127,-0.10688 h 0.241168 l 0.01171,0.106241 c 0.02999,0.278567 0.09009,0.551185 0.230968,0.770891 0.01339,0.01615 0.01766,0.01999 0.02188,0.01955 0.0051,-6.15e-4 0.0357,-0.01275 0.07288,-0.04378 0.07076,-0.05885 0.14704,-0.164461 0.25668,-0.234369 0.713094,-0.633624 1.205419,-1.48526 1.418966,-2.396391 v -4.5e-4 c 0.215604,-0.913035 0.144421,-1.890249 -0.192366,-2.769932 l -0.0013,-0.0022 -8.3e-4,-0.0023 c -0.3104,-0.917804 -0.873057,-1.748615 -1.596776,-2.417726 l -0.0026,-0.0021 c -0.16445,-0.160403 -0.244133,-0.349514 -0.336564,-0.529486 z"
       id="path2-3"
       style="stroke-width:0.212487" /><path
       fill="#10aa50"
       d="m 16.230879,16 c -0.02869,0.359096 -0.419654,0.565206 -0.639149,0.8204 -0.360161,0.360371 -0.716283,0.738379 -0.941727,1.193732 -0.157667,0.264116 -0.300453,0.535035 -0.391822,0.828262 -0.2877,0.67761 -0.401167,1.41854 -0.407117,2.14821 0.0072,1.490572 0.835485,2.892328 2.013494,3.821727 0.181038,0.266245 0.208233,0.0066 0.251153,-0.154473 0.05949,-0.261784 0.08882,-0.528024 0.115168,-0.794686 z"
       id="path3-6"
       style="stroke-width:0.212487" /><path
       fill="#12935a"
       d="m 16.230879,16.086694 c 0.01507,0.454291 0.0017,0.909429 0,1.365204 0.01232,1.514162 0.0108,3.02853 0,4.542902 -0.0023,0.586457 0.02954,1.172487 0,1.758089 0.02443,0.344435 0.07607,0.716068 0.269009,1.014611 0.172107,0.22162 0.370993,-0.146616 0.52738,-0.236709 0.733494,-0.650837 1.23793,-1.52393 1.457215,-2.459498 0.221405,-0.937056 0.148739,-1.93785 -0.196763,-2.839844 -0.317661,-0.938328 -0.891793,-1.785495 -1.629112,-2.466934 -0.195696,-0.191234 -0.297475,-0.445366 -0.427729,-0.677821"
       id="path4"
       style="stroke-width:0.212487" /></g></svg>
