<?xml version="1.0" encoding="UTF-8" standalone="no"?>
<!-- Generator: Gravit.io -->

<svg
   style="isolation:isolate"
   viewBox="0 0 16 16"
   width="16"
   height="16"
   version="1.1"
   id="svg3"
   sodipodi:docname="mp3splt-gtk.svg"
   inkscape:version="1.4.4 (unknown)"
   xmlns:inkscape="http://www.inkscape.org/namespaces/inkscape"
   xmlns:sodipodi="http://sodipodi.sourceforge.net/DTD/sodipodi-0.dtd"
   xmlns="http://www.w3.org/2000/svg"
   xmlns:svg="http://www.w3.org/2000/svg">
  <defs
     id="defs3" />
  <sodipodi:namedview
     id="namedview3"
     pagecolor="#ffffff"
     bordercolor="#000000"
     borderopacity="0.25"
     inkscape:showpageshadow="2"
     inkscape:pageopacity="0.0"
     inkscape:pagecheckerboard="0"
     inkscape:deskcolor="#d1d1d1"
     inkscape:document-units="px"
     inkscape:zoom="16.727495"
     inkscape:cx="6.8749087"
     inkscape:cy="12.285163"
     inkscape:window-width="1920"
     inkscape:window-height="994"
     inkscape:window-x="0"
     inkscape:window-y="0"
     inkscape:window-maximized="1"
     inkscape:current-layer="svg3" />
  <linearGradient
     id="_lgradient_12"
     x1="0"
     y1="0.5"
     x2="1"
     y2="0.5"
     gradientTransform="matrix(13.020313,0,0,13.000115,1.4898472,1.4999859)"
     gradientUnits="userSpaceOnUse">
    <stop
       offset="0%"
       stop-opacity="1"
       style="stop-color:#8d5fd3;stop-opacity:1"
       id="stop1" />
    <stop
       offset="50.416666666666664%"
       stop-opacity="1"
       style="stop-color:rgb(245,139,123)"
       id="stop2" />
    <stop
       offset="97.91666666666666%"
       stop-opacity="1"
       style="stop-color:rgb(249,172,80)"
       id="stop3" />
  </linearGradient>
  <path
     d="m 6.8229793,12.11119 v 0 c 0.1466438,0.04289 0.2315866,0.196447 0.1895302,0.343091 v 0 c -0.042056,0.146644 -0.195064,0.23214 -0.3417078,0.190914 v 0 C 5.6581292,12.357441 4.7644318,11.745964 4.1308198,10.904836 3.4944408,10.063709 3.1513496,9.0399693 3.1513496,7.9857938 c 0,-0.6806487 0.143877,-1.3557638 0.4233303,-1.9783083 v 0 C 3.6358276,5.8685888 3.798796,5.805781 3.9385227,5.8677588 v 0 c 0.1397266,0.061978 0.2022578,0.2260528 0.1397266,0.3666096 v 0 C 3.8319984,6.7849745 3.7047226,7.3826173 3.7047226,7.9857938 c 0,0.9324335 0.3043551,1.8399652 0.8660287,2.5870182 0.5616735,0.744288 1.3529969,1.283826 2.252228,1.538378 z m 1.637984,-8.3891349 v 0 C 8.3098924,3.7051772 8.2000479,3.5682174 8.2160957,3.4163165 v 0 C 8.2321435,3.2644156 8.3691033,3.1545711 8.5218343,3.171449 v 0 c 1.1842181,0.1300426 2.2826637,0.6944831 3.0767537,1.5826467 0.796857,0.8881636 1.236788,2.0391794 1.236788,3.2316981 0,0.00277 0,0.00277 0,0.00553 l -0.0028,0.1798462 v 0 c -0.003,0.1527309 -0.12949,0.2747497 -0.282221,0.2725362 v 0 c -0.152697,-0.00221 -0.274162,-0.1281021 -0.271118,-0.280833 v 0 l 0.0028,-0.1798462 c 0,-1.0569424 -0.390128,-2.0751487 -1.095678,-2.8609383 C 10.480775,4.3362991 9.509605,3.8382634 8.4609633,3.7220551 Z M 6.7482739,7.9857938 c 0,-0.3292569 0.1300427,-0.6474464 0.3652262,-0.879863 0.2324166,-0.2351835 0.5506061,-0.3652262 0.879863,-0.3652262 0.3292569,0 0.6474464,0.1300427 0.879863,0.3652262 0.2351835,0.2324166 0.3652262,0.5506061 0.3652262,0.879863 v 0 c 0,0.3292569 -0.1300427,0.6474464 -0.3652262,0.879863 C 8.6408095,9.1008404 8.32262,9.230883 7.9933631,9.230883 v 0 c -0.3292569,0 -0.6474464,-0.1300426 -0.879863,-0.3652262 C 6.8783166,8.6332402 6.7482739,8.3150507 6.7482739,7.9857938 Z m 0.8070945,5.3323022 v 0 c 0.3248299,0.02739 0.5669306,0.314039 0.5403687,0.639699 v 0 c -0.026839,0.325384 -0.3134858,0.567484 -0.6396992,0.540092 v 0 C 5.8208208,14.361758 4.2946182,13.611107 3.1870422,12.39673 2.082233,11.182353 1.4751829,9.593619 1.4901239,7.951208 1.5056184,6.2260678 2.2072953,4.5753562 3.4374434,3.3642995 4.6703584,2.1560096 6.3337976,1.4847681 8.0589378,1.5002626 9.784078,1.515757 11.434789,2.217434 12.645846,3.4475821 c 1.208013,1.232915 1.879531,2.8963541 1.864037,4.6214944 v 0 c -0.003,0.32649 -0.270599,0.5893422 -0.597089,0.5862986 v 0 C 13.586027,8.6526083 13.323175,8.3850524 13.326218,8.0582857 v 0 C 13.338946,6.6469079 12.78917,5.2864405 11.800846,4.2773649 10.809755,3.2710561 9.4595248,2.696655 8.048147,2.6839274 6.6367693,2.6711998 5.2763018,3.2209759 4.2672262,4.2093 3.2609175,5.200391 2.6865163,6.550621 2.6737887,7.9619988 c -0.012174,1.3433129 0.4819879,2.6440162 1.3875828,3.6375972 0.9053181,0.993582 2.1545576,1.605612 3.4939969,1.7185 z M 5.641528,7.9857938 c 0,-0.6225446 0.2490178,-1.2229542 0.6889493,-1.6628858 0.4399315,-0.4399315 1.0403412,-0.6889493 1.6628858,-0.6889493 0.6225446,0 1.2229543,0.2490178 1.6628858,0.6889493 0.4399311,0.4399316 0.6889491,1.0403412 0.6889491,1.6628858 v 0 c 0,0.6225446 -0.249018,1.2229543 -0.6889491,1.6628858 C 9.2163174,10.088611 8.6159077,10.337629 7.9933631,10.337629 v 0 c -0.6225446,0 -1.2229543,-0.249018 -1.6628858,-0.6889494 C 5.8905458,9.2087481 5.641528,8.6083384 5.641528,7.9857938 Z m 7.052738,2.5438552 v 0 c 0.154391,-0.287754 0.51353,-0.395938 0.801284,-0.241547 v 0 c 0.287478,0.154668 0.395662,0.51353 0.241271,0.801285 v 0 c -0.659067,1.225167 -1.694981,2.210171 -2.952245,2.805324 v 0 c -0.295224,0.14111 -0.648829,0.01577 -0.7888328,-0.279454 v 0 C 9.8554631,13.320033 9.9813555,12.965874 10.27658,12.824764 v 0 c 1.03121,-0.487798 1.875934,-1.291019 2.417686,-2.295115 z"
     fill-rule="evenodd"
     fill="url(#_lgradient_12)"
     id="path3"
     style="fill:url(#_lgradient_12);stroke-width:0.276686" />
</svg>
