<?xml version="1.0" encoding="UTF-8" standalone="no"?>
<!-- Generator: Gravit.io -->

<svg
   style="isolation:isolate"
   viewBox="0 0 16 16"
   width="16"
   height="16"
   version="1.1"
   id="svg2"
   sodipodi:docname="microsoft-office-online.svg"
   inkscape:version="1.4.4 (unknown)"
   xmlns:inkscape="http://www.inkscape.org/namespaces/inkscape"
   xmlns:sodipodi="http://sodipodi.sourceforge.net/DTD/sodipodi-0.dtd"
   xmlns="http://www.w3.org/2000/svg"
   xmlns:svg="http://www.w3.org/2000/svg">
  <defs
     id="defs2" />
  <sodipodi:namedview
     id="namedview2"
     pagecolor="#ffffff"
     bordercolor="#000000"
     borderopacity="0.25"
     inkscape:showpageshadow="2"
     inkscape:pageopacity="0.0"
     inkscape:pagecheckerboard="0"
     inkscape:deskcolor="#d1d1d1"
     inkscape:document-units="px"
     inkscape:zoom="23.65625"
     inkscape:cx="15.830912"
     inkscape:cy="10.546896"
     inkscape:window-width="1920"
     inkscape:window-height="994"
     inkscape:window-x="0"
     inkscape:window-y="0"
     inkscape:window-maximized="1"
     inkscape:current-layer="svg2" />
  <linearGradient
     id="_lgradient_0"
     x1="0"
     y1="0.5"
     x2="1"
     y2="0.5"
     gradientTransform="matrix(11.22135,0,0,12.999984,2.3892727,1.4998751)"
     gradientUnits="userSpaceOnUse">
    <stop
       offset="0%"
       stop-opacity="1"
       style="stop-color:#2ad4ff;stop-opacity:1"
       id="stop1" />
    <stop
       offset="98.69565217391305%"
       stop-opacity="1"
       style="stop-color:#8d5fd3;stop-opacity:1"
       id="stop2" />
  </linearGradient>
  <path
     d="M 9.1228494,1.7303121 C 8.9123904,1.5786944 8.6570491,1.4960436 8.3943181,1.5001488 8.1315871,1.5056223 7.8743297,1.5767786 7.6471768,1.7026706 L 3.6323188,3.7963082 C 2.8687568,4.1931414 2.3898201,4.986808 2.3898201,5.8461573 v 4.5403197 c -0.00821,0.295573 0.095787,0.582935 0.2928356,0.804614 0.2025218,0.218942 0.4926206,0.342098 0.7936666,0.339361 0.1341022,-0.0027 0.2682045,-0.02463 0.3968332,-0.06842 L 4.7571359,11.16646 C 5.0882864,11.056989 5.3756484,10.846257 5.5781702,10.561631 5.7834288,10.279743 5.8929001,9.940382 5.8929001,9.5928107 V 6.1827814 L 8.6105238,4.8171275 v 0 L 8.7500996,11.451085 H 8.3122147 5.6137484 c -0.1067345,0 -0.2107322,0.0055 -0.3174666,0.01642 -0.095787,0.01095 -0.1915747,0.0301 -0.2846253,0.05747 -0.1149448,0.03558 -0.2216793,0.09305 -0.311993,0.169681 -0.1450494,0.125892 -0.2298897,0.306519 -0.2271529,0.498094 0.00274,0.142313 0.046525,0.279152 0.1286287,0.394096 0.054736,0.07663 0.1204184,0.147787 0.1943115,0.205259 0.1423126,0.112208 0.2955724,0.205259 0.4597792,0.279152 l 2.6546778,1.256182 c 0.2189425,0.106735 0.4570425,0.166944 0.700616,0.172417 0.2520576,0.0038 0.4972736,-0.06924 0.7022576,-0.207174 l 0.06952,-0.01998 2.7778326,-0.793667 c 0.0055,0 0.0082,-0.0027 0.01095,-0.0027 0.410517,-0.125892 0.769035,-0.380412 1.020819,-0.727984 0.262731,-0.336624 0.410517,-0.749878 0.418728,-1.179552 0,-0.0027 0,-0.0082 0,-0.01095 V 4.7158666 c 0,-0.00274 0,-0.00274 0,-0.00547 -0.0027,-0.2162092 -0.04106,-0.4296782 -0.114953,-0.6322 -0.07116,-0.199785 -0.169681,-0.3858861 -0.292836,-0.5583033 -0.123155,-0.1696805 -0.268204,-0.3229402 -0.435148,-0.4543057 -0.16968,-0.1341023 -0.361255,-0.2381 -0.566514,-0.3092563 0,0 -0.0027,0 -0.0027,0 L 9.1305124,1.7327752 Z m 0.54763,1.3374649 0.205806,9.926305 1.9773236,-0.565966 c 0.188838,-0.05747 0.350308,-0.177891 0.465253,-0.336624 0.123155,-0.15326 0.191575,-0.344834 0.197048,-0.539146 V 4.7186034 c 0,-0.09305 -0.01642,-0.1833643 -0.04926,-0.2709413 C 12.43107,4.3464012 12.37907,4.2478771 12.316127,4.1603001 12.250442,4.0727231 12.176549,3.9933564 12.088972,3.9249369 12.017816,3.8674645 11.935713,3.823676 11.848136,3.7935714 Z m -6.18321,7.365226 c 0.010947,0 0.021894,-0.0027 0.032841,-0.0082 0.00274,0 0.00274,0 0.00547,0 L 4.4095647,10.12922 C 4.6421911,10.05259 4.7981876,9.8336475 4.7981876,9.5928107 V 6.0568894 c 0,-0.3021406 0.2189425,-0.6576485 0.4890628,-0.7933928 l 3.1508562,-1.58487 0.1477862,-0.073893 -0.013684,-0.6896689 c 0,-0.00274 0,-0.00547 0,-0.00821 -0.00274,-0.065683 -0.010947,-0.1341023 -0.032841,-0.1970483 -0.00821,-0.027368 -0.024631,-0.054736 -0.043788,-0.079367 -0.021894,-0.021894 -0.049262,-0.035578 -0.082103,-0.035578 -0.08484,0.00274 -0.1696805,0.027368 -0.2435736,0.068419 -0.00274,0.00274 -0.00821,0.00274 -0.010947,0.00547 L 4.1386233,4.7651287 C 3.7363165,4.9758609 3.4845326,5.3918516 3.4845326,5.8461573 v 4.5485307 c 0,0.0055 0,0.01368 0,0.01916 0,0.0055 0,0.01368 0.00274,0.01916 z m 5.2847245,2.112795 H 8.3122147 6.7084609 l 1.6749101,0.793666 c 0.00274,0.0027 0.00821,0.0055 0.010947,0.0055 0.073893,0.03831 0.1559965,0.05747 0.2381,0.06021 0.032841,0 0.062946,-0.01368 0.087577,-0.03558 0.016421,-0.02189 0.027368,-0.04653 0.035578,-0.07116 0.019158,-0.06295 0.027368,-0.125891 0.027368,-0.191574 0,0 0,0 0,0 v -0.02737 z"
     fill-rule="evenodd"
     fill="url(#_lgradient_0)"
     id="path2"
     style="fill:url(#_lgradient_0);stroke-width:0.273678" />
</svg>
