<?xml version="1.0" encoding="UTF-8" standalone="no"?>
<svg
   width="16"
   height="16"
   viewBox="0 0 16 16"
   fill="none"
   version="1.1"
   id="svg5"
   sodipodi:docname="multipass.gui.svg"
   inkscape:version="1.4.4 (unknown)"
   xmlns:inkscape="http://www.inkscape.org/namespaces/inkscape"
   xmlns:sodipodi="http://sodipodi.sourceforge.net/DTD/sodipodi-0.dtd"
   xmlns:xlink="http://www.w3.org/1999/xlink"
   xmlns="http://www.w3.org/2000/svg"
   xmlns:svg="http://www.w3.org/2000/svg">
  <sodipodi:namedview
     id="namedview5"
     pagecolor="#ffffff"
     bordercolor="#000000"
     borderopacity="0.25"
     inkscape:showpageshadow="2"
     inkscape:pageopacity="0.0"
     inkscape:pagecheckerboard="0"
     inkscape:deskcolor="#d1d1d1"
     inkscape:zoom="19.535484"
     inkscape:cx="4.5046235"
     inkscape:cy="14.153732"
     inkscape:window-width="1920"
     inkscape:window-height="994"
     inkscape:window-x="0"
     inkscape:window-y="0"
     inkscape:window-maximized="1"
     inkscape:current-layer="svg5" />
  <g
     id="g5"
     transform="matrix(0.04260185,0,0,0.04260185,1.3967133,1.5000001)">
    <path
       d="m 121.481,279.775 c 6.878,1.854 10.96,8.945 9.106,15.823 -1.853,6.878 -8.944,10.96 -15.822,9.106 C 81.8271,295.856 52.7,276.352 31.9687,249.292 11.2375,222.231 0,189.1 0,155 0,113.925 16.3396,74.4646 45.4021,45.4021 74.4646,16.3396 113.925,0 155,0 196.075,0 235.535,16.3396 264.598,45.4021 293.66,74.4646 310,113.925 310,155 c 0,33.971 -11.173,66.973 -31.71,93.969 -20.602,26.996 -49.471,46.5 -82.215,55.541 -6.878,1.893 -13.995,-2.163 -15.887,-9.041 -1.893,-6.878 2.163,-13.995 9.041,-15.888 27.254,-7.491 51.344,-23.766 68.523,-46.241 17.115,-22.54 26.415,-50.053 26.415,-78.34 0,-34.229 -13.627,-67.1021 -37.846,-91.3208 C 222.102,39.4604 189.229,25.8333 155,25.8333 120.771,25.8333 87.8979,39.4604 63.6792,63.6792 39.4604,87.8979 25.8333,120.771 25.8333,155 c 0,28.417 9.3646,56.058 26.673,78.598 17.2437,22.539 41.527,38.814 68.9747,46.177 z"
       id="path1"
       style="fill:url(#linearGradient7);fill-opacity:1" />
    <path
       d="m 238.828,168.916 c -1.623,0 -3.246,0.271 -5.14,0.541 L 210.424,123.2 c 8.927,-7.304 10.28,-20.829 2.976,-29.7557 -7.304,-8.9267 -20.829,-10.2793 -29.756,-2.9756 -8.927,7.3037 -10.279,20.8293 -2.975,29.7563 0.811,1.082 1.623,1.893 2.705,2.705 l -23.264,46.257 c -3.246,-0.812 -6.492,-0.812 -9.738,0 L 127.378,123.2 c 8.927,-7.304 10.28,-20.829 2.976,-29.7557 -7.304,-8.9267 -20.829,-10.2793 -29.756,-2.9756 -8.9266,7.3037 -10.2792,20.8293 -2.9754,29.7563 0.8115,1.082 1.8935,1.893 2.9754,2.975 l -23.5341,46.257 c -1.8935,-0.541 -3.5166,-0.811 -5.4101,-0.811 -11.6319,0 -21.3702,9.467 -21.3702,21.099 0,11.632 9.4678,21.37 21.0997,21.37 11.6318,0 21.3701,-9.467 21.3701,-21.099 0,-6.222 -2.7051,-12.173 -7.5742,-16.231 l 23.5338,-46.527 c 1.623,0.27 3.246,0.541 5.14,0.541 1.623,0 3.246,-0.271 4.869,-0.541 l 22.993,45.986 c -8.926,7.304 -10.279,20.829 -2.975,29.756 7.304,8.927 20.829,10.279 29.756,2.976 8.926,-7.304 10.279,-20.829 2.975,-29.756 -0.811,-1.082 -1.893,-2.164 -2.975,-2.976 l 23.263,-46.257 c 1.623,0.541 3.517,0.541 5.14,0.541 1.623,0 3.246,-0.27 4.869,-0.541 l 23.264,45.987 c -8.927,7.574 -10.279,20.829 -2.705,29.756 7.574,8.926 20.829,10.279 29.756,2.705 8.926,-7.575 10.279,-20.829 2.705,-29.756 -3.787,-4.058 -9.738,-6.763 -15.96,-6.763 z"
       id="path2"
       style="fill:url(#linearGradient9);fill-opacity:1" />
  </g>
  <defs
     id="defs5">
    <linearGradient
       id="linearGradient5"
       inkscape:collect="always">
      <stop
         style="stop-color:#bc5fd3;stop-opacity:1"
         offset="0"
         id="stop6" />
      <stop
         style="stop-color:#ffb380;stop-opacity:1"
         offset="1"
         id="stop7" />
    </linearGradient>
    <linearGradient
       id="paint0_linear"
       x1="0"
       y1="154.03101"
       x2="310"
       y2="154.03101"
       gradientUnits="userSpaceOnUse">
      <stop
         stop-color="#FF5F6D"
         id="stop2" />
      <stop
         offset="0.986957"
         stop-color="#FFC371"
         id="stop3" />
    </linearGradient>
    <linearGradient
       id="paint1_linear"
       x1="259.716"
       y1="148.439"
       x2="50.2836"
       y2="148.439"
       gradientUnits="userSpaceOnUse"
       xlink:href="#linearGradient5">
      <stop
         stop-color="#FF5F6D"
         id="stop4" />
      <stop
         offset="1"
         stop-color="#FFC371"
         id="stop5" />
    </linearGradient>
    <linearGradient
       inkscape:collect="always"
       xlink:href="#linearGradient5"
       id="linearGradient7"
       x1="0"
       y1="152.57553"
       x2="310"
       y2="152.57553"
       gradientUnits="userSpaceOnUse" />
    <linearGradient
       inkscape:collect="always"
       xlink:href="#linearGradient5"
       id="linearGradient9"
       x1="50.2836"
       y1="148.43861"
       x2="259.71625"
       y2="148.43861"
       gradientUnits="userSpaceOnUse" />
  </defs>
</svg>
