<?xml version="1.0" encoding="UTF-8" standalone="no"?>
<svg
   width="100%"
   height="100%"
   viewBox="0 0 16 16"
   version="1.1"
   id="svg1"
   sodipodi:docname="mumble.svg"
   inkscape:version="1.4.4 (unknown)"
   xmlns:inkscape="http://www.inkscape.org/namespaces/inkscape"
   xmlns:sodipodi="http://sodipodi.sourceforge.net/DTD/sodipodi-0.dtd"
   xmlns:xlink="http://www.w3.org/1999/xlink"
   xmlns="http://www.w3.org/2000/svg"
   xmlns:svg="http://www.w3.org/2000/svg">
  <sodipodi:namedview
     id="namedview1"
     pagecolor="#ffffff"
     bordercolor="#000000"
     borderopacity="0.25"
     inkscape:showpageshadow="2"
     inkscape:pageopacity="0.0"
     inkscape:pagecheckerboard="0"
     inkscape:deskcolor="#d1d1d1"
     inkscape:zoom="23.65625"
     inkscape:cx="8.1162483"
     inkscape:cy="9.997358"
     inkscape:window-width="1920"
     inkscape:window-height="994"
     inkscape:window-x="0"
     inkscape:window-y="0"
     inkscape:window-maximized="1"
     inkscape:current-layer="svg1" />
  <defs
     id="defs1">
    <linearGradient
       id="linearGradient1"
       inkscape:collect="always">
      <stop
         style="stop-color:#00ccff;stop-opacity:1"
         offset="0"
         id="stop1" />
      <stop
         style="stop-color:#8d5fd3;stop-opacity:1"
         offset="1"
         id="stop2" />
    </linearGradient>
    <style
       id="current-color-scheme"
       type="text/css">
   .ColorScheme-Text { color:#dfdfdf; } .ColorScheme-Highlight { color:#4285f4; } .ColorScheme-NeutralText { color:#ff9800; } .ColorScheme-PositiveText { color:#4caf50; } .ColorScheme-NegativeText { color:#f44336; }
  </style>
    <linearGradient
       inkscape:collect="always"
       xlink:href="#linearGradient1"
       id="linearGradient2"
       x1="1.5945903"
       y1="8"
       x2="14.405409"
       y2="8"
       gradientUnits="userSpaceOnUse" />
  </defs>
  <path
     d="M 12.068443,12.529451 H 10.973602 C 11.316774,10.97815 11.431715,9.4491763 11.228293,7.9524521 L 12.251192,7.4620889 12.230519,7.0147255 C 12.230519,4.9738884 10.884295,2.9049361 8,2.9181668 5.1157051,2.9322244 3.7694803,4.9738884 3.7694803,7.0147255 L 3.7893264,7.4620889 4.7717066,7.933433 C 4.5294192,9.4657146 4.6675148,10.997169 5.0263978,12.529451 H 3.7694803 c -2.1160868,0 -2.1160868,-1.838242 -2.1160868,-1.838242 0,0 -0.1323071,-1.485147 0,-2.0987212 0.086,-0.3944406 1.2544368,-1.5777623 1.2544368,-1.5777623 C 2.9078303,3.9633929 5.5514916,1.5 8,1.5 c 2.448508,0 5.092169,2.4633929 5.092169,5.5147255 0,0 1.172572,1.1279181 1.254437,1.5016857 0.132307,0.6127473 0,2.1747978 0,2.1747978 0,1.274283 -1.017111,1.665416 -1.640608,1.785319 C 12.208192,13.668119 11.033967,14.5 9.6538388,14.5 H 6.8803511 c -0.2952102,0 -0.5341899,-0.23898 -0.5341899,-0.53419 v -0.585459 c 0,-0.29521 0.2389797,-0.53419 0.5341899,-0.53419 h 2.2392978 c 0.2952102,0 0.5341899,0.23898 0.5341899,0.53419 v 0.581324 c 1.1295722,0 1.9746832,-0.616054 2.4146042,-1.432224 z"
     id="path1"
     style="fill:url(#linearGradient2)" />
</svg>
