<?xml version="1.0" encoding="UTF-8" standalone="no"?>
<!-- Generator: Gravit.io -->

<svg
   style="isolation:isolate"
   viewBox="0 0 16 16"
   width="16pt"
   height="16pt"
   version="1.1"
   id="svg4"
   sodipodi:docname="musescore.svg"
   inkscape:version="1.4.4 (unknown)"
   xmlns:inkscape="http://www.inkscape.org/namespaces/inkscape"
   xmlns:sodipodi="http://sodipodi.sourceforge.net/DTD/sodipodi-0.dtd"
   xmlns:xlink="http://www.w3.org/1999/xlink"
   xmlns="http://www.w3.org/2000/svg"
   xmlns:svg="http://www.w3.org/2000/svg">
  <defs
     id="defs4">
    <linearGradient
       id="linearGradient4"
       inkscape:collect="always">
      <stop
         style="stop-color:#8660cb;stop-opacity:1"
         offset="0"
         id="stop5" />
      <stop
         style="stop-color:#00ccff;stop-opacity:1"
         offset="1"
         id="stop6" />
    </linearGradient>
    <linearGradient
       inkscape:collect="always"
       xlink:href="#linearGradient4"
       id="linearGradient6"
       x1="0"
       y1="13"
       x2="13"
       y2="0"
       gradientUnits="userSpaceOnUse"
       gradientTransform="matrix(-0.83936204,-0.57469679,0.57470555,-0.83934926,9.7202672,17.302699)" />
  </defs>
  <sodipodi:namedview
     id="namedview4"
     pagecolor="#ffffff"
     bordercolor="#000000"
     borderopacity="0.25"
     inkscape:showpageshadow="2"
     inkscape:pageopacity="0.0"
     inkscape:pagecheckerboard="0"
     inkscape:deskcolor="#d1d1d1"
     inkscape:document-units="pt"
     inkscape:zoom="17.213631"
     inkscape:cx="4.3860589"
     inkscape:cy="4.9669939"
     inkscape:window-width="1920"
     inkscape:window-height="994"
     inkscape:window-x="0"
     inkscape:window-y="0"
     inkscape:window-maximized="1"
     inkscape:current-layer="svg4" />
  <linearGradient
     id="_lgradient_9"
     x1="0"
     y1="0.5"
     x2="1"
     y2="0.5"
     gradientTransform="matrix(8.9374999,0,0,8.9374999,2.03125,2.03125)"
     gradientUnits="userSpaceOnUse">
    <stop
       offset="0%"
       stop-opacity="1"
       style="stop-color:rgb(71,118,230)"
       id="stop1" />
    <stop
       offset="98.26086956521739%"
       stop-opacity="1"
       style="stop-color:rgb(142,84,233)"
       id="stop2" />
  </linearGradient>
  <linearGradient
     id="_lgradient_10"
     x1="0"
     y1="0.5"
     x2="1"
     y2="0.5"
     gradientTransform="matrix(0,-13,13,0,0,13)"
     gradientUnits="userSpaceOnUse">
    <stop
       offset="0%"
       stop-opacity="1"
       style="stop-color:rgb(71,118,230)"
       id="stop3" />
    <stop
       offset="98.26086956521739%"
       stop-opacity="1"
       style="stop-color:rgb(142,84,233)"
       id="stop4" />
  </linearGradient>
  <path
     d="m 6.4550796,13.400949 v 0 c 0.2916955,0.08553 0.4591651,0.391509 0.3736337,0.683205 v 0 C 6.7431825,14.375848 6.4371959,14.54331 6.145498,14.457781 v 0 C 5.4769493,14.263815 4.8440983,13.96407 4.2712338,13.571839 2.3730515,12.272186 1.2799641,10.074667 1.3970414,7.777501 1.4571573,6.563219 1.8530633,5.385188 2.5394773,4.3826903 3.8391499,2.4845369 6.036703,1.3914661 8.3339038,1.5085416 c 1.2143005,0.060115 2.3900762,0.4544585 3.3948622,1.1424185 1.898183,1.2996528 2.99127,3.4971724 2.874193,5.7943382 -0.06012,1.214282 -0.454466,2.3900397 -1.142436,3.3948107 -0.877863,1.282106 -2.179373,2.217386 -3.6739864,2.639812 v 0 C 9.4933112,14.560961 9.1880824,14.389372 9.1054232,14.09705 v 0 c -0.082656,-0.292324 0.089079,-0.596783 0.3832375,-0.679188 v 0 C 10.734811,13.065721 11.818105,12.288216 12.551214,11.217521 13.122448,10.383243 13.452468,9.4038441 13.502465,8.3896484 13.597996,6.4750634 12.688366,4.6435583 11.106169,3.5602548 10.269605,2.9874737 9.2924642,2.6590145 8.278253,2.6090183 6.3636389,2.5134894 4.5321058,3.4231049 3.4487859,5.0052783 2.8775525,5.8395564 2.5475318,6.8189552 2.4975348,7.833151 c -0.09553,1.9145849 0.814099,3.74609 2.3962964,4.829394 0.4773872,0.326858 1.0038683,0.57714 1.5612484,0.738404 z"
     id="path4"
     style="fill:url(#linearGradient6);stroke-width:1.01725" />
  <g
     id="g1"
     transform="translate(-0.6510822,-1.2098711)"
     style="fill:#00ccff">
    <g
       id="g4-6-6"
       transform="matrix(0.01096401,0,0,0.01096401,2.0702081,2.7781287)"
       style="fill:#00ccff;fill-opacity:0.444552">
      <path
         d="m 797.523,329.094 c -39.677,-45.052 -98.961,-74.661 -159.985,-80.118 -80.051,-7.083 -158.13,24.732 -208.248,84.762 -16.243,19.508 -30.744,44.82 -38.75,67.695 -14.618,41.684 -16.126,89.988 -4.176,131.092 l 1.856,6.734 h 81.791 c 44.898,0 81.675,-0.232 81.675,-0.464 0,-0.232 -2.088,-2.671 -4.756,-5.457 -19.027,-20.436 -32.485,-46.213 -38.286,-73.152 -2.088,-9.637 -2.668,-15.791 -2.668,-30.654 0,-18.346 1.276,-28.448 5.685,-43.891 2.204,-7.431 9.629,-24.964 12.414,-28.912 1.16,-1.626 2.088,-3.367 2.088,-3.832 0,-2.438 13.574,-19.855 22.623,-29.028 12.762,-13.005 23.203,-20.785 37.705,-28.332 13.922,-7.083 24.247,-10.798 39.561,-14.166 15.778,-3.599 42.81,-3.832 57.892,-0.58 12.414,2.67 28.192,7.779 36.197,11.727 9.281,4.645 26.336,14.979 26.452,15.908 0,0.58 -1.857,0.929 -4.061,0.929 -13.226,0 -32.252,7.083 -44.55,16.604 -18.562,14.282 -30.396,40.988 -28.656,64.443 1.508,19.971 8.237,34.834 22.043,48.535 16.358,16.256 32.368,22.991 54.644,22.875 10.673,-0.116 14.269,-0.581 22.043,-3.135 43.041,-14.398 64.62,-60.031 48.03,-101.832 -3.248,-8.36 -8.817,-16.604 -18.563,-27.751 z"
         fill="#14f2fe"
         id="path2-7-2"
         style="fill:#00ccff;fill-opacity:0.2" />
      <path
         d="m 719.329,568.868 c 12.762,-11.495 25.523,-22.874 28.424,-25.312 l 5.104,-4.297 h -84.111 -84.111 l -34.225,30.422 c -18.91,16.837 -49.539,44.123 -68.333,60.728 l -33.877,30.189 83.764,0.349 83.763,0.232 4.873,-4.296 c 2.668,-2.439 20.766,-18.579 40.141,-35.763 19.375,-17.301 45.71,-40.756 58.588,-52.252 z"
         fill="#14f2fe"
         id="path3-5-9"
         style="fill:#00ccff;fill-opacity:0.444552" />
      <path
         d="m 836.969,704.257 c -0.232,-13.469 -3.017,-39.595 -4.409,-41.104 -0.696,-0.697 -185.741,-1.858 -185.741,-1.045 0,0.116 2.784,4.064 6.149,8.708 20.883,28.332 30.976,59.218 30.976,94.865 0,44.123 -15.314,80.815 -46.87,112.05 -21.231,21.248 -41.418,32.86 -70.074,40.291 -12.645,3.367 -15.082,3.599 -34.456,3.716 -22.391,0.116 -27.032,-0.581 -46.291,-6.503 -14.154,-4.296 -45.826,-20.32 -45.942,-23.339 0,-0.464 1.972,-0.812 4.409,-0.812 2.552,0 8.469,-1.045 13.458,-2.323 34.572,-8.824 59.168,-42.149 57.079,-77.215 -3.48,-59.218 -67.521,-92.194 -117.524,-60.728 -14.618,9.289 -28.655,28.68 -32.6,45.052 -5.105,21.365 -0.928,44.704 11.254,62.237 12.993,18.695 42.577,43.775 70.653,60.031 26.684,15.327 62.533,27.403 95.945,32.28 13.69,2.09 58.24,2.09 71.698,0.116 52.903,-7.78 99.193,-28.564 138.29,-62.005 53.832,-46.097 85.156,-114.952 83.996,-184.272 z"
         fill="#14f2fe"
         id="path4-3-1"
         style="fill:#00ccff;fill-opacity:0.2" />
    </g>
    <g
       id="g4-6-7"
       transform="matrix(0.01096401,0,0,0.01096401,2.0751445,2.4847929)"
       style="fill:#00ccff">
      <path
         d="m 797.523,329.094 c -39.677,-45.052 -98.961,-74.661 -159.985,-80.118 -80.051,-7.083 -158.13,24.732 -208.248,84.762 -16.243,19.508 -30.744,44.82 -38.75,67.695 -14.618,41.684 -16.126,89.988 -4.176,131.092 l 1.856,6.734 h 81.791 c 44.898,0 81.675,-0.232 81.675,-0.464 0,-0.232 -2.088,-2.671 -4.756,-5.457 -19.027,-20.436 -32.485,-46.213 -38.286,-73.152 -2.088,-9.637 -2.668,-15.791 -2.668,-30.654 0,-18.346 1.276,-28.448 5.685,-43.891 2.204,-7.431 9.629,-24.964 12.414,-28.912 1.16,-1.626 2.088,-3.367 2.088,-3.832 0,-2.438 13.574,-19.855 22.623,-29.028 12.762,-13.005 23.203,-20.785 37.705,-28.332 13.922,-7.083 24.247,-10.798 39.561,-14.166 15.778,-3.599 42.81,-3.832 57.892,-0.58 12.414,2.67 28.192,7.779 36.197,11.727 9.281,4.645 26.336,14.979 26.452,15.908 0,0.58 -1.857,0.929 -4.061,0.929 -13.226,0 -32.252,7.083 -44.55,16.604 -18.562,14.282 -30.396,40.988 -28.656,64.443 1.508,19.971 8.237,34.834 22.043,48.535 16.358,16.256 32.368,22.991 54.644,22.875 10.673,-0.116 14.269,-0.581 22.043,-3.135 43.041,-14.398 64.62,-60.031 48.03,-101.832 -3.248,-8.36 -8.817,-16.604 -18.563,-27.751 z"
         fill="#14f2fe"
         id="path2-7-0"
         style="fill:#00ccff" />
      <path
         d="m 719.329,568.868 c 12.762,-11.495 25.523,-22.874 28.424,-25.312 l 5.104,-4.297 h -84.111 -84.111 l -34.225,30.422 c -18.91,16.837 -49.539,44.123 -68.333,60.728 l -33.877,30.189 83.764,0.349 83.763,0.232 4.873,-4.296 c 2.668,-2.439 20.766,-18.579 40.141,-35.763 19.375,-17.301 45.71,-40.756 58.588,-52.252 z"
         fill="#14f2fe"
         id="path3-5-93"
         style="fill:#00ccff" />
      <path
         d="m 836.969,704.257 c -0.232,-13.469 -3.017,-39.595 -4.409,-41.104 -0.696,-0.697 -185.741,-1.858 -185.741,-1.045 0,0.116 2.784,4.064 6.149,8.708 20.883,28.332 30.976,59.218 30.976,94.865 0,44.123 -15.314,80.815 -46.87,112.05 -21.231,21.248 -41.418,32.86 -70.074,40.291 -12.645,3.367 -15.082,3.599 -34.456,3.716 -22.391,0.116 -27.032,-0.581 -46.291,-6.503 -14.154,-4.296 -45.826,-20.32 -45.942,-23.339 0,-0.464 1.972,-0.812 4.409,-0.812 2.552,0 8.469,-1.045 13.458,-2.323 34.572,-8.824 59.168,-42.149 57.079,-77.215 -3.48,-59.218 -67.521,-92.194 -117.524,-60.728 -14.618,9.289 -28.655,28.68 -32.6,45.052 -5.105,21.365 -0.928,44.704 11.254,62.237 12.993,18.695 42.577,43.775 70.653,60.031 26.684,15.327 62.533,27.403 95.945,32.28 13.69,2.09 58.24,2.09 71.698,0.116 52.903,-7.78 99.193,-28.564 138.29,-62.005 53.832,-46.097 85.156,-114.952 83.996,-184.272 z"
         fill="#14f2fe"
         id="path4-3-6"
         style="fill:#00ccff" />
    </g>
  </g>
</svg>
