<?xml version="1.0" encoding="UTF-8" standalone="no"?>
<!-- Generator: Gravit.io -->

<svg
   style="isolation:isolate"
   viewBox="0 0 16 16"
   width="16"
   height="16"
   version="1.1"
   id="svg2"
   sodipodi:docname="com.musixmatch.Musixmatch.svg"
   inkscape:version="1.4.4 (unknown)"
   xmlns:inkscape="http://www.inkscape.org/namespaces/inkscape"
   xmlns:sodipodi="http://sodipodi.sourceforge.net/DTD/sodipodi-0.dtd"
   xmlns="http://www.w3.org/2000/svg"
   xmlns:svg="http://www.w3.org/2000/svg">
  <defs
     id="defs2" />
  <sodipodi:namedview
     id="namedview2"
     pagecolor="#ffffff"
     bordercolor="#000000"
     borderopacity="0.25"
     inkscape:showpageshadow="2"
     inkscape:pageopacity="0.0"
     inkscape:pagecheckerboard="0"
     inkscape:deskcolor="#d1d1d1"
     inkscape:document-units="px"
     inkscape:zoom="33.45499"
     inkscape:cx="7.114036"
     inkscape:cy="7.7566905"
     inkscape:window-width="1920"
     inkscape:window-height="994"
     inkscape:window-x="0"
     inkscape:window-y="0"
     inkscape:window-maximized="1"
     inkscape:current-layer="svg2" />
  <linearGradient
     id="_lgradient_39"
     x1="0.57617193"
     y1="0.41877192"
     x2="0.18243296"
     y2="0.7590459"
     gradientTransform="matrix(13.020313,0,0,13.000115,1.4898449,1.4999859)"
     gradientUnits="userSpaceOnUse">
    <stop
       offset="0%"
       stop-opacity="1"
       style="stop-color:#8d5fd3;stop-opacity:1"
       id="stop1" />
    <stop
       offset="0.85956615"
       stop-opacity="1"
       style="stop-color:rgb(240,80,129)"
       id="stop2" />
  </linearGradient>
  <path
     d="M 8.034587,7.7168546 8.3555433,7.4595361 9.6280245,6.4286023 C 9.8045504,6.2858321 9.947874,6.3541736 9.947874,6.5810565 v 2.7920434 c 0,0.2268829 -0.1424935,0.2943944 -0.3179127,0.1502407 L 8.369931,8.4882565 8.034587,8.1880516 7.6167904,8.4882565 6.3567601,9.5233406 C 6.1813409,9.6674943 6.0388474,9.5999828 6.0388474,9.3730999 V 6.5810565 c 0,-0.2268829 0.1433236,-0.2952244 0.3198495,-0.1524542 l 1.2724812,1.0309338 z m 0.4100494,5.6012414 v 0 c -0.32483,0.02739 -0.5669306,0.314039 -0.5403687,0.639699 v 0 c 0.026562,0.325384 0.3132091,0.567484 0.6396991,0.540092 v 0 C 10.179184,14.361758 11.705387,13.611107 12.812963,12.39673 13.917772,11.182353 14.524822,9.593619 14.509881,7.951208 14.494387,6.2260678 13.79271,4.5753562 12.562562,3.3642995 11.32937,2.1560096 9.6662072,1.4847681 7.941067,1.5002626 6.2159267,1.515757 4.5652151,2.217434 3.3541584,3.4475821 2.1458685,4.6804971 1.4743504,6.3439362 1.4901216,8.0690765 v 0 c 0.00277,0.32649 0.2705993,0.5893422 0.5970894,0.5862986 v 0 C 2.4139777,8.6526083 2.6765532,8.3850524 2.6737863,8.0582857 v 0 C 2.6607821,6.6469079 3.2108348,5.2864405 4.1991589,4.2773649 5.1902499,3.2710561 6.5402033,2.696655 7.9518577,2.6839274 9.3632355,2.6711994 10.723703,3.2209759 11.732779,4.2093 c 1.006309,0.991091 1.58071,2.341321 1.593437,3.7526988 0.01218,1.3433129 -0.481988,2.6440162 -1.387582,3.6375972 -0.905319,0.993582 -2.1545584,1.605612 -3.4939976,1.7185 z M 7.9933607,6.6933913 9.9711157,5.0927599 C 10.412431,4.7355577 10.77074,4.9065499 10.77074,5.4743106 v 5.0262864 c 0,0.567485 -0.355819,0.73571 -0.7940906,0.374634 L 7.9933607,9.2422272 6.010072,10.875231 C 5.5718006,11.236307 5.2159818,11.068082 5.2159818,10.500597 V 5.4743106 c 0,-0.5677607 0.358309,-0.7387529 0.7996239,-0.3815507 z M 3.3057383,10.529649 v 0 C 3.1510705,10.241895 2.7922081,10.133711 2.5044542,10.288102 v 0 c -0.2877539,0.154668 -0.3959384,0.51353 -0.2412706,0.801285 v 0 c 0.6590672,1.225167 1.6949814,2.210171 2.9519681,2.805324 v 0 c 0.2952245,0.14111 0.6488298,0.01577 0.7891099,-0.279454 v 0 c 0.14028,-0.295224 0.014388,-0.649383 -0.2808368,-0.790493 v 0 C 4.6922142,12.336966 3.8474904,11.533745 3.3057383,10.529649 Z"
     fill-rule="evenodd"
     fill="url(#_lgradient_39)"
     id="path2"
     style="fill:url(#_lgradient_39);stroke-width:0.276686" />
</svg>
