<?xml version="1.0" encoding="UTF-8" standalone="no"?>
<!-- Generator: Gravit.io -->

<svg
   style="isolation:isolate"
   viewBox="0 0 16 16"
   width="16"
   height="16"
   version="1.1"
   id="svg2"
   sodipodi:docname="mysql-workbench.svg"
   inkscape:version="1.4.4 (unknown)"
   xmlns:inkscape="http://www.inkscape.org/namespaces/inkscape"
   xmlns:sodipodi="http://sodipodi.sourceforge.net/DTD/sodipodi-0.dtd"
   xmlns="http://www.w3.org/2000/svg"
   xmlns:svg="http://www.w3.org/2000/svg">
  <defs
     id="defs2" />
  <sodipodi:namedview
     id="namedview2"
     pagecolor="#ffffff"
     bordercolor="#000000"
     borderopacity="0.25"
     inkscape:showpageshadow="2"
     inkscape:pageopacity="0.0"
     inkscape:pagecheckerboard="0"
     inkscape:deskcolor="#d1d1d1"
     inkscape:document-units="px"
     inkscape:zoom="22.627417"
     inkscape:cx="7.380427"
     inkscape:cy="11.512582"
     inkscape:window-width="1920"
     inkscape:window-height="994"
     inkscape:window-x="0"
     inkscape:window-y="0"
     inkscape:window-maximized="1"
     inkscape:current-layer="svg2" />
  <linearGradient
     id="_lgradient_23"
     x1="0"
     y1="0.5"
     x2="0.90748805"
     y2="0.92007786"
     gradientTransform="matrix(13,0,0,13,1.4999606,1.5)"
     gradientUnits="userSpaceOnUse">
    <stop
       offset="0%"
       stop-opacity="1"
       style="stop-color:rgb(0,196,255)"
       id="stop1" />
    <stop
       offset="83.88839793817618%"
       stop-opacity="1"
       style="stop-color:rgb(0,114,255)"
       id="stop2" />
  </linearGradient>
  <path
     d="m 2.6820742,7.6040909 v 0 C 2.6575515,7.9285 2.3730287,8.1728409 2.0474378,8.1492045 v 0 C 1.7218469,8.1255682 1.4772106,7.8416364 1.5017333,7.5154545 v 0 C 1.6228697,5.8815909 2.3594378,4.3511364 3.5634151,3.2343182 4.7673924,2.1204545 6.3501424,1.5 7.9919833,1.5 9.7165516,1.5 11.373166,2.1854545 12.59487,3.4027273 13.81362,4.6229545 14.499961,6.2775 14.499961,8 c 0,1.7225 -0.686341,3.377045 -1.905091,4.597273 C 11.373166,13.814545 9.7165516,14.5 7.9919833,14.5 v 0 C 7.665506,14.5 7.4001878,14.235273 7.4001878,13.909091 v 0 c 0,-0.326182 0.2653182,-0.590909 0.5917955,-0.590909 v 0 c 1.4110909,0 2.7657507,-0.561364 3.7658637,-1.557046 C 12.754711,10.7625 13.316666,9.4093182 13.316666,8 c 0,-1.4093182 -0.561955,-2.7625 -1.558819,-3.7611364 C 10.757734,3.2431818 9.4030742,2.6818182 7.9919833,2.6818182 6.6488469,2.6818182 5.3532787,3.1870455 4.3682333,4.1 3.3831878,5.0129545 2.7825287,6.2656818 2.6820742,7.6040909 Z m 2.8337045,5.1054541 v 0 c 0.28925,0.151569 0.400341,0.509069 0.2487728,0.797728 v 0 c -0.1518637,0.288659 -0.5099546,0.39975 -0.7989091,0.248182 v 0 C 3.7350742,13.108409 2.7411651,12.083182 2.1345969,10.833409 v 0 C 1.991006,10.540023 2.1130287,10.185773 2.407006,10.043068 v 0 c 0.2936818,-0.142704 0.6491137,-0.02009 0.7927046,0.273296 v 0 c 0.4969545,1.025227 1.3073863,1.861363 2.3160681,2.393181 z m 5.7533873,-1.483772 c -0.04402,-0.02866 -0.284523,-0.16575 -0.534478,-0.305205 -0.520295,-0.289841 -1.0394094,-0.733318 -1.0394094,-0.888432 0,-0.137681 0.170182,-0.247591 0.4304774,-0.278318 0.124682,-0.01448 0.288364,-0.0387 0.363705,-0.05318 L 10.626256,9.673748 10.423575,9.525725 C 10.231529,9.3856818 10.083211,9.3159545 9.6477106,9.1623182 9.3658469,9.0630455 9.1613924,8.8311136 8.9309378,8.3501136 8.3305742,7.0970909 8.2194833,6.8911591 8.0153242,6.6545 7.785756,6.3885909 7.454256,6.1111591 7.009006,5.81275 6.5720287,5.5196591 6.5037787,5.4933636 6.1885287,5.4933636 5.9373924,5.4933636 5.884506,5.4794773 5.7282106,5.3722273 5.4812106,5.2032273 5.2359833,5.0986364 5.0838242,5.09775 4.8879378,5.0962727 4.9109833,5.2363182 5.1570969,5.5403409 5.3958242,5.8352045 5.452256,5.9365455 5.5710287,6.284 c 0.049046,0.143 0.1814091,0.4198409 0.2939773,0.6151364 0.1125682,0.1952954 0.20475,0.3725681 0.20475,0.3935454 0,0.020977 -0.047273,0.1734318 -0.1048863,0.3385909 C 5.8381197,7.9943864 5.8029606,8.3829091 5.8709151,8.6706818 5.9890969,9.1702955 6.1338697,9.2385455 6.2163015,8.8328864 6.2880969,8.481 6.4115969,8.2682727 6.544256,8.2691591 6.5847333,8.2694545 6.7147333,8.4691818 6.9064833,8.8257955 7.070756,9.1318864 7.3083015,9.518341 7.4341651,9.684977 7.5600287,9.851318 7.6548697,9.9955 7.6448242,10.00525 7.6211878,10.028886 7.2955969,9.754409 7.0583469,9.510955 6.9555287,9.4054773 6.8080969,9.2143182 6.7306878,9.0857955 6.5971424,8.8642045 6.5882787,8.8571136 6.5543015,8.9469318 c -0.019795,0.052295 -0.048455,0.1521591 -0.063818,0.2218864 -0.044023,0.2015 -0.1669318,0.3291363 -0.3170227,0.3291363 -0.2100682,0 -0.36075,-0.2109545 -0.4833637,-0.676 C 5.608256,8.5114318 5.6289378,7.8502045 5.7308697,7.5204773 5.796756,7.3080455 5.796756,7.30775 5.6989606,7.2034545 5.5728015,7.0693182 5.501006,6.9254318 5.3458924,6.4961364 5.2478015,6.2237273 5.1568015,6.0668409 4.9310742,5.7787727 4.7280969,5.5199545 4.6341424,5.3636591 4.6155287,5.2543409 4.5579151,4.9148636 4.6890969,4.7175 4.9691878,4.7237045 c 0.2162728,0.00473 0.6591591,0.15275 0.8500228,0.2842273 0.1125681,0.077705 0.2251363,0.1113864 0.4431818,0.13325 0.5356591,0.053477 1.1197727,0.3947273 1.73225,1.0122273 0.5932727,0.5982954 1.04,1.3035454 1.2060454,1.9039091 0.1113864,0.4024091 0.2871819,0.5923863 0.7699548,0.8314091 0.3545454,0.1755 0.4635684,0.2552727 0.7853184,0.5743636 0.205341,0.2035681 0.37375,0.4003411 0.37375,0.4372731 0,0.08095 -0.166932,0.138863 -0.498136,0.17225 -0.464455,0.04698 -0.460909,0.03782 -0.113159,0.284522 0.592681,0.420432 0.805704,0.625478 0.868636,0.835546 0.03014,0.100454 -0.0015,0.109318 -0.117886,0.03309 z M 6.1687333,6.1915227 C 6.1362333,6.1144091 6.0738924,6.0319773 6.0298697,6.0086364 5.9368015,5.959 5.9270515,5.8789318 6.0065287,5.8133409 c 0.085091,-0.070614 0.3323864,0.043727 0.3637046,0.1681136 0.074454,0.2954546 -0.092477,0.4697728 -0.2015,0.2100682 z"
     fill-rule="evenodd"
     fill="url(#_lgradient_23)"
     id="path2"
     style="fill:url(#_lgradient_23);stroke-width:0.295455" />
</svg>
