<?xml version="1.0" encoding="UTF-8" standalone="no"?>
<svg
   version="1.1"
   viewBox="0 0 16 16"
   id="svg1"
   sodipodi:docname="nemiver.svg"
   inkscape:version="1.4.4 (unknown)"
   xmlns:inkscape="http://www.inkscape.org/namespaces/inkscape"
   xmlns:sodipodi="http://sodipodi.sourceforge.net/DTD/sodipodi-0.dtd"
   xmlns:xlink="http://www.w3.org/1999/xlink"
   xmlns="http://www.w3.org/2000/svg"
   xmlns:svg="http://www.w3.org/2000/svg">
  <sodipodi:namedview
     id="namedview1"
     pagecolor="#ffffff"
     bordercolor="#000000"
     borderopacity="0.25"
     inkscape:showpageshadow="2"
     inkscape:pageopacity="0.0"
     inkscape:pagecheckerboard="0"
     inkscape:deskcolor="#d1d1d1"
     inkscape:zoom="33.410795"
     inkscape:cx="5.5820282"
     inkscape:cy="8.0363248"
     inkscape:current-layer="svg1"
     inkscape:window-width="1920"
     inkscape:window-height="994"
     inkscape:window-x="0"
     inkscape:window-y="0"
     inkscape:window-maximized="1" />
  <defs
     id="defs1">
    <linearGradient
       id="linearGradient3"
       inkscape:collect="always">
      <stop
         style="stop-color:#d35f8d;stop-opacity:1;"
         offset="0"
         id="stop3" />
      <stop
         style="stop-color:#d35f8d;stop-opacity:1;"
         offset="1"
         id="stop4" />
    </linearGradient>
    <linearGradient
       id="linearGradient1"
       inkscape:collect="always">
      <stop
         style="stop-color:#d35f8d;stop-opacity:1;"
         offset="0"
         id="stop1" />
      <stop
         style="stop-color:#d35f8d;stop-opacity:1;"
         offset="1"
         id="stop2" />
    </linearGradient>
    <style
       id="current-color-scheme"
       type="text/css">.ColorScheme-Text { color:#dedede; }
</style>
    <linearGradient
       inkscape:collect="always"
       xlink:href="#linearGradient1"
       id="linearGradient2"
       x1="4.1"
       y1="8.0000001"
       x2="11.9"
       y2="8.0000001"
       gradientUnits="userSpaceOnUse" />
    <linearGradient
       inkscape:collect="always"
       xlink:href="#linearGradient3"
       id="linearGradient4"
       x1="4.1"
       y1="8.0000001"
       x2="11.9"
       y2="8.0000001"
       gradientUnits="userSpaceOnUse" />
  </defs>
  <path
     d="m 6.125,2.0000001 h 3.7500004 c 0.2070726,0 0.3749996,0.167895 0.3749996,0.375 v 2.625 c 0.828448,0 1.5,0.6715728 1.5,1.5000002 V 12.5 c 0,0.828446 -0.671552,1.5 -1.5,1.5 H 5.75 C 4.92155,14 4.25,13.328446 4.25,12.5 V 6.5000003 c 0,-0.8284502 0.6715728,-1.5000002 1.5,-1.5000002 v -2.625 c 0,-0.207105 0.1678954,-0.375 0.375,-0.375 z m 3.3750004,3 V 2.7500002 H 6.5 V 5.0000001 Z M 5.75,5.7500002 C 5.3357901,5.7500002 5,6.0857901 5,6.5000003 V 12.5 c 0,0.414222 0.3357901,0.75 0.75,0.75 h 4.5 C 10.664224,13.25 11,12.914222 11,12.5 V 6.5000003 C 11,6.0857901 10.664224,5.7500002 10.25,5.7500002 Z"
     class="ColorScheme-Text"
     fill="currentColor"
     id="path1"
     style="stroke-width:0.3;stroke:url(#linearGradient4);stroke-opacity:1;stroke-dasharray:none;fill:url(#linearGradient2);fill-opacity:1" />
  <path
     style="fill:#d35f8d;fill-rule:evenodd;stroke:#d35f8d;stroke-width:0.327702px;stroke-opacity:1;fill-opacity:1"
     d="M 6.2222198,9.4827308 H 9.7777837"
     id="path1-5" />
  <path
     style="fill:#d35f8d;fill-rule:evenodd;stroke:#d35f8d;stroke-width:0.329983px;stroke-opacity:1;fill-opacity:1"
     d="M 6.2033303,11.38601 9.7966725,7.7187588"
     id="path2" />
  <path
     style="fill:#d35f8d;fill-rule:evenodd;stroke:#d35f8d;stroke-width:0.329983px;stroke-opacity:1;fill-opacity:1"
     d="M 9.7966725,11.386011 6.2033303,7.7193308"
     id="path3" />
  <ellipse
     style="fill:#d35f8d;stroke-width:0.444448;stroke:#d35f8d;stroke-opacity:1;fill-opacity:1"
     cx="8"
     cy="8.5526724"
     rx="0.66666847"
     ry="1.0000023"
     id="ellipse3" />
  <ellipse
     style="fill:#d35f8d;stroke-width:0.444448;stroke:#d35f8d;stroke-opacity:1;fill-opacity:1"
     cx="8"
     cy="10.386001"
     rx="0.88889027"
     ry="1.1666689"
     id="ellipse4" />
</svg>
