<?xml version="1.0" encoding="UTF-8" standalone="no"?>
<!-- Generator: Gravit.io -->

<svg
   style="isolation:isolate"
   viewBox="0 0 16 16"
   width="16"
   height="16"
   version="1.1"
   id="svg2"
   sodipodi:docname="com.netease.CloudMusic.svg"
   inkscape:version="1.4.4 (unknown)"
   xmlns:inkscape="http://www.inkscape.org/namespaces/inkscape"
   xmlns:sodipodi="http://sodipodi.sourceforge.net/DTD/sodipodi-0.dtd"
   xmlns="http://www.w3.org/2000/svg"
   xmlns:svg="http://www.w3.org/2000/svg">
  <defs
     id="defs2" />
  <sodipodi:namedview
     id="namedview2"
     pagecolor="#ffffff"
     bordercolor="#000000"
     borderopacity="0.25"
     inkscape:showpageshadow="2"
     inkscape:pageopacity="0.0"
     inkscape:pagecheckerboard="0"
     inkscape:deskcolor="#d1d1d1"
     inkscape:document-units="px"
     inkscape:zoom="23.65625"
     inkscape:cx="6.678996"
     inkscape:cy="4.2483487"
     inkscape:window-width="1920"
     inkscape:window-height="994"
     inkscape:window-x="0"
     inkscape:window-y="0"
     inkscape:window-maximized="1"
     inkscape:current-layer="svg2" />
  <linearGradient
     id="_lgradient_34"
     x1="0"
     y1="0.5"
     x2="1"
     y2="0.5"
     gradientTransform="matrix(12.946885,0,0,12.999992,1.5264959,1.4999913)"
     gradientUnits="userSpaceOnUse">
    <stop
       offset="0%"
       stop-opacity="1"
       style="stop-color:rgb(255,224,49)"
       id="stop1" />
    <stop
       offset="100%"
       stop-opacity="1"
       style="stop-color:rgb(250,0,117)"
       id="stop2" />
  </linearGradient>
  <path
     d="m 5.5246848,3.2845858 v 0 C 5.8137271,3.1327349 5.9251951,2.7748202 5.7733442,2.4857778 v 0 C 5.6214932,2.1970121 5.2635785,2.085544 4.9745362,2.237395 v 0 C 3.7439625,2.8851818 2.749878,3.911628 2.1435805,5.1629463 v 0 c -0.1438297,0.2940211 -0.021851,0.6486166 0.2721701,0.79134 v 0 c 0.2937445,0.1429999 0.6491698,0.020468 0.7927229,-0.2735531 v 0 C 3.7055157,4.6542871 4.5159407,3.8170323 5.5246848,3.2845858 Z M 8.041981,2.6063735 v 0 C 7.7366195,2.6047139 7.4898963,2.3557779 7.4915558,2.0504164 v 0 C 7.4932154,1.7450549 7.7421514,1.4983317 8.0475129,1.4999913 v 0 c 1.5931905,0.0083 3.1282961,0.6029783 4.3121251,1.6678712 1.183829,1.0676589 1.936169,2.5308494 2.110424,4.115742 v 0 c 0.03347,0.303702 -0.185872,0.5778082 -0.489574,0.6112763 v 0 C 13.676786,7.9283488 13.40268,7.7090085 13.369212,7.4053066 v 0 C 13.225382,6.0914777 12.600276,4.8744572 11.618362,3.9921173 10.636447,3.1070115 9.3641078,2.6146714 8.041981,2.6063735 Z m 5.000848,7.3297825 v 0 c 0.109809,-0.2854466 0.430936,-0.4278933 0.716383,-0.3180849 v 0 c 0.285446,0.1098085 0.427893,0.4309359 0.318085,0.7163829 v 0 c -0.528298,1.363616 -1.499148,2.511487 -2.757658,3.258295 v 0 c -0.262489,0.155724 -0.602149,0.06887 -0.757872,-0.193616 v 0 c -0.155724,-0.26249 -0.06887,-0.602149 0.193617,-0.757872 v 0 c 1.045531,-0.619574 1.850424,-1.571063 2.287445,-2.705105 z m -4.8597842,3.454679 v 0 c 0.3053615,-0.0047 0.5567868,0.239531 0.561489,0.544893 v 0 c 0.0047,0.305361 -0.2395318,0.556787 -0.5448933,0.561489 v 0 l -0.1825531,0.0028 c -0.00277,0 -0.00553,0 -0.0083,0 -1.6346799,0 -3.2112746,-0.616808 -4.4116994,-1.725956 C 2.3966655,11.664878 1.6553894,10.140837 1.5281554,8.5116889 v 0 C 1.505198,8.2079869 1.7333894,7.9413488 2.0370912,7.9170084 v 0 c 0.303702,-0.02434 0.5703401,0.2035743 0.5946805,0.5089358 v 0 c 0.1051063,1.3497864 0.7191485,2.6138278 1.7148925,3.5348918 0.9957441,0.921063 2.3012752,1.432765 3.6565934,1.432765 z M 8.2331086,6.758073 C 7.9645343,6.8432644 7.7327472,6.9732643 7.5590452,7.1903918 7.3264283,7.480264 7.2796836,7.8135617 7.3543644,8.1684338 7.3928112,8.3526464 7.4827048,8.5097527 7.6409174,8.6195611 7.8384067,8.7573057 8.106981,8.7514972 8.3133213,8.6082207 8.5246403,8.4624549 8.6181296,8.2265188 8.5567254,7.9847743 8.4895126,7.720349 8.4173212,7.4564768 8.3476191,7.1920514 8.3091723,7.0496047 8.2723851,6.9068814 8.2331086,6.758073 Z M 9.2003633,3.8314153 c 0.081042,0.013277 0.1629147,0.022957 0.2434041,0.040106 0.2815742,0.062234 0.5338294,0.1869786 0.7567656,0.3695317 0.145766,0.1194896 0.20551,0.2760427 0.163744,0.4619149 C 10.32666,4.8692018 10.220171,4.9814996 10.05532,5.0296273 9.8998734,5.0747123 9.7599161,5.0404145 9.6321289,4.9380741 9.4705971,4.8086274 9.2905334,4.7184573 9.0758953,4.7380955 8.8933422,4.7546913 8.7188104,4.9460954 8.7351295,5.1173081 c 0.00747,0.07717 0.034298,0.1515743 0.054213,0.2270849 0.034298,0.1333191 0.069425,0.266085 0.1048298,0.3988508 0.00553,0.022957 0.01134,0.040936 0.043426,0.043425 0.4887443,0.02683 0.9301909,0.1858723 1.3243397,0.4823827 0.386404,0.2907019 0.703383,0.639489 0.916361,1.0778929 0.155724,0.3216807 0.243405,0.6616166 0.266362,1.0178717 0.03015,0.4743614 -0.02462,0.9379356 -0.209659,1.376063 C 10.805724,10.758198 10.051448,11.414283 8.9915336,11.716325 8.5877041,11.831112 8.1741937,11.876197 7.7557046,11.85241 6.8858115,11.803176 6.1315354,11.474027 5.4967486,10.879347 4.8691533,10.292964 4.4794301,9.5721563 4.3433451,8.7260504 4.1583027,7.5745831 4.4418131,6.542605 5.1919403,5.648095 5.6040677,5.1565846 6.1182588,4.8019891 6.717918,4.5735212 6.9242583,4.494968 7.1502369,4.5677127 7.2641943,4.7488828 7.3795346,4.9330954 7.3527049,5.1698612 7.1920028,5.3172867 7.1469178,5.3590526 7.0896625,5.3916909 7.0324072,5.4146483 6.1182588,5.7866693 5.5138975,6.444137 5.2738126,7.4025406 c -0.2326169,0.9296377 -0.02683,1.7815521 0.5667443,2.5308495 0.3728508,0.4702129 0.8535739,0.7855319 1.4358076,0.9409779 0.3767232,0.100128 0.7567655,0.10649 1.1401269,0.04758 0.3955317,-0.06141 0.7650634,-0.190851 1.0958717,-0.41766 C 9.9687457,10.192284 10.292916,9.7760072 10.455277,9.2463267 10.595235,8.7891142 10.600213,8.3271996 10.427341,7.8744127 10.287937,7.5090299 10.04149,7.2280088 9.7319799,6.9962218 9.5665758,6.8725835 9.3895546,6.7760517 9.1873633,6.7284772 c -0.00913,-0.00249 -0.018809,-0.00332 -0.035404,-0.00581 0.027936,0.1056595 0.053383,0.2063403 0.07966,0.3064679 0.063893,0.241468 0.1291701,0.4832125 0.1922339,0.7255102 0.1369148,0.5258082 0.00415,0.986893 -0.3579147,1.3802119 C 8.7309806,9.4985819 8.3044702,9.6556881 7.8146195,9.6089435 7.2700028,9.5566669 6.8808328,9.2609863 6.6269181,8.7819227 6.4941522,8.5310506 6.4368969,8.2608167 6.4263863,7.9784126 6.4089608,7.5278384 6.5146203,7.1126685 6.772684,6.7406475 7.0495561,6.3417966 7.4337474,6.0853926 7.8865343,5.9266267 7.9227683,5.9144565 7.9587258,5.9028395 8.0004917,5.8890097 7.9758747,5.7963502 7.9504279,5.70618 7.9283002,5.6146269 7.8981513,5.4893291 7.8597045,5.3640313 7.8439386,5.2370739 7.7988535,4.8603508 7.9144705,4.5317552 8.1750235,4.2573724 8.3880021,4.0330534 8.6466189,3.8906067 8.9572358,3.8471812 c 0.034298,-0.00498 0.067766,-0.00996 0.1023403,-0.014936 0.047298,-8.298e-4 0.094042,-8.298e-4 0.1407872,-8.299e-4 z"
     fill-rule="evenodd"
     fill="url(#_lgradient_34)"
     id="path2"
     style="fill:url(#_lgradient_34);stroke-width:0.276596" />
</svg>
