<?xml version="1.0" encoding="UTF-8" standalone="no"?>
<!-- Generator: Gravit.io -->

<svg
   style="isolation:isolate"
   viewBox="0 0 16 16"
   width="16"
   height="16"
   version="1.1"
   id="svg2"
   sodipodi:docname="newshosting.svg"
   inkscape:version="1.4.4 (unknown)"
   xmlns:inkscape="http://www.inkscape.org/namespaces/inkscape"
   xmlns:sodipodi="http://sodipodi.sourceforge.net/DTD/sodipodi-0.dtd"
   xmlns:xlink="http://www.w3.org/1999/xlink"
   xmlns="http://www.w3.org/2000/svg"
   xmlns:svg="http://www.w3.org/2000/svg">
  <defs
     id="defs2">
    <linearGradient
       id="linearGradient2"
       inkscape:collect="always">
      <stop
         style="stop-color:#ffb380;stop-opacity:1"
         offset="0"
         id="stop3" />
      <stop
         style="stop-color:#ff80e5;stop-opacity:1"
         offset="1"
         id="stop4" />
    </linearGradient>
    <linearGradient
       inkscape:collect="always"
       xlink:href="#linearGradient2"
       id="linearGradient4"
       x1="1.5000166"
       y1="8"
       x2="14.499983"
       y2="8"
       gradientUnits="userSpaceOnUse" />
  </defs>
  <sodipodi:namedview
     id="namedview2"
     pagecolor="#ffffff"
     bordercolor="#000000"
     borderopacity="0.25"
     inkscape:showpageshadow="2"
     inkscape:pageopacity="0.0"
     inkscape:pagecheckerboard="0"
     inkscape:deskcolor="#d1d1d1"
     inkscape:document-units="px"
     inkscape:zoom="16.727495"
     inkscape:cx="9.3259632"
     inkscape:cy="19.279635"
     inkscape:window-width="1920"
     inkscape:window-height="994"
     inkscape:window-x="0"
     inkscape:window-y="0"
     inkscape:window-maximized="1"
     inkscape:current-layer="svg2" />
  <linearGradient
     id="_lgradient_1"
     x1="0.11458334"
     y1="0.65625018"
     x2="0.998447"
     y2="0.49793512"
     gradientTransform="matrix(13.000015,0,0,13.000015,1.4999711,1.4999801)"
     gradientUnits="userSpaceOnUse">
    <stop
       offset="0%"
       stop-opacity="1"
       style="stop-color:rgb(0,198,255)"
       id="stop1" />
    <stop
       offset="98.69565217391305%"
       stop-opacity="1"
       style="stop-color:rgb(0,114,255)"
       id="stop2" />
  </linearGradient>
  <path
     d="M 6.9867901,9.1345099 H 5.4668716 L 7.9999788,12.680535 10.533086,9.1345099 H 9.0131675 V 6.8654656 H 10.533086 L 7.9999788,3.3194406 5.4668716,6.8654656 H 6.9867901 Z M 10.67744,12.652369 v 0 c 0.270563,-0.154646 0.61723,-0.06094 0.773501,0.208812 v 0 c 0.156271,0.269751 0.06337,0.615876 -0.207459,0.771876 v 0 c -1.05273,0.606126 -2.2533354,0.904585 -3.4650452,0.863147 -1.0987721,-0.03738 -2.1710025,-0.35398 -3.1159411,-0.917855 v 0 C 4.394912,13.418015 4.3079744,13.070265 4.4683079,12.802681 v 0 c 0.1606044,-0.267583 0.508084,-0.354521 0.7759385,-0.194188 v 0 c 0.7786467,0.46773 1.6631894,0.726918 2.5726488,0.758064 1.002897,0.03412 1.9922524,-0.212063 2.8605448,-0.714188 z m 2.129294,-7.0476341 v 0 C 12.666442,5.3252346 12.77938,4.9850675 13.05888,4.8455882 v 0 c 0.2795,-0.1394793 0.618855,-0.026 0.757793,0.2535003 v 0 c 0.48425,0.9666053 0.716355,2.0407316 0.679521,3.1224412 -0.02817,0.8246885 -0.21125,1.6355644 -0.54248,2.3879403 v 0 c -0.125125,0.286 -0.459063,0.416542 -0.745063,0.291146 v 0 c -0.286,-0.125125 -0.416542,-0.459063 -0.291146,-0.745063 v 0 c 0.275708,-0.6212926 0.42575,-1.2918767 0.448771,-1.9724817 0.0306,-0.8926677 -0.1625,-1.7785646 -0.559542,-2.5783364 z M 5.6737885,3.1615445 v 0 C 5.392934,3.2956072 5.0549336,3.1764404 4.919246,2.8955859 v 0 C 4.7838291,2.6147314 4.9016418,2.2764602 5.1824963,2.1410433 v 0 C 6.1282474,1.6868553 7.1706861,1.4680217 8.2215207,1.5037717 9.2325427,1.5381676 10.224606,1.8068346 11.11267,2.2924393 v 0 c 0.274354,0.149771 0.375375,0.4940006 0.225604,0.7683551 v 0 C 11.188503,3.3348781 10.844273,3.435899 10.569919,3.286128 v 0 C 9.8370434,2.8850234 9.018855,2.6621273 8.1830623,2.6334189 7.315853,2.603898 6.4556853,2.7840024 5.6737885,3.1615445 Z M 2.9055978,9.7038023 v 0 c 0.099396,0.2952086 -0.060396,0.6156047 -0.3564171,0.7147297 v 0 C 2.2531595,10.517657 1.9322216,10.357053 1.8330965,10.06049 v 0 C 1.589617,9.3254476 1.4774919,8.5524884 1.5037628,7.7784458 1.5387003,6.7560488 1.8130548,5.7531518 2.3103054,4.8566924 v 0 c 0.149771,-0.2727295 0.4931881,-0.371313 0.7667301,-0.219917 v 0 c 0.273542,0.1513961 0.3726671,0.4956256 0.2212711,0.7683551 v 0 C 2.8885352,6.1461314 2.6623891,6.9724449 2.6334099,7.8169042 2.6117432,8.4582383 2.7030142,9.0946974 2.9055978,9.7038023 Z M 12.865234,3.8930662 c -0.01083,0.3120004 -0.272459,0.5562924 -0.584188,0.5457298 -0.31173,-0.010562 -0.556293,-0.2724586 -0.54573,-0.5841881 0.01056,-0.3117296 0.272459,-0.5562924 0.584188,-0.545459 0.31173,0.010563 0.556292,0.2721878 0.54573,0.5839173 z M 4.0355158,11.727472 c -0.010563,0.311729 -0.2721879,0.556292 -0.5839174,0.545729 -0.3120004,-0.01083 -0.5562923,-0.272458 -0.5457298,-0.584188 0.010562,-0.31173 0.2724587,-0.556292 0.5841882,-0.54573 0.3117295,0.01056 0.5562923,0.272459 0.545459,0.584189 z m 9.0482812,0.308479 c 0.01056,-0.311729 -0.234001,-0.573355 -0.54573,-0.584188 -0.31173,-0.01056 -0.573355,0.234 -0.584188,0.54573 -0.01056,0.311729 0.234,0.573625 0.545729,0.584188 0.31173,0.01056 0.573626,-0.234 0.584189,-0.54573 z M 4.4425787,3.6059826 C 4.4531413,3.294253 4.2088493,3.0323569 3.8971198,3.0217944 3.5851194,3.0112319 3.3234941,3.2557946 3.3129316,3.5675242 3.3020982,3.8792537 3.546661,4.140879 3.8583906,4.1517124 4.1703909,4.1622749 4.4320162,3.9177121 4.4425787,3.6059826 Z"
     fill-rule="evenodd"
     id="path2"
     style="fill:url(#linearGradient4)" />
</svg>
