<?xml version="1.0" encoding="UTF-8" standalone="no"?>
<!-- Generator: Gravit.io -->

<svg
   style="isolation:isolate"
   viewBox="0 0 16 16"
   width="16"
   height="16"
   version="1.1"
   id="svg2"
   sodipodi:docname="nicotine-plus.svg"
   inkscape:version="1.4.4 (unknown)"
   xmlns:inkscape="http://www.inkscape.org/namespaces/inkscape"
   xmlns:sodipodi="http://sodipodi.sourceforge.net/DTD/sodipodi-0.dtd"
   xmlns:xlink="http://www.w3.org/1999/xlink"
   xmlns="http://www.w3.org/2000/svg"
   xmlns:svg="http://www.w3.org/2000/svg">
  <defs
     id="defs2">
    <linearGradient
       inkscape:collect="always"
       xlink:href="#linearGradient5"
       id="linearGradient6"
       x1="-9.9871616"
       y1="-13.826643"
       x2="131.47385"
       y2="142.43074"
       gradientUnits="userSpaceOnUse"
       gradientTransform="matrix(0.09983651,0,0,0.10011212,1.211515,1.5928223)" />
    <linearGradient
       id="linearGradient5"
       inkscape:collect="always">
      <stop
         style="stop-color:#8d5fd3;stop-opacity:1"
         offset="0"
         id="stop5" />
      <stop
         style="stop-color:#ffb27f;stop-opacity:1;"
         offset="1"
         id="stop6" />
    </linearGradient>
  </defs>
  <sodipodi:namedview
     id="namedview2"
     pagecolor="#ffffff"
     bordercolor="#000000"
     borderopacity="0.25"
     inkscape:showpageshadow="2"
     inkscape:pageopacity="0.0"
     inkscape:pagecheckerboard="0"
     inkscape:deskcolor="#d1d1d1"
     inkscape:document-units="px"
     inkscape:zoom="11.828125"
     inkscape:cx="13.780713"
     inkscape:cy="11.709379"
     inkscape:window-width="1920"
     inkscape:window-height="994"
     inkscape:window-x="0"
     inkscape:window-y="0"
     inkscape:window-maximized="1"
     inkscape:current-layer="svg2" />
  <linearGradient
     id="_lgradient_8"
     x1="0"
     y1="0.5"
     x2="0.90748805"
     y2="0.92007786"
     gradientTransform="matrix(47,0,0,44,0.5,2)"
     gradientUnits="userSpaceOnUse">
    <stop
       offset="0%"
       stop-opacity="1"
       style="stop-color:rgb(247,241,7)"
       id="stop1" />
    <stop
       offset="83.88839793817618%"
       stop-opacity="1"
       style="stop-color:rgb(255,187,36)"
       id="stop2" />
  </linearGradient>
  <path
     fill="#f9aa40"
     d="M 0.740103,2.0201023 V 13.980005 a 0.51856417,0.51999576 0 0 0 0.518564,0.519996 H 2.814359 A 0.51856417,0.51999576 0 0 0 3.332924,13.980005 V 4.1000843 h 0.518564 c 0.286507,0 0.754511,-0.01053 1.033499,0.05174 0.539306,0.12038 0.869113,0.451097 0.989161,0.991892 0.06223,0.279758 0.0516,0.749054 0.0516,1.036352 v 7.7999367 a 0.51856417,0.51999576 0 0 0 0.518561,0.519996 h 1.555692 a 0.51856417,0.51999576 0 0 0 0.518564,-0.519996 v -1.559989 h 2.074257 v 1.559989 a 0.51856417,0.51999576 0 0 0 0.518564,0.519996 h 1.555692 a 0.51856417,0.51999576 0 0 0 0.518565,-0.519996 v -1.559989 h 1.555692 a 0.51856417,0.51999576 0 0 0 0.518564,-0.519995 V 10.86003 A 0.51856417,0.51999576 0 0 0 14.741335,10.340034 H 13.185643 V 8.2600503 a 0.51856417,0.51999576 0 0 0 -0.518565,-0.519995 h -1.555692 a 0.51856417,0.51999576 0 0 0 -0.518564,0.519995 V 10.340034 H 8.518565 V 6.1800683 c 0,-0.287298 0.003,-0.753864 -0.03176,-1.038692 C 8.277175,3.4231803 7.050771,1.8248433 5.404719,1.5437853 5.12275,1.4956853 4.65656,1.5001053 4.370054,1.5001053 H 1.258665 a 0.51856417,0.51999576 0 0 0 -0.518564,0.519998 z"
     id="path2-7"
     style="fill:url(#linearGradient6);fill-opacity:1;stroke-width:0.183553" />
</svg>
