<?xml version="1.0" encoding="UTF-8" standalone="no"?>
<svg
   width="16"
   height="16"
   version="1.1"
   id="svg4"
   sodipodi:docname="nitrogen.svg"
   inkscape:version="1.4.4 (unknown)"
   xmlns:inkscape="http://www.inkscape.org/namespaces/inkscape"
   xmlns:sodipodi="http://sodipodi.sourceforge.net/DTD/sodipodi-0.dtd"
   xmlns="http://www.w3.org/2000/svg"
   xmlns:svg="http://www.w3.org/2000/svg">
  <defs
     id="defs4" />
  <sodipodi:namedview
     id="namedview4"
     pagecolor="#ffffff"
     bordercolor="#000000"
     borderopacity="0.25"
     inkscape:showpageshadow="2"
     inkscape:pageopacity="0.0"
     inkscape:pagecheckerboard="0"
     inkscape:deskcolor="#d1d1d1"
     inkscape:zoom="28.284271"
     inkscape:cx="7.9549513"
     inkscape:cy="13.381996"
     inkscape:window-width="1920"
     inkscape:window-height="994"
     inkscape:window-x="0"
     inkscape:window-y="0"
     inkscape:window-maximized="1"
     inkscape:current-layer="svg4" />
  <g
     id="g2"
     transform="matrix(0.22799745,0,0,0.22807018,4.1240433,-4.657895)">
    <circle
       style="opacity:0.2"
       cx="27"
       cy="56"
       r="18"
       id="circle1-3" />
    <circle
       style="fill:#5792f1"
       cx="27"
       cy="55"
       r="18"
       id="circle2-5" />
    <path
       style="opacity:0.1;fill:#ffffff"
       d="M 27,37 A 18,18 0 0 0 9,55 18,18 0 0 0 9.021484,55.585938 18,18 0 0 1 27,38 18,18 0 0 1 44.978516,55.414062 18,18 0 0 0 45,55 18,18 0 0 0 27,37 Z"
       id="path2" />
    <circle
       style="fill:#2d3d53;fill-opacity:1"
       cx="27"
       cy="55"
       r="14"
       id="circle3" />
    <circle
       style="opacity:0.2"
       cx="17"
       cy="66"
       r="18"
       id="circle4" />
    <circle
       style="opacity:0.2"
       cx="7"
       cy="56"
       r="18"
       id="circle5" />
    <circle
       style="fill:#5792f1"
       cx="17"
       cy="45"
       r="18"
       id="circle6" />
    <path
       style="opacity:0.1;fill:#ffffff"
       d="M 17,27 A 18,18 0 0 0 -1,45 18,18 0 0 0 -0.978516,45.585938 18,18 0 0 1 17,28 18,18 0 0 1 34.978516,45.414062 18,18 0 0 0 35,45 18,18 0 0 0 17,27 Z"
       id="path6" />
    <circle
       style="fill:#2d3d53;fill-opacity:1"
       cx="17"
       cy="45"
       r="14"
       id="circle7" />
    <circle
       style="fill:#5792f1"
       cx="7"
       cy="55"
       r="18"
       id="circle8" />
    <path
       style="opacity:0.1;fill:#ffffff"
       d="m 7,37 a 18,18 0 0 0 -18,18 18,18 0 0 0 0.02148,0.585938 A 18,18 0 0 1 7,38 18,18 0 0 1 24.978516,55.414062 18,18 0 0 0 25,55 18,18 0 0 0 7,37 Z"
       id="path8" />
    <circle
       style="fill:#2d3d53;fill-opacity:1"
       cx="7"
       cy="55"
       r="14"
       id="circle9" />
    <circle
       style="fill:#5792f1"
       cx="17"
       cy="65"
       r="18"
       id="circle10" />
    <circle
       style="fill:#2d3d53;fill-opacity:1"
       cx="17"
       cy="65"
       r="14"
       id="circle11" />
    <path
       style="opacity:0.1;fill:#ffffff"
       d="M 17,47 A 18,18 0 0 0 -1,65 18,18 0 0 0 -0.957031,66.152344 18,18 0 0 1 17,49 18,18 0 0 1 34.957032,65.847656 18,18 0 0 0 35,65 18,18 0 0 0 17,47 Z"
       id="path11" />
    <circle
       style="opacity:0.2"
       cx="17"
       cy="56"
       r="18"
       id="circle12" />
    <circle
       style="fill:#5792f1"
       cx="17"
       cy="55"
       r="18"
       id="circle13" />
    <circle
       style="fill:#2d3d53;fill-opacity:1"
       cx="17"
       cy="55"
       r="14"
       id="circle14" />
    <path
       style="opacity:0.1;fill:#ffffff"
       d="M 17,37 A 18,18 0 0 0 -1,55 18,18 0 0 0 -0.978516,55.585938 18,18 0 0 1 17,38 18,18 0 0 1 34.978516,55.414062 18,18 0 0 0 35,55 18,18 0 0 0 17,37 Z"
       id="path14" />
  </g>
</svg>
