<?xml version="1.0" encoding="UTF-8" standalone="no"?>
<!-- Generator: Gravit.io -->

<svg
   style="isolation:isolate"
   viewBox="0 0 16 16"
   width="16"
   height="16"
   version="1.1"
   id="svg2"
   sodipodi:docname="noisetorch.svg"
   inkscape:version="1.4.4 (unknown)"
   xmlns:inkscape="http://www.inkscape.org/namespaces/inkscape"
   xmlns:sodipodi="http://sodipodi.sourceforge.net/DTD/sodipodi-0.dtd"
   xmlns="http://www.w3.org/2000/svg"
   xmlns:svg="http://www.w3.org/2000/svg">
  <defs
     id="defs2" />
  <sodipodi:namedview
     id="namedview2"
     pagecolor="#ffffff"
     bordercolor="#000000"
     borderopacity="0.25"
     inkscape:showpageshadow="2"
     inkscape:pageopacity="0.0"
     inkscape:pagecheckerboard="0"
     inkscape:deskcolor="#d1d1d1"
     inkscape:document-units="px"
     inkscape:zoom="23.65625"
     inkscape:cx="8.327609"
     inkscape:cy="8.010568"
     inkscape:window-width="1920"
     inkscape:window-height="994"
     inkscape:window-x="0"
     inkscape:window-y="0"
     inkscape:window-maximized="1"
     inkscape:current-layer="svg2" />
  <linearGradient
     id="_lgradient_14"
     x1="0.15638418"
     y1="0.10654405"
     x2="0.89999485"
     y2="0.90305108"
     gradientTransform="matrix(11.893617,0,0,13,2.0531397,1.5)"
     gradientUnits="userSpaceOnUse">
    <stop
       offset="0%"
       stop-opacity="1"
       style="stop-color:#00ccff;stop-opacity:1"
       id="stop1" />
    <stop
       offset="100%"
       stop-opacity="1"
       style="stop-color:#8d5fd3;stop-opacity:1"
       id="stop2" />
  </linearGradient>
  <path
     d="M 7.4467568,13.670213 V 12.819404 C 6.8576078,12.773766 6.275927,12.654 5.7152674,12.461489 5.0320759,12.226383 4.3959057,11.87234 3.8344163,11.418723 3.3005865,10.984468 2.8580333,10.447872 2.5399482,9.8393617 2.2218631,9.2280851 2.0559057,8.5504255 2.0531397,7.8644681 v 0 C 2.0514802,7.5591064 2.2982036,7.3101702 2.6035653,7.3085106 v 0 c 0.3053617,-0.00166 0.5542978,0.2450639 0.5559574,0.5504256 v 0 c 0.00277,0.5117021 0.1244681,1.0151064 0.3595745,1.4659574 0.2517021,0.4757447 0.5946808,0.8961704 1.0123404,1.2336174 0.4619149,0.373404 0.9819149,0.663829 1.5434043,0.85468 0.6168085,0.212979 1.2640425,0.320852 1.9140425,0.320852 v 0 0 0 h 0.1405107 c 0.2337234,0 0.4237446,0.190021 0.4237446,0.423744 v 1.512426 h 1.1658508 c 0.152681,0 0.276596,0.123915 0.276596,0.276596 v 0.276595 c 0,0.152681 -0.123915,0.276596 -0.276596,0.276596 H 8.1293951 v 0 H 7.8705014 v 0 H 6.2809057 c -0.1526809,0 -0.2765958,-0.123915 -0.2765958,-0.276596 v -0.276595 c 0,-0.152681 0.1239149,-0.276596 0.2765958,-0.276596 z M 12.840373,7.933617 v 0 c 0.0077,-0.3053617 0.261107,-0.5471064 0.565639,-0.5393617 v 0 c 0.304531,0.00774 0.546829,0.2616596 0.540744,0.5670213 v 0 C 13.932926,8.4646809 13.833352,8.9597872 13.645267,9.43 c -0.182553,0.4619149 -0.442553,0.893404 -0.760638,1.275106 -0.329149,0.392766 -0.710851,0.735745 -1.134043,1.020639 -0.439787,0.298723 -0.915532,0.539361 -1.418936,0.716383 v 0 c -0.287107,0.10234 -0.6029785,-0.04841 -0.7053185,-0.336064 v 0 c -0.1023407,-0.28766 0.04896,-0.604362 0.337447,-0.706702 v 0 c 0.4121265,-0.14383 0.8048925,-0.342979 1.1672335,-0.589149 0.337446,-0.229575 0.641702,-0.503405 0.904468,-0.8159577 0.243404,-0.2904255 0.442553,-0.6195744 0.583617,-0.973617 0.135532,-0.3457447 0.210212,-0.713617 0.221276,-1.0870213 z M 6.4026078,7.3939787 h 3.1946807 c 0.152681,0 0.276596,0.1239149 0.276596,0.2765958 v 0.2765957 c 0,0.1526809 -0.123915,0.2765958 -0.276596,0.2765958 H 6.4026078 c -0.1526808,0 -0.2765957,-0.1239149 -0.2765957,-0.2765958 V 7.6705745 c 0,-0.1526809 0.1239149,-0.2765958 0.2765957,-0.2765958 z M 7.6154802,2.606383 h 0.7689361 c 0.5587234,0 1.0925532,0.2212766 1.4880852,0.6168085 0.3955315,0.3955319 0.6168075,0.9293617 0.6168075,1.4880851 v 2.9817021 c 0,0.5587234 -0.221276,1.0925532 -0.6168075,1.4880851 C 9.4769695,9.5765957 8.9431397,9.7978723 8.3844163,9.7978723 H 7.6154802 C 7.0567568,9.7978723 6.522927,9.5765957 6.1273951,9.1810638 5.7318631,8.7855319 5.5105865,8.2517021 5.5105865,7.6929787 V 4.7112766 c 0,-0.5587234 0.2212766,-1.0925532 0.6168086,-1.4880851 C 6.522927,2.8276596 7.0567568,2.606383 7.6154802,2.606383 Z m 0,-1.106383 h 0.7689361 c 0.8519149,0 1.6678717,0.3374468 2.2708507,0.9404255 0.602979,0.6029788 0.940425,1.4189362 0.940425,2.2708511 v 2.9817021 c 0,0.8519149 -0.337446,1.6678724 -0.940425,2.2708511 C 10.052288,10.566809 9.2363312,10.904255 8.3844163,10.904255 H 7.6154802 c -0.8519149,0 -1.6678724,-0.337446 -2.2708511,-0.9404252 C 4.7416504,9.3608511 4.4042036,8.5448936 4.4042036,7.6929787 V 4.7112766 c 0,-0.8519149 0.3374468,-1.6678723 0.9404255,-2.2708511 C 5.9476078,1.8374468 6.7635653,1.5 7.6154802,1.5 Z"
     fill-rule="evenodd"
     fill="url(#_lgradient_14)"
     id="path2"
     style="fill:url(#_lgradient_14);stroke-width:0.276596" />
</svg>
