<?xml version="1.0" encoding="UTF-8" standalone="no"?>
<!-- Generator: Gravit.io -->

<svg
   style="isolation:isolate"
   viewBox="0 0 16 16"
   width="16"
   height="16"
   version="1.1"
   id="svg2"
   sodipodi:docname="nyxt.svg"
   inkscape:version="1.4.4 (unknown)"
   xmlns:inkscape="http://www.inkscape.org/namespaces/inkscape"
   xmlns:sodipodi="http://sodipodi.sourceforge.net/DTD/sodipodi-0.dtd"
   xmlns:xlink="http://www.w3.org/1999/xlink"
   xmlns="http://www.w3.org/2000/svg"
   xmlns:svg="http://www.w3.org/2000/svg">
  <defs
     id="defs2">
    <linearGradient
       id="linearGradient5"
       inkscape:collect="always">
      <stop
         style="stop-color:#00ccff;stop-opacity:1;"
         offset="0"
         id="stop9" />
      <stop
         style="stop-color:#00ccff;stop-opacity:1;"
         offset="1"
         id="stop10" />
    </linearGradient>
    <linearGradient
       id="_lgradient_0"
       x1="0.2"
       y1="0.83749998"
       x2="1.0904868"
       y2="0.023340708"
       gradientTransform="matrix(1.7801896,0,0,7.1207583,4.7957462,4.43961)"
       gradientUnits="userSpaceOnUse">
      <stop
         offset="0%"
         stop-opacity="1"
         style="stop-color:#2a2aff;stop-opacity:1"
         id="stop1-3" />
      <stop
         offset="51.73913043478261%"
         stop-opacity="1"
         style="stop-color:rgb(32,189,255)"
         id="stop2-6" />
      <stop
         offset="98.26086956521739%"
         stop-opacity="1"
         style="stop-color:rgb(165,254,203)"
         id="stop3" />
    </linearGradient>
    <linearGradient
       id="_lgradient_1"
       x1="0"
       y1="0.5"
       x2="1"
       y2="0.5"
       gradientTransform="matrix(6.0628821,0,0,7.1207583,5.1413299,4.43961)"
       gradientUnits="userSpaceOnUse">
      <stop
         offset="0%"
         stop-opacity="1"
         style="stop-color:rgb(67,233,123)"
         id="stop4" />
      <stop
         offset="97.82608695652173%"
         stop-opacity="1"
         style="stop-color:rgb(56,249,215)"
         id="stop5" />
    </linearGradient>
    <linearGradient
       id="_lgradient_2"
       x1="0.071553186"
       y1="0.74391294"
       x2="0.99873358"
       y2="0.49568295"
       gradientTransform="matrix(13.000015,0,0,13.000015,1.4999715,1.49998)"
       gradientUnits="userSpaceOnUse"
       spreadMethod="pad">
      <stop
         offset="0%"
         stop-opacity="1"
         style="stop-color:rgb(84,51,255)"
         id="stop6" />
      <stop
         offset="51.73913043478261%"
         stop-opacity="1"
         style="stop-color:rgb(32,189,255)"
         id="stop7" />
      <stop
         offset="98.26086956521739%"
         stop-opacity="1"
         style="stop-color:rgb(165,254,203)"
         id="stop8" />
    </linearGradient>
    <linearGradient
       inkscape:collect="always"
       xlink:href="#_lgradient_0"
       id="linearGradient10"
       x1="5.7052188"
       y1="8"
       x2="10.294781"
       y2="8"
       gradientUnits="userSpaceOnUse" />
    <linearGradient
       inkscape:collect="always"
       xlink:href="#linearGradient5"
       id="linearGradient11"
       x1="3.7213473"
       y1="7.999997"
       x2="12.278653"
       y2="7.999997"
       gradientUnits="userSpaceOnUse"
       gradientTransform="matrix(1.0568671,0,0,1.0568671,-0.24987936,0)" />
  </defs>
  <sodipodi:namedview
     id="namedview2"
     pagecolor="#ffffff"
     bordercolor="#000000"
     borderopacity="0.25"
     inkscape:showpageshadow="2"
     inkscape:pageopacity="0.0"
     inkscape:pagecheckerboard="0"
     inkscape:deskcolor="#d1d1d1"
     inkscape:document-units="px"
     inkscape:zoom="23.65625"
     inkscape:cx="12.258917"
     inkscape:cy="1.8811096"
     inkscape:window-width="1920"
     inkscape:window-height="994"
     inkscape:window-x="0"
     inkscape:window-y="0"
     inkscape:window-maximized="1"
     inkscape:current-layer="svg2" />
  <linearGradient
     id="_lgradient_4"
     x1="0"
     y1="0.5"
     x2="1"
     y2="0.5"
     gradientTransform="matrix(47,0,0,45.733,27.999635,38.436853)"
     gradientUnits="userSpaceOnUse">
    <stop
       offset="0%"
       stop-opacity="1"
       style="stop-color:rgb(175,104,229)"
       id="stop1" />
    <stop
       offset="98.26086956521739%"
       stop-opacity="1"
       style="stop-color:rgb(250,172,128)"
       id="stop2" />
  </linearGradient>
  <path
     d="m 32.177635,60.370853 v 0 c 0,1.153 -0.936,2.089 -2.089,2.089 v 0 c -1.153,0 -2.089,-0.936 -2.089,-2.089 v 0 -15.667 c 0,-1.661 0.658,-3.259 1.838,-4.428 1.17,-1.181 2.768,-1.839 4.429,-1.839 h 18.8 v 0 c 1.153,0 2.089,0.936 2.089,2.089 v 0 c 0,1.153 -0.936,2.089 -2.089,2.089 v 0 h -18.8 c -0.554,0 -1.087,0.219 -1.473,0.616 -0.397,0.387 -0.616,0.919 -0.616,1.473 z m 38.644,9.177 v 0 c 0,-1.152 0.936,-2.088 2.089,-2.088 v 0 c 1.153,0 2.089,0.936 2.089,2.088 v 0 8.356 c 0,1.661 -0.658,3.259 -1.838,4.428 -1.17,1.181 -2.768,1.839 -4.429,1.839 h -34.466 c -1.661,0 -3.259,-0.658 -4.429,-1.839 -1.18,-1.169 -1.838,-2.767 -1.838,-4.428 v -2.089 0 c 0,-1.153 0.936,-2.089 2.089,-2.089 v 0 c 1.153,0 2.089,0.936 2.089,2.089 v 0 2.089 c 0,0.554 0.219,1.086 0.616,1.473 0.386,0.397 0.919,0.616 1.473,0.616 h 34.466 c 0.554,0 1.087,-0.219 1.473,-0.616 0.397,-0.387 0.616,-0.919 0.616,-1.473 z m -8.355,-26.933 v 0 c -1.153,0 -2.089,-0.936 -2.089,-2.089 v 0 c 0,-1.153 0.936,-2.089 2.089,-2.089 v 0 h 6.266 c 1.661,0 3.259,0.658 4.429,1.839 1.18,1.169 1.838,2.767 1.838,4.428 v 9.4 0 c 0,1.153 -0.936,2.089 -2.089,2.089 v 0 c -1.153,0 -2.089,-0.936 -2.089,-2.089 v 0 -9.4 c 0,-0.554 -0.219,-1.086 -0.616,-1.473 -0.386,-0.397 -0.919,-0.616 -1.473,-0.616 z m -14.541,14.031 h -1.621 v -6.924 0 q 0,-1.309 -0.596,-1.953 v 0 0 q -0.596,-0.645 -1.865,-0.645 v 0 0 q -1.68,0 -2.461,0.909 v 0 0 q -0.781,0.908 -0.781,2.998 v 0 5.615 h -1.622 v -10.703 h 1.319 l 0.264,1.465 h 0.078 v 0 q 0.498,-0.791 1.396,-1.226 v 0 0 q 0.899,-0.435 2.002,-0.435 v 0 0 q 1.934,0 2.91,0.933 v 0 0 q 0.977,0.933 0.977,2.983 v 0 z m 11.371,-0.137 -4.317,-10.762 h 1.739 l 2.344,6.104 v 0 q 0.771,2.09 0.957,3.017 v 0 h 0.078 v 0 q 0.127,-0.498 0.532,-1.704 v 0 0 q 0.405,-1.206 2.651,-7.417 v 0 h 1.739 l -4.6,12.188 v 0 q -0.684,1.807 -1.597,2.563 v 0 0 q -0.913,0.757 -2.241,0.757 v 0 0 q -0.742,0 -1.465,-0.166 v 0 -1.299 0 q 0.537,0.118 1.201,0.118 v 0 0 q 1.67,0 2.383,-1.875 v 0 z m -20.317,19.014 3.916,-5.479 -3.72,-5.224 h 1.845 l 2.823,4.101 2.812,-4.101 h 1.826 l -3.72,5.224 3.916,5.479 h -1.836 l -2.998,-4.336 -3.028,4.336 h -1.836 z m 22.724,0 v 0 0 q 0.43,0 0.83,-0.064 v 0 0 q 0.401,-0.063 0.635,-0.132 v 0 1.241 0 q -0.264,0.127 -0.776,0.21 v 0 0 q -0.513,0.083 -0.923,0.083 v 0 0 q -3.106,0 -3.106,-3.272 v 0 -6.367 h -1.533 v -0.781 l 1.533,-0.674 0.684,-2.285 h 0.937 v 2.48 h 3.106 v 1.26 h -3.106 v 6.299 0 q 0,0.967 0.459,1.484 v 0 0 q 0.459,0.518 1.26,0.518 z"
     fill-rule="evenodd"
     fill="url(#_lgradient_4)"
     id="path2"
     style="fill:url(#_lgradient_4)" />
  <path
     d="m 10.677441,12.65237 v 0 c 0.270562,-0.15465 0.617229,-0.0609 0.7735,0.20881 v 0 c 0.156272,0.26975 0.06338,0.61588 -0.207459,0.77188 v 0 C 10.190752,14.23918 8.990147,14.53764 7.778437,14.4962 6.6796651,14.4588 5.6074347,14.14222 4.6624961,13.57835 v 0 C 4.3949124,13.41801 4.3079748,13.07026 4.4683083,12.80268 v 0 c 0.1606044,-0.26758 0.508084,-0.35452 0.7759385,-0.19419 v 0 c 0.7786467,0.46773 1.6631894,0.72692 2.5726492,0.75807 1.002897,0.0341 1.992252,-0.21207 2.860545,-0.71419 z m 2.129294,-7.04764 v 0 c -0.140293,-0.2795 -0.02736,-0.61966 0.252146,-0.75914 v 0 c 0.2795,-0.13948 0.618855,-0.026 0.757792,0.2535 v 0 c 0.48425,0.9666 0.716355,2.04073 0.679521,3.12244 -0.02817,0.82469 -0.21125,1.63556 -0.54248,2.38794 v 0 c -0.125125,0.286 -0.459062,0.41654 -0.745063,0.29115 v 0 c -0.285999,-0.12513 -0.416542,-0.45907 -0.291145,-0.74507 v 0 c 0.275707,-0.62129 0.42575,-1.29187 0.448771,-1.97248 0.0306,-0.89267 -0.1625,-1.77856 -0.559542,-2.57834 z M 5.6737889,3.16154 v 0 C 5.3929344,3.29561 5.054934,3.17644 4.9192464,2.89559 v 0 C 4.7838295,2.61473 4.9016424,2.27646 5.1824967,2.14104 v 0 C 6.1282478,1.68686 7.1706865,1.46802 8.221521,1.50377 c 1.011022,0.0344 2.003086,0.30306 2.89115,0.78867 v 0 c 0.274353,0.14977 0.375374,0.494 0.225604,0.76835 v 0 c -0.149771,0.27409 -0.494,0.37511 -0.768355,0.22534 v 0 C 9.837044,2.88502 9.018855,2.66213 8.183063,2.63342 7.3158534,2.60392 6.4556857,2.784 5.6737889,3.16154 Z M 2.9055982,9.7038 v 0 c 0.099396,0.29521 -0.060396,0.61561 -0.3564171,0.71473 v 0 C 2.2531599,10.51763 1.932222,10.35703 1.8330969,10.06049 v 0 C 1.5896174,9.32545 1.4774923,8.55249 1.5037632,7.77845 1.5387002,6.75605 1.8130552,5.75315 2.3103058,4.85669 v 0 C 2.4600768,4.58396 2.8034939,4.48538 3.0770359,4.63678 v 0 C 3.3505779,4.78817 3.449703,5.1324 3.298307,5.40513 v 0 C 2.8885356,6.14613 2.6623895,6.97244 2.6334103,7.8169 2.6117433,8.45824 2.7030143,9.0947 2.9055982,9.7038 Z M 12.865235,3.89307 c -0.01083,0.312 -0.27246,0.55629 -0.584189,0.54573 -0.31173,-0.0106 -0.556293,-0.27246 -0.545729,-0.58419 0.01056,-0.31173 0.272458,-0.55629 0.584187,-0.54546 0.31173,0.0106 0.556292,0.27219 0.545731,0.58392 z m -8.8297188,7.8344 C 4.0249532,12.0392 3.7633283,12.28376 3.4515988,12.2732 3.1395984,12.2624 2.8953065,12.00074 2.905869,11.68901 c 0.010563,-0.31173 0.2724587,-0.55629 0.5841882,-0.54573 0.3117295,0.0106 0.5562923,0.27246 0.545459,0.58419 z m 9.0482818,0.30848 c 0.01056,-0.31173 -0.234001,-0.57335 -0.54573,-0.58419 -0.31173,-0.0106 -0.573355,0.234 -0.584188,0.54573 -0.01056,0.31173 0.234,0.57363 0.545729,0.58419 0.31173,0.0106 0.573625,-0.234 0.584189,-0.54573 z M 4.4425791,3.60598 C 4.4531421,3.29425 4.2088497,3.03236 3.8971202,3.02179 3.5851198,3.01119 3.3234945,3.25579 3.312932,3.56752 3.302099,3.87925 3.5466614,4.14088 3.858391,4.15171 4.1703913,4.16231 4.4320166,3.91771 4.4425791,3.60598 Z"
     fill-rule="evenodd"
     fill="url(#_lgradient_2)"
     id="path8"
     style="isolation:isolate;fill:url(#_lgradient_2);stroke-width:0.270834" />
  <text
     xml:space="preserve"
     style="font-size:4.89095px;font-family:'Estrangelo Edessa';-inkscape-font-specification:'Estrangelo Edessa';writing-mode:lr-tb;direction:ltr;fill:url(#linearGradient11);stroke:#00ccff;stroke-width:0.508656"
     x="3.600688"
     y="9.5391579"
     id="text5"
     transform="scale(1.0568671,0.94619277)"><tspan
       sodipodi:role="line"
       id="tspan5"
       x="3.600688"
       y="9.5391579"
       style="fill:url(#linearGradient11);stroke-width:0.508656">nyxt</tspan></text>
</svg>
