<?xml version="1.0" encoding="UTF-8" standalone="no"?>
<!-- Generator: Gravit.io -->

<svg
   style="isolation:isolate"
   viewBox="0 0 16 16"
   width="16pt"
   height="16pt"
   version="1.1"
   id="svg6"
   sodipodi:docname="odio.svg"
   inkscape:version="1.4.4 (unknown)"
   xmlns:inkscape="http://www.inkscape.org/namespaces/inkscape"
   xmlns:sodipodi="http://sodipodi.sourceforge.net/DTD/sodipodi-0.dtd"
   xmlns:xlink="http://www.w3.org/1999/xlink"
   xmlns="http://www.w3.org/2000/svg"
   xmlns:svg="http://www.w3.org/2000/svg">
  <defs
     id="defs6">
    <linearGradient
       id="linearGradient6"
       inkscape:collect="always">
      <stop
         style="stop-color:#ffb380;stop-opacity:1"
         offset="0"
         id="stop7" />
      <stop
         style="stop-color:#aa87de;stop-opacity:1"
         offset="1"
         id="stop8" />
    </linearGradient>
    <linearGradient
       inkscape:collect="always"
       xlink:href="#linearGradient6"
       id="linearGradient8"
       x1="0.95873946"
       y1="47.030327"
       x2="46.958538"
       y2="1.0297469"
       gradientUnits="userSpaceOnUse" />
    <linearGradient
       inkscape:collect="always"
       xlink:href="#linearGradient6"
       id="linearGradient10"
       x1="3.866667"
       y1="8"
       x2="12.133333"
       y2="8"
       gradientUnits="userSpaceOnUse" />
  </defs>
  <sodipodi:namedview
     id="namedview6"
     pagecolor="#ffffff"
     bordercolor="#000000"
     borderopacity="0.25"
     inkscape:showpageshadow="2"
     inkscape:pageopacity="0.0"
     inkscape:pagecheckerboard="0"
     inkscape:deskcolor="#d1d1d1"
     inkscape:document-units="pt"
     inkscape:zoom="24.34375"
     inkscape:cx="7.8664955"
     inkscape:cy="8.1129653"
     inkscape:window-width="1920"
     inkscape:window-height="994"
     inkscape:window-x="0"
     inkscape:window-y="0"
     inkscape:window-maximized="1"
     inkscape:current-layer="svg6" />
  <linearGradient
     id="_lgradient_3"
     x1="0"
     y1="0.5"
     x2="1.0176991"
     y2="0.5"
     gradientTransform="matrix(27,0,0,22.68,10.5,12.66)"
     gradientUnits="userSpaceOnUse">
    <stop
       offset="0%"
       stop-opacity="1"
       style="stop-color:rgb(84,51,255)"
       id="stop1" />
    <stop
       offset="51.73913043478261%"
       stop-opacity="1"
       style="stop-color:rgb(32,189,255)"
       id="stop2" />
    <stop
       offset="98.26086956521739%"
       stop-opacity="1"
       style="stop-color:rgb(165,254,203)"
       id="stop3" />
  </linearGradient>
  <linearGradient
     id="_lgradient_4"
     x1="0.071553186"
     y1="0.74391294"
     x2="0.99873358"
     y2="0.49568295"
     gradientTransform="matrix(46,0,0,46,0.959,1.03)"
     gradientUnits="userSpaceOnUse">
    <stop
       offset="0%"
       stop-opacity="1"
       style="stop-color:rgb(84,51,255)"
       id="stop4" />
    <stop
       offset="51.73913043478261%"
       stop-opacity="1"
       style="stop-color:rgb(32,189,255)"
       id="stop5" />
    <stop
       offset="98.26086956521739%"
       stop-opacity="1"
       style="stop-color:rgb(165,254,203)"
       id="stop6" />
  </linearGradient>
  <g
     id="g6"
     transform="matrix(0.28260514,0,0,0.28260514,1.2291655,1.2089882)">
    <path
       d="m 33.433,40.492 v 0 c 0.958,-0.547 2.184,-0.216 2.736,0.739 v 0 c 0.553,0.955 0.225,2.179 -0.733,2.732 v 0 c -3.725,2.144 -7.974,3.2 -12.261,3.054 -3.888,-0.133 -7.682,-1.253 -11.026,-3.248 v 0 c -0.947,-0.568 -1.255,-1.798 -0.687,-2.745 v 0 c 0.568,-0.947 1.798,-1.255 2.745,-0.687 v 0 c 2.755,1.655 5.886,2.572 9.104,2.682 3.548,0.121 7.05,-0.75 10.122,-2.527 v 0 z m 7.534,-24.937 v 0 c -0.496,-0.989 -0.096,-2.193 0.892,-2.686 v 0 c 0.989,-0.494 2.19,-0.092 2.681,0.896 v 0 c 1.715,3.421 2.536,7.221 2.405,11.049 -0.099,2.918 -0.747,5.788 -1.919,8.449 v 0 c -0.443,1.012 -1.624,1.474 -2.637,1.031 v 0 c -1.012,-0.443 -1.473,-1.625 -1.03,-2.637 v 0 c 0.975,-2.198 1.506,-4.571 1.589,-6.98 0.107,-3.158 -0.576,-6.293 -1.981,-9.122 v 0 z M 15.727,6.91 v 0 c -0.993,0.474 -2.19,0.052 -2.669,-0.942 v 0 c -0.48,-0.994 -0.063,-2.19 0.931,-2.67 v 0 C 17.336,1.691 21.024,0.917 24.742,1.043 28.32,1.165 31.83,2.116 34.973,3.834 v 0 c 0.971,0.53 1.328,1.748 0.798,2.718 v 0 C 35.241,7.523 34.023,7.88 33.052,7.35 v 0 C 30.459,5.931 27.564,5.142 24.606,5.041 21.538,4.936 18.494,5.573 15.727,6.91 Z M 5.933,30.059 v 0 c 0.351,1.045 -0.215,2.178 -1.262,2.529 v 0 C 3.623,32.939 2.488,32.371 2.137,31.321 v 0 C 1.276,28.72 0.879,25.985 0.972,23.246 1.095,19.628 2.067,16.079 3.826,12.907 v 0 c 0.53,-0.964 1.745,-1.313 2.713,-0.778 v 0 c 0.967,0.536 1.318,1.754 0.783,2.719 v 0 c -1.45,2.622 -2.251,5.546 -2.352,8.535 -0.078,2.268 0.246,4.521 0.963,6.676 z M 41.174,9.498 c -0.038,1.103 -0.964,1.969 -2.067,1.931 -1.103,-0.038 -1.969,-0.964 -1.931,-2.067 0.038,-1.103 0.964,-1.968 2.067,-1.931 1.103,0.038 1.968,0.964 1.931,2.067 z M 9.931,37.22 C 9.893,38.323 8.967,39.188 7.864,39.15 6.761,39.113 5.896,38.187 5.933,37.083 5.971,35.98 6.897,35.115 8,35.153 9.103,35.19 9.969,36.116 9.931,37.22 Z m 32.016,1.091 c 0.038,-1.103 -0.827,-2.029 -1.93,-2.067 -1.103,-0.037 -2.03,0.828 -2.067,1.931 -0.038,1.103 0.827,2.029 1.93,2.067 1.104,0.038 2.03,-0.827 2.067,-1.931 z M 11.371,8.482 C 11.409,7.379 10.544,6.453 9.44,6.415 8.337,6.377 7.411,7.243 7.373,8.346 c -0.037,1.103 0.828,2.029 1.931,2.067 1.103,0.037 2.029,-0.828 2.067,-1.931 z"
       fill-rule="evenodd"
       id="path6"
       style="fill:url(#linearGradient8)" />
  </g>
  <path
     d="m 7.6821173,5.2099453 v 5.5801107 c 0,0.171045 0.1424605,0.309944 0.3178836,0.309944 0.1754199,0 0.3178827,-0.138904 0.3178827,-0.309944 V 5.2099453 c 0,-0.1710425 -0.1424631,-0.3099451 -0.3178827,-0.3099451 -0.1754236,0 -0.3178836,0.1389008 -0.3178836,0.3099451 z M 5.138484,5.5198903 v 4.9602217 c 0,0.171044 0.1424597,0.309944 0.3178828,0.309944 0.1754233,0 0.3178851,-0.138913 0.3178851,-0.309944 V 5.5198903 c 0,-0.1710394 -0.1424619,-0.309945 -0.3178851,-0.309945 -0.1754235,0 -0.3178828,0.1389052 -0.3178828,0.309945 z m 6.358806,0.620165 v 3.7198895 c 0,0.1710452 0.142451,0.3099462 0.31788,0.3099462 0.175704,0 0.318163,-0.138905 0.318163,-0.3099462 V 6.1400553 c 0,-0.1710432 -0.142472,-0.3099451 -0.318163,-0.3099451 -0.175426,0 -0.31788,0.138902 -0.31788,0.3099451 z m -5.0869887,0 v 3.7198895 c 0,0.1710452 0.1424585,0.3099462 0.3178826,0.3099462 0.1754236,0 0.3178827,-0.138905 0.3178827,-0.3099462 V 6.1400553 c 0,-0.1710432 -0.1424598,-0.3099451 -0.3178827,-0.3099451 -0.1754235,0 -0.3178826,0.138902 -0.3178826,0.3099451 z m 2.5433516,0.309945 v 3.1000005 c 0,0.171044 0.142462,0.309944 0.318165,0.309944 0.17542,0 0.317883,-0.1389 0.317883,-0.309944 V 6.4500003 c 0,-0.1710432 -0.142463,-0.309945 -0.317883,-0.309945 -0.175703,0 -0.318165,0.1389028 -0.318165,0.309945 z M 3.866667,7.0698906 v 1.8602202 c 0,0.171039 0.1424598,0.309945 0.3178839,0.309945 0.1757022,0 0.3181654,-0.138907 0.3181654,-0.309945 V 7.0698906 c 0,-0.1710395 -0.1424632,-0.3099452 -0.3181654,-0.3099452 -0.1754247,0 -0.3178839,0.1389053 -0.3178839,0.3099452 z m 6.358802,0 v 1.8602202 c 0,0.171039 0.14246,0.309945 0.317888,0.309945 0.175696,0 0.31816,-0.138907 0.31816,-0.309945 V 7.0698906 c 0,-0.1710395 -0.142464,-0.3099452 -0.31816,-0.3099452 -0.175428,0 -0.317888,0.1389053 -0.317888,0.3099452 z"
     id="path2"
     style="stroke-width:0.275817;fill:url(#linearGradient10)" />
</svg>
