<?xml version="1.0" encoding="UTF-8" standalone="no"?>
<svg
   width="16"
   height="16"
   viewBox="0 0 16 16"
   version="1.1"
   id="svg8"
   inkscape:version="1.4.4 (unknown)"
   sodipodi:docname="onionshare80.svg"
   inkscape:export-filename="/home/nihil/Immagini/Icone/Linux/jupyter.png"
   inkscape:export-xdpi="96"
   inkscape:export-ydpi="96"
   xmlns:inkscape="http://www.inkscape.org/namespaces/inkscape"
   xmlns:sodipodi="http://sodipodi.sourceforge.net/DTD/sodipodi-0.dtd"
   xmlns:xlink="http://www.w3.org/1999/xlink"
   xmlns="http://www.w3.org/2000/svg"
   xmlns:svg="http://www.w3.org/2000/svg"
   xmlns:rdf="http://www.w3.org/1999/02/22-rdf-syntax-ns#"
   xmlns:cc="http://creativecommons.org/ns#"
   xmlns:dc="http://purl.org/dc/elements/1.1/">
  <defs
     id="defs2">
    <linearGradient
       id="linearGradient1"
       inkscape:collect="always">
      <stop
         style="stop-color:#00d4aa;stop-opacity:1;"
         offset="0"
         id="stop1" />
      <stop
         style="stop-color:#00ccff;stop-opacity:1"
         offset="1"
         id="stop2" />
    </linearGradient>
    <clipPath
       clipPathUnits="userSpaceOnUse"
       id="clipPath945">
      <g
         id="use947"
         inkscape:label="Clip">
        <path
           d="M 37,24 A 13,9 0 0 1 24,33 13,9 0 0 1 11,24 13,9 0 0 1 24,15 13,9 0 0 1 37,24"
           style="fill:#ffffff;fill-opacity:1;stroke-width:0.805993"
           id="path985" />
      </g>
    </clipPath>
    <linearGradient
       id="_lgradient_21"
       x1="0.13409057"
       y1="0.17616323"
       x2="0.83489352"
       y2="0.87127662"
       gradientTransform="matrix(12.7,0,0,12.7,4.9455961,4.4928303)"
       gradientUnits="userSpaceOnUse">
      <stop
         offset="0%"
         stop-opacity="1"
         style="stop-color:rgb(255,224,49)"
         id="stop14" />
      <stop
         offset="0.82803166"
         stop-opacity="1"
         style="stop-color:rgb(252,82,82)"
         id="stop16" />
    </linearGradient>
    <linearGradient
       inkscape:collect="always"
       xlink:href="#linearGradient1"
       id="linearGradient2"
       x1="0.39687836"
       y1="2.1166668"
       x2="3.8364551"
       y2="2.1166668"
       gradientUnits="userSpaceOnUse"
       gradientTransform="scale(3.779528)" />
    <linearGradient
       inkscape:collect="always"
       xlink:href="#linearGradient1"
       id="linearGradient4"
       x1="-3.96875"
       y1="33.686413"
       x2="5.6216993"
       y2="33.686413"
       gradientUnits="userSpaceOnUse" />
  </defs>
  <sodipodi:namedview
     id="base"
     pagecolor="#ffffff"
     bordercolor="#666666"
     borderopacity="1.0"
     inkscape:pageopacity="0.0"
     inkscape:pageshadow="2"
     inkscape:zoom="30.387304"
     inkscape:cx="10.102904"
     inkscape:cy="8.1119404"
     inkscape:document-units="px"
     inkscape:current-layer="layer1"
     inkscape:document-rotation="0"
     showgrid="false"
     inkscape:snap-intersection-paths="false"
     inkscape:snap-global="true"
     inkscape:snap-grids="true"
     inkscape:snap-to-guides="true"
     inkscape:snap-bbox="false"
     inkscape:window-width="1920"
     inkscape:window-height="994"
     inkscape:window-x="0"
     inkscape:window-y="0"
     inkscape:window-maximized="1"
     units="px"
     inkscape:showpageshadow="2"
     inkscape:pagecheckerboard="0"
     inkscape:deskcolor="#d1d1d1" />
  <metadata
     id="metadata5">
    <rdf:RDF>
      <cc:Work
         rdf:about="">
        <dc:format>image/svg+xml</dc:format>
        <dc:type
           rdf:resource="http://purl.org/dc/dcmitype/StillImage" />
      </cc:Work>
    </rdf:RDF>
  </metadata>
  <g
     inkscape:label="Livello 1"
     id="layer1"
     inkscape:groupmode="layer">
    <path
       d="m 10.677438,12.652375 v 0 c 0.270554,-0.154651 0.617236,-0.06094 0.773498,0.208804 v 0 c 0.156288,0.269756 0.06338,0.61588 -0.207473,0.77188 v 0 C 10.190738,14.239183 8.9901416,14.537643 7.7784185,14.496204 6.6796621,14.458832 5.6074217,14.142223 4.6624796,13.578351 v 0 C 4.3949117,13.418016 4.3079599,13.070265 4.4682913,12.802677 v 0 C 4.6288721,12.535102 4.97638,12.448157 5.2442219,12.608489 v 0 c 0.7786591,0.467729 1.6631896,0.726916 2.5726605,0.758066 1.0028917,0.03413 1.9922534,-0.212065 2.8605556,-0.71418 z m 2.129291,-7.047644 v 0 C 12.666445,5.3252424 12.779589,4.985077 13.058896,4.8455954 v 0 c 0.279481,-0.1394495 0.618842,-0.025965 0.757785,0.2534854 v 0 c 0.484253,0.966601 0.716358,2.0407323 0.679517,3.1224411 -0.02812,0.8246787 -0.211237,1.6355662 -0.542478,2.3879311 v 0 c -0.125095,0.286004 -0.459053,0.416546 -0.745051,0.291156 v 0 C 12.922657,10.77548 12.792125,10.441542 12.917517,10.155543 v 0 C 13.193245,9.5342461 13.343267,8.8636584 13.366289,8.1830603 13.397059,7.2903865 13.2038,6.4044946 12.806729,5.604731 Z M 5.6737902,3.1615492 v 0 C 5.3929524,3.2955863 5.0549303,3.1765161 4.9192453,2.8955876 v 0 C 4.7838512,2.6147384 4.9019728,2.2764533 5.182478,2.1410456 v 0 C 6.1282308,1.6868647 7.1706662,1.4680255 8.2215031,1.5037707 9.2325276,1.5381644 10.224594,1.8068171 11.112658,2.2924384 v 0 c 0.274368,0.1497411 0.375372,0.4939979 0.225623,0.7683603 v 0 c -0.149749,0.2740686 -0.493998,0.3750992 -0.768348,0.2253165 v 0 C 9.8370563,2.8850079 9.0188705,2.6621212 8.1830778,2.633396 7.3158696,2.6039157 6.455691,2.7839913 5.6737902,3.1615492 Z M 2.905606,9.7038067 v 0 C 3.005,9.9989916 2.845198,10.319404 2.5491814,10.418535 v 0 c -0.296024,0.09911 -0.6169618,-0.06151 -0.7160777,-0.35805 v 0 C 1.5896454,9.3254434 1.4774917,8.5524884 1.5037557,7.7784456 1.5387163,6.7560549 1.8130533,5.7531496 2.3103008,4.8566917 v 0 C 2.4600533,4.5839459 2.8034869,4.4853833 3.0770302,4.6367761 v 0 c 0.2735396,0.1514154 0.3726577,0.4956216 0.2212914,0.7683603 v 0 C 2.8885482,6.1461355 2.6624062,6.9724435 2.6334293,7.8169004 2.6115458,8.4582364 2.7030029,9.094693 2.9055969,9.703801 Z m 7.29112,-7.1204724 z M 4.0355119,11.727468 c -0.010809,0.311728 -0.2721714,0.556297 -0.5839089,0.545728 -0.312,-0.01089 -0.5562955,-0.272455 -0.5457302,-0.584183 0.010809,-0.311727 0.2724511,-0.556295 0.5841869,-0.545729 0.3117241,0.01066 0.5562938,0.272459 0.5454522,0.584184 z m 9.0482861,0.308478 c 0.01081,-0.31173 -0.234009,-0.573346 -0.545728,-0.584185 -0.31172,-0.01062 -0.573359,0.233995 -0.584182,0.545729 -0.01081,0.311728 0.234001,0.573632 0.545726,0.584186 0.311731,0.01058 0.573614,-0.233998 0.584184,-0.54573 z M 4.4425825,3.605982 C 4.453392,3.2942427 4.2088603,3.0323626 3.8971271,3.0217988 c -0.312,-0.010847 -0.5736327,0.2340057 -0.5841946,0.545728 -0.011074,0.3117241 0.2337336,0.5733575 0.5454681,0.584182 0.312,0.01081 0.5736129,-0.2340057 0.5841819,-0.5457268 z"
       fill-rule="evenodd"
       id="path8-4-6"
       style="isolation:isolate;fill:url(#linearGradient2);fill-opacity:1;stroke-width:0.27085"
       sodipodi:nodetypes="sssssscsssssscssssssscsssssscsssssssssssssscssssssscsssssscscccccccsscscccsscccs" />
    <g
       id="g1"
       transform="translate(7.1735256,-25.686413)"
       style="fill:url(#linearGradient4)">
      <path
         style="opacity:0.2;stroke-width:0.383618;fill:url(#linearGradient4)"
         d="M 0.82647476,30.042031 A 3.8361803,3.8361803 0 0 0 -1.82963,31.115714 l 0.3019487,0.301947 1.05345148,1.053446 a 1.9180895,1.9180895 0 0 1 1.30070458,-0.51099 1.9180895,1.9180895 0 0 1 1.91808954,1.918094 H 1.7855196 l 1.91809,1.918087 1.9180895,-1.918087 H 4.6626546 a 3.8361803,3.8361803 0 0 0 -3.83617984,-3.83618 z m -2.87713516,1.918086 -0.7807222,0.780726 -7.482e-4,-0.0014 a 3.8361803,3.8361803 0 0 0 -7.483e-4,0.0029 L -3.96875,33.878236 h 0.9590454 A 3.8361803,3.8361803 0 0 0 0.82647476,37.714413 3.8361803,3.8361803 0 0 0 3.5215413,36.603269 L 3.2570548,36.338758 2.1676392,35.249342 A 1.9180895,1.9180895 0 0 1 0.82647476,35.796298 1.9180895,1.9180895 0 0 1 -1.0916151,33.878211 h 0.95904526 z"
         id="path2" />
      <path
         style="fill:url(#linearGradient4);stroke-width:0.383618"
         d="M 0.82647476,29.658413 A 3.8361803,3.8361803 0 0 0 -1.82963,30.732096 l 0.3019487,0.301947 1.05345148,1.053453 a 1.9180895,1.9180895 0 0 1 1.30070458,-0.51099 1.9180895,1.9180895 0 0 1 1.91808954,1.918084 1.9180895,1.9180895 0 0 1 -0.054695,0.445062 l 1.7337735,0.1476 0.1535971,0.191057 A 3.8361803,3.8361803 0 0 0 4.6626545,33.49459 3.8361803,3.8361803 0 0 0 0.82647476,29.658413 Z M -2.8321319,32.355724 A 3.8361803,3.8361803 0 0 0 -3.0097046,33.49459 3.8361803,3.8361803 0 0 0 0.82647476,37.33077 3.8361803,3.8361803 0 0 0 3.5215413,36.219625 L 3.2570548,35.95514 2.1676392,34.865724 a 1.9180895,1.9180895 0 0 1 -1.34116444,0.546962 1.9180895,1.9180895 0 0 1 -1.91808986,-1.918096 1.9180895,1.9180895 0 0 1 0.08017,-0.547705 l -0.022476,-0.01871 -1.3089471,0.0131 z"
         id="path3" />
      <path
         style="fill:url(#linearGradient4);stroke-width:0.383618"
         d="m -2.0506604,31.576506 1.91809056,1.918084 H -3.96875 Z"
         id="path4" />
      <path
         style="fill:url(#linearGradient4);stroke-width:0.383618"
         d="M 3.7036096,35.412686 5.6216991,33.49459 H 1.7855196 Z"
         id="path5" />
    </g>
  </g>
</svg>
