<?xml version="1.0" encoding="UTF-8" standalone="no"?>
<!-- Generator: Gravit.io -->

<svg
   style="isolation:isolate"
   viewBox="0 0 16 16"
   width="16"
   height="16"
   version="1.1"
   id="svg2"
   sodipodi:docname="openmw.svg"
   inkscape:version="1.4.4 (unknown)"
   xmlns:inkscape="http://www.inkscape.org/namespaces/inkscape"
   xmlns:sodipodi="http://sodipodi.sourceforge.net/DTD/sodipodi-0.dtd"
   xmlns:xlink="http://www.w3.org/1999/xlink"
   xmlns="http://www.w3.org/2000/svg"
   xmlns:svg="http://www.w3.org/2000/svg">
  <defs
     id="defs2">
    <linearGradient
       id="linearGradient2"
       inkscape:collect="always">
      <stop
         style="stop-color:#ffcc00;stop-opacity:1"
         offset="0"
         id="stop3" />
      <stop
         style="stop-color:#00ccff;stop-opacity:1"
         offset="1"
         id="stop4" />
    </linearGradient>
    <linearGradient
       inkscape:collect="always"
       xlink:href="#linearGradient2"
       id="linearGradient4"
       x1="1.0952312"
       y1="14.5"
       x2="14.904769"
       y2="1.5"
       gradientUnits="userSpaceOnUse" />
  </defs>
  <sodipodi:namedview
     id="namedview2"
     pagecolor="#ffffff"
     bordercolor="#000000"
     borderopacity="0.25"
     inkscape:showpageshadow="2"
     inkscape:pageopacity="0.0"
     inkscape:pagecheckerboard="0"
     inkscape:deskcolor="#d1d1d1"
     inkscape:document-units="px"
     inkscape:zoom="16.727495"
     inkscape:cx="9.9237813"
     inkscape:cy="11.20909"
     inkscape:window-width="1920"
     inkscape:window-height="994"
     inkscape:window-x="0"
     inkscape:window-y="0"
     inkscape:window-maximized="1"
     inkscape:current-layer="svg2" />
  <linearGradient
     id="_lgradient_5"
     x1="0"
     y1="0.5"
     x2="1"
     y2="0.5"
     gradientTransform="matrix(13.809587,0,0,13.000288,1.0952312,1.5)"
     gradientUnits="userSpaceOnUse">
    <stop
       offset="0%"
       stop-opacity="1"
       style="stop-color:rgb(247,242,6)"
       id="stop1" />
    <stop
       offset="98.26086956521739%"
       stop-opacity="1"
       style="stop-color:rgb(255,187,36)"
       id="stop2" />
  </linearGradient>
  <path
     d="M 7.4743973,1.5 C 3.9512264,1.5 1.0952312,4.4100828 1.0952312,8 c 0,3.589917 2.8559952,6.5 6.3791661,6.5 C 7.9565821,14.4974 8.4370406,14.43901 8.9065666,14.326229 6.0163351,13.644669 3.9687761,11.022861 3.9658991,8 3.9693515,4.9754127 6.0200752,2.3530297 8.912896,1.6737706 8.4413561,1.5604169 7.9588837,1.5020139 7.4743973,1.5 Z m 3.0257377,10.173062 c -0.101558,-0.02589 -0.200526,-0.05754 -0.29633,-0.09206 C 10.087862,11.534967 9.9776727,11.468796 9.8847457,11.38824 9.7518284,11.270283 9.6419271,11.132187 9.5570557,10.976829 9.4103288,10.715022 9.2943858,10.435954 9.2098021,10.145377 9.0826388,9.7368433 9.0291267,9.3052937 9.0573212,8.8766211 8.3910087,9.1384278 7.7756189,9.5095605 7.2278386,9.975634 7.0837011,10.099345 6.9481945,10.231687 6.8213189,10.37266 6.8043446,10.303612 6.7844934,10.234564 6.7703961,10.162639 6.7505448,10.070575 6.7393245,9.978511 6.7393245,9.8835701 6.7422015,9.6936883 6.7873704,9.5066835 6.8719541,9.3340636 6.9340972,9.1988448 7.0103376,9.0693799 7.0949214,8.948546 7.2137414,8.7816802 7.3406169,8.6234453 7.4790005,8.4709645 7.7615216,8.1544948 8.1001442,7.892688 8.4755924,7.7028062 7.9252228,7.2482406 7.3069561,6.8914929 6.6403558,6.6411942 6.4596804,6.5750232 6.2735386,6.5203603 6.0842322,6.4772053 6.1915442,6.3678794 6.3046102,6.2700615 6.4286088,6.1837516 6.6009409,6.0773027 6.7957137,6.0168858 6.9962404,6.0025008 c 0.059266,-0.00575 0.1156553,-0.00575 0.1749214,-0.00575 0.2879874,0.00288 0.5759749,0.040278 0.858496,0.1093259 0.2200903,0.048909 0.4347143,0.1179569 0.6435843,0.2042668 0.1300403,0.051786 0.2767671,0.037401 0.3927101,-0.040278 0.1156553,-0.077679 0.1861417,-0.2100208 0.1890187,-0.3509936 l 0.00863,-0.3423627 c 0,0 0,-0.00288 0,-0.00575 C 9.2661912,5.1278936 9.2210224,4.684836 9.1278077,4.2504094 9.0996131,4.1266985 9.0685415,4.0029877 9.0320037,3.8821538 c 0.098681,0.02877 0.1976497,0.060417 0.2963307,0.094941 0.115943,0.046032 0.223255,0.1122029 0.319059,0.1927588 0.1300403,0.1179569 0.2399415,0.2560528 0.32769,0.4114106 0.1438496,0.2618067 0.2595046,0.5408754 0.3443766,0.8314521 0.129752,0.4085336 0.180675,0.8372062 0.155358,1.2658788 0.663435,-0.2589297 1.278825,-0.6300624 1.823728,-1.0932589 0.147015,-0.1265879 0.282521,-0.2589298 0.409397,-0.4027797 0.01985,0.071925 0.03683,0.1409729 0.05092,0.2100208 0.01985,0.092064 0.03107,0.1870049 0.03107,0.2819458 -0.0029,0.1898818 -0.04805,0.3768866 -0.129752,0.5495065 -0.06502,0.1352188 -0.141261,0.2618067 -0.226132,0.3855176 -0.118533,0.1668658 -0.245408,0.3251007 -0.383792,0.4775816 -0.282521,0.3164697 -0.618266,0.5782764 -0.996591,0.7681582 0.550369,0.4516886 1.171513,0.8113133 1.835236,1.061612 0.180675,0.063294 0.366817,0.1179569 0.553247,0.1611119 -0.05092,0.051786 -0.101558,0.1035719 -0.155358,0.1524808 -0.06761,0.063294 -0.14385,0.1208339 -0.225845,0.1697429 -0.08746,0.051786 -0.183552,0.089187 -0.279356,0.1150799 -0.138384,0.031647 -0.279644,0.048909 -0.420905,0.046032 -0.290572,-0.00288 -0.578848,-0.040278 -0.861081,-0.109326 -0.22009,-0.051786 -0.434714,-0.1179569 -0.643584,-0.2042668 -0.127163,-0.051786 -0.27389,-0.037401 -0.389833,0.040278 -0.115656,0.077679 -0.189019,0.2100208 -0.191896,0.3509937 l -0.0057,0.3423626 c 0,0 0,0.00288 0,0.00288 -0.0055,0.445935 0.0397,0.888992 0.132917,1.323419 0.02819,0.123711 0.05927,0.244545 0.09868,0.365378 z m 0.618267,-1.429867 c 0.01122,0.296331 0.04805,0.586907 0.110189,0.874607 0.08458,0.385518 0.228721,0.75665 0.423494,1.096136 0.05092,0.08631 0.0679,0.184128 0.0538,0.281946 -0.01439,0.09782 -0.05955,0.187005 -0.130041,0.253175 -0.07049,0.06617 -0.160824,0.106449 -0.256915,0.11508 -0.09609,0.0058 -0.191896,-0.02014 -0.271013,-0.0748 -0.08746,-0.0633 -0.180676,-0.109327 -0.279645,-0.146728 -0.115655,-0.0374 -0.234187,-0.07193 -0.352719,-0.100695 -0.172333,-0.04028 -0.344665,-0.09206 -0.5112428,-0.155358 -0.20887,-0.08056 -0.4007657,-0.195636 -0.5730978,-0.342363 -0.205993,-0.184128 -0.3783252,-0.399903 -0.5138317,-0.644447 -0.1752092,-0.31647 -0.3133051,-0.650202 -0.4151508,-1.001195 -0.019564,-0.06329 -0.039415,-0.126588 -0.056389,-0.189882 -0.1976497,0.129465 -0.3895454,0.270438 -0.5702209,0.425795 -0.3360333,0.290577 -0.6185544,0.638694 -0.8357677,1.029965 -0.048046,0.08343 -0.1214093,0.149604 -0.2091577,0.184128 -0.087461,0.0374 -0.1861417,0.04316 -0.2764794,0.01439 -0.093215,-0.02589 -0.1723322,-0.08343 -0.2258443,-0.161112 -0.056677,-0.08056 -0.084871,-0.175496 -0.079117,-0.270437 l 0.00288,-0.117957 c 0,-0.08919 -0.011508,-0.178374 -0.028482,-0.264684 -0.025318,-0.106449 -0.050635,-0.212898 -0.081707,-0.31647 -0.036826,-0.126588 -0.070487,-0.253175 -0.098969,-0.38264 C 5.9093108,10.194286 5.8923365,10.038928 5.8923365,9.8806931 5.8978028,9.5584694 5.9714539,9.2448767 6.1095498,8.957177 6.1944212,8.7788032 6.2931022,8.6061833 6.4061682,8.4450715 6.5445518,8.2494357 6.6941556,8.0653078 6.8549798,7.886934 6.9001487,7.8380251 6.9453175,7.7891161 6.9904864,7.7402071 6.7844934,7.6308812 6.5698694,7.5359403 6.3523684,7.4525074 5.9403824,7.3029036 5.5082574,7.2281016 5.0706661,7.2281016 h -0.019851 c -0.095804,0 -0.1918957,-0.034524 -0.2652592,-0.094941 C 4.7093152,7.0727438 4.6583924,6.9864339 4.6359518,6.8914929 4.6132235,6.796552 4.6244438,6.6958571 4.6670233,6.6066702 4.7093152,6.5203603 4.7798016,6.4484354 4.8672624,6.4052804 4.9604771,6.3592484 5.0508148,6.3017085 5.1299322,6.2297836 5.2202699,6.1492276 5.3077306,6.0629177 5.3897251,5.9737308 5.5620572,5.778095 5.7539529,5.6054751 5.9685769,5.4587483 6.2594414,5.2746205 6.5925976,5.1652946 6.9340972,5.1422786 c 0.081994,-0.00575 0.1637012,-0.00863 0.2428186,-0.00863 0.3530076,0.00575 0.7031381,0.048909 1.0446377,0.1323419 0.062143,0.014385 0.1271633,0.02877 0.1893064,0.046032 C 8.3993519,5.0185677 8.3628141,4.725114 8.3006709,4.4374142 8.2160872,4.0518966 8.0719497,3.683641 7.8771769,3.3412783 7.8291311,3.2578454 7.8092798,3.1600274 7.8233771,3.0622095 7.8377621,2.9643916 7.8829309,2.8752047 7.9534174,2.8090338 8.0239038,2.7428628 8.1171185,2.7025849 8.2132102,2.6939539 c 0.095804,-0.00575 0.1890187,0.020139 0.2681362,0.074802 0.087461,0.060417 0.1835524,0.1093259 0.2822334,0.1467269 0.115943,0.037401 0.2315983,0.071925 0.3501306,0.1006949 0.1752091,0.040278 0.3446643,0.092064 0.5112424,0.1524808 0.20887,0.083433 0.4036422,0.1985128 0.5730982,0.3452397 0.205993,0.1841278 0.378325,0.3999026 0.513831,0.6415704 0.174922,0.3193467 0.313305,0.6530784 0.41774,1.0011951 0.01985,0.066171 0.03683,0.1294648 0.0538,0.1927588 0.200527,-0.1294649 0.392422,-0.2733148 0.573098,-0.4257956 0.333156,-0.2905767 0.615677,-0.6386934 0.835768,-1.029965 0.04517,-0.083433 0.118532,-0.1496039 0.20887,-0.1841279 0.08775,-0.037401 0.183552,-0.043155 0.276767,-0.014385 0.09034,0.025893 0.169455,0.083433 0.225844,0.1611119 0.0538,0.077679 0.08199,0.1754968 0.07912,0.2704377 l -0.0058,0.1150799 c 0.0029,0.092064 0.01151,0.1812509 0.03107,0.2675608 0.02273,0.1064489 0.05092,0.2128978 0.08199,0.3164697 0.03654,0.1265879 0.06761,0.2531757 0.09609,0.3826406 0.03366,0.1553579 0.05063,0.3107157 0.05063,0.4689506 -0.0029,0.3193467 -0.07624,0.6358164 -0.217213,0.9235161 -0.08487,0.1783738 -0.183552,0.3481167 -0.296618,0.5092285 -0.138384,0.1956359 -0.287988,0.3826407 -0.446223,0.5581375 -0.04517,0.051786 -0.09034,0.1006949 -0.138096,0.1496039 0.205993,0.1093259 0.420617,0.2042668 0.638118,0.2876997 0.411986,0.1467269 0.844111,0.2244058 1.281703,0.2244058 h 0.02273 c 0.0958,0 0.189019,0.034524 0.265259,0.094941 0.07336,0.060417 0.127163,0.1467269 0.146727,0.2416678 0.02273,0.094941 0.01151,0.1956358 -0.03107,0.2848227 -0.04229,0.08631 -0.112778,0.1582349 -0.197649,0.2013898 -0.0958,0.046032 -0.183265,0.1035719 -0.265259,0.1754969 -0.09034,0.080556 -0.177799,0.1668658 -0.26267,0.2589297 -0.08746,0.097818 -0.180676,0.1898818 -0.279357,0.2819457 -0.113066,0.1064489 -0.239941,0.1985127 -0.372859,0.2790687 -0.157947,0.09206 -0.327402,0.161112 -0.502611,0.204267 -0.205993,0.05179 -0.41774,0.0748 -0.632364,0.07193 -0.350131,-0.0058 -0.697384,-0.04891 -1.038884,-0.132342 -0.06502,-0.01439 -0.127163,-0.03165 -0.192183,-0.04891 z"
     fill-rule="evenodd"
     id="path2"
     style="fill:url(#linearGradient4)" />
</svg>
