<?xml version="1.0" encoding="UTF-8" standalone="no"?>
<!-- Generator: Gravit.io -->

<svg
   style="isolation:isolate"
   viewBox="0 0 16 16"
   width="16"
   height="16"
   version="1.1"
   id="svg4"
   sodipodi:docname="openscad.svg"
   inkscape:version="1.4.4 (unknown)"
   xmlns:inkscape="http://www.inkscape.org/namespaces/inkscape"
   xmlns:sodipodi="http://sodipodi.sourceforge.net/DTD/sodipodi-0.dtd"
   xmlns:xlink="http://www.w3.org/1999/xlink"
   xmlns="http://www.w3.org/2000/svg"
   xmlns:svg="http://www.w3.org/2000/svg">
  <defs
     id="defs4" />
  <sodipodi:namedview
     id="namedview4"
     pagecolor="#ffffff"
     bordercolor="#000000"
     borderopacity="0.25"
     inkscape:showpageshadow="2"
     inkscape:pageopacity="0.0"
     inkscape:pagecheckerboard="0"
     inkscape:deskcolor="#d1d1d1"
     inkscape:document-units="px"
     inkscape:zoom="33.45499"
     inkscape:cx="6.1874179"
     inkscape:cy="7.8762541"
     inkscape:window-width="1920"
     inkscape:window-height="994"
     inkscape:window-x="0"
     inkscape:window-y="0"
     inkscape:window-maximized="1"
     inkscape:current-layer="svg4" />
  <linearGradient
     id="_lgradient_11"
     x1="0"
     y1="0.5"
     x2="0.90748805"
     y2="0.92007786"
     gradientTransform="matrix(6.5166778,0,0,1.1061622,3.6247998,6.4815524)"
     gradientUnits="userSpaceOnUse"
     xlink:href="#_lgradient_12">
    <stop
       offset="0%"
       stop-opacity="1"
       style="stop-color:rgb(255,65,108)"
       id="stop1" />
    <stop
       offset="84.34782608695653%"
       stop-opacity="1"
       style="stop-color:rgb(255,75,43)"
       id="stop2" />
  </linearGradient>
  <linearGradient
     id="_lgradient_12"
     x1="0.24609399"
     y1="0.50354189"
     x2="1"
     y2="0.5"
     gradientTransform="matrix(13.009297,0,0,12.999894,0.42329,0.54975786)"
     gradientUnits="userSpaceOnUse">
    <stop
       offset="0%"
       stop-opacity="1"
       style="stop-color:#ffcc00;stop-opacity:1"
       id="stop3" />
    <stop
       offset="97.82608695652173%"
       stop-opacity="1"
       style="stop-color:#ff2ad4;stop-opacity:1"
       id="stop4" />
  </linearGradient>
  <g
     id="g4"
     transform="translate(1.7336726,0.95035023)">
    <path
       d="m 8.541414,6.4815523 h 1.1083744 c 0.2712863,0 0.4916886,0.2204028 0.4916886,0.4919657 v 0.1222309 c 0,0.2715628 -0.2204023,0.4919656 -0.4916886,0.4919656 H 8.541414 c -0.2715628,0 -0.4919657,-0.2204028 -0.4919657,-0.4919656 V 6.973518 c 0,-0.2715629 0.2204029,-0.4919657 0.4919657,-0.4919657 z m -4.4246486,0 h 1.1083745 c 0.2712862,0 0.491689,0.2204028 0.491689,0.4919657 v 0.1222309 c 0,0.2715628 -0.2204028,0.4919656 -0.491689,0.4919656 H 4.1167654 c -0.2715628,0 -0.4919656,-0.2204028 -0.4919656,-0.4919656 V 6.973518 c 0,-0.2715629 0.2204028,-0.4919657 0.4919656,-0.4919657 z"
       fill-rule="evenodd"
       fill="url(#_lgradient_11)"
       id="path2"
       style="fill:url(#_lgradient_11);stroke-width:0.276541" />
    <path
       d="m 11.94784,5.2835787 v 0 C 11.83916,4.9757891 12.000936,4.63758 12.308726,4.5291762 v 0 c 0.307789,-0.1086805 0.645722,0.053096 0.754402,0.3608854 v 0 c 0.461546,1.3116317 0.491966,2.739687 0.08573,4.0692939 v 0 c -0.09458,0.3130439 -0.425043,0.4900299 -0.737534,0.3948999 v 0 C 12.098555,9.2591255 11.921569,8.9278299 12.016146,8.614786 v 0 C 12.34993,7.5243867 12.325042,6.359598 11.94784,5.2835787 Z M 10.563755,3.0745729 v 0 c 0.224827,0.2065758 0.574928,0.1916426 0.781503,-0.033185 v 0 c 0.206576,-0.2248275 0.191643,-0.5749278 -0.03318,-0.7815036 v 0 C 10.138712,1.1827591 8.6091664,0.57492304 7.0173991,0.55031093 5.423696,0.52791115 3.8772813,1.0890119 2.6718411,2.1321228 v 0 C 2.4406532,2.3320616 2.4152115,2.6818854 2.6151503,2.9130733 v 0 c 0.1996622,0.2311879 0.5497626,0.2566296 0.7809505,0.056691 v 0 C 4.3946886,2.1047453 5.6806021,1.6376683 7.0002536,1.6586854 8.3218408,1.6774902 9.589226,2.1819001 10.563755,3.0745729 Z M 1.9143966,5.04686 v 0 C 2.0277782,4.7628529 1.8895079,4.4401301 1.6055008,4.3264719 v 0 C 1.3214937,4.2130903 0.99877085,4.3513606 0.88538923,4.6353677 v 0 C 0.34530556,5.9940114 0.27644697,7.4956265 0.69098123,8.8987932 v 0 C 0.77753842,9.191373 1.0856046,9.3586801 1.3781845,9.2721229 v 0 C 1.6707644,9.1855657 1.8380714,8.8777761 1.7515142,8.5849197 v 0 C 1.4066681,7.4198544 1.4636355,6.1751454 1.9143966,5.04686 Z m 1.2129068,5.836665 v 0 C 2.906624,10.672524 2.5562471,10.680544 2.3452467,10.901223 v 0 c -0.2107239,0.22068 -0.2029807,0.571056 0.017699,0.782057 v 0 l 0.1319098,0.126102 c 0.00194,0.0019 0.00415,0.0036 0.00608,0.0055 1.1982502,1.111693 2.7731485,1.73142 4.4072266,1.734739 1.634078,0.0033 3.2136779,-0.609772 4.4146929,-1.717317 v 0 c 0.223445,-0.207129 0.237549,-0.557506 0.03125,-0.782056 v 0 c -0.206023,-0.224275 -0.5564,-0.238378 -0.781779,-0.03125 v 0 C 9.5773348,11.936867 8.2679154,12.445979 6.9117606,12.444043 5.5556058,12.442107 4.250611,11.929401 3.2572774,11.007691 Z M 6.3902051,7.0346334 c 0,-0.1465665 0.058073,-0.2876021 0.1631589,-0.3899221 0.10232,-0.1050854 0.2433557,-0.163159 0.3899222,-0.163159 0.1465665,0 0.2876022,0.058074 0.3899222,0.163159 0.1050854,0.10232 0.1631589,0.2433556 0.1631589,0.3899221 0,0.1465665 -0.058073,0.2876022 -0.1631589,0.3899222 C 7.2308884,7.529641 7.0898527,7.5877145 6.9432862,7.5877145 6.7967197,7.5877145 6.655684,7.529641 6.553364,7.4245556 6.4482786,7.3222356 6.3902051,7.1811999 6.3902051,7.0346334 Z m -1.1061621,0 c 0,-0.9156257 0.7436175,-1.6592432 1.6592432,-1.6592432 0.9156257,0 1.6592432,0.7436175 1.6592432,1.6592432 0,0.9156257 -0.7436175,1.6592432 -1.6592432,1.6592432 -0.9156257,0 -1.6592432,-0.7436175 -1.6592432,-1.6592432 z"
       fill-rule="evenodd"
       fill="url(#_lgradient_12)"
       id="path4"
       style="fill:url(#_lgradient_12);stroke-width:0.276541" />
  </g>
</svg>
