<?xml version="1.0" encoding="UTF-8" standalone="no"?>
<!-- Generator: Gravit.io -->

<svg
   style="isolation:isolate"
   viewBox="0 0 16 16"
   width="16"
   height="16"
   version="1.1"
   id="svg2"
   sodipodi:docname="openmw-cs.svg"
   inkscape:version="1.4.4 (unknown)"
   xmlns:inkscape="http://www.inkscape.org/namespaces/inkscape"
   xmlns:sodipodi="http://sodipodi.sourceforge.net/DTD/sodipodi-0.dtd"
   xmlns:xlink="http://www.w3.org/1999/xlink"
   xmlns="http://www.w3.org/2000/svg"
   xmlns:svg="http://www.w3.org/2000/svg">
  <defs
     id="defs2">
    <linearGradient
       id="linearGradient2"
       inkscape:collect="always">
      <stop
         style="stop-color:#ffcc00;stop-opacity:1"
         offset="0"
         id="stop3" />
      <stop
         style="stop-color:#00ccff;stop-opacity:1"
         offset="1"
         id="stop4" />
    </linearGradient>
    <linearGradient
       inkscape:collect="always"
       xlink:href="#linearGradient2"
       id="linearGradient4"
       x1="1.0951796"
       y1="8"
       x2="14.90482"
       y2="8"
       gradientUnits="userSpaceOnUse" />
  </defs>
  <sodipodi:namedview
     id="namedview2"
     pagecolor="#ffffff"
     bordercolor="#000000"
     borderopacity="0.25"
     inkscape:showpageshadow="2"
     inkscape:pageopacity="0.0"
     inkscape:pagecheckerboard="0"
     inkscape:deskcolor="#d1d1d1"
     inkscape:document-units="px"
     inkscape:zoom="16"
     inkscape:cx="9.5625"
     inkscape:cy="4.09375"
     inkscape:window-width="1920"
     inkscape:window-height="994"
     inkscape:window-x="0"
     inkscape:window-y="0"
     inkscape:window-maximized="1"
     inkscape:current-layer="svg2" />
  <linearGradient
     id="_lgradient_4"
     x1="0.30859375"
     y1="0.35200292"
     x2="0.68266463"
     y2="0.91259426"
     gradientTransform="matrix(13.809587,0,0,13.000288,0,1.407)"
     gradientUnits="userSpaceOnUse">
    <stop
       offset="0%"
       stop-opacity="1"
       style="stop-color:rgb(247,241,7)"
       id="stop1" />
    <stop
       offset="83.88839793817618%"
       stop-opacity="1"
       style="stop-color:rgb(255,187,36)"
       id="stop2" />
  </linearGradient>
  <path
     d="M 7.4743456,1.5 C 3.9511747,1.5 1.0951795,4.4100828 1.0951795,8 c 0,3.589917 2.8559952,6.5 6.3791661,6.5 C 7.9565304,14.4974 8.4369889,14.43901 8.9065149,14.326229 6.0162834,13.644669 3.9687244,11.022861 3.9658474,8 3.9692998,4.9754127 6.0200235,2.3530297 8.9128443,1.6737706 8.4413044,1.5604169 7.958832,1.5020139 7.4743456,1.5 Z m 6.8668164,6.7974815 c 0,0.027332 -0.01899,0.050635 -0.04632,0.054663 l -0.883239,0.1473022 c -0.111339,0.018988 -0.199663,0.1009826 -0.226995,0.2082946 -0.07998,0.3089895 -0.201965,0.605608 -0.365954,0.8809366 -0.05696,0.096955 -0.05265,0.2166379 0.01266,0.3092772 l 0.519298,0.7319079 c 0.01467,0.021 0.01266,0.05236 -0.0063,0.07135 l -0.62661,0.626897 c -0.01467,0.01467 -0.02963,0.01669 -0.03999,0.01669 -0.01266,0 -0.02302,-0.0043 -0.03165,-0.01065 l -0.729633,-0.519296 c -0.09034,-0.06531 -0.212322,-0.06934 -0.309277,-0.01266 -0.275329,0.163989 -0.571947,0.285974 -0.880936,0.365954 -0.109326,0.02733 -0.191608,0.11767 -0.208295,0.226996 l -0.149316,0.883238 c -0.0043,0.02762 -0.02733,0.04632 -0.05466,0.04632 H 9.4286899 c -0.027331,0 -0.050635,-0.0187 -0.054663,-0.04632 L 9.2267247,11.395145 C 9.2077365,11.283805 9.1257421,11.195481 9.0184301,11.168149 8.7177838,11.09047 8.4274948,10.9705 8.156194,10.814854 c -0.044018,-0.02532 -0.094653,-0.03798 -0.1429868,-0.03798 -0.056677,0 -0.1156553,0.01697 -0.1639888,0.05265 L 7.1132825,11.35314 c -0.010645,0.0063 -0.021002,0.01065 -0.031647,0.01065 -0.00834,0 -0.025318,-0.0023 -0.03999,-0.01697 l -0.62661,-0.62661 c -0.018988,-0.01899 -0.021002,-0.04833 -0.00633,-0.07135 L 6.9259899,9.9232727 C 6.9912978,9.8306334 6.9953256,9.7086487 6.9386487,9.6119816 6.7746599,9.3386668 6.6483597,9.0420484 6.5686669,8.7327712 6.5390338,8.6257469 6.45071,8.5437525 6.3413841,8.5247643 L 5.4518165,8.3731465 c -0.027331,-0.00403 -0.04632,-0.027331 -0.04632,-0.054663 v -0.885252 c 0,-0.027331 0.018988,-0.050347 0.04632,-0.054663 L 6.3287253,7.2312663 C 6.4403528,7.2125658 6.5306905,7.1302837 6.558022,7.0209578 6.6357009,6.7119683 6.7556717,6.413336 6.9176466,6.1377196 6.9743235,6.0410525 6.9679941,5.9210818 6.9029739,5.830744 L 6.3793604,5.0948081 c -0.01496,-0.021002 -0.012659,-0.052649 0.00633,-0.071637 l 0.62661,-0.62661 c 0.014673,-0.014673 0.029345,-0.016974 0.03999,-0.016974 0.012659,0 0.023016,0.00432 0.031359,0.010645 l 0.7255787,0.5172841 c 0.092639,0.065308 0.214624,0.069336 0.3112911,0.012659 C 8.393834,4.7561855 8.6904524,4.6298854 8.9994419,4.5501925 9.1067539,4.5205595 9.1887483,4.4322356 9.2077365,4.3229098 l 0.15133,-0.8895676 c 0.00432,-0.027331 0.027331,-0.04632 0.054663,-0.04632 h 0.8855395 c 0.02733,0 0.05035,0.018988 0.05466,0.04632 l 0.147015,0.8769088 c 0.01899,0.1116275 0.100982,0.2019652 0.210308,0.2292966 0.317621,0.079981 0.620568,0.2039792 0.902226,0.3699819 0.09695,0.056965 0.216638,0.052649 0.309277,-0.012371 l 0.725579,-0.5215996 c 0.01036,-0.00633 0.021,-0.010645 0.03136,-0.010645 0.0083,0 0.02532,0.0023 0.03999,0.016974 l 0.62661,0.62661 c 0.01899,0.018988 0.021,0.048334 0.0063,0.071637 L 12.833328,5.809742 c -0.06531,0.090338 -0.06934,0.2123224 -0.01266,0.3092772 0.163989,0.2753286 0.285974,0.571947 0.365954,0.8809365 0.02733,0.1093259 0.117669,0.1913204 0.226995,0.2082946 l 0.883239,0.1493162 c 0.02733,0.00432 0.04632,0.027331 0.04632,0.054663 v 0.885252 z M 14.389496,6.7982782 13.682905,6.6783074 C 13.609254,6.4406675 13.514601,6.2113708 13.398946,5.992719 l 0.416301,-0.582592 c 0.176648,-0.2479971 0.149316,-0.5866197 -0.06703,-0.8012437 l -0.626898,-0.62661 C 13.003646,3.8646041 12.848001,3.7992962 12.681998,3.7992962 c -0.130616,0 -0.254614,0.03999 -0.359625,0.1156553 L 11.737767,4.331253 C 11.510485,4.21157 11.272845,4.1126012 11.026862,4.0389501 L 10.909193,3.3407029 C 10.858557,3.0400567 10.599915,2.8214049 10.294954,2.8214049 H 9.4097017 c -0.3049617,0 -0.5636038,0.2186518 -0.6142389,0.519298 L 8.6734781,4.0559244 C 8.4381397,4.1295755 8.208843,4.2262426 7.9901912,4.3439118 L 7.4119148,3.9276103 C 7.3066167,3.8519453 7.1806042,3.811955 7.0499885,3.811955 c -0.1660027,0 -0.3236622,0.06502 -0.4393175,0.1829771 l -0.6289116,0.62661 C 5.7674231,4.8361661 5.73779,5.174501 5.9144377,5.4227858 l 0.420617,0.5909353 C 6.2193994,6.2346745 6.1270478,6.4636834 6.0554105,6.7013234 L 5.3571633,6.8192803 c -0.3006462,0.050347 -0.519298,0.3089895 -0.519298,0.6139512 v 0.8852521 c 0,0.3049617 0.2186518,0.5636038 0.519298,0.6142389 l 0.7149338,0.1219847 c 0.073651,0.2353384 0.170606,0.4646351 0.2882752,0.6832869 L 5.9460846,10.314257 C 5.769437,10.562541 5.7967685,10.901164 6.0134064,11.1155 l 0.62661,0.626898 c 0.1176692,0.117669 0.2733147,0.182689 0.4396052,0.182689 0.130328,0 0.2543265,-0.0397 0.3596246,-0.115655 l 0.5909353,-0.420329 c 0.2123224,0.11134 0.4352897,0.201677 0.6645864,0.273315 l 0.1176692,0.70659 c 0.050347,0.300646 0.3089895,0.519298 0.6139512,0.519298 h 0.8875537 c 0.304962,0 0.563604,-0.218652 0.613951,-0.519298 l 0.119971,-0.70659 c 0.237639,-0.07365 0.466936,-0.168305 0.685588,-0.28396 l 0.582592,0.416301 c 0.10501,0.07567 0.23131,0.115656 0.361638,0.115656 v 0 c 0.166003,0 0.321649,-0.06502 0.439606,-0.182977 l 0.62661,-0.62661 c 0.214336,-0.214624 0.243969,-0.552959 0.06732,-0.801244 L 13.39463,9.7149781 c 0.115943,-0.2206657 0.21261,-0.4499624 0.28396,-0.6855885 l 0.70659,-0.1176692 c 0.300934,-0.050635 0.519586,-0.3092772 0.519586,-0.6142389 v -0.885252 c 0.004,-0.3049618 -0.214624,-0.5636038 -0.51527,-0.6139513 z M 9.8711721,9.8573895 c -1.104767,0 -2.0023902,-0.8976232 -2.0023902,-2.0023902 0,-1.1050546 0.8976232,-2.0026778 2.0023902,-2.0026778 1.1050549,0 2.0026769,0.8976232 2.0026769,2.0026778 0,1.104767 -0.897622,2.0023902 -2.0026769,2.0023902 z m 0,-4.7136724 c -1.4960386,0 -2.7109946,1.2152436 -2.7109946,2.7112822 0,1.4960386 1.214956,2.7109947 2.7109946,2.7109947 1.4960379,0 2.7112819,-1.2149561 2.7112819,-2.7109947 0,-1.4960386 -1.215244,-2.7112822 -2.7112819,-2.7112822 z"
     fill-rule="evenodd"
     id="path2"
     style="fill:url(#linearGradient4)" />
</svg>
