<?xml version="1.0" encoding="UTF-8" standalone="no"?>
<!-- Generator: Gravit.io -->

<svg
   style="isolation:isolate"
   viewBox="0 0 16 16"
   width="16"
   height="16"
   version="1.1"
   id="svg2"
   sodipodi:docname="openshot.svg"
   inkscape:version="1.4.4 (unknown)"
   xmlns:inkscape="http://www.inkscape.org/namespaces/inkscape"
   xmlns:sodipodi="http://sodipodi.sourceforge.net/DTD/sodipodi-0.dtd"
   xmlns:xlink="http://www.w3.org/1999/xlink"
   xmlns="http://www.w3.org/2000/svg"
   xmlns:svg="http://www.w3.org/2000/svg">
  <defs
     id="defs2">
    <linearGradient
       id="linearGradient2"
       inkscape:collect="always">
      <stop
         style="stop-color:#2c2ca0;stop-opacity:1"
         offset="0"
         id="stop3" />
      <stop
         style="stop-color:#dd55ff;stop-opacity:1"
         offset="1"
         id="stop4" />
    </linearGradient>
    <linearGradient
       inkscape:collect="always"
       xlink:href="#linearGradient2"
       id="linearGradient4"
       x1="1.5000165"
       y1="8.0000001"
       x2="14.499983"
       y2="8.0000001"
       gradientUnits="userSpaceOnUse" />
  </defs>
  <sodipodi:namedview
     id="namedview2"
     pagecolor="#ffffff"
     bordercolor="#000000"
     borderopacity="0.25"
     inkscape:showpageshadow="2"
     inkscape:pageopacity="0.0"
     inkscape:pagecheckerboard="0"
     inkscape:deskcolor="#d1d1d1"
     inkscape:document-units="px"
     inkscape:zoom="11.828125"
     inkscape:cx="11.92074"
     inkscape:cy="18.472919"
     inkscape:window-width="1920"
     inkscape:window-height="994"
     inkscape:window-x="0"
     inkscape:window-y="0"
     inkscape:window-maximized="1"
     inkscape:current-layer="svg2" />
  <linearGradient
     id="_lgradient_10"
     x1="0"
     y1="0.5"
     x2="0.90748805"
     y2="0.92007786"
     gradientTransform="matrix(13.000015,0,0,13.000015,1.499971,1.4999802)"
     gradientUnits="userSpaceOnUse">
    <stop
       offset="0%"
       stop-opacity="1"
       style="stop-color:rgb(78,84,200)"
       id="stop1" />
    <stop
       offset="83.88839793817618%"
       stop-opacity="1"
       style="stop-color:rgb(0,114,255)"
       id="stop2" />
  </linearGradient>
  <path
     d="m 13.117922,6.3749859 v 0 c 0.184437,0.5822924 0.269479,1.1935639 0.248354,1.8080855 -0.01652,0.4907506 -0.0994,0.9763553 -0.247542,1.4419184 H 12.333317 V 6.3749859 Z M 12.7569,5.4205681 C 12.72223,5.189547 12.83896,4.9555468 13.05888,4.8455883 v 0 c 0.2795,-0.1394793 0.618855,-0.026 0.757793,0.2535003 v 0 c 0.48425,0.9666053 0.716355,2.0407316 0.679521,3.1224412 -0.02817,0.8246885 -0.21125,1.6355644 -0.54248,2.3879402 v 0 c -0.125125,0.286 -0.459063,0.416542 -0.745063,0.291146 v 0 c -0.227229,-0.0994 -0.356417,-0.330958 -0.330959,-0.565771 -0.05823,0.127562 -0.123771,0.251875 -0.194187,0.373479 H 12.333317 11.249982 8.541646 7.4583114 4.7499748 3.6666402 3.3148273 C 3.1645146,10.45022 3.0361395,10.18047 2.9280769,9.9025943 2.926181,10.131719 2.7785767,10.341616 2.5491806,10.418532 v 0 C 2.2531594,10.517657 1.9322215,10.357053 1.8330964,10.06049 v 0 C 1.5896169,9.3254477 1.4774918,8.5524885 1.5037627,7.7784459 1.5387002,6.7560489 1.8130547,5.7531519 2.3103053,4.8566925 v 0 C 2.4600763,4.583963 2.8034934,4.4853795 3.0770354,4.6367755 v 0 C 3.313744,4.767859 3.4196399,5.0432969 3.3459732,5.2916513 v 0 H 12.68513 c 0.02464,0.042521 0.04902,0.085313 0.07177,0.1289168 z M 2.8801393,9.6249898 v 0 C 2.6954307,9.0397182 2.6125556,8.4306134 2.6334098,7.8169043 2.6502015,7.3258829 2.7338891,6.8408198 2.8814935,6.3749859 H 3.6666402 V 9.6249898 Z M 10.67744,12.652369 v 0 c 0.270563,-0.154646 0.61723,-0.06094 0.773501,0.208812 v 0 c 0.156271,0.269751 0.06338,0.615876 -0.207459,0.771876 v 0 c -1.05273,0.606126 -2.2533355,0.904585 -3.4650453,0.863147 -1.0987721,-0.03738 -2.1710025,-0.35398 -3.1159411,-0.917855 v 0 C 4.3949119,13.418015 4.3079743,13.070265 4.4683078,12.802681 v 0 c 0.1606044,-0.267583 0.508084,-0.354521 0.7759385,-0.194188 v 0 c 0.7786467,0.46773 1.6631894,0.726918 2.5726488,0.758064 1.002897,0.03412 1.9922524,-0.212063 2.8605449,-0.714188 z M 5.6737884,3.1615446 v 0 C 5.3929339,3.2956073 5.0549335,3.1764405 4.9192459,2.895586 v 0 C 4.783829,2.6147315 4.9016417,2.2764603 5.1824962,2.1410434 v 0 C 6.1282473,1.6868554 7.170686,1.4680218 8.2215206,1.5037718 9.2325426,1.5381677 10.224606,1.8068347 11.11267,2.2924394 v 0 c 0.274354,0.149771 0.375375,0.4940006 0.225604,0.7683551 v 0 c -0.149771,0.2740837 -0.494,0.3751046 -0.768355,0.2253336 v 0 C 9.8370433,2.8850235 9.0188549,2.6621274 8.1830622,2.633419 7.3158529,2.6038981 6.4556852,2.7840025 5.6737884,3.1615446 Z m 7.1914456,0.7315217 c -0.01083,0.3120004 -0.272459,0.5562924 -0.584188,0.5457298 -0.31173,-0.010562 -0.556293,-0.2724586 -0.54573,-0.5841881 0.01056,-0.3117296 0.272459,-0.5562924 0.584188,-0.545459 0.31173,0.010563 0.556292,0.2721878 0.54573,0.5839173 z M 4.0355157,11.727472 c -0.010563,0.311729 -0.2721879,0.556292 -0.5839174,0.545729 -0.3120004,-0.01083 -0.5562923,-0.272458 -0.5457298,-0.584188 0.010563,-0.31173 0.2724587,-0.556292 0.5841882,-0.54573 0.3117295,0.01056 0.5562923,0.272459 0.545459,0.584189 z m 9.0482813,0.308479 c 0.01056,-0.311729 -0.234001,-0.573355 -0.54573,-0.584188 -0.31173,-0.01056 -0.573355,0.234 -0.584188,0.54573 -0.01056,0.311729 0.234,0.573625 0.545729,0.584188 0.31173,0.01056 0.573626,-0.234 0.584189,-0.54573 z M 4.4425786,3.6059827 C 4.4531412,3.2942531 4.2088492,3.032357 3.8971197,3.0217945 3.5851193,3.011232 3.323494,3.2557947 3.3129315,3.5675243 3.3020981,3.8792538 3.5466609,4.1408791 3.8583905,4.1517125 4.1703908,4.162275 4.4320161,3.9177122 4.4425786,3.6059827 Z M 3.3958066,5.562485 H 3.9374739 V 6.1041523 H 3.3958066 Z m 1.0833346,0 H 5.0208085 V 6.1041523 H 4.4791412 Z m 1.0833346,0 H 6.1041431 V 6.1041523 H 5.5624758 Z m 1.0833346,0 H 7.1874777 V 6.1041523 H 6.6458104 Z m 1.0833346,0 H 8.2708123 V 6.1041523 H 7.729145 Z m 1.0833346,0 H 9.3541469 V 6.1041523 H 8.8124796 Z m 1.0833347,0 H 10.437482 V 6.1041523 H 9.8958143 Z m 1.0833347,0 h 0.541667 v 0.5416673 h -0.541667 z m 1.083334,0 H 12.60415 V 6.1041523 H 12.062483 Z M 4.7499748,6.3749859 H 7.4583114 V 9.6249898 H 4.7499748 Z m 3.7916712,0 h 2.708336 V 9.6249898 H 8.541646 Z M 3.3958066,9.8958234 H 3.9374739 V 10.437491 H 3.3958066 Z m 1.0833346,0 H 5.0208085 V 10.437491 H 4.4791412 Z m 1.0833346,0 H 6.1041431 V 10.437491 H 5.5624758 Z m 1.0833346,0 H 7.1874777 V 10.437491 H 6.6458104 Z m 1.0833346,0 H 8.2708123 V 10.437491 H 7.729145 Z m 1.0833346,0 H 9.3541469 V 10.437491 H 8.8124796 Z m 1.0833347,0 H 10.437482 V 10.437491 H 9.8958143 Z m 1.0833347,0 h 0.541667 v 0.5416676 h -0.541667 z m 1.083334,0 h 0.541667 v 0.5416676 h -0.541667 z"
     fill-rule="evenodd"
     id="path2"
     style="fill:url(#linearGradient4)" />
</svg>
