<?xml version="1.0" encoding="UTF-8" standalone="no"?>
<!-- Generator: Gravit.io -->

<svg
   style="isolation:isolate"
   viewBox="0 0 16 16"
   width="16pt"
   height="16pt"
   version="1.1"
   id="svg3"
   sodipodi:docname="org.xfce.panel.svg"
   inkscape:version="1.4.4 (unknown)"
   xmlns:inkscape="http://www.inkscape.org/namespaces/inkscape"
   xmlns:sodipodi="http://sodipodi.sourceforge.net/DTD/sodipodi-0.dtd"
   xmlns:xlink="http://www.w3.org/1999/xlink"
   xmlns="http://www.w3.org/2000/svg"
   xmlns:svg="http://www.w3.org/2000/svg">
  <defs
     id="defs3">
    <linearGradient
       id="linearGradient1"
       inkscape:collect="always">
      <stop
         style="stop-color:#8d5fd3;stop-opacity:1"
         offset="0"
         id="stop4" />
      <stop
         style="stop-color:#ffd42a;stop-opacity:1"
         offset="1"
         id="stop5" />
    </linearGradient>
    <linearGradient
       inkscape:collect="always"
       xlink:href="#linearGradient1"
       id="linearGradient5"
       x1="5.9703145"
       y1="14.5"
       x2="11.594296"
       y2="1.5"
       gradientUnits="userSpaceOnUse" />
  </defs>
  <sodipodi:namedview
     id="namedview3"
     pagecolor="#ffffff"
     bordercolor="#000000"
     borderopacity="1"
     inkscape:showpageshadow="true"
     inkscape:pageopacity="0"
     inkscape:pagecheckerboard="false"
     inkscape:deskcolor="#ffffff"
     inkscape:document-units="pt"
     inkscape:zoom="13.421875"
     inkscape:cx="10.877765"
     inkscape:cy="17.769499"
     inkscape:window-width="1920"
     inkscape:window-height="996"
     inkscape:window-x="0"
     inkscape:window-y="0"
     inkscape:window-maximized="1"
     inkscape:current-layer="svg3" />
  <linearGradient
     id="_lgradient_0"
     x1="-0.1"
     y1="1.1"
     x2="0.98837268"
     y2="0.042723697"
     gradientTransform="matrix(13,0,0,13,1.5,1.5)"
     gradientUnits="userSpaceOnUse">
    <stop
       offset="0%"
       stop-opacity="1"
       style="stop-color:rgb(84,51,255)"
       id="stop1" />
    <stop
       offset="51.73913043478261%"
       stop-opacity="1"
       style="stop-color:rgb(32,189,255)"
       id="stop2" />
    <stop
       offset="98.26086956521739%"
       stop-opacity="1"
       style="stop-color:rgb(165,254,203)"
       id="stop3" />
  </linearGradient>
  <path
     d="m 8.4535556,13.592889 h 4.8371554 c 0.166978,0 0.302178,-0.1352 0.302178,-0.302178 V 8 8 8 c 0,-0.2501778 0.203378,-0.4535556 0.453555,-0.4535556 v 0 C 14.296911,7.5464444 14.5,7.7498222 14.5,8 v 0 5.592889 C 14.5,14.093533 14.093533,14.5 13.592889,14.5 H 2.4071111 C 1.9064667,14.5 1.5,14.093533 1.5,13.592889 v -1.662556 0 c 0,-0.250466 0.4064667,-0.453555 0.9071111,-0.453555 v 0 0 0.906822 h 0.4532667 4.6860666 v 1.209289 H 2.7092889 c -0.1669778,0 -0.3021778,-0.1352 -0.3021778,-0.302178 V 12.3836 11.930333 11.476778 h 0.4532667 9.0699552 v 0 c 0.250178,0 0.453267,0.203089 0.453267,0.453555 v 0 c 0,0.250178 -0.203089,0.453267 -0.453267,0.453267 v 0 H 8.4535556 Z M 2.4071111,9.2092889 v 0 c 0,0.2501778 -0.2033778,0.4535555 -0.4535555,0.4535555 v 0 C 1.7030889,9.6628444 1.5,9.4594667 1.5,9.2092889 v 0 -6.8021778 C 1.5,1.9064667 1.9064667,1.5 2.4071111,1.5 H 13.592889 C 14.093533,1.5 14.5,1.9064667 14.5,2.4071111 v 2.8718445 0 c 0,0.2504666 -0.203089,0.4535555 -0.453556,0.4535555 v 0 c -0.250177,0 -0.453555,-0.2030889 -0.453555,-0.4535555 v 0 -2.5696667 c 0,-0.1669778 -0.1352,-0.3021778 -0.302178,-0.3021778 H 2.7092889 c -0.1669778,0 -0.3021778,0.1352 -0.3021778,0.3021778 z m 0.726146,3.3713301 c -0.2091555,0 -0.3778667,0.168422 -0.3778667,0.377867 0,0.209444 0.1687112,0.377866 0.3778667,0.377866 0.2094445,0 0.3781556,-0.168422 0.3781556,-0.377866 0,-0.209445 -0.1687111,-0.377867 -0.3781556,-0.377867 z m 1.2296205,0.03315 c -0.2091555,0 -0.3778666,0.168422 -0.3778666,0.377866 0,0.209445 0.1687111,0.377867 0.3778666,0.377867 0.2094445,0 0.3781556,-0.168422 0.3781556,-0.377867 0,-0.209444 -0.1687111,-0.377866 -0.3781556,-0.377866 z m 1.1765408,-0.02196 c -0.2091556,0 -0.3778667,0.168423 -0.3778667,0.377867 0,0.209444 0.1687111,0.377867 0.3778667,0.377867 0.2094444,0 0.3781555,-0.168423 0.3781555,-0.377867 0,-0.209444 -0.1687111,-0.377867 -0.3781555,-0.377867 z"
     fill-rule="evenodd"
     id="path3"
     sodipodi:nodetypes="cssccsssscsssscssccccccsscccccssssccccsssscsssscsssscsssscsssssssssssssss"
     style="fill:url(#linearGradient5)" />
</svg>
