<?xml version="1.0" encoding="UTF-8" standalone="no"?>
<!-- Generator: Gravit.io -->

<svg
   style="isolation:isolate"
   viewBox="0 0 16 16"
   width="16pt"
   height="16pt"
   version="1.1"
   id="svg4"
   sodipodi:docname="cuttlefish.svg"
   inkscape:version="1.4.4 (unknown)"
   xmlns:inkscape="http://www.inkscape.org/namespaces/inkscape"
   xmlns:sodipodi="http://sodipodi.sourceforge.net/DTD/sodipodi-0.dtd"
   xmlns:xlink="http://www.w3.org/1999/xlink"
   xmlns="http://www.w3.org/2000/svg"
   xmlns:svg="http://www.w3.org/2000/svg">
  <defs
     id="defs4">
    <linearGradient
       id="linearGradient5"
       inkscape:collect="always">
      <stop
         style="stop-color:#ffc35a;stop-opacity:1;"
         offset="0"
         id="stop5" />
      <stop
         style="stop-color:#b677d3;stop-opacity:1;"
         offset="1"
         id="stop6" />
    </linearGradient>
    <linearGradient
       id="linearGradient4"
       x1="-0.29991642"
       y1="-0.26140401"
       x2="0.96725708"
       y2="0.86616999"
       gradientTransform="matrix(12.000225,0,0,13.00005,1.9998918,1.500005)"
       gradientUnits="userSpaceOnUse">
      <stop
         offset="34.94098066785295%"
         stop-opacity="1"
         style="stop-color:rgb(178,229,107)"
         id="stop1-6" />
      <stop
         offset="53.84922244785295%"
         stop-opacity="1"
         style="stop-color:rgb(194,233,100)"
         id="stop2-7" />
      <stop
         offset="90.40515655585295%"
         stop-opacity="1"
         style="stop-color:rgb(236,244,81)"
         id="stop3-5" />
      <stop
         offset="100%"
         stop-opacity="1"
         style="stop-color:rgb(250,247,75)"
         id="stop4-3" />
    </linearGradient>
    <linearGradient
       inkscape:collect="always"
       xlink:href="#linearGradient5"
       id="linearGradient6"
       x1="8.0554838"
       y1="14.499995"
       x2="8.1030369"
       y2="3.6882432"
       gradientUnits="userSpaceOnUse"
       gradientTransform="matrix(0.9701628,0,0,0.9701628,0.05375836,0.03878809)" />
    <linearGradient
       inkscape:collect="always"
       xlink:href="#linearGradient5"
       id="linearGradient8"
       x1="8.0554838"
       y1="14.499995"
       x2="8.1030369"
       y2="3.6882432"
       gradientUnits="userSpaceOnUse"
       gradientTransform="matrix(0.9701628,0,0,0.9701628,0.05375836,0.03878809)" />
  </defs>
  <sodipodi:namedview
     id="namedview4"
     pagecolor="#ffffff"
     bordercolor="#000000"
     borderopacity="0.25"
     inkscape:showpageshadow="2"
     inkscape:pageopacity="0.0"
     inkscape:pagecheckerboard="0"
     inkscape:deskcolor="#d1d1d1"
     inkscape:document-units="pt"
     inkscape:zoom="23.65625"
     inkscape:cx="6.678996"
     inkscape:cy="8.8137384"
     inkscape:window-width="1920"
     inkscape:window-height="994"
     inkscape:window-x="0"
     inkscape:window-y="0"
     inkscape:window-maximized="1"
     inkscape:current-layer="svg4" />
  <linearGradient
     id="_lgradient_20"
     x1="-0.29991642"
     y1="-0.26140401"
     x2="0.96725708"
     y2="0.86616999"
     gradientTransform="matrix(12.000225,0,0,13.00005,1.9998918,1.500005)"
     gradientUnits="userSpaceOnUse">
    <stop
       offset="34.94098066785295%"
       stop-opacity="1"
       style="stop-color:rgb(178,229,107)"
       id="stop1" />
    <stop
       offset="53.84922244785295%"
       stop-opacity="1"
       style="stop-color:rgb(194,233,100)"
       id="stop2" />
    <stop
       offset="90.40515655585295%"
       stop-opacity="1"
       style="stop-color:rgb(236,244,81)"
       id="stop3" />
    <stop
       offset="100%"
       stop-opacity="1"
       style="stop-color:rgb(250,247,75)"
       id="stop4" />
  </linearGradient>
  <g
     id="g8"
     transform="translate(0.18493653,0.20000761)">
    <path
       d="M 11.177636,6.4214593 A 3.2927989,2.0102673 72.502036 0 0 10.991063,5.4012652 3.2927989,2.0102673 72.502036 0 0 10.8988,5.1183734 c -0.694064,0.085209 -0.709975,-0.071579 -1.0940867,-0.1413818 -0.4289501,-0.077943 -1.232588,0.6602627 -0.53732,0.5493877 0.6950613,-0.1112175 0.8982627,0.9101748 1.8437407,0.9000016 0.02929,-3.153e-4 0.03912,-0.00408 0.06651,-0.00504 z"
       fill="#2c3e50"
       id="path15"
       style="fill:#b677d3;fill-opacity:1;stroke-width:0.386413" />
    <path
       d="M 4.6794948,6.421461 A 2.0102754,3.2927963 17.49818 0 1 4.866071,5.401265 2.0102754,3.2927963 17.49818 0 1 4.9583255,5.1183745 C 5.6523951,5.2035934 5.668301,5.0467939 6.05242,4.9769926 6.4813722,4.89904 7.2850127,5.6372568 6.5897426,5.5263809 5.8946778,5.4151611 5.6914759,6.4365531 4.7459897,6.4263813 c -0.029326,-3.174e-4 -0.039119,-0.00409 -0.066497,-0.00509 z"
       fill="#2c3e50"
       fill-rule="evenodd"
       id="path13-3"
       style="fill:#b677d3;fill-opacity:1;stroke-width:0.386414" />
    <path
       d="m 10.032532,7.5283102 v -0.580106 0 c 0,-0.2236875 -0.1863936,-0.405335 -0.4156567,-0.405335 v 0 c -0.2295326,0 -0.4159267,0.1816475 -0.4159267,0.405335 v 0 1.8907669 c 0,0.2511854 -0.1025575,0.4917946 -0.2854245,0.6673601 C 8.7353702,9.6845413 8.4884725,9.7844867 8.2307222,9.7844867 H 7.3991383 c -0.2577502,0 -0.5043765,-0.099945 -0.6845304,-0.2781555 C 6.5314697,9.3307657 6.428912,9.0901565 6.428912,8.8389711 v -1.8907669 0 c 0,-0.2236875 -0.1861226,-0.405335 -0.4156561,-0.405335 v 0 c -0.2295336,0 -0.4159275,0.1816475 -0.4159275,0.405335 v 0 1.8907669 c 0,0.4645612 0.1912776,0.9129939 0.5266244,1.2427069 0.3383313,0.326806 0.7984833,0.513214 1.2751855,0.513214 h 0.8315839 c 0.4767024,0 0.9368545,-0.186408 1.2751855,-0.513214 C 9.8412541,9.751965 10.032532,9.3035323 10.032532,8.8389711 V 8.7604463 L 10.20726,8.566108 11.415701,7.2181658 c 0.0027,-0.00262 0.0057,-0.00262 0.0057,-0.00534 0.2743,-0.3162294 0.421353,-0.7160113 0.415658,-1.1292773 0.0057,-0.3754569 -0.119111,-0.7427168 -0.351898,-1.0425534 0,-0.00292 -0.003,-0.00292 -0.003,-0.00554 L 9.1344763,2.0937104 C 8.9904072,1.9128564 8.8099822,1.7613521 8.6021539,1.6534738 8.4027368,1.5508849 8.1780868,1.4966809 7.9534371,1.4940373 7.7290587,1.4966567 7.5044091,1.5508888 7.3049916,1.6534738 7.0971635,1.7613521 6.9167384,1.9128564 6.7726696,2.0937104 L 4.4249715,5.0354905 c 0,0.00262 0,0.00262 -0.00302,0.00262 C 4.2863088,5.2136768 4.1837513,5.4135673 4.117279,5.6242992 4.053519,5.8323864 4.020147,6.0484058 4.020147,6.2673337 4.014697,6.6158209 4.10317,6.9616647 4.2835949,7.264145 c 0,0.00262 0.00271,0.00524 0.00271,0.00816 l 0.2604634,0.4241066 v 0 c 0.1193855,0.192212 0.375779,0.2546119 0.5724833,0.1390664 v 0 C 5.3157022,7.7199269 5.3797327,7.471121 5.2619816,7.2802201 v 0 L 5.001518,6.8588348 C 4.8989607,6.6806246 4.8463253,6.4780895 4.8517518,6.2755554 c 0,-0.1433086 0.019536,-0.2837075 0.063762,-0.4188192 0.03337,-0.1160742 0.091433,-0.2268609 0.1690294,-0.3241625 L 7.4297971,2.5907936 c 0.00271,-0.00262 0.00271,-0.00262 0.00271,-0.00524 0.071899,-0.08937 0.1606189,-0.1649897 0.2631765,-0.216284 0.08058,-0.040456 0.1693012,-0.062139 0.2577504,-0.064779 0.08872,0.00262 0.1774407,0.024322 0.2580214,0.064779 0.1025576,0.051291 0.1912779,0.1269147 0.2631767,0.216284 0,0.00262 0,0.00262 0.00271,0.00524 L 10.822598,5.52993 c 0.124805,0.1594366 0.188293,0.3564194 0.182867,0.5536662 0.0055,0.2215725 -0.07218,0.4349482 -0.216238,0.6023168 z M 8.6859908,11.434909 v 0 c -0.093334,-0.204122 0.00108,-0.443937 0.2105411,-0.53463 v 0 c 0.2097273,-0.09095 0.4555397,7.94e-4 0.5488723,0.205181 v 0 l 0.052632,0.113428 c 0,0.0057 0.00268,0.008 0.00268,0.01085 0.091428,0.210732 0.1332158,0.437591 0.1305043,0.667096 0.00272,0.213639 -0.036089,0.427015 -0.1166681,0.626907 0,0.0027 -0.00268,0.0055 -0.00268,0.01085 l -0.1218207,0.280793 c -0.038798,0.09465 -0.05562,0.191958 -0.049923,0.291906 -0.00571,0.124271 0.019264,0.24854 0.071899,0.361971 l 0.02496,0.05129 v 0 c 0.1025578,0.199626 0.019263,0.442881 -0.1855809,0.542826 v 0 C 9.0462923,14.163307 8.7966815,14.082137 8.694124,13.88251 v 0 L 8.663737,13.82567 c 0,-0.0027 -0.00271,-0.0078 -0.00571,-0.01085 -0.1052708,-0.221298 -0.1551927,-0.464552 -0.1494953,-0.707539 -0.00571,-0.2028 0.033099,-0.402692 0.1079837,-0.591741 0,-0.0027 0.00271,-0.0054 0.00271,-0.01085 l 0.122095,-0.280796 c 0.041513,-0.105497 0.061043,-0.216284 0.055347,-0.329715 0.00571,-0.118717 -0.016551,-0.240345 -0.060776,-0.351131 z m -1.4534405,0 v 0 c 0.093334,-0.204122 -0.00108,-0.443937 -0.2108127,-0.53463 v 0 C 6.8122817,10.809329 6.566198,10.901073 6.4728654,11.10546 v 0 l -0.052634,0.113428 c 0,0.0057 -0.00271,0.008 -0.00271,0.01085 -0.091433,0.210732 -0.1329449,0.437591 -0.1302318,0.667096 -0.00271,0.213639 0.036084,0.427015 0.1163947,0.626907 0,0.0027 0.00271,0.0055 0.00271,0.01085 l 0.1220922,0.280793 c 0.038798,0.09465 0.055349,0.191958 0.049923,0.291906 0.00545,0.124271 -0.019536,0.24854 -0.072171,0.361971 l -0.024961,0.05129 v 0 c -0.1025574,0.199626 -0.019262,0.442881 0.1858514,0.542826 v 0 c 0.2048437,0.09995 0.4544546,0.01877 0.5570119,-0.180855 v 0 l 0.030387,-0.05684 c 0,-0.0027 0.00302,-0.0078 0.00571,-0.01085 0.1052709,-0.221308 0.1551927,-0.464563 0.1497666,-0.70755 0.00545,-0.2028 -0.033372,-0.402692 -0.1082552,-0.591741 0,-0.0027 -0.00271,-0.0054 -0.00271,-0.01085 l -0.1221036,-0.2808 c -0.041513,-0.105497 -0.060774,-0.216284 -0.055347,-0.329714 -0.00545,-0.118718 0.016551,-0.240346 0.061043,-0.351132 z m 2.6141306,-0.807496 v 0 C 9.7028832,10.451319 9.732184,10.195373 9.9120621,10.056031 v 0 c 0.1796109,-0.1393406 0.4411609,-0.1110495 0.5833289,0.06345 v 0 l 0.182867,0.224216 c 0.174728,0.210732 0.407518,0.36726 0.673679,0.44579 l 0.920305,0.27551 c 0.440886,0.132203 0.815031,0.424107 1.042395,0.813048 l 0.265891,0.456629 v 0 c 0.114767,0.19381 0.04585,0.441293 -0.153838,0.552345 v 0 c -0.19969,0.111051 -0.453639,0.04256 -0.566779,-0.152562 v 0 L 12.593756,12.280478 C 12.468952,12.069746 12.266819,11.910573 12.028333,11.840241 L 11.108031,11.564734 C 10.68125,11.437817 10.306834,11.186366 10.029819,10.84872 Z m -4.0632297,0 v 0 c 0.1437973,-0.176094 0.1144953,-0.43204 -0.065389,-0.571382 v 0 C 5.5384524,9.9166904 5.2769034,9.9449815 5.1347339,10.119487 v 0 l -0.1828665,0.224215 c -0.1747278,0.210735 -0.4075168,0.367263 -0.673678,0.445792 L 3.3578853,11.065005 C 2.9169967,11.197208 2.5428517,11.489112 2.315489,11.878053 l -0.2658898,0.456629 v 0 c -0.1147668,0.19381 -0.045852,0.441293 0.1538363,0.552345 v 0 c 0.1996883,0.111051 0.4536404,0.04256 0.566779,-0.152562 v 0 L 3.0363756,12.280479 C 3.1611812,12.069748 3.3633115,11.910575 3.6017984,11.840243 L 4.5221025,11.564734 C 4.9488829,11.437817 5.3232989,11.186366 5.6003127,10.84872 Z"
       fill-rule="evenodd"
       id="path4-6"
       style="fill:url(#linearGradient6);fill-opacity:1;stroke:url(#linearGradient8);stroke-width:0.388066;stroke-dasharray:none" />
  </g>
</svg>
