<?xml version="1.0" encoding="UTF-8" standalone="no"?>
<!-- Generator: Gravit.io -->

<svg
   style="isolation:isolate"
   viewBox="0 0 16 16"
   width="16pt"
   height="16pt"
   version="1.1"
   id="svg12"
   sodipodi:docname="org.gnome.Loupe.svg"
   inkscape:version="1.4.4 (unknown)"
   xmlns:inkscape="http://www.inkscape.org/namespaces/inkscape"
   xmlns:sodipodi="http://sodipodi.sourceforge.net/DTD/sodipodi-0.dtd"
   xmlns:xlink="http://www.w3.org/1999/xlink"
   xmlns="http://www.w3.org/2000/svg"
   xmlns:svg="http://www.w3.org/2000/svg">
  <defs
     id="defs12">
    <linearGradient
       inkscape:collect="always"
       xlink:href="#linearGradient5"
       id="linearGradient6"
       x1="0"
       y1="0"
       x2="511.99951"
       y2="512"
       gradientUnits="userSpaceOnUse"
       gradientTransform="matrix(0,0.01572266,-0.01572266,0,9.7705881,6.3725336)" />
    <linearGradient
       id="linearGradient5"
       inkscape:collect="always">
      <stop
         style="stop-color:#4bc0c8;stop-opacity:1;"
         offset="0"
         id="stop5-3" />
      <stop
         style="stop-color:#c779d0;stop-opacity:1;"
         offset="0.40873528"
         id="stop8-6" />
      <stop
         style="stop-color:#feac5e;stop-opacity:1;"
         offset="1"
         id="stop6-7" />
    </linearGradient>
  </defs>
  <sodipodi:namedview
     id="namedview12"
     pagecolor="#ffffff"
     bordercolor="#000000"
     borderopacity="0.25"
     inkscape:showpageshadow="2"
     inkscape:pageopacity="0.0"
     inkscape:pagecheckerboard="0"
     inkscape:deskcolor="#d1d1d1"
     inkscape:document-units="pt"
     inkscape:zoom="11.859375"
     inkscape:cx="8.0948617"
     inkscape:cy="29.386034"
     inkscape:window-width="1920"
     inkscape:window-height="996"
     inkscape:window-x="0"
     inkscape:window-y="0"
     inkscape:window-maximized="1"
     inkscape:current-layer="svg12" />
  <linearGradient
     id="_lgradient_2"
     x1="0.016243344"
     y1="0.58230454"
     x2="0.93051696"
     y2="0.17341986"
     gradientTransform="matrix(8.406371,0,0,8.8826932,-15.746762,13.814042)"
     gradientUnits="userSpaceOnUse">
    <stop
       offset="0%"
       stop-opacity="1"
       style="stop-color:rgb(241,123,65)"
       id="stop1" />
    <stop
       offset="50%"
       stop-opacity="1"
       style="stop-color:rgb(224,91,162)"
       id="stop2" />
    <stop
       offset="97.5%"
       stop-opacity="1"
       style="stop-color:rgb(205,75,201)"
       id="stop3" />
  </linearGradient>
  <linearGradient
     id="_lgradient_3"
     x1="0.016243344"
     y1="0.58230454"
     x2="0.93051696"
     y2="0.17341986"
     gradientTransform="matrix(0,0,0,0,-7.7471985,17.25)"
     gradientUnits="userSpaceOnUse">
    <stop
       offset="0%"
       stop-opacity="1"
       style="stop-color:rgb(241,123,65)"
       id="stop4" />
    <stop
       offset="50%"
       stop-opacity="1"
       style="stop-color:rgb(224,91,162)"
       id="stop5" />
    <stop
       offset="97.5%"
       stop-opacity="1"
       style="stop-color:rgb(205,75,201)"
       id="stop6" />
  </linearGradient>
  <linearGradient
     id="_lgradient_4"
     x1="-0.014458464"
     y1="0.009839246"
     x2="1.0164566"
     y2="1.072293"
     gradientTransform="matrix(11.63081,0,0,6.8432442,2.598165,1.5)"
     gradientUnits="userSpaceOnUse">
    <stop
       offset="1.3043478260869565%"
       stop-opacity="1"
       style="stop-color:rgb(254,172,94)"
       id="stop7" />
    <stop
       offset="53.04347826086957%"
       stop-opacity="1"
       style="stop-color:rgb(199,121,208)"
       id="stop8" />
    <stop
       offset="99.56521739130434%"
       stop-opacity="1"
       style="stop-color:rgb(75,192,200)"
       id="stop9" />
  </linearGradient>
  <linearGradient
     id="_lgradient_5"
     x1="-0.014458464"
     y1="0.009839246"
     x2="1.0164566"
     y2="1.072293"
     gradientTransform="matrix(4.4583871,0,0,8.8686281,9.7705881,3.3898714)"
     gradientUnits="userSpaceOnUse">
    <stop
       offset="1.3043478260869565%"
       stop-opacity="1"
       style="stop-color:rgb(254,172,94)"
       id="stop10" />
    <stop
       offset="53.04347826086957%"
       stop-opacity="1"
       style="stop-color:rgb(199,121,208)"
       id="stop11" />
    <stop
       offset="99.56521739130434%"
       stop-opacity="1"
       style="stop-color:rgb(75,192,200)"
       id="stop12" />
  </linearGradient>
  <path
     d="M -7.7471985,17.25 Z"
     fill="url(#_lgradient_3)"
     id="path6"
     style="fill:url(#_lgradient_3);stroke-width:0.270484" />
  <g
     id="g13"
     transform="matrix(1.0393025,0,0,1.0059952,-0.28820941,-0.00899312)">
    <path
       d="m 3.761246,3.5353918 c 0,-0.4814615 0.3908493,-0.8723108 0.8723107,-0.8723108 h 7.5600263 c 0.481462,0 0.872311,0.3908493 0.872311,0.8723108 v 1.6980983 c 0,0.160397 -0.113062,0.3554159 -0.252361,0.4349382 l -2.636137,1.5065956 c -0.119825,0.068433 0.09981,1.281553 0.31322,1.1595648 L 13.723982,6.4871832 C 14.00258,6.3281387 14.228975,5.9381008 14.228975,5.6173068 V 2.9538513 C 14.228975,2.1513254 13.577379,1.5 12.775124,1.5 H 4.0520162 C 3.2494903,1.5 2.5981649,2.1513254 2.5981649,2.9538513 v 3.3615746 c 0,0.2986143 0.2423537,0.5409679 0.540968,0.5409679 h 0.081145 c 0.2986143,0 0.540968,-0.2423536 0.540968,-0.5409679 z"
       fill="url(#_lgradient_4)"
       id="path9"
       style="fill:url(#_lgradient_4);stroke-width:0.270484" />
    <path
       d="m 10.311556,11.095418 h 1.882027 c 0.481462,0 0.872311,-0.390849 0.872311,-0.87231 v -2.0353921 0 0 c 0,-0.3210645 0.260476,-0.5815405 0.581541,-0.5815405 v 0 c 0.321064,0 0.58154,0.260476 0.58154,0.5815405 v 0 2.6169321 c 0,0.802256 -0.651596,1.453851 -1.453851,1.453851 h -2.463568 c -0.298614,0 -0.5409679,-0.242353 -0.5409679,-0.540967 v -0.08115 c 0,-0.298615 0.2423539,-0.540968 0.5409679,-0.540969 z M 9.8674213,4.4077026 c 0,-0.5617952 0.4560357,-1.0178312 1.0175607,-1.0178312 0.561795,0 1.017831,0.456036 1.017831,1.0178312 0,0.5615246 -0.456036,1.0175606 -1.017831,1.0175606 -0.561525,0 -1.0175607,-0.456036 -1.0175607,-1.0175606 z"
       fill-rule="evenodd"
       fill="url(#_lgradient_5)"
       id="path12"
       style="fill:url(#_lgradient_5);stroke-width:0.270484" />
    <path
       class="st0"
       d="M 3.1067116,14.184683 4.4487664,12.842644 C 4.3336451,12.767804 4.222706,12.686974 4.1163579,12.600641 l 0.495028,-0.495012 c 0.027845,0.02133 0.05591,0.04245 0.084446,0.06311 0.01926,0.01391 0.03852,0.02761 0.058001,0.04082 0.00302,0.0023 0.00626,0.0044 0.00928,0.0065 0.019716,0.01344 0.039668,0.0269 0.05962,0.0399 0.043143,0.0283 0.086758,0.05544 0.1312999,0.08143 0.4744156,0.27815 1.0265482,0.437986 1.6151103,0.437986 0.588562,0 1.140679,-0.159836 1.6150945,-0.437986 0.4739596,-0.278165 0.8701863,-0.674392 1.1483516,-1.148336 0.2781653,-0.474431 0.4380019,-1.026548 0.4380019,-1.6151098 0,-0.5885463 -0.1598366,-1.140679 -0.4380019,-1.6150945 -0.011367,-0.01948 -0.022971,-0.038741 -0.03503,-0.058001 C 9.2824781,7.8762645 9.2669284,7.8516743 9.2511586,7.82754 9.2230936,7.7846329 9.1940853,7.7421817 9.1639293,7.7006581 9.1539611,7.6867279 9.1437414,7.6730491 9.1335374,7.6593547 9.1226258,7.6449842 9.11173,7.630598 9.1008185,7.6162117 9.0903787,7.602989 9.0799388,7.5895304 9.0692789,7.5763076 9.0483992,7.5503181 9.0272836,7.5245801 9.0054763,7.4992823 8.8948359,7.3693817 8.77374,7.2482858 8.6438237,7.1376297 8.6185416,7.1158224 8.593008,7.0947068 8.5667984,7.0738271 8.5535756,7.0631672 8.540117,7.0527116 8.5268942,7.0422875 8.512508,7.0313759 8.4981218,7.0204801 8.4837513,7.0095843 8.4700726,6.9993803 8.4563781,6.9891763 8.4424636,6.9791924 8.40094,6.9490364 8.3584888,6.9200438 8.315566,6.8919631 8.2914317,6.8761776 8.2668415,6.8606436 8.2422512,6.8455655 8.2230067,6.8335063 8.2037464,6.8219029 8.1842503,6.8105355 7.7098348,6.5323702 7.1577021,6.3725336 6.5691401,6.3725336 c -0.5885621,0 -1.140679,0.1598366 -1.6151103,0.4379861 C 4.480086,7.088685 4.0838435,7.4849118 3.8056939,7.9588557 3.5275286,8.4332712 3.367692,8.9854039 3.367692,9.5739502 c 0,0.5885618 0.1598366,1.1406788 0.4380019,1.6150948 0.017389,0.02968 0.035266,0.05893 0.053583,0.08792 0.00904,0.01461 0.018333,0.02899 0.027829,0.04338 0.012987,0.01995 0.026446,0.0399 0.039904,0.05962 0.00209,0.003 0.00418,0.0063 0.00649,0.0093 0.013223,0.01948 0.026917,0.03874 0.040832,0.058 0.020644,0.02854 0.041759,0.0566 0.063095,0.08445 l -0.4949932,0.49497 C 3.4561163,11.920337 3.3752704,11.809398 3.3004148,11.694308 L 1.95836,13.036363 c -0.1584373,0.158437 -0.2377738,0.366306 -0.2377738,0.57416 0,0.207854 0.079336,0.415723 0.2377895,0.57416 0.317126,0.317126 0.8312099,0.317126 1.1483359,0 z m 1.5810078,-3.336191 c -0.00464,-0.0065 -0.00904,-0.01299 -0.013223,-0.01972 -0.00535,-0.0074 -0.010204,-0.01508 -0.015078,-0.02273 -0.00464,-0.0069 -0.00904,-0.01393 -0.013459,-0.02088 -0.0058,-0.0091 -0.011367,-0.01808 -0.016697,-0.02714 -0.00535,-0.0086 -0.01044,-0.01693 -0.01555,-0.02552 -0.010911,-0.01833 -0.021336,-0.03667 -0.031775,-0.05522 -9.277e-4,-0.0014 -0.00164,-0.0028 -0.00255,-0.0044 -0.00835,-0.01509 -0.016477,-0.03039 -0.024354,-0.04571 -0.00349,-0.006 -0.00673,-0.01207 -0.00975,-0.01833 -0.00626,-0.01206 -0.012295,-0.02435 -0.018333,-0.03663 -0.011603,-0.02344 -0.022735,-0.04711 -0.033395,-0.071 C 4.3664269,10.21795 4.2956749,9.9040789 4.2956749,9.5739659 c 0,-0.330113 0.070752,-0.6439844 0.1978854,-0.9272439 C 4.7218376,8.1372607 5.1324506,7.7266634 5.6418962,7.4983861 5.9251399,7.371237 6.2390271,7.300485 6.5691401,7.300485 c 0.3301129,0 0.6440001,0.070752 0.9272596,0.1978854 0.079572,0.035722 0.1568178,0.075846 0.231296,0.1201683 0.00858,0.00511 0.016933,0.010204 0.025518,0.015534 0.023898,0.014386 0.047561,0.029464 0.070752,0.04525 0.013223,0.00858 0.02621,0.017389 0.039212,0.026666 0.016241,0.010911 0.032247,0.022263 0.048017,0.034118 0.024354,0.017845 0.048489,0.036178 0.072151,0.054966 0.1347746,0.1074172 0.2572699,0.2298967 0.3646871,0.3646871 0.018788,0.023663 0.037121,0.047797 0.054982,0.072151 0.011839,0.015785 0.023207,0.031791 0.034103,0.048017 0.00928,0.013003 0.018097,0.02599 0.026681,0.039212 0.01577,0.023207 0.030848,0.046869 0.045234,0.070752 0.00535,0.00858 0.01044,0.016933 0.01555,0.025518 0.044306,0.074463 0.084446,0.1517236 0.1201683,0.231296 0.1271334,0.2832595 0.1978854,0.5971309 0.1978854,0.9272439 0,0.330113 -0.070752,0.6440003 -0.1978854,0.9272433 -0.2282773,0.509447 -0.6388903,0.92006 -1.1483359,1.148337 -0.2832595,0.127133 -0.5971466,0.197884 -0.9272596,0.197884 -0.330113,0 -0.6440002,-0.07075 -0.9272596,-0.197884 C 5.617998,11.63885 5.594335,11.62774 5.570908,11.61613 5.558613,11.61013 5.546318,11.60406 5.534243,11.5978 5.527983,11.5948 5.521948,11.5915 5.51591,11.5881 5.500596,11.5802 5.485282,11.5721 5.470204,11.56375 5.468584,11.562822 5.467184,11.56215 5.465804,11.56125 5.447251,11.55103 5.428919,11.54037 5.410586,11.52946 5.402006,11.52436 5.393653,11.51926 5.385068,11.51393 5.376008,11.50863 5.366971,11.50302 5.357931,11.49722 5.350961,11.49282 5.344001,11.48842 5.337051,11.48376 5.329391,11.47886 5.321737,11.47406 5.314316,11.46868 5.307586,11.46448 5.301093,11.46008 5.2946,11.45546 5.28811,11.45106 5.281613,11.44666 5.27512,11.442 5.27117,11.4397 5.26723,11.4369 5.263517,11.4339 5.255857,11.4288 5.247967,11.42322 5.24031,11.41766 5.181617,11.37545 5.1252359,11.33043 5.0711971,11.28265 c -0.00998,-0.0086 -0.019716,-0.01739 -0.029464,-0.02621 -0.012531,-0.01137 -0.025062,-0.02274 -0.037121,-0.03434 -0.01415,-0.01346 -0.028301,-0.02737 -0.042231,-0.0413 -0.013915,-0.0139 -0.027829,-0.02806 -0.041288,-0.04222 -0.011603,-0.01206 -0.022955,-0.02459 -0.034338,-0.03712 -0.00882,-0.0097 -0.017625,-0.01948 -0.02621,-0.02947 -0.047797,-0.05404 -0.092795,-0.11042 -0.1350262,-0.169112 -0.00557,-0.0077 -0.011132,-0.01555 -0.016241,-0.02321 -0.00302,-0.0037 -0.0058,-0.0077 -0.00811,-0.0116 -0.00462,-0.0065 -0.00904,-0.01299 -0.013443,-0.01947 z"
       id="path1"
       style="fill:url(#linearGradient6);fill-opacity:1;stroke-width:0.0157227" />
  </g>
</svg>
