<?xml version="1.0" encoding="UTF-8" standalone="no"?>
<!-- Generator: Gravit.io -->

<svg
   style="isolation:isolate"
   viewBox="0 0 16 16"
   width="16pt"
   height="16pt"
   version="1.1"
   id="svg6"
   sodipodi:docname="org.olivevideoeditor.Olive.svg"
   inkscape:version="1.4.4 (unknown)"
   xmlns:inkscape="http://www.inkscape.org/namespaces/inkscape"
   xmlns:sodipodi="http://sodipodi.sourceforge.net/DTD/sodipodi-0.dtd"
   xmlns:xlink="http://www.w3.org/1999/xlink"
   xmlns="http://www.w3.org/2000/svg"
   xmlns:svg="http://www.w3.org/2000/svg">
  <defs
     id="defs6">
    <linearGradient
       id="linearGradient6"
       inkscape:collect="always">
      <stop
         style="stop-color:#20c997;stop-opacity:1"
         offset="0"
         id="stop7" />
      <stop
         style="stop-color:#975cf6;stop-opacity:1"
         offset="1"
         id="stop8" />
    </linearGradient>
    <linearGradient
       inkscape:collect="always"
       xlink:href="#linearGradient6"
       id="linearGradient8"
       x1="0.95873946"
       y1="47.030327"
       x2="46.958538"
       y2="1.0297469"
       gradientUnits="userSpaceOnUse" />
  </defs>
  <sodipodi:namedview
     id="namedview6"
     pagecolor="#ffffff"
     bordercolor="#000000"
     borderopacity="0.25"
     inkscape:showpageshadow="2"
     inkscape:pageopacity="0.0"
     inkscape:pagecheckerboard="0"
     inkscape:deskcolor="#d1d1d1"
     inkscape:document-units="pt"
     inkscape:zoom="24.34375"
     inkscape:cx="9.2015404"
     inkscape:cy="11.39923"
     inkscape:window-width="1920"
     inkscape:window-height="994"
     inkscape:window-x="0"
     inkscape:window-y="0"
     inkscape:window-maximized="1"
     inkscape:current-layer="svg6" />
  <linearGradient
     id="_lgradient_3"
     x1="0"
     y1="0.5"
     x2="1.0176991"
     y2="0.5"
     gradientTransform="matrix(27,0,0,22.68,10.5,12.66)"
     gradientUnits="userSpaceOnUse">
    <stop
       offset="0%"
       stop-opacity="1"
       style="stop-color:rgb(84,51,255)"
       id="stop1" />
    <stop
       offset="51.73913043478261%"
       stop-opacity="1"
       style="stop-color:rgb(32,189,255)"
       id="stop2" />
    <stop
       offset="98.26086956521739%"
       stop-opacity="1"
       style="stop-color:rgb(165,254,203)"
       id="stop3" />
  </linearGradient>
  <linearGradient
     id="_lgradient_4"
     x1="0.071553186"
     y1="0.74391294"
     x2="0.99873358"
     y2="0.49568295"
     gradientTransform="matrix(46,0,0,46,0.959,1.03)"
     gradientUnits="userSpaceOnUse">
    <stop
       offset="0%"
       stop-opacity="1"
       style="stop-color:rgb(84,51,255)"
       id="stop4" />
    <stop
       offset="51.73913043478261%"
       stop-opacity="1"
       style="stop-color:rgb(32,189,255)"
       id="stop5" />
    <stop
       offset="98.26086956521739%"
       stop-opacity="1"
       style="stop-color:rgb(165,254,203)"
       id="stop6" />
  </linearGradient>
  <g
     id="g6"
     transform="matrix(0.28260514,0,0,0.28260514,1.2291655,1.2089882)">
    <path
       d="m 33.433,40.492 v 0 c 0.958,-0.547 2.184,-0.216 2.736,0.739 v 0 c 0.553,0.955 0.225,2.179 -0.733,2.732 v 0 c -3.725,2.144 -7.974,3.2 -12.261,3.054 -3.888,-0.133 -7.682,-1.253 -11.026,-3.248 v 0 c -0.947,-0.568 -1.255,-1.798 -0.687,-2.745 v 0 c 0.568,-0.947 1.798,-1.255 2.745,-0.687 v 0 c 2.755,1.655 5.886,2.572 9.104,2.682 3.548,0.121 7.05,-0.75 10.122,-2.527 v 0 z m 7.534,-24.937 v 0 c -0.496,-0.989 -0.096,-2.193 0.892,-2.686 v 0 c 0.989,-0.494 2.19,-0.092 2.681,0.896 v 0 c 1.715,3.421 2.536,7.221 2.405,11.049 -0.099,2.918 -0.747,5.788 -1.919,8.449 v 0 c -0.443,1.012 -1.624,1.474 -2.637,1.031 v 0 c -1.012,-0.443 -1.473,-1.625 -1.03,-2.637 v 0 c 0.975,-2.198 1.506,-4.571 1.589,-6.98 0.107,-3.158 -0.576,-6.293 -1.981,-9.122 v 0 z M 15.727,6.91 v 0 c -0.993,0.474 -2.19,0.052 -2.669,-0.942 v 0 c -0.48,-0.994 -0.063,-2.19 0.931,-2.67 v 0 C 17.336,1.691 21.024,0.917 24.742,1.043 28.32,1.165 31.83,2.116 34.973,3.834 v 0 c 0.971,0.53 1.328,1.748 0.798,2.718 v 0 C 35.241,7.523 34.023,7.88 33.052,7.35 v 0 C 30.459,5.931 27.564,5.142 24.606,5.041 21.538,4.936 18.494,5.573 15.727,6.91 Z M 5.933,30.059 v 0 c 0.351,1.045 -0.215,2.178 -1.262,2.529 v 0 C 3.623,32.939 2.488,32.371 2.137,31.321 v 0 C 1.276,28.72 0.879,25.985 0.972,23.246 1.095,19.628 2.067,16.079 3.826,12.907 v 0 c 0.53,-0.964 1.745,-1.313 2.713,-0.778 v 0 c 0.967,0.536 1.318,1.754 0.783,2.719 v 0 c -1.45,2.622 -2.251,5.546 -2.352,8.535 -0.078,2.268 0.246,4.521 0.963,6.676 z M 41.174,9.498 c -0.038,1.103 -0.964,1.969 -2.067,1.931 -1.103,-0.038 -1.969,-0.964 -1.931,-2.067 0.038,-1.103 0.964,-1.968 2.067,-1.931 1.103,0.038 1.968,0.964 1.931,2.067 z M 9.931,37.22 C 9.893,38.323 8.967,39.188 7.864,39.15 6.761,39.113 5.896,38.187 5.933,37.083 5.971,35.98 6.897,35.115 8,35.153 9.103,35.19 9.969,36.116 9.931,37.22 Z m 32.016,1.091 c 0.038,-1.103 -0.827,-2.029 -1.93,-2.067 -1.103,-0.037 -2.03,0.828 -2.067,1.931 -0.038,1.103 0.827,2.029 1.93,2.067 1.104,0.038 2.03,-0.827 2.067,-1.931 z M 11.371,8.482 C 11.409,7.379 10.544,6.453 9.44,6.415 8.337,6.377 7.411,7.243 7.373,8.346 c -0.037,1.103 0.828,2.029 1.931,2.067 1.103,0.037 2.029,-0.828 2.067,-1.931 z"
       fill-rule="evenodd"
       id="path6"
       style="fill:url(#linearGradient8)" />
  </g>
  <path
     style="opacity:0.2;stroke-width:0.797019"
     d="m 3.5739182,3.8416181 0.3039764,0.2282423 c -0.9641827,0.4446 1.5120185,2.4745105 1.5120185,2.4745105 0,0 0.4819091,-0.43388 1.1879641,-0.479554 0.7003284,-0.717823 3.6150208,-0.1714872 3.5058178,0.417626 -0.9797682,0.015311 -1.2900684,-0.1099042 -1.2900684,-0.1099042 0,0 0.048364,0.055798 0.068335,0.2472778 C 8.7903497,6.6788015 7.7771993,6.4517387 7.5653892,6.4679119 6.9627019,6.5139839 6.555941,6.5292099 6.123563,6.5770677 6.421021,6.6751857 8.791342,7.0974001 9.5492493,7.8302248 9.3470777,7.9081798 9.2586594,7.8761348 9.1911533,7.9009978 9.131784,7.9228457 9.0717325,8.0438524 8.9414649,8.0444416 8.848126,8.0447651 8.8800247,7.9617896 8.6872645,7.8706374 7.4878669,7.9183107 7.0990043,7.1863882 6.9806441,7.0966348 6.4511624,6.9702423 5.559162,6.6844289 5.559162,6.6844289 c 0,0 0.755253,0.602809 1.1693437,0.9373848 0.034442,0.02782 0.6021316,0.1333642 1.3238176,0.4854433 C 8.4402487,7.7896277 9.4860557,8.3286038 9.2917324,8.8221538 9.1186424,9.2617799 7.9573033,8.8087359 7.9999991,8.2107279 7.7348792,8.128148 7.2451291,7.8913291 6.9317952,7.7783478 7.2321955,8.0126718 8.4123986,8.9962249 8.6495393,9.2744216 9.6884271,9.1468049 11.256791,9.4061289 12.229664,10.029788 12.007793,10.088375 10.952072,10.288927 10.740607,10.232483 10.347675,10.083838 9.7620405,9.6023095 9.6996414,9.5483455 9.4739315,9.5102475 8.9673382,9.4374668 8.7727412,9.4153318 c 0.1973753,0.2003193 0.8492073,0.9535662 1.0538737,1.2704222 0.084784,-0.01795 0.5171461,0.08603 0.6369681,0.167474 0.443901,-0.453025 1.163674,0.341893 1.606127,0.725811 -0.116236,0.236037 -1.941847,-0.127246 -1.697858,-0.656176 -0.130467,-0.01733 -0.3915688,-0.160776 -0.487851,-0.168395 0.098425,0.128924 0.313062,0.303911 0.595943,0.600697 0.272099,-0.0774 1.297715,1.032774 1.325236,1.275723 -0.767495,-0.187033 -1.146553,-0.34977 -1.265377,-0.488586 -0.234535,-0.274005 -0.145742,-0.667438 -0.123396,-0.738954 -0.301812,-0.269772 -0.358041,-0.349992 -0.456755,-0.403534 -0.00251,0.0032 3.32e-4,0.08311 0.00491,0.122132 0.495753,0.365583 0.256194,1.377417 -0.028842,1.413295 -0.124053,0.01558 -0.4099989,-1.427539 -0.052943,-1.481312 0.0082,-0.02861 0.01288,-0.113824 0.013399,-0.117181 C 9.7077343,10.731574 8.6627468,9.6202858 8.5947923,9.5734799 c 0.033846,0.087691 0.089343,0.23191 0.14027,0.4099338 C 9.3521404,10.386787 9.4542374,11.032218 9.4077299,11.790302 9.2597585,11.531213 7.8100353,10.350782 8.4440807,9.8275002 8.4485534,9.7467967 8.4245074,9.5636358 8.4779046,9.4606739 8.276836,9.2596847 7.6507532,8.6415058 7.5945733,8.6420096 7.6644968,8.7853771 7.7079101,8.8672219 7.7426017,9.0222507 8.2198309,9.2604806 8.0812001,9.8758521 7.8638306,9.8889179 7.634831,9.9026579 7.1273138,9.1964588 7.6046671,9.0466901 7.5661056,8.8688748 7.4959633,8.6272138 7.4676875,8.5222288 7.2611498,8.364238 6.5771171,7.8173981 6.4192663,7.6899257 6.6133593,8.0129597 6.8029499,8.515772 6.8977594,8.8040679 7.4695795,9.4520169 7.3114003,10.454285 7.253582,11.488096 6.5827203,10.989913 6.1661973,9.2896937 6.5929451,8.8664727 6.4504859,8.374851 6.2351573,7.5429861 6.2351573,7.5429861 5.3127419,6.8268851 4.8024141,6.2901646 4.8024141,6.2901646 c 0,0 0.6145903,0.7971102 0.6845913,1.2244051 0.538259,0.1043834 0.9879308,1.0422281 0.5599419,1.2022775 -0.625578,0.2339345 -1.2970859,-0.7587455 -0.7634122,-1.128474 0,0 -0.472546,-0.8706114 -0.8383258,-1.6341953 -1.442788,-1.5840182 -1.3041,-2.0595855 -0.8713448,-2.1125373 z"
     id="path2" />
  <path
     style="fill:#00bbbb;stroke-width:0.797019;fill-opacity:1"
     d="m 3.5739182,3.6308879 0.3039764,0.2282424 c -0.9641827,0.4446 1.5120185,2.4745097 1.5120185,2.4745097 0,0 0.4819091,-0.4338789 1.1879641,-0.4795524 0.7003284,-0.7178233 3.6150208,-0.1714884 3.5058178,0.417626 -0.9797682,0.015309 -1.2900684,-0.109905 -1.2900684,-0.109905 0,0 0.048364,0.055798 0.068335,0.2472767 C 8.7903504,6.4680743 7.7771999,6.2410086 7.5653898,6.2571817 6.9627026,6.3032522 6.5559416,6.3184799 6.1235635,6.3663369 6.4210213,6.4644536 8.7913426,6.8866699 9.5492498,7.6194942 9.3470785,7.6974508 9.2586602,7.6654061 9.1911541,7.6902698 9.1317843,7.7121136 9.0717328,7.8331222 8.9414652,7.8337117 8.848126,7.8340335 8.8800247,7.7510501 8.6872645,7.6599068 7.4878675,7.7075761 7.099005,6.9756589 6.9806447,6.8859039 6.4511629,6.7595098 5.559163,6.473699 5.559163,6.473699 c 0,0 0.7552531,0.6028092 1.1693432,0.9373853 0.034442,0.027818 0.6021318,0.1333656 1.323818,0.4854436 C 8.4402494,7.5788986 9.4860563,8.1178756 9.2917336,8.6114265 9.1186439,9.051051 7.9573043,8.5980096 8,8 7.7348803,7.917413 7.2451299,7.6806008 6.9317965,7.5676198 c 0.3004,0.2343243 1.480603,1.2178771 1.7177434,1.4960739 1.0388882,-0.1276179 2.6072521,0.1317121 3.5801251,0.755367 -0.221871,0.058586 -1.277592,0.2591363 -1.489057,0.2026933 C 10.347675,9.8731098 9.7620405,9.3915801 9.6996414,9.3376168 9.4739315,9.2995189 8.9673382,9.2267404 8.7727412,9.2046029 c 0.1973753,0.20032 0.8492073,0.9535661 1.0538737,1.2704221 0.084784,-0.01795 0.5171461,0.08603 0.6369681,0.167474 0.443902,-0.453025 1.163674,0.341893 1.606127,0.72581 -0.116235,0.236038 -1.941846,-0.127244 -1.697858,-0.656175 -0.130466,-0.01735 -0.3915681,-0.160787 -0.4878502,-0.168394 0.098425,0.12893 0.3130612,0.303909 0.5959432,0.600696 0.272099,-0.0774 1.297715,1.032773 1.325236,1.275723 -0.767495,-0.187035 -1.146553,-0.34977 -1.265378,-0.488585 -0.234534,-0.274004 -0.145741,-0.667438 -0.123394,-0.738954 -0.301811,-0.269772 -0.358041,-0.349992 -0.4567547,-0.403534 -0.00251,0.0032 3.316e-4,0.08311 0.00491,0.12213 0.4957437,0.365583 0.2561847,1.377418 -0.028852,1.413295 -0.1240518,0.01558 -0.4099971,-1.427539 -0.052941,-1.481312 0.0082,-0.02861 0.012879,-0.113824 0.013399,-0.117181 C 9.7077365,10.520843 8.6627479,9.4095549 8.5947935,9.3627489 8.6286399,9.4504402 8.6841366,9.5946579 8.7350677,9.7726828 9.352146,10.176057 9.4542433,10.821487 9.4077351,11.579571 9.259761,11.320481 7.8100381,10.140052 8.4440838,9.6167697 8.4485565,9.5360649 8.4244869,9.3529042 8.4779079,9.2499429 8.2768412,9.0489537 7.6507568,8.4307761 7.5945774,8.4312782 7.6645011,8.5746459 7.7079143,8.6564921 7.7426058,8.8115198 8.219835,9.0497491 8.0812042,9.6651218 7.8638347,9.6781859 7.6348332,9.6919255 7.1273166,8.9857277 7.6046695,8.8359599 7.5660997,8.6581468 7.4959649,8.4164839 7.4676894,8.3114979 7.2611517,8.153505 6.5771182,7.6066676 6.4192674,7.479195 6.6133593,7.8022287 6.8029521,8.3050416 6.897761,8.5933378 7.4695817,9.2412859 7.3114025,10.243555 7.2535842,11.277365 6.5827243,10.779185 6.1662011,9.0789651 6.5929493,8.6557427 6.4504886,8.1641222 6.2351611,7.3322579 6.2351611,7.3322579 5.3127461,6.6161559 4.8024182,6.0794357 4.8024182,6.0794357 c 0,0 0.6145904,0.7971104 0.684591,1.2244055 C 6.0252685,7.4082255 6.4749402,8.346069 6.0469511,8.5061189 5.4213733,8.7400521 4.7498657,7.747373 5.2835386,7.3776447 c 0,0 -0.4725457,-0.8706117 -0.8383254,-1.634196 C 3.002425,4.1594302 3.1411131,3.6838628 3.5738682,3.6309114 Z"
     id="path3" />
</svg>
