<?xml version="1.0" encoding="UTF-8" standalone="no"?>
<!-- Generator: Gravit.io -->

<svg
   style="isolation:isolate"
   viewBox="0 0 16 16"
   width="16"
   height="16"
   version="1.1"
   id="svg9"
   sodipodi:docname="org.xfce.terminal-settings.svg"
   inkscape:version="1.4.4 (unknown)"
   xmlns:inkscape="http://www.inkscape.org/namespaces/inkscape"
   xmlns:sodipodi="http://sodipodi.sourceforge.net/DTD/sodipodi-0.dtd"
   xmlns:xlink="http://www.w3.org/1999/xlink"
   xmlns="http://www.w3.org/2000/svg"
   xmlns:svg="http://www.w3.org/2000/svg">
  <defs
     id="defs9">
    <linearGradient
       id="linearGradient9"
       inkscape:collect="always">
      <stop
         style="stop-color:#37abc8;stop-opacity:1"
         offset="0"
         id="stop10" />
      <stop
         style="stop-color:#ff55dd;stop-opacity:1"
         offset="1"
         id="stop11" />
    </linearGradient>
    <linearGradient
       inkscape:collect="always"
       xlink:href="#linearGradient9"
       id="linearGradient11"
       x1="0.25"
       y1="9.559"
       x2="14.993804"
       y2="9.559"
       gradientUnits="userSpaceOnUse" />
    <linearGradient
       inkscape:collect="always"
       xlink:href="#linearGradient9"
       id="linearGradient13"
       x1="8.0263481"
       y1="12.57527"
       x2="14.993806"
       y2="12.57527"
       gradientUnits="userSpaceOnUse" />
    <linearGradient
       inkscape:collect="always"
       xlink:href="#linearGradient9"
       id="linearGradient15"
       x1="2.4895101"
       y1="7.6107073"
       x2="9.1009388"
       y2="7.6107073"
       gradientUnits="userSpaceOnUse" />
  </defs>
  <sodipodi:namedview
     id="namedview9"
     pagecolor="#ffffff"
     bordercolor="#000000"
     borderopacity="0.25"
     inkscape:showpageshadow="2"
     inkscape:pageopacity="0.0"
     inkscape:pagecheckerboard="0"
     inkscape:deskcolor="#d1d1d1"
     inkscape:document-units="px"
     inkscape:zoom="33.45499"
     inkscape:cx="7.3830542"
     inkscape:cy="12.120763"
     inkscape:window-width="1920"
     inkscape:window-height="994"
     inkscape:window-x="0"
     inkscape:window-y="0"
     inkscape:window-maximized="1"
     inkscape:current-layer="svg9" />
  <linearGradient
     id="_lgradient_3"
     x1="0.056451611"
     y1="0.95731705"
     x2="0.97340423"
     y2="0.19135451"
     gradientTransform="matrix(14.743804,0,0,13,0.25,3.059)"
     gradientUnits="userSpaceOnUse">
    <stop
       offset="0%"
       stop-opacity="1"
       style="stop-color:rgb(135,154,242)"
       id="stop1" />
    <stop
       offset="47.91666666666667%"
       stop-opacity="1"
       style="stop-color:rgb(211,32,139)"
       id="stop2" />
    <stop
       offset="97.91666666666666%"
       stop-opacity="1"
       style="stop-color:rgb(253,160,0)"
       id="stop3" />
  </linearGradient>
  <linearGradient
     id="_lgradient_4"
     x1="0"
     y1="0.5"
     x2="0.88699901"
     y2="0.011344648"
     gradientTransform="matrix(6.9674561,0,0,6.9674561,8.0263477,9.0915437)"
     gradientUnits="userSpaceOnUse">
    <stop
       offset="0%"
       stop-opacity="1"
       style="stop-color:rgb(84,51,255)"
       id="stop4" />
    <stop
       offset="49.166666666666664%"
       stop-opacity="1"
       style="stop-color:rgb(233,72,255)"
       id="stop5" />
    <stop
       offset="97.08333333333333%"
       stop-opacity="1"
       style="stop-color:rgb(255,0,91)"
       id="stop6" />
  </linearGradient>
  <linearGradient
     id="_lgradient_5"
     x1="-0.13692684"
     y1="0.62116134"
     x2="1.0007136"
     y2="0.39994398"
     gradientTransform="matrix(6.611432,0,0,5.2335848,2.4895062,4.9936974)"
     gradientUnits="userSpaceOnUse">
    <stop
       offset="0%"
       stop-opacity="1"
       style="stop-color:rgb(249,212,35)"
       id="stop7" />
    <stop
       offset="51.56237565086822%"
       stop-opacity="1"
       style="stop-color:rgb(255,78,80)"
       id="stop8" />
    <stop
       offset="99.1304347826087%"
       stop-opacity="1"
       style="stop-color:rgb(138,35,135)"
       id="stop9" />
  </linearGradient>
  <g
     id="g9"
     transform="translate(0.378097,-1.559)">
    <path
       d="M 7.9518528,16.059 H 3.1987608 C 2.415632,16.059 1.6654052,15.757606 1.1150733,15.221862 0.56132706,14.689223 0.25,13.963207 0.25,13.20522 V 5.9127797 C 0.25,5.1547929 0.56132706,4.428777 1.1150733,3.8961377 1.6654052,3.3603944 2.415632,3.059 3.1987608,3.059 h 8.8462822 c 0.783129,0 1.533356,0.3013944 2.083688,0.8371377 0.553746,0.5326393 0.865073,1.2586552 0.865073,2.016642 v 3.2383601 0 c 0,0.3501266 -0.293634,0.6341388 -0.655246,0.6341388 v 0 c -0.361611,0 -0.655245,-0.2840122 -0.655245,-0.6341388 v 0 -3.2383601 c 0,-0.421828 -0.173822,-0.8244115 -0.47832,-1.1223915 C 12.896769,4.4955121 12.480839,4.3272775 12.045043,4.3272775 H 3.1987608 c -0.4357958,0 -0.8517263,0.1682346 -1.1599494,0.4631107 -0.3044983,0.29798 -0.47832,0.7005635 -0.47832,1.1223915 V 13.20522 c 0,0.421828 0.1738217,0.824412 0.47832,1.122392 0.3082231,0.294876 0.7241536,0.46311 1.1599494,0.46311 h 4.7385034 c 0.3423667,0 0.6238957,0.278115 0.6279309,0.620792 l 3.104e-4,0.02669 C 8.5692302,15.780885 8.2942195,16.059 7.9518528,16.059 Z"
       id="path3"
       style="fill:url(#linearGradient11);fill-opacity:1" />
    <path
       d="m 11.510231,9.0915438 c 0.349816,0 0.633208,0.2837018 0.633208,0.633518 v 0.028246 c 9.31e-4,0.2082756 0.1254,0.3963752 0.316604,0.4783202 0.195549,0.08629 0.42369,0.04501 0.576405,-0.104604 l 0.01924,-0.01893 c 0.118571,-0.1188813 0.279977,-0.1856164 0.447901,-0.1856164 0.168235,0 0.32933,0.066735 0.448212,0.1856164 0.118882,0.118882 0.185927,0.279977 0.185927,0.448212 0,0.168235 -0.06705,0.32933 -0.185927,0.448212 l -0.01893,0.01893 c -0.1493,0.152715 -0.190894,0.380855 -0.104603,0.576405 v 0.02545 c 0.08225,0.191204 0.270044,0.315673 0.47832,0.316604 h 0.0537 c 0.349816,0 0.633518,0.283392 0.633518,0.633518 0,0.349816 -0.283702,0.633208 -0.633518,0.633208 h -0.02825 c -0.208276,9.31e-4 -0.396376,0.1254 -0.47832,0.316603 -0.08629,0.19555 -0.04501,0.423691 0.104603,0.576406 l 0.01894,0.01924 c 0.118881,0.118571 0.185616,0.279977 0.185616,0.447901 0,0.168235 -0.06673,0.32933 -0.185616,0.448212 -0.118882,0.118882 -0.279978,0.185927 -0.448212,0.185927 -0.168235,0 -0.32933,-0.06705 -0.448212,-0.185927 l -0.01893,-0.01893 c -0.152715,-0.149301 -0.380856,-0.190894 -0.576405,-0.104604 -0.191514,0.08225 -0.315983,0.270045 -0.316604,0.478321 v 0.0537 c 0,0.349816 -0.283702,0.633518 -0.633518,0.633518 -0.349816,0 -0.633518,-0.283702 -0.633518,-0.633518 v -0.02825 c -0.005,-0.214794 -0.140609,-0.404446 -0.341746,-0.47832 -0.195549,-0.08629 -0.42369,-0.04501 -0.5764048,0.104603 l -0.019244,0.01893 c -0.1185713,0.118881 -0.2799771,0.185616 -0.4479013,0.185616 -0.1682345,0 -0.32933,-0.06674 -0.4482116,-0.185616 -0.1188816,-0.118882 -0.1859271,-0.279978 -0.1859271,-0.448212 0,-0.168235 0.067046,-0.32933 0.1859271,-0.448212 l 0.018934,-0.01893 c 0.149293,-0.15271 0.1908861,-0.380851 0.104596,-0.5764 -0.082255,-0.191514 -0.2700444,-0.315983 -0.47832,-0.316604 h -0.053698 c -0.3498161,0 -0.633518,-0.283702 -0.633518,-0.633518 0,-0.349816 0.2837019,-0.633518 0.633518,-0.633518 h 0.028246 c 0.214794,-0.005 0.4044459,-0.140609 0.4783201,-0.341746 0.08629,-0.195549 0.045007,-0.42369 -0.1046034,-0.576405 L 9.042895,11.02966 C 8.9240127,10.911084 8.8572776,10.749679 8.8572776,10.581754 c 0,-0.168234 0.066735,-0.32933 0.1856167,-0.448211 0.1188816,-0.118882 0.2799771,-0.1859274 0.4482117,-0.1859274 0.1682345,0 0.32933,0.067045 0.4482116,0.1859274 l 0.018934,0.01893 c 0.1527154,0.1493 0.3808554,0.190893 0.5764054,0.104603 h 0.02545 c 0.191204,-0.08225 0.315673,-0.2700441 0.316604,-0.4783197 v -0.053698 c 0,-0.3498162 0.283392,-0.633518 0.633518,-0.633518 z m 0,2.6129122 c -0.481113,0 -0.870971,0.389857 -0.870971,0.870971 0,0.480803 0.389858,0.870661 0.870971,0.870661 0.480803,0 0.870661,-0.389858 0.870661,-0.870661 0,-0.481114 -0.389858,-0.870971 -0.870661,-0.870971 z"
       fill-rule="evenodd"
       id="path6"
       style="fill:url(#linearGradient13)" />
    <path
       d="m 2.7337878,6.1300568 v 0 C 2.4572251,5.9130901 2.4081825,5.5129898 2.624218,5.2373582 v 0 C 2.8402536,4.9617267 3.2388019,4.9126842 3.5138126,5.1280989 v 0 l 2.4272958,1.8968292 c 0.4137577,0.3234325 0.4137577,0.8483119 0,1.171434 L 3.5138126,10.093502 v 0 C 3.2388019,10.308606 2.8402536,10.259563 2.624218,9.983932 v 0 C 2.4081825,9.7083004 2.4572251,9.3085105 2.7337878,9.0915438 v 0 L 4.6296858,7.6106451 Z M 6.450468,8.9860092 h 2.0296786 c 0.3423667,0 0.6207918,0.2781147 0.6207918,0.6207918 v 0 c 0,0.342677 -0.2784251,0.620792 -0.6207918,0.620792 H 6.450468 c -0.3426771,0 -0.6207918,-0.278115 -0.6207918,-0.620792 v 0 c 0,-0.3426771 0.2781147,-0.6207918 0.6207918,-0.6207918 z"
       fill-rule="evenodd"
       id="path9"
       style="fill:url(#linearGradient15)" />
  </g>
</svg>
