<?xml version="1.0" encoding="UTF-8" standalone="no"?>
<!-- Generator: Gravit.io -->

<svg
   style="isolation:isolate"
   viewBox="0 0 16 16"
   width="16pt"
   height="16pt"
   version="1.1"
   id="svg2"
   sodipodi:docname="org.wezfurlong.wezterm.svg"
   inkscape:version="1.4.4 (unknown)"
   xmlns:inkscape="http://www.inkscape.org/namespaces/inkscape"
   xmlns:sodipodi="http://sodipodi.sourceforge.net/DTD/sodipodi-0.dtd"
   xmlns:xlink="http://www.w3.org/1999/xlink"
   xmlns="http://www.w3.org/2000/svg"
   xmlns:svg="http://www.w3.org/2000/svg">
  <defs
     id="defs2">
    <linearGradient
       id="linearGradient2"
       inkscape:collect="always">
      <stop
         style="stop-color:#dc8add;stop-opacity:1"
         offset="0"
         id="stop3" />
      <stop
         style="stop-color:#7c7ce4;stop-opacity:1;"
         offset="1"
         id="stop4" />
    </linearGradient>
    <linearGradient
       inkscape:collect="always"
       xlink:href="#linearGradient2"
       id="linearGradient4"
       x1="0"
       y1="5.9693751"
       x2="16"
       y2="5"
       gradientUnits="userSpaceOnUse"
       gradientTransform="matrix(0.8125001,0,0,0.79999997,1.5,1.6)" />
    <linearGradient
       inkscape:collect="always"
       xlink:href="#linearGradient2"
       id="linearGradient6"
       x1="3.2499988"
       y1="8"
       x2="12.750001"
       y2="8"
       gradientUnits="userSpaceOnUse" />
  </defs>
  <sodipodi:namedview
     id="namedview2"
     pagecolor="#ffffff"
     bordercolor="#000000"
     borderopacity="0.25"
     inkscape:showpageshadow="2"
     inkscape:pageopacity="0.0"
     inkscape:pagecheckerboard="0"
     inkscape:deskcolor="#d1d1d1"
     inkscape:document-units="pt"
     inkscape:zoom="22.512992"
     inkscape:cx="9.4612036"
     inkscape:cy="7.0403792"
     inkscape:window-width="1920"
     inkscape:window-height="994"
     inkscape:window-x="0"
     inkscape:window-y="0"
     inkscape:window-maximized="1"
     inkscape:current-layer="svg2"
     showgrid="false">
    <inkscape:grid
       id="grid1"
       units="pt"
       originx="0"
       originy="0"
       spacingx="0.99999997"
       spacingy="0.99999997"
       empcolor="#0099e5"
       empopacity="0.30196078"
       color="#0099e5"
       opacity="0.14901961"
       empspacing="5"
       enabled="true"
       visible="false" />
  </sodipodi:namedview>
  <linearGradient
     id="_lgradient_3"
     x1="0"
     y1="0.5"
     x2="1"
     y2="0.5"
     gradientTransform="matrix(16,0,0,15,0,0.5)"
     gradientUnits="userSpaceOnUse">
    <stop
       offset="0%"
       stop-opacity="1"
       style="stop-color:rgb(67,233,123)"
       id="stop1" />
    <stop
       offset="97.82608695652173%"
       stop-opacity="1"
       style="stop-color:rgb(56,249,215)"
       id="stop2" />
  </linearGradient>
  <path
     d="M 7.9999998,2.9999999 8,3.1010965 v 0 0 0 0 c 0,0 -2e-7,-0.1010966 0,0 l -2e-7,-0.1010966 L 8,3.1010965 7.9999998,2.9999999 8,3.1010965 7.9999998,2.9999999 8,3.1010965 7.9999998,2.9999999 8,3.1010965 v 0 z m 0,0 L 8,3.1010965 Z M 13.318183,8.6 v 0 c 0,-0.3312 0.264724,-0.6 0.590915,-0.6 V 8 C 14.235271,8 14.5,8.2688 14.5,8.6 v 0 2.049 c 0,0.3312 -0.187317,0.7902 -0.417775,1.0242 l -1.873764,1.9026 C 11.978005,13.8098 11.52596,14 11.199771,14 H 2.9772735 C 2.1618184,14 1.5,13.328 1.5,12.5 v -2.1 0 c 0,-0.3312 0.2647272,-0.6 0.5909091,-0.6 v 0 c 0.3261822,0 0.5909092,0.2688 0.5909092,0.6 v 0 1.5 c 0,0.4968 0.3970911,0.9 0.8863639,0.9 h 7.4365888 c 0.163097,0 0.389113,-0.09511 0.504348,-0.2121 l 1.600176,-1.6248 c 0.115236,-0.117 0.208888,-0.3465 0.208888,-0.5121 z M 7.9999998,2.9999999 v 0 0 0 L 8,3.1010965 v 0 z M 2.6818183,7.4 v 0 c 0,0.3312 -0.264727,0.6 -0.5909092,0.6 V 8 C 1.7647272,8 1.5,7.7312 1.5,7.4 v 0 -2.049 C 1.5,5.0198 1.6873183,4.5608 1.917773,4.3268 L 3.7915463,2.4242 C 4.0220009,2.1902 4.4740465,2 4.8002276,2 H 13.022734 C 13.838189,2 14.5,2.672 14.5,3.5 v 2.1 0 c 0,0.3312 -0.264729,0.6 -0.590902,0.6 v 0 c -0.326191,0 -0.590915,-0.2688 -0.590915,-0.6 v 0 -1.5 c 0,-0.4968 -0.39709,-0.9 -0.886363,-0.9 H 4.9952276 C 4.8321373,3.2 4.6061138,3.2951 4.4908873,3.4121 L 2.8907052,5.0369 C 2.7754771,5.1539 2.6818183,5.3834 2.6818183,5.549 Z"
     fill-rule="evenodd"
     id="path2"
     style="fill:url(#linearGradient4);fill-opacity:1;stroke-width:0.806223"
     sodipodi:nodetypes="cccccscccccccccccccccccsssscsccssscsssscsssccccccsccsccscsssscsssssscsssscsss" />
  <path
     fill="#7c7ce4"
     d="M 5.4422291,4.5 C 5.239752,4.5 5.0770578,4.6561327 5.0770578,4.8498011 V 5.2143889 C 4.557505,5.2561949 4.1403787,5.3912816 3.8265687,5.6224918 3.4420998,5.905745 3.2500139,6.337452 3.2500139,6.7751275 A 1.5022493,1.4390184 0 0 0 3.8687268,7.945397 c 0.3161849,0.2201183 0.7247015,0.3466733 1.208331,0.3881929 V 10.081458 C 4.6922919,10.042488 4.4233121,9.944666 4.2570552,9.8340347 4.0418121,9.6915581 3.9809501,9.545949 3.9809501,9.4000551 a 0.36546831,0.35008545 0 0 0 -0.7309362,0 c 0,0.379097 0.2128681,0.7584729 0.591696,1.0095889 0.3084658,0.204762 0.7196547,0.333591 1.2350511,0.374828 v 0.365443 c 0,0.193954 0.163288,0.350085 0.3654681,0.350085 0.2024772,0 0.3651714,-0.156131 0.3651714,-0.349801 V 10.78561 c 0.5195525,-0.0418 0.936679,-0.176604 1.2504887,-0.408103 0.384469,-0.283252 0.576555,-0.714959 0.576555,-1.1523519 A 1.5022493,1.4390184 0 0 0 7.0157312,8.054603 C 6.6995466,7.8344847 6.2910296,7.7079297 5.8074005,7.6664101 V 5.9185419 c 0.3847658,0.038969 0.6537456,0.1367919 0.8202994,0.2474234 0.2149463,0.1427613 0.276105,0.2880857 0.276105,0.4339796 a 0.36531973,0.34994312 0 0 0 0.7306393,0 c 0,-0.379097 -0.2128681,-0.7584734 -0.5913991,-1.0095898 C 6.7342821,5.385595 6.3230934,5.257048 5.8076972,5.2158113 V 4.8500857 C 5.8076972,4.6561327 5.644409,4.5 5.4422291,4.5 M 8.6791902,5.2032989 A 0.36517129,0.34980093 0 0 0 8.3686466,5.5991725 l 0.7309362,4.9000555 c 0.051367,0.351222 0.5525065,0.415211 0.6976822,0.08901 L 10.5573,8.8892848 11.317332,10.588237 c 0.145474,0.325913 0.646618,0.262208 0.698277,-0.08901 L 12.746247,5.5991715 A 0.36538498,0.35000563 0 1 0 12.022735,5.5007725 L 11.475868,9.1642959 10.893672,7.8617857 c -0.126471,-0.2835377 -0.546273,-0.2835377 -0.672449,0 L 9.6390272,9.1642979 9.0924573,5.5007745 A 0.36517129,0.34980093 0 0 0 8.6791902,5.2032989 M 5.076761,5.9191112 V 7.6302939 C 4.7264339,7.5910489 4.4672514,7.4969132 4.2983226,7.3794591 4.0750634,7.2238949 3.9806532,7.0438785 3.9806532,6.7751275 c 0,-0.2624929 0.081942,-0.4433643 0.2909494,-0.5975041 C 4.433703,6.0581786 4.6955575,5.9586408 5.076761,5.9191112 m 0.7306395,2.4508806 c 0.3503269,0.03897 0.6098062,0.133095 0.7787351,0.2508348 0.2232592,0.1552785 0.3176693,0.3352949 0.3176693,0.6043285 0,0.2624938 -0.081941,0.4430817 -0.2912465,0.5972215 C 6.450755,9.941822 6.1889004,10.041359 5.8074005,10.080889 Z"
     id="path1"
     style="stroke-width:0.290571;fill:url(#linearGradient6)" />
</svg>
