<?xml version="1.0" encoding="UTF-8" standalone="no"?>
<!-- Created with Inkscape (http://www.inkscape.org/) -->

<svg
   width="16"
   height="16"
   viewBox="0 0 16 16"
   version="1.1"
   id="svg1"
   xml:space="preserve"
   sodipodi:docname="org.jeffvli.feishin.svg"
   inkscape:version="1.4.4 (unknown)"
   xmlns:inkscape="http://www.inkscape.org/namespaces/inkscape"
   xmlns:sodipodi="http://sodipodi.sourceforge.net/DTD/sodipodi-0.dtd"
   xmlns:xlink="http://www.w3.org/1999/xlink"
   xmlns="http://www.w3.org/2000/svg"
   xmlns:svg="http://www.w3.org/2000/svg"><sodipodi:namedview
     id="namedview1"
     pagecolor="#ffffff"
     bordercolor="#000000"
     borderopacity="0.25"
     inkscape:showpageshadow="2"
     inkscape:pageopacity="0.0"
     inkscape:pagecheckerboard="0"
     inkscape:deskcolor="#d1d1d1"
     inkscape:zoom="16.727495"
     inkscape:cx="4.2445089"
     inkscape:cy="13.421018"
     inkscape:window-width="1920"
     inkscape:window-height="994"
     inkscape:window-x="0"
     inkscape:window-y="0"
     inkscape:window-maximized="1"
     inkscape:current-layer="svg1" /><defs
     id="defs1"><linearGradient
       id="linearGradient3"
       inkscape:collect="always"><stop
         style="stop-color:#cd87de;stop-opacity:1"
         offset="0"
         id="stop3" /><stop
         style="stop-color:#ffcc00;stop-opacity:1"
         offset="1"
         id="stop4" /></linearGradient><linearGradient
       id="linearGradient13"><stop
         style="stop-color:#001b36;stop-opacity:0.99607843;"
         offset="0.19616506"
         id="stop12" /><stop
         style="stop-color:#e100e5;stop-opacity:0.99607843;"
         offset="0.44523439"
         id="stop13" /><stop
         style="stop-color:#3299ff;stop-opacity:0.99607843;"
         offset="0.89067054"
         id="stop15" /></linearGradient><linearGradient
       id="linearGradient2-1"><stop
         style="stop-color:#001b36;stop-opacity:0.99607843;"
         offset="0.19616506"
         id="stop9" /><stop
         style="stop-color:#00d0e5;stop-opacity:0.99607843;"
         offset="0.80383497"
         id="stop10" /></linearGradient><linearGradient
       id="linearGradient2"><stop
         style="stop-color:#3299ff;stop-opacity:0.99607843;"
         offset="0"
         id="stop5" /><stop
         style="stop-color:#e100e5;stop-opacity:0.99607843;"
         offset="0.90379012"
         id="stop6" /></linearGradient><linearGradient
       id="linearGradient2-2"><stop
         style="stop-color:#00e5c2;stop-opacity:0.99607843;"
         offset="0"
         id="stop1" /><stop
         style="stop-color:#1e74c9;stop-opacity:0.99607843;"
         offset="1"
         id="stop2" /></linearGradient><linearGradient
       id="linearGradient36"><stop
         style="stop-color:#00e5c2;stop-opacity:0.99607843;"
         offset="0"
         id="stop36" /><stop
         style="stop-color:#001b36;stop-opacity:0.99607843;"
         offset="1"
         id="stop37" /></linearGradient><radialGradient
       xlink:href="#linearGradient36"
       id="radialGradient37"
       cx="206.92578"
       cy="255.93359"
       fx="206.92578"
       fy="255.93359"
       r="256"
       gradientUnits="userSpaceOnUse"
       gradientTransform="matrix(0.83478835,0.33489076,-0.8562173,2.1343085,259.68972,-359.77081)" /><linearGradient
       xlink:href="#linearGradient2"
       id="linearGradient1"
       x1="85"
       y1="352.42188"
       x2="427"
       y2="159.57812"
       gradientUnits="userSpaceOnUse" /><linearGradient
       xlink:href="#linearGradient2-1"
       id="linearGradient6"
       gradientUnits="userSpaceOnUse"
       x1="0"
       y1="0"
       x2="512"
       y2="512"
       gradientTransform="scale(0.02539063)" /><linearGradient
       xlink:href="#linearGradient2-2"
       id="linearGradient10"
       gradientUnits="userSpaceOnUse"
       x1="85"
       y1="352.42188"
       x2="427"
       y2="159.57812"
       gradientTransform="scale(0.02539063)" /><linearGradient
       xlink:href="#linearGradient13"
       id="linearGradient12"
       gradientUnits="userSpaceOnUse"
       x1="0"
       y1="0"
       x2="512"
       y2="512" /><linearGradient
       inkscape:collect="always"
       xlink:href="#linearGradient3"
       id="linearGradient4"
       x1="1.5171857"
       y1="10.673914"
       x2="11.923927"
       y2="1.0598549"
       gradientUnits="userSpaceOnUse" /></defs><g
     id="g1"
     transform="translate(1.5,1.5)"
     style="fill:url(#linearGradient4);fill-opacity:1"><path
       id="ring"
       d="M 6.5,0 A 6.5,6.5 0 0 0 0,6.5 6.5,6.5 0 0 0 6.5,13 6.5,6.5 0 0 0 13,6.5 6.5,6.5 0 0 0 6.5,0 Z m 0,0.9140625 A 5.5859375,5.5859375 0 0 1 12.085938,6.5 5.5859375,5.5859375 0 0 1 6.5,12.085938 5.5859375,5.5859375 0 0 1 0.9140625,6.5 5.5859375,5.5859375 0 0 1 6.5,0.9140625 Z"
       style="fill:url(#linearGradient4);fill-opacity:1" /><path
       id="inner"
       d="M 5.7233048,6.9805869 4.8980598,7.8124772 5.6935006,8.6100998 6.1354064,8.174839 c 0,0 0.1294107,-0.1369705 0.3645936,-0.1369705 0.2351829,0 0.3645936,0.1369705 0.3645936,0.1369705 L 7.3064994,8.6100998 8.1019402,7.8124772 7.2766952,6.9805869 C 7.0659593,7.1773934 6.7883441,7.2868588 6.5,7.2868613 6.2116559,7.2868588 5.9340407,7.1773934 5.7233048,6.9805869 Z M 6.5,4.0517882 c -0.1572977,0 -0.2996965,0.063792 -0.4027786,0.166874 L 2.3232422,7.9863433 C 2.2212796,8.088306 2.1582031,8.2291686 2.1582031,8.384758 c 0,0.3111789 0.2522745,0.5634538 0.5634538,0.5634538 0.1555894,0 0.2964523,-0.063077 0.3984144,-0.1650391 l 2.29562,-2.289074 C 5.3801681,6.3824899 5.3620798,6.2660708 5.3620833,6.1489449 5.3620833,5.5204855 5.8715406,5.0110282 6.5,5.0110282 c 0.6284594,0 1.1379167,0.5094573 1.1379167,1.1379167 3.5e-6,0.1171257 -0.018085,0.233545 -0.053608,0.3451538 l 2.29562,2.289074 c 0.1019621,0.1019627 0.2428253,0.1650391 0.3984143,0.1650391 0.311179,0 0.563454,-0.2522749 0.563454,-0.5634538 0,-0.1555894 -0.06308,-0.296452 -0.165039,-0.3984147 L 6.9027786,4.2186622 C 6.7996965,4.1155799 6.6572977,4.0517885 6.5,4.0517882 Z m 0,1.6221238 c -0.2623667,0 -0.4750327,0.2126665 -0.4750327,0.4750329 0,0.2623664 0.212666,0.4750825 0.4750327,0.4750825 0.2623667,0 0.4750327,-0.2127161 0.4750327,-0.4750825 C 6.9750327,5.8865785 6.7623667,5.673912 6.5,5.673912 Z"
       style="fill:url(#linearGradient4);fill-opacity:1" /></g></svg>
