<?xml version="1.0" encoding="UTF-8" standalone="no"?>
<svg
   viewBox="0 0 16 16"
   version="1.1"
   id="svg1"
   sodipodi:docname="org.gnome.World.PikaBackup.svg"
   inkscape:version="1.4.4 (unknown)"
   width="16"
   height="16"
   xmlns:inkscape="http://www.inkscape.org/namespaces/inkscape"
   xmlns:sodipodi="http://sodipodi.sourceforge.net/DTD/sodipodi-0.dtd"
   xmlns:xlink="http://www.w3.org/1999/xlink"
   xmlns="http://www.w3.org/2000/svg"
   xmlns:svg="http://www.w3.org/2000/svg">
  <sodipodi:namedview
     id="namedview1"
     pagecolor="#ffffff"
     bordercolor="#000000"
     borderopacity="0.25"
     inkscape:showpageshadow="2"
     inkscape:pageopacity="0.0"
     inkscape:pagecheckerboard="0"
     inkscape:deskcolor="#d1d1d1"
     inkscape:zoom="12.326157"
     inkscape:cx="6.5713912"
     inkscape:cy="7.0175968"
     inkscape:window-width="1920"
     inkscape:window-height="994"
     inkscape:window-x="0"
     inkscape:window-y="0"
     inkscape:window-maximized="1"
     inkscape:current-layer="svg1"
     showgrid="false"
     showguides="false">
    <inkscape:grid
       id="grid1"
       units="px"
       originx="0"
       originy="0"
       spacingx="1"
       spacingy="1"
       empcolor="#0099e5"
       empopacity="0.30196078"
       color="#0099e5"
       opacity="0.14902"
       empspacing="5"
       dotted="false"
       gridanglex="30"
       gridanglez="30"
       visible="false" />
  </sodipodi:namedview>
  <defs
     id="defs1">
    <linearGradient
       id="linearGradient1"
       inkscape:collect="always">
      <stop
         style="stop-color:#00ccff;stop-opacity:1;"
         offset="0"
         id="stop1" />
      <stop
         style="stop-color:#8d5fd3;stop-opacity:1"
         offset="1"
         id="stop2" />
    </linearGradient>
    <style
       type="text/css"
       id="style1">.ColorScheme-Text {
        color:#d8dee9;
      }
      .ColorScheme-Highlight {
        color:#88c0d0;
      }</style>
    <linearGradient
       inkscape:collect="always"
       xlink:href="#linearGradient1"
       id="linearGradient2"
       x1="2.9999999"
       y1="9.2753029"
       x2="15.749364"
       y2="9.2753029"
       gradientUnits="userSpaceOnUse" />
    <linearGradient
       inkscape:collect="always"
       xlink:href="#linearGradient1"
       id="linearGradient4"
       x1="6.1873488"
       y1="9.2753019"
       x2="12.56205"
       y2="9.2753019"
       gradientUnits="userSpaceOnUse" />
  </defs>
  <g
     id="g1"
     transform="translate(-1.3746822,-1.1500003)">
    <path
       d="m 12.000508,13.837989 v 0 c 0.265349,-0.151666 0.605331,-0.05976 0.758589,0.204782 v 0 c 0.15326,0.264551 0.06216,0.604009 -0.203459,0.757002 v 0 c -1.032435,0.594436 -2.2099,0.887145 -3.3982488,0.846504 -1.07759,-0.03664 -2.1291509,-0.347156 -3.055874,-0.900157 v 0 C 5.8390895,14.588874 5.7538277,14.247827 5.9110706,13.985399 v 0 c 0.1575088,-0.262417 0.4982901,-0.347684 0.7609812,-0.190443 v 0 c 0.7636366,0.458715 1.6311281,0.712907 2.5230556,0.743454 0.9835656,0.03348 1.9538436,-0.207977 2.8054006,-0.700421 z m 2.088249,-6.9117755 v 0 C 13.951166,6.6521001 14.06193,6.3184908 14.336038,6.1817008 v 0 c 0.274112,-0.1367911 0.60693,-0.025499 0.743187,0.2486126 v 0 c 0.474914,0.9479722 0.70255,2.0013919 0.666423,3.0622489 -0.02762,0.8087887 -0.207178,1.6040367 -0.532022,2.3419057 v 0 c -0.122711,0.280486 -0.450215,0.408512 -0.730703,0.285537 v 0 c -0.280486,-0.122714 -0.408508,-0.450216 -0.28553,-0.730702 v 0 c 0.270392,-0.609317 0.417542,-1.266973 0.440122,-1.9344565 0.03,-0.8754606 -0.159368,-1.7442787 -0.548758,-2.528633 z M 7.0933137,4.5301206 v 0 C 6.817873,4.6615988 6.4863881,4.5447315 6.3533164,4.2692888 v 0 C 6.2205091,3.9938483 6.3360537,3.6620979 6.6114921,3.5292919 v 0 C 7.5390115,3.083859 8.5613556,2.8692439 9.5919337,2.9043047 c 0.9915333,0.033736 1.9644713,0.297221 2.8354123,0.7734652 v 0 c 0.26907,0.1468836 0.368144,0.4844771 0.22126,0.753542 v 0 C 12.50172,4.7001128 12.164128,4.7991861 11.895059,4.6523021 v 0 C 11.176315,4.2589289 10.373898,4.0403305 9.5542187,4.0121744 8.7037238,3.9832205 7.8601375,4.1598558 7.0933137,4.5301206 Z M 4.3784856,10.946261 v 0 C 4.475965,11.235777 4.3192528,11.55 4.0289396,11.647212 v 0 c -0.290315,0.09722 -0.605066,-0.06028 -0.7022807,-0.35114 v 0 C 3.0878732,10.575196 2.9779091,9.8171412 3.003674,9.0580218 3.037938,8.0553321 3.3070034,7.0717683 3.7946693,6.1925908 v 0 C 3.9415527,5.9251191 4.2783494,5.8284353 4.5466185,5.9769131 v 0 C 4.8148877,6.1253907 4.9121016,6.462985 4.7636242,6.7304565 v 0 C 4.3617521,7.4571721 4.139965,8.2675566 4.1115446,9.0957376 4.0902985,9.7247052 4.179807,10.348895 4.3784856,10.946261 Z M 11.529063,3.9630509 Z M 5.4866213,12.930918 c -0.01036,0.305718 -0.2669402,0.54557 -0.5726604,0.535208 -0.3059862,-0.01063 -0.5455684,-0.267206 -0.5352097,-0.572925 0.01036,-0.305719 0.2672067,-0.545568 0.5729269,-0.535209 0.3057191,0.01037 0.5455683,0.267205 0.5349432,0.572926 z m 8.8738597,0.302531 c 0.01037,-0.305718 -0.229489,-0.562296 -0.535213,-0.572925 -0.305719,-0.01037 -0.562303,0.22949 -0.572929,0.535209 -0.01037,0.305722 0.22949,0.562571 0.535214,0.572926 0.30572,0.01037 0.562567,-0.229488 0.572928,-0.53521 z M 5.8858374,4.9659913 C 5.8961955,4.6602711 5.6566138,4.4034236 5.3508936,4.3930645 5.0449075,4.3827056 4.7883258,4.6225531 4.7779672,4.9282734 4.7673406,5.2339935 5.0071908,5.490576 5.3129105,5.5012011 5.6188967,5.5115599 5.8754782,5.271711 5.8858374,4.9659913 Z"
       fill-rule="evenodd"
       id="path8-4-9"
       style="isolation:isolate;fill:url(#linearGradient2);fill-opacity:1;stroke-width:0.265614"
       sodipodi:nodetypes="sssssscsssssscssssssscsssssscsssssssssssssscssssssscsssssscscccccccsscscccsscccs" />
    <path
       d="m 6.1873487,9.275302 c 0,1.757547 1.429811,3.187347 3.187351,3.187347 1.7575453,0 3.1873503,-1.4298 3.1873503,-3.187347 0,-1.7575368 -1.429805,-3.1873473 -3.1873503,-3.1873473 -1.7575396,0 -3.187351,1.4298105 -3.187351,3.1873473 z m 3.187351,-2.3648026 c 1.3039003,0 2.3648043,1.0609077 2.3648043,2.3648026 0,1.303897 -1.060904,2.364814 -2.3648043,2.364814 -1.3038964,0 -2.3648071,-1.060916 -2.3648071,-2.364814 0,-1.3038962 1.0609107,-2.364804 2.3648071,-2.3648026 z"
       id="path1-1-9-2"
       style="fill:url(#linearGradient4);stroke-width:0.205636" />
    <path
       d="m 12.877005,4.8931047 c -0.02432,0.038329 -0.06295,0.065345 -0.107248,0.075121 l -1.774428,0.2508022 c -0.171251,0.01377 -0.493993,-0.1748815 -0.304608,-0.4721731 l 0.58456,-0.9169421 0.507564,-0.7961719 c 0.07091,-0.1111597 0.182603,-0.3405315 0.343907,-0.3765824 v 0 c 0.161489,-0.035788 0.321376,0.066113 0.357096,0.2276101 l 0.415985,1.8794394 c 0.0098,0.044279 0.0014,0.090683 -0.02282,0.1289186 z"
       id="path4-3-75-3-6-2-6"
       style="color:#d6dbf1;fill:#aa87de;fill-opacity:1;stroke-width:0.0855578"
       sodipodi:nodetypes="ccccccssccc" />
  </g>
</svg>
