<?xml version="1.0" encoding="UTF-8" standalone="no"?>
<!-- Generator: Gravit.io -->

<svg
   style="isolation:isolate"
   viewBox="0 0 16 16"
   width="16"
   height="16"
   version="1.1"
   id="svg2"
   sodipodi:docname="sh.ppy.osu.svg"
   xml:space="preserve"
   inkscape:version="1.4.4 (unknown)"
   xmlns:inkscape="http://www.inkscape.org/namespaces/inkscape"
   xmlns:sodipodi="http://sodipodi.sourceforge.net/DTD/sodipodi-0.dtd"
   xmlns:xlink="http://www.w3.org/1999/xlink"
   xmlns="http://www.w3.org/2000/svg"
   xmlns:svg="http://www.w3.org/2000/svg"><defs
     id="defs2"><linearGradient
       id="linearGradient1"
       inkscape:collect="always"><stop
         style="stop-color:#ff80e5;stop-opacity:1"
         offset="0"
         id="stop3" /><stop
         style="stop-color:#8080ff;stop-opacity:1"
         offset="1"
         id="stop4" /></linearGradient><linearGradient
       id="swatch11"
       inkscape:swatch="solid"><stop
         style="stop-color:#000000;stop-opacity:1;"
         offset="0"
         id="stop11" /></linearGradient><linearGradient
       id="linearGradient7"
       x1="0"
       y1="0.5"
       x2="1"
       y2="0.5"
       gradientTransform="matrix(48,0,0,-46.985,0.495,47.544)"
       gradientUnits="userSpaceOnUse"><stop
         offset="0%"
         stop-opacity="1"
         style="stop-color:rgb(255,117,140)"
         id="stop1-8" /><stop
         offset="98.26086956521739%"
         stop-opacity="1"
         style="stop-color:rgb(255,126,179)"
         id="stop2-7" /></linearGradient><linearGradient
       inkscape:collect="always"
       xlink:href="#linearGradient1"
       id="linearGradient4"
       x1="2.4202118"
       y1="12.331029"
       x2="13.535593"
       y2="2.077981"
       gradientUnits="userSpaceOnUse" /></defs><sodipodi:namedview
     id="namedview2"
     pagecolor="#ffffff"
     bordercolor="#000000"
     borderopacity="0.25"
     inkscape:showpageshadow="2"
     inkscape:pageopacity="0.0"
     inkscape:pagecheckerboard="0"
     inkscape:deskcolor="#d1d1d1"
     inkscape:document-units="px"
     inkscape:zoom="22.627418"
     inkscape:cx="7.5130092"
     inkscape:cy="7.4909121"
     inkscape:window-width="1920"
     inkscape:window-height="994"
     inkscape:window-x="0"
     inkscape:window-y="0"
     inkscape:window-maximized="1"
     inkscape:current-layer="svg2"><inkscape:page
       x="0"
       y="0"
       width="16"
       height="16"
       id="page4"
       margin="0"
       bleed="0" /></sodipodi:namedview><linearGradient
     id="_lgradient_21"
     x1="0"
     y1="0.5"
     x2="1"
     y2="0.5"
     gradientTransform="matrix(48,0,0,-46.985,0.495,47.544)"
     gradientUnits="userSpaceOnUse"><stop
       offset="0%"
       stop-opacity="1"
       style="stop-color:rgb(255,117,140)"
       id="stop1" /><stop
       offset="98.26086956521739%"
       stop-opacity="1"
       style="stop-color:rgb(255,126,179)"
       id="stop2" /></linearGradient><linearGradient
     id="_lgradient_46"
     x1="-0.0081521738"
     y1="0.059782609"
     x2="0.95147175"
     y2="0.97239321"
     gradientTransform="matrix(-8.635672,46.199839,-46.256852,-8.6463288,109.44624,5.2232642)"
     gradientUnits="userSpaceOnUse"><stop
       offset="0"
       stop-opacity="1"
       style="stop-color:#ff758c;stop-opacity:1;"
       id="stop1-0" /><stop
       offset="0.98260868"
       stop-opacity="1"
       style="stop-color:#ff7eb3;stop-opacity:1;"
       id="stop2-9" /></linearGradient><path
     d="m 7.5465161,2.6819415 v 0 C 7.8777087,2.6545496 8.124789,2.3679033 8.0973971,2.0422443 v 0 C 8.0702819,1.7165854 7.7781019,1.4744854 7.4449724,1.502154 v 0 C 5.7771116,1.6382833 4.2204783,2.3889314 3.0904942,3.6033046 1.9638304,4.8176779 1.344608,6.4064067 1.3598257,8.0485358 c 0.015771,1.7251348 0.7312801,3.3761182 1.986326,4.5871712 1.2575362,1.208009 2.9541723,1.879525 4.7138929,1.864031 1.7597205,-0.01577 3.4436294,-0.717169 4.6787534,-1.947314 1.232358,-1.233188 1.917155,-2.8963448 1.901384,-4.6214796 v 0 C 14.637138,7.6041787 14.364326,7.3416041 14.03092,7.3443709 v 0 c -0.333129,0.00304 -0.601238,0.2705986 -0.598194,0.5973643 v 0 c 0.013,1.4113733 -0.547837,2.7715598 -1.555803,3.7809088 -1.01101,1.006029 -2.3880739,1.580705 -3.8279459,1.593433 C 6.6093819,13.328804 5.2218035,12.778753 4.192533,11.790709 3.1660294,10.799621 2.5800093,9.4493951 2.5670051,8.0380218 2.5545542,6.6944364 3.0589521,5.394014 3.9825287,4.4001593 4.9058286,3.4065811 6.1802425,2.7945526 7.5465161,2.6819415 Z m 5.0174169,2.7884378 v 0 c 0.154391,0.287753 0.513529,0.3959371 0.801282,0.2412698 v 0 c 0.287476,-0.1543906 0.39566,-0.5135285 0.24127,-0.8010048 v 0 C 12.947419,3.6854802 11.911509,2.7004795 10.654249,2.1053287 v 0 C 10.359025,1.964219 10.005421,2.0892809 9.8654182,2.3845044 v 0 C 9.7251386,2.6800047 9.8510305,3.0341623 10.146254,3.175272 v 0 c 1.031207,0.4877967 1.875929,1.2910152 2.417679,2.2951073 z M 4.4578914,9.3552664 C 4.0012716,9.237429 3.7228808,8.9155858 3.629716,8.3978384 3.5122469,7.7442096 3.7681745,7.1557599 4.26972,6.9256086 4.4763032,6.8309708 4.9439699,6.8051942 5.1862727,6.8747917 5.5070116,6.9668517 5.757784,7.2102595 5.8936651,7.5604569 5.9709957,7.7596755 6.0004552,8.2332342 5.9500058,8.4725911 5.8712021,8.8485662 5.5983353,9.1888209 5.2816476,9.305922 5.0809559,9.3806749 4.6541639,9.4060835 4.4578914,9.3552664 Z M 5.009517,8.8463568 C 5.2304621,8.7333061 5.308161,8.5083104 5.29159,8.0277556 5.2823847,7.7670406 5.2698646,7.6981793 5.2102087,7.5832878 5.1203579,7.4109514 4.9988381,7.3424585 4.781944,7.3424585 c -0.2901746,0 -0.4326841,0.1609212 -0.4879205,0.5505202 -0.036456,0.2577695 0.00183,0.6024434 0.084327,0.7611558 0.082118,0.1576073 0.2110024,0.2334645 0.397333,0.2334645 0.084695,0 0.1896442,-0.018413 0.2338335,-0.041242 z m 1.8478363,0.5298989 c -0.039034,-0.007 -0.1576076,-0.033878 -0.2636612,-0.060023 -0.192222,-0.047135 -0.1925903,-0.047135 -0.175651,-0.1325665 0.033142,-0.1657086 0.099425,-0.3778161 0.1222563,-0.3918092 0.012888,-0.00773 0.085432,0.00442 0.1612897,0.02688 0.20106,0.060023 0.4916025,0.079909 0.6274834,0.043453 0.1844893,-0.049344 0.2662388,-0.1281483 0.2662388,-0.2559281 0,-0.1443504 -0.078804,-0.2032695 -0.4105896,-0.3056404 C 6.6673406,8.1408041 6.5148885,8.0093419 6.4718044,7.6860259 6.4471323,7.5011684 6.4979484,7.2934807 6.6028983,7.1524443 6.7192626,6.9959413 6.9796094,6.8648471 7.2208078,6.8409121 c 0.2272051,-0.022464 0.6230645,0.00883 0.8005569,0.062601 0.1244657,0.037929 0.1277798,0.041612 0.1207835,0.1469286 -0.00368,0.059287 -0.026512,0.166445 -0.050449,0.2378841 L 8.0482464,7.4183143 7.8574974,7.3645513 C 7.7275077,7.3280952 7.6019376,7.3137341 7.4634786,7.3199944 c -0.2489313,0.011048 -0.3218432,0.061496 -0.3218432,0.222417 0,0.1285163 0.037929,0.1524521 0.4658259,0.2949615 0.3288395,0.1093678 0.438944,0.1767559 0.5387376,0.3288395 0.1366174,0.2084248 0.1351443,0.5523624 -0.00329,0.7744123 C 7.9690994,9.2190153 7.6597765,9.3648391 7.2127308,9.3795685 7.0562283,9.3850911 6.8964117,9.3832512 6.857378,9.3762289 Z M 9.5388882,9.3644689 C 9.1908999,9.3099702 8.9548572,9.1420516 8.8197126,8.8526135 L 8.7375948,8.6765947 8.7287602,7.7707202 8.7199256,6.8648465 h 0.6536289 l 0.00883,0.8215466 c 0.0081,0.7556312 0.013259,0.8307519 0.065547,0.9331239 0.0858,0.1686548 0.2080563,0.225364 0.4875516,0.225364 0.1274119,0 0.2378839,-0.00626 0.2448799,-0.013995 0.02136,-0.022829 0.0475,-0.7873008 0.04787,-1.3974759 l 3.64e-4,-0.5689335 h 0.668727 v 2.3828907 l -0.278391,0.061128 c -0.296434,0.069966 -0.8200733,0.096479 -1.0800518,0.055973 z M 11.633814,6.0683395 h 0.736483 v 2.2094489 h -0.736483 z m 0,3.3141735 V 8.6460298 h 0.736483 V 9.382513 Z"
     fill-rule="evenodd"
     id="path2"
     sodipodi:nodetypes="sssssscccccsssssscscccsssssssssssssscccccccccccsccscccccccsccccccccccsccccccccccccccscccccccccccccccccc"
     style="fill:url(#linearGradient4)" /></svg>
