<?xml version="1.0" encoding="UTF-8" standalone="no"?>
<svg
   version="1.1"
   viewBox="0 0 16 16"
   id="svg2"
   sodipodi:docname="krusader.svg"
   inkscape:version="1.4.2 (unknown)"
   xmlns:inkscape="http://www.inkscape.org/namespaces/inkscape"
   xmlns:sodipodi="http://sodipodi.sourceforge.net/DTD/sodipodi-0.dtd"
   xmlns:xlink="http://www.w3.org/1999/xlink"
   xmlns="http://www.w3.org/2000/svg"
   xmlns:svg="http://www.w3.org/2000/svg">
  <defs
     id="defs2">
    <linearGradient
       id="linearGradient7"
       inkscape:collect="always">
      <stop
         style="stop-color:#aa87de;stop-opacity:1"
         offset="0"
         id="stop6" />
      <stop
         style="stop-color:#ffaaee;stop-opacity:1"
         offset="1"
         id="stop7" />
    </linearGradient>
    <linearGradient
       inkscape:collect="always"
       xlink:href="#linearGradient7"
       id="linearGradient2"
       x1="1"
       y1="15"
       x2="15.208333"
       y2="1.2291666"
       gradientUnits="userSpaceOnUse"
       gradientTransform="translate(-0.50000072,-0.50000052)" />
    <linearGradient
       inkscape:collect="always"
       xlink:href="#linearGradient7"
       id="linearGradient3"
       x1="3"
       y1="8.5"
       x2="8.4345703"
       y2="8.5"
       gradientUnits="userSpaceOnUse"
       gradientTransform="translate(-0.50000072,-0.50000052)" />
    <linearGradient
       inkscape:collect="always"
       xlink:href="#linearGradient7"
       id="linearGradient4"
       x1="9"
       y1="5.5"
       x2="13"
       y2="5.5"
       gradientUnits="userSpaceOnUse"
       gradientTransform="translate(-0.50000072,-0.50000052)" />
    <linearGradient
       inkscape:collect="always"
       xlink:href="#linearGradient7"
       id="linearGradient5"
       x1="9"
       y1="8.5"
       x2="13"
       y2="8.5"
       gradientUnits="userSpaceOnUse"
       gradientTransform="translate(-0.50000072,-0.50000052)" />
    <linearGradient
       inkscape:collect="always"
       xlink:href="#linearGradient7"
       id="linearGradient6"
       x1="3"
       y1="8.5"
       x2="7"
       y2="8.5"
       gradientUnits="userSpaceOnUse"
       gradientTransform="translate(-0.50000072,-0.50000052)" />
  </defs>
  <sodipodi:namedview
     id="namedview2"
     pagecolor="#ffffff"
     bordercolor="#000000"
     borderopacity="0.25"
     inkscape:showpageshadow="2"
     inkscape:pageopacity="0.0"
     inkscape:pagecheckerboard="0"
     inkscape:deskcolor="#d1d1d1"
     inkscape:window-width="1366"
     inkscape:window-height="706"
     inkscape:window-x="0"
     inkscape:window-y="34"
     inkscape:window-maximized="1"
     inkscape:current-layer="svg2"
     showgrid="false"
     inkscape:zoom="24"
     inkscape:cx="6.8958333"
     inkscape:cy="11.791667">
    <inkscape:grid
       id="grid1"
       units="px"
       originx="0"
       originy="0"
       spacingx="1"
       spacingy="1"
       empcolor="#0099e5"
       empopacity="0.30196078"
       color="#0099e5"
       opacity="0.14901961"
       empspacing="5"
       enabled="true"
       visible="false" />
  </sodipodi:namedview>
  <g
     id="g1"
     transform="translate(0.50000072,0.50000052)">
    <path
       d="m 4.9939996,0.99999996 c -1.2580001,0.013 -2.1789993,-0.026 -2.9309995,0.33366634 -0.1900004,0.090134 -0.3580004,0.2132 -0.5000006,0.3605336 l -0.062998,0.076266 C 1.3899995,1.8987339 1.293,2.0400002 1.2249991,2.1986002 1.06,2.5773338 0.99999956,3.0306002 0.99999956,3.6000002 V 11.4 c 0,0.570263 0.0599995,1.0218 0.22499954,1.4014 0.1640005,0.380463 0.4610007,0.683799 0.8380006,0.863199 0.7520002,0.359664 1.6729994,0.3224 2.9309995,0.3354 H 10.006 c 1.257997,-0.01216 2.179001,0.026 2.931997,-0.333663 0.389382,-0.192512 0.686595,-0.499257 0.838002,-0.864936 0.164002,-0.3796 0.224,-0.832 0.224,-1.4014 0,-3.4253972 0,-6.0253971 0,-7.8000001 0,-0.5702664 -0.06001,-1.0218 -0.224997,-1.4014 -0.06781,-0.15301 -0.160398,-0.2968763 -0.275005,-0.4272663 l -0.06198,-0.078 c -0.139802,-0.145236 -0.30931,-0.2668733 -0.50002,-0.3588 C 12.185001,0.97573332 11.263997,1.013 10.006,0.99999996 H 4.9979995 Z M 1.9285709,2.8571429 H 13.07143 V 11.21429 c 0,0.513064 -0.134424,1.057573 -0.231431,1.28291 -0.09801,0.225336 -0.201999,0.321536 -0.384995,0.409063 -0.366004,0.175073 -1.196,0.214073 -2.4550062,0.227073 H 5.0000002 c -1.2590001,-0.013 -2.0900003,-0.052 -2.4550001,-0.227073 -0.1839998,-0.08666 -0.287,-0.1846 -0.3850004,-0.409063 -0.097999,-0.225337 -0.2314288,-0.769846 -0.2314288,-1.28291 z"
       font-family="sans-serif"
       font-weight="400"
       overflow="visible"
       solid-color="#000000"
       style="font-variant-ligatures:normal;font-variant-position:normal;font-variant-caps:normal;font-variant-numeric:normal;font-variant-alternates:normal;font-feature-settings:normal;text-indent:0;text-decoration-line:none;text-decoration-style:solid;text-decoration-color:#000000;text-transform:none;text-orientation:mixed;white-space:normal;shape-padding:0;isolation:auto;mix-blend-mode:normal;fill:url(#linearGradient2);stroke-width:1.00256"
       id="path1"
       sodipodi:nodetypes="cccccssccccccsscccccccccsccccccsc" />
    <path
       id="path2"
       style="fill:url(#linearGradient3);stroke-width:0.86667"
       d="M 7.0982838,3.7857138 V 12.14286 H 7.9035293 V 3.7857138 Z m -4.2411409,0 V 4.7142859 H 6.571428 V 3.7857138 Z m 0,1.857143 V 6.571428 H 6.571428 V 5.6428568 Z"
       sodipodi:nodetypes="ccccccccccccccc" />
    <path
       id="path3"
       style="fill:url(#linearGradient4);stroke-width:0.86667"
       d="M 8.4285708,3.7857138 V 4.7142859 H 12.14286 V 3.7857138 Z m 0,1.857143 V 6.571428 H 12.14286 V 5.6428568 Z"
       sodipodi:nodetypes="cccccccccc" />
    <path
       d="M 8.4285708,7.4999997 V 8.4285708 H 12.14286 V 7.4999997 Z"
       style="fill:url(#linearGradient5);stroke-width:0.86667"
       id="path1-3" />
    <path
       d="M 2.8571429,7.4999997 V 8.4285708 H 6.571428 V 7.4999997 Z"
       style="fill:url(#linearGradient6);stroke-width:0.86667"
       id="path4" />
  </g>
</svg>
