<?xml version="1.0" encoding="UTF-8" standalone="no"?>
<!-- Generator: Gravit.io -->

<svg
   style="isolation:isolate"
   viewBox="0 0 16 16"
   width="16"
   height="16"
   version="1.1"
   id="svg7"
   sodipodi:docname="com.github.jeromerobert.pdfarranger.svg"
   inkscape:version="1.4.4 (unknown)"
   xmlns:inkscape="http://www.inkscape.org/namespaces/inkscape"
   xmlns:sodipodi="http://sodipodi.sourceforge.net/DTD/sodipodi-0.dtd"
   xmlns="http://www.w3.org/2000/svg"
   xmlns:svg="http://www.w3.org/2000/svg">
  <defs
     id="defs7" />
  <sodipodi:namedview
     id="namedview7"
     pagecolor="#ffffff"
     bordercolor="#000000"
     borderopacity="0.25"
     inkscape:showpageshadow="2"
     inkscape:pageopacity="0.0"
     inkscape:pagecheckerboard="0"
     inkscape:deskcolor="#d1d1d1"
     inkscape:document-units="px"
     inkscape:zoom="23.65625"
     inkscape:cx="6.5521797"
     inkscape:cy="8.3064729"
     inkscape:window-width="1920"
     inkscape:window-height="994"
     inkscape:window-x="0"
     inkscape:window-y="0"
     inkscape:window-maximized="1"
     inkscape:current-layer="svg7" />
  <g
     id="g7"
     transform="scale(0.33333333)">
    <linearGradient
       id="_lgradient_5"
       x1="0"
       y1="0.5"
       x2="1"
       y2="0.5"
       gradientTransform="matrix(27.495,0,0,39,0,4.5)"
       gradientUnits="userSpaceOnUse">
      <stop
         offset="0%"
         stop-opacity="1"
         style="stop-color:rgb(84,51,255)"
         id="stop1" />
      <stop
         offset="51.73913043478261%"
         stop-opacity="1"
         style="stop-color:rgb(32,189,255)"
         id="stop2" />
      <stop
         offset="98.26086956521739%"
         stop-opacity="1"
         style="stop-color:rgb(165,254,203)"
         id="stop3" />
    </linearGradient>
    <path
       d="M 27.495,8 27.321,7.34 c 0,0 0,0 0,0 C 27.105,6.52 26.635,5.8 25.979,5.29 25.322,4.78 24.519,4.5 23.696,4.5 23.363,4.5 23.04,4.54 22.717,4.63 L 2.792,10.06 C 1.989,10.28 1.283,10.76 0.784,11.43 0.274,12.1 0,12.92 0,13.76 c 0,0.34 0.039,0.67 0.127,1 l 6.828,25.9 c 0,0 0,0 0,0 0.216,0.82 0.686,1.54 1.342,2.05 0.656,0.51 1.46,0.79 2.283,0.79 0.333,0 0.656,-0.04 0.979,-0.13 L 23.405,40.142 23.037,37.135 10.795,40.47 c 0,0 0,0 0,0 -0.068,0.02 -0.137,0.03 -0.215,0.03 -0.363,0 -0.696,-0.25 -0.794,-0.62 L 2.968,13.98 c 0,0 0,0 0,0 -0.019,-0.07 -0.029,-0.14 -0.029,-0.22 0,-0.37 0.254,-0.7 0.607,-0.8 0,0 0,0 0,0 L 23.481,7.53 c 0,0 0,0 0,0 C 23.549,7.51 23.618,7.5 23.696,7.5 24.017,7.5 25.873,6.696 26,7 Z"
       id="path3"
       style="fill:#2a7fff" />
    <linearGradient
       id="_lgradient_6"
       x1="0.39060599"
       y1="0.6402967"
       x2="0.97126168"
       y2="0.034928747"
       gradientTransform="matrix(29,0,0,35.5,9.5,5.5)"
       gradientUnits="userSpaceOnUse">
      <stop
         offset="0%"
         stop-opacity="1"
         style="stop-color:rgb(211,0,220)"
         id="stop4" />
      <stop
         offset="100%"
         stop-opacity="1"
         style="stop-color:rgb(135,0,255)"
         id="stop5" />
    </linearGradient>
    <path
       d="M 26,37.5 H 13.37 c -0.23,0 -0.45,-0.09 -0.62,-0.25 -0.16,-0.17 -0.25,-0.39 -0.25,-0.62 0,0 0,0 0,0 V 9.37 c 0,0 0,0 0,0 0,-0.23 0.09,-0.45 0.25,-0.62 C 12.92,8.59 13.14,8.5 13.37,8.5 H 22.5 V 7 h 6.926 v 1.5 h 5.214 c 0.23,0 0.45,0.09 0.61,0.25 0.16,0.17 0.25,0.39 0.25,0.62 0,0 0,0 0,0 v 0.637 l 3,0.046 V 9.37 C 38.5,8.35 38.09,7.36 37.37,6.64 36.65,5.91 35.66,5.5 34.64,5.5 c 0,0 0,0 0,0 H 13.36 c 0,0 0,0 0,0 -1.02,0 -2.01,0.41 -2.73,1.14 C 9.91,7.36 9.5,8.35 9.5,9.37 v 27.26 c 0,1.02 0.41,2.01 1.13,2.73 0.72,0.73 1.71,1.14 2.73,1.14 0,0 0,0 0,0 H 26.017 L 26.02,41 Z"
       id="path5"
       style="fill:#bc5fd3" />
    <linearGradient
       id="_lgradient_7"
       x1="0.031182563"
       y1="0.10866628"
       x2="0.95837951"
       y2="0.97519469"
       gradientTransform="matrix(34.286,0,0,39,13.714,4.5)"
       gradientUnits="userSpaceOnUse">
      <stop
         offset="0%"
         stop-opacity="1"
         style="stop-color:rgb(165,248,106)"
         id="stop6" />
      <stop
         offset="97.91666666666666%"
         stop-opacity="1"
         style="stop-color:rgb(47,206,146)"
         id="stop7" />
    </linearGradient>
    <path
       d="m 24.519,7.53 19.935,5.43 c 0,0 0,0 0,0 0.353,0.1 0.607,0.43 0.607,0.8 0,0.08 -0.01,0.15 -0.029,0.22 0,0 0,0 0,0 l -6.828,25.9 c -0.088,0.37 -0.421,0.62 -0.793,0.62 -0.069,0 -0.138,-0.01 -0.216,-0.03 0,0 0,0 0,0 L 17.26,35.04 c 0,0 0,0 0,0 -0.352,-0.1 -0.607,-0.43 -0.607,-0.8 0,-0.07 0.01,-0.15 0.029,-0.22 0,0 0,0 0,0 L 23.51,8.12 c 0.088,-0.37 0.421,-0.62 0.794,-0.62 0.068,0 0.137,0.01 0.215,0.03 z m 0.754,-2.9 19.935,5.43 c 0.803,0.22 1.509,0.7 2.008,1.37 0.51,0.67 0.784,1.49 0.784,2.33 0,0.34 -0.039,0.67 -0.127,1 l -6.828,25.9 c 0,0 0,0 0,0 -0.216,0.82 -0.686,1.54 -1.342,2.05 -0.656,0.51 -1.46,0.79 -2.292,0.79 -0.324,0 -0.657,-0.04 -0.97,-0.13 L 16.506,37.94 c -0.803,-0.22 -1.508,-0.7 -2.008,-1.37 -0.509,-0.67 -0.784,-1.49 -0.784,-2.33 0,-0.34 0.039,-0.67 0.128,-1 l 6.827,-25.9 c 0,0 0,0 0,0 0.216,-0.82 0.686,-1.54 1.342,-2.05 0.657,-0.51 1.46,-0.79 2.293,-0.79 0.323,0 0.656,0.04 0.969,0.13 z m -1.475,3.995 -0.383,1.453 11.518,3.139 0.382,-1.453 z m -0.766,2.906 -1.722,6.537 10.365,2.827 1.149,-4.36 10.367,2.826 0.572,-2.179 z m -2.105,7.992 -2.105,7.991 5.758,1.57 0.383,-1.455 4.607,1.258 1.722,-6.539 z m 12.497,2.098 1.382,0.377 c 0.677,0.185 1.203,0.7 1.407,1.381 l 0.804,2.871 c 0.102,0.34 0.464,0.724 0.802,0.816 l 0.407,0.112 0.196,-0.744 c 0.025,-0.096 0.102,-0.168 0.199,-0.186 0.095,-0.017 0.193,0.024 0.25,0.106 l 1.135,1.636 c 0.043,0.062 0.058,0.14 0.039,0.213 -0.02,0.074 -0.07,0.135 -0.138,0.166 l -1.788,0.842 c -0.055,0.025 -0.116,0.031 -0.172,0.016 -0.035,-0.01 -0.067,-0.029 -0.096,-0.053 -0.075,-0.065 -0.107,-0.165 -0.082,-0.262 l 0.195,-0.744 -0.408,-0.111 C 36.651,27.81 36.384,27.398 36.179,26.717 L 35.248,23.68 c -0.102,-0.34 -0.364,-0.599 -0.702,-0.692 l -1.382,-0.377 z m 6.278,0.66 c 0.083,-0.003 0.164,0.038 0.214,0.11 l 1.135,1.634 c 0.043,0.064 0.056,0.141 0.037,0.215 -0.02,0.073 -0.068,0.135 -0.136,0.166 l -1.788,0.842 c -0.055,0.026 -0.116,0.029 -0.172,0.014 -0.035,-0.009 -0.069,-0.027 -0.098,-0.051 -0.075,-0.064 -0.105,-0.166 -0.08,-0.262 l 0.195,-0.744 -0.408,-0.111 c -0.337,-0.092 -0.637,-0.052 -0.893,0.191 l -0.542,0.51 -0.327,-1.092 0.126,-0.119 c 0.512,-0.486 1.213,-0.703 1.883,-0.498 l 0.423,0.129 0.196,-0.744 c 0.025,-0.097 0.102,-0.17 0.199,-0.186 0.012,-0.002 0.024,-0.003 0.036,-0.004 z m -4.505,2.979 0.327,1.092 -0.124,0.119 c -0.512,0.485 -1.279,0.622 -1.958,0.447 l -1.325,-0.344 0.262,-0.99 1.298,0.377 c 0.337,0.098 0.777,0.002 1.034,-0.24 z m -16.758,3.707 -0.957,3.631 18.429,5.023 0.382,-1.453 2.303,0.627 0.574,-2.18 z m 15.062,-10.733 -2.882,10.938 9.316,2.539 2.883,-10.94 z"
       fill-rule="evenodd"
       id="path7"
       style="fill:#00b2b2;fill-opacity:1" />
  </g>
</svg>
