<?xml version="1.0" encoding="UTF-8" standalone="no"?>
<svg
   width="16"
   height="16"
   version="1.1"
   id="svg9"
   sodipodi:docname="pdfmixtool.svg"
   inkscape:version="1.4.4 (unknown)"
   xmlns:inkscape="http://www.inkscape.org/namespaces/inkscape"
   xmlns:sodipodi="http://sodipodi.sourceforge.net/DTD/sodipodi-0.dtd"
   xmlns="http://www.w3.org/2000/svg"
   xmlns:svg="http://www.w3.org/2000/svg">
  <defs
     id="defs9" />
  <sodipodi:namedview
     id="namedview9"
     pagecolor="#ffffff"
     bordercolor="#000000"
     borderopacity="0.25"
     inkscape:showpageshadow="2"
     inkscape:pageopacity="0.0"
     inkscape:pagecheckerboard="0"
     inkscape:deskcolor="#d1d1d1"
     inkscape:zoom="23.65625"
     inkscape:cx="13.484808"
     inkscape:cy="11.011889"
     inkscape:window-width="1920"
     inkscape:window-height="994"
     inkscape:window-x="0"
     inkscape:window-y="0"
     inkscape:window-maximized="1"
     inkscape:current-layer="svg9" />
  <g
     id="g9"
     transform="translate(-7.017544,-2.5)">
    <path
       style="opacity:0.2;stroke-width:0.22807"
       d="M 10.627193,4.2280702 C 10.279728,4.2280702 10,4.5128842 10,4.8666667 V 16.361404 C 10,16.715186 10.279728,17 10.627193,17 h 8.780702 c 0.347465,0 0.627193,-0.284814 0.627193,-0.638596 V 7.877193 L 16.899123,7.4210526 16.385965,4.2280702 Z"
       id="path1" />
    <path
       style="fill:#f14223;stroke-width:0.22807"
       d="M 10.627193,4 C 10.279728,4 10,4.284814 10,4.6385965 V 16.133333 c 0,0.353783 0.279728,0.638597 0.627193,0.638597 h 8.780702 c 0.347465,0 0.627193,-0.284814 0.627193,-0.638597 V 7.6491228 L 16.899123,7.1929825 16.385965,4 Z"
       id="path2" />
    <path
       style="fill:#000000;stroke-width:0.213481"
       d="m 11.212544,5.312 v 10.247 h 7.68525 V 7.8437297 L 16.828686,7.4216764 16.414752,5.312 Z"
       id="path3" />
    <path
       style="opacity:0.1;stroke-width:0.22807"
       d="m 16.385965,7.0406386 v 0.2280702 c 0,0.3369356 0.271549,0.6084842 0.608484,0.6084842 h 3.040639 V 7.6491228 h -3.040639 c -0.336935,0 -0.608484,-0.2715486 -0.608484,-0.6084842 z"
       id="path4" />
    <path
       style="fill:#f46b53;stroke-width:0.22807"
       d="M 20.035088,7.6491228 16.385965,4 v 3.0409356 c 0,0.3369358 0.271252,0.6081872 0.608187,0.6081872 z"
       id="path5" />
    <g
       style="fill:#3f3f3f"
       transform="matrix(-0.22986664,0.24135932,0.22986664,0.24135932,-47.931202,-58.971434)"
       id="g7">
      <path
         style="fill:#8d5fd3"
         d="m 7.9375,274.5104 v 21.16667 h 2.645833 V 274.5104 Z"
         id="path6" />
      <path
         style="fill:#7137c8"
         d="m 2.6458333,278.47915 v -1.32292 c 2.0146377,-0.30282 3.1092047,-0.75641 4.340037,-2.70234 l 4.9203797,0.0566 h 2.645833 v 3.96875 z"
         id="path7" />
    </g>
    <path
       style="fill:#aa87de;stroke-width:0.22807"
       d="m 14.423995,13.339231 0.21343,0.92393 -0.68421,0.684206 h -0.760232 l 0.760234,-0.760238 -0.228072,-0.684202 -0.684209,-0.228073 -0.760232,0.760228 -2e-6,-0.760228 0.68421,-0.684207 0.760235,0.152048 0.245542,0.05457 2.150482,-2.068502 -0.267368,-1.0270045 0.684209,-0.6842119 h 0.760232 l -0.760232,0.7602382 0.22807,0.6842012 0.68421,0.228074 0.760232,-0.7602277 2e-6,0.7602277 -0.68421,0.684216 -0.951838,-0.185521 z"
       id="path8" />
    <path
       style="opacity:0.2;fill:#ffffff;stroke-width:0.22807"
       d="M 10.627193,4 C 10.279728,4 10,4.2849922 10,4.6387747 v 0.2280701 c 0,-0.3537824 0.279728,-0.6387746 0.627193,-0.6387746 h 5.758772 V 4 Z"
       id="path9" />
    <rect
       style="opacity:0.2;stroke-width:0.22807"
       width="8.2105265"
       height="0.22807017"
       x="10.912281"
       y="15.859649"
       id="rect9" />
  </g>
</svg>
