<?xml version="1.0" encoding="UTF-8" standalone="no"?>
<svg
   width="16"
   height="16"
   version="1"
   id="svg1"
   sodipodi:docname="pgadmin.svg"
   inkscape:version="1.4.4 (unknown)"
   xmlns:inkscape="http://www.inkscape.org/namespaces/inkscape"
   xmlns:sodipodi="http://sodipodi.sourceforge.net/DTD/sodipodi-0.dtd"
   xmlns:xlink="http://www.w3.org/1999/xlink"
   xmlns="http://www.w3.org/2000/svg"
   xmlns:svg="http://www.w3.org/2000/svg">
  <defs
     id="defs1">
    <linearGradient
       id="linearGradient1"
       inkscape:collect="always">
      <stop
         style="stop-color:#5599ff;stop-opacity:1"
         offset="0"
         id="stop1" />
      <stop
         style="stop-color:#8d5fd3;stop-opacity:1"
         offset="1"
         id="stop2" />
    </linearGradient>
    <linearGradient
       inkscape:collect="always"
       xlink:href="#linearGradient1"
       id="linearGradient2"
       x1="3.0000344"
       y1="7.9999639"
       x2="12.999914"
       y2="7.9999639"
       gradientUnits="userSpaceOnUse"
       gradientTransform="matrix(1.3000152,0,0,1.3000152,-2.4000897,-2.4000782)" />
  </defs>
  <sodipodi:namedview
     id="namedview1"
     pagecolor="#ffffff"
     bordercolor="#000000"
     borderopacity="0.25"
     inkscape:showpageshadow="2"
     inkscape:pageopacity="0.0"
     inkscape:pagecheckerboard="0"
     inkscape:deskcolor="#d1d1d1"
     inkscape:zoom="16.727495"
     inkscape:cx="5.8586178"
     inkscape:cy="8.2797813"
     inkscape:window-width="1920"
     inkscape:window-height="994"
     inkscape:window-x="0"
     inkscape:window-y="0"
     inkscape:window-maximized="1"
     inkscape:current-layer="svg1" />
  <path
     d="m 3.9520445,1.5000974 c -1.0037416,-0.01222 -2.1992358,1.1067031 -2.4156882,4.2857603 -0.2305968,3.391347 0.6731608,3.725841 1.6534891,3.725841 0.8165788,0 1.4722673,-0.435943 2.1913056,-1.3321233 0.1088766,-0.1352019 0.230753,-0.2062731 0.2778781,-0.1560019 0.047936,0.05114 0.083687,0.090138 0.079627,0.086672 -0.00405,-0.00356 -0.056878,0.1300021 -0.1080617,0.3016049 -0.1413767,0.4706203 -0.356698,1.3858173 -0.1397517,2.0289296 0.056877,0.169 0.1755021,0.144733 0.2242525,-0.02686 0.1145627,-0.409075 0.3363789,-1.1128243 0.5768821,-1.4673233 0.098312,-0.144747 0.2120584,-0.0624 0.2063773,0.117001 -0.030878,1.0911653 0.2990034,3.0793433 1.8045534,4.3429603 1.5747092,1.322504 3.869232,1.287898 5.113091,0.722818 0.151943,-0.06932 0.390004,-0.065 0.552506,-0.03381 0.09995,0.01996 0.226693,0.0312 0.385127,0.02252 0.460698,-0.02859 -0.308754,-0.445476 -0.359952,-0.669094 -0.05121,-0.223601 0.359952,-0.266942 0.442812,-0.978495 0.0837,-0.71242 -0.441193,-0.02688 -0.441193,-0.02688 0,0 -0.38595,0.482745 -1.923249,0.377003 -1.417013,-0.09532 -3.1054738,-0.874482 -3.0485318,-3.6132493 0.0043,-0.180273 0.05607,-0.340618 0.106439,-0.362275 0.04957,-0.02163 0.189312,0.05897 0.275435,0.211474 0.214501,0.376144 0.405448,0.9871633 0.509449,1.3572123 0.04875,0.171603 0.1665608,0.196746 0.2242538,0.0286 0.188502,-0.5590163 0.05034,-1.3251013 -0.08284,-1.8244373 -0.04472,-0.1724734 0.0036,-0.3900072 0.109678,-0.4974796 0.106458,-0.1083335 0.269756,-0.090138 0.377826,0.045055 0.723136,0.9048246 1.382041,1.3477256 2.202738,1.3477256 0.979892,0 1.884243,-0.334547 1.653493,-3.7258431 -0.230776,-3.3913043 -1.577978,-4.4381286 -2.615522,-4.270166 -0.668701,0.1074718 -1.131829,0.474947 -1.375544,0.7236789 -0.121059,0.1230702 -0.203128,0.2487451 -0.203128,0.2626032 0,0.013867 -0.09587,-0.077137 -0.2242548,-0.1906736 -0.559024,-0.4983146 -1.26103,-0.7955888 -2.0247891,-0.7955888 -0.7532032,0 -1.4479573,0.2894741 -2.0044939,0.7748213 -0.128378,0.1126654 -0.2226289,0.2079953 -0.2234479,0.2010662 0,-0.00689 -0.082877,-0.1274025 -0.2031275,-0.250474 C 5.2812842,1.995012 4.8189989,1.6250275 4.1502708,1.5175162 4.08527,1.5062581 4.0186443,1.501049 3.9520185,1.5001832 Z m 2.8292229,2.6000302 c 0.2242529,0 0.4062551,0.1941445 0.4062551,0.4333471 0,0.2392031 -0.1820022,0.4333473 -0.4062551,0.4333473 -0.2242526,0 -0.4062546,-0.1941442 -0.4062546,-0.4333473 0,-0.2392026 0.182002,-0.4333471 0.4062546,-0.4333471 z m 2.4375298,0 c 0.224254,0 0.406254,0.1941445 0.406254,0.4333471 0,0.2392031 -0.182,0.4333473 -0.406254,0.4333473 -0.224253,0 -0.406253,-0.1941442 -0.406253,-0.4333473 0,-0.2392026 0.182,-0.4333471 0.406253,-0.4333471 z"
     id="path1"
     style="fill:url(#linearGradient2);stroke-width:1.30001" />
</svg>
