<?xml version="1.0" encoding="UTF-8" standalone="no"?>
<svg
   width="16"
   height="16"
   viewBox="0 0 16 16"
   version="1.1"
   id="svg94"
   sodipodi:docname="picard.svg"
   inkscape:version="1.4.4 (unknown)"
   xmlns:inkscape="http://www.inkscape.org/namespaces/inkscape"
   xmlns:sodipodi="http://sodipodi.sourceforge.net/DTD/sodipodi-0.dtd"
   xmlns:xlink="http://www.w3.org/1999/xlink"
   xmlns="http://www.w3.org/2000/svg"
   xmlns:svg="http://www.w3.org/2000/svg">
  <defs
     id="defs98">
    <linearGradient
       id="linearGradient827"
       x1="24"
       x2="24"
       y1="294"
       y2="257"
       gradientTransform="matrix(0.27781249,0,0,0.2714534,-15.600553,-77.967023)"
       gradientUnits="userSpaceOnUse">
      <stop
         stop-color="#1d99f3"
         offset="0"
         id="stop2-3" />
      <stop
         stop-color="#3daee9"
         offset="1"
         id="stop4-6" />
    </linearGradient>
    <linearGradient
       id="linearGradient831"
       x1="31"
       x2="31"
       y1="-21.230349"
       y2="36"
       gradientTransform="matrix(0.27781249,0,0,0.27807417,-15.600552,-10.395)"
       gradientUnits="userSpaceOnUse">
      <stop
         stop-color="#2980b9"
         offset="0"
         id="stop27-7" />
      <stop
         stop-color="#3daee9"
         stop-opacity="0"
         offset="1"
         id="stop29-5" />
    </linearGradient>
    <linearGradient
       id="linearGradient835"
       x1="120.39682"
       x2="120.34652"
       y1="23.021145"
       y2="32.414047"
       gradientTransform="matrix(0.38271441,0.10439693,-0.12882244,0.48944005,-48.026691,-29.482708)"
       gradientUnits="userSpaceOnUse">
      <stop
         stop-color="#bdc3c7"
         offset="0"
         id="stop12-3" />
      <stop
         stop-color="#fff"
         offset="1"
         id="stop14-5" />
    </linearGradient>
    <linearGradient
       id="linearGradient839"
       x1="112.7049"
       x2="112.7049"
       y1="30.894091"
       y2="32.711887"
       gradientTransform="matrix(0.38271438,0.10439692,-0.12882244,0.48944002,-48.026691,-29.482708)"
       gradientUnits="userSpaceOnUse">
      <stop
         stop-color="#2c3e50"
         offset="0"
         id="stop22-6" />
      <stop
         stop-color="#34495e"
         offset="1"
         id="stop24-2" />
    </linearGradient>
    <linearGradient
       id="linearGradient843"
       x1="119.85059"
       x2="119.85059"
       y1="27.383589"
       y2="33.01519"
       gradientTransform="matrix(0.38271438,0.10439692,-0.12882244,0.48944002,-48.026691,-29.482708)"
       gradientUnits="userSpaceOnUse">
      <stop
         stop-color="#7f8c8d"
         offset="0"
         id="stop17-9" />
      <stop
         stop-color="#95a5a6"
         offset="1"
         id="stop19-1" />
    </linearGradient>
    <linearGradient
       inkscape:collect="always"
       xlink:href="#linearGradient4"
       id="linearGradient2"
       x1="10.707617"
       y1="31.534513"
       x2="37.173615"
       y2="31.534513"
       gradientUnits="userSpaceOnUse"
       gradientTransform="matrix(0.49119626,0,0,0.49119634,-3.7595395,-7.489637)" />
    <linearGradient
       id="linearGradient4"
       inkscape:collect="always">
      <stop
         style="stop-color:#00b1b1;stop-opacity:1;"
         offset="0"
         id="stop3" />
      <stop
         style="stop-color:#9955ff;stop-opacity:1"
         offset="1"
         id="stop4-2" />
    </linearGradient>
    <linearGradient
       inkscape:collect="always"
       xlink:href="#linearGradient1"
       id="linearGradient2-3"
       x1="42.536129"
       y1="40.214195"
       x2="35.074394"
       y2="19.703997"
       gradientUnits="userSpaceOnUse"
       gradientTransform="matrix(0.20833447,0,0,0.20833447,1.3332928,1.3333152)" />
    <linearGradient
       id="linearGradient1"
       inkscape:collect="always">
      <stop
         style="stop-color:#00ccff;stop-opacity:1"
         offset="0"
         id="stop1" />
      <stop
         style="stop-color:#aa88de;stop-opacity:1;"
         offset="1"
         id="stop2-6" />
    </linearGradient>
  </defs>
  <sodipodi:namedview
     id="namedview96"
     pagecolor="#ffffff"
     bordercolor="#666666"
     borderopacity="1.0"
     inkscape:showpageshadow="2"
     inkscape:pageopacity="0.0"
     inkscape:pagecheckerboard="0"
     inkscape:deskcolor="#d1d1d1"
     showgrid="false"
     inkscape:zoom="22.512993"
     inkscape:cx="6.5295627"
     inkscape:cy="18.589265"
     inkscape:window-width="1920"
     inkscape:window-height="994"
     inkscape:window-x="0"
     inkscape:window-y="0"
     inkscape:window-maximized="1"
     inkscape:current-layer="svg94" />
  <linearGradient
     id="a"
     x1="24"
     x2="24"
     y1="294"
     y2="257"
     gradientTransform="matrix(0.27781249,0,0,0.2714534,-15.600553,-77.967023)"
     gradientUnits="userSpaceOnUse">
    <stop
       stop-color="#1d99f3"
       offset="0"
       id="stop2" />
    <stop
       stop-color="#3daee9"
       offset="1"
       id="stop4" />
  </linearGradient>
  <linearGradient
     id="b"
     x1="24"
     x2="24"
     y1="294"
     y2="257"
     gradientTransform="matrix(1.0000001,0,0,0.97711022,-7e-6,-243.23179)"
     gradientUnits="userSpaceOnUse">
    <stop
       stop-color="#27ae60"
       offset="0"
       id="stop7" />
    <stop
       stop-color="#2ecc71"
       offset="1"
       id="stop9" />
  </linearGradient>
  <linearGradient
     id="c"
     x1="120.39682"
     x2="120.34652"
     y1="23.021145"
     y2="32.414047"
     gradientTransform="matrix(0.38271441,0.10439693,-0.12882244,0.48944005,-48.026691,-29.482708)"
     gradientUnits="userSpaceOnUse">
    <stop
       stop-color="#bdc3c7"
       offset="0"
       id="stop12" />
    <stop
       stop-color="#fff"
       offset="1"
       id="stop14" />
  </linearGradient>
  <linearGradient
     id="d"
     x1="119.85059"
     x2="119.85059"
     y1="27.383589"
     y2="33.01519"
     gradientTransform="matrix(0.38271438,0.10439692,-0.12882244,0.48944002,-48.026691,-29.482708)"
     gradientUnits="userSpaceOnUse">
    <stop
       stop-color="#7f8c8d"
       offset="0"
       id="stop17" />
    <stop
       stop-color="#95a5a6"
       offset="1"
       id="stop19" />
  </linearGradient>
  <linearGradient
     id="e"
     x1="112.7049"
     x2="112.7049"
     y1="30.894091"
     y2="32.711887"
     gradientTransform="matrix(0.38271438,0.10439692,-0.12882244,0.48944002,-48.026691,-29.482708)"
     gradientUnits="userSpaceOnUse">
    <stop
       stop-color="#2c3e50"
       offset="0"
       id="stop22" />
    <stop
       stop-color="#34495e"
       offset="1"
       id="stop24" />
  </linearGradient>
  <linearGradient
     id="f"
     x1="31"
     x2="31"
     y1="-21.230349"
     y2="36"
     gradientTransform="matrix(0.27781249,0,0,0.27807417,-15.600552,-10.395)"
     gradientUnits="userSpaceOnUse">
    <stop
       stop-color="#2980b9"
       offset="0"
       id="stop27" />
    <stop
       stop-color="#3daee9"
       stop-opacity="0"
       offset="1"
       id="stop29" />
  </linearGradient>
  <path
     id="circle2"
     style="opacity:0.99;fill:url(#linearGradient2);fill-opacity:1;stroke-width:0.491199"
     d="M 14.499999,8.000001 A 6.4999991,6.5000002 0 0 1 7.9999999,14.5 6.4999991,6.5000002 0 0 1 1.5000012,8.000001 6.4999991,6.5000002 0 0 1 7.9999999,1.5 6.4999991,6.5000002 0 0 1 14.499999,8.000001 Z" />
  <path
     id="circle858"
     style="fill:#1c202f;fill-opacity:1;stroke-width:0.417883"
     d="M 13.529826,8.000001 A 5.5298257,5.5298269 0 0 1 7.9999999,13.529826 5.5298257,5.5298269 0 0 1 2.4701741,8.000001 5.5298257,5.5298269 0 0 1 7.9999999,2.4701742 5.5298257,5.5298269 0 0 1 13.529826,8.000001 Z" />
  <path
     d="m 7.1834852,6.6693352 v 4.1352018 c 0.00413,0.163921 -0.042192,0.326673 -0.1349153,0.466136 -0.12065,0.181967 -0.3102388,0.309782 -0.5268738,0.35462 -0.1679006,0.03523 -0.34501,0.07189 -0.5132055,0.106848 -0.216633,0.04517 -0.4427792,0.0037 -0.6285061,-0.113836 -0.1860257,-0.118499 -0.3158876,-0.304253 -0.3622461,-0.516501 -0.00684,-0.03176 -0.013681,-0.06345 -0.020515,-0.09462 -0.045766,-0.212542 -0.00387,-0.434107 0.1167862,-0.616075 0.1206495,-0.181968 0.3102428,-0.309493 0.5268755,-0.35491 0.1678993,-0.03467 0.3453063,-0.071635 0.5132064,-0.1068516 0.023487,-0.0043 0.046654,-0.0085 0.069536,-0.011362 v -0.0029 c 0,0 0.1251078,-0.026191 0.2543749,-0.052964 0.1628487,-0.034007 0.279337,-0.1749082 0.279337,-0.3382426 V 5.3189981 c 0,-0.164209 0.1179745,-0.3059994 0.2820102,-0.338607 0.7533168,-0.1505248 2.8088134,-0.5616293 3.6257214,-0.7246732 0.08378,-0.016885 0.170573,0.00413 0.23714,0.056775 0.06631,0.053284 0.104899,0.1321823 0.105198,0.2160329 l 0.01336,5.5091412 c 0.0024,0.161008 -0.04394,0.320268 -0.134618,0.457108 -0.120649,0.181965 -0.31024,0.309784 -0.526873,0.354619 -0.168197,0.0349 -0.345307,0.0719 -0.5135035,0.106853 -0.2166341,0.04516 -0.4427792,0.0038 -0.6285068,-0.114428 C 9.0315488,10.723616 8.9010952,10.538156 8.8553309,10.325616 l -0.02052,-0.09491 C 8.7884528,10.018452 8.8306857,9.797178 8.9512998,9.6149182 9.0719511,9.4329514 9.2615432,9.3057165 9.4781755,9.2602968 c 0.1681982,-0.03494 0.3453072,-0.071622 0.5135041,-0.1065583 0.02645,-0.00561 0.05349,-0.00992 0.080529,-0.013091 l 0.236545,-0.046595 c 0.164631,-0.032607 0.2832,-0.1743981 0.2832,-0.3386074 V 5.9857183 Z M 10.591978,5.6459416 V 5.3413988 c 0,-0.07046 -0.0324,-0.1371304 -0.08797,-0.1816776 -0.05557,-0.044838 -0.128664,-0.062598 -0.19939,-0.048622 C 9.660957,5.2377488 8.1070762,5.543165 7.4663865,5.6692329 7.3020538,5.7015507 7.1834852,5.8433424 7.1834852,6.0078427 v 0.3220116 z"
     id="path4-3"
     style="fill:url(#linearGradient2-3);stroke-width:0.20833" />
</svg>
