<?xml version="1.0" encoding="UTF-8" standalone="no"?>
<!-- Generator: Gravit.io -->

<svg
   style="isolation:isolate"
   viewBox="0 0 16 16"
   width="16"
   height="16"
   version="1.1"
   id="svg4"
   sodipodi:docname="pidgin.svg"
   inkscape:version="1.4.4 (unknown)"
   xmlns:inkscape="http://www.inkscape.org/namespaces/inkscape"
   xmlns:sodipodi="http://sodipodi.sourceforge.net/DTD/sodipodi-0.dtd"
   xmlns:xlink="http://www.w3.org/1999/xlink"
   xmlns="http://www.w3.org/2000/svg"
   xmlns:svg="http://www.w3.org/2000/svg">
  <defs
     id="defs4">
    <linearGradient
       id="linearGradient7"
       inkscape:collect="always">
      <stop
         style="stop-color:#00ccff;stop-opacity:1"
         offset="0"
         id="stop7" />
      <stop
         style="stop-color:#8d5fd3;stop-opacity:1"
         offset="1"
         id="stop8" />
    </linearGradient>
    <linearGradient
       id="linearGradient4"
       inkscape:collect="always">
      <stop
         style="stop-color:#ffcc00;stop-opacity:1"
         offset="0"
         id="stop5" />
      <stop
         style="stop-color:#ffb380;stop-opacity:1"
         offset="1"
         id="stop6" />
    </linearGradient>
    <linearGradient
       inkscape:collect="always"
       xlink:href="#linearGradient4"
       id="linearGradient6"
       x1="2.4618864"
       y1="6.4892244"
       x2="11.187348"
       y2="6.4892244"
       gradientUnits="userSpaceOnUse" />
    <linearGradient
       inkscape:collect="always"
       xlink:href="#linearGradient7"
       id="linearGradient8"
       x1="7.0594337"
       y1="10.644549"
       x2="15.618324"
       y2="10.644549"
       gradientUnits="userSpaceOnUse" />
  </defs>
  <sodipodi:namedview
     id="namedview4"
     pagecolor="#ffffff"
     bordercolor="#000000"
     borderopacity="0.25"
     inkscape:showpageshadow="2"
     inkscape:pageopacity="0.0"
     inkscape:pagecheckerboard="0"
     inkscape:deskcolor="#d1d1d1"
     inkscape:document-units="px"
     inkscape:zoom="23.65625"
     inkscape:cx="9.7648613"
     inkscape:cy="8.2219287"
     inkscape:window-width="1920"
     inkscape:window-height="994"
     inkscape:window-x="0"
     inkscape:window-y="0"
     inkscape:window-maximized="1"
     inkscape:current-layer="svg4" />
  <linearGradient
     id="_lgradient_22"
     x1="-3.8208334e-05"
     y1="0.50000006"
     x2="0.99996185"
     y2="0.50000006"
     gradientTransform="matrix(8.7254227,0,0,8.8645545,2.46192,2.057)"
     gradientUnits="userSpaceOnUse">
    <stop
       offset="0%"
       stop-opacity="1"
       style="stop-color:rgb(211,0,220)"
       id="stop1" />
    <stop
       offset="100%"
       stop-opacity="1"
       style="stop-color:rgb(135,0,255)"
       id="stop2" />
  </linearGradient>
  <linearGradient
     id="_lgradient_23"
     x1="-3.8208334e-05"
     y1="0.50000006"
     x2="0.99996185"
     y2="0.50000006"
     gradientTransform="matrix(-8.5588191,0,0,8.8249713,15.618291,6.2321345)"
     gradientUnits="userSpaceOnUse">
    <stop
       offset="0%"
       stop-opacity="1"
       style="stop-color:rgb(211,0,220)"
       id="stop3" />
    <stop
       offset="100%"
       stop-opacity="1"
       style="stop-color:rgb(135,0,255)"
       id="stop4" />
  </linearGradient>
  <g
     id="g4"
     transform="translate(-1.0401052,-0.55700007)">
    <path
       d="m 4.8351356,10.240665 -1.9236221,0.646033 c -0.3479771,0.116681 -0.5331908,-0.07001 -0.4129644,-0.4171 L 3.1389688,8.6189384 3.1014534,8.5548374 C 2.7177333,7.8937399 2.5159775,7.144319 2.5159775,6.3813097 c 0,-1.1464339 0.456683,-2.2464905 1.2660695,-3.0579448 C 4.5937967,2.5139784 5.6938533,2.057 6.8402873,2.057 c 1.0779019,0 2.1156299,0.4035117 2.9117235,1.1287101 v 0 c 0.1810781,0.1654221 0.1940755,0.4460488 0.028949,0.6265361 v 0 C 9.6155376,3.9927334 9.3355017,4.0051401 9.1556052,3.8400134 v 0 C 8.5213889,3.2633994 7.6963464,2.9440758 6.8402873,2.9440758 c -0.9112983,0 -1.7850812,0.3615653 -2.4305227,1.0067113 -0.6454414,0.6454414 -1.0067113,1.5192244 -1.0067113,2.4305226 0,0.6076307 0.1595141,1.2019685 0.4655449,1.7277743 L 4.0481993,8.4925087 3.8685982,8.9515549 3.6378935,9.6480999 4.5051777,9.43955 4.7923031,9.389628 v 0 0 l 0.5092637,0.1819642 c 0.486518,0.2442929 1.0238443,0.3716088 1.5673739,0.3716088 0.1391318,0 0.2764912,-0.00798 0.4159183,-0.024223 v 0 c 0.2209566,-0.026881 0.4212355,0.131157 0.4475258,0.352409 v 0 c 0.02629,0.221252 -0.1317469,0.422712 -0.3524081,0.449593 v 0 c -0.169853,0.02009 -0.3394106,0.03013 -0.511036,0.03013 -0.6705501,0 -1.3310567,-0.157447 -1.9310071,-0.458456 z M 10.163203,5.170184 v 0 c -0.0768,-0.2094362 0.03072,-0.4416178 0.240453,-0.5181255 v 0 c 0.209436,-0.076212 0.442208,0.031903 0.519011,0.2413389 v 0 c 0.175761,0.4809056 0.264676,0.9919416 0.264676,1.5050453 0.0021,1.4279468 -0.696841,2.7669793 -1.8683835,3.5831599 v 0 C 9.136109,10.109805 8.8841358,10.065495 8.7565245,9.8826448 v 0 C 8.6289132,9.6997943 8.6744043,9.4472303 8.8584363,9.3190282 v 0 C 9.8116809,8.654386 10.381501,7.5617143 10.379433,6.3984427 c 0,-0.4182814 -0.07267,-0.8341998 -0.21623,-1.2282587 z M 6.4231874,6.3813097 c 0,-0.3343888 0.2717648,-0.6058582 0.6061536,-0.6058582 0.3343889,0 0.6058583,0.2714694 0.6058583,0.6058582 0,0.3346843 -0.2714694,0.6061537 -0.6058583,0.6061537 -0.3343888,0 -0.6061536,-0.2714694 -0.6061536,-0.6061537 z m -2.1168115,0 c 0,-0.3343888 0.2717648,-0.6058582 0.6061536,-0.6058582 0.3343889,0 0.6058583,0.2714694 0.6058583,0.6058582 0,0.3346843 -0.2714694,0.6061537 -0.6058583,0.6061537 -0.3343888,0 -0.6061536,-0.2714694 -0.6061536,-0.6061537 z m 4.2339184,0 c 0,-0.3343888 0.2714694,-0.6058582 0.6058582,-0.6058582 0.3343889,0 0.6058583,0.2714694 0.6058583,0.6058582 0,0.3346843 -0.2714694,0.6061537 -0.6058583,0.6061537 -0.3343888,0 -0.6058582,-0.2714694 -0.6058582,-0.6061537 z"
       fill-rule="evenodd"
       id="path2"
       style="fill:url(#linearGradient6);fill-opacity:1" />
    <path
       d="m 13.245075,14.376217 1.923622,0.646032 c 0.347977,0.116682 0.533191,-0.07001 0.412964,-0.4171 l -0.640419,-1.850659 0.03751,-0.0641 c 0.38372,-0.661098 0.585476,-1.410519 0.585476,-2.173528 0,-1.1464338 -0.456979,-2.2464905 -1.266365,-3.0579447 C 13.543721,6.7068367 12.540849,6.2590156 12.072646,6.2333161 11.747119,6.2152969 11.482739,6.3993289 11.482739,6.6442126 v 0 c 0,0.2445884 0.256404,0.5092637 0.572183,0.5904977 q 1.027685,0.2637891 1.615524,0.8516282 c 0.645146,0.6454414 1.006711,1.5192243 1.006711,2.4305225 0,0.607631 -0.159809,1.201969 -0.46584,1.727774 l -0.179601,0.383425 v 0 l 0.179601,0.459046 0.230704,0.696545 -0.866988,-0.20855 -0.287421,-0.04992 v 0 0 l -0.508968,0.181965 c -0.486814,0.244292 -1.02414,0.371608 -1.567374,0.371608 -0.139428,0 -0.276787,-0.008 -0.416214,-0.02422 v 0 c -0.220661,-0.02688 -0.421236,0.131156 -0.44723,0.352408 v 0 c -0.02629,0.221252 0.131746,0.422712 0.352408,0.449593 v 0 c 0.169557,0.02009 0.33941,0.03013 0.511036,0.03013 0.67055,0 1.331056,-0.157446 1.931007,-0.458456 z M 9.221774,13.45458 v 0 c 0.1837367,0.128202 0.2295231,0.380766 0.1019118,0.563616 v 0 c -0.1276113,0.182851 -0.3795845,0.22716 -0.5624349,0.09896 v 0 C 7.8573375,13.487664 7.234937,12.546826 7.0662656,11.781454 7.0311134,11.622235 7.135093,11.492851 7.2981519,11.492851 h 0.2534502 c 0.1630589,0 0.3512265,0.119931 0.4200538,0.267925 Q 8.5382265,12.9784 9.221774,13.45458 Z m 2.434954,-2.937719 c 0,-0.334389 -0.27147,-0.6058582 -0.605859,-0.6058582 -0.334389,0 -0.606153,0.2714692 -0.606153,0.6058582 0,0.334684 0.271764,0.606154 0.606153,0.606154 0.334389,0 0.605859,-0.27147 0.605859,-0.606154 z m 2.116811,0 c 0,-0.334389 -0.271469,-0.6058582 -0.605858,-0.6058582 -0.334389,0 -0.606154,0.2714692 -0.606154,0.6058582 0,0.334684 0.271765,0.606154 0.606154,0.606154 0.334389,0 0.605858,-0.27147 0.605858,-0.606154 z"
       fill-rule="evenodd"
       id="path4"
       style="fill:url(#linearGradient8);fill-opacity:1" />
  </g>
</svg>
