<?xml version="1.0" encoding="UTF-8" standalone="no"?>
<!-- Generator: Gravit.io -->

<svg
   style="isolation:isolate"
   viewBox="0 0 16 16"
   width="16"
   height="16"
   version="1.1"
   id="svg2"
   sodipodi:docname="pitivi.svg"
   inkscape:version="1.4.4 (unknown)"
   xmlns:inkscape="http://www.inkscape.org/namespaces/inkscape"
   xmlns:sodipodi="http://sodipodi.sourceforge.net/DTD/sodipodi-0.dtd"
   xmlns:xlink="http://www.w3.org/1999/xlink"
   xmlns="http://www.w3.org/2000/svg"
   xmlns:svg="http://www.w3.org/2000/svg">
  <defs
     id="defs2">
    <linearGradient
       id="linearGradient2"
       inkscape:collect="always">
      <stop
         style="stop-color:#3771c8;stop-opacity:1"
         offset="0"
         id="stop3" />
      <stop
         style="stop-color:#ffccaa;stop-opacity:1"
         offset="0.44422933"
         id="stop5" />
      <stop
         style="stop-color:#ff55dd;stop-opacity:1"
         offset="1"
         id="stop4" />
    </linearGradient>
    <linearGradient
       inkscape:collect="always"
       xlink:href="#linearGradient2"
       id="linearGradient4"
       x1="0.97092998"
       y1="14.5"
       x2="15.02907"
       y2="1.5"
       gradientUnits="userSpaceOnUse" />
  </defs>
  <sodipodi:namedview
     id="namedview2"
     pagecolor="#ffffff"
     bordercolor="#000000"
     borderopacity="0.25"
     inkscape:showpageshadow="2"
     inkscape:pageopacity="0.0"
     inkscape:pagecheckerboard="0"
     inkscape:deskcolor="#d1d1d1"
     inkscape:document-units="px"
     inkscape:zoom="23.65625"
     inkscape:cx="7.0171731"
     inkscape:cy="5.2206077"
     inkscape:window-width="1920"
     inkscape:window-height="994"
     inkscape:window-x="0"
     inkscape:window-y="0"
     inkscape:window-maximized="1"
     inkscape:current-layer="svg2" />
  <linearGradient
     id="_lgradient_3"
     x1="0.67180997"
     y1="0.020570019"
     x2="0.42214948"
     y2="0.96016449"
     gradientTransform="matrix(14.058139,0,0,13,0.97092999,1.5)"
     gradientUnits="userSpaceOnUse">
    <stop
       offset="0%"
       stop-opacity="1"
       style="stop-color:rgb(26,108,255)"
       id="stop1" />
    <stop
       offset="100%"
       stop-opacity="1"
       style="stop-color:rgb(197,34,255)"
       id="stop2" />
  </linearGradient>
  <path
     d="M 13.832767,4.372093 V 3.9591163 c 0,-0.7748605 -0.629442,-1.4043023 -1.404302,-1.4043023 h -0.98014 l 0.908186,0.9103023 -0.905162,0.9069767 z m -11.6655347,0 V 3.9591163 c 0,-0.7748605 0.6294419,-1.4043023 1.4043024,-1.4043023 H 4.2420928 L 5.155116,3.4651163 4.2454184,4.372093 Z m 2.9352791,0 L 6.0076742,3.4651163 5.0994881,2.554814 H 7.5676742 L 8.4806974,3.4651163 7.5709998,4.372093 Z m 3.3255814,0 L 9.3332556,3.4651163 8.4250695,2.554814 H 10.59093 l 0.913023,0.9103023 -0.909697,0.9069767 z m 5.4046742,0.9069768 v 6.7618142 c 0,0.77486 -0.629442,1.404302 -1.404302,1.404302 h -2.089372 c -0.158721,0 -0.311093,0.05533 -0.4247677,0.155395 -0.1106511,0.09765 -0.1735348,0.232186 -0.1735348,0.371861 0,0.139977 0.062884,0.274511 0.1735348,0.37186 C 10.028,14.444674 10.180372,14.5 10.339093,14.5 h 2.723953 c 1.085047,0 1.966024,-0.880977 1.966024,-1.966023 V 3.4660233 C 15.02907,2.3809767 14.148093,1.5 13.063046,1.5 H 2.9369533 C 1.8519067,1.5 0.97093,2.3809767 0.97093,3.4660233 V 12.533977 C 0.97093,13.619023 1.8519067,14.5 2.9369533,14.5 h 2.7239534 c 0.158721,0 0.3110931,-0.05533 0.4247675,-0.155698 0.1106511,-0.09735 0.1735349,-0.231883 0.1735349,-0.37186 0,-0.139675 -0.062884,-0.274209 -0.1735349,-0.371861 C 5.9719998,13.500512 5.8196277,13.445186 5.6609067,13.445186 h -2.089372 c -0.7748605,0 -1.4043024,-0.629442 -1.4043024,-1.404302 V 5.2790698 Z M 5.2630463,11.061349 c 0,-0.214954 0.085256,-0.422047 0.2382325,-0.573512 0.1514652,-0.152674 0.3582559,-0.23793 0.5732093,-0.23793 0.2152559,0 0.4220466,0.08526 0.5735117,0.23793 0.1529767,0.151465 0.2382325,0.358558 0.2382325,0.573512 0,0.214953 -0.085256,0.422046 -0.2382325,0.573511 -0.1514651,0.152977 -0.3582558,0.237931 -0.5735117,0.237931 -0.2149534,0 -0.4217441,-0.08495 -0.5732093,-0.237931 C 5.3483021,11.483395 5.2630463,11.276302 5.2630463,11.061349 Z m 3.2460697,0 c 0,-0.214954 0.085256,-0.422047 0.2382326,-0.573512 0.1514651,-0.152674 0.3582558,-0.23793 0.5735116,-0.23793 0.2149535,0 0.4217442,0.08526 0.5732093,0.23793 0.1529765,0.151465 0.2382325,0.358558 0.2382325,0.573512 0,0.214953 -0.08526,0.422046 -0.2382325,0.573511 -0.1514651,0.152977 -0.3582558,0.237931 -0.5732093,0.237931 -0.2152558,0 -0.4220465,-0.08495 -0.5735116,-0.237931 C 8.5943719,11.483395 8.509116,11.276302 8.509116,11.061349 Z M 7.8167905,7.8990233 7.4204416,7.1051163 c 0,0 -0.00151,-0.00121 -0.00151,-0.00121 -0.03114,-0.063488 -0.078302,-0.1191163 -0.1378605,-0.1584186 -0.044744,-0.032349 -0.09886,-0.048674 -0.154186,-0.049884 -0.028419,0 -0.056837,0.00665 -0.082535,0.018744 -0.03507,0.017837 -0.063488,0.046256 -0.082535,0.081326 -0.024186,0.045953 -0.036581,0.09614 -0.03507,0.1475349 0,0.063488 0.014814,0.1269767 0.044744,0.1850233 0,0 0,0 0,0.00151 L 7.5111393,8.4090465 Z M 8.0640928,7.4866512 8.3942323,6.8901628 C 8.4658835,6.7698372 8.5659533,6.6697674 8.6850695,6.5981163 8.7999533,6.5276744 8.9311626,6.4898837 9.0650928,6.4883721 c 0.097349,-0.00121 0.1919767,0.020256 0.2787442,0.063488 0.1094418,0.055628 0.2001395,0.1436046 0.258186,0.2530465 0.056837,0.1043023 0.085256,0.221907 0.084046,0.3407209 0,0.1272791 -0.03114,0.2518372 -0.087977,0.3652093 l -0.299,0.598 v 0 C 9.2492091,8.208907 9.1273719,8.2494186 9.0273021,8.1995349 v 0 C 8.9272323,8.1493488 8.8867207,8.0275116 8.9366044,7.9274419 v 0 l 0.299,-0.5976977 c 0,-0.00151 0,-0.00151 0,-0.00151 C 9.2652323,7.270186 9.2800463,7.2066977 9.2800463,7.1432093 9.2815579,7.091814 9.2694649,7.0416279 9.2449765,6.9956744 9.22593,6.961814 9.1975114,6.9333953 9.1624416,6.9143488 9.134023,6.9010465 9.1016742,6.8928837 9.069023,6.894093 c -0.060767,0 -0.1203256,0.017535 -0.1717209,0.050186 -0.063488,0.037791 -0.116093,0.090698 -0.1541861,0.154186 0,0 0,0 0,0 L 8.2793486,7.9168605 7.6178602,9.0185349 C 7.5410695,9.1464186 7.4243719,9.1418837 7.3575579,9.0082558 L 6.6089998,7.5108372 C 6.5521626,7.3974651 6.521023,7.272907 6.521023,7.1456279 6.5195114,7.026814 6.54793,6.9092093 6.6047672,6.804907 6.663116,6.6954651 6.7523021,6.6074884 6.8632556,6.5518605 c 0.082535,-0.041721 0.1744418,-0.063488 0.2675581,-0.061977 0.1354419,0.00121 0.2678605,0.043233 0.3803256,0.1203256 0.116093,0.079814 0.2095116,0.1880465 0.2717907,0.313814 z M 7.8173951,10.402279 7.2837905,11.202837 c -0.031744,0.271186 -0.1538838,0.524837 -0.3488838,0.718628 -0.2273488,0.228861 -0.5369302,0.357349 -0.8604186,0.357349 -0.323186,0 -0.6327674,-0.128488 -0.8601162,-0.357349 -0.2285582,-0.227046 -0.3570466,-0.53693 -0.3570466,-0.860116 v 0 0 c 0,-0.323186 0.1284884,-0.63307 0.3570466,-0.860116 0.2273488,-0.2285586 0.5369302,-0.357047 0.8601162,-0.357047 0.3234884,0 0.6330698,0.1284884 0.8604186,0.357047 0.1145814,0.113976 0.2040698,0.248814 0.2648373,0.395744 v 0 0 l 0.442,-0.6630003 -0.00212,-0.00605 0.00816,-0.00302 0.895186,-1.3426279 v 0 c 0.061977,-0.093419 0.1880465,-0.118814 0.2814651,-0.056837 v 0 c 0.093116,0.061977 0.118814,0.1880465 0.056837,0.2811628 v 0 l -0.7869535,1.180279 0.1738373,0.4634654 c 0.052605,-0.0904 0.117,-0.17414 0.192279,-0.249116 0.2273489,-0.2285587 0.5369303,-0.3570471 0.8604186,-0.3570471 0.3231861,0 0.6327675,0.1284884 0.8601165,0.3570471 0.228558,0.227046 0.357046,0.53693 0.357046,0.860116 0,0.323186 -0.128488,0.63307 -0.357046,0.860116 -0.227349,0.228861 -0.5369304,0.357349 -0.8601165,0.357349 -0.3234883,0 -0.6330697,-0.128488 -0.8604186,-0.357349 -0.2004351,-0.199232 -0.323784,-0.461651 -0.3512956,-0.741302 v 0 z"
     fill-rule="evenodd"
     id="path2"
     style="fill:url(#linearGradient4)" />
</svg>
