<?xml version="1.0" encoding="UTF-8" standalone="no"?>
<svg
   width="16"
   height="16"
   fill="none"
   version="1.1"
   id="svg7"
   sodipodi:docname="pixelorama.svg"
   inkscape:version="1.4.4 (unknown)"
   xmlns:inkscape="http://www.inkscape.org/namespaces/inkscape"
   xmlns:sodipodi="http://sodipodi.sourceforge.net/DTD/sodipodi-0.dtd"
   xmlns="http://www.w3.org/2000/svg"
   xmlns:svg="http://www.w3.org/2000/svg">
  <defs
     id="defs7" />
  <sodipodi:namedview
     id="namedview7"
     pagecolor="#ffffff"
     bordercolor="#000000"
     borderopacity="0.25"
     inkscape:showpageshadow="2"
     inkscape:pageopacity="0.0"
     inkscape:pagecheckerboard="0"
     inkscape:deskcolor="#d1d1d1"
     inkscape:zoom="23.84375"
     inkscape:cx="8.8912189"
     inkscape:cy="7.6120577"
     inkscape:current-layer="svg7"
     inkscape:window-width="1920"
     inkscape:window-height="994"
     inkscape:window-x="0"
     inkscape:window-y="0"
     inkscape:window-maximized="1" />
  <g
     id="g1"
     transform="translate(2.5999998,-2.6000003)">
    <path
       fill="#5491df"
       d="m 0.2000015,15.985714 v -1.485715 h -2.6 V 6.7000005 h 2.6 v -2.6 h 2.599999 v 2.6 h -2.599999 v 5.1999985 h 2.599999 V 17.1 h -2.599999 z"
       id="path2"
       style="stroke-width:0.371429" />
    <path
       fill="#df605d"
       d="m 8,15.985714 v -1.485715 h 2.6 v -2.6 H 8 V 4.1000005 h 2.6 v 2.6 h 2.599999 V 14.499999 H 10.6 V 17.1 H 8 Z"
       id="path3"
       style="stroke-width:0.371429" />
    <path
       fill="#37955a"
       d="M 2.8000005,15.985714 V 14.499999 H 8 V 17.1 H 2.8000005 v -1.04 z m 0,-10.5857135 v -1.3 H 8 v 2.6 H 2.8000005 Z"
       id="path4"
       style="stroke-width:0.371429" />
    <path
       fill="#f7e4d7"
       d="m 0.2000015,6.7000005 h 2.599999 v 2.599999 h -2.599999 z m 2.599999,0 h 2.5999999 v 2.599999 H 2.8000005 Z m -2.599999,2.599999 h 2.599999 V 11.899999 H 0.2000015 Z M 8,11.899999 h 2.6 v 2.6 H 8 Z"
       id="path5"
       style="stroke-width:0.371429" />
  </g>
</svg>
