<?xml version="1.0" encoding="UTF-8" standalone="no"?>
<svg
   viewBox="0 0 16 16"
   id="svg5"
   version="1.1"
   sodipodi:docname="playonlinux.svg"
   inkscape:version="1.4.4 (unknown)"
   xmlns:inkscape="http://www.inkscape.org/namespaces/inkscape"
   xmlns:sodipodi="http://sodipodi.sourceforge.net/DTD/sodipodi-0.dtd"
   xmlns:xlink="http://www.w3.org/1999/xlink"
   xmlns="http://www.w3.org/2000/svg"
   xmlns:svg="http://www.w3.org/2000/svg">
  <sodipodi:namedview
     id="namedview1"
     pagecolor="#ffffff"
     bordercolor="#000000"
     borderopacity="0.25"
     inkscape:showpageshadow="2"
     inkscape:pageopacity="0.0"
     inkscape:pagecheckerboard="0"
     inkscape:deskcolor="#d1d1d1"
     inkscape:zoom="23.65625"
     inkscape:cx="6.8903567"
     inkscape:cy="11.22325"
     inkscape:window-width="1920"
     inkscape:window-height="994"
     inkscape:window-x="0"
     inkscape:window-y="0"
     inkscape:window-maximized="1"
     inkscape:current-layer="svg5" />
  <defs
     id="defs3051">
    <linearGradient
       id="linearGradient1"
       inkscape:collect="always">
      <stop
         style="stop-color:#00ccff;stop-opacity:1"
         offset="0"
         id="stop1" />
      <stop
         style="stop-color:#00ff00;stop-opacity:1"
         offset="0.30936033"
         id="stop3" />
      <stop
         style="stop-color:#ffd42a;stop-opacity:1"
         offset="0.50003362"
         id="stop4" />
      <stop
         style="stop-color:#c83771;stop-opacity:1"
         offset="1"
         id="stop2" />
    </linearGradient>
    <style
       type="text/css"
       id="current-color-scheme">
      .ColorScheme-Text {
        color:#eff0f1;
      }
      </style>
    <linearGradient
       inkscape:collect="always"
       xlink:href="#linearGradient1"
       id="linearGradient2"
       x1="3.0176954"
       y1="12.995896"
       x2="12.999847"
       y2="3.023072"
       gradientUnits="userSpaceOnUse" />
  </defs>
  <path
     d="M 5.9156341,1.500005 A 2.2216439,2.2193258 0 0 0 5.7849489,1.504315 C 4.6850175,1.5848622 3.7571541,2.2843847 3.0187843,3.0230721 2.426346,3.6148926 1.8796475,4.328558 1.6248121,5.148838 1.3688872,5.9691182 1.5246203,7.0167707 2.3315993,7.6597224 2.5777228,7.8555454 2.8597844,7.9099407 3.1320446,8.0100279 2.8597844,8.1079393 2.5766336,8.1623346 2.3305102,8.3581574 A 2.5461782,2.5435215 0 0 0 2.0517158,8.6159907 c -0.6327332,0.6897317 -0.6512461,1.6503503 -0.375719,2.4042703 0.274438,0.755005 0.7873767,1.421891 1.3416987,1.975635 0.5902603,0.590733 1.3079384,1.135771 2.1268971,1.390342 0.8211371,0.256747 1.8709729,0.102281 2.5145962,-0.703874 0.1960273,-0.245867 0.2504792,-0.529809 0.3495821,-0.801785 0.1001925,0.273062 0.1535547,0.554831 0.3506713,0.801785 0.6414452,0.805049 1.6923688,0.959531 2.5124188,0.704962 0.821137,-0.257832 1.537726,-0.800697 2.129074,-1.39143 0.590262,-0.590731 1.135869,-1.306575 1.392883,-2.125765 0.255926,-0.82028 0.100189,-1.8690217 -0.706787,-2.5108855 C 13.440908,8.1634224 13.158844,8.1079393 12.885497,8.0100279 13.157757,7.9110286 13.440908,7.8577211 13.688121,7.6597224 14.49401,7.0178586 14.648656,5.9691182 14.393818,5.148838 14.136804,4.3296457 13.591197,3.6148926 12.999847,3.0230721 12.447703,2.4704164 11.7823,1.9547499 11.025416,1.6805976 10.270707,1.406446 9.3069081,1.4249398 8.6175448,2.0581007 A 2.4590548,2.456489 0 0 0 8.3594422,2.3366043 C 8.1623256,2.5824707 8.1089627,2.865326 8.0087709,3.1373022 7.9107571,2.865326 7.8563052,2.5824707 7.6591888,2.3366043 A 2.2216439,2.2193258 0 0 0 5.9167227,1.500005 Z m 0.072968,1.1292455 A 1.3014041,1.3000462 0 0 1 7.1560529,3.1514449 C 8.0240181,4.2382619 7.3346552,6.2389188 8.0087716,8.0100279 8.6839771,6.2410949 7.9935247,4.2382619 8.8625799,3.149269 8.9170327,3.082907 8.9714839,3.0241601 9.0324702,2.9686769 9.9102358,2.1636273 11.243221,2.9164579 12.17653,3.846616 13.170826,4.8398734 13.962556,6.2900502 12.873517,7.1571105 11.784474,8.0241706 9.7806396,7.3355268 8.0087716,8.0100279 9.7806396,8.6845288 11.784474,7.9937089 12.873517,8.8618572 13.962556,9.728917 13.170826,11.179093 12.17653,12.171262 11.182236,13.164521 9.7305474,13.955428 8.8625799,12.867523 7.9935243,11.779619 8.6839764,9.778961 8.0087709,8.0100279 7.3335655,9.778961 8.0240174,11.779619 7.1560519,12.867523 6.288086,13.955428 4.8374832,13.165608 3.8420995,12.171262 2.9109693,11.240018 2.1562639,9.908422 2.9643325,9.0304825 3.0166063,8.9717355 3.0765034,8.9151646 3.1451132,8.8618572 4.2341542,7.9937094 6.2379898,8.6845288 8.0087709,8.0100279 6.2379898,7.3355268 4.2341542,8.0252585 3.1451132,7.1571105 2.0560721,6.2889626 2.847805,4.8398734 3.8420995,3.846616 4.4650312,3.2265103 5.2643873,2.6847337 5.9875105,2.6292505 Z"
     class="ColorScheme-Text"
     id="path1"
     style="fill:url(#linearGradient2)" />
</svg>
