<?xml version="1.0" encoding="UTF-8" standalone="no"?>
<!-- Generator: Gravit.io -->

<svg
   style="isolation:isolate"
   viewBox="0 0 16 16"
   width="16"
   height="16"
   version="1.1"
   id="svg12"
   sodipodi:docname="popcorn-time.svg"
   inkscape:version="1.4.4 (unknown)"
   xmlns:inkscape="http://www.inkscape.org/namespaces/inkscape"
   xmlns:sodipodi="http://sodipodi.sourceforge.net/DTD/sodipodi-0.dtd"
   xmlns:xlink="http://www.w3.org/1999/xlink"
   xmlns="http://www.w3.org/2000/svg"
   xmlns:svg="http://www.w3.org/2000/svg">
  <defs
     id="defs12">
    <linearGradient
       id="linearGradient12"
       inkscape:collect="always">
      <stop
         style="stop-color:#00ccff;stop-opacity:1"
         offset="0"
         id="stop12" />
      <stop
         style="stop-color:#3771c8;stop-opacity:1"
         offset="1"
         id="stop13" />
    </linearGradient>
    <linearGradient
       inkscape:collect="always"
       xlink:href="#linearGradient12"
       id="linearGradient13"
       x1="29"
       y1="24.096"
       x2="35"
       y2="24.096"
       gradientUnits="userSpaceOnUse" />
    <linearGradient
       inkscape:collect="always"
       xlink:href="#linearGradient12"
       id="linearGradient15"
       x1="13"
       y1="24.096001"
       x2="19"
       y2="24.096001"
       gradientUnits="userSpaceOnUse" />
  </defs>
  <sodipodi:namedview
     id="namedview12"
     pagecolor="#ffffff"
     bordercolor="#000000"
     borderopacity="0.25"
     inkscape:showpageshadow="2"
     inkscape:pageopacity="0.0"
     inkscape:pagecheckerboard="0"
     inkscape:deskcolor="#d1d1d1"
     inkscape:document-units="px"
     inkscape:zoom="33.45499"
     inkscape:cx="7.6520722"
     inkscape:cy="9.9088357"
     inkscape:window-width="1920"
     inkscape:window-height="994"
     inkscape:window-x="0"
     inkscape:window-y="0"
     inkscape:window-maximized="1"
     inkscape:current-layer="svg12" />
  <linearGradient
     id="_lgradient_20"
     x1="0"
     y1="0.5"
     x2="0.90748805"
     y2="0.92007786"
     gradientTransform="matrix(47,0,0,36.848,0.5,5.576)"
     gradientUnits="userSpaceOnUse">
    <stop
       offset="0%"
       stop-opacity="1"
       style="stop-color:rgb(247,241,7)"
       id="stop1" />
    <stop
       offset="83.88839793817618%"
       stop-opacity="1"
       style="stop-color:rgb(255,187,36)"
       id="stop2" />
  </linearGradient>
  <linearGradient
     id="_lgradient_21"
     x1="0"
     y1="0.5"
     x2="1"
     y2="0.5"
     gradientTransform="matrix(6,0,0,6,13,21.096)"
     gradientUnits="userSpaceOnUse">
    <stop
       offset="0%"
       stop-opacity="1"
       style="stop-color:rgb(84,51,255)"
       id="stop3" />
    <stop
       offset="51.73913043478261%"
       stop-opacity="1"
       style="stop-color:rgb(32,189,255)"
       id="stop4" />
    <stop
       offset="98.26086956521739%"
       stop-opacity="1"
       style="stop-color:rgb(165,254,203)"
       id="stop5" />
  </linearGradient>
  <linearGradient
     id="_lgradient_22"
     x1="0"
     y1="0.5"
     x2="1"
     y2="0.5"
     gradientTransform="matrix(6,0,0,6,29,21.096)"
     gradientUnits="userSpaceOnUse">
    <stop
       offset="0%"
       stop-opacity="1"
       style="stop-color:rgb(84,51,255)"
       id="stop6" />
    <stop
       offset="51.73913043478261%"
       stop-opacity="1"
       style="stop-color:rgb(32,189,255)"
       id="stop7" />
    <stop
       offset="98.26086956521739%"
       stop-opacity="1"
       style="stop-color:rgb(165,254,203)"
       id="stop8" />
  </linearGradient>
  <linearGradient
     id="_lgradient_23"
     x1="0"
     y1="0.5"
     x2="1"
     y2="0.5"
     gradientTransform="matrix(8,0,0,4,20,27.096)"
     gradientUnits="userSpaceOnUse">
    <stop
       offset="0%"
       stop-opacity="1"
       style="stop-color:rgb(255,229,59)"
       id="stop9" />
    <stop
       offset="98.69565217391305%"
       stop-opacity="1"
       style="stop-color:rgb(255,0,91)"
       id="stop10" />
  </linearGradient>
  <g
     id="g12"
     transform="matrix(0.31682733,0,0,0.31682733,-0.15841357,0.00487927)">
    <path
       d="m 3.705,37.527 c -0.009,0 -0.018,-0.01 -0.028,-0.019 l 0.047,0.037 -0.019,-0.018 v 0 L 3.677,37.517 C 3.649,37.498 3.63,37.48 3.602,37.47 3.264,37.235 2.944,36.972 2.643,36.681 v -0.01 L 2.606,36.643 C 2.587,36.624 2.568,36.605 2.559,36.596 2.267,36.305 2.013,35.994 1.788,35.665 L 1.76,35.628 1.713,35.571 C 1.703,35.553 1.684,35.534 1.675,35.515 1.468,35.186 1.28,34.848 1.12,34.49 L 1.102,34.434 1.045,34.321 C 1.045,34.302 1.036,34.293 1.026,34.284 0.885,33.917 0.763,33.532 0.679,33.146 L 0.669,33.099 0.641,32.996 c 0,-0.01 0,-0.019 -0.009,-0.038 C 0.547,32.516 0.5,32.065 0.5,31.605 0.5,29.461 1.478,27.44 3.141,26.096 2.239,24.733 1.76,23.135 1.76,21.509 c 0,-2.218 0.883,-4.343 2.453,-5.913 1.56,-1.56 3.685,-2.444 5.903,-2.444 1.645,0 3.253,0.489 4.625,1.401 1.297,-2.688 3.337,-4.954 5.866,-6.542 2.528,-1.589 5.452,-2.426 8.441,-2.435 4.22,0 8.281,1.683 11.261,4.672 2.989,2.98 4.662,7.04 4.662,11.261 0,2.265 -0.282,3.337 -1.231,5.405 2.66,-0.019 3.76,3.469 3.76,5.95 0,1.88 -0.743,3.685 -2.077,5.02 -1.326,1.325 -3.131,2.077 -5.011,2.077 -1.081,-0.009 -2.143,-0.254 -3.111,-0.724 -1.072,0.649 -2.2,1.185 -3.384,1.598 -1.325,0.47 -2.717,0.715 -4.117,0.724 -1.467,0 -2.914,-0.282 -4.277,-0.827 -0.987,-0.414 -1.937,-0.931 -2.811,-1.542 -0.235,0.254 -0.47,0.499 -0.714,0.734 -0.536,0.507 -1.119,0.958 -1.749,1.344 -1.156,0.733 -2.5,1.137 -3.872,1.156 -0.715,-0.009 -1.42,-0.113 -2.106,-0.32 C 13.566,41.888 12.889,41.578 12.25,41.202 11.564,40.788 10.906,40.309 10.304,39.783 9.862,39.388 9.43,38.974 9.026,38.542 c -0.47,0.103 -0.95,0.15 -1.429,0.15 0,0 0,0 -0.009,0 v 0 c 0,0 0,0 0,0 -0.48,0 -0.959,-0.047 -1.429,-0.141 C 6.131,38.542 6.102,38.532 6.074,38.532 5.67,38.438 5.275,38.316 4.89,38.156 L 4.862,38.147 4.796,38.119 c 0,0 -0.01,-0.01 -0.019,-0.01 C 4.401,37.95 4.044,37.752 3.705,37.527 Z m 2.369,1.005 C 6.065,38.523 6.055,38.523 6.046,38.523 L 6.027,38.514 H 6.018 l 0.113,0.028 c -0.019,-0.01 -0.038,-0.01 -0.057,-0.01 z m 1.514,-2.66 z M 5.172,35.13 V 35.12 L 5.153,35.111 5.134,35.101 5.2,35.139 C 5.191,35.139 5.181,35.13 5.172,35.12 4.965,34.979 4.777,34.829 4.608,34.65 4.598,34.641 4.58,34.622 4.561,34.613 L 4.542,34.594 v -0.01 l -0.028,-0.018 0.047,0.047 c 0,-0.01 -0.01,-0.019 -0.019,-0.019 C 4.373,34.425 4.222,34.237 4.091,34.039 4.081,34.03 4.072,34.02 4.063,34.002 L 4.034,33.964 4.016,33.945 C 3.903,33.757 3.79,33.55 3.705,33.353 3.696,33.344 3.696,33.334 3.696,33.325 L 3.668,33.278 3.64,33.203 C 3.546,32.986 3.48,32.761 3.433,32.535 c 0,-0.009 -0.01,-0.019 -0.01,-0.019 L 3.414,32.46 3.395,32.394 C 3.348,32.131 3.32,31.868 3.32,31.605 3.32,29.931 4.307,28.418 5.82,27.722 6.243,27.534 6.544,27.149 6.629,26.688 6.713,26.228 6.563,25.767 6.234,25.438 5.181,24.404 4.58,22.985 4.58,21.509 c 0,-1.466 0.582,-2.876 1.626,-3.92 1.034,-1.034 2.444,-1.617 3.91,-1.617 1.579,0 3.083,0.687 4.127,1.862 0.338,0.385 0.846,0.554 1.344,0.451 0.489,-0.104 0.893,-0.461 1.053,-0.94 0.865,-2.604 2.538,-4.869 4.766,-6.467 2.218,-1.608 4.897,-2.473 7.642,-2.482 3.478,0 6.815,1.382 9.268,3.845 2.454,2.453 3.835,5.79 3.835,9.259 0,1.87 -0.404,3.713 -1.184,5.414 0.263,1.598 1.438,2.002 2.322,2.811 0.883,0.808 1.391,1.945 1.391,3.139 0,1.138 -0.451,2.219 -1.25,3.018 -0.799,0.808 -1.89,1.259 -3.018,1.259 -1.175,-0.009 -2.293,-0.489 -3.102,-1.335 -1.306,1.016 -2.763,1.824 -4.324,2.369 -1.034,0.367 -2.105,0.555 -3.196,0.564 -1.099,-0.009 -2.19,-0.216 -3.205,-0.62 -1.645,-0.686 -3.121,-1.73 -4.305,-3.065 -0.611,1.044 -1.354,1.993 -2.228,2.82 -0.395,0.386 -0.837,0.715 -1.297,1.006 -0.715,0.451 -1.542,0.705 -2.388,0.724 -0.432,-0.009 -0.855,-0.075 -1.269,-0.197 -0.489,-0.151 -0.959,-0.358 -1.4,-0.621 -0.546,-0.329 -1.053,-0.705 -1.523,-1.118 -0.846,-0.743 -1.617,-1.57 -2.303,-2.473 -0.677,0.442 -1.476,0.677 -2.284,0.677 -0.273,0 -0.546,-0.028 -0.809,-0.075 C 6.76,35.788 6.732,35.788 6.713,35.778 6.46,35.731 6.206,35.647 5.961,35.553 c 0,-0.01 0,-0.01 -0.009,-0.01 L 5.933,35.534 5.886,35.515 C 5.661,35.421 5.435,35.299 5.228,35.158 5.209,35.148 5.191,35.139 5.172,35.13 Z m 1.607,0.667 c -0.019,0 -0.037,-0.009 -0.047,-0.009 l 0.122,0.028 H 6.836 l -0.01,-0.01 c -0.019,0 -0.028,-0.009 -0.047,-0.009 z"
       fill-rule="evenodd"
       fill="url(#_lgradient_20)"
       id="path2"
       style="fill:url(#_lgradient_20)" />
    <path
       d="m 13,24.096 c 0,-1.656 1.344,-3 3,-3 1.656,0 3,1.344 3,3 0,1.656 -1.344,3 -3,3 -1.656,0 -3,-1.344 -3,-3 z"
       id="path5"
       style="fill:url(#linearGradient15)" />
    <path
       d="m 29,24.096 c 0,-1.656 1.344,-3 3,-3 1.656,0 3,1.344 3,3 0,1.656 -1.344,3 -3,3 -1.656,0 -3,-1.344 -3,-3 z"
       id="path8"
       style="fill:url(#linearGradient13)" />
    <path
       d="m 28,27.096 c 0,2.209 -1.791,4 -4,4 -2.209,0 -4,-1.791 -4,-4 z"
       fill="url(#_lgradient_23)"
       id="path10"
       style="fill:url(#_lgradient_23)" />
    <path
       d="m 16,23.096 c 0,-0.552 0.448,-1 1,-1 0.552,0 1,0.448 1,1 0,0.552 -0.448,1 -1,1 -0.552,0 -1,-0.448 -1,-1 z"
       fill="#ffffff"
       id="path11" />
    <path
       d="m 32,23.096 c 0,-0.552 0.448,-1 1,-1 0.552,0 1,0.448 1,1 0,0.552 -0.448,1 -1,1 -0.552,0 -1,-0.448 -1,-1 z"
       fill="#ffffff"
       id="path12" />
  </g>
  <path
     style="fill:#e54b3f;stroke-width:0.581678"
     d="m 10.862615,10.118 c -0.483374,0 -0.87251,0.366241 -0.87251,0.821187 v 3.832207 h 1.199702 c 0.302109,0 0.545317,-0.259423 0.545317,-0.58167 v -3.250537 c 0,-0.454946 -0.389136,-0.821187 -0.872509,-0.821187 z"
     id="path6" />
  <path
     style="fill:#e54b3f;stroke-width:0.581678"
     d="m 7.3725637,10.699671 c -0.4833721,0 -0.8725128,0.389143 -0.8725128,0.872517 v 3.199206 h 1.7450256 v -3.199206 c 0,-0.483374 -0.3891407,-0.872517 -0.8725128,-0.872517 z"
     id="path7" />
  <path
     style="fill:#ffffff;stroke-width:0.581678"
     d="m 9.1175891,10.408831 c -0.4833721,0 -0.8725126,0.389143 -0.8725126,0.872517 v 3.490046 H 9.990105 v -3.490046 c 0,-0.483374 -0.3891438,-0.872517 -0.8725159,-0.872517 z"
     id="path8-3" />
  <path
     style="fill:#e54b3f;stroke-width:0.581678"
     d="m 3.8825126,10.118 c 0.4833729,0 0.8725127,0.366241 0.8725127,0.821187 v 3.832207 H 3.5553207 C 3.2532131,14.771394 3.01,14.511971 3.01,14.189724 V 10.939187 C 3.01,10.484241 3.3991404,10.118 3.8825126,10.118 Z"
     id="path9" />
  <path
     style="fill:#ffffff;stroke-width:0.581678"
     d="m 5.6275381,10.408831 c 0.4833727,0 0.8725128,0.389143 0.8725128,0.872517 v 3.490046 H 4.7550253 v -3.490046 c 0,-0.483374 0.3891409,-0.872517 0.8725128,-0.872517 z"
     id="path10-6" />
</svg>
