<?xml version="1.0" encoding="UTF-8" standalone="no"?>
<!-- Generator: Gravit.io -->

<svg
   style="isolation:isolate"
   viewBox="0 0 16 16"
   width="16"
   height="16"
   version="1.1"
   id="svg2"
   sodipodi:docname="chrome-fdmmgilgnpjigdojojpjoooidkmcomcm-Default.svg"
   inkscape:version="1.4.4 (unknown)"
   xmlns:inkscape="http://www.inkscape.org/namespaces/inkscape"
   xmlns:sodipodi="http://sodipodi.sourceforge.net/DTD/sodipodi-0.dtd"
   xmlns:xlink="http://www.w3.org/1999/xlink"
   xmlns="http://www.w3.org/2000/svg"
   xmlns:svg="http://www.w3.org/2000/svg">
  <defs
     id="defs2">
    <linearGradient
       id="linearGradient2"
       inkscape:collect="always">
      <stop
         style="stop-color:#ff9955;stop-opacity:1"
         offset="0"
         id="stop3" />
      <stop
         style="stop-color:#d35f8d;stop-opacity:1"
         offset="1"
         id="stop4" />
    </linearGradient>
    <linearGradient
       inkscape:collect="always"
       xlink:href="#linearGradient2"
       id="linearGradient4"
       x1="1.5"
       y1="8"
       x2="14.5"
       y2="8"
       gradientUnits="userSpaceOnUse" />
  </defs>
  <sodipodi:namedview
     id="namedview2"
     pagecolor="#ffffff"
     bordercolor="#000000"
     borderopacity="0.25"
     inkscape:showpageshadow="2"
     inkscape:pageopacity="0.0"
     inkscape:pagecheckerboard="0"
     inkscape:deskcolor="#d1d1d1"
     inkscape:document-units="px"
     inkscape:zoom="23.65625"
     inkscape:cx="7.7357992"
     inkscape:cy="4.6287979"
     inkscape:window-width="1920"
     inkscape:window-height="994"
     inkscape:window-x="0"
     inkscape:window-y="0"
     inkscape:window-maximized="1"
     inkscape:current-layer="svg2" />
  <linearGradient
     id="_lgradient_4"
     x1="0"
     y1="0.5"
     x2="1"
     y2="0.5"
     gradientTransform="matrix(13,0,0,13,1.5,1.5)"
     gradientUnits="userSpaceOnUse">
    <stop
       offset="0%"
       stop-opacity="1"
       style="stop-color:rgb(255,224,49)"
       id="stop1" />
    <stop
       offset="98.69565217391305%"
       stop-opacity="1"
       style="stop-color:rgb(252,82,82)"
       id="stop2" />
  </linearGradient>
  <path
     d="m 10.900354,4.8315208 c -0.171708,0.00542 -0.332042,0.071771 -0.453916,0.1936459 L 7.0252708,8.4463333 6.2942917,7.715625 C 9.6602083,4.3553958 10.274729,4.3220833 10.900354,4.8315208 Z M 7.1636667,8.5679375 10.573729,5.1800833 c 0.188229,-0.1825416 0.487229,-0.1825416 0.675459,0 0.09398,0.09425 0.143812,0.2215417 0.138395,0.3488334 -0.0057,0.1329791 -0.06094,0.2545833 -0.160604,0.3431458 L 7.623,9.04975 Z M 7.41825,9.0827917 6.5710833,9.2986458 c -0.016521,0.011104 -0.033042,0.011104 -0.049833,0 -0.010833,-0.016521 -0.010833,-0.038729 0,-0.05525 L 7.0361042,8.7285417 Z M 5.2591667,8.7285417 6.1615833,7.826125 6.8424583,8.5237917 5.2978958,8.8558333 c -0.033313,0.00569 -0.066354,-0.016521 -0.072042,-0.049833 -0.00542,-0.022208 0,-0.038729 0.016792,-0.05525 z M 2.4633542,13.417208 c -0.021937,-0.0054 -0.044146,-0.02194 -0.049833,-0.03873 -0.00542,-0.02221 -0.00542,-0.04415 0,-0.06094 l 0.7252916,-0.730709 0.9411458,0.935729 z m 1.8600833,-0.96877 v 0 c -0.071771,0.03873 -0.1105,0.116458 -0.093979,0.193916 l 0.1549167,0.664354 c 0.011104,0.04415 -0.011104,0.08856 -0.044146,0.1105 -0.033313,0.0279 -0.083146,0.0279 -0.1107709,0 L 3.2883125,12.448438 6.1781042,9.5535 7.5788542,9.2545 8.248625,9.9242708 C 7.0528958,10.920667 5.7352917,11.767563 4.329125,12.437604 v 0.01083 z M 9.7482292,8.4661042 C 9.3257292,8.9091875 8.8582708,9.363375 8.3870208,9.8135 L 7.744875,9.1713542 l 3.603979,-3.172 c 0.03304,-0.027625 0.06635,-0.060667 0.09398,-0.099667 -0.07935,0.7038961 -0.782166,1.609292 -1.6946038,2.566417 z M 11.199354,4.8480417 C 10.662292,4.2890417 10.6845,3.4031458 11.2435,2.8663542 11.752938,2.379125 12.539167,2.3458125 13.087063,2.788625 l -1.240146,1.2347292 c -0.03304,0.038729 -0.03304,0.093979 0,0.1327083 l 0.963354,0.9576667 C 12.267792,5.3794167 11.614542,5.2686458 11.193667,4.8369375 Z m 1.976271,0 c -0.06635,0.060938 -0.132708,0.121875 -0.210438,0.1717083 L 12.040833,4.095125 13.220042,2.9161875 c 0.509166,0.5478958 0.492645,1.4004792 -0.04442,1.9318542 z M 2.9530208,11.166042 v 0 C 2.6997917,11.324479 2.3003125,11.144917 2.0617083,10.765208 1.8439583,10.418542 1.5,9.2214583 1.5,8 1.5,6.2775 2.1852083,4.6227083 3.4039583,3.4039583 4.6227083,2.1852083 6.2775,1.5 8,1.5 c 0.82875,0 1.649375,0.1570833 1.6621042,0.1622292 0.4159998,0.1676458 0.6638128,0.5286666 0.5533128,0.806 v 0 c -0.1105,0.2773333 -0.488042,0.3870208 -0.842292,0.2451041 0,0 -0.6825,-0.13 -1.373125,-0.13 -1.4354167,0 -2.8139583,0.5714584 -3.8295833,1.5870834 C 3.1547917,5.1860417 2.5833333,6.5645833 2.5833333,8 c 0,1.0183333 0.2870834,2.015 0.3970417,2.1905 0.2383333,0.379979 0.225875,0.817104 -0.027354,0.975542 z M 13.642813,6.0865625 v 0 c 0.283291,-0.096417 0.615062,0.1275625 0.740729,0.4996875 0,0 0.116458,0.7041667 0.116458,1.41375 0,1.7225 -0.685208,3.377292 -1.903958,4.596042 C 11.377292,13.814792 9.7225,14.5 8,14.5 7.065625,14.5 6.1420833,14.299583 5.7864792,14.136 5.5148333,14.011146 5.395125,13.689396 5.5191667,13.418021 v 0 C 5.6432083,13.146646 5.9646875,13.027208 6.236875,13.15125 6.4508333,13.24875 7.2227083,13.416667 8,13.416667 c 1.4354167,0 2.813958,-0.571459 3.829583,-1.587084 C 12.845208,10.813958 13.416667,9.4354167 13.416667,8 c 0,-0.5904167 -0.09479,-1.178125 -0.09479,-1.178125 -0.106167,-0.3092917 0.03765,-0.6388958 0.320938,-0.7353125 z"
     fill-rule="evenodd"
     id="path2"
     style="fill:url(#linearGradient4)" />
</svg>
