<?xml version="1.0" encoding="UTF-8" standalone="no"?>
<!-- Generator: Gravit.io -->

<svg
   style="isolation:isolate"
   viewBox="0 0 16 16"
   width="16"
   height="16"
   version="1.1"
   id="svg2"
   sodipodi:docname="cs-privacy.svg"
   inkscape:version="1.4.4 (unknown)"
   xmlns:inkscape="http://www.inkscape.org/namespaces/inkscape"
   xmlns:sodipodi="http://sodipodi.sourceforge.net/DTD/sodipodi-0.dtd"
   xmlns:xlink="http://www.w3.org/1999/xlink"
   xmlns="http://www.w3.org/2000/svg"
   xmlns:svg="http://www.w3.org/2000/svg">
  <defs
     id="defs2">
    <linearGradient
       id="linearGradient2"
       inkscape:collect="always">
      <stop
         style="stop-color:#c83771;stop-opacity:1"
         offset="0"
         id="stop3" />
      <stop
         style="stop-color:#8d5fd3;stop-opacity:1"
         offset="1"
         id="stop4" />
    </linearGradient>
    <linearGradient
       inkscape:collect="always"
       xlink:href="#linearGradient2"
       id="linearGradient4"
       x1="3.0162909"
       y1="14.5"
       x2="10.232724"
       y2="3.9758451"
       gradientUnits="userSpaceOnUse" />
  </defs>
  <sodipodi:namedview
     id="namedview2"
     pagecolor="#ffffff"
     bordercolor="#000000"
     borderopacity="0.25"
     inkscape:showpageshadow="2"
     inkscape:pageopacity="0.0"
     inkscape:pagecheckerboard="0"
     inkscape:deskcolor="#d1d1d1"
     inkscape:document-units="px"
     inkscape:zoom="16.727495"
     inkscape:cx="13.331345"
     inkscape:cy="15.035126"
     inkscape:window-width="1920"
     inkscape:window-height="994"
     inkscape:window-x="0"
     inkscape:window-y="0"
     inkscape:window-maximized="1"
     inkscape:current-layer="svg2" />
  <linearGradient
     id="_lgradient_0"
     x1="0.061897106"
     y1="0.14716151"
     x2="0.99042481"
     y2="0.98658085"
     gradientTransform="matrix(-11.999111,0,0,13.000006,13.999109,1.4999998)"
     gradientUnits="userSpaceOnUse">
    <stop
       offset="0%"
       stop-opacity="1"
       style="stop-color:rgb(22,181,228)"
       id="stop1" />
    <stop
       offset="98.26086956521739%"
       stop-opacity="1"
       style="stop-color:rgb(245,32,250)"
       id="stop2" />
  </linearGradient>
  <path
     d="m 3.6332125,8.4015932 v 0 C 3.5172212,8.1081286 3.1395824,7.9489471 2.7899414,8.0463024 v 0 C 2.4403007,8.1436577 2.2506485,8.4606218 2.3666398,8.7540864 v 0 l 0.2066511,0.5231447 c 0,0 0,0.0028 0,0.0028 0.2299829,0.5707032 0.5266277,1.1190259 0.8866011,1.6365759 0.3599736,0.52874 0.776609,1.032301 1.2399083,1.499495 0.4399675,0.44761 0.9299316,0.86165 1.4665587,1.228131 0.246648,0.170651 0.506629,0.327315 0.779942,0.469991 0.253315,0.134283 0.523296,0.248983 0.803273,0.3441 0.153322,0.05315 0.326643,0.05595 0.483298,0.0056 l 0.339975,-0.106308 c 0.0028,0 0.0028,0 0.0076,0 0.773273,-0.251781 1.493218,-0.609869 2.129843,-1.05748 0.65329,-0.456003 1.22657,-0.984743 1.706534,-1.569434 0.486632,-0.584691 0.873275,-1.222536 1.153247,-1.8939514 C 13.846682,9.1793227 13.993326,8.4883241 14,7.7917303 c 0,-0.0028 0,-0.0028 0,-0.0056 V 4.4122652 C 14,3.7945628 13.534026,3.3044293 12.960073,3.3184171 v 0 C 12.195913,3.312822 11.442635,3.184134 10.736017,2.9407459 10.33938,2.8036652 9.956075,2.6414064 9.58944,2.4539696 9.046144,2.1770106 8.536182,1.8552906 8.062881,1.4999998 7.452928,1.8273149 6.819645,2.1266544 6.173023,2.3980183 5.7363901,2.5826576 5.2930898,2.7477139 4.8364568,2.8931873 4.4498189,3.0162802 4.0565145,3.1169925 3.6532111,3.1925267 3.3199024,3.2596683 2.9799275,3.2988342 2.6366195,3.3100244 2.466632,3.3184171 2.3033108,3.3799636 2.1833199,3.4834735 2.0666616,3.5869834 2,3.7268617 2,3.8695375 v 1.9582957 0 c 0,0.3088512 0.2986451,0.5595131 0.6666175,0.5595131 v 0 c 0.3679727,0 0.6666171,-0.2506619 0.6666171,-0.5595131 v 0 V 4.381492 C 3.543219,4.3563139 3.7498707,4.3227431 3.9531889,4.2835772 4.4164877,4.1940551 4.8664547,4.0793549 5.3097552,3.9394766 5.8063849,3.7800154 6.29635,3.6009712 6.769644,3.3995465 7.169617,3.2316926 7.559591,3.0554461 7.946227,2.8680092 c 0.306643,0.193032 0.619955,0.3720761 0.946598,0.53993 0.426635,0.2210077 0.873268,0.4112421 1.339899,0.5679058 0.773272,0.2685663 1.596548,0.4224323 2.433153,0.4560031 v 3.3514832 c -0.0076,0.5735008 -0.126658,1.1414066 -0.353307,1.6813367 -0.239984,0.579096 -0.573289,1.127419 -0.989926,1.628183 -0.413303,0.503562 -0.906601,0.956768 -1.469891,1.348427 -0.519962,0.369278 -1.11325,0.663023 -1.749871,0.870043 l -0.08325,0.02518 C 7.892894,13.286141 7.769573,13.227394 7.652915,13.165847 7.429599,13.04835 7.212947,12.919662 7.009628,12.779783 6.542995,12.458063 6.11303,12.097177 5.729724,11.702721 5.313088,11.283086 4.9397824,10.832678 4.61314,10.357091 4.2964966,9.9038856 4.0365159,9.4227045 3.8398639,8.9247379 Z m 1.839864,-0.2349955 v 0 C 5.3867494,7.9472686 5.1044369,7.8283721 4.8431229,7.900829 v 0 C 4.5818089,7.9732859 4.4401528,8.2102397 4.5264798,8.4295688 v 0 c 0.3133101,0.8029013 0.7732761,1.2812849 1.356566,1.9666882 0.6066232,0.704987 0.6599492,0.774926 1.4732252,1.309261 v 0 c 0.216983,0.143515 0.532293,0.112183 0.703281,-0.06994 v 0 c 0.170987,-0.182121 0.133656,-0.446771 -0.08325,-0.590286 v 0 C 7.236279,10.558516 7.246281,10.547326 6.69632,9.9066832 6.169691,9.2884214 5.7597219,8.8883695 5.4730765,8.1665977 Z m 5.3596025,-0.148271 v 0 c 0,0.2316384 0.22398,0.4196348 0.49996,0.4196348 v 0 c 0.275981,0 0.499968,-0.1879964 0.499968,-0.4196348 v 0 -2.7975652 c 0,-0.1007123 -0.04331,-0.1958295 -0.119992,-0.2713638 C 11.635958,4.8738637 11.529294,4.8235073 11.412638,4.8067219 10.849341,4.7311879 10.29605,4.6052972 9.766093,4.4290506 9.242795,4.2556015 8.746166,4.0317963 8.289535,3.7604325 v 0 C 8.063218,3.6261493 7.750242,3.6706305 7.591253,3.8597465 v 0 c -0.158987,0.1891154 -0.105954,0.450408 0.11832,0.5832924 v 0 c 0.526629,0.3133273 1.093252,0.5707033 1.689875,0.7665329 0.4633,0.1538661 0.943267,0.2741614 1.433228,0.3608859 z M 8.610509,8.3755758 C 8.975815,8.1979304 9.2218,7.8664189 9.2218,7.4870691 9.2218,6.9208419 8.674174,6.461202 7.999559,6.461202 c -0.674619,0 -1.222248,0.4596399 -1.222248,1.0258671 0,0.3793498 0.245981,0.7108613 0.61129,0.8885067 v 0.8210854 c 0,0.1888357 0.18232,0.3418625 0.4073,0.3418625 h 0.407305 c 0.224984,0 0.407303,-0.1530268 0.407303,-0.3418625 z"
     fill-rule="evenodd"
     id="path2"
     style="fill:url(#linearGradient4)" />
</svg>
