<?xml version="1.0" encoding="UTF-8" standalone="no"?>
<svg
   width="16"
   height="16"
   version="1.1"
   id="svg2"
   sodipodi:docname="preferences-system-notifications.svg"
   inkscape:version="1.4.4 (unknown)"
   xmlns:inkscape="http://www.inkscape.org/namespaces/inkscape"
   xmlns:sodipodi="http://sodipodi.sourceforge.net/DTD/sodipodi-0.dtd"
   xmlns:xlink="http://www.w3.org/1999/xlink"
   xmlns="http://www.w3.org/2000/svg"
   xmlns:svg="http://www.w3.org/2000/svg">
  <defs
     id="defs2">
    <linearGradient
       id="linearGradient1"
       inkscape:collect="always">
      <stop
         style="stop-color:#ffcc00;stop-opacity:1"
         offset="0"
         id="stop1" />
      <stop
         style="stop-color:#e580ff;stop-opacity:1"
         offset="1"
         id="stop2" />
    </linearGradient>
    <linearGradient
       inkscape:collect="always"
       xlink:href="#linearGradient1"
       id="linearGradient2"
       x1="0"
       y1="4"
       x2="6"
       y2="7"
       gradientUnits="userSpaceOnUse" />
    <linearGradient
       inkscape:collect="always"
       xlink:href="#linearGradient1"
       id="linearGradient4"
       x1="3.6901805"
       y1="3.950443"
       x2="12.857142"
       y2="13"
       gradientUnits="userSpaceOnUse" />
  </defs>
  <sodipodi:namedview
     id="namedview2"
     pagecolor="#ffffff"
     bordercolor="#000000"
     borderopacity="0.25"
     inkscape:showpageshadow="2"
     inkscape:pageopacity="0.0"
     inkscape:pagecheckerboard="0"
     inkscape:deskcolor="#d1d1d1"
     inkscape:zoom="48.4375"
     inkscape:cx="7.9793548"
     inkscape:cy="8"
     inkscape:window-width="1920"
     inkscape:window-height="994"
     inkscape:window-x="0"
     inkscape:window-y="0"
     inkscape:window-maximized="1"
     inkscape:current-layer="svg2" />
  <g
     id="g2"
     transform="matrix(1.0785186,0,0,1.0833333,1.0666666,0.4166669)">
    <path
       d="m 6.6171425,2.7142858 c 0.099429,0.2725717 0.1602858,0.5605717 0.198,0.8571425 H 12 V 10.428575 H 1.7142858 V 7.6214283 a 3.9085717,3.9085717 0 0 1 -0.85714297,-0.432 v 3.2391467 c 0,0.471425 0.38571467,0.857142 0.85714297,0.857142 h 6 L 9.4285739,13 11.142858,11.285717 H 12 c 0.471425,0 0.857142,-0.385717 0.857142,-0.857142 V 3.5714283 C 12.857142,3.1 12.471425,2.7142858 12,2.7142858 Z"
       id="path1"
       style="stroke-width:0.857139;fill:url(#linearGradient4)" />
    <path
       d="M 3,1 C 1.3457142,1 0,2.3457142 0,4 0,5.6542858 1.3457142,7 3,7 4.6542858,7 6,5.6542858 6,4 6,2.3457142 4.6542858,1 3,1 Z M 2.5714283,1.8571425 H 3.4285717 V 4.4285717 H 2.5714283 Z m 0,3.4285717 H 3.4285717 V 6.1428575 H 2.5714283 Z"
       id="path2"
       style="stroke-width:0.857139;fill:url(#linearGradient2)" />
  </g>
</svg>
