<?xml version="1.0" encoding="UTF-8" standalone="no"?>
<svg
   width="16"
   height="16"
   version="1.1"
   id="svg1"
   sodipodi:docname="protonplus.svg"
   inkscape:version="1.4.4 (unknown)"
   xmlns:inkscape="http://www.inkscape.org/namespaces/inkscape"
   xmlns:sodipodi="http://sodipodi.sourceforge.net/DTD/sodipodi-0.dtd"
   xmlns:xlink="http://www.w3.org/1999/xlink"
   xmlns="http://www.w3.org/2000/svg"
   xmlns:svg="http://www.w3.org/2000/svg">
  <defs
     id="defs1">
    <linearGradient
       id="linearGradient1"
       inkscape:collect="always">
      <stop
         style="stop-color:#bc5fd3;stop-opacity:1"
         offset="0"
         id="stop1" />
      <stop
         style="stop-color:#ffb380;stop-opacity:1"
         offset="1"
         id="stop2" />
    </linearGradient>
    <linearGradient
       inkscape:collect="always"
       xlink:href="#linearGradient1"
       id="linearGradient2"
       x1="2.9444447"
       y1="11.79871"
       x2="11.665323"
       y2="2.9988344"
       gradientUnits="userSpaceOnUse" />
  </defs>
  <sodipodi:namedview
     id="namedview1"
     pagecolor="#ffffff"
     bordercolor="#000000"
     borderopacity="0.25"
     inkscape:showpageshadow="2"
     inkscape:pageopacity="0.0"
     inkscape:pagecheckerboard="0"
     inkscape:deskcolor="#d1d1d1"
     inkscape:zoom="12.109375"
     inkscape:cx="17.754839"
     inkscape:cy="17.796129"
     inkscape:window-width="1920"
     inkscape:window-height="994"
     inkscape:window-x="0"
     inkscape:window-y="0"
     inkscape:window-maximized="1"
     inkscape:current-layer="svg1" />
  <path
     d="m 2.9444446,1.5004254 v 1.0000633 a 1.0077518,0.99665823 0 0 1 1.010764,1.0000712 V 7.0003624 H 2.9444446 V 8.000425 a 1.0077518,0.99665823 0 0 1 1.010764,0.9996379 v 0.5000338 h 1.516795 l -1.516795,1.5000973 v 1.5001 a 1.0077518,0.99665823 0 0 1 -1.010764,1.000069 V 14.5 h 5.055555 V 13.500363 A 1.0077518,0.99665823 0 0 1 6.9887966,12.500295 V 9.4996706 h 1.516795 c 2.2394464,0 4.0439304,-1.7846083 4.0439304,-3.9994052 C 12.549522,3.2854688 10.745038,1.5 8.5055916,1.5 Z m 4.043922,2.50016 h 1.011633 c 0.83893,0 1.5163638,0.6699767 1.5163638,1.49968 0,0.829698 -0.6774338,1.500097 -1.5163638,1.500097 h -1.011203 z m 3.0335964,5.9995486 v 1.500097 H 8.5051606 v 1.500098 H 10.021963 V 14.5 h 1.516795 v -1.499245 h 1.516797 V 11.500657 H 11.538327 V 10.00056 Z"
     id="path1"
     style="fill:url(#linearGradient2)" />
</svg>
