<?xml version="1.0" encoding="UTF-8" standalone="no"?>
<!-- Generator: Gravit.io -->

<svg
   style="isolation:isolate"
   viewBox="0 0 16 16"
   width="16"
   height="16"
   version="1.1"
   id="svg4"
   sodipodi:docname="com.prusa3d.PrusaSlicer.GCodeViewer.svg"
   inkscape:version="1.4.4 (unknown)"
   xmlns:inkscape="http://www.inkscape.org/namespaces/inkscape"
   xmlns:sodipodi="http://sodipodi.sourceforge.net/DTD/sodipodi-0.dtd"
   xmlns:xlink="http://www.w3.org/1999/xlink"
   xmlns="http://www.w3.org/2000/svg"
   xmlns:svg="http://www.w3.org/2000/svg">
  <defs
     id="defs4">
    <linearGradient
       id="linearGradient7"
       inkscape:collect="always">
      <stop
         style="stop-color:#ffb380;stop-opacity:1"
         offset="0"
         id="stop7" />
      <stop
         style="stop-color:#bc5fd3;stop-opacity:1"
         offset="1"
         id="stop8" />
    </linearGradient>
    <linearGradient
       id="linearGradient4"
       inkscape:collect="always">
      <stop
         style="stop-color:#bc5fd3;stop-opacity:1"
         offset="0"
         id="stop5" />
      <stop
         style="stop-color:#ffb380;stop-opacity:1"
         offset="1"
         id="stop6" />
    </linearGradient>
    <linearGradient
       inkscape:collect="always"
       xlink:href="#linearGradient4"
       id="linearGradient6"
       x1="3.4384451"
       y1="14.635854"
       x2="13.206448"
       y2="6.1884809"
       gradientUnits="userSpaceOnUse" />
    <linearGradient
       inkscape:collect="always"
       xlink:href="#linearGradient7"
       id="linearGradient8"
       x1="4.0833422"
       y1="6.1974094"
       x2="13.206448"
       y2="1.6358545"
       gradientUnits="userSpaceOnUse" />
  </defs>
  <sodipodi:namedview
     id="namedview4"
     pagecolor="#ffffff"
     bordercolor="#000000"
     borderopacity="0.25"
     inkscape:showpageshadow="2"
     inkscape:pageopacity="0.0"
     inkscape:pagecheckerboard="0"
     inkscape:deskcolor="#d1d1d1"
     inkscape:document-units="px"
     inkscape:zoom="16.727495"
     inkscape:cx="9.3259632"
     inkscape:cy="8.4591268"
     inkscape:window-width="1920"
     inkscape:window-height="994"
     inkscape:window-x="0"
     inkscape:window-y="0"
     inkscape:window-maximized="1"
     inkscape:current-layer="svg4" />
  <linearGradient
     id="_lgradient_21"
     x1="0"
     y1="0.5"
     x2="1"
     y2="0.5"
     gradientTransform="matrix(9.1229573,0,0,9.1229573,3.4385975,5.512897)"
     gradientUnits="userSpaceOnUse">
    <stop
       offset="0%"
       stop-opacity="1"
       style="stop-color:rgb(255,229,59)"
       id="stop1" />
    <stop
       offset="98.69565217391305%"
       stop-opacity="1"
       style="stop-color:rgb(255,0,91)"
       id="stop2" />
  </linearGradient>
  <linearGradient
     id="_lgradient_22"
     x1="0.5423519"
     y1="0.06442643"
     x2="0.15473688"
     y2="0.91872227"
     gradientTransform="matrix(9.1229573,0,0,9.1229573,4.0833421,1.6358545)"
     gradientUnits="userSpaceOnUse">
    <stop
       offset="0%"
       stop-opacity="1"
       style="stop-color:rgb(175,104,229)"
       id="stop3" />
    <stop
       offset="98.26086956521739%"
       stop-opacity="1"
       style="stop-color:rgb(250,172,128)"
       id="stop4" />
  </linearGradient>
  <g
     id="g4"
     transform="translate(-0.32244644,-0.13585425)">
    <path
       d="m 9.6163639,12.878365 -0.138298,-0.07579 v -0.765063 0 0 0 0 -0.0697 l -0.08215,-0.03872 c -0.01964,-0.0091 -0.03762,-0.01 -0.05172,-0.0039 -0.01023,0.0041 -0.01825,0.01189 -0.02517,0.0213 -0.0028,0.01051 -0.0053,0.02185 -0.0053,0.03485 v 0.831446 c 0,0.04536 0.03208,0.09985 0.07164,0.121979 l 0.07219,0.04011 c -0.598277,0.344638 -1.281745,0.53051 -1.982915,0.53051 -0.9921492,0 -1.9500003,-0.370085 -2.6791066,-1.042766 L 5.9343209,11.32362 5.1346826,10.523982 3.6056614,12.052726 c -0.1017873,0.101788 -0.1582128,0.234554 -0.1667873,0.375894 -0.00553,0.14134 0.042596,0.279915 0.1330426,0.387234 0.9664255,1.153128 2.3964255,1.82 3.9027662,1.82 1.347851,0 2.6450851,-0.534106 3.6004471,-1.486426 0.952319,-0.955361 1.486425,-2.252595 1.486425,-3.6004458 0,-1.5063405 -0.666872,-2.9363405 -1.82,-3.9030426 -0.107319,-0.09017 -0.245894,-0.1382979 -0.387234,-0.132766 -0.14134,0.00857 -0.274106,0.065 -0.3758941,0.1667873 l -1.065446,1.0682127 0.797149,0.797149 0.4276171,-0.4259575 c -5.54e-4,0.00415 -8.3e-4,0.00857 -8.3e-4,0.013 v 0.8314468 c 0,0.045362 0.03209,0.1001277 0.07164,0.1219788 l 0.468,0.2611064 v 0 c 0.03872,0.023234 0.08906,0.010787 0.112575,-0.027936 v 0 c 0.02323,-0.038723 0.01079,-0.08934 -0.02794,-0.1128511 v 0 0 L 10.300938,7.9535779 v -0.7650638 0 0 0 0 0 0 0 0 0 0 0 0 -0.069702 l -0.08187,-0.038447 c -0.01217,-0.00581 -0.02379,-0.0083 -0.0343,-0.00802 l -0.04509,0.045085 c 0.0025,0.0083 0.0091,0.016319 0.02047,0.022957 l 0.112298,0.064723 0.02849,-0.016596 0.242575,-0.1399575 v 0 c 0.274106,0.3357873 0.489021,0.7130639 0.638383,1.1146809 l -0.07772,0.042872 v 0 0 0 0 0 0 0 0 0 0 0 0 c -0.03872,0.023511 -0.05117,0.074128 -0.02794,0.1128511 v 0 c 0.02351,0.038723 0.07385,0.05117 0.112574,0.027936 v 0 l 0.04785,-0.02683 c 0.127788,0.3935957 0.194447,0.8082127 0.194447,1.2289149 0,0.195 -0.01438,0.3888936 -0.04259,0.5797445 L 11.030598,9.9185141 c -0.039,-0.022958 -0.102617,-0.023234 -0.141894,-5.532e-4 l -0.721638,0.4165531 -0.0069,0.0039 c -0.0089,0.0053 -0.01494,0.01134 -0.01798,0.01743 -0.008,0.01466 -0.0019,0.03125 0.01798,0.04287 l 0.112298,0.06472 0.02849,-0.0166 0.64917,-0.374511 0.408809,0.229852 v 0 c -0.106213,0.549872 -0.327766,1.072084 -0.65166,1.52985 -0.0014,-0.01825 -0.01189,-0.0343 -0.02794,-0.04564 v 0 l -0.471872,-0.277426 c -0.039,-0.02296 -0.102617,-0.02323 -0.141617,-5.53e-4 l -0.7216391,0.41683 -0.0072,0.0039 c -0.0086,0.0053 -0.01466,0.01106 -0.01798,0.01743 -0.008,0.01466 -0.0019,0.03125 0.01798,0.0426 l 0.112298,0.065 0.02877,-0.0166 0.6488931,-0.374788 0.456937,0.256958 v 0 0 0 0 0 c 0.01632,0.01189 0.0354,0.01687 0.05338,0.01162 -0.110085,0.146872 -0.230957,0.28683 -0.362063,0.418213 -0.201639,0.200808 -0.4226391,0.377829 -0.6588511,0.528851 z m 0.8187231,-5.9567658 -0.23483,0.1355319 0.188085,-0.1872553 c 0.01577,0.016872 0.03126,0.034298 0.04675,0.051723 z M 6.9203848,10.492727 v 0.765063 l 0.4599791,0.252532 v 0 0 c 0.03872,0.02351 0.05145,0.07413 0.02794,0.112851 v 0 c -0.02323,0.03872 -0.07357,0.05117 -0.112298,0.02794 v 0 L 6.8277252,11.39028 c -0.039553,-0.02213 -0.071638,-0.07689 -0.071638,-0.122256 v -0.831446 c 0,-0.013 0.00249,-0.02406 0.00553,-0.03458 0.00664,-0.0094 0.014936,-0.01715 0.024894,-0.02157 0.014106,-0.0061 0.032085,-0.0053 0.051723,0.0042 l 0.082149,0.03872 z m 3.3805532,-0.04592 v 0.765063 l 0.460255,0.252256 v 0 0 c 0.03872,0.02379 0.05117,0.0744 0.02794,0.113127 v 0 c -0.02351,0.03872 -0.07385,0.05117 -0.112575,0.02766 v 0 l -0.468,-0.26083 c -0.03955,-0.02213 -0.07164,-0.07662 -0.07164,-0.121979 v -0.831446 c 0,-0.013 0.0022,-0.02406 0.0053,-0.03485 0.0069,-0.0091 0.01494,-0.01715 0.02489,-0.0213 0.01438,-0.0061 0.03236,-0.0053 0.052,0.0039 l 0.08187,0.03872 z M 7.8176609,8.7310885 v 0.7650639 l 0.459979,0.2522553 v 0 0 c 0.03872,0.023511 0.05117,0.074128 0.02794,0.1128511 v 0 c -0.02323,0.038723 -0.07357,0.051447 -0.112574,0.027936 v 0 l -0.468,-0.2608298 C 7.6854559,9.606237 7.6533659,9.551748 7.6533659,9.5063863 V 8.6749396 c 0,-0.013 0.0025,-0.02434 0.0055,-0.034851 0.0066,-0.0094 0.01494,-0.017149 0.02489,-0.021298 0.01411,-0.00609 0.03209,-0.00526 0.05172,0.00387 l 0.08215,0.038723 v 0.069702 0 z m 1.687511,0.173149 v 0.7650638 l 0.459979,0.2525319 v 0 0 c 0.03872,0.023511 0.05145,0.074128 0.02794,0.1128508 v 0 c -0.02323,0.03872 -0.07357,0.05117 -0.112298,0.02794 v 0 l -0.46828,-0.2608293 c -0.03955,-0.022128 -0.07164,-0.076894 -0.07164,-0.1222553 V 8.8480885 c 0,-0.013 0.0025,-0.024064 0.0055,-0.034574 0.0066,-0.0094 0.01494,-0.017149 0.02489,-0.021574 0.01411,-0.00609 0.03209,-0.00526 0.05172,0.00415 l 0.08215,0.038723 v 0.069426 0 0 0 0 0 0 0 z m -0.891745,1.5884895 v 0.765063 l 0.460256,0.252532 v 0 0 c 0.03872,0.02351 0.05117,0.07413 0.02766,0.112851 v 0 c -0.02323,0.03872 -0.07357,0.05117 -0.112298,0.02794 v 0 l -0.468,-0.260829 c -0.03955,-0.02213 -0.07191,-0.07689 -0.07191,-0.122256 v -0.83145 c 0,-0.013 0.0025,-0.02406 0.0055,-0.03458 0.0069,-0.0094 0.01494,-0.01715 0.02489,-0.02157 0.01411,-0.0061 0.03236,-0.0053 0.052,0.0042 l 0.08187,0.03872 v 0.06943 0 0 0 0 0 0 0 0 0 0 z m -0.897276,1.544787 v 0.765063 l 0.460255,0.252256 v 0 0 c 0.03872,0.02351 0.05117,0.07413 0.02794,0.112851 v 0 c -0.02351,0.03872 -0.07385,0.05145 -0.112574,0.02794 v 0 l -0.468,-0.26083 c -0.03955,-0.02213 -0.07164,-0.07662 -0.07164,-0.121979 v -0.831446 c 0,-0.013 0.0022,-0.02434 0.0053,-0.03485 0.0069,-0.0094 0.01494,-0.01715 0.02489,-0.0213 0.01438,-0.0061 0.03236,-0.0053 0.052,0.0039 l 0.08187,0.03872 v 0.0697 0 0 0 0 0 0 0 0 0 0 0 0 0 z m -1.6814257,0 v 0.765063 l 0.4599787,0.252256 v 0 c 0.038723,0.02351 0.051447,0.07413 0.027936,0.112851 v 0 c -0.023234,0.03872 -0.073574,0.05145 -0.1122979,0.02794 v 0 l -0.4682766,-0.26083 c -0.039553,-0.02213 -0.071638,-0.07662 -0.071638,-0.121979 v -0.831446 c 0,-0.013 0.00249,-0.02434 0.00553,-0.03485 0.00664,-0.0094 0.014936,-0.01715 0.024894,-0.0213 0.014106,-0.0061 0.032085,-0.0053 0.051723,0.0039 l 0.082149,0.03872 v 0.0697 0 0 0 0 0 0 0 0 0 0 0 0 0 0 0 0 z m 1.1058297,-0.11783 v 0 c 0.03679,0.02655 0.08823,0.01825 0.114787,-0.01853 v 0 c 0.02628,-0.03679 0.0177,-0.08823 -0.01909,-0.114787 v 0 L 6.7643848,11.508939 c -0.039,-0.02296 -0.102617,-0.02323 -0.1418936,-5.53e-4 l -0.7216383,0.41683 -0.00691,0.0039 c -0.00885,0.0053 -0.014936,0.01106 -0.017979,0.01743 -0.00802,0.01466 -0.00194,0.03125 0.017979,0.0426 l 0.1120212,0.065 0.028766,-0.0166 0.6488936,-0.374788 0.4569362,0.256958 v 0 0 0 0 0 0 0 0 0 0 0 0 0 0 0 0 z m -0.3025957,1.135149 v 0 c -0.038723,0.02351 -0.05117,0.07413 -0.027936,0.112851 v 0 c 0.023234,0.03872 0.073574,0.05145 0.1125744,0.02794 v 0 l 0.4680003,-0.26083 c 0.03955,-0.02213 0.07164,-0.07662 0.07164,-0.121979 v -0.576978 c 0,-0.04508 -0.03623,-0.07745 -0.08104,-0.07164 v 0 c -0.04591,0.0058 -0.08325,0.04841 -0.08325,0.09487 v 0.54351 l -0.4599786,0.252256 v 0 0 0 0 0 0 0 0 0 0 0 0 0 0 0 z m 1.9840217,-1.135149 v 0 c 0.03706,0.02655 0.08851,0.01825 0.114787,-0.01853 v 0 c 0.02628,-0.03679 0.01798,-0.08823 -0.01909,-0.114787 v 0 l -0.471873,-0.277426 c -0.039,-0.02296 -0.102617,-0.02323 -0.141893,-5.53e-4 l -0.721639,0.41683 -0.0069,0.0039 c -0.0089,0.0053 -0.01494,0.01106 -0.01798,0.01743 -0.008,0.01466 -0.0019,0.03125 0.01798,0.0426 l 0.112297,0.065 0.02849,-0.0166 0.64917,-0.374788 0.45666,0.256958 v 0 0 0 0 0 0 0 0 0 0 0 0 0 z m -0.302596,1.135149 v 0 c -0.03872,0.02351 -0.05117,0.07413 -0.02794,0.112851 v 0 c 0.02351,0.03872 0.07385,0.05145 0.112574,0.02794 v 0 l 0.468,-0.26083 c 0.03955,-0.02213 0.07164,-0.07662 0.07164,-0.121979 v -0.576978 c 0,-0.04508 -0.03623,-0.07745 -0.08104,-0.07164 v 0 c -0.04591,0.0058 -0.08298,0.04841 -0.08298,0.09487 v 0.54351 l -0.460255,0.252256 v 0 0 0 0 0 0 0 0 0 z m 1.199872,-2.679659 v 0 c 0.03706,0.02655 0.08823,0.01825 0.114787,-0.01881 v 0 c 0.02628,-0.03679 0.0177,-0.08823 -0.01909,-0.114511 v 0 L 9.3430869,9.964429 c -0.039,-0.022958 -0.102617,-0.023234 -0.141894,-5.532e-4 l -0.721638,0.4165532 -0.0069,0.0042 c -0.0089,0.005 -0.01494,0.01106 -0.01798,0.01742 -0.008,0.01466 -0.0019,0.03098 0.01798,0.0426 l 0.112021,0.06472 0.02877,-0.0166 0.648894,-0.374511 0.456936,0.256958 v 0 0 0 0 0 0 0 0 0 0 z m -0.302596,1.135148 v 0 c -0.03872,0.02351 -0.05117,0.07413 -0.02794,0.112851 v 0 c 0.02323,0.03872 0.07385,0.05117 0.112575,0.02794 v 0 l 0.468,-0.260829 c 0.03955,-0.02213 0.07164,-0.07689 0.07164,-0.122256 v -0.576705 c 0,-0.04536 -0.03623,-0.07745 -0.08104,-0.07164 v 0 c -0.04592,0.0058 -0.08298,0.04813 -0.08298,0.0946 v 0.54351 l -0.460256,0.252532 v 0 0 0 0 0 0 0 0 0 z M 10.611002,8.7866843 v 0 c 0.03679,0.026553 0.08823,0.017979 0.114787,-0.018809 v 0 c 0.02628,-0.036787 0.0177,-0.088234 -0.01909,-0.1145107 v 0 l -0.471867,-0.277425 c -0.03928,-0.022957 -0.102617,-0.023234 -0.141894,-5.532e-4 l -0.7216381,0.4165532 -0.0069,0.00415 c -0.0089,0.00498 -0.01494,0.011064 -0.01798,0.017426 -0.0083,0.014659 -0.0019,0.030979 0.01798,0.042596 l 0.112021,0.064723 0.02877,-0.016596 0.6488941,-0.3745107 0.456936,0.2569575 v 0 0 0 0 0 0 0 z m -0.302596,1.1351489 v 0 c -0.03872,0.023511 -0.05117,0.074128 -0.02794,0.1128508 v 0 c 0.02323,0.03872 0.07357,0.05117 0.112298,0.02794 v 0 L 10.86104,9.8017905 c 0.03955,-0.022128 0.07164,-0.076894 0.07164,-0.1222553 v -0.576702 c 0,-0.045362 -0.03623,-0.077447 -0.08104,-0.071638 v 0 c -0.04591,0.00581 -0.08325,0.048128 -0.08325,0.094596 v 0.5435106 l -0.459979,0.2525319 v 0 0 0 0 0 0 z M 8.9234909,8.6132588 v 0 c 0.03679,0.026553 0.08823,0.018255 0.114787,-0.018532 v 0 c 0.02628,-0.036787 0.0177,-0.088234 -0.01908,-0.1147872 v 0 L 8.5473209,8.2025141 c -0.03928,-0.022958 -0.102617,-0.023234 -0.141894,-5.532e-4 l -0.721638,0.4168298 -0.0072,0.00387 c -0.0086,0.00526 -0.01466,0.011064 -0.0177,0.017425 -0.0083,0.01466 -0.0022,0.031255 0.0177,0.042596 l 0.112298,0.065 0.02876,-0.016596 0.648894,-0.3747872 0.456936,0.2569575 v 0 z m -0.302595,1.1351489 v 0 c -0.03872,0.023511 -0.05145,0.074128 -0.02794,0.1128511 v 0 c 0.02323,0.038723 0.07357,0.051447 0.112298,0.027936 v 0 L 9.1735309,9.628365 c 0.03955,-0.022128 0.07164,-0.076617 0.07164,-0.1219787 V 8.9294077 c 0,-0.045085 -0.03651,-0.077447 -0.08104,-0.071638 v 0 c -0.04591,0.00581 -0.08326,0.048404 -0.08326,0.094872 v 0.5435107 l -0.459978,0.2522553 z m -0.594681,0.6267663 v 0 c 0.03679,0.02655 0.08823,0.01825 0.114787,-0.01881 v 0 c 0.02628,-0.03679 0.0177,-0.08823 -0.01909,-0.114511 v 0 L 7.6500439,9.964429 C 7.6107679,9.941471 7.5474269,9.941195 7.5081509,9.9638758 l -0.7216385,0.4165532 -0.00691,0.0042 c -0.00885,0.005 -0.014936,0.01106 -0.017979,0.01742 -0.00802,0.01466 -0.00194,0.03098 0.017979,0.0426 l 0.1120213,0.06472 0.028766,-0.0166 0.6488932,-0.374511 z m -0.302596,1.135148 v 0 c -0.03872,0.02351 -0.05117,0.07413 -0.02794,0.112851 v 0 c 0.02323,0.03872 0.07357,0.05117 0.112574,0.02794 v 0 l 0.468,-0.260829 c 0.03955,-0.02213 0.07164,-0.07689 0.07164,-0.122256 v -0.576705 c 0,-0.04536 -0.03623,-0.07745 -0.08104,-0.07164 v 0 c -0.04592,0.0058 -0.08326,0.04813 -0.08326,0.0946 v 0.54351 z"
       fill-rule="evenodd"
       id="path2"
       style="fill:url(#linearGradient6)" />
    <path
       d="m 7.5147889,3.1278119 v 0.4397873 0 0 0 0 0.069702 l 0.08187,0.038723 c 0.01964,0.00913 0.03762,0.00996 0.05172,0.00387 0.01023,-0.00415 0.01825,-0.011894 0.02517,-0.021298 0.0028,-0.010511 0.0053,-0.021851 0.0053,-0.034851 V 3.0570034 c 0.05615,-0.022681 0.112851,-0.044255 0.170107,-0.064447 v 0.3767234 c 0,0.045085 0.03623,0.07717 0.08104,0.071638 v 0 c 0.04592,-0.00581 0.08326,-0.048404 0.08326,-0.094872 v -0.4074255 0 c 0.372021,-0.1131277 0.761744,-0.1723192 1.157,-0.1723192 0.01355,0 0.02683,0 0.04038,2.766e-4 l 0.06583,0.035958 v 0.7650638 0 0 0 0 0 0 0 0 0 0 0 0 0 0 0 0 0 0 0 0 0 0.069702 l 0.08187,0.038723 c 0.01964,0.00913 0.03789,0.00996 0.052,0.00387 0.01,-0.00415 0.01825,-0.011894 0.02489,-0.021298 0.003,-0.010511 0.0055,-0.021851 0.0055,-0.034851 V 2.7923013 c 0,-0.00498 -5.53e-4,-0.00996 -0.0019,-0.015489 0.03125,5.532e-4 0.06196,0.00304 0.09238,0.00885 -5.53e-4,0.00221 -8.3e-4,0.00443 -8.3e-4,0.00664 V 3.369281 c 0,0.045085 0.03651,0.07717 0.08132,0.071638 v 0 c 0.04564,-0.00581 0.08298,-0.048404 0.08298,-0.094872 V 2.8025354 l 0.0025,-0.00138 v 0 c 0.4403401,0.058915 0.8665741,0.190851 1.2607231,0.39 v 0.3764468 0 0 0 0 0 0 0 0 0 0 0 0 0 0 0 0 0 0 0 0 0 0 0 0 0.069702 l 0.08215,0.038723 c 0.01964,0.00913 0.03762,0.00996 0.05172,0.00387 0.01023,-0.00415 0.01826,-0.011894 0.02517,-0.021298 0.0028,-0.010511 0.0053,-0.021851 0.0053,-0.034851 V 3.2791098 c 0.26,0.147149 0.50451,0.3244468 0.72717,0.5299575 l -0.943833,0.9440212 0.799639,0.7996383 1.334021,-1.3337446 c 0.101787,-0.1017873 0.158213,-0.2345532 0.166787,-0.3758937 0.0055,-0.1413404 -0.0426,-0.2799149 -0.133042,-0.387234 -0.966426,-1.1531277 -2.396426,-1.82 -3.9027661,-1.82 -1.347851,0 -2.6450854,0.5341064 -3.6004471,1.4864255 -0.9523192,0.9553617 -1.4864256,2.2525958 -1.4864256,3.6004468 0,1.5063405 0.6668724,2.9363405 1.82,3.9030422 0.1073192,0.09017 0.2458936,0.138298 0.3872341,0.132766 0.1413404,-0.0086 0.2741063,-0.065 0.3758936,-0.166787 L 9.1447679,8.1104077 8.3478959,7.3135354 6.256555,9.4018332 C 6.1058103,9.2386417 5.9702784,9.0638332 5.850789,8.8796205 l 0.1111915,0.065277 c 0.039,0.022957 0.102617,0.023234 0.1418936,5.531e-4 l 0.7216383,-0.4165531 0.00691,-0.00415 c 0.00885,-0.00498 0.014936,-0.011064 0.017979,-0.017149 0.00802,-0.014936 0.00194,-0.031255 -0.017979,-0.042872 L 6.7204061,8.4000034 6.6916401,8.4165992 6.0427465,8.7911098 5.6776401,8.5858758 v 0 C 5.5794486,8.4011098 5.4961933,8.2091524 5.4284273,8.0113864 v -0.359851 l 0.4599788,-0.252532 v 0 0 0 0 0 0 0 0 0 0 0 0 c 0.038723,-0.023511 0.05117,-0.074128 0.027936,-0.112851 v 0 c -0.023234,-0.038723 -0.073851,-0.05117 -0.1125744,-0.027936 v 0 l -0.468,0.2611064 c -0.012447,0.00691 -0.024064,0.016872 -0.033745,0.029043 -0.058915,-0.2694042 -0.088234,-0.546 -0.088234,-0.8256383 0,-0.4732553 0.084638,-0.9384893 0.2458936,-1.3746808 -0.00194,0.024064 0.00996,0.046468 0.030426,0.061404 v 0 l 0.4718723,0.277149 c 0.039,0.022957 0.102617,0.023234 0.1418936,5.532e-4 l 0.7216383,-0.4165532 0.00691,-0.00415 c 0.00885,-0.00498 0.014936,-0.011064 0.017979,-0.017149 0.00802,-0.014936 0.00194,-0.031255 -0.017979,-0.042872 L 6.7204061,5.1417056 6.6916401,5.1583013 6.0427465,5.5328119 5.5858103,5.2758545 v 0 0 0 0 0 0 0 C 5.5564912,5.2548332 5.5177678,5.2559396 5.4898316,5.2750247 5.6544061,4.8476843 5.8950444,4.4504928 6.2015124,4.1025354 c 0.00387,0.015766 0.014936,0.029043 0.030149,0.03817 v 0 0 l 0.4599787,0.2525321 v 0.7650638 0 0 0 0 0 0 0.069702 l 0.081872,0.038447 c 0.019638,0.0094 0.037894,0.010234 0.052,0.00415 0.00996,-0.00415 0.018255,-0.01217 0.024894,-0.021298 0.00304,-0.010787 0.00553,-0.021851 0.00553,-0.034851 V 4.3830034 c 0,-0.045362 -0.032085,-0.1001276 -0.071915,-0.1219787 l -0.468,-0.2611064 v 0 c -0.0047,-0.00277 -0.00968,-0.00526 -0.015213,-0.00636 0.022404,-0.02434 0.045362,-0.047851 0.068872,-0.071362 0.01466,-0.014936 0.029596,-0.029596 0.044809,-0.043979 l 0.3706383,0.2179574 c 0.039,0.022957 0.102617,0.022957 0.1418936,5.532e-4 l 0.7213619,-0.4168297 0.0072,-0.00387 c 0.0089,-0.00526 0.01494,-0.011064 0.01798,-0.017425 0.008,-0.01466 0.0019,-0.031255 -0.01798,-0.042596 l -0.112298,-0.065 -0.02849,0.016596 -0.6491702,0.3747872 -0.3233404,-0.182 v 0 C 6.8354699,3.5012162 7.1635129,3.2887907 7.5147889,3.1278119 Z M 10.072193,5.1123864 V 4.3473226 L 9.6122149,4.0947907 v 0 0 c -0.03872,-0.023511 -0.05117,-0.074128 -0.02794,-0.1128511 v 0 c 0.02323,-0.038723 0.07385,-0.05117 0.112575,-0.027936 v 0 L 10.16485,4.2148334 c 0.03955,0.022128 0.07164,0.076894 0.07164,0.1222553 v 0.8314469 c 0,0.012723 -0.0025,0.024064 -0.0053,0.034574 -0.0069,0.0094 -0.01494,0.017149 -0.02517,0.021574 -0.01411,0.00609 -0.03208,0.00498 -0.05172,-0.00415 L 10.07215,5.1818096 Z M 6.6916401,8.4165992 V 7.6515354 L 6.2316614,7.3990034 v 0 0 c -0.038723,-0.023511 -0.051447,-0.074128 -0.027936,-0.112851 v 0 c 0.023234,-0.038723 0.073574,-0.05117 0.1122979,-0.027936 v 0 l 0.468,0.2611064 c 0.03983,0.021851 0.071915,0.076617 0.071915,0.1219787 v 0.8314468 c 0,0.013 -0.00249,0.024064 -0.00553,0.034851 -0.00664,0.00913 -0.014936,0.016872 -0.024894,0.021298 -0.014106,0.00609 -0.032362,0.00526 -0.052,-0.00415 l -0.081872,-0.038447 v -0.069702 0 0 0 0 z M 7.4874059,6.7008758 V 5.9358119 L 7.0274273,5.68328 v 0 0 C 6.9887043,5.659769 6.9762573,5.609152 6.9994913,5.570429 v 0 c 0.023234,-0.038723 0.073851,-0.05117 0.1125746,-0.027936 v 0 l 0.468,0.2608298 c 0.03955,0.022128 0.07164,0.076894 0.07164,0.1222553 v 0.8314468 c 0,0.013 -0.0025,0.024064 -0.0053,0.034574 -0.0069,0.0094 -0.01494,0.017149 -0.02517,0.021574 -0.01411,0.00609 -0.03209,0.00526 -0.05172,-0.00415 l -0.08215,-0.038723 v -0.069426 0 0 0 0 0 0 0 z M 8.3791509,5.1123864 V 4.3473226 L 7.9191719,4.0947907 v 0 0 c -0.03872,-0.023511 -0.05145,-0.074128 -0.02794,-0.1128511 v 0 c 0.02323,-0.038723 0.07357,-0.05117 0.112298,-0.027936 v 0 l 0.468276,0.2608298 c 0.03955,0.022128 0.07164,0.076894 0.07164,0.1222553 v 0.8314469 c 0,0.012723 -0.0025,0.024064 -0.0055,0.034574 -0.0066,0.0094 -0.01494,0.017149 -0.02489,0.021574 -0.01411,0.00609 -0.03209,0.00498 -0.05172,-0.00415 l -0.08215,-0.038724 v -0.069425 0 0 0 0 0 0 0 0 0 0 z M 9.8520229,3.685429 v 0 c -0.03679,-0.026553 -0.08823,-0.018255 -0.11451,0.018532 v 0 c -0.02655,0.036787 -0.01798,0.088234 0.01909,0.1147872 v 0 l 0.4718721,0.2774255 c 0.039,0.022957 0.102617,0.022957 0.141617,5.532e-4 l 0.721638,-0.4168297 0.0072,-0.00387 c 0.0086,-0.00526 0.01466,-0.011064 0.01798,-0.017425 0.008,-0.01466 0.0019,-0.031255 -0.01798,-0.042596 l -0.112298,-0.065 -0.02877,0.016596 L 10.308968,3.9423894 9.8520319,3.685432 v 0 0 0 0 0 0 0 0 0 0 0 0 0 0 0 0 z m -1.681425,0 v 0 c -0.03706,-0.026553 -0.08823,-0.018255 -0.114788,0.018532 v 0 c -0.02628,0.036787 -0.0177,0.088234 0.01909,0.1147872 v 0 l 0.471872,0.2774255 c 0.039,0.022957 0.102617,0.022957 0.141893,5.532e-4 l 0.721639,-0.4168297 0.0069,-0.00387 c 0.0089,-0.00526 0.01494,-0.011064 0.01798,-0.017425 0.008,-0.01466 0.0019,-0.031255 -0.01798,-0.042596 l -0.112022,-0.065 -0.02877,0.016596 -0.648893,0.3747872 -0.456936,-0.2569574 v 0 0 0 0 0 0 0 0 0 0 0 0 0 z m -0.897277,1.5445106 v 0 c -0.03679,-0.026553 -0.08823,-0.018255 -0.114787,0.018532 v 0 c -0.02628,0.037064 -0.0177,0.088234 0.01908,0.1147873 v 0 l 0.471872,0.2774255 c 0.03928,0.022957 0.102617,0.023234 0.141894,5.532e-4 l 0.721638,-0.4165532 0.0069,-0.00415 c 0.0089,-0.00498 0.01494,-0.011064 0.01798,-0.017426 0.0083,-0.01466 0.0019,-0.030979 -0.01798,-0.042596 l -0.112001,-0.064722 -0.028766,0.016596 -0.648894,0.3745107 -0.456936,-0.2569575 v 0 0 0 0 0 0 0 z m 0.302596,-1.1351489 v 0 c 0.03872,-0.023511 0.05117,-0.074128 0.02794,-0.1128511 v 0 c -0.02323,-0.038723 -0.07357,-0.05117 -0.112298,-0.027936 v 0 L 7.0232784,4.2148332 c -0.039553,0.022128 -0.071638,0.076894 -0.071638,0.1222553 v 0.5767022 c 0,0.045362 0.036234,0.077447 0.081043,0.071638 v 0 c 0.045915,-0.00581 0.083254,-0.048128 0.083254,-0.094596 V 4.3473226 L 7.5759169,4.0947907 v 0 0 0 0 0 0 z M 6.3815763,6.818429 v 0 C 6.344789,6.7918758 6.2933422,6.8001736 6.2670656,6.8372375 v 0 c -0.026553,0.036787 -0.017979,0.087957 0.019085,0.1145106 v 0 L 6.758023,7.2291736 c 0.039,0.022957 0.102617,0.023234 0.141617,5.532e-4 l 0.7216379,-0.4165532 0.0072,-0.00415 c 0.0086,-0.00498 0.01466,-0.011064 0.01798,-0.017426 0.008,-0.01466 0.0019,-0.030979 -0.01798,-0.042596 L 7.5161719,6.68428 7.4874059,6.7008758 6.8385124,7.0753864 6.3815763,6.818429 v 0 0 0 0 z M 6.684172,5.68328 v 0 c 0.039,-0.023511 0.051447,-0.074128 0.027936,-0.112851 v 0 C 6.688874,5.531706 6.638534,5.519259 6.5998101,5.542493 v 0 l -0.468,0.2608298 c -0.03983,0.022128 -0.071915,0.076894 -0.071915,0.1222553 v 0.5767021 c 0,0.045362 0.036511,0.077447 0.081319,0.071638 v 0 c 0.045638,-0.00581 0.082979,-0.048128 0.082979,-0.094596 V 5.9358119 L 6.684172,5.68328 v 0 0 0 z M 9.3392149,6.2945566 V 6.0987268 c 0,-0.045362 -0.03209,-0.099851 -0.07164,-0.1219787 l -0.468,-0.2608298 v 0 c -0.038722,-0.023511 -0.089062,-0.011064 -0.112573,0.027936 v 0 c -0.02323,0.038723 -0.01079,0.089064 0.02794,0.1128511 v 0 l 0.460255,0.2522553 v 0.3391064 l 0.164022,-0.1535107 v 0 0 0 z M 8.2599379,7.0988971 8.0693639,6.9918545 v 0 c -0.03706,-0.026553 -0.08851,-0.018255 -0.114788,0.018532 v 0 c -0.02655,0.036787 -0.01798,0.088234 0.01908,0.1147872 v 0 l 0.160426,0.094319 0.125851,-0.1205957 v 0 0 z m 0.112021,-1.2421915 v 0 c 0.03872,-0.023787 0.05117,-0.074128 0.02794,-0.1128511 v 0 c -0.02351,-0.039 -0.07385,-0.051447 -0.112575,-0.027936 v 0 l -0.468,0.2608298 c -0.03955,0.022128 -0.07192,0.076617 -0.07192,0.1219787 v 0.2306809 0.3460213 c 0,0.045362 0.03651,0.077447 0.08132,0.071915 v 0 c 0.04564,-0.00581 0.08298,-0.048404 0.08298,-0.094872 V 6.1089609 Z m 0.594405,-0.626766 v 0 c -0.03679,-0.026553 -0.08823,-0.018255 -0.114511,0.018532 v 0 c -0.02655,0.037064 -0.01798,0.088234 0.01909,0.1147873 v 0 l 0.471872,0.2774255 c 0.039,0.022957 0.102617,0.023234 0.141617,5.532e-4 l 0.7216391,-0.4165532 0.0072,-0.00415 c 0.0086,-0.00498 0.01466,-0.011064 0.01798,-0.017426 0.008,-0.01466 0.0019,-0.030979 -0.01798,-0.042596 l -0.112298,-0.064723 -0.02877,0.016596 -0.6488931,0.3745107 z m 0.302595,-1.1351489 v 0 c 0.039,-0.023511 0.05145,-0.074128 0.02794,-0.1128511 v 0 c -0.02323,-0.038723 -0.07357,-0.05117 -0.112298,-0.027936 v 0 l -0.468,0.2608298 c -0.03983,0.022128 -0.07192,0.076894 -0.07192,0.1222553 v 0.5767022 c 0,0.045362 0.03651,0.077447 0.08132,0.071638 v 0 c 0.04564,-0.00581 0.08298,-0.048128 0.08298,-0.094596 V 4.3473226 Z"
       fill-rule="evenodd"
       id="path4"
       style="fill:url(#linearGradient8)" />
  </g>
</svg>
