<?xml version="1.0" encoding="UTF-8" standalone="no"?>
<svg
   width="16"
   height="16"
   version="1.1"
   id="svg4"
   sodipodi:docname="putty.svg"
   inkscape:version="1.4.4 (unknown)"
   xmlns:inkscape="http://www.inkscape.org/namespaces/inkscape"
   xmlns:sodipodi="http://sodipodi.sourceforge.net/DTD/sodipodi-0.dtd"
   xmlns="http://www.w3.org/2000/svg"
   xmlns:svg="http://www.w3.org/2000/svg">
  <defs
     id="defs4" />
  <sodipodi:namedview
     id="namedview4"
     pagecolor="#ffffff"
     bordercolor="#000000"
     borderopacity="0.25"
     inkscape:showpageshadow="2"
     inkscape:pageopacity="0.0"
     inkscape:pagecheckerboard="0"
     inkscape:deskcolor="#d1d1d1"
     inkscape:zoom="16.727495"
     inkscape:cx="16.948145"
     inkscape:cy="13.480799"
     inkscape:window-width="1920"
     inkscape:window-height="994"
     inkscape:window-x="0"
     inkscape:window-y="0"
     inkscape:window-maximized="1"
     inkscape:current-layer="svg4" />
  <g
     id="g4"
     transform="translate(0,0.50103761)">
    <path
       fill="#c0274b"
       d="M 0.32637,0.73398277 A 0.3740423,0.3740423 0 0 0 0,1.0991198 v 6.64999 c 0,0.194355 0.172877,0.36566 0.365137,0.36566 h 3.324471 v 1.22952 H 1.22952 V 10.574334 H 5.70755 V 8.1331058 L 4.284723,6.8847258 H 1.498789 A 0.26193439,0.26193439 0 0 1 1.249427,6.6348408 v -4.420405 c -0.0026,-0.115251 0.0791,-0.228407 0.19226,-0.249885 a 0.20954751,0.20954751 0 0 1 0.05763,0 h 6.841727 c 0.129919,0 0.249885,0.122585 0.249885,0.249885 v 1.768057 h 1.248903 v -2.88285 A 0.37718552,0.37718552 0 0 0 9.474691,0.73398277"
       id="path2"
       style="stroke-width:0.523869" />
    <path
       d="m 8.689935,4.4235908 1.518172,1.230044 h 4.28577 c 0.12992,0 0.249886,0.119966 0.249886,0.249361 v 4.4209292 a 0.26193439,0.26193439 0 0 1 -0.249886,0.249361 H 7.652151 A 0.26193439,0.26193439 0 0 1 7.40279,10.323925 V 9.6318938 L 6.160173,8.5370078 v 2.9017092 a 0.37194683,0.37194683 0 0 0 0.36566,0.365137 h 3.324471 v 1.230044 H 7.390217 v 1.230044 h 7.379739 v -1.230044 h -2.459564 v -1.230044 h 3.317661 C 15.821885,11.803854 16,11.633597 16,11.438717 V 4.7887268 c 0,-0.192783 -0.172877,-0.365136 -0.371947,-0.365136"
       id="path3"
       style="stroke-width:0.523869;fill:#5f5fd3" />
    <path
       fill-rule="evenodd"
       d="m 2.460088,4.4235908 5.534673,4.919651 v -3.075109 l 4.30463,1.845066 -6.149695,-4.919128 v 2.305546 L 2.462707,4.4235908"
       id="path4"
       style="stroke-width:0.523869;fill:#ffcc00" />
  </g>
</svg>
