<?xml version="1.0" encoding="UTF-8" standalone="no"?>
<!-- Generator: Gravit.io -->

<svg
   style="isolation:isolate"
   viewBox="0 0 16 16"
   width="16"
   height="16"
   version="1.1"
   id="svg3"
   sodipodi:docname="com.ylsoftware.qmmp.Qmmp.svg"
   inkscape:version="1.4.4 (unknown)"
   xmlns:inkscape="http://www.inkscape.org/namespaces/inkscape"
   xmlns:sodipodi="http://sodipodi.sourceforge.net/DTD/sodipodi-0.dtd"
   xmlns:xlink="http://www.w3.org/1999/xlink"
   xmlns="http://www.w3.org/2000/svg"
   xmlns:svg="http://www.w3.org/2000/svg">
  <defs
     id="defs3">
    <linearGradient
       id="linearGradient3"
       inkscape:collect="always">
      <stop
         style="stop-color:#ffdd55;stop-opacity:1"
         offset="0"
         id="stop4" />
      <stop
         style="stop-color:#cd87de;stop-opacity:1"
         offset="0.56356823"
         id="stop6" />
      <stop
         style="stop-color:#8d5fd3;stop-opacity:1"
         offset="1"
         id="stop5" />
    </linearGradient>
    <linearGradient
       inkscape:collect="always"
       xlink:href="#linearGradient3"
       id="linearGradient5"
       x1="2.1558785"
       y1="11.846764"
       x2="12.110965"
       y2="2.9696169"
       gradientUnits="userSpaceOnUse" />
  </defs>
  <sodipodi:namedview
     id="namedview3"
     pagecolor="#ffffff"
     bordercolor="#000000"
     borderopacity="0.25"
     inkscape:showpageshadow="2"
     inkscape:pageopacity="0.0"
     inkscape:pagecheckerboard="0"
     inkscape:deskcolor="#d1d1d1"
     inkscape:document-units="px"
     inkscape:lockguides="true"
     inkscape:zoom="23.65625"
     inkscape:cx="8.1162484"
     inkscape:cy="5.7701453"
     inkscape:window-width="1920"
     inkscape:window-height="994"
     inkscape:window-x="0"
     inkscape:window-y="0"
     inkscape:window-maximized="1"
     inkscape:current-layer="svg3" />
  <linearGradient
     id="_lgradient_16"
     x1="0.0625"
     y1="0.7198019"
     x2="0.90477467"
     y2="0.21553537"
     gradientTransform="matrix(15.999749,0,0,13.000113,0,1.4999635)"
     gradientUnits="userSpaceOnUse">
    <stop
       offset="0%"
       stop-opacity="1"
       style="stop-color:rgb(84,51,255)"
       id="stop1" />
    <stop
       offset="49.166666666666664%"
       stop-opacity="1"
       style="stop-color:rgb(233,72,255)"
       id="stop2" />
    <stop
       offset="97.08333333333333%"
       stop-opacity="1"
       style="stop-color:rgb(255,0,91)"
       id="stop3" />
  </linearGradient>
  <path
     d="m 7.8348769,3.2348589 c 0.048667,-0.00901 0.097998,-0.013508 0.1479973,-0.013508 v 0 c 0.010999,0 0.021999,3.463e-4 0.032668,6.927e-4 v 0 L 8.1412053,3.0433243 C 8.5375323,2.4669885 9.0285245,1.96408 9.5898491,1.5623075 v 0 c 0.1519978,-0.1097947 0.3613275,-0.070657 0.4669929,0.087282 v 0 C 10.16284,1.807874 10.125152,2.0253853 9.972848,2.13518 v 0 C 9.4755176,2.4950433 9.0385243,2.9383785 8.6855301,3.4485604 l -0.064667,0.095248 c 0.1923316,0.2282484 0.3133298,0.5586717 0.3133298,0.9258087 v 0.1312687 0 C 9.0801903,4.5988058 9.2261882,4.5974258 9.371186,4.5974258 9.381516,4.5870348 9.39152,4.5801078 9.401517,4.5731808 9.5091824,4.4855528 9.6201808,4.4017347 9.7308458,4.3251901 9.858511,4.2340991 9.9898424,4.157554 10.127507,4.0875902 c 0.147999,-0.076891 0.309328,-0.1188 0.470659,-0.1222636 0.02001,0 0.03701,0 0.05698,0.00346 0.02032,0 0.04368,0 0.064,0.00346 h 0.02365 0.06031 0.05031 c 0,0 0,0 0.0035,0 0.184996,0.00346 0.369992,0.00693 0.554655,0.013854 0.561325,0.017664 1.12265,0.076891 1.677308,0.1714461 0.315996,0.055763 0.628659,0.1326542 0.934652,0.2303265 0.302328,0.097672 0.594657,0.2272094 0.873654,0.3913819 0.282328,0.1641726 0.527992,0.3841084 0.726322,0.6459533 0.211663,0.2864361 0.339328,0.6251719 0.372993,0.9815707 0,0.01039 0.0035,0.01732 0.0035,0.02771 v 0.02113 0.0035 0.02078 0.05265 l -0.0035,0.01039 c -0.0035,0.06996 -0.02032,0.143045 -0.04368,0.209545 -0.05732,0.153782 -0.147996,0.293363 -0.265662,0.4087 -0.147997,0.149971 -0.319327,0.279508 -0.500658,0.384108 -0.258996,0.146854 -0.527993,0.276045 -0.803322,0.384108 -0.0073,0.0035 -0.01368,0.0073 -0.01697,0.01074 0,0.0035 0,0.0069 0,0.01039 0,0.02078 -0.0035,0.03844 -0.0035,0.05923 l -0.0069,0.06996 c -0.0035,0.02459 -0.0069,0.04537 -0.01336,0.0665 -0.03033,0.136118 -0.08765,0.268772 -0.164998,0.38411 -0.09065,0.132654 -0.194664,0.254917 -0.315662,0.359517 -0.03367,0.02805 -0.06733,0.05265 -0.10433,0.06996 l -0.0035,0.0035 -0.01004,0.0035 -0.0035,0.0035 -0.01033,0.0035 -0.0069,0.0038 -0.08067,0.04191 -0.07401,0.0069 -0.01668,0.0069 -0.04703,0.0035 -0.027,0.0035 v 0 c -0.0035,0 -0.0069,0 -0.01004,0 -0.01697,0 -0.03367,0.0035 -0.05065,0.0069 -0.084,0.108409 -0.197997,0.188764 -0.32933,0.227209 -0.05698,0.01732 -0.114331,0.03117 -0.171329,0.03845 0.0069,0.02771 0.01335,0.05576 0.01668,0.08382 0.01697,0.08035 0.02365,0.160709 0.02365,0.244527 -0.01335,0.335272 -0.141328,0.6528799 -0.362993,0.8939429 -0.117665,0.132655 -0.241995,0.258382 -0.369659,0.377182 -0.141334,0.132654 -0.285997,0.258381 -0.426995,0.387572 l -0.225331,0.199154 c 0,0 -0.0035,0 -0.0035,0.0035 -0.147664,0.125727 -0.285662,0.262191 -0.419993,0.405236 -0.0035,0.0035 -0.0069,0.0069 -0.01034,0.01039 0.03033,0.282972 0.05399,0.569408 0.07068,0.855845 0.01032,0.174563 0.01697,0.345663 0.01697,0.520226 0,0.08763 0,0.178373 -0.0069,0.269118 -0.0038,0.122263 -0.02365,0.244527 -0.05398,0.363327 -0.02004,0.09075 -0.05698,0.174563 -0.103999,0.251454 -0.09099,0.146508 -0.23533,0.251454 -0.39666,0.293363 -0.09099,0.01732 -0.181662,0.02771 -0.272328,0.02425 -0.210915,-0.0035 -0.4229125,-0.02078 -0.634577,-0.05576 C 9.6565879,14.422703 9.5559221,14.405043 9.4582572,14.376983 9.3339716,14.352523 9.2129735,14.303693 9.1089752,14.2268 8.9979768,14.14298 8.9006452,14.0415 8.8199796,13.92651 8.715648,13.786582 8.6549821,13.618946 8.6416491,13.444383 c -0.00333,-0.01039 -0.00333,-0.02078 -0.00333,-0.03152 v -0.02425 c 0,-0.0069 0,-0.0142 0,-0.02113 0,-0.132654 0.026999,-0.261845 0.070665,-0.387572 -0.1143319,-0.01039 -0.2253303,-0.0523 -0.3259952,-0.115336 -0.1109983,-0.07343 -0.2086635,-0.164172 -0.2926623,-0.265308 -0.029997,-0.03498 -0.057001,-0.06996 -0.084,-0.104947 -0.03033,0.03498 -0.057001,0.06996 -0.087331,0.104947 -0.084,0.104599 -0.1849972,0.195344 -0.2956622,0.268772 -0.1009984,0.0665 -0.2119968,0.104945 -0.3263282,0.118799 0.044,0.125728 0.067333,0.254918 0.067333,0.384109 0.00333,0.0069 0.00333,0.0142 0,0.02113 v 0.02425 c 0,0.01074 0,0.02113 0,0.03152 -0.013335,0.174563 -0.077332,0.342199 -0.1779971,0.48559 -0.084,0.111526 -0.1816642,0.213009 -0.2926622,0.296827 -0.1039985,0.07689 -0.2249966,0.12919 -0.349328,0.153781 -0.1009974,0.02425 -0.1983303,0.04537 -0.3026619,0.05923 -0.2083301,0.03498 -0.4199934,0.0523 -0.6353231,0.05576 -0.090665,0.0038 -0.1846638,-0.0035 -0.2756624,-0.02424 -0.1613312,-0.04191 -0.2989956,-0.146855 -0.3896608,-0.293364 -0.047332,-0.07343 -0.080667,-0.153781 -0.1043319,-0.241063 -0.030331,-0.122263 -0.046998,-0.24799 -0.053667,-0.373717 -0.00368,-0.09075 -0.00702,-0.178027 -0.00702,-0.268772 0,-0.171446 0.00702,-0.342546 0.017001,-0.513645 0.016668,-0.286437 0.040334,-0.576337 0.070665,-0.862773 -0.00333,-0.0035 -0.010332,-0.0069 -0.013668,-0.01039 -0.134333,-0.143049 -0.2723304,-0.275704 -0.4199952,-0.405241 0,0 -0.00333,-0.0035 -0.00333,-0.0035 L 4.2016005,11.29975 C 4.0569363,11.174023 3.9159385,11.048296 3.7779408,10.919105 3.6469427,10.800305 3.5259445,10.674578 3.411613,10.545388 3.1866164,10.30086 3.0586185,9.9797881 3.0452852,9.6445161 c 0,-0.08035 0.00668,-0.164172 0.023666,-0.244527 0.00668,-0.02806 0.013335,-0.05611 0.02,-0.08035 -0.060333,-0.01039 -0.1209979,-0.02459 -0.1813302,-0.04191 0,0 0,0 0,0 -0.127998,-0.03845 -0.2419963,-0.1188 -0.3259951,-0.227209 -0.017001,-0.0035 -0.030331,-0.0035 -0.047333,-0.0069 -0.00333,0 -0.00333,0 -0.00668,0 h -0.01 -0.00333 -0.01 -0.017002 l -0.026664,-0.0035 -0.081002,-0.0069 -0.029997,-0.01385 -0.010333,-0.0038 -0.073664,-0.0381 -0.010331,-0.0038 c 0,0 -0.00333,0 -0.00333,0 -0.043667,-0.02424 -0.084,-0.0523 -0.117665,-0.08728 -0.117645,-0.104599 -0.2216437,-0.223399 -0.3089754,-0.35259 -0.077333,-0.115337 -0.1346645,-0.247991 -0.1646643,-0.384109 -0.013671,-0.0665 -0.023666,-0.136464 -0.023666,-0.202618 0,0 0,0 0,0 C 1.3546453,7.8386181 1.0789829,7.7059641 0.81665383,7.5521821 0.63199006,7.4475821 0.46399269,7.3183921 0.315995,7.1680741 0.2016635,7.0562011 0.11433154,6.9200831 0.05699909,6.7663011 0.03033286,6.7036111 0.01333311,6.6405741 0.00666656,6.5709571 0.00333327,6.5567561 0.00333327,6.5429021 0,6.5290481 v -0.04191 -0.02459 -0.01732 c 0,-0.01074 0.00333327,-0.02113 0.00333327,-0.02806 C 0.03699942,6.057311 0.16799736,5.7185752 0.37632743,5.4321391 0.57799091,5.1702942 0.826987,4.9468948 1.1093159,4.7827222 1.3849783,4.6185497 1.6806402,4.489359 1.9833021,4.3948039 2.2889639,4.3005952 2.5982922,4.2237043 2.9142874,4.167941 3.4689455,4.0699224 4.03027,4.0106956 4.5949278,3.9933777 c 0.1846636,-0.00727 0.3696607,-0.014201 0.5546576,-0.014201 0,0 0,0 0.00333,0 l 0.046998,-0.00346 0.060667,0.00346 h 0.033335 0.017001 l 0.02,-0.00346 v 0 c 0.00668,0 0.013666,0 0.020334,0 0.016668,0 0.033664,0 0.050332,0 0.1646639,0 0.3259948,0.041909 0.4739924,0.1153365 0.1376645,0.069964 0.2689957,0.1503183 0.3933274,0.2375999 0.114331,0.076891 0.2249963,0.160709 0.332661,0.2479906 0.013335,0.00693 0.026999,0.017318 0.037,0.027708 0.00333,0 0.00333,0 0.00668,0 0.090998,0.00104 0.1819973,0.00208 0.2733287,0.00312 0.00236,-0.3986554 0.1323333,-0.7578261 0.3386633,-1.0106658 L 7.1562206,3.4485604 C 6.8032265,2.9383785 6.3662335,2.4950433 5.8689079,2.1351797 v 0 C 5.7165767,2.025385 5.6789108,1.8078737 5.784909,1.6495892 v 0 C 5.8905739,1.491651 6.0999041,1.4525128 6.2519016,1.5623075 v 0 C 6.813226,1.96408 7.3042185,2.4669885 7.7008788,3.0433243 Z m 0.8019872,2.4175624 c 0.2483293,-0.00312 0.4963256,-0.00727 0.744655,-0.00727 0.1476646,0.00346 0.2956622,-0.00693 0.4436606,-0.027708 0.050336,-0.083818 0.117663,-0.1572455 0.1913293,-0.2164724 0.09099,-0.073427 0.181663,-0.1399276 0.275663,-0.2060816 0.09099,-0.063037 0.181662,-0.1187999 0.278994,-0.167636 0.0069,-0.00381 0.01367,-0.00727 0.02365,-0.00727 0.0035,-0.00346 0.0069,-0.00346 0.01004,-0.00346 0.0035,0 0.0035,-0.00346 0.0069,-0.00346 0.0035,0 0.01036,0 0.01365,0 h -0.03701 v 0 0 c 0.0069,0 0.01335,0 0.01667,0.00346 0.027,0.00346 0.05033,0.00346 0.07735,0.00346 0,0 0.0035,0 0.0035,0 v 0 h 0.02365 0.04035 0.05368 0.04368 c 0.174997,0.00346 0.352994,0.00727 0.527657,0.014201 0.520995,0.017318 1.035318,0.069617 1.549644,0.156899 0.272329,0.049183 0.541327,0.1153365 0.80332,0.1991545 0.235329,0.073427 0.460659,0.1745633 0.672324,0.3002904 0.164663,0.098019 0.309329,0.2237457 0.426992,0.3775277 0.07401,0.1011358 0.127666,0.2199352 0.150997,0.3456622 -0.08398,0.08382 -0.177996,0.153783 -0.278995,0.21301 -0.224995,0.132654 -0.460326,0.244527 -0.705654,0.335272 -0.027,0.01039 -0.05399,0.02459 -0.07736,0.03845 -0.09398,0.04537 -0.184997,0.101135 -0.265662,0.167636 -0.10066,0.07343 -0.184664,0.167636 -0.248664,0.279508 -0.05365,0.09421 -0.08399,0.202618 -0.0873,0.314145 0,0.06304 0.01004,0.122263 0.027,0.181837 -0.01697,0.02424 -0.03367,0.04537 -0.05065,0.06269 -0.04035,0.0069 -0.0807,0.0142 -0.117668,0.02459 -0.09733,0.02425 -0.187992,0.05923 -0.271993,0.111527 -0.06733,0.03498 -0.128001,0.08382 -0.181663,0.139927 -0.05366,0.0035 -0.111,0.0069 -0.164667,0.0069 l -0.100997,0.0035 c -0.05698,0 -0.114329,0 -0.17133,0.0035 -0.03033,0 -0.05698,0.0035 -0.08732,0.0069 -0.225329,0.03152 -0.403325,0.213009 -0.436994,0.443683 v 0.01039 c -0.01335,0.07689 -0.01664,0.150318 -0.02032,0.227209 0,0.08728 0.0073,0.171099 0.02365,0.258381 0.02365,0.136118 0.08732,0.261845 0.184999,0.3564 0,0 0,0.0035 0,0.0035 0.0035,0.0069 0.0035,0.01039 0.0035,0.01732 -0.0069,0.07343 -0.04035,0.146855 -0.09099,0.199154 -0.09398,0.108063 -0.194662,0.2130089 -0.30233,0.3072179 -0.134331,0.125727 -0.272328,0.251454 -0.413326,0.373717 0,0 0,0 0,0.0035 l -0.22533,0.195692 c -0.167998,0.150318 -0.32933,0.307217 -0.487326,0.467926 -0.06067,0.0665 -0.117663,0.136464 -0.171664,0.213008 -0.07367,0.09456 -0.12433,0.209546 -0.140999,0.331809 -0.0069,0.04918 -0.0069,0.09802 -0.0035,0.146855 v 0 c 0,0 0,0 0,0 0.04035,0.324881 0.07068,0.653226 0.09065,0.981572 0.01004,0.149972 0.01335,0.303754 0.01335,0.457536 0,0.04537 0,0.09421 -0.0035,0.139581 -0.100661,-0.0069 -0.204996,-0.01766 -0.3056633,-0.03498 -0.074005,-0.01039 -0.1513289,-0.02459 -0.2253283,-0.04537 v 0.0069 c -0.01,-0.0069 -0.01667,-0.01732 -0.027004,-0.02425 0.00367,-0.0073 0.00705,-0.01074 0.013667,-0.01766 0.05033,-0.05923 0.090666,-0.132655 0.1109982,-0.213009 v 0 c 0.02666,-0.104946 0.047011,-0.213009 0.060328,-0.321418 0,-0.0069 0,-0.01732 0.00343,-0.02771 l 0.00677,-0.157246 -0.00343,-0.08035 c 0,-0.167636 -0.056997,-0.331809 -0.1646648,-0.457536 -0.1243319,-0.132654 -0.2956626,-0.202618 -0.4706597,-0.195691 -0.01,0 -0.016668,0 -0.023333,0.0035 l 0.037,-0.0035 h -0.00333 c -0.00333,0 -0.00702,0 -0.010328,0 -0.00668,0 -0.01,0 -0.016668,0 -0.087331,0.0069 -0.1746641,0.02113 -0.2589958,0.04191 h -0.00338 c -0.00333,0.0035 -0.00668,0.0035 -0.01,0.0035 -0.02,0.0069 -0.037,0.01039 -0.057001,0.0142 -0.00333,-0.0038 -0.00668,-0.0073 -0.010331,-0.0142 -0.057001,-0.06269 -0.1073314,-0.132654 -0.1579978,-0.199154 -0.00333,-0.0035 -0.00333,-0.0035 -0.00668,-0.0069 l -0.053663,-0.06962 -0.013334,-0.01766 C 8.5779109,11.558477 8.527579,11.495442 8.4739134,11.439679 8.3562485,11.303561 8.1949177,11.219743 8.0202541,11.205542 c -0.1513311,-0.0069 -0.3026621,0.04884 -0.4169937,0.157246 -0.077335,0.06996 -0.1446642,0.150318 -0.2049969,0.2376 l -0.040334,0.05576 -0.033665,0.04537 c 0,0 -0.00333,0.0035 -0.00333,0.0035 -0.053666,0.07343 -0.107665,0.143391 -0.1646644,0.209545 -0.00668,0.0069 -0.013335,0.0142 -0.017001,0.02113 -0.00333,0 -0.00668,-0.0035 -0.01,-0.0035 -0.00333,0 -0.01,-0.0035 -0.013335,-0.0035 l -0.050333,-0.01074 c -0.087665,-0.02425 -0.1783305,-0.03498 -0.2689959,-0.03845 0,0 0,0 -0.00333,0 -0.00333,0 -0.00668,0 -0.01,0 h -0.00702 l 0.057335,0.0035 c -0.013335,-0.0035 -0.023666,-0.0035 -0.037,-0.0035 -0.1713287,-0.01039 -0.3396595,0.05265 -0.4639907,0.178373 -0.1143315,0.125727 -0.1813304,0.293363 -0.1813304,0.467926 l -0.00333,0.03498 c 0,0.01039 0,0.02078 0,0.03152 0.00333,0.06962 0.00668,0.136117 0.016668,0.202271 0.017001,0.171446 0.053667,0.339082 0.1076649,0.503255 0.030332,0 0.057001,0.01732 0.073997,0.04537 -0.00702,0.01039 -0.017001,0.01732 -0.026999,0.02425 v -0.0069 c -0.073997,0.02113 -0.1513309,0.03498 -0.2253297,0.04537 -0.1006659,0.01766 -0.2049969,0.03152 -0.3056619,0.03844 -0.00333,-0.04884 -0.00333,-0.09421 -0.00333,-0.139581 0,-0.153782 0.00668,-0.3041 0.016668,-0.457536 0.016668,-0.34601 0.046998,-0.691673 0.087331,-1.033872 0,-0.157245 -0.053666,-0.307564 -0.1476646,-0.429827 C 5.6872438,11.310487 5.6302446,11.240523 5.5662457,11.174023 5.4115815,11.00985 5.2502506,10.852951 5.0822533,10.706097 L 4.8569238,10.503478 c -0.00333,0 -0.00333,0 -0.00333,0 C 4.7159301,10.381214 4.5779322,10.258951 4.443601,10.133224 4.3392692,10.039014 4.238604,9.9378791 4.147939,9.8294701 4.09394,9.7737101 4.060608,9.7002791 4.053608,9.6233891 c 0,-0.0035 0.00333,-0.01039 0.00333,-0.01385 0,-0.0035 0,-0.0069 0,-0.0069 0.00368,-0.0035 0.00368,-0.0073 0.00702,-0.01074 l -0.010333,0.01074 -0.00333,0.0035 0.00333,-0.0035 v 0 0 h 0.00333 c 0.1009984,-0.09802 0.1649973,-0.227209 0.1849969,-0.36679 0.013335,-0.08036 0.020334,-0.160709 0.020334,-0.241064 0.096333,-0.178026 -0.4176602,-0.796272 -0.5413252,-0.695136 -0.057001,-0.0035 -0.1143313,-0.0035 -0.1679973,-0.0035 h -0.104343 c -0.053669,-0.0035 -0.1109985,-0.0035 -0.1679973,-0.01039 -0.046998,-0.0523 -0.1043319,-0.09767 -0.1646644,-0.132654 -0.087331,-0.05265 -0.1849973,-0.09075 -0.2823289,-0.115337 -0.040334,-0.01039 -0.080667,-0.01732 -0.1209979,-0.02459 -0.017001,-0.02078 -0.033666,-0.04191 -0.046998,-0.06269 0.016668,-0.05957 0.023332,-0.1188 0.023332,-0.181837 0,-0.108063 -0.03033,-0.216472 -0.084,-0.310681 C 2.5412939,7.3461001 2.4606283,7.2484281 2.3596296,7.1750011 2.2552978,7.0946461 2.1412998,7.0250291 2.0203014,6.9758461 1.7713054,6.8816381 1.5326426,6.7697651 1.3043128,6.6371111 1.1999813,6.5778841 1.1059826,6.5044561 1.0219841,6.4206381 1.0486504,6.2949101 1.0989827,6.176111 1.1729817,6.0749752 1.2906464,5.9211932 1.4386441,5.7920026 1.603308,5.6977939 1.8149715,5.5720667 2.0403014,5.4705846 2.2756307,5.3971571 2.5412936,5.3133391 2.8099558,5.2506488 3.0822847,5.2018125 3.5932768,5.1110674 4.1109355,5.0584214 4.6285938,5.03764 4.8065911,5.03071 4.9815883,5.027249 5.1595854,5.027249 l 0.040334,-0.00381 0.057001,0.00381 h 0.020334 c 0.046998,0.00693 0.093997,0.00693 0.1409976,0 0.00702,0.00346 0.010331,0.00346 0.017001,0.00693 0.093997,0.048836 0.1849969,0.1045993 0.2723291,0.167636 0.093997,0.06269 0.1879969,0.1326543 0.2789954,0.2060816 0.077332,0.059227 0.144331,0.1361178 0.1983305,0.219936 0.1543309,0.020781 0.3123282,0.031518 0.470326,0.024591 0.1919965,0.00208 0.383994,0.00416 0.5766572,0.00727 0.026999,0.00346 0.054331,0.00658 0.082665,0.00658 H 7.586552 c 0,0 0,0 0,0 v 0 h 0.9516523 c 0.034331,0 0.067666,-0.0045 0.098665,-0.013854 z M 10.557835,3.9757136 c 0.02365,-0.00346 0.04702,-0.00693 0.06733,-0.00693 0.01004,0 0.01998,0 0.02998,0 0,0 0.0035,0 0.0073,0 h 0.0069 0.01335 l 0.03033,0.00346 h 0.0069 z m 0.127663,1.0442623 c -0.03033,0.00346 -0.06032,0.00346 -0.09065,0 z m -0.127663,-1.0442623 0.03367,-0.010391 0.03367,0.00346 h 0.04368 z m 5.441911,2.4833695 v 0.01732 0.0035 -0.04191 0 z m -1.616642,1.47028 c -0.0073,0.0035 -0.01365,0.0073 -0.01697,0.0073 0,0 0,0.0035 0,0.0035 z m -0.02032,0 c 0.0035,0.0035 0.0035,0.0073 0.0035,0.0073 z m -0.618323,1.037336 -0.0035,0.0035 0.01004,-0.0069 z m -0.218664,0.06304 z m 0,0 0.08732,-0.0142 -0.01004,0.0038 -0.03367,0.0069 z M 2.9076211,9.2777261 c -0.00333,-0.0035 -0.00668,-0.0035 -0.010333,-0.0035 l -0.00333,-0.0035 0.037,0.01385 c -0.00668,-0.0035 -0.016668,-0.0069 -0.023332,-0.0069 z M 2.5276268,9.0435891 c 0,0 0,0 -0.00333,0 h -0.00333 0.013335 z m -0.013334,-0.0035 h -0.00668 -0.00668 -0.017001 0.017001 v 0 0 0 h 0.013335 0.037 -0.00333 l -0.030332,0.0035 -0.01,-0.0035 -0.00333,0.0035 -0.043667,-0.0035 -0.1109982,-0.02078 -0.060667,-0.03152 -0.00333,-0.0035 0.1646642,0.04884 v 0 0 0 z M 0,6.4486921 Z m 5.3309164,-2.4729785 0.010333,0.00346 0.00668,-0.00346 c 0,0 0.00333,0 0.00333,0 0.01,0 0.016668,0 0.026664,0 h 0.033664 l 0.033671,0.00693 z m 0.010333,0.00346 h 0.01 l 0.026664,-0.00346 c 0.023666,0.00346 0.044,0.00346 0.067333,0.00693 z m 0.01,0 h 0.00333 0.00668 -0.016668 0.00333 z m -0.00333,0 z m 0.070331,1.0480723 c -0.01,-0.00381 -0.02,-0.00381 -0.029995,-0.00381 l 0.026665,-0.00346 z M 10.58817,5.0130449 h 0.0233 l 0.01697,0.00346 v 0 0 0 z M 0,6.4625471 0.00333327,6.4344921 v -0.01385 L 0,6.4486921 v 0.03845 0 -0.02113 z"
     fill-rule="evenodd"
     id="path3"
     style="fill:url(#linearGradient5)" />
</svg>
