<?xml version="1.0" encoding="UTF-8" standalone="no"?>
<svg
   width="16"
   height="16"
   version="1.1"
   id="svg1"
   sodipodi:docname="qpwgraph.svg"
   inkscape:version="1.4.4 (unknown)"
   xmlns:inkscape="http://www.inkscape.org/namespaces/inkscape"
   xmlns:sodipodi="http://sodipodi.sourceforge.net/DTD/sodipodi-0.dtd"
   xmlns:xlink="http://www.w3.org/1999/xlink"
   xmlns="http://www.w3.org/2000/svg"
   xmlns:svg="http://www.w3.org/2000/svg">
  <defs
     id="defs1">
    <linearGradient
       id="linearGradient1"
       inkscape:collect="always">
      <stop
         style="stop-color:#2a2aff;stop-opacity:1"
         offset="0"
         id="stop1" />
      <stop
         style="stop-color:#8d5fd3;stop-opacity:1"
         offset="1"
         id="stop2" />
    </linearGradient>
    <linearGradient
       inkscape:collect="always"
       xlink:href="#linearGradient1"
       id="linearGradient2"
       x1="0.658933"
       y1="8"
       x2="15.341067"
       y2="8"
       gradientUnits="userSpaceOnUse" />
  </defs>
  <sodipodi:namedview
     id="namedview1"
     pagecolor="#ffffff"
     bordercolor="#000000"
     borderopacity="0.25"
     inkscape:showpageshadow="2"
     inkscape:pageopacity="0.0"
     inkscape:pagecheckerboard="0"
     inkscape:deskcolor="#d1d1d1"
     inkscape:zoom="11.828125"
     inkscape:cx="4.0581242"
     inkscape:cy="13.90753"
     inkscape:window-width="1920"
     inkscape:window-height="994"
     inkscape:window-x="0"
     inkscape:window-y="0"
     inkscape:window-maximized="1"
     inkscape:current-layer="svg1" />
  <path
     d="m 1.837191,1.5 c -0.645726,0 -1.177303,0.531577 -1.177303,1.177303 0,0.645725 0.531577,1.176347 1.177303,1.176347 0.645725,0 1.176347,-0.530144 1.176347,-1.176347 C 3.013538,2.0311 2.483394,1.5 1.837191,1.5 m 12.327528,0 a 1.1825563,1.1825563 0 0 0 -1.177302,1.177303 1.1820787,1.1820787 0 0 0 1.177302,1.176347 c 0.645726,0 1.176348,-0.530144 1.176348,-1.176347 C 15.341067,2.0311 14.810922,1.5 14.164719,1.5 M 3.196462,1.836713 c 0.156178,0.246923 0.248356,0.536831 0.248356,0.846321 0,0.304714 -0.08979,0.590323 -0.24167,0.834858 H 4.358959 C 6.880727,6.879771 6.319538,7.15965 6.319538,7.15965 H 3.196462 C 3.35264,7.406095 3.444818,7.696003 3.444818,8.005492 A 1.5761049,1.5761049 0 0 1 3.204104,8.84035 h 3.115434 c 0,0 0.560711,0.280834 -1.961057,3.642713 H 3.196462 c 0.1557,0.246923 0.248356,0.536831 0.248356,0.846321 0,0.304714 -0.08931,0.590323 -0.240714,0.834858 h 1.714611 c 5.322936,-6.163526 0.840589,-6.163526 6.163525,0 h 1.726074 A 1.5761049,1.5761049 0 0 1 12.5676,13.329384 c 0,-0.30949 0.09218,-0.599398 0.248356,-0.846321 H 11.642952 C 9.121184,9.120706 9.681417,8.84035 9.681417,8.84035 h 3.126897 A 1.5761049,1.5761049 0 0 1 12.567122,8.005492 c 0,-0.309489 0.09218,-0.599397 0.248356,-0.845842 H 9.68094 c 0,0 -0.559756,-0.279879 1.961534,-3.641758 h 1.166318 a 1.5761049,1.5761049 0 0 1 -0.24167,-0.834858 c 0,-0.30949 0.09218,-0.599398 0.248356,-0.846321 h -1.733715 c -5.323414,6.163526 -0.84059,6.163526 -6.164003,0 z M 1.837191,2.172471 c 0.282744,0 0.503876,0.222088 0.503876,0.504832 0,0.282743 -0.221132,0.503398 -0.503876,0.503398 -0.282744,0 -0.504354,-0.221132 -0.504354,-0.503398 0,-0.282266 0.222088,-0.504832 0.504354,-0.504832 m 12.327528,0 c 0.282744,0 0.503876,0.222088 0.503876,0.504832 0,0.282743 -0.221132,0.503398 -0.503876,0.503398 -0.282743,0 -0.504353,-0.221132 -0.504353,-0.503398 0,-0.282266 0.222087,-0.504832 0.504353,-0.504832 M 1.837668,6.823891 A 1.1820787,1.1820787 0 0 0 0.659888,7.999761 1.1825563,1.1825563 0 0 0 1.837191,9.177064 1.1820787,1.1820787 0 0 0 3.013538,7.999761 1.1811235,1.1811235 0 0 0 1.837191,6.823891 m 12.327051,0 a 1.1820787,1.1820787 0 0 0 -1.177303,1.17587 1.1825563,1.1825563 0 0 0 1.177303,1.177303 1.1820787,1.1820787 0 0 0 1.176347,-1.177303 1.1811235,1.1811235 0 0 0 -1.176347,-1.17587 M 1.837191,7.496363 c 0.281788,0 0.503398,0.221132 0.503398,0.503398 0,0.282266 -0.221132,0.504831 -0.503876,0.504831 -0.282743,0 -0.504353,-0.222087 -0.504353,-0.504831 0,-0.282743 0.222087,-0.503398 0.504353,-0.503398 m 12.327051,0 c 0.282744,0 0.503876,0.221132 0.503876,0.503398 0,0.282266 -0.221132,0.504831 -0.503876,0.504831 -0.282743,0 -0.504353,-0.222087 -0.504353,-0.504831 0,-0.282743 0.222087,-0.503398 0.504353,-0.503398 M 1.836713,12.14635 A 1.1825563,1.1825563 0 0 0 0.658933,13.323653 1.1820787,1.1820787 0 0 0 1.836236,14.5 1.1811235,1.1811235 0 0 0 3.012583,13.323653 1.1820787,1.1820787 0 0 0 1.836236,12.14635 m 12.327051,0 A 1.1825563,1.1825563 0 0 0 12.985984,13.323653 1.1820787,1.1820787 0 0 0 14.163287,14.5 1.1811235,1.1811235 0 0 0 15.339634,13.323653 1.1820787,1.1820787 0 0 0 14.163287,12.14635 M 1.836236,12.818821 c 0.281788,0 0.503398,0.222088 0.503398,0.504832 0,0.282743 -0.221132,0.503876 -0.503876,0.503876 A 0.49909989,0.49909989 0 0 1 1.331404,13.323653 c 0,-0.282744 0.222088,-0.504832 0.504354,-0.504832 m 12.327051,0 c 0.282744,0 0.503876,0.222088 0.503876,0.504832 0,0.282743 -0.221132,0.503876 -0.503876,0.503876 -0.282744,0 -0.504354,-0.22161 -0.504354,-0.503876 0,-0.282744 0.222088,-0.504832 0.504354,-0.504832"
     id="path1"
     style="stroke-width:0.477608;fill:url(#linearGradient2);fill-opacity:1" />
</svg>
