<?xml version="1.0" encoding="UTF-8" standalone="no"?>
<!-- Generator: Gravit.io -->

<svg
   style="isolation:isolate"
   viewBox="0 0 16 16"
   width="16"
   height="16"
   version="1.1"
   id="svg7"
   sodipodi:docname="qq.svg"
   inkscape:version="1.4.4 (unknown)"
   xmlns:inkscape="http://www.inkscape.org/namespaces/inkscape"
   xmlns:sodipodi="http://sodipodi.sourceforge.net/DTD/sodipodi-0.dtd"
   xmlns:xlink="http://www.w3.org/1999/xlink"
   xmlns="http://www.w3.org/2000/svg"
   xmlns:svg="http://www.w3.org/2000/svg">
  <defs
     id="defs7" />
  <sodipodi:namedview
     id="namedview7"
     pagecolor="#ffffff"
     bordercolor="#000000"
     borderopacity="0.25"
     inkscape:showpageshadow="2"
     inkscape:pageopacity="0.0"
     inkscape:pagecheckerboard="0"
     inkscape:deskcolor="#d1d1d1"
     inkscape:document-units="px"
     inkscape:zoom="16.727495"
     inkscape:cx="12.075927"
     inkscape:cy="14.616654"
     inkscape:window-width="1920"
     inkscape:window-height="994"
     inkscape:window-x="0"
     inkscape:window-y="0"
     inkscape:window-maximized="1"
     inkscape:current-layer="svg7" />
  <linearGradient
     id="_lgradient_2"
     x1="1.0292969"
     y1="1.0688416"
     x2="-0.010366589"
     y2="0.13682805"
     gradientTransform="matrix(45.74,0,0,48,1.13,0)"
     gradientUnits="userSpaceOnUse">
    <stop
       offset="0%"
       stop-opacity="1"
       style="stop-color:#00ccff;stop-opacity:1"
       id="stop1" />
    <stop
       offset="97.5%"
       stop-opacity="1"
       style="stop-color:rgb(109,68,222)"
       id="stop2" />
  </linearGradient>
  <linearGradient
     id="_lgradient_3"
     x1="0.34027779"
     y1="0.036585364"
     x2="1.0087188"
     y2="1.0127324"
     gradientTransform="matrix(39.136,0,0,13.144,4.507,19.71)"
     gradientUnits="userSpaceOnUse">
    <stop
       offset="0%"
       stop-opacity="1"
       style="stop-color:rgb(156,51,196)"
       id="stop3" />
    <stop
       offset="51.30434782608696%"
       stop-opacity="1"
       style="stop-color:rgb(255,25,80)"
       id="stop4" />
    <stop
       offset="98.69565217391305%"
       stop-opacity="1"
       style="stop-color:rgb(255,135,36)"
       id="stop5" />
  </linearGradient>
  <linearGradient
     id="_lgradient_4"
     x1="0"
     y1="0.5"
     x2="1"
     y2="0.5"
     gradientTransform="matrix(22,0,0,5.081,12.998,17.87)"
     gradientUnits="userSpaceOnUse"
     xlink:href="#_lgradient_2">
    <stop
       offset="0%"
       stop-opacity="1"
       style="stop-color:rgb(247,242,6)"
       id="stop6" />
    <stop
       offset="98.26086956521739%"
       stop-opacity="1"
       style="stop-color:rgb(255,187,36)"
       id="stop7" />
  </linearGradient>
  <g
     id="g7"
     transform="matrix(0.27083116,0,0,0.27083116,1.5000522,1.500012)">
    <path
       d="m 46.033,37.069 c 0.014,-0.018 0.022,-0.034 0.027,-0.049 0.53,-1.45 0.81,-2.98 0.81,-4.52 -0.01,-1.71 -0.33,-3.39 -0.96,-4.97 -0.57,-1.41 -1.3,-2.73 -2.2,-3.95 -1.04,-1.42 -2.24,-2.72 -3.58,-3.87 0.27,-1.16 0.41,-2.35 0.41,-3.55 C 40.53,11.85 38.78,7.72 35.68,4.72 32.55,1.68 28.36,-0.01 24,0 19.64,-0.01 15.45,1.68 12.32,4.72 c -3.09,3 -4.85,7.13 -4.86,11.44 0,1.2 0.14,2.39 0.41,3.55 -1.34,1.15 -2.54,2.45 -3.57,3.87 -0.9,1.22 -1.64,2.55 -2.21,3.95 -0.63,1.58 -0.95,3.27 -0.96,4.97 0,1.54 0.28,3.07 0.81,4.52 0.11,0.31 0.24,0.61 0.37,0.91 0.4,0.09 0.8,0.11 1.2,0.06 0.24,-0.02 0.48,-0.07 0.71,-0.15 0.5,-0.15 0.98,-0.36 1.44,-0.63 0.67,-0.4 1.28,-0.88 1.82,-1.45 0.02,-0.03 0.05,-0.05 0.07,-0.08 0.42,0.92 0.92,1.8 1.49,2.63 -0.51,0.26 -0.99,0.59 -1.44,0.96 -0.46,0.39 -0.85,0.86 -1.15,1.4 -0.31,0.56 -0.48,1.19 -0.48,1.83 0.02,0.93 0.36,1.82 0.96,2.53 0.58,0.68 1.3,1.24 2.11,1.64 0.88,0.45 1.82,0.78 2.79,0.98 1.08,0.24 2.19,0.35 3.29,0.35 1.48,0.01 2.95,-0.2 4.37,-0.63 0.63,-0.2 1.24,-0.45 1.82,-0.76 0.33,-0.17 0.65,-0.37 0.95,-0.6 0.58,0.06 1.16,0.09 1.74,0.1 0.58,-0.01 1.16,-0.04 1.74,-0.1 0.3,0.23 0.62,0.43 0.95,0.6 0.58,0.31 1.19,0.56 1.82,0.76 1.42,0.43 2.89,0.64 4.37,0.63 1.1,0 2.21,-0.11 3.29,-0.35 0.97,-0.2 1.91,-0.53 2.79,-0.98 0.81,-0.4 1.53,-0.96 2.11,-1.64 0.6,-0.71 0.94,-1.6 0.96,-2.53 0,-0.64 -0.16,-1.27 -0.48,-1.83 -0.29,-0.54 -0.69,-1.01 -1.15,-1.4 -0.44,-0.37 -0.93,-0.7 -1.44,-0.96 0.57,-0.83 1.07,-1.71 1.49,-2.63 0.02,0.03 0.05,0.05 0.07,0.08 0.54,0.56 1.15,1.05 1.82,1.45 0.45,0.27 0.93,0.48 1.44,0.63 0.23,0.08 0.46,0.13 0.7,0.15 v 0 0 0 0 0 0 l 0.001,-0.001 c 0.008,0.001 0.016,0.001 0.022,0 -0.009,0.002 -0.016,0.002 -0.023,0.001 0.014,0.002 0.028,0.003 0.041,0.003 0.009,-0.002 0.017,-0.002 0.026,10e-4 0.316,0.026 0.622,-0.046 0.893,-0.214 0.209,-0.13 0.376,-0.301 0.5,-0.505 0.013,-0.026 0.027,-0.051 0.042,-0.076 0.021,-0.039 0.041,-0.08 0.051,-0.13 z m 0.021,-0.045 0.006,-0.004 c -0.023,0.062 -0.049,0.121 -0.006,0.004 z M 1.94,37.02 c 0.075,0.217 0.2,0.407 0.364,0.563 0.185,-0.034 0.281,0.042 0.256,0.197 0.28,0.18 0.62,0.25 0.95,0.21 z M 33.8,23.55 c 0.79,1.7 1.2,3.56 1.2,5.45 0.03,3.11 -1.11,6.12 -3.19,8.44 -0.98,1.09 -2.17,1.98 -3.49,2.6 C 26.96,40.67 25.49,41 24,41 22.51,41 21.04,40.67 19.68,40.04 18.36,39.42 17.17,38.53 16.19,37.44 14.11,35.12 12.97,32.11 13,29 c 0,-1.78 0.36,-3.54 1.07,-5.18 0.085,-0.193 1.943,0.566 1.84,0.8 C 15.3,26 15,27.5 15,29 c -0.02,2.62 0.93,5.16 2.67,7.11 0.81,0.89 1.78,1.61 2.86,2.12 1.09,0.51 2.27,0.77 3.47,0.77 1.2,0 2.38,-0.26 3.47,-0.77 1.08,-0.51 2.05,-1.23 2.86,-2.12 1.74,-1.95 2.69,-4.49 2.67,-7.11 0.01,-1.59 -0.34,-3.17 -1.01,-4.61 -0.136,0.113 1.564,-0.997 1.81,-0.84 z M 18,11.935 c 0,-0.552 0.448,-1 1,-1 0.552,0 1,0.448 1,1 0,0.552 -0.448,1 -1,1 -0.552,0 -1,-0.448 -1,-1 z m 10.207,0.549 v 0 c -0.221,0.165 -0.535,0.123 -0.7,-0.095 v 0 c -0.166,-0.218 -0.121,-0.53 0.1,-0.695 v 0 c 0.37,-0.29 0.82,-0.44 1.29,-0.44 0.51,0.02 1.02,0.17 1.46,0.43 v 0 c 0.232,0.143 0.306,0.452 0.165,0.69 v 0 c -0.141,0.237 -0.448,0.313 -0.685,0.17 v 0 c -0.29,-0.17 -0.62,-0.27 -0.96,-0.29 -0.24,0.01 -0.48,0.09 -0.67,0.23 z M 27,11.935 c 0,-0.671 0.21,-1.317 0.59,-1.785 0.37,-0.482 0.88,-0.748 1.41,-0.748 0.53,0 1.04,0.266 1.41,0.748 0.38,0.468 0.59,1.114 0.59,1.785 0,0.671 -0.21,1.317 -0.59,1.785 -0.37,0.482 -0.88,0.747 -1.41,0.747 -0.53,0 -1.04,-0.265 -1.41,-0.747 C 27.21,13.252 27,12.606 27,11.935 Z m -10,0 c 0,-0.671 0.21,-1.317 0.59,-1.785 0.37,-0.482 0.88,-0.748 1.41,-0.748 0.53,0 1.04,0.266 1.41,0.748 0.38,0.468 0.59,1.114 0.59,1.785 0,0.671 -0.21,1.317 -0.59,1.785 -0.37,0.482 -0.88,0.747 -1.41,0.747 -0.53,0 -1.04,-0.265 -1.41,-0.747 C 17.21,13.252 17,12.606 17,11.935 Z m 8,0 C 25,10.593 25.42,9.301 26.17,8.352 26.92,7.402 27.94,6.87 29,6.87 c 1.06,0 2.08,0.532 2.83,1.482 0.75,0.949 1.17,2.241 1.17,3.583 0,1.342 -0.42,2.634 -1.17,3.583 C 31.08,16.468 30.06,17 29,17 27.94,17 26.92,16.468 26.17,15.518 25.42,14.569 25,13.277 25,11.935 Z m -10,0 C 15,10.593 15.42,9.301 16.17,8.352 16.92,7.402 17.94,6.87 19,6.87 c 1.06,0 2.08,0.532 2.83,1.482 0.75,0.949 1.17,2.241 1.17,3.583 0,1.342 -0.42,2.634 -1.17,3.583 C 21.08,16.468 20.06,17 19,17 17.94,17 16.92,16.468 16.17,15.518 15.42,14.569 15,13.277 15,11.935 Z M 4.33,34.5 c -0.13,-0.65 -0.2,-1.32 -0.2,-2 0,-1.32 0.26,-2.63 0.75,-3.86 C 5.35,27.47 5.96,26.37 6.71,25.36 8,23.6 9.56,22.06 11.34,20.81 10.76,19.33 10.46,17.75 10.46,16.16 10.47,12.66 11.9,9.31 14.41,6.87 16.98,4.38 20.42,2.99 24,3 c 3.58,-0.01 7.03,1.38 9.59,3.87 2.52,2.44 3.94,5.79 3.95,9.29 0,1.24 -0.18,2.48 -0.54,3.67 -0.18,0.6 0.03,1.26 0.54,1.63 1.42,1.12 2.68,2.43 3.75,3.89 0.75,1.02 1.36,2.12 1.83,3.29 0.49,1.23 0.75,2.54 0.75,3.86 0,0.67 -0.07,1.34 -0.2,2 -0.36,-0.23 -0.68,-0.5 -0.97,-0.81 -0.55,-0.57 -1.01,-1.21 -1.38,-1.9 -0.3,-0.54 -0.89,-0.85 -1.5,-0.78 -0.61,0.08 -1.12,0.52 -1.27,1.11 -0.86,3.26 -2.84,6.11 -5.58,8.07 1.56,-0.21 3.14,0.05 4.54,0.75 0.34,0.17 0.66,0.38 0.95,0.62 0.19,0.16 0.35,0.35 0.47,0.57 0.06,0.11 0.1,0.23 0.1,0.35 -0.01,0.22 -0.09,0.43 -0.24,0.6 -0.32,0.38 -0.72,0.68 -1.17,0.9 -0.66,0.34 -1.36,0.59 -2.08,0.74 -0.88,0.19 -1.77,0.28 -2.67,0.28 -1.18,0.01 -2.35,-0.16 -3.48,-0.5 -0.45,-0.14 -0.89,-0.32 -1.3,-0.54 -0.52,-0.27 -0.98,-0.65 -1.35,-1.12 -0.9,0.17 -1.82,0.26 -2.74,0.27 -0.92,-0.01 -1.84,-0.1 -2.74,-0.27 -0.37,0.47 -0.83,0.85 -1.35,1.12 -0.41,0.22 -0.85,0.4 -1.3,0.54 -1.13,0.34 -2.3,0.51 -3.48,0.5 -0.9,0 -1.79,-0.09 -2.67,-0.28 -0.72,-0.15 -1.42,-0.4 -2.08,-0.74 C 9.93,43.77 9.53,43.46 9.21,43.08 9.07,42.91 8.98,42.7 8.97,42.48 c 0,-0.13 0.04,-0.25 0.1,-0.35 0.12,-0.22 0.28,-0.41 0.47,-0.57 0.29,-0.24 0.61,-0.45 0.95,-0.62 1.41,-0.7 2.99,-0.96 4.54,-0.75 C 12.29,38.23 10.31,35.38 9.46,32.12 9.3,31.53 8.79,31.09 8.19,31.01 7.58,30.94 6.98,31.25 6.69,31.79 6.31,32.48 5.85,33.12 5.31,33.69 5.01,34 4.69,34.27 4.33,34.5 Z"
       fill-rule="evenodd"
       fill="url(#_lgradient_2)"
       id="path2"
       style="fill:url(#_lgradient_2)" />
    <path
       d="m 1.94,37.02 c 0.203,0.561 0.57,0.701 0.62,0.78 0.232,0.161 0.552,0.361 1.44,0.06 z"
       fill="#8a48e7"
       id="path3" />
    <path
       d="m 17.59,27.859 c 2.062,0.333 4.146,0.502 6.235,0.508 3.3,-0.01 6.59,-0.42 9.79,-1.21 3.42,-0.85 6.73,-2.04 9.9,-3.57 l 0.128,-0.062 c -1.702,-2.216 -2.978,-3.452 -3.513,-3.815 -2.483,1.108 -5.067,1.935 -7.715,2.597 -2.81,0.69 -5.7,1.05 -8.6,1.06 -2.82,-0.01 -5.63,-0.36 -8.36,-1.06 -2.59,-0.67 -5.196,-1.408 -7.585,-2.597 -0.895,0.737 -1.96,1.805 -3.363,3.639 l 0.378,0.198 c 2.223,1.172 4.541,2.146 6.926,2.914 v 6.393 h 5.779 z"
       fill-rule="evenodd"
       fill="url(#_lgradient_3)"
       id="path5"
       style="fill:url(#_lgradient_3)" />
    <path
       d="m 15.246,18.844 c 5.284,-1.524 12.645,-1.504 17.513,-0.03 1.236,0.374 1.24,0.994 0.009,1.384 l -6.471,2.048 c -1.231,0.389 -3.231,0.393 -4.463,0.008 L 15.231,20.19 c -1.232,-0.386 -1.225,-0.989 0.015,-1.346 z"
       fill="url(#_lgradient_4)"
       id="path7"
       style="fill:url(#_lgradient_4)" />
  </g>
</svg>
