<?xml version="1.0" encoding="UTF-8" standalone="no"?>
<svg
   viewBox="0 0 16 16"
   version="1.1"
   id="svg1"
   sodipodi:docname="raindrop.svg"
   width="16"
   height="16"
   inkscape:version="1.4.4 (unknown)"
   xmlns:inkscape="http://www.inkscape.org/namespaces/inkscape"
   xmlns:sodipodi="http://sodipodi.sourceforge.net/DTD/sodipodi-0.dtd"
   xmlns:xlink="http://www.w3.org/1999/xlink"
   xmlns="http://www.w3.org/2000/svg"
   xmlns:svg="http://www.w3.org/2000/svg">
  <sodipodi:namedview
     id="namedview1"
     pagecolor="#ffffff"
     bordercolor="#000000"
     borderopacity="0.25"
     inkscape:showpageshadow="2"
     inkscape:pageopacity="0.0"
     inkscape:pagecheckerboard="0"
     inkscape:deskcolor="#d1d1d1"
     inkscape:zoom="34.409091"
     inkscape:cx="9.0383091"
     inkscape:cy="11"
     inkscape:window-width="1920"
     inkscape:window-height="994"
     inkscape:window-x="0"
     inkscape:window-y="0"
     inkscape:window-maximized="1"
     inkscape:current-layer="svg1" />
  <defs
     id="defs3051">
    <linearGradient
       id="linearGradient1"
       inkscape:collect="always">
      <stop
         style="stop-color:#0066ff;stop-opacity:1"
         offset="0"
         id="stop1" />
      <stop
         style="stop-color:#2ad4ff;stop-opacity:1"
         offset="1"
         id="stop2" />
    </linearGradient>
    <style
       type="text/css"
       id="current-color-scheme">
      .ColorScheme-Text {
        color:#d8d8d8;
      }
      </style>
    <linearGradient
       inkscape:collect="always"
       xlink:href="#linearGradient1"
       id="linearGradient2"
       x1="7.1658683"
       y1="1.0832232"
       x2="7.2357168"
       y2="14.5"
       gradientUnits="userSpaceOnUse" />
  </defs>
  <path
     d="M 8.0000004,1.5000001 C 7.6047519,2.8832814 6.6491624,4.0772098 6.2226565,5.0292977 6.0734004,5.3123727 5.9687504,5.6253068 5.9687504,5.9687507 c 0,1.125312 0.905937,2.03125 2.03125,2.03125 1.1253124,0 2.0312506,-0.905938 2.0312506,-2.03125 0,-0.3434439 -0.079244,-0.656378 -0.2285165,-0.939453 C 9.3762454,4.0772098 8.3952412,2.8832814 8.0000004,1.5000001 Z M 4.3437498,8.0000007 C 3.9485015,9.3832824 2.9929124,10.57721 2.5664061,11.5293 c -0.1492563,0.283072 -0.2539063,0.596008 -0.2539063,0.939451 0,1.125316 0.9059377,2.031249 2.03125,2.031249 1.1253127,0 2.0312506,-0.905933 2.0312506,-2.031249 0,-0.343443 -0.079246,-0.656379 -0.2285159,-0.939451 C 5.7199951,10.57721 4.7389907,9.3832824 4.3437498,8.0000007 Z m 7.3125002,0 C 11.261,9.3832824 10.305413,10.57721 9.8789071,11.5293 c -0.1492567,0.283072 -0.2539067,0.596008 -0.2539067,0.939451 0,1.125316 0.9059366,2.031249 2.0312496,2.031249 1.125317,0 2.03125,-0.905933 2.03125,-2.031249 0,-0.343443 -0.07924,-0.656379 -0.228512,-0.939451 C 13.032496,10.57721 12.051496,9.3832824 11.65625,8.0000007 Z"
     id="path1"
     style="fill:url(#linearGradient2)" />
</svg>
