<?xml version="1.0" encoding="UTF-8" standalone="no"?>
<!-- Generator: Gravit.io -->

<svg
   style="isolation:isolate"
   viewBox="0 0 16 16"
   width="16"
   height="16"
   version="1.1"
   id="svg6"
   sodipodi:docname="rambox.svg"
   inkscape:version="1.4.4 (unknown)"
   xmlns:inkscape="http://www.inkscape.org/namespaces/inkscape"
   xmlns:sodipodi="http://sodipodi.sourceforge.net/DTD/sodipodi-0.dtd"
   xmlns:xlink="http://www.w3.org/1999/xlink"
   xmlns="http://www.w3.org/2000/svg"
   xmlns:svg="http://www.w3.org/2000/svg">
  <defs
     id="defs6">
    <linearGradient
       inkscape:collect="always"
       xlink:href="#_lgradient_8"
       id="linearGradient8"
       x1="2.6396718"
       y1="11.329462"
       x2="14.986423"
       y2="11.329462"
       gradientUnits="userSpaceOnUse"
       gradientTransform="translate(1.2861963e-4,0.30046402)" />
    <linearGradient
       inkscape:collect="always"
       xlink:href="#_lgradient_8"
       id="linearGradient9"
       gradientUnits="userSpaceOnUse"
       gradientTransform="matrix(7.0919627,0,0,7.8675631,4.5857043,8.4108541)"
       x1="-3.8208334e-05"
       y1="0.50000006"
       x2="0.99996185"
       y2="0.50000006" />
  </defs>
  <sodipodi:namedview
     id="namedview6"
     pagecolor="#ffffff"
     bordercolor="#000000"
     borderopacity="0.25"
     inkscape:showpageshadow="2"
     inkscape:pageopacity="0.0"
     inkscape:pagecheckerboard="0"
     inkscape:deskcolor="#d1d1d1"
     inkscape:document-units="px"
     inkscape:zoom="23.65625"
     inkscape:cx="5.1149273"
     inkscape:cy="13.4214"
     inkscape:window-width="1920"
     inkscape:window-height="994"
     inkscape:window-x="0"
     inkscape:window-y="0"
     inkscape:window-maximized="1"
     inkscape:current-layer="svg6" />
  <linearGradient
     id="_lgradient_8"
     x1="-3.8208334e-05"
     y1="0.50000006"
     x2="0.99996185"
     y2="0.50000006"
     gradientTransform="matrix(7.0919627,0,0,7.8675631,4.5855757,8.1103902)"
     gradientUnits="userSpaceOnUse">
    <stop
       offset="0%"
       stop-opacity="1"
       style="stop-color:rgb(0,198,255)"
       id="stop1" />
    <stop
       offset="98.69565217391305%"
       stop-opacity="1"
       style="stop-color:rgb(0,114,255)"
       id="stop2" />
  </linearGradient>
  <linearGradient
     id="_lgradient_9"
     x1="0"
     y1="0.5"
     x2="0.90748805"
     y2="0.92007786">
    <stop
       offset="0%"
       stop-opacity="1"
       style="stop-color:rgb(0,196,255)"
       id="stop3" />
    <stop
       offset="83.88839793817618%"
       stop-opacity="1"
       style="stop-color:rgb(0,114,255)"
       id="stop4" />
  </linearGradient>
  <linearGradient
     id="_lgradient_10"
     x1="0.13925958"
     y1="1.0000116"
     x2="0.90748805"
     y2="0.92007786"
     gradientTransform="matrix(12.749065,0,0,12.749065,3.068905,4.4387723)"
     gradientUnits="userSpaceOnUse">
    <stop
       offset="0%"
       stop-opacity="1"
       style="stop-color:rgb(0,196,255)"
       id="stop5" />
    <stop
       offset="83.88839793817618%"
       stop-opacity="1"
       style="stop-color:rgb(0,114,255)"
       id="stop6" />
  </linearGradient>
  <g
     id="g6"
     transform="translate(-1.2289045,-2.9388741)">
    <path
       d="M 9.0549687,8.410854 C 8.5502972,8.6751425 8.3298354,9.1527211 8.1014052,9.6029412 7.9561129,9.4066505 7.9191922,9.1314718 7.8628815,8.8876358 7.4169113,9.4751796 7.2200894,10.451321 7.0405326,11.038333 c -0.2541951,0.835099 -0.5779817,1.347473 -1.0406858,1.645761 -0.2746475,0.177431 -0.5211397,0.268272 -1.0537009,0.388862 -0.1346676,0.04011 -0.3020061,0.07756 -0.3604417,0.09084 0.1654791,0.449158 0.3962999,0.866441 0.6807753,1.240164 0.068529,0.09004 0.1402455,0.177432 0.2151494,0.262429 0.00823,0.0096 0.016999,0.01859 0.025499,0.02789 0.2103683,0.23507 0.4446421,0.447564 0.6977747,0.636683 0.03028,0.02258 0.059498,0.04622 0.09031,0.068 0.070388,0.0502 0.1431673,0.09748 0.2164775,0.143964 0.040905,0.0255 0.082341,0.05073 0.1243085,0.07517 0.071716,0.0425 0.143433,0.08394 0.21754,0.122715 0.048874,0.0255 0.099341,0.04781 0.1495421,0.07172 0.1155432,0.05525 0.2337426,0.105715 0.3545982,0.151667 0.069326,0.0263 0.1383862,0.05286 0.2090402,0.07597 0.064014,0.02098 0.1290897,0.03905 0.1941657,0.05711 0.07092,0.01992 0.1418393,0.03798 0.2138214,0.05472 0.08606,0.01965 0.1718539,0.04037 0.2600386,0.05525 0.2409142,0.0417 0.4882033,0.06534 0.740539,0.06933 h 0.00212 c 0.025765,5.31e-4 0.051264,0.0019 0.07756,0.0019 0.071185,0 0.1415736,-0.0021 0.211962,-0.0048 0.2773037,-0.431096 0.3131619,-1.104434 0.2201961,-1.499671 -0.056576,-0.223649 -0.2034623,-0.625527 -0.1936344,-0.641199 0.00983,-0.01567 0.2491483,0.0085 0.4528762,0.0085 0.2409143,0 0.4175493,0.0088 0.5450453,-0.03002 0.107841,-0.03267 0.236665,-0.08579 0.313428,-0.08181 0.339989,0.017 0.770819,-0.137324 0.884769,-0.439862 0.03506,-0.09429 0.09615,-0.215415 0.135198,-0.269335 0.06428,-0.08845 0.0664,-0.113418 0.02523,-0.252335 -0.05817,-0.196557 -0.176635,-0.359645 -0.427377,-0.588872 -0.189916,-0.173182 -0.250742,-0.190979 -0.260304,-0.377176 -0.0069,-0.136261 0.02975,-0.231883 -0.04436,-0.301475 -0.08367,-0.07915 -0.330693,-0.02842 -0.344505,-0.02975 -0.08792,-0.102528 -0.171854,-0.209306 -0.0098,-0.357254 0.122715,-0.11209 0.145027,-0.154058 0.145027,-0.276507 0,-0.12059 -0.02205,-0.16362 -0.128293,-0.256851 -0.07012,-0.06136 -0.145558,-0.111559 -0.168135,-0.111559 -0.02205,0 -0.135199,-0.09004 -0.250211,-0.199744 -0.223666,-0.212794 -0.396583,-0.250511 -0.5705618,-0.250511 -0.1410424,0 -0.2980218,-0.0348 -0.2980218,-0.238524 C 9.480752,9.4013382 10.204558,9.0443495 10.48558,8.8876358 9.7737271,8.7867015 9.2889769,8.9357124 8.8167106,9.3644175 8.7943988,9.1152692 9.0286726,8.5718177 9.0549687,8.410854 Z"
       fill="url(#_lgradient_8)"
       vector-effect="non-scaling-stroke"
       stroke-width="3"
       stroke="url(#_lgradient_9)"
       stroke-linejoin="miter"
       stroke-linecap="butt"
       stroke-miterlimit="4"
       id="path4"
       style="fill:url(#linearGradient9);stroke:url(#linearGradient8);stroke-width:0.133333;stroke-dasharray:none;stroke-opacity:1" />
    <path
       d="m 14.432248,12.640746 v 0 c -0.100669,0.275179 0.04117,0.580107 0.316349,0.680776 v 0 c 0.275179,0.100668 0.580107,-0.04117 0.680775,-0.31635 v 0 c 0.231884,-0.629777 0.361504,-1.29249 0.384879,-1.961312 C 15.891545,8.8272892 14.811548,6.7217467 12.96206,5.4983168 11.985388,4.8502123 10.844565,4.4836615 9.6739923,4.4427565 7.457422,4.3651965 5.3518794,5.4451935 4.1284494,7.2949472 3.4806106,8.2716194 3.1137941,9.4095208 3.0728892,10.583015 c -0.077295,2.21657 1.0024369,4.321847 2.8521908,5.545277 0.9766721,0.648104 2.1145735,1.014655 3.2880676,1.055826 1.4970154,0.05206 2.9674684,-0.422862 4.1502594,-1.340833 v 0 c 0.23082,-0.18115 0.272257,-0.516093 0.0927,-0.74771 v 0 c -0.179823,-0.231352 -0.514234,-0.272257 -0.746383,-0.09111 v 0 C 11.72349,15.769972 10.500325,16.165741 9.2500683,16.12218 8.2760523,16.08818 7.3270043,15.78405 6.5115614,15.242458 4.9709852,14.221165 4.0702794,12.467564 4.1348242,10.619936 4.1688231,9.6429977 4.4729541,8.6968715 5.0142807,7.8814286 6.0355765,6.3408525 7.7894427,5.4401468 9.636806,5.504426 c 0.974282,0.033999 1.923064,0.3383955 2.738773,0.879722 1.54031,1.0212957 2.441281,2.7748963 2.376737,4.622525 -0.01939,0.557529 -0.126434,1.109215 -0.320068,1.634073 z"
       fill-rule="evenodd"
       fill="url(#_lgradient_10)"
       id="path6"
       style="fill:url(#_lgradient_10);stroke-width:0.265617" />
  </g>
</svg>
