<?xml version="1.0" encoding="UTF-8" standalone="no"?>
<!-- Generator: Gravit.io -->

<svg
   style="isolation:isolate"
   viewBox="0 0 16 16"
   width="16"
   height="16"
   version="1.1"
   id="svg4"
   sodipodi:docname="distributor-logo-raspbian.svg"
   inkscape:version="1.4.4 (unknown)"
   xmlns:inkscape="http://www.inkscape.org/namespaces/inkscape"
   xmlns:sodipodi="http://sodipodi.sourceforge.net/DTD/sodipodi-0.dtd"
   xmlns="http://www.w3.org/2000/svg"
   xmlns:svg="http://www.w3.org/2000/svg">
  <defs
     id="defs4" />
  <sodipodi:namedview
     id="namedview4"
     pagecolor="#ffffff"
     bordercolor="#000000"
     borderopacity="0.25"
     inkscape:showpageshadow="2"
     inkscape:pageopacity="0.0"
     inkscape:pagecheckerboard="0"
     inkscape:deskcolor="#d1d1d1"
     inkscape:document-units="px"
     inkscape:zoom="17.742187"
     inkscape:cx="11.32893"
     inkscape:cy="13.724351"
     inkscape:window-width="1920"
     inkscape:window-height="994"
     inkscape:window-x="0"
     inkscape:window-y="0"
     inkscape:window-maximized="1"
     inkscape:current-layer="svg4" />
  <linearGradient
     id="_lgradient_6"
     x1="0.52260035"
     y1="0.22580998"
     x2="0.53418493"
     y2="1.1236743"
     gradientTransform="matrix(8.6584502,0,0,3.7088782,4.0508211,1.4363918)"
     gradientUnits="userSpaceOnUse">
    <stop
       offset="0%"
       stop-opacity="1"
       style="stop-color:rgb(165,248,106)"
       id="stop1" />
    <stop
       offset="97.91666666666666%"
       stop-opacity="1"
       style="stop-color:rgb(47,206,146)"
       id="stop2" />
  </linearGradient>
  <linearGradient
     id="_lgradient_7"
     x1="0.50917715"
     y1="0.98516738"
     x2="0.4803189"
     y2="0.032353707"
     gradientTransform="matrix(10.159755,0,0,9.9586599,3.310833,4.4777978)"
     gradientUnits="userSpaceOnUse">
    <stop
       offset="0%"
       stop-opacity="1"
       style="stop-color:rgb(252,73,136)"
       id="stop3" />
    <stop
       offset="98.26086956521739%"
       stop-opacity="1"
       style="stop-color:rgb(234,51,62)"
       id="stop4" />
  </linearGradient>
  <g
     id="g4"
     transform="translate(-0.390812,0.06354289)">
    <path
       d="m 4.0581337,1.9582226 c 0.101563,-0.1929698 0.3826894,0.034125 0.4901431,-0.050375 0.1698133,-0.1338601 -0.190126,-0.2183605 0.2957515,-0.2183605 0.041438,0 0.235423,0.1253288 0.2561419,0.092219 0.034328,-0.055047 -0.023359,-0.1521414 0.014016,-0.2077979 0.040625,-0.060328 0.335361,0.060328 0.3757831,0.060328 0.06886,0 0.077391,-0.275642 0.191751,-0.1761103 0.040828,0.035547 0.274017,0.186876 0.3187047,0.186876 0.1702196,0 -0.00447,-0.159454 0.085922,-0.1978448 0.078813,-0.033516 0.420674,0.1801728 0.443424,0.2203918 0.03839,0.068657 0.04428,-0.2163293 0.159657,-0.175704 0.114157,0.040219 0.182001,0.2136885 0.29108,0.283767 0.03148,0.02011 0.05667,-0.1669696 0.124313,-0.1448288 0.103391,0.034125 0.281939,0.299814 0.356486,0.3469392 0.02458,0.015438 0.09588,-0.1484851 0.150923,-0.090797 0.0587,0.061344 0.132438,0.1023755 0.192766,0.1655477 0.07008,0.073329 0.07252,0.652644 0.198861,0.3678613 C 8.139748,2.1142233 8.137717,2.6141165 8.19703,2.7382265 8.28539,2.9232743 8.534016,3.114619 8.476328,3.3163232 8.416608,3.5243242 8.566918,3.617356 8.367452,3.751216 8.307122,3.791435 8.179764,3.9614514 8.151529,4.020358 7.776559,4.1694525 7.674589,3.8598884 7.449526,3.702872 7.233806,3.5523556 6.954711,3.2986512 6.842991,3.2478697 6.748335,3.204807 6.2376759,3.0750095 6.1511442,3.0091966 6.0865502,2.9602433 6.0443,2.8590865 5.9687371,2.8194769 5.8885023,2.7774298 5.771908,2.7378203 5.7154389,2.6789137 c -0.013203,-0.013813 -0.071907,2.031e-4 -0.05525,-0.00894 0.00894,-0.00488 0.032906,0.00528 0.065813,0.024578 0.1210631,0.070688 0.3617674,0.2644701 0.4070645,0.2882358 0.0975,0.050985 0.1974386,0.195001 0.3069226,0.2236418 0.203126,0.053219 0.300018,0.293314 0.420065,0.3351579 0.112532,0.039407 0.203126,0.1679853 0.299814,0.2183605 0.04387,0.02275 0.229126,0.1614852 0.244564,0.1937823 0.04611,0.096688 0.110907,0.103188 0.145032,0.2106416 0.04773,0.1497039 0.31647,0.3057047 0.06399,0.5080182 -0.0077,0.024578 -0.0717,0.048344 -0.09364,0.0715 C 7.434504,4.8330618 7.314251,4.9496565 7.212282,5.0030786 7.140372,5.0408596 7.026421,4.9847976 6.959187,5.0209536 6.696545,5.1629387 6.1590736,5.1830482 5.8742909,5.0827036 5.6486179,5.0032816 6.046948,4.8243273 5.6673055,4.8243273 c -0.080032,0 -0.1923604,-0.017672 -0.2898609,-0.017672 -0.2839702,0 -0.00508,-0.1637195 -0.062766,-0.2512669 C 5.2374834,4.4381882 4.8889191,4.5757046 4.8320438,4.4509852 4.7686685,4.3114376 4.9876384,4.2504998 4.9705758,4.2326247 4.840372,4.096124 4.6045427,4.1272023 4.5198391,3.9488576 4.3841509,3.6624499 4.7696841,3.9037637 4.5878863,3.7134346 4.5429955,3.6665125 4.3668852,3.6695593 4.3333694,3.5663713 c -0.0063,-0.019703 -0.052406,-0.1748915 -0.025594,-0.2029229 0.021328,-0.022344 0.1755009,0.00894 0.1740791,0.0065 C 4.4008075,3.2314164 4.1761498,3.1394003 4.1162276,3.0138684 4.0883996,2.9557744 4.116837,2.8796021 4.1649776,2.8629458 4.2141336,2.8456798 4.3006658,2.9307898 4.313869,2.9159618 4.4324949,2.7827111 4.1074933,2.6139134 4.055493,2.5745069 4.039243,2.5621159 4.070118,2.4365844 4.080884,2.4243968 c 0.034531,-0.039 0.1584383,0.093641 0.1584383,0.039813 0,-0.1854541 -0.1131412,-0.3418611 -0.1811886,-0.5059872 z m 8.6442313,0.072313 c -0.09445,-0.1866729 -0.356689,0.032906 -0.456831,-0.04875 -0.158235,-0.1291882 0.177329,-0.2108448 -0.275642,-0.2108448 -0.03859,0 -0.219376,0.1210631 -0.23847,0.089172 -0.03209,-0.053422 0.02153,-0.1472664 -0.0132,-0.2008917 -0.03778,-0.058297 -0.312611,0.058094 -0.350189,0.058094 -0.06419,0 -0.07211,-0.2662982 -0.178751,-0.1700165 -0.03798,0.034328 -0.255329,0.1805791 -0.29697,0.1805791 -0.158642,0 0.0041,-0.1539696 -0.08003,-0.1911416 -0.07353,-0.0325 -0.392236,0.174079 -0.413361,0.2130792 -0.03595,0.066219 -0.04124,-0.2092198 -0.148892,-0.1698134 -0.106235,0.038594 -0.16961,0.2063761 -0.271173,0.274017 C 9.949406,1.8735189 9.926046,1.6927368 9.863074,1.714065 9.766594,1.7469714 9.600229,2.0037227 9.53076,2.0494261 9.50781,2.0642543 9.44138,1.905816 9.390197,1.9614725 9.335357,2.0209884 9.266696,2.0603949 9.21043,2.1215358 9.14502,2.1924268 9.14279,2.752039 9.024976,2.4768032 8.898429,2.1812548 8.900257,2.6642885 8.845007,2.7839298 8.762737,2.9628838 8.530974,3.1477285 8.584802,3.3427295 c 0.05566,0.2008916 -0.0845,0.2906733 0.101563,0.4198615 0.05606,0.039 0.174892,0.2033291 0.201095,0.2602044 0.34958,0.1440164 0.30022,-0.11761 0.510049,-0.2693451 0.201095,-0.1454382 0.461097,-0.3906114 0.5653,-0.4397679 0.08836,-0.041641 0.543565,-0.277267 0.624206,-0.3408454 0.06013,-0.047531 0.264267,-0.07211 0.334752,-0.1102975 0.07475,-0.040625 0.183626,-0.078813 0.236033,-0.1356882 0.01239,-0.013406 0.06703,2.032e-4 0.05159,-0.00873 -0.0083,-0.00467 -0.03067,0.00508 -0.06134,0.023766 -0.112939,0.06825 -0.33719,0.2555325 -0.37944,0.2784858 -0.091,0.04936 -0.184032,0.1882978 -0.286001,0.2159229 -0.189314,0.051391 -0.279502,0.2833608 -0.391627,0.323986 -0.104813,0.037985 -0.247002,0.2606107 -0.33719,0.3091579 -0.04083,0.021938 -0.208204,0.2610169 -0.222626,0.2920952 -0.1495,0.1629071 -0.104813,0.265892 -0.142391,0.4911587 0.0073,0.023766 0.06683,0.046719 0.08755,0.069063 0.07942,0.086125 0.191345,0.1988603 0.286611,0.2504544 0.06703,0.036359 0.173267,-0.017672 0.235829,0.017266 0.244767,0.1373132 0.745676,0.156407 1.011162,0.059516 0.210235,-0.076579 -0.160876,-0.2494388 0.192766,-0.2494388 0.07455,0 0.179361,-0.017266 0.270158,-0.017266 0.264673,0 0.0047,-0.158032 0.0585,-0.2425325 0.07211,-0.1133443 0.396909,0.0195 0.449721,-0.1009536 0.05931,-0.1348757 -0.145032,-0.1937822 -0.128985,-0.2110479 0.12147,-0.1318288 0.341252,-0.1019693 0.420065,-0.2742202 0.126547,-0.2764545 -0.232782,-0.043469 -0.06338,-0.227298 0.04184,-0.045297 0.205969,-0.042453 0.237048,-0.1419851 0.0061,-0.019094 0.04895,-0.169204 0.02397,-0.1962197 -0.01991,-0.021531 -0.163517,0.00873 -0.162298,0.0063 0.07556,-0.133657 0.284783,-0.2226262 0.340845,-0.3440955 0.0258,-0.056063 -6.09e-4,-0.1295944 -0.0455,-0.1458445 -0.04591,-0.016453 -0.126344,0.065813 -0.138735,0.051391 -0.110704,-0.1287819 0.19236,-0.2918921 0.240908,-0.3300798 0.01503,-0.011781 -0.01361,-0.1330476 -0.02377,-0.1448289 -0.0323,-0.037781 -0.147673,0.090391 -0.147673,0.038391 0,-0.1791571 0.105423,-0.3300797 0.168798,-0.4887212 z"
       fill-rule="evenodd"
       fill="url(#_lgradient_6)"
       id="path2"
       style="fill:url(#_lgradient_6);stroke-width:0.203126" />
    <path
       d="m 6.804601,11.304254 c -0.0018,-0.0055 -0.0039,-0.01077 -0.0057,-0.01625 v 0 0 0 0 0 l 0.05302,-0.101157 c 0.125735,-0.24111 0.268126,-0.473689 0.427377,-0.693675 0.117407,-0.167579 0.253501,-0.322564 0.406455,-0.460893 0.11111,-0.1005472 0.236845,-0.1822039 0.37294,-0.2431417 0.108875,-0.045906 0.226282,-0.069063 0.34572,-0.071094 0.12147,0.00203 0.243142,0.022953 0.358315,0.065 0.148688,0.052203 0.293314,0.1235006 0.427377,0.2114542 0.173876,0.1131415 0.339423,0.2411105 0.492377,0.3792365 0.145845,0.130001 0.287017,0.266095 0.422909,0.406658 -0.01849,0.03717 -0.03555,0.07495 -0.052,0.112938 -0.03392,0.07942 -0.06541,0.159454 -0.09445,0.240501 l -0.186267,0.145032 c -0.24111,0.188705 -0.509237,0.341659 -0.794223,0.4548 -0.23461,0.09222 -0.481815,0.14036 -0.731253,0.142391 -0.213689,-0.002 -0.425346,-0.03778 -0.626441,-0.108875 -0.230345,-0.08186 -0.446268,-0.197033 -0.645331,-0.339424 z m 2.909577,1.009131 c 0.0012,4.06e-4 0.0024,8.12e-4 0.0037,0.0012 v 0 c 0,-0.0012 0,-0.0022 2.03e-4,-0.0035 -10e-4,0.0012 -0.0024,0.0018 -0.0039,0.0022 z m 1.767196,-3.8210044 c -0.02295,-0.211251 -0.03372,-0.423924 -0.0325,-0.6370032 0,-0.1425945 0.0041,-0.2849858 0.01259,-0.4296115 -0.152954,-0.052407 -0.303877,-0.1151725 -0.450534,-0.1864697 -0.0059,-0.00264 -0.01158,-0.00548 -0.01727,-0.00833 v 0 0 0 h -0.213283 -0.02925 c -0.0022,0 -0.0043,0 -0.0063,0 C 10.45781,7.2266962 10.168559,7.2602162 9.88987,7.3315136 9.693041,7.3796546 9.508602,7.4698424 9.349352,7.5955774 9.21732,7.7024217 9.116772,7.8427818 9.051772,8.0000013 8.974382,8.2031274 8.936599,8.4210816 8.940865,8.6410671 c 0,0.1297975 0.0083,0.2597982 0.02722,0.3895957 l 0.0061,0.049157 c 0.01138,0.00386 0.02255,0.00772 0.03372,0.011781 0.20536,0.073328 0.400158,0.1696102 0.582362,0.2890483 0.06419,0.041844 0.12736,0.085313 0.18911,0.130407 0.06886,0.00853 0.139548,0.011984 0.209017,0.011984 0.127766,0.00223 0.253501,-0.018688 0.375174,-0.0585 0.113141,-0.039813 0.219985,-0.094454 0.316267,-0.1655477 0.119438,-0.087954 0.232579,-0.1864697 0.335158,-0.293314 0.130005,-0.1340615 0.25574,-0.2723903 0.37924,-0.4127504 z M 5.1903581,8.86207 c 0,-0.00102 0,-0.00203 0,-0.00305 0,-0.3542518 -0.050375,-0.7040348 -0.146657,-1.0434584 C 5.3890154,7.6559045 5.7172671,7.460091 6.0221592,7.2309649 v 0 h 0.2492357 0.029453 c 0.00203,0 0.00406,0 0.0063,0 0.2870171,-0.00427 0.5760651,0.02925 0.8547541,0.1005474 0.197033,0.048141 0.381471,0.1383288 0.540722,0.2640638 C 7.834453,7.7024204 7.935203,7.8427805 8,8 c 0.07759,0.2031261 0.115376,0.4210803 0.11111,0.6410658 0,0.1255319 -0.0079,0.2508606 -0.02376,0.3763925 v 0 C 7.978271,9.0398023 7.871223,9.0729113 7.767426,9.1165833 7.555769,9.2088023 7.363205,9.3345375 7.193392,9.4895227 7.039625,9.6282578 6.899265,9.7789773 6.772921,9.9410719 c -0.01584,0.00102 -0.03128,0.00102 -0.04672,0.00102 C 6.598435,9.9443219 6.4727,9.9234039 6.351027,9.8835919 6.2378791,9.8437781 6.1310348,9.7891372 6.034753,9.7180431 5.9153149,9.6300895 5.8021737,9.5315734 5.699392,9.4247291 5.5695944,9.2906659 5.4438594,9.1523371 5.3201557,9.011977 Z m 5.2404489,3.74016 0.0024,10e-4 v 0 c 0.239283,-0.0014 0.477752,-0.04956 0.701191,-0.140563 0.199064,-0.08999 0.375174,-0.226282 0.511268,-0.400158 0.163517,-0.21572 0.282955,-0.462924 0.354049,-0.724957 0.06683,-0.243345 0.114766,-0.491159 0.142391,-0.74141 l -0.08999,-0.08613 c -0.08795,-0.08592 -0.190532,-0.15722 -0.303673,-0.209626 -0.09222,-0.04184 -0.188704,-0.07739 -0.287017,-0.102579 -0.318502,0.268127 -0.569972,0.603488 -0.733488,0.984755 -0.102579,0.238876 -0.177938,0.488112 -0.224048,0.741613 -0.03981,0.223845 -0.06378,0.450127 -0.07312,0.678035 z m -0.740801,0.48019 c -0.165954,-0.06581 -0.33658,-0.119438 -0.510253,-0.162907 -0.255735,-0.065 -0.519799,-0.09648 -0.781629,-0.09852 -0.264063,0 -0.525893,0.03778 -0.777363,0.113141 -0.116188,0.03494 -0.229735,0.07759 -0.339017,0.130204 0.05505,0.05037 0.111516,0.09912 0.169407,0.146453 0.127766,0.104813 0.263861,0.199064 0.406455,0.280721 0.117204,0.06906 0.242939,0.121469 0.372939,0.161282 0.11111,0.03351 0.224252,0.05038 0.339424,0.05038 0.108876,0 0.21572,-0.01686 0.320533,-0.05038 0.117407,-0.03758 0.228314,-0.08999 0.333127,-0.159251 0.127766,-0.08369 0.247204,-0.182204 0.356283,-0.293314 0.03738,-0.03839 0.07394,-0.0778 0.110094,-0.117813 z M 6.2803324,12.568308 C 6.2673323,12.29876 6.233004,12.03043 6.1751131,11.767179 6.1227066,11.526271 6.0241905,11.295723 5.8838304,11.090363 5.7727205,10.935377 5.6260635,10.811674 5.454422,10.730017 5.262671,10.645923 5.056295,10.601844 4.8472783,10.602657 c -0.02661,0.139751 -0.038188,0.282142 -0.040422,0.42494 -0.00406,0.211454 0.037781,0.419049 0.1174068,0.613847 0.077594,0.171844 0.1927666,0.320533 0.3373924,0.442002 0.1864697,0.150923 0.3938613,0.270361 0.6201437,0.354252 0.1304069,0.04977 0.2632514,0.09445 0.3985332,0.13061 z M 4.4812452,9.7747152 C 4.4564638,9.4722606 4.4544325,9.1352745 4.4570732,8.8567887 4.4558544,8.5496622 4.4091354,8.2453794 4.3191506,7.9536904 c -0.024172,0.03575 -0.047532,0.07211 -0.069469,0.1090787 -0.1300007,0.2073916 -0.2012979,0.4482991 -0.2053604,0.6934722 0.00406,0.2179543 0.060735,0.4316428 0.1633133,0.6244094 0.077797,0.1409695 0.169204,0.2732046 0.2736107,0.3940645 z M 5.072545,6.9756386 C 5.3079681,6.8452317 5.5307974,6.6924809 5.7392047,6.5206363 6.0895971,6.2299629 6.405661,5.9023206 6.684553,5.5448188 v 0 C 6.631943,5.5433988 6.579537,5.5421788 6.527131,5.5421788 6.3112076,5.5379125 6.0954877,5.5716315 5.8901273,5.6386631 5.7331109,5.6931008 5.5925477,5.7830857 5.475344,5.8984612 5.3536715,6.0282588 5.259421,6.1812127 5.2009207,6.351026 5.1312485,6.5525271 5.0877795,6.7623562 5.072545,6.9756386 Z M 7.547433,5.3754117 C 7.688605,5.506428 7.847653,5.6175379 8.018888,5.7077259 8.182405,5.7916169 8.360343,5.8354922 8.54275,5.8397578 8.714595,5.8354878 8.884205,5.7956798 9.03919,5.7203197 9.17041,5.6553197 9.286191,5.6114442 9.391208,5.5647252 9.214082,5.4694592 9.028831,5.3904431 8.838095,5.324224 8.632735,5.25313 8.414984,5.2133172 8.19703,5.2110828 c -0.148689,0 -0.29758,0.023156 -0.43794,0.069266 -0.07333,0.025594 -0.144626,0.056469 -0.211657,0.095063 z m 2.581122,0.2547201 c 0.15986,0.2413137 0.416205,0.4080802 0.710535,0.6433001 0.152954,0.1194381 0.31647,0.2220167 0.490346,0.3059078 0.109891,0.053016 0.22222,0.1003442 0.337596,0.1385319 C 11.634332,6.5947773 11.590252,6.4753392 11.538859,6.3593542 11.467559,6.1938065 11.37128,6.0428839 11.251842,5.9110551 11.157592,5.8082733 11.042419,5.7266166 10.91445,5.6699445 c -0.138126,-0.054438 -0.284783,-0.081657 -0.433674,-0.081657 -0.118423,0.00183 -0.236642,0.014016 -0.352221,0.041844 z m 2.057464,1.9723537 c -0.0022,0.084907 -0.0039,0.1700165 -0.0039,0.2549232 -0.002,0.3394236 0.03148,0.6768159 0.09852,1.0099426 0.05566,0.2638607 0.135892,0.5214245 0.24233,0.768832 0.03677,-0.067438 0.07089,-0.1365007 0.101156,-0.2073917 0.07333,-0.1696102 0.11111,-0.3540487 0.113142,-0.5425496 -0.0063,-0.2683295 -0.07536,-0.5301589 -0.203126,-0.7670039 -0.07963,-0.1507195 -0.171845,-0.293314 -0.276658,-0.4273772 -0.02336,-0.030063 -0.04712,-0.059922 -0.0715,-0.089375 z M 10.432635,13.33653 c -0.102782,0.131829 -0.213689,0.257564 -0.329064,0.377002 -0.144423,0.146657 -0.303674,0.278689 -0.47755,0.394065 -0.159251,0.10461 -0.333126,0.18647 -0.515534,0.24497 -0.175907,0.05464 -0.358314,0.08389 -0.542549,0.08389 -0.184439,0 -0.368877,-0.02722 -0.547019,-0.08166 -0.184235,-0.05444 -0.360345,-0.13 -0.527924,-0.226282 C 7.314853,14.025737 7.143009,13.908533 6.983961,13.776501 6.839335,13.657063 6.701006,13.529297 6.566943,13.397265 6.2464104,13.332265 5.9279087,13.240046 5.6220009,13.122842 5.3223901,13.011732 5.0437011,12.85045 4.7942624,12.649152 4.5616831,12.456385 4.3774478,12.211415 4.253744,11.934758 4.1302434,11.645709 4.0693056,11.333504 4.0735712,11.017034 4.0756025,10.832596 4.092462,10.64836 4.1217121,10.465953 3.9017266,10.250233 3.7132257,10.003029 3.5645374,9.7326681 3.401021,9.4330573 3.3150986,9.0956649 3.310833,8.7542101 3.3171299,8.3749738 3.4239742,8.0040657 3.6230377,7.6792671 3.7278507,7.5076256 3.8493201,7.3461404 3.9876489,7.1994835 4.0987589,7.0800454 4.218197,6.9691385 4.343932,6.8643255 4.3689165,6.6065586 4.4235574,6.3530573 4.5094797,6.1099154 4.6014958,5.8397578 4.7524184,5.5945847 4.9494507,5.387193 5.1462798,5.1881295 5.3873904,5.0372069 5.6534855,4.9449877 5.9362369,4.8487059 6.2358478,4.8025963 6.535459,4.8088932 c 0.15925,0 0.318501,0.01036 0.475721,0.02925 0.159251,-0.1046099 0.330892,-0.188501 0.511065,-0.25147 0.220189,-0.073329 0.450533,-0.1109069 0.681082,-0.1088756 0.297579,0.00427 0.594956,0.056672 0.875676,0.1549852 0.247407,0.083891 0.488315,0.1907353 0.71866,0.3144391 0.220188,-0.056672 0.446471,-0.088157 0.674784,-0.092219 0.247205,-0.00223 0.494409,0.04611 0.724957,0.1403601 0.226283,0.096282 0.429409,0.2388762 0.597191,0.4210803 0.173876,0.1927666 0.314236,0.4127521 0.416814,0.6516283 0.102782,0.2346105 0.182407,0.4797837 0.238877,0.7312537 0.138328,0.1403601 0.266095,0.2892514 0.385533,0.4422053 0.13,0.167579 0.245173,0.3455174 0.343689,0.5321902 0.184438,0.3414549 0.284986,0.7206912 0.291283,1.1082556 0,0.2892515 -0.0587,0.5720029 -0.171845,0.838098 -0.104813,0.2388762 -0.240907,0.4631276 -0.404424,0.6662536 -0.02092,0.387564 -0.08389,0.771066 -0.188501,1.146037 -0.09445,0.354252 -0.257767,0.685144 -0.479987,0.978661 -0.211454,0.270158 -0.48608,0.486081 -0.802347,0.624207 -0.314236,0.132031 -0.651629,0.201297 -0.991052,0.201297 z"
       fill-rule="evenodd"
       fill="url(#_lgradient_7)"
       id="path4"
       style="fill:url(#_lgradient_7);stroke-width:0.203126" />
  </g>
</svg>
