<?xml version="1.0" encoding="UTF-8" standalone="no"?>
<!-- Generator: Gravit.io -->

<svg
   style="isolation:isolate"
   viewBox="0 0 13 13"
   width="13pt"
   height="13pt"
   version="1.1"
   id="svg2"
   sodipodi:docname="rnote.svg"
   inkscape:version="1.4.4 (unknown)"
   xmlns:inkscape="http://www.inkscape.org/namespaces/inkscape"
   xmlns:sodipodi="http://sodipodi.sourceforge.net/DTD/sodipodi-0.dtd"
   xmlns:xlink="http://www.w3.org/1999/xlink"
   xmlns="http://www.w3.org/2000/svg"
   xmlns:svg="http://www.w3.org/2000/svg">
  <defs
     id="defs2">
    <linearGradient
       id="_lgradient_3"
       x1="1.0292969"
       y1="1.0688416"
       x2="-0.010366589"
       y2="0.13682805"
       gradientTransform="matrix(5.8960416,0,0,6.0008541,5.250001,42.75)"
       gradientUnits="userSpaceOnUse">
      <stop
         offset="0%"
         stop-opacity="1"
         style="stop-color:rgb(199,81,251)"
         id="stop1-3" />
      <stop
         offset="97.5%"
         stop-opacity="1"
         style="stop-color:#33d17a;stop-opacity:1"
         id="stop2-6" />
    </linearGradient>
    <linearGradient
       id="_lgradient_20"
       x1="0"
       y1="0.5"
       x2="0.74727106"
       y2="0.59387076"
       gradientTransform="matrix(13.000205,0,0,13.000205,17.250027,29.999897)"
       gradientUnits="userSpaceOnUse">
      <stop
         offset="2.608695652173913%"
         stop-opacity="1"
         style="stop-color:#ff00ff;stop-opacity:1"
         id="stop3" />
      <stop
         offset="51.73913043478261%"
         stop-opacity="1"
         style="stop-color:#9955ff;stop-opacity:1"
         id="stop4" />
      <stop
         offset="99.1304347826087%"
         stop-opacity="1"
         style="stop-color:#ffd42a;stop-opacity:1"
         id="stop5" />
    </linearGradient>
    <linearGradient
       inkscape:collect="always"
       xlink:href="#linearGradient24"
       id="linearGradient26"
       x1="0.5"
       y1="15"
       x2="15.5"
       y2="1"
       gradientUnits="userSpaceOnUse"
       gradientTransform="matrix(0.70416663,0,0,0.69642854,0.866668,0.9285715)" />
    <linearGradient
       id="linearGradient24"
       x1="0"
       x2="0"
       y1="0"
       y2="1">
      <stop
         offset="0%"
         style="stop-color:#febc85;stop-opacity:1"
         id="stop23" />
      <stop
         offset="1"
         style="stop-color:#8660cb;stop-opacity:1"
         id="stop24" />
    </linearGradient>
    <linearGradient
       inkscape:collect="always"
       xlink:href="#linearGradient24"
       id="linearGradient7"
       x1="21.739122"
       y1="32.249401"
       x2="44.96571"
       y2="45.5737"
       gradientUnits="userSpaceOnUse"
       gradientTransform="matrix(0.19709268,0,0,0.19709268,-1.8265712,0.14395255)" />
  </defs>
  <sodipodi:namedview
     id="namedview2"
     pagecolor="#ffffff"
     bordercolor="#000000"
     borderopacity="0.25"
     inkscape:showpageshadow="2"
     inkscape:pageopacity="0.0"
     inkscape:pagecheckerboard="0"
     inkscape:deskcolor="#d1d1d1"
     inkscape:document-units="pt"
     inkscape:zoom="33.45499"
     inkscape:cx="8.1602177"
     inkscape:cy="14.272908"
     inkscape:window-width="1920"
     inkscape:window-height="994"
     inkscape:window-x="0"
     inkscape:window-y="0"
     inkscape:window-maximized="1"
     inkscape:current-layer="svg2" />
  <linearGradient
     id="_lgradient_54"
     x1="0.06818182"
     y1="0.23295455"
     x2="0.93843019"
     y2="0.77938956"
     gradientTransform="matrix(38,0,0,46,4,1)"
     gradientUnits="userSpaceOnUse">
    <stop
       offset="1.3043478260869565%"
       stop-opacity="1"
       style="stop-color:rgb(55,236,186)"
       id="stop1" />
    <stop
       offset="97.82608695652173%"
       stop-opacity="1"
       style="stop-color:rgb(114,175,211)"
       id="stop2" />
  </linearGradient>
  <path
     class="ColorScheme-Text"
     d="m 2.350447,1.6250005 c -0.62017,0 -1.131696,0.550875 -1.131696,1.21875 v 7.3124985 c 0,0.668681 0.511526,1.21875 1.131696,1.21875 h 8.299105 c 0.620173,0 1.131697,-0.550069 1.131697,-1.21875 V 2.8437505 c 0,-0.667875 -0.511524,-1.21875 -1.131697,-1.21875 z m 0,0.812499 h 2.640624 0.754464 v 0 h 2.866964 v 0 0 0 h 2.037053 c 0.215771,0 0.377225,0.174688 0.377225,0.406251 v 7.3124985 c 0,0.232369 -0.161454,0.406257 -0.377225,0.406257 H 2.350447 C 2.139976,10.568106 1.967972,10.382918 1.973215,10.156249 V 2.8437505 c 0,-0.231563 0.161456,-0.406251 0.377232,-0.406251 z m 3.395088,0 h 1.50893 v 0 0 z"
     font-family="sans-serif"
     font-weight="400"
     overflow="visible"
     id="path22"
     sodipodi:nodetypes="sssssssssscccccccssssccssccccc"
     style="color:#d5c289;fill:url(#linearGradient26);stroke-width:0.700285" />
  <path
     d="M 6.6435186,4.6983894 C 6.6311195,4.5954526 6.7085017,4.4325603 6.698134,4.2107946 6.6874456,3.9886687 6.5818996,3.6791381 6.1487925,3.4544815 6.1410834,3.4503019 6.1333742,3.446531 6.1253512,3.442564 5.8436452,3.3024282 5.4329797,3.2020202 4.9539809,3.2511398 4.5818372,3.2894458 4.1952882,3.4161996 3.8308482,3.6397707 3.5029184,3.8402234 3.2007799,4.1147228 2.9555871,4.4542321 2.8115512,4.6676895 2.6859407,4.9093195 2.5961701,5.1700918 2.5572864,5.2827802 2.5251589,5.3994421 2.501041,5.5186321 2.4698892,5.673578 2.452806,5.842971 2.4594938,6.0217565 c 0.017738,0.283526 0.096137,0.5934209 0.2713222,0.8722548 0.082736,0.1321922 0.1855685,0.2521024 0.3044817,0.3521534 0.1182408,0.1000443 0.2535688,0.1809512 0.4012866,0.2340402 0.2368203,0.083438 0.4696172,0.083438 0.6622233,0.052029 0.1021631,-0.016598 0.1959535,-0.042272 0.2786903,-0.070796 0.1021635,-0.03503 0.1959521,-0.075487 0.2699799,-0.1098027 0.1614524,-0.076201 0.312856,-0.167583 0.4334427,-0.2412647 0.1205863,-0.073681 0.2388293,-0.1477203 0.3523819,-0.2076743 0.067667,-0.034682 0.1480542,-0.073329 0.2274409,-0.1025821 0.021103,-0.00758 0.042229,-0.014799 0.063308,-0.02091 0.079051,-0.023501 0.157099,-0.03395 0.2264365,-0.026367 0.059288,0.00619 0.1095339,0.027061 0.1433634,0.052741 0.014405,0.00974 0.026795,0.023501 0.037182,0.037915 0.00904,0.013371 0.015075,0.025999 0.018418,0.032877 0.00404,0.00873 0.00576,0.026367 -7.22e-4,0.052021 -0.00616,0.025999 -0.019086,0.056 -0.039196,0.085962 -0.020771,0.030696 -0.049572,0.062494 -0.088425,0.09535 -0.038198,0.031787 -0.083738,0.062842 -0.1366645,0.092824 C 5.7682077,7.2628481 5.6526469,7.3032956 5.4901875,7.3686712 5.3428048,7.4279122 5.1669489,7.5044756 5.0021455,7.6258354 4.9157245,7.6915654 4.8293068,7.773554 4.7549439,7.872878 4.6809179,7.972204 4.6166019,8.0921124 4.5807626,8.2326138 c -0.032143,0.1404974 -0.033847,0.2965306 0.00938,0.4464231 0.021753,0.076214 0.055284,0.1484452 0.098143,0.2127399 0.043554,0.065005 0.098145,0.1238863 0.1627941,0.1708344 0.1148913,0.08235 0.2415069,0.112681 0.3510419,0.1159312 h 0.037181 c 0.092786,-0.00266 0.1812167,-0.023087 0.2619412,-0.052347 0.084411,-0.027829 0.1607835,-0.06538 0.2264368,-0.098601 0.066991,-0.034315 0.1185767,-0.06212 0.1725041,-0.085237 0.049222,-0.023514 0.092117,-0.038639 0.1309715,-0.045169 0.036842,-0.00619 0.066991,-0.00384 0.088765,0.0034 0.00972,0.00294 0.018425,0.00758 0.025461,0.01236 0.0067,0.00458 0.011382,0.00897 0.013732,0.011199 0.00404,9.122e-4 0.00704,0.00458 0.00938,0.00556 0.00276,0 0.00512,7.783e-4 0.00837,1.968e-4 0.00293,-1.968e-4 0,0.010824 -0.012051,0.026027 -0.014056,0.01771 -0.034507,0.03545 -0.065987,0.061761 -0.030491,0.024884 -0.072019,0.057796 -0.1098665,0.098246 -0.04186,0.044426 -0.08274,0.1007702 -0.1078596,0.1704745 -0.025101,0.070424 -0.029159,0.1426682 -0.018752,0.2062396 0.012051,0.07405 0.043867,0.134715 0.080724,0.1777003 0.049582,0.058516 0.1071883,0.083432 0.1497278,0.090299 0.010376,7.778e-4 0.020083,9.702e-4 0.029149,7.778e-4 0.075703,-0.00286 0.1061839,-0.065376 0.1195838,-0.083787 -0.018753,-0.019026 -0.037851,-0.068264 -0.052916,-0.1101585 -0.00163,-0.00496 -0.0035,-0.00895 -0.00488,-0.013664 -0.00616,-0.018372 -0.011401,-0.038642 -0.010056,-0.056718 7.212e-4,-0.013011 0.00404,-0.026714 0.00941,-0.035449 0.00488,-0.0077 0.011381,-0.01434 0.017409,-0.017054 0.00616,-0.0028 0.016079,-0.011713 0.034158,-0.023579 0.022447,-0.01434 0.038193,-0.022673 0.078047,-0.045863 0.031155,-0.017726 0.077384,-0.045171 0.1215965,-0.082348 C 6.4785492,9.2555779 6.5294442,9.2014339 6.565623,9.1259413 6.59778,9.0584093 6.613505,8.9836467 6.613505,8.9099601 6.6138392,8.8363448 6.5984452,8.764828 6.5716639,8.7008933 6.5435427,8.6366085 6.5046745,8.5817018 6.4604606,8.5365499 6.4159321,8.4910253 6.3653302,8.4549212 6.3124074,8.4278317 6.2062247,8.3740194 6.0943471,8.3588498 5.9961994,8.3628245 c -0.1014923,0.00394 -0.1946108,0.028533 -0.2713171,0.054561 -0.075703,0.027419 -0.154084,0.063564 -0.2096883,0.087766 -0.063977,0.027795 -0.1132195,0.046942 -0.1597764,0.05852 -0.043867,0.00831 -0.077047,0.00758 -0.1011623,9.121e-4 -0.00293,-3.533e-4 -0.00606,-7.564e-4 -0.00905,-0.00276 -0.024432,-0.00831 -0.037851,-0.022673 -0.03415,-0.030038 0.00192,-0.00293 0.00228,-0.0065 0.00293,-0.012676 6.696e-4,-0.00576 0.00128,-0.012362 0.00424,-0.018037 0.00424,-0.012362 0.010696,-0.033636 0.024451,-0.053457 0.010046,-0.022023 0.026795,-0.046952 0.05425,-0.075117 0.028125,-0.028927 0.064986,-0.05815 0.1092007,-0.08416 C 5.4951895,8.230573 5.6013726,8.1875961 5.7390415,8.1410021 5.8663271,8.0976832 6.0408411,8.0445714 6.2012951,7.9726929 6.2877103,7.935897 6.377481,7.8907393 6.4645704,7.8336758 6.5536636,7.7755624 6.6417577,7.7040376 6.7221514,7.6155499 6.8055574,7.5230913 6.8779082,7.4140108 6.9311678,7.2919291 6.9857835,7.1662848 7.0212728,7.0236185 7.0246237,6.8708318 7.0279166,6.7202459 6.9994884,6.5779358 6.9519394,6.4522434 6.9030578,6.3220124 6.831716,6.2049922 6.7466359,6.1071112 6.5664306,5.8998159 6.3383223,5.7871282 6.1333221,5.7383676 5.8958312,5.6816647 5.6730825,5.7025998 5.501915,5.7414204 5.4543421,5.7526394 5.4094651,5.7649017 5.3675949,5.7782651 5.2094904,5.8284724 5.0781864,5.8960104 4.9860712,5.9483807 4.8363508,6.0318061 4.6872929,6.1332981 4.5857988,6.2001164 4.4678921,6.2777715 4.3623774,6.3449526 4.2565302,6.3965975 c -0.04721,0.023498 -0.098817,0.044416 -0.1524101,0.058865 -0.042883,0.01121 -0.084747,0.018759 -0.1259462,0.020926 -0.078714,0.00458 -0.1450376,-0.010881 -0.189921,-0.038643 -0.026131,-0.015161 -0.052914,-0.037191 -0.077377,-0.066084 -0.024451,-0.029248 -0.045204,-0.0632 -0.059294,-0.099321 -0.032144,-0.080178 -0.042226,-0.1773328 -0.028121,-0.2694335 0.004,-0.057427 0.015416,-0.1152172 0.033849,-0.1726428 0.014419,-0.044441 0.034165,-0.089592 0.059305,-0.1351015 C 3.7755513,5.5882523 3.8609853,5.4871215 3.9611407,5.4000786 4.1168977,5.2451365 4.2991186,5.13317 4.48402,5.0605731 4.6896867,4.9796688 4.8866453,4.9518566 5.0594857,4.9504135 c 0.2210764,-0.00128 0.4190428,0.039343 0.5741276,0.05886 0.00458,3.422e-4 0.00874,0.00108 0.013051,0.00128 0.2451923,0.029255 0.4331076,-0.032514 0.5999181,-0.1184713 0.1617887,-0.083072 0.3064957,-0.1953994 0.3969315,-0.1961223 z m 0,0"
     id="path5"
     style="fill:url(#linearGradient7);stroke-width:0.197095" />
  <path
     id="rect943-3-5"
     style="isolation:isolate;fill:#f3d5e2;fill-opacity:1;stroke-width:2.16009;stroke-linecap:square;stroke-linejoin:round"
     d="m 5.5012438,6.2291945 c -0.113485,0 -0.20489,0.08055 -0.20489,0.180531 0,0.09999 0.09139,0.180307 0.20489,0.180307 h 2.502003 c 0.113476,0 0.204634,-0.08035 0.204634,-0.180307 0,-0.09999 -0.09121,-0.180531 -0.204634,-0.180531 z m 0,0.845315 c -0.113485,0 -0.20489,0.08055 -0.20489,0.1805289 0,0.09999 0.09139,0.180538 0.20489,0.180538 h 1.717332 c 0.113481,0 0.20489,-0.08055 0.20489,-0.180538 0,-0.09999 -0.09138,-0.1805289 -0.20489,-0.1805289 z m 2.580038,0 c -0.113491,0 -0.20489,0.08055 -0.20489,0.1805289 0,0.09999 0.09138,0.180538 0.20489,0.180538 h 1.176219 c 0.113488,0 0.204646,-0.08055 0.204646,-0.180538 0,-0.09999 -0.09121,-0.1805289 -0.204646,-0.1805289 z m -2.580038,0.8453119 c -0.113485,0 -0.20489,0.08055 -0.20489,0.180526 0,0.09999 0.09139,0.180528 0.20489,0.180528 h 2.203556 c 0.1135,0 0.204647,-0.08055 0.204647,-0.180528 0,-0.09999 -0.09121,-0.180526 -0.204647,-0.180526 z m 0,0.845307 c -0.113485,0 -0.20489,0.08055 -0.20489,0.180532 0,0.09999 0.09139,0.180535 0.20489,0.180535 h 3.069195 c 0.113495,0 0.204894,-0.08055 0.204894,-0.180535 0,-0.09999 -0.09138,-0.180532 -0.204894,-0.180532 z m 3.86016,0 c -0.113489,0 -0.204638,0.08055 -0.204638,0.180532 0,0.09999 0.09121,0.180535 0.204638,0.180535 h 0.5537013 c 0.1134879,0 0.2048949,-0.08055 0.2048949,-0.180535 0,-0.09999 -0.09138,-0.180532 -0.2048949,-0.180532 z m -3.86016,0.845316 c -0.113485,0 -0.20489,0.08055 -0.20489,0.180532 0,0.09999 0.09139,0.180529 0.20489,0.180529 h 2.203556 c 0.1135,0 0.204647,-0.08055 0.204647,-0.180529 0,-0.09999 -0.09121,-0.180532 -0.204647,-0.180532 z m 2.895571,0 c -0.113488,0 -0.204891,0.08055 -0.204891,0.180532 3e-6,0.09999 0.09139,0.180529 0.204891,0.180529 h 1.5344873 c 0.1134789,0 0.2048899,-0.08055 0.2048899,-0.180529 0,-0.09999 -0.09137,-0.180532 -0.2048899,-0.180532 z" />
</svg>
