<?xml version="1.0" encoding="UTF-8" standalone="no"?>
<!-- Generator: Gravit.io -->

<svg
   style="isolation:isolate"
   viewBox="0 0 16 16"
   width="16"
   height="16"
   version="1.1"
   id="svg2"
   sodipodi:docname="robo3t.svg"
   inkscape:version="1.4.4 (unknown)"
   xmlns:inkscape="http://www.inkscape.org/namespaces/inkscape"
   xmlns:sodipodi="http://sodipodi.sourceforge.net/DTD/sodipodi-0.dtd"
   xmlns:xlink="http://www.w3.org/1999/xlink"
   xmlns="http://www.w3.org/2000/svg"
   xmlns:svg="http://www.w3.org/2000/svg">
  <defs
     id="defs2">
    <linearGradient
       id="linearGradient2"
       inkscape:collect="always">
      <stop
         style="stop-color:#008080;stop-opacity:1"
         offset="0"
         id="stop3" />
      <stop
         style="stop-color:#2aff80;stop-opacity:1"
         offset="1"
         id="stop4" />
    </linearGradient>
    <linearGradient
       inkscape:collect="always"
       xlink:href="#linearGradient2"
       id="linearGradient4"
       x1="7.4984918"
       y1="0"
       x2="7.8827896"
       y2="16"
       gradientUnits="userSpaceOnUse" />
  </defs>
  <sodipodi:namedview
     id="namedview2"
     pagecolor="#ffffff"
     bordercolor="#000000"
     borderopacity="0.25"
     inkscape:showpageshadow="2"
     inkscape:pageopacity="0.0"
     inkscape:pagecheckerboard="0"
     inkscape:deskcolor="#d1d1d1"
     inkscape:document-units="px"
     inkscape:zoom="22.627417"
     inkscape:cx="8.5294755"
     inkscape:cy="11.645165"
     inkscape:window-width="1920"
     inkscape:window-height="994"
     inkscape:window-x="0"
     inkscape:window-y="0"
     inkscape:window-maximized="1"
     inkscape:current-layer="svg2" />
  <linearGradient
     id="_lgradient_6"
     x1="0.49999583"
     y1="0.039094649"
     x2="0.53643936"
     y2="0.99332279"
     gradientTransform="matrix(10.28364,0,0,13,2.8581408,1.5)"
     gradientUnits="userSpaceOnUse">
    <stop
       offset="0%"
       stop-opacity="1"
       style="stop-color:rgb(17,153,142)"
       id="stop1" />
    <stop
       offset="99.1304347826087%"
       stop-opacity="1"
       style="stop-color:rgb(56,239,125)"
       id="stop2" />
  </linearGradient>
  <path
     d="m 7.5540075,7.5810493 c 0,-0.2460814 0.199872,-0.4459529 0.445953,-0.4459529 0.246082,0 0.445675,0.1998715 0.445675,0.4459529 0,0.2458029 -0.199593,0.4456745 -0.445675,0.4456745 -0.246081,0 -0.445953,-0.1998716 -0.445953,-0.4456745 z M 6.2167061,10.255931 v 0 c 0.1639614,0 0.2970235,0.138908 0.2970235,0.310107 v 0.568437 c 0,0.1712 -0.1330621,0.310107 -0.2970235,0.310107 v 0 c -0.1639615,0 -0.297302,-0.138907 -0.297302,-0.310107 v -0.568437 c 0,-0.171199 0.1333405,-0.310107 0.297302,-0.310107 z m 0.8916274,0 v 0 c 0.1639614,0 0.297302,0.138073 0.297302,0.308437 v 1.166103 c 0,0.170364 -0.1333406,0.308715 -0.297302,0.308715 v 0 c -0.1639615,0 -0.297302,-0.138351 -0.297302,-0.308715 v -1.166103 c 0,-0.170364 0.1333405,-0.308437 0.297302,-0.308437 z m 2.674882,0 v 0 c -0.163961,0 -0.297302,0.138908 -0.297302,0.310107 v 0.568437 c 0,0.1712 0.133341,0.310107 0.297302,0.310107 v 0 c 0.163962,0 0.2973015,-0.138907 0.2973015,-0.310107 v -0.568437 c 0,-0.171199 -0.1333395,-0.310107 -0.2973015,-0.310107 z m -0.891627,0 v 0 c -0.163962,0 -0.297302,0.153662 -0.297302,0.342955 v 1.097345 c 0,0.189294 0.13334,0.342955 0.297302,0.342955 v 0 c 0.163961,0 0.297302,-0.153661 0.297302,-0.342955 v -1.097345 c 0,-0.189293 -0.133341,-0.342955 -0.297302,-0.342955 z m -0.891628,0 v 0 c 0.163962,0 0.297302,0.150043 0.297302,0.334883 v 1.707537 c 0,0.185118 -0.13334,0.335161 -0.297302,0.335161 v 0 c -0.163961,0 -0.297302,-0.150043 -0.297302,-0.335161 v -1.707537 c 0,-0.18484 0.133341,-0.334882 0.297302,-0.334883 z M 6.8110315,7.5810493 c 0,-0.3151178 0.1249893,-0.6182656 0.3476874,-0.841242 0.2229766,-0.2229765 0.5261246,-0.3476874 0.8412416,-0.3476874 0.315118,0 0.618266,0.1247109 0.840964,0.3476874 0.222976,0.2229764 0.347966,0.5261242 0.347966,0.841242 0,0.3148394 -0.12499,0.6179871 -0.347966,0.8409635 -0.222698,0.2229765 -0.525846,0.3476874 -0.840964,0.3476874 -0.315117,0 -0.618265,-0.1247109 -0.8412416,-0.3476874 C 6.9360208,8.1990364 6.8110315,7.8958887 6.8110315,7.5810493 Z m -0.8916274,0 c 0,-1.148287 0.9322698,-2.0805568 2.0805564,-2.0805568 1.148287,0 2.0805565,0.9322698 2.0805565,2.0805568 0,1.1480085 -0.9322695,2.0802783 -2.0805565,2.0802783 -1.1482866,0 -2.0805564,-0.9322698 -2.0805564,-2.0802783 z m 5.8224409,4.2499147 c -0.160621,0.285332 -0.371628,0.535032 -0.624112,0.742976 -0.276424,0.229101 -0.585696,0.419229 -0.918351,0.561756 -0.3596565,0.157559 -0.7343465,0.276424 -1.1207275,0.350749 -0.401135,0.08045 -0.811178,0.121928 -1.218437,0.121928 -0.395289,0 -0.7875157,-0.03869 -1.1738969,-0.115803 C 6.320539,13.421028 5.9670058,13.308287 5.6282264,13.153512 5.3189544,13.014047 5.0336225,12.826702 4.7811386,12.600942 4.5434084,12.389936 4.3502178,12.137173 4.2104748,11.851842 3.9042649,11.221884 3.7467061,10.529293 3.7497682,9.8277944 3.7528303,9.2660385 3.8360637,8.7073448 3.9964063,8.1664668 4.1779052,7.5451392 4.427327,6.9449679 4.7393827,6.3743041 5.0990401,5.7114989 5.5093613,5.0784797 5.9700679,4.4810921 6.4959138,3.7915632 7.0637939,3.137666 7.6700895,2.5194004 c 0.07711,-0.080171 0.184283,-0.127773 0.297023,-0.127773 0.11302,0 0.222977,0.047602 0.300364,0.1308351 0.615204,0.6330193 1.191713,1.3047324 1.729808,2.0062313 0.4665515,0.6032334 0.8855025,1.2420985 1.2512845,1.9079657 0.314839,0.5676017 0.567601,1.1622056 0.754668,1.7801927 0.157558,0.5233405 0.243854,1.0670022 0.246916,1.6140043 0.0058,0.7014995 -0.169529,1.3879655 -0.508308,2.0001075 z m 0.778608,0.437045 c -0.214069,0.380257 -0.499401,0.716252 -0.835118,0.992676 -0.341841,0.28227 -0.722098,0.517216 -1.126295,0.692313 C 10.13981,14.137281 9.6999825,14.27424 9.2512455,14.363319 8.7936015,14.452398 8.3267705,14.5 7.8602175,14.5 7.4084195,14.5 6.9566204,14.45546 6.5137296,14.366381 6.0828088,14.283148 5.660796,14.146188 5.2596611,13.964968 4.8674341,13.786809 4.5047146,13.551863 4.1868131,13.266531 3.8658495,12.978415 3.6011172,12.633512 3.4109887,12.247131 3.0424234,11.492184 2.8550786,10.662912 2.8581407,9.8219486 2.8639866,9.1769593 2.95919,8.5350321 3.1404106,7.9167666 3.3425091,7.2330835 3.6161493,6.5733405 3.9549288,5.9492291 4.3351857,5.2449465 4.7722307,4.5701713 5.2627232,3.937152 5.809447,3.2208994 6.4009887,2.5402784 7.0309459,1.8983512 7.2748003,1.6455889 7.6135795,1.5 7.9671125,1.5 c 0.356874,0 0.695654,0.1455889 0.942292,0.404197 0.638865,0.6569593 1.2393135,1.352334 1.7952235,2.0805567 0.493277,0.6388651 0.936167,1.3167024 1.325332,2.0209851 0.341842,0.6210492 0.618266,1.2749464 0.826489,1.9527837 0.184282,0.6062955 0.279207,1.2331906 0.285332,1.8664882 0.0058,0.8529333 -0.208223,1.6938973 -0.621328,2.4429983 z"
     id="path2"
     fill-rule="evenodd"
     style="fill:url(#linearGradient4)" />
</svg>
