<?xml version="1.0" encoding="UTF-8" standalone="no"?>
<svg
   width="16"
   height="16"
   version="1.1"
   id="svg10"
   sodipodi:docname="ryujinx.svg"
   inkscape:version="1.4.4 (unknown)"
   xmlns:inkscape="http://www.inkscape.org/namespaces/inkscape"
   xmlns:sodipodi="http://sodipodi.sourceforge.net/DTD/sodipodi-0.dtd"
   xmlns="http://www.w3.org/2000/svg"
   xmlns:svg="http://www.w3.org/2000/svg">
  <defs
     id="defs10" />
  <sodipodi:namedview
     id="namedview10"
     pagecolor="#ffffff"
     bordercolor="#000000"
     borderopacity="0.25"
     inkscape:showpageshadow="2"
     inkscape:pageopacity="0.0"
     inkscape:pagecheckerboard="0"
     inkscape:deskcolor="#d1d1d1"
     inkscape:zoom="31.541667"
     inkscape:cx="12.015852"
     inkscape:cy="12"
     inkscape:window-width="1920"
     inkscape:window-height="994"
     inkscape:window-x="0"
     inkscape:window-y="0"
     inkscape:window-maximized="1"
     inkscape:current-layer="svg10" />
  <g
     id="g10"
     transform="matrix(0.63414634,0,0,0.63414634,0.39024392,0.23170733)">
    <path
       style="opacity:0.2"
       d="m 17,5.5 v 17 h 1 c 2.216,0 4,-1.784 4,-4 v -9 c 0,-2.216 -1.784,-4 -4,-4 z"
       id="path1" />
    <path
       style="opacity:0.2"
       d="m 10.904297,9 -0.264648,1.5 H 9.3359375 l -0.1865235,1 h 1.313477 l -0.352539,2 H 8.7753905 l -0.1865235,1 h 1.344727 l -0.3525395,2 h 1.0146485 l 0.352539,-2 h 0.742188 0.743164 l -0.352539,2 h 1.014648 l 0.352539,-2 h 1.328125 l 0.186524,-1 H 13.625 l 0.353516,-2 h 1.357422 l 0.186523,-1 H 14.154297 L 14.418946,9 h -1.014649 l -0.264648,1.5 H 12.4375 11.654297 L 11.918946,9 Z m 0.574219,2.5 h 0.772461 0.711914 l -0.352539,2 H 11.876953 11.125 Z"
       id="path2" />
    <path
       style="opacity:0.2"
       d="m 6,2.5 c -2.216,0 -4,1.784 -4,4 v 9 c 0,2.216 1.784,4 4,4 h 1 v -17 z"
       id="path3" />
    <path
       style="fill:#02ace5"
       d="M 6,2 C 3.784,2 2,3.784 2,6 v 9 c 0,2.216 1.784,4 4,4 H 7 V 2 Z"
       id="path4" />
    <path
       style="fill:#ff4a3e"
       d="m 17,5 v 17 h 1 c 2.216,0 4,-1.784 4,-4 V 9 C 22,6.784 20.216,5 18,5 Z"
       id="path5" />
    <path
       style="fill:#ff4a3e"
       d="M 13.404297,8.5 13.139649,10 H 12.4375 l -0.186523,1 h 0.711914 l -0.352539,2 h -0.733399 l -0.186523,1 h 0.743164 l -0.352539,2 h 1.014648 l 0.352539,-2 h 1.328125 l 0.186524,-1 H 13.625 l 0.353516,-2 h 1.357422 l 0.186523,-1 h -1.368164 l 0.264649,-1.5 z"
       id="path6" />
    <path
       style="fill:#02ace5"
       d="M 10.904297,8.5 10.639649,10 H 9.3359375 L 9.149414,11 h 1.313477 l -0.352539,2 H 8.7753905 L 8.588867,14 h 1.344727 l -0.3525395,2 h 1.0146485 l 0.352539,-2 h 0.742188 l 0.186523,-1 H 11.125 l 0.353516,-2 h 0.772461 L 12.4375,10 h -0.783203 l 0.264649,-1.5 z"
       id="path7" />
    <path
       style="opacity:0.2;fill:#ffffff"
       d="m 17,5 v 0.5 h 1 c 2.216,0 4,1.784 4,4 V 9 C 22,6.784 20.216,5 18,5 Z"
       id="path8" />
    <path
       style="opacity:0.2;fill:#ffffff"
       d="M 6,2 C 3.784,2 2,3.784 2,6 v 0.5 c 0,-2.216 1.784,-4 4,-4 H 7 V 2 Z"
       id="path9" />
    <path
       style="opacity:0.2;fill:#ffffff"
       d="M 10.904297,8.5 10.639649,10 H 9.3359375 L 9.149414,11 h 0.092773 l 0.09375,-0.5 h 1.303712 L 10.904297,9 h 0.926758 l 0.08789,-0.5 z m 2.5,0 -0.264648,1.5 H 12.4375 11.742188 l -0.08789,0.5 H 12.4375 13.139649 L 13.404297,9 h 0.926758 l 0.08789,-0.5 z m 0.837891,1.5 -0.08789,0.5 h 1.275391 L 15.522461,10 Z M 10.375,11.5 10.110352,13 H 8.7753905 L 8.588867,14 H 8.68164 l 0.09375,-0.5 h 1.334962 l 0.352539,-2 z m 2.5,0 -0.264648,1.5 H 11.876953 11.212891 L 11.125,13.5 h 0.751953 0.733399 l 0.352539,-2 z M 13.712891,13 13.625,13.5 h 1.244141 L 14.962891,13 Z M 9.845703,14.5 9.5810545,16 h 0.087891 L 9.933594,14.5 Z m 2.5,0 -0.264648,1.5 h 0.08789 l 0.264648,-1.5 z"
       id="path10" />
  </g>
</svg>
