<?xml version="1.0" encoding="UTF-8" standalone="no"?>
<!-- Generator: Gravit.io -->

<svg
   style="isolation:isolate"
   viewBox="0 0 16 16"
   width="16"
   height="16"
   version="1.1"
   id="svg2"
   sodipodi:docname="edu.mit.Scratch.svg"
   inkscape:version="1.4.4 (unknown)"
   xmlns:inkscape="http://www.inkscape.org/namespaces/inkscape"
   xmlns:sodipodi="http://sodipodi.sourceforge.net/DTD/sodipodi-0.dtd"
   xmlns:xlink="http://www.w3.org/1999/xlink"
   xmlns="http://www.w3.org/2000/svg"
   xmlns:svg="http://www.w3.org/2000/svg">
  <defs
     id="defs2">
    <linearGradient
       id="linearGradient2"
       inkscape:collect="always">
      <stop
         style="stop-color:#8d5fd3;stop-opacity:1"
         offset="0"
         id="stop3" />
      <stop
         style="stop-color:#ffb380;stop-opacity:1"
         offset="1"
         id="stop4" />
    </linearGradient>
    <linearGradient
       inkscape:collect="always"
       xlink:href="#linearGradient2"
       id="linearGradient4"
       x1="0.74176129"
       y1="7.9999999"
       x2="15.258239"
       y2="7.9999999"
       gradientUnits="userSpaceOnUse" />
  </defs>
  <sodipodi:namedview
     id="namedview2"
     pagecolor="#ffffff"
     bordercolor="#000000"
     borderopacity="0.25"
     inkscape:showpageshadow="2"
     inkscape:pageopacity="0.0"
     inkscape:pagecheckerboard="0"
     inkscape:deskcolor="#d1d1d1"
     inkscape:document-units="px"
     inkscape:zoom="16.727495"
     inkscape:cx="15.304145"
     inkscape:cy="11.448218"
     inkscape:window-width="1920"
     inkscape:window-height="994"
     inkscape:window-x="0"
     inkscape:window-y="0"
     inkscape:window-maximized="1"
     inkscape:current-layer="svg2" />
  <linearGradient
     id="_lgradient_24"
     x1="0"
     y1="0.5"
     x2="1"
     y2="0.5"
     gradientTransform="matrix(14.516562,0,0,13.000076,0.74156478,1.4999233)"
     gradientUnits="userSpaceOnUse">
    <stop
       offset="0%"
       stop-opacity="1"
       style="stop-color:rgb(255,224,49)"
       id="stop1" />
    <stop
       offset="98.69565217391305%"
       stop-opacity="1"
       style="stop-color:rgb(252,82,82)"
       id="stop2" />
  </linearGradient>
  <path
     d="m 13.41796,10.037024 c 0.07011,-0.3020609 0.11335,-0.6099909 0.130955,-0.9200829 0.182843,0.116439 0.353023,0.252027 0.50776,0.404293 0.240908,0.240908 0.45093,0.5096129 0.626978,0.7999379 v 0 c 0.08864,0.144854 0.278898,0.191182 0.424678,0.103467 v 0 c 0.14578,-0.08771 0.193344,-0.277971 0.106556,-0.4246779 v 0 C 15.011041,9.6663961 14.770133,9.3575401 14.492162,9.0826581 14.254343,8.8448381 13.982549,8.6440821 13.686047,8.4834764 13.63941,8.458459 13.592155,8.4346771 13.544591,8.4118217 13.479731,7.384874 13.136283,6.3912828 12.549455,5.5400745 v 0 h 0.08339 V 5.0767898 2.3094361 C 12.639024,2.1333879 12.595784,1.9604283 12.506216,1.8090887 12.385762,1.6114205 12.169562,1.4940551 11.93792,1.5002322 c -0.206934,0.012354 -0.401514,0.095746 -0.549765,0.240908 L 9.7048876,3.1804113 9.5356343,3.3258827 v 0 C 8.9892673,3.1560116 8.4209714,3.0692229 7.8486604,3.0692229 c -0.5769438,0 -1.1477105,0.087406 -1.6934599,0.2563509 v 0 0 0 L 5.9862561,3.1804113 4.3029885,1.7411402 C 4.1547374,1.5959777 3.9601578,1.5125865 3.753224,1.5002322 3.5215816,1.4940551 3.3053821,1.6114205 3.1849281,1.8090887 3.0953598,1.9604283 3.0521199,2.1333879 3.058297,2.3094361 V 5.0767898 5.5400745 H 3.142306 C 2.8825577,5.9165705 2.6672847,6.3251876 2.5023554,6.7569689 2.2812142,7.3422518 2.1564362,7.9602736 2.1348162,8.5860171 v 0 c -0.2270095,0.141765 -0.4376496,0.307312 -0.6269786,0.496641 -0.2779708,0.274882 -0.51887882,0.583738 -0.72272402,0.917303 v 0 c -0.0867887,0.1467069 -0.039225,0.3369629 0.1065554,0.4246779 v 0 c 0.14578032,0.08772 0.33603582,0.04139 0.42467762,-0.103467 v 0 c 0.1760482,-0.290325 0.3860706,-0.5590299 0.6269786,-0.7999379 0.068875,-0.06764 0.1405297,-0.131882 0.2165084,-0.190873 0.032121,0.339124 0.09451,0.6736159 0.1862404,0.9997679 -0.1905644,0.251409 -0.3595089,0.517335 -0.5046714,0.797158 -0.1729596,0.3243 -0.3273878,0.660953 -0.4601961,1.006872 v 0 c -0.061462,0.158444 0.017605,0.336963 0.1760482,0.398425 v 0 c 0.1584433,0.06146 0.3369624,-0.0176 0.3984248,-0.176048 v 0 c 0.1266311,-0.321211 0.2687051,-0.636244 0.432399,-0.942012 0.063933,-0.12416 0.1340437,-0.245541 0.2118755,-0.361671 0.1488688,0.338816 0.3295498,0.665277 0.5417342,0.973207 0.6578642,0.957455 1.5906107,1.689444 2.6746968,2.100224 C 6.4649835,14.37028 7.1506449,14.496911 7.8424833,14.5 9.1520346,14.4969 10.424523,14.045981 11.443749,13.221334 v 0 c 0.197669,-0.160296 0.228245,-0.451548 0.06795,-0.650143 v 0 c -0.160297,-0.198594 -0.452166,-0.229789 -0.651687,-0.06949 v 0 C 10.007567,13.193537 8.9420122,13.570342 7.8424833,13.57343 7.2618332,13.570342 6.6873602,13.465331 6.1468614,13.258397 5.2388235,12.915566 4.4574167,12.300942 3.9045636,11.501004 3.6324611,11.107212 3.4230564,10.677592 3.2893216,10.224191 3.3603586,10.162731 3.4363373,10.106826 3.5154045,10.055556 3.7068955,9.9320131 3.9261836,9.8609761 4.1547374,9.8517101 v 0 c 0.1704887,-0.0086 0.3020616,-0.15381 0.2934136,-0.324299 v 0 C 4.439503,9.3569221 4.2943405,9.2253491 4.1238517,9.2339971 v 0 c -0.3335649,0.01544 -0.6609528,0.120454 -0.9420121,0.299591 -0.016987,0.01081 -0.033665,0.02193 -0.049726,0.03397 v 0 c -0.04849,-0.240599 -0.07011,-0.486757 -0.072581,-0.73446 0.091113,-0.03397 0.1846962,-0.06115 0.2798239,-0.08401 0.2717937,-0.06795 0.546676,-0.111188 0.8246468,-0.132808 v 0 C 4.3344918,8.6026951 4.4617407,8.4532085 4.448151,8.2827197 v 0 C 4.4345613,8.1122309 4.2850748,7.9849821 4.114586,7.9985718 v 0 C 3.802641,8.0232803 3.4937846,8.0726973 3.1911053,8.1468229 3.1596019,8.1548531 3.1280985,8.1631923 3.0972129,8.172458 3.1447768,7.8018302 3.2361983,7.4367619 3.370242,7.0843567 3.7161612,6.1763188 4.327697,5.394912 5.1276352,4.8420589 5.446375,4.6230797 5.7888968,4.443943 6.1468614,4.3080461 v 0.460505 0 c 0,0.2557331 0.2075515,0.4632847 0.4632847,0.4632847 v 0 c 0.2557331,0 0.4632846,-0.2075516 0.4632846,-0.4632847 v 0 -0.7094433 0 c 0.1022315,-0.016987 0.2053896,-0.030268 0.3088565,-0.04046 v 0 1.3676163 0 c 0,0.2557331 0.2075515,0.4632846 0.4632846,0.4632846 v 0 c 0.2557332,0 0.4632847,-0.2075515 0.4632847,-0.4632846 v 0 V 4.01803 C 8.4123234,4.02791 8.5151726,4.041194 8.617713,4.057872 v 0.7106787 0 c 0,0.2557331 0.2075515,0.4632847 0.4632846,0.4632847 v 0 c 0.2557332,0 0.4632847,-0.2075516 0.4632847,-0.4632847 v 0 -0.4608138 0 0 0 0 c 0.9080377,0.3459196 1.6894447,0.9574554 2.2422977,1.7573935 0.420045,0.6075207 0.689985,1.3024477 0.786966,2.0279514 v 0 c -0.227009,-0.044166 -0.456798,-0.076287 -0.688132,-0.09451 v 0 c -0.170489,-0.01359 -0.319975,0.1136591 -0.333565,0.2841479 v 0 c -0.01359,0.1704888 0.113659,0.3199754 0.284148,0.3335654 v 0 c 0.268087,0.021 0.533395,0.06177 0.795614,0.126013 0.0012,0.01452 0.0012,0.02934 0.0012,0.04386 0,0.210331 -0.0139,0.419427 -0.04046,0.626978 -0.223613,-0.106555 -0.468227,-0.167709 -0.716239,-0.179137 v 0 c -0.170488,-0.0086 -0.315651,0.122925 -0.324299,0.293414 v 0 c -0.0086,0.170489 0.122925,0.315651 0.293414,0.324299 v 0 c 0.219597,0.009 0.430546,0.07474 0.616168,0.1902559 -0.03737,0.149178 -0.08524,0.295884 -0.140529,0.439811 v 0 c -0.0905,0.238747 0.02996,0.506525 0.268705,0.597638 v 0 c 0.238746,0.09111 0.507142,-0.02841 0.599181,-0.267161 v 0 c 0.0062,-0.01668 0.01236,-0.03305 0.01822,-0.05003 0.150722,0.206934 0.287545,0.424987 0.404911,0.652305 0.163694,0.305768 0.305768,0.620801 0.432399,0.942012 v 0 c 0.06146,0.158443 0.239981,0.237511 0.398424,0.176048 v 0 c 0.158444,-0.06146 0.237511,-0.239981 0.176049,-0.398425 v 0 c -0.132809,-0.345919 -0.287237,-0.682572 -0.460196,-1.006872 -0.166783,-0.32121 -0.364451,-0.62389 -0.589916,-0.908037 -0.04849,-0.06208 -0.09945,-0.122308 -0.150722,-0.182226 z m -4.77245,1.913057 v 0 0.539263 c 0,0.08339 -0.030886,0.160606 -0.089568,0.219288 -0.058683,0.05868 -0.1358969,0.08957 -0.2192881,0.08957 H 7.9691144 c -0.080303,0 -0.1606053,-0.03089 -0.2161995,-0.08957 -0.058683,-0.05868 -0.092657,-0.135896 -0.092657,-0.219288 v -0.423133 -0.103158 c 0.041078,-0.01699 0.081229,-0.03583 0.120454,-0.05683 0.1297197,-0.06795 0.2532623,-0.148251 0.3706277,-0.240908 0.1019227,0.0803 0.2100224,0.15134 0.3242993,0.210023 0.054976,0.02903 0.111806,0.05374 0.169871,0.07474 z M 5.192495,3.723072 C 4.9895763,3.8293187 4.7925259,3.9482284 4.6025792,4.0791835 4.3848354,4.2292877 4.1785193,4.3939082 3.9848663,4.5718095 V 2.686241 Z m 5.305845,0 c 0.438576,0.2294804 0.844413,0.5148637 1.207937,0.8481198 V 2.686241 L 10.49834,3.723072 Z M 5.6218055,7.6316503 v 0 C 5.4052971,7.7681649 5.1189872,7.7029962 4.9824726,7.4864878 v 0 C 4.8459581,7.2699794 4.9111268,6.9836695 5.1276352,6.847155 v 0 C 5.312949,6.7297895 5.5137057,6.6371326 5.7237281,6.5691842 5.9213962,6.5043243 6.1314186,6.4703501 6.341441,6.4672615 c 0.4231333,0.00927 0.8308238,0.1482511 1.1643888,0.4015134 v 0 c 0.2044629,0.1553548 0.245232,0.4466064 0.091113,0.6501428 v 0 C 7.442823,7.722763 7.1528068,7.763532 6.9498882,7.6100304 v 0 C 6.7707514,7.4741335 6.5576405,7.400008 6.3352638,7.3938309 c -0.1080997,0.00309 -0.219288,0.02162 -0.3242992,0.055594 -0.1358969,0.04324 -0.2687051,0.1050112 -0.3891591,0.1822254 z m 3.3974208,0 v 0 C 8.802718,7.7681649 8.516408,7.7029962 8.3798935,7.4864878 v 0 C 8.2433789,7.2699794 8.3085477,6.9836695 8.525056,6.847155 v 0 C 8.7103699,6.7297895 8.9111266,6.6371326 9.121149,6.5691842 c 0.1976681,-0.06486 0.4076905,-0.098834 0.6177128,-0.1019227 0.4231332,0.00927 0.8308242,0.1482511 1.1643892,0.4015134 v 0 c 0.204463,0.1553548 0.245232,0.4466064 0.09111,0.6501428 v 0 C 10.840242,7.722763 10.550226,7.763532 10.347307,7.6100307 v 0 C 10.168172,7.4741335 9.955061,7.400008 9.7326847,7.3938309 9.624585,7.3969194 9.5133966,7.4154508 9.4083854,7.449425 9.2724886,7.4926649 9.1396803,7.5544362 9.0192263,7.6316503 Z M 8.1544283,9.9752531 7.5614239,9.2339971 h 1.1860088 z m 1.1087946,2.0387609 v 0.47533 c 0,0.247086 -0.095745,0.481816 -0.2717936,0.654776 -0.1729597,0.176048 -0.4076906,0.271794 -0.6547757,0.271794 H 7.9691144 c -0.2439966,0 -0.481816,-0.09575 -0.6547756,-0.271794 C 7.1413792,12.97116 7.0425451,12.73643 7.0425451,12.489344 v -0.423133 -0.0049 C 6.8668058,12.043356 6.6978613,11.985291 6.5452862,11.893869 6.3537952,11.776504 6.1870128,11.618987 6.0511159,11.436762 v 0 c -0.1006872,-0.138059 -0.07011,-0.331712 0.067948,-0.432399 v 0 c 0.1380589,-0.100379 0.3317119,-0.07011 0.4323991,0.06795 v 0 c 0.08648,0.117365 0.1945795,0.219288 0.3181221,0.296502 0.08648,0.04942 0.1822253,0.07721 0.2841479,0.0803 0.1173655,-0.0031 0.2347309,-0.03397 0.3397421,-0.08957 0.2687051,-0.142073 0.5003474,-0.345919 0.5003474,-0.345919 0.095437,-0.138059 0.2365841,-0.142074 0.3150336,-0.0093 0,0 0.2069338,0.194579 0.4509304,0.324299 0.1019226,0.05251 0.213111,0.0803 0.3242993,0.0803 0.1111883,0 0.2223766,-0.0278 0.3212107,-0.0803 0.1389854,-0.07413 0.2687051,-0.169871 0.3768055,-0.287237 v 0 c 0.117674,-0.122616 0.313489,-0.127557 0.437032,-0.01081 v 0 c 0.123542,0.116748 0.129719,0.312563 0.0139,0.437032 v 0 c -0.157517,0.163694 -0.339742,0.30268 -0.5435876,0.410779 -0.1324994,0.06857 -0.2776619,0.114895 -0.4262219,0.135588 z M 7.2340361,8.6162851 h 1.8407844 c 0.1050112,-0.0031 0.2100224,0.02471 0.2995907,0.0803 0.1204541,0.07721 0.191491,0.210023 0.1853139,0.355185 -0.00618,0.114277 -0.049417,0.225465 -0.1266311,0.315034 L 8.5899159,10.416916 c -0.1019226,0.135896 -0.2656166,0.219288 -0.4354876,0.219288 -0.1698711,0 -0.333565,-0.08339 -0.4354876,-0.219288 L 6.8757626,9.3668061 c -0.077214,-0.08957 -0.120454,-0.200757 -0.1266311,-0.315034 -0.00618,-0.145162 0.06486,-0.277971 0.1853138,-0.355185 0.089568,-0.05559 0.1945796,-0.08339 0.2995908,-0.0803 z"
     fill-rule="evenodd"
     id="path2"
     style="fill:url(#linearGradient4)" />
</svg>
