<?xml version="1.0" encoding="UTF-8" standalone="no"?>
<!-- Generator: Gravit.io -->

<svg
   style="isolation:isolate"
   viewBox="0 0 16 16"
   width="16"
   height="16"
   version="1.1"
   id="svg2"
   sodipodi:docname="com.client.Seafile.svg"
   inkscape:version="1.4.4 (unknown)"
   xmlns:inkscape="http://www.inkscape.org/namespaces/inkscape"
   xmlns:sodipodi="http://sodipodi.sourceforge.net/DTD/sodipodi-0.dtd"
   xmlns:xlink="http://www.w3.org/1999/xlink"
   xmlns="http://www.w3.org/2000/svg"
   xmlns:svg="http://www.w3.org/2000/svg">
  <defs
     id="defs2">
    <linearGradient
       id="linearGradient2"
       inkscape:collect="always">
      <stop
         style="stop-color:#1774ff;stop-opacity:1;"
         offset="0"
         id="stop3" />
      <stop
         style="stop-color:#ffdd55;stop-opacity:1"
         offset="1"
         id="stop4" />
    </linearGradient>
    <linearGradient
       inkscape:collect="always"
       xlink:href="#linearGradient2"
       id="linearGradient4"
       x1="2.7688773"
       y1="12.022296"
       x2="9.5150194"
       y2="5.4938288"
       gradientUnits="userSpaceOnUse" />
  </defs>
  <sodipodi:namedview
     id="namedview2"
     pagecolor="#ffffff"
     bordercolor="#000000"
     borderopacity="0.25"
     inkscape:showpageshadow="2"
     inkscape:pageopacity="0.0"
     inkscape:pagecheckerboard="0"
     inkscape:deskcolor="#d1d1d1"
     inkscape:document-units="px"
     inkscape:zoom="23.65625"
     inkscape:cx="12.216645"
     inkscape:cy="11.519155"
     inkscape:window-width="1920"
     inkscape:window-height="994"
     inkscape:window-x="0"
     inkscape:window-y="0"
     inkscape:window-maximized="1"
     inkscape:current-layer="svg2" />
  <linearGradient
     id="_lgradient_0"
     x1="0"
     y1="0.5"
     x2="1.1068785"
     y2="0.49890792"
     gradientTransform="matrix(13.280942,0,0,13.000105,1.3595283,1.499995)"
     gradientUnits="userSpaceOnUse">
    <stop
       offset="0%"
       stop-opacity="1"
       style="stop-color:rgb(255,224,49)"
       id="stop1" />
    <stop
       offset="100%"
       stop-opacity="1"
       style="stop-color:rgb(250,0,117)"
       id="stop2" />
  </linearGradient>
  <path
     d="M 5.2948374,10.432258 C 4.876211,10.284231 4.6385375,9.8846963 4.7450617,9.5081262 4.8042726,9.2989514 4.9606003,9.1274059 5.2015941,9.0073241 5.3626255,8.9268083 5.4035751,8.8913925 5.3861438,8.8462926 5.2201321,8.4193657 5.3261029,7.9227138 5.6517627,7.6009276 6.0894804,7.168467 6.7867298,7.1427351 7.2468591,7.5419935 c 0.064745,0.056167 0.1325328,0.1020972 0.1502407,0.1020972 0.017708,0 0.058934,-0.083283 0.091306,-0.1851031 0.1214658,-0.380167 0.3477951,-0.6828618 0.6670911,-0.8923133 0.8906532,-0.5843614 2.0472021,-0.2783464 2.5106511,0.6640471 0.135023,0.2747495 0.145261,0.3165291 0.157712,0.6396987 0.01,0.253998 -0.0019,0.3975982 -0.04427,0.5414751 -0.03154,0.1079076 -0.04814,0.2053012 -0.0368,0.216922 0.01162,0.011344 0.07443,-0.036799 0.139449,-0.1070776 0.126169,-0.1361296 0.13696,-0.1375131 0.431354,-0.049803 0.28554,0.085219 0.558076,0.3577554 0.657683,0.6582367 0.06751,0.2036411 0.05202,0.5301309 -0.03431,0.7235346 -0.08688,0.1945101 -0.309058,0.4310771 -0.502185,0.5345581 -0.131978,0.07055 -0.187869,0.07443 -1.192794,0.08494 -0.6668137,0.0069 -1.0992744,-0.0025 -1.1767466,-0.0249 -0.3173591,-0.09269 -0.5602897,-0.439931 -0.5602897,-0.8012832 0,-0.4332908 0.3511149,-0.8073706 0.7575671,-0.8073706 H 9.3914546 L 9.2647323,8.954477 C 9.0644114,9.1357065 9.0140545,9.3512451 9.1197486,9.5717641 c 0.062808,0.1305959 0.2747495,0.258425 0.4283104,0.258425 0.1549443,0 0.3738032,-0.1203586 0.453212,-0.2490177 C 10.092024,9.4345277 10.090918,9.13875 9.998781,8.8958195 9.900004,8.6346276 9.6969162,8.4207491 9.4199533,8.2860029 9.2163122,8.1869492 9.1565479,8.1736683 8.9119572,8.1744983 8.4285863,8.1761584 8.3840398,8.207424 7.2025893,9.3648027 6.3058491,10.243558 6.1592053,10.373601 6.0097947,10.422851 c -0.2014276,0.06668 -0.5398149,0.07111 -0.7149573,0.0094 z M 3.7935376,7.6629054 C 3.6900569,7.5605314 3.68646,7.4766955 3.7805333,7.3585505 c 0.055337,-0.069725 0.1020973,-0.0902 0.2058546,-0.0902 0.1278291,0 0.1352996,-0.00581 0.1571578,-0.1281057 0.038736,-0.216092 0.1906369,-0.4557023 0.3538818,-0.5580763 0.2058546,-0.1292125 0.4468483,-0.1826129 0.6153503,-0.136683 0.072769,0.019645 0.1441536,0.024348 0.1588179,0.00996 0.014388,-0.014388 0.042333,-0.1101211 0.061978,-0.2130484 0.074429,-0.3909578 0.3378339,-0.7409659 0.6950359,-0.9241322 0.2124951,-0.1087378 0.723258,-0.1339162 0.9567812,-0.04676 0.3826571,0.1424934 0.6463392,0.4158595 0.7678045,0.7965798 0.038183,0.1192518 0.069172,0.2371202 0.069172,0.2617452 0,0.024902 -0.071385,0.126999 -0.1588179,0.2271595 C 7.5761158,6.6571507 7.4571407,6.820949 7.3993133,6.9211094 7.3240546,7.0514287 7.2784014,7.097912 7.2385586,7.0849077 7.2078464,7.074947 7.0897013,7.0337208 6.9754299,6.9933246 6.6660946,6.8837568 6.2297603,6.9078285 5.919595,7.051152 5.6539762,7.1740007 5.4749601,7.3209211 5.3252729,7.5383965 5.2657853,7.6247227 5.2004873,7.7068985 5.1802892,7.7204561 5.1600911,7.7342904 4.8587798,7.7459113 4.5109851,7.7461879 3.8851207,7.7467413 3.8776502,7.7459113 3.7935376,7.6629054 Z M 7.5465104,13.31782 v 0 c 0.3311935,0.02767 0.5782743,0.314316 0.5511591,0.639699 v 0 c -0.027392,0.325659 -0.3195727,0.56776 -0.652703,0.540368 v 0 C 5.7771016,14.361757 4.2204645,13.611107 3.0907544,12.396455 1.9638112,11.182078 1.3445873,9.5933456 1.359805,7.9512125 1.3758528,6.2260735 2.0913636,4.5750864 3.3461358,3.3640305 4.6039517,2.1560182 6.3003153,1.4845005 8.0600401,1.5002716 c 1.7597248,0.015494 3.4436379,0.7168942 4.6787649,1.9470415 1.232361,1.2331908 1.917436,2.8966287 1.901388,4.6214911 v 0 c -0.003,0.3267665 -0.275856,0.5896184 -0.608986,0.5865749 v 0 C 13.6978,8.6523391 13.429967,8.3847799 13.433011,8.0582901 v 0 C 13.446015,6.6466366 12.884895,5.2864468 11.876927,4.2773719 10.865916,3.2710639 9.4888481,2.6966632 8.0492494,2.6836589 6.6093739,2.6709313 5.2217922,3.2209837 4.1925192,4.2090304 3.1660131,5.2001207 2.5802682,6.5503498 2.5669872,7.9620033 c -0.012174,1.3433119 0.4919483,2.6440137 1.4155271,3.6375947 0.9235788,0.993581 2.1977192,1.605611 3.5639961,1.718222 z m 5.0174286,-2.788445 v 0 c 0.154668,-0.287753 0.51353,-0.395661 0.801284,-0.24127 v 0 c 0.287754,0.154391 0.395661,0.51353 0.24127,0.801284 v 0 c -0.659066,1.22489 -1.69498,2.209893 -2.951965,2.805322 v 0 c -0.295501,0.14111 -0.64883,0.01577 -0.7891098,-0.279453 v 0 c -0.14028,-0.295225 -0.014388,-0.649383 0.2808368,-0.790493 v 0 c 1.03121,-0.487798 1.875933,-1.291018 2.417684,-2.29539 z"
     fill-rule="evenodd"
     id="path2"
     style="fill:url(#linearGradient4)" />
</svg>
