<?xml version="1.0" encoding="UTF-8" standalone="no"?>
<svg
   width="16"
   height="16"
   viewBox="0 0 16 16"
   fill="none"
   version="1.1"
   id="svg2"
   sodipodi:docname="shadowsocks-qt5.svg"
   inkscape:version="1.4.4 (unknown)"
   xmlns:inkscape="http://www.inkscape.org/namespaces/inkscape"
   xmlns:sodipodi="http://sodipodi.sourceforge.net/DTD/sodipodi-0.dtd"
   xmlns:xlink="http://www.w3.org/1999/xlink"
   xmlns="http://www.w3.org/2000/svg"
   xmlns:svg="http://www.w3.org/2000/svg">
  <defs
     id="defs2">
    <linearGradient
       id="linearGradient4"
       inkscape:collect="always">
      <stop
         style="stop-color:#e15af4;stop-opacity:1;"
         offset="0"
         id="stop4" />
      <stop
         style="stop-color:#ffcc00;stop-opacity:1"
         offset="1"
         id="stop5" />
    </linearGradient>
    <linearGradient
       id="linearGradient2"
       inkscape:collect="always">
      <stop
         style="stop-color:#e15af4;stop-opacity:1;"
         offset="0"
         id="stop2" />
      <stop
         style="stop-color:#ffd42a;stop-opacity:1"
         offset="1"
         id="stop3" />
    </linearGradient>
    <linearGradient
       inkscape:collect="always"
       xlink:href="#linearGradient2"
       id="linearGradient3"
       x1="6.3358351"
       y1="12.996831"
       x2="9.2825197"
       y2="12.996831"
       gradientUnits="userSpaceOnUse" />
    <linearGradient
       inkscape:collect="always"
       xlink:href="#linearGradient4"
       id="linearGradient5"
       x1="1.5000016"
       y1="7.2242465"
       x2="14.499998"
       y2="7.2242465"
       gradientUnits="userSpaceOnUse" />
  </defs>
  <sodipodi:namedview
     id="namedview2"
     pagecolor="#ffffff"
     bordercolor="#000000"
     borderopacity="0.25"
     inkscape:showpageshadow="2"
     inkscape:pageopacity="0.0"
     inkscape:pagecheckerboard="0"
     inkscape:deskcolor="#d1d1d1"
     inkscape:zoom="16.727495"
     inkscape:cx="8.0107632"
     inkscape:cy="10.491709"
     inkscape:window-width="1920"
     inkscape:window-height="994"
     inkscape:window-x="0"
     inkscape:window-y="0"
     inkscape:window-maximized="1"
     inkscape:current-layer="svg2" />
  <g
     id="g2"
     transform="translate(7.2151777e-8,-0.47279987)">
    <path
       d="M 1.8265008,7.2012367 C 5.8239435,5.4733338 9.8196962,3.7396479 13.819694,2.0167195 c 0.347202,-0.1696449 0.771652,0.1820569 0.66298,0.5436904 -0.62138,3.174427 -1.243633,6.3496767 -1.874356,9.5232811 -0.03735,0.30288 -0.405763,0.480797 -0.68252,0.346734 C 10.414771,11.827977 8.9045979,11.222217 7.3952574,10.615646 7.1006856,10.52296 6.9691012,10.138993 7.1609528,9.8981677 7.6652105,9.2154443 8.1770855,8.5385303 8.6906666,7.861596 7.8027261,8.5012975 6.9113934,9.136835 6.0208935,9.7715599 5.8519545,9.9188661 5.6142779,9.8973349 5.4190342,9.8187255 4.9173358,9.6416412 4.4071468,9.4860474 3.9079875,9.3015084 3.587111,9.1856662 3.5251416,8.7205913 3.7883063,8.5161866 3.926675,8.3920569 4.1338015,8.3746694 4.3035734,8.4425335 4.7467108,8.5840507 5.1838764,8.7437475 5.6278467,8.8844319 7.3018809,7.6812008 8.9784338,6.4812806 10.656713,5.284651 c 0.205421,-0.1605296 0.537347,-0.1117187 0.684206,0.1001406 0.138369,0.17875 0.109505,0.4352766 -0.03479,0.6016156 C 10.308659,7.3112899 9.3112135,8.6361725 8.3112089,9.9594099 9.4640041,10.422819 10.61682,10.886249 11.772154,11.343869 12.295932,8.6577038 12.82818,5.9723306 13.350252,3.2861592 9.6397275,4.8775073 5.930056,6.4729931 2.2186905,8.0635226 c -0.2623075,0.1489515 -0.6383686,0 -0.7011868,-0.2929469 -0.06961,-0.2350156 0.075551,-0.4890843 0.3089971,-0.569339 z"
       id="path1"
       style="stroke-width:0.203125;fill:url(#linearGradient5);fill-opacity:1" />
    <path
       d="m 6.4911888,11.148585 c 0.2521187,-0.259858 0.766553,-0.09848 0.8022014,0.261503 0.024619,0.596639 0.00254,1.195776 0.00934,1.793268 0.3310531,-0.400542 0.6740093,-0.791131 1.0059358,-1.19082 0.1103578,-0.125795 0.2241078,-0.277225 0.4066156,-0.298756 0.2767375,-0.05627 0.5619656,0.16965 0.5653577,0.443564 0.020373,0.195305 -0.1290249,0.344256 -0.2436281,0.484941 -0.6213796,0.719956 -1.2275045,1.45149 -1.8505904,2.168968 -0.2376765,0.305358 -0.8183296,0.15143 -0.8369967,-0.240825 -0.02208,-0.940062 -0.00341,-1.880978 -0.013589,-2.821893 0.00764,-0.204385 -0.024619,-0.452664 0.15535,-0.59995 z"
       id="path2"
       style="stroke-width:0.203125;fill:url(#linearGradient3);fill-opacity:1" />
  </g>
</svg>
