<?xml version="1.0" encoding="UTF-8" standalone="no"?>
<svg
   xml:space="preserve"
   width="16"
   height="16"
   style="isolation:isolate"
   viewBox="0 0 16 16"
   version="1.1"
   id="svg5"
   sodipodi:docname="shotcut.svg"
   inkscape:version="1.4.4 (unknown)"
   xmlns:inkscape="http://www.inkscape.org/namespaces/inkscape"
   xmlns:sodipodi="http://sodipodi.sourceforge.net/DTD/sodipodi-0.dtd"
   xmlns:xlink="http://www.w3.org/1999/xlink"
   xmlns="http://www.w3.org/2000/svg"
   xmlns:svg="http://www.w3.org/2000/svg"><sodipodi:namedview
     id="namedview5"
     pagecolor="#ffffff"
     bordercolor="#000000"
     borderopacity="0.25"
     inkscape:showpageshadow="2"
     inkscape:pageopacity="0.0"
     inkscape:pagecheckerboard="0"
     inkscape:deskcolor="#d1d1d1"
     inkscape:zoom="23.65625"
     inkscape:cx="7.4398943"
     inkscape:cy="9.1096433"
     inkscape:window-width="1920"
     inkscape:window-height="994"
     inkscape:window-x="0"
     inkscape:window-y="0"
     inkscape:window-maximized="1"
     inkscape:current-layer="svg5" /><defs
     id="defs4"><linearGradient
       id="linearGradient7"
       inkscape:collect="always"><stop
         style="stop-color:#2a7fff;stop-opacity:1"
         offset="0"
         id="stop7" /><stop
         style="stop-color:#8d5fd3;stop-opacity:1"
         offset="1"
         id="stop8" /></linearGradient><linearGradient
       id="b"
       x1="0.068000004"
       x2="0.93800002"
       y1="0.233"
       y2="0.77899998"
       gradientTransform="matrix(47,0,0,44,0.5,2)"
       gradientUnits="userSpaceOnUse"><stop
         offset="0%"
         style="stop-color:#0e0f2c;stop-opacity:1"
         id="stop1" /><stop
         offset="98.261%"
         style="stop-color:#132243;stop-opacity:1"
         id="stop2" /></linearGradient><linearGradient
       id="a"
       x1="0.068000004"
       x2="0.93800002"
       y1="0.233"
       y2="0.77899998"
       gradientTransform="matrix(47,0,0,44,0.5,2)"
       gradientUnits="userSpaceOnUse"><stop
         offset="0"
         style="stop-color:#10908e;stop-opacity:1"
         id="stop3" /><stop
         offset="1"
         style="stop-color:#1a466b;stop-opacity:1"
         id="stop4" /></linearGradient><linearGradient
       xlink:href="#linearGradient7"
       id="c"
       x1="67.658997"
       x2="43.187"
       y1="38.009998"
       y2="9.6230001"
       gradientTransform="matrix(-0.34604375,0,0,0.29223458,26.436812,-0.51377083)"
       gradientUnits="userSpaceOnUse" /><linearGradient
       xlink:href="#b"
       id="d"
       x1="11.216"
       x2="41.916"
       y1="35.98"
       y2="8.4790001"
       gradientUnits="userSpaceOnUse"
       gradientTransform="matrix(0.27083333,0,0,0.27083333,-0.01385417,0)" /><linearGradient
       inkscape:collect="always"
       xlink:href="#linearGradient7"
       id="linearGradient8"
       x1="-0.019"
       y1="6.5"
       x2="12.986146"
       y2="6.5"
       gradientUnits="userSpaceOnUse" /></defs><g
     id="g5"
     transform="translate(1.516427,1.5)"><path
       d="M -0.01385417,0.4428125 V 12.557187 H 3.0238125 V 0.4428125 Z m 4.61174997,0 V 12.557187 H 12.986146 V 0.4428125 Z"
       style="fill:url(#c);stroke:none;stroke-width:4.60631;paint-order:markers stroke fill;opacity:0.50327409"
       id="path4" /><path
       d="M -0.01872917,0 V 0.88616667 H 2.1105625 c 0.3263542,0 0.5906875,0.26514583 0.5906875,0.59122913 V 11.522604 A 0.59122917,0.59122917 0 0 1 2.1108333,12.113833 H -0.019 V 13 H 2.4055 A 1.1827292,1.1827292 0 0 0 3.5876875,11.818083 V 1.1819167 A 1.1827292,1.1827292 0 0 0 2.4057708,0 Z M 5.263875,0 A 1.1824583,1.1824583 0 0 0 4.0819583,1.1819167 V 11.818083 A 1.1824583,1.1824583 0 0 0 5.263875,13 h 7.722271 V 12.113833 H 5.5590833 A 0.59122917,0.59122917 0 0 1 4.9683958,11.522604 V 1.4773958 c 0,-0.3260833 0.2643334,-0.59122913 0.5904167,-0.59122913 H 12.986146 V 0 Z"
       id="path5"
       style="fill:url(#linearGradient8);fill-opacity:1" /></g></svg>
