<?xml version="1.0" encoding="UTF-8" standalone="no"?>
<svg
   width="16"
   height="16"
   version="1"
   id="svg6"
   sodipodi:docname="simplenote.svg"
   inkscape:version="1.4.4 (unknown)"
   xmlns:inkscape="http://www.inkscape.org/namespaces/inkscape"
   xmlns:sodipodi="http://sodipodi.sourceforge.net/DTD/sodipodi-0.dtd"
   xmlns="http://www.w3.org/2000/svg"
   xmlns:svg="http://www.w3.org/2000/svg">
  <defs
     id="defs6" />
  <sodipodi:namedview
     id="namedview6"
     pagecolor="#ffffff"
     bordercolor="#000000"
     borderopacity="0.25"
     inkscape:showpageshadow="2"
     inkscape:pageopacity="0.0"
     inkscape:pagecheckerboard="0"
     inkscape:deskcolor="#d1d1d1"
     inkscape:zoom="22.627417"
     inkscape:cx="4.331029"
     inkscape:cy="15.976194"
     inkscape:window-width="1920"
     inkscape:window-height="994"
     inkscape:window-x="0"
     inkscape:window-y="0"
     inkscape:window-maximized="1"
     inkscape:current-layer="svg6" />
  <g
     id="g1"
     transform="matrix(0.31707317,0,0,0.31707317,0.39024424,-23.514005)">
    <g
       style="opacity:0.2"
       transform="matrix(2.00001,0,0,2.1052637,-8.000261,65.153577)"
       id="g4">
      <path
         d="m 11.158,8 c -3.2147,1.7198 -5.1526,4.8252 -5.1579,8.2978 0.00678,4.7831 3.8025,8.9662 8.8421,9.6808 0.36133,0.03586 0.47082,0.01998 0.73684,0 2.4417,0 4.4211,-1.8575 4.4211,-4.1489 -0.0022,-1.5726 -0.94616,-2.9769 -2.3832,-3.6769 0,0 -1.5874,-0.68269 -2.2897,-1.0365 -1.0174,-0.47738 -1.837196,-0.89975 -2.903496,-1.5113 -0.53316,-0.30576 -1.0718,-0.66276 -1.5557,-1.2142 -0.48387,-0.55139 -0.88364,-1.3776 -0.88364,-2.2419 0,-1.6768 0.345906,-2.9547 1.173696,-4.1489 z"
         id="path3" />
      <path
         d="M 20.842,25 C 24.057,23.28 25.995,20.175 26,16.702 25.993,11.919 22.198,7.736 17.158,7.0213 c -0.36133,-0.03586 -0.47082,-0.01998 -0.73684,0 -2.4417,0 -4.4211,1.8575 -4.4211,4.1489 0.0022,1.5726 0.94616,2.9769 2.3832,3.6769 0,0 1.5874,0.68269 2.2897,1.0365 1.0174,0.47738 1.887096,0.89975 2.953396,1.5113 0.53316,0.30576 1.0718,0.66276 1.5557,1.2142 0.48387,0.55139 0.88364,1.3776 0.88364,2.2419 0,1.6768 -0.395806,2.9547 -1.223596,4.1489 z"
         id="path4" />
    </g>
    <g
       style="fill:#325fc9"
       transform="matrix(2.00001,0,0,2.1052637,-8.000261,64.153577)"
       id="g6">
      <path
         d="m 11.158,8 c -3.2147,1.7198 -5.1526,4.8252 -5.1579,8.2978 0.00678,4.7831 3.8025,8.9662 8.8421,9.6808 0.36133,0.03586 0.47082,0.01998 0.73684,0 2.4417,0 4.4211,-1.8575 4.4211,-4.1489 -0.0022,-1.5726 -0.94616,-2.9769 -2.3832,-3.6769 0,0 -1.5874,-0.68269 -2.2897,-1.0365 -1.0174,-0.47738 -1.837196,-0.89975 -2.903496,-1.5113 -0.53316,-0.30576 -1.0718,-0.66276 -1.5557,-1.2142 -0.48387,-0.55139 -0.88364,-1.3776 -0.88364,-2.2419 0,-1.6768 0.345906,-2.9547 1.173696,-4.1489 z"
         id="path5"
         style="fill:#0055d4" />
      <path
         d="M 20.842,25 C 24.057,23.28 25.995,20.175 26,16.702 25.993,11.919 22.198,7.736 17.158,7.0213 c -0.36133,-0.03586 -0.47082,-0.01998 -0.73684,0 -2.4417,0 -4.4211,1.8575 -4.4211,4.1489 0.0022,1.5726 0.94616,2.9769 2.3832,3.6769 0,0 1.5874,0.68269 2.2897,1.0365 1.0174,0.47738 1.887096,0.89975 2.953396,1.5113 0.53316,0.30576 1.0718,0.66276 1.5557,1.2142 0.48387,0.55139 0.88364,1.3776 0.88364,2.2419 0,1.6768 -0.395806,2.9547 -1.223596,4.1489 z"
         id="path6"
         style="fill:#2a7fff" />
    </g>
  </g>
</svg>
