<?xml version="1.0" encoding="UTF-8" standalone="no"?>
<svg
   width="16"
   height="16"
   version="1"
   id="svg5"
   sodipodi:docname="sm.puri.Chatty.svg"
   inkscape:version="1.4.4 (unknown)"
   xmlns:inkscape="http://www.inkscape.org/namespaces/inkscape"
   xmlns:sodipodi="http://sodipodi.sourceforge.net/DTD/sodipodi-0.dtd"
   xmlns:xlink="http://www.w3.org/1999/xlink"
   xmlns="http://www.w3.org/2000/svg"
   xmlns:svg="http://www.w3.org/2000/svg">
  <defs
     id="defs5">
    <linearGradient
       id="linearGradient7"
       inkscape:collect="always">
      <stop
         style="stop-color:#5dbf21;stop-opacity:0;"
         offset="0"
         id="stop7" />
      <stop
         style="stop-color:#5dbf21;stop-opacity:0;"
         offset="1"
         id="stop8" />
    </linearGradient>
    <linearGradient
       id="linearGradient5"
       inkscape:collect="always">
      <stop
         style="stop-color:#00ccff;stop-opacity:1;"
         offset="0"
         id="stop5" />
      <stop
         style="stop-color:#e580ff;stop-opacity:1;"
         offset="1"
         id="stop6" />
    </linearGradient>
    <linearGradient
       inkscape:collect="always"
       xlink:href="#linearGradient5"
       id="linearGradient6"
       x1="5.5191927"
       y1="31.311113"
       x2="43.999996"
       y2="29.696972"
       gradientUnits="userSpaceOnUse"
       gradientTransform="matrix(0.34938307,0,0,0.34938307,2.2771466,3.5783805)" />
    <linearGradient
       inkscape:collect="always"
       xlink:href="#linearGradient7"
       id="linearGradient8"
       x1="3.250179"
       y1="12.051491"
       x2="18.074501"
       y2="12.051491"
       gradientUnits="userSpaceOnUse" />
    <linearGradient
       inkscape:collect="always"
       xlink:href="#linearGradient5"
       id="linearGradient13"
       x1="12.060192"
       y1="9.867445"
       x2="13.457775"
       y2="9.867445"
       gradientUnits="userSpaceOnUse" />
    <linearGradient
       inkscape:collect="always"
       xlink:href="#linearGradient5"
       id="linearGradient15"
       x1="6.4698629"
       y1="12.313215"
       x2="14.855358"
       y2="12.313215"
       gradientUnits="userSpaceOnUse" />
    <linearGradient
       inkscape:collect="always"
       xlink:href="#linearGradient5"
       id="linearGradient16"
       gradientUnits="userSpaceOnUse"
       x1="12.060192"
       y1="9.867445"
       x2="13.457775"
       y2="9.867445"
       gradientTransform="matrix(0.95569799,0,0,0.95569799,-6.203577,-3.5175856)" />
  </defs>
  <sodipodi:namedview
     id="namedview5"
     pagecolor="#ffffff"
     bordercolor="#000000"
     borderopacity="0.25"
     inkscape:showpageshadow="2"
     inkscape:pageopacity="0.0"
     inkscape:pagecheckerboard="0"
     inkscape:deskcolor="#d1d1d1"
     inkscape:zoom="31.541667"
     inkscape:cx="10.14531"
     inkscape:cy="11.46103"
     inkscape:window-width="1920"
     inkscape:window-height="994"
     inkscape:window-x="0"
     inkscape:window-y="0"
     inkscape:window-maximized="1"
     inkscape:current-layer="svg5" />
  <g
     id="g6"
     transform="matrix(0.95569799,0,0,0.95569799,-2.1899769,-3.5175856)">
    <path
       style="fill:url(#linearGradient8);fill-opacity:0;stroke:url(#linearGradient6);stroke-width:0.849;stroke-dasharray:none"
       d="m 4.451078,5.674679 c -0.4301255,0 -0.776399,0.4433321 -0.776399,0.8734576 v 9.0839604 c 0,0.43009 0.3462735,0.873457 0.776399,0.873457 h 6.560716 l 1.746915,1.746915 1.746915,-1.746915 h 2.368048 c 0.430091,0 0.776329,-0.443367 0.776329,-0.873457 V 6.5481366 c 0,-0.4301255 -0.346238,-0.8734576 -0.776329,-0.8734576 z"
       id="path2" />
    <path
       style="opacity:0.1;stroke-width:0.349396"
       d="M 8.5662364,9.5180496 A 0.69879123,0.69879123 0 0 0 7.8674452,10.216841 0.69879123,0.69879123 0 0 0 8.5662364,10.915632 0.69879123,0.69879123 0 0 0 9.2650277,10.216841 0.69879123,0.69879123 0 0 0 8.5662364,9.5180496 Z m 4.1927476,0 a 0.69879123,0.69879123 0 0 0 -0.698791,0.6987914 0.69879123,0.69879123 0 0 0 0.698791,0.698791 0.69879123,0.69879123 0 0 0 0.698791,-0.698791 0.69879123,0.69879123 0 0 0 -0.698791,-0.6987914 z M 6.8192584,11.614423 a 0.34939562,0.34939562 0 0 0 -0.2470336,0.102362 0.34939562,0.34939562 0 0 0 0,0.494067 c 0,0 1.5115155,1.499945 4.0903852,1.499945 2.57887,0 4.090385,-1.499945 4.090385,-1.499945 a 0.34939562,0.34939562 0 0 0 0,-0.494067 0.34939562,0.34939562 0 0 0 -0.494067,0 c 0,0 -1.283654,1.295221 -3.596318,1.295221 -2.3126638,0 -3.5963181,-1.295221 -3.5963181,-1.295221 A 0.34939562,0.34939562 0 0 0 6.8192584,11.614423 Z"
       id="path3" />
    <circle
       style="fill:url(#linearGradient13);stroke-width:0.349396"
       cx="12.758984"
       cy="9.867445"
       r="0.69879121"
       id="circle4" />
    <path
       style="fill:none;stroke:url(#linearGradient15);stroke-width:0.698791;stroke-linecap:round;stroke-linejoin:round"
       d="m 6.8192584,11.614423 c 0,0 1.3975824,1.397583 3.8433516,1.397583 2.445769,0 3.843352,-1.397583 3.843352,-1.397583"
       id="path4" />
  </g>
  <circle
     style="fill:url(#linearGradient16);stroke-width:0.333917"
     cx="5.9901581"
     cy="5.9127116"
     r="0.66783333"
     id="circle4-5" />
</svg>
