<?xml version="1.0" encoding="UTF-8" standalone="no"?>
<svg
   version="1.1"
   viewBox="0 0 16 16"
   id="svg1"
   sodipodi:docname="smartphonedisconnected.svg"
   width="16"
   height="16"
   inkscape:version="1.4.4 (unknown)"
   xmlns:inkscape="http://www.inkscape.org/namespaces/inkscape"
   xmlns:sodipodi="http://sodipodi.sourceforge.net/DTD/sodipodi-0.dtd"
   xmlns:xlink="http://www.w3.org/1999/xlink"
   xmlns="http://www.w3.org/2000/svg"
   xmlns:svg="http://www.w3.org/2000/svg">
  <sodipodi:namedview
     id="namedview1"
     pagecolor="#ffffff"
     bordercolor="#000000"
     borderopacity="0.25"
     inkscape:showpageshadow="2"
     inkscape:pageopacity="0.0"
     inkscape:pagecheckerboard="0"
     inkscape:deskcolor="#d1d1d1"
     inkscape:zoom="24.330902"
     inkscape:cx="10.480499"
     inkscape:cy="15.104249"
     inkscape:window-width="1920"
     inkscape:window-height="994"
     inkscape:window-x="0"
     inkscape:window-y="0"
     inkscape:window-maximized="1"
     inkscape:current-layer="svg1" />
  <defs
     id="defs1">
    <linearGradient
       id="linearGradient1"
       inkscape:collect="always">
      <stop
         style="stop-color:#ffd42a;stop-opacity:1"
         offset="0"
         id="stop1" />
      <stop
         style="stop-color:#ff9955;stop-opacity:1"
         offset="1"
         id="stop2" />
    </linearGradient>
    <style
       id="current-color-scheme"
       type="text/css">.ColorScheme-NeutralText {
            color:#f67400;
        }
        .ColorScheme-Text {
            color:#fcfcfc;
        }</style>
    <linearGradient
       inkscape:collect="always"
       xlink:href="#linearGradient1"
       id="linearGradient2"
       x1="3.9375"
       y1="14.5"
       x2="11.25"
       y2="5.3696003"
       gradientUnits="userSpaceOnUse" />
  </defs>
  <path
     id="smartphone"
     class="ColorScheme-Text"
     d="m 5.5625,1.5 c -0.90025,0 -1.625,0.72475 -1.625,1.625 v 9.75 c 0,0.90025 0.72475,1.625 1.625,1.625 h 4.875 c 0.90025,0 1.625,-0.72475 1.625,-1.625 v -9.75 c 0,-0.90025 -0.72475,-1.625 -1.625,-1.625 z m 0,0.8125 h 4.875 c 0.450125,0 0.8125,0.362375 0.8125,0.8125 v 9.75 c 0,0.450125 -0.362375,0.8125 -0.8125,0.8125 H 5.5625 C 5.112375,13.6875 4.75,13.325125 4.75,12.875 V 3.125 C 4.75,2.674875 5.112375,2.3125 5.5625,2.3125 Z M 5.96875,3.125 A 0.40625,0.40625 0 0 0 5.5625,3.53125 0.40625,0.40625 0 0 0 5.96875,3.9375 0.40625,0.40625 0 0 0 6.375,3.53125 0.40625,0.40625 0 0 0 5.96875,3.125 Z m 0.8125,8.9375 c -0.2250625,0 -0.40625,0.181183 -0.40625,0.40625 0,0.225067 0.1811875,0.40625 0.40625,0.40625 h 2.4375 c 0.225067,0 0.40625,-0.181183 0.40625,-0.40625 0,-0.225067 -0.181183,-0.40625 -0.40625,-0.40625 z"
     fill="currentColor"
     style="stroke-width:0.8125;fill:url(#linearGradient2)" />
  <path
     class="ColorScheme-NeutralText"
     d="M 7.8098755,5.1673817 A 1.625,1.625 0 0 0 6.3737,6.7082875 a 1.625,1.625 0 0 0 0,0.072995 H 7.1862 A 0.8125,0.8125 0 0 1 7.903476,5.9735431 H 7.997115 V 5.1673887 H 7.809867 Z m 0.1888435,0.00167 v 0.8125 a 0.8125,0.8125 0 0 1 0.807736,0.717283 v 0.093624 h 0.0055 A 0.8125,0.8125 0 0 1 8.094599,7.6001965 l -0.09367,-4.02e-5 v -0.0065 A 1.625,1.625 0 0 0 7.8388292,7.5953624 1.625,1.625 0 0 0 7.1881949,7.7730551 V 7.604821 h -0.00166 V 9.229823 H 7.9987 V 8.4062175 h 0.188881 a 1.625,1.625 0 0 0 1.436184,-1.5409613 1.625,1.625 0 0 0 0,-0.072993 h -0.0111 V 6.605094 a 1.625,1.625 0 0 0 -1.540908,-1.436175 1.625,1.625 0 0 0 -0.07302,0 z M 7.1878009,10.031253 v 0.8125 H 8.000306 v -0.8125 z"
     fill="currentColor"
     id="path1"
     style="stroke-width:0.8125" />
</svg>
