<?xml version="1.0" encoding="UTF-8" standalone="no"?>
<svg
   width="16"
   height="16"
   version="1.1"
   id="svg1"
   sodipodi:docname="applications-other.svg"
   inkscape:version="1.4.4 (unknown)"
   xmlns:inkscape="http://www.inkscape.org/namespaces/inkscape"
   xmlns:sodipodi="http://sodipodi.sourceforge.net/DTD/sodipodi-0.dtd"
   xmlns:xlink="http://www.w3.org/1999/xlink"
   xmlns="http://www.w3.org/2000/svg"
   xmlns:svg="http://www.w3.org/2000/svg">
  <defs
     id="defs1">
    <linearGradient
       id="linearGradient1"
       inkscape:collect="always">
      <stop
         style="stop-color:#e580ff;stop-opacity:1"
         offset="0"
         id="stop1" />
      <stop
         style="stop-color:#2a7fff;stop-opacity:1"
         offset="1"
         id="stop2" />
    </linearGradient>
    <linearGradient
       inkscape:collect="always"
       xlink:href="#linearGradient1"
       id="linearGradient2"
       x1="4.3079996"
       y1="3.4167743"
       x2="9.7926455"
       y2="13.12"
       gradientUnits="userSpaceOnUse" />
  </defs>
  <sodipodi:namedview
     id="namedview1"
     pagecolor="#ffffff"
     bordercolor="#000000"
     borderopacity="0.25"
     inkscape:showpageshadow="2"
     inkscape:pageopacity="0.0"
     inkscape:pagecheckerboard="0"
     inkscape:deskcolor="#d1d1d1"
     inkscape:zoom="24.21875"
     inkscape:cx="8.3819355"
     inkscape:cy="6.916129"
     inkscape:window-width="1920"
     inkscape:window-height="994"
     inkscape:window-x="0"
     inkscape:window-y="0"
     inkscape:window-maximized="1"
     inkscape:current-layer="svg1" />
  <path
     d="m 6.7539664,1.5000066 c -0.2000755,0 -0.2450964,0.00874 -0.3769355,0.07349 C 6.18598,1.6672936 6.0245529,1.8289346 5.9397238,2.0113477 5.8496058,2.2050874 5.83329,2.5014754 5.9026538,2.683741 c 0.026361,0.06926 0.2676019,0.5051839 0.5360883,0.9687446 0.2684854,0.463552 0.4887736,0.8602306 0.4895558,0.8815117 8.037e-4,0.021278 -0.6609651,1.1857905 -1.4706123,2.5878001 l -1.4719936,2.5491223 -2.6726112,0.01468 -0.1511222,0.07048 c -0.196853,0.09184 -0.3688421,0.2630373 -0.4576675,0.4555973 -0.060189,0.130452 -0.071014,0.18654 -0.07113,0.368013 0,0.18187 0.01041,0.23681 0.07045,0.365204 0.1193716,0.255686 0.3554059,0.452805 0.6157054,0.514143 0.052659,0.0126 1.9873997,0.02338 4.3660722,0.02482 l 4.2714992,0.0023 0.04801,-0.05313 c 0.04042,-0.04486 0.04776,-0.09135 0.04661,-0.296011 -0.0034,-0.620663 -0.3615961,-1.2132473 -0.8515759,-1.4094813 -0.091568,-0.03667 -0.2870504,-0.04328 -1.6167533,-0.05455 L 6.0705679,9.6602847 6.502313,8.9172978 C 9.188827,4.2947008 10.056369,2.7903846 10.09744,2.6837491 10.13535,2.5854841 10.1438,2.5135467 10.1357,2.356319 10.11735,1.9998173 9.9401129,1.7290754 9.6232339,1.5734873 9.4914499,1.5087833 9.4462919,1.4999933 9.2468141,1.4999933 c -0.1970639,0 -0.2473703,0.00949 -0.3851127,0.073147 C 8.6432615,1.6740395 8.511155,1.8292876 8.2412976,2.3023885 8.1176807,2.5190761 8.0087064,2.6963777 7.9991109,2.6963777 c -0.0095,0 -0.1180999,-0.176943 -0.2411916,-0.3931978 C 7.4867726,1.8267359 7.3741699,1.6935061 7.1489462,1.5826252 6.9968747,1.5077593 6.9598012,1.5000306 6.7539339,1.5000306 Z M 9.3432398,5.0396993 C 9.2898866,5.0380615 9.1517188,5.1738317 9.0558119,5.3222094 8.7234453,5.8364271 8.59098,6.8943015 8.7759074,7.5575051 c 0.035118,0.1259553 0.4711854,0.8995602 1.8952216,3.3621529 1.017273,1.759391 1.888407,3.241702 1.935739,3.294468 0.254571,0.282721 0.675504,0.365709 1.035596,0.204107 0.340178,-0.152673 0.552518,-0.514814 0.520989,-0.888621 -0.0078,-0.09181 -0.03691,-0.217912 -0.06485,-0.280246 -0.02795,-0.06235 -0.264544,-0.481683 -0.525865,-0.931909 l -0.475089,-0.818553 1.589311,-0.02513 0.151118,-0.07056 c 0.196857,-0.09184 0.368846,-0.26305 0.457671,-0.455619 0.06019,-0.13046 0.071,-0.186459 0.07109,-0.367933 0,-0.181838 -0.01032,-0.236839 -0.07035,-0.365203 -0.09176,-0.196752 -0.263068,-0.3688313 -0.455627,-0.4578253 l -0.153875,-0.07102 -2.64563,-0.01468 -1.334326,-2.3150412 C 9.9731279,6.0824255 9.3593457,5.0401048 9.3431385,5.039736 Z M 3.0407834,11.901758 c -0.1428803,3.08e-4 -0.2637711,0.01278 -0.3142339,0.03857 -0.054007,0.02772 -0.1503773,0.170424 -0.3737495,0.55364 -0.4490479,0.770317 -0.4829823,0.847297 -0.4823647,1.093981 9.209e-4,0.390639 0.2134831,0.699025 0.5851327,0.848998 0.1696315,0.06845 0.5220263,0.05331 0.6963542,-0.02993 0.2326091,-0.110985 0.341169,-0.255434 0.8323005,-1.107144 l 0.4575199,-0.793355 -0.040495,-0.07204 C 4.293555,12.242692 3.9714479,12.052268 3.5980576,11.959583 3.44455,11.921473 3.2244825,11.901453 3.0407716,11.901743 Z"
     stroke-width="1.47337"
     id="path1"
     style="fill:url(#linearGradient2)" />
</svg>
