<?xml version="1.0" encoding="UTF-8" standalone="no"?>
<svg
   width="16"
   height="16"
   version="1.1"
   id="svg3"
   sodipodi:docname="sonic-visualiser.svg"
   inkscape:version="1.4.4 (unknown)"
   xmlns:inkscape="http://www.inkscape.org/namespaces/inkscape"
   xmlns:sodipodi="http://sodipodi.sourceforge.net/DTD/sodipodi-0.dtd"
   xmlns:xlink="http://www.w3.org/1999/xlink"
   xmlns="http://www.w3.org/2000/svg"
   xmlns:svg="http://www.w3.org/2000/svg">
  <sodipodi:namedview
     id="namedview3"
     pagecolor="#ffffff"
     bordercolor="#000000"
     borderopacity="0.25"
     inkscape:showpageshadow="2"
     inkscape:pageopacity="0.0"
     inkscape:pagecheckerboard="0"
     inkscape:deskcolor="#d1d1d1"
     inkscape:zoom="16.860077"
     inkscape:cx="9.3712502"
     inkscape:cy="12.959609"
     inkscape:current-layer="svg3"
     inkscape:window-width="1920"
     inkscape:window-height="994"
     inkscape:window-x="0"
     inkscape:window-y="0"
     inkscape:window-maximized="1" />
  <defs
     id="defs3">
    <linearGradient
       id="linearGradient3"
       inkscape:collect="always">
      <stop
         style="stop-color:#7137c8;stop-opacity:1"
         offset="0"
         id="stop4" />
      <stop
         style="stop-color:#ffd42a;stop-opacity:1"
         offset="0.5284313"
         id="stop6" />
      <stop
         style="stop-color:#00cccc;stop-opacity:1;"
         offset="1"
         id="stop5" />
    </linearGradient>
    <linearGradient
       id="linear0"
       x1="0%"
       x2="0%"
       y1="0%"
       y2="100%">
      <stop
         offset="0%"
         style="stop-color:#00b54e; stop-opacity:1"
         id="stop1" />
      <stop
         offset="50%"
         style="stop-color:#ffd000; stop-opacity:1"
         id="stop2" />
      <stop
         offset="100%"
         style="stop-color:#ff00bb; stop-opacity:1"
         id="stop3" />
    </linearGradient>
    <linearGradient
       inkscape:collect="always"
       xlink:href="#linearGradient3"
       id="linearGradient5"
       x1="0"
       y1="14.141172"
       x2="0"
       y2="1.8596101"
       gradientUnits="userSpaceOnUse"
       gradientTransform="matrix(1.0000001,0,0,1.058496,0,-0.46839121)" />
  </defs>
  <path
     d="m 6.3900004,1.5004116 c -0.308,0.00952 -0.5690001,0.209582 -0.6300001,0.4847911 l -1.1560001,5.2183855 -0.326,-2.745739 C 4.2440003,4.1741727 3.9960002,3.9508298 3.6830003,3.9222503 3.3710002,3.8926125 3.0780001,4.0662059 2.9810002,4.3371805 L 1.9460001,7.2438109 H 0 v 1.209861 h 2.4320001 c 0.2890001,0 0.545,-0.1693594 0.634,-0.4191645 L 3.2880002,7.4121118 3.7420003,11.239634 c 0.035,0.296381 0.3039999,0.525015 0.6319999,0.538772 0.329,0.01378 0.6190001,-0.191585 0.6840001,-0.484791 l 1.148,-5.1834531 0.907,7.8487491 c 0.036,0.30167 0.3120001,0.53348 0.6470001,0.540889 0.334,0.0078 0.623,-0.211696 0.6750001,-0.511251 l 1.18,-6.8865768 0.8010005,5.0659618 c 0.04599,0.294262 0.322,0.514429 0.649999,0.519725 0.328,0.004 0.611,-0.208525 0.667,-0.50173 l 0.835001,-4.3345412 0.19,0.7398886 c 0.071,0.2730919 0.34,0.4667966 0.65,0.4667966 H 16 V 7.8492707 h -2.062999 l -0.813,-3.1617276 c -0.072,-0.2794429 -0.351001,-0.4752647 -0.668,-0.466797 -0.317,0.00851 -0.583001,0.2169916 -0.638001,0.5006686 l -0.677,3.51209 -0.84,-5.3083575 C 10.255,2.6287682 9.9760007,2.4075427 9.6450005,2.4054256 c -0.3300001,-0.00106 -0.612,0.2169919 -0.663,0.5133706 L 7.9050005,9.207321 7.0760003,2.0413028 C 7.0390004,1.7248125 6.7400004,1.4887678 6.3900004,1.5004116 Z"
     id="path3"
     style="fill:url(#linearGradient5);stroke-width:1.02883" />
</svg>
