<?xml version="1.0" encoding="UTF-8" standalone="no"?>
<svg
   clip-rule="evenodd"
   fill-rule="evenodd"
   stroke-linejoin="round"
   stroke-miterlimit="2"
   viewBox="0 0 16 16"
   version="1.1"
   id="svg2"
   sodipodi:docname="spotube.svg"
   width="16"
   height="16"
   inkscape:version="1.4.4 (unknown)"
   xmlns:inkscape="http://www.inkscape.org/namespaces/inkscape"
   xmlns:sodipodi="http://sodipodi.sourceforge.net/DTD/sodipodi-0.dtd"
   xmlns:xlink="http://www.w3.org/1999/xlink"
   xmlns="http://www.w3.org/2000/svg"
   xmlns:svg="http://www.w3.org/2000/svg">
  <defs
     id="defs2">
    <linearGradient
       id="paint161_linear_890_11"
       x1="663"
       y1="764.00098"
       x2="674.034"
       y2="791.586"
       gradientUnits="userSpaceOnUse">
      <stop
         stop-color="#EFF2F6"
         id="stop1064" />
      <stop
         offset="0.726295"
         stop-color="#B7C6CD"
         id="stop1065"
         style="stop-color:#aa87de;stop-opacity:1" />
    </linearGradient>
    <linearGradient
       id="paint162_linear_890_11"
       x1="670"
       y1="805"
       x2="665.008"
       y2="808.45599"
       gradientUnits="userSpaceOnUse"
       xlink:href="#paint161_linear_890_11">
      <stop
         stop-color="#EFF2F6"
         id="stop1066" />
      <stop
         offset="0.615963"
         stop-color="#B7C6CD"
         id="stop1067"
         style="stop-color:#ff80b2;stop-opacity:1" />
    </linearGradient>
    <linearGradient
       id="paint163_linear_890_11"
       x1="667.992"
       y1="802.76001"
       x2="673.04303"
       y2="799.547"
       gradientUnits="userSpaceOnUse">
      <stop
         offset="0.297611"
         stop-color="#2E2E41"
         id="stop1068"
         style="stop-color:#00ccff;stop-opacity:1" />
      <stop
         offset="0.95404"
         stop-color="#566C80"
         id="stop1069" />
    </linearGradient>
    <linearGradient
       id="paint164_linear_890_11"
       x1="696.5"
       y1="803.5"
       x2="701.99103"
       y2="806.89801"
       gradientUnits="userSpaceOnUse">
      <stop
         stop-color="#EFF2F6"
         id="stop1070" />
      <stop
         offset="0.674161"
         stop-color="#B7C6CD"
         id="stop1071"
         style="stop-color:#ff5599;stop-opacity:1" />
    </linearGradient>
    <linearGradient
       id="paint165_linear_890_11"
       x1="697.90601"
       y1="802.76001"
       x2="692.85498"
       y2="799.547"
       gradientUnits="userSpaceOnUse">
      <stop
         offset="0.288758"
         stop-color="#2E2E41"
         id="stop1072"
         style="stop-color:#2ad4ff;stop-opacity:1" />
      <stop
         offset="0.753525"
         stop-color="#566C80"
         id="stop1073" />
    </linearGradient>
    <radialGradient
       id="paint166_radial_890_11"
       cx="-0.023299167"
       cy="0.017407246"
       r="1"
       gradientUnits="userSpaceOnUse"
       gradientTransform="matrix(-2.7644016,47.995956,-43.943705,-2.5310063,682.4482,776.16232)"
       fx="-0.023299167"
       fy="0.017407246">
      <stop
         offset="0.304344"
         stop-color="#B7C6CD"
         id="stop1074"
         style="stop-color:#c83771;stop-opacity:1" />
      <stop
         offset="0.55695599"
         stop-color="#EFF2F6"
         id="stop1075"
         style="stop-color:#00bdec;stop-opacity:1;" />
    </radialGradient>
    <linearGradient
       id="paint167_linear_890_11"
       x1="660"
       y1="792"
       x2="662"
       y2="792.00098"
       gradientUnits="userSpaceOnUse">
      <stop
         stop-color="#EFF2F6"
         id="stop1076" />
      <stop
         offset="0.688449"
         stop-color="#B7C6CD"
         id="stop1077" />
    </linearGradient>
    <linearGradient
       id="paint168_linear_890_11"
       x1="704"
       y1="792"
       x2="706"
       y2="792.00098"
       gradientUnits="userSpaceOnUse">
      <stop
         stop-color="#EFF2F6"
         id="stop1078" />
      <stop
         offset="0.761422"
         stop-color="#B7C6CD"
         id="stop1079" />
    </linearGradient>
    <linearGradient
       id="paint169_linear_890_11"
       x1="703"
       y1="786"
       x2="707"
       y2="790"
       gradientUnits="userSpaceOnUse">
      <stop
         stop-color="#EFF2F6"
         id="stop1080" />
      <stop
         offset="0.585029"
         stop-color="#B7C6CD"
         id="stop1081" />
    </linearGradient>
    <linearGradient
       id="paint170_linear_890_11"
       x1="659"
       y1="786"
       x2="663"
       y2="790"
       gradientUnits="userSpaceOnUse">
      <stop
         stop-color="#EFF2F6"
         id="stop1082" />
      <stop
         offset="1"
         stop-color="#B7C6CD"
         id="stop1083" />
    </linearGradient>
    <clipPath
       id="a-3-3-1">
      <circle
         cx="8.467"
         cy="288.53"
         r="6.8790002"
         fill="#d86eb0"
         stroke-opacity="0.039"
         stroke-width="0.491"
         style="paint-order:stroke markers fill"
         id="circle2-6-6-2" />
    </clipPath>
    <linearGradient
       inkscape:collect="always"
       xlink:href="#paint166_radial_890_11"
       id="linearGradient4"
       x1="20.269171"
       y1="28.00004"
       x2="41.730831"
       y2="28.000004"
       gradientUnits="userSpaceOnUse"
       gradientTransform="matrix(0.21505379,0,0,0.21505379,1.3333311,1.1266692)" />
    <linearGradient
       id="linearGradient6"
       x1="659"
       y1="786"
       x2="663"
       y2="790"
       gradientUnits="userSpaceOnUse">
      <stop
         stop-color="#EFF2F6"
         id="stop5"
         style="stop-color:#008080;stop-opacity:1" />
      <stop
         offset="1"
         stop-color="#B7C6CD"
         id="stop6"
         style="stop-color:#8d5fd3;stop-opacity:1" />
    </linearGradient>
  </defs>
  <sodipodi:namedview
     id="namedview2"
     pagecolor="#ffffff"
     bordercolor="#000000"
     borderopacity="0.25"
     inkscape:showpageshadow="2"
     inkscape:pageopacity="0.0"
     inkscape:pagecheckerboard="0"
     inkscape:deskcolor="#d1d1d1"
     inkscape:zoom="34.397322"
     inkscape:cx="7.9366644"
     inkscape:cy="8.6198571"
     inkscape:window-width="1920"
     inkscape:window-height="994"
     inkscape:window-x="0"
     inkscape:window-y="0"
     inkscape:window-maximized="1"
     inkscape:current-layer="svg2" />
  <linearGradient
     id="a"
     x2="1"
     gradientTransform="matrix(0,-45.5286,45.5286,0,210.895,46.7643)"
     gradientUnits="userSpaceOnUse">
    <stop
       stop-color="#8c0c0c"
       offset="0"
       id="stop1" />
    <stop
       stop-color="#f54f4f"
       offset="1"
       id="stop2" />
  </linearGradient>
  <g
     id="g2272"
     transform="matrix(0.2321432,0,0,0.2321432,-150.55382,-175.16098)">
    <path
       d="m 703,780 c -1,-2 -8.021,-8.999 -20.178,-8.999 C 670.665,771.001 665,778 663,780 c 0.936,-8.703 9.434,-15.999 20,-15.999 10.566,0 19.064,7.296 20,15.999 z"
       id="path159"
       style="fill:url(#paint161_linear_890_11)" />
    <path
       d="m 658.491,798.108 c -1.011,-1.629 -0.411,-3.711 1.341,-4.651 1.751,-0.94 3.991,-0.383 5.002,1.246 l 10.675,17.189 c 1.011,1.629 0.411,3.711 -1.341,4.651 -1.751,0.94 -3.991,0.383 -5.002,-1.246 z"
       id="path160"
       style="fill:url(#paint162_linear_890_11)" />
    <path
       d="m 663.402,795.237 c -0.827,-1.351 -0.336,-3.078 1.096,-3.858 1.432,-0.78 3.264,-0.317 4.091,1.034 l 10.009,16.35 c 0.827,1.351 0.336,3.078 -1.096,3.858 -1.432,0.78 -3.264,0.317 -4.091,-1.034 z"
       id="path161"
       style="fill:url(#paint163_linear_890_11)" />
    <path
       d="m 707.518,797.997 c 0.993,-1.593 0.403,-3.63 -1.317,-4.55 -1.72,-0.92 -3.92,-0.374 -4.913,1.219 l -10.806,17.337 c -0.993,1.593 -0.403,3.63 1.317,4.55 1.72,0.92 3.92,0.374 4.913,-1.219 z"
       id="path162"
       style="fill:url(#paint164_linear_890_11)" />
    <path
       d="m 702.598,795.237 c 0.827,-1.351 0.336,-3.078 -1.096,-3.858 -1.432,-0.78 -3.264,-0.317 -4.091,1.034 l -10.009,16.35 c -0.827,1.351 -0.336,3.078 1.096,3.858 1.432,0.78 3.264,0.317 4.091,-1.034 z"
       id="path163"
       style="fill:url(#paint165_linear_890_11)" />
    <path
       d="m 703,789 v -3 c 0,-9 -4,-21 -20,-21 -16,0 -20,11 -20,21 v 3 h -4 v -3 c 0,-13.807 10.193,-25 24,-25 13.807,0 24,11.193 24,25 v 3 z"
       id="path164"
       style="fill:url(#paint166_radial_890_11)" />
    <path
       d="m 662,788 h -2 v 6 c 0,0.552 0.448,1 1,1 0.552,0 1,-0.448 1,-1 z"
       fill="url(#paint167_linear_890_11)"
       id="path165"
       style="fill:url(#paint167_linear_890_11)" />
    <path
       d="m 706,788 h -2 v 6 c 0,0.552 0.448,1 1,1 0.552,0 1,-0.448 1,-1 z"
       fill="url(#paint168_linear_890_11)"
       id="path166"
       style="fill:url(#paint168_linear_890_11)" />
    <path
       d="m 703,786 h 4 v 3 c 0,0.552 -0.448,1 -1,1 h -2 c -0.552,0 -1,-0.448 -1,-1 z"
       id="path167"
       style="fill:url(#paint169_linear_890_11)" />
    <path
       d="m 659,786 h 4 v 3 c 0,0.552 -0.448,1 -1,1 h -2 c -0.552,0 -1,-0.448 -1,-1 z"
       id="path168"
       style="fill:url(#paint170_linear_890_11)" />
  </g>
  <path
     opacity="0.5"
     fill-rule="evenodd"
     clip-rule="evenodd"
     d="m 7.9999767,5.1481831 c 0.1224082,0 0.2398369,0.048636 0.3263846,0.1351754 0.086542,0.086574 0.135161,0.2039626 0.135161,0.3263626 v 3.0769225 c 0,0.1224072 -0.048615,0.2398359 -0.135161,0.3263826 -0.086546,0.086544 -0.2039764,0.1351569 -0.3263846,0.1351569 -0.1224072,0 -0.2397775,-0.048615 -0.3263263,-0.1351569 C 7.5870465,8.9264809 7.538431,8.8090451 7.538431,8.6866436 V 5.6097211 c 0,-0.1224067 0.048615,-0.2398036 0.1352194,-0.3263626 0.086547,-0.086541 0.2039201,-0.1351754 0.3263263,-0.1351754 z M 9.8461569,6.071258 c 0.1224094,0 0.2397831,0.048636 0.3263271,0.1351764 0.08655,0.086544 0.135222,0.2039405 0.135222,0.3263549 v 1.2307718 c 0,0.1224497 -0.04865,0.2398199 -0.135222,0.3263656 -0.08655,0.086543 -0.2039198,0.1352215 -0.3263271,0.1352215 -0.1224071,0 -0.2398315,-0.048677 -0.3263792,-0.1352215 C 9.4332319,8.0033819 9.3846157,7.8860108 9.3846157,7.7635611 V 6.5327893 c 0,-0.1224052 0.048615,-0.2398011 0.135162,-0.3263549 0.086545,-0.08657 0.2039744,-0.1351764 0.3263792,-0.1351764 z m -3.6923254,0 c 0.1224107,0 0.2397964,0.048636 0.326356,0.1351764 0.086552,0.086544 0.1351798,0.2039405 0.1351798,0.3263549 v 1.2307718 c 0,0.1224497 -0.048626,0.2398199 -0.1351798,0.3263656 -0.086558,0.086543 -0.2039453,0.1352215 -0.326356,0.1352215 -0.1224077,0 -0.2398026,-0.048677 -0.32636,-0.1352215 C 5.7409195,8.0033821 5.6922936,7.8860108 5.6922936,7.7635611 V 6.5327893 c 0,-0.1224052 0.048626,-0.2398011 0.1351779,-0.3263549 0.086557,-0.08657 0.2039521,-0.1351764 0.32636,-0.1351764 z"
     id="path2"
     style="opacity:1;fill:url(#linearGradient4);stroke-width:0.439566" />
</svg>
