<?xml version="1.0" encoding="UTF-8" standalone="no"?>
<svg
   width="16"
   height="16"
   version="1.1"
   id="svg5"
   sodipodi:docname="spyder.svg"
   inkscape:version="1.4.4 (unknown)"
   xmlns:inkscape="http://www.inkscape.org/namespaces/inkscape"
   xmlns:sodipodi="http://sodipodi.sourceforge.net/DTD/sodipodi-0.dtd"
   xmlns:xlink="http://www.w3.org/1999/xlink"
   xmlns="http://www.w3.org/2000/svg"
   xmlns:svg="http://www.w3.org/2000/svg">
  <defs
     id="defs5">
    <linearGradient
       id="linearGradient3"
       inkscape:collect="always">
      <stop
         style="stop-color:#c83771;stop-opacity:1;"
         offset="0"
         id="stop3" />
      <stop
         style="stop-color:#ffcc00;stop-opacity:1;"
         offset="1"
         id="stop4" />
    </linearGradient>
    <linearGradient
       id="linearGradient1"
       inkscape:collect="always">
      <stop
         style="stop-color:#c83771;stop-opacity:1;"
         offset="0"
         id="stop1" />
      <stop
         style="stop-color:#ffcc00;stop-opacity:1"
         offset="1"
         id="stop2" />
    </linearGradient>
    <linearGradient
       inkscape:collect="always"
       xlink:href="#linearGradient1"
       id="linearGradient2"
       x1="9.3927355"
       y1="30.999992"
       x2="52.607136"
       y2="30.999992"
       gradientUnits="userSpaceOnUse" />
    <linearGradient
       inkscape:collect="always"
       xlink:href="#linearGradient3"
       id="linearGradient4"
       x1="8.6427355"
       y1="30.999992"
       x2="53.357136"
       y2="30.999992"
       gradientUnits="userSpaceOnUse" />
    <linearGradient
       inkscape:collect="always"
       xlink:href="#linearGradient3"
       id="linearGradient5"
       gradientUnits="userSpaceOnUse"
       x1="8.6427355"
       y1="30.999992"
       x2="53.357136"
       y2="30.999992" />
    <linearGradient
       inkscape:collect="always"
       xlink:href="#linearGradient1"
       id="linearGradient6"
       gradientUnits="userSpaceOnUse"
       x1="9.3927355"
       y1="30.999992"
       x2="52.607136"
       y2="30.999992" />
    <linearGradient
       inkscape:collect="always"
       xlink:href="#linearGradient3"
       id="linearGradient7"
       gradientUnits="userSpaceOnUse"
       x1="8.6427355"
       y1="30.999992"
       x2="53.357136"
       y2="30.999992" />
    <linearGradient
       inkscape:collect="always"
       xlink:href="#linearGradient1"
       id="linearGradient8"
       gradientUnits="userSpaceOnUse"
       x1="9.3927355"
       y1="30.999992"
       x2="52.607136"
       y2="30.999992" />
  </defs>
  <sodipodi:namedview
     id="namedview5"
     pagecolor="#ffffff"
     bordercolor="#000000"
     borderopacity="0.25"
     inkscape:showpageshadow="2"
     inkscape:pageopacity="0.0"
     inkscape:pagecheckerboard="0"
     inkscape:deskcolor="#d1d1d1"
     inkscape:zoom="17.125242"
     inkscape:cx="15.123874"
     inkscape:cy="7.1531834"
     inkscape:window-width="1920"
     inkscape:window-height="994"
     inkscape:window-x="0"
     inkscape:window-y="0"
     inkscape:window-maximized="1"
     inkscape:current-layer="svg5" />
  <g
     id="g8"
     transform="matrix(0.28439846,0,0,0.28439846,-0.8163338,-0.81635024)">
    <g
       id="g1"
       style="fill:url(#linearGradient4);stroke:url(#linearGradient2);stroke-width:1.5;stroke-dasharray:none">
      <path
         style="opacity:0.1;fill:url(#linearGradient5);stroke:url(#linearGradient6);stroke-width:1.5;stroke-dasharray:none"
         class="a"
         d="m 16.837572,9.8771878 c -1.208707,-4.97e-4 -2.398636,0.2942072 -3.468193,0.8577362 -1.260132,0.667144 -2.304656,1.678801 -3.013559,2.916661 -0.135643,0.251399 -0.252762,0.486037 -0.36831,0.734925 -0.06528,0.170952 -0.137883,0.339331 -0.195659,0.502739 -0.118124,0.339771 -0.207806,0.68928 -0.268552,1.04386 -0.089592,0.45961 -0.1331671,0.92674 -0.1304431,1.39501 v 28.333878 c -0.00344,1.118037 0.2488731,2.221668 0.7366071,3.227517 1.241296,2.57876 3.848118,4.217308 6.708109,4.215735 h 15.706614 c 0.221957,-2e-6 0.42009,-0.180804 0.42009,-0.402958 V 50.60114 c 2e-6,-0.222149 -0.198127,-0.443258 -0.42009,-0.44326 H 29.992913 L 24.138424,38.62554 37.495179,20.906795 c 0.116463,-0.155639 0.201855,-0.333884 0.251291,-0.521929 l 11.916149,1.876639 v 2.962722 c 0.0014,0.221167 0.210619,0.399125 0.431605,0.399122 h 2.110074 c 0.220427,-0.0014 0.4001,-0.178521 0.402835,-0.399122 v -7.896108 c 0.0014,-2.247284 -1.016288,-4.373256 -2.766112,-5.781523 -1.322709,-1.080054 -2.977284,-1.6698502 -4.684365,-1.6694082 z m 0,2.9377742 h 0.01532 5.438232 l 0.389405,2.826482 -7.229871,-1.10526 -2.280798,-0.353076 c 0.913477,-1.078074 2.255339,-1.37001 3.667686,-1.368146 z m 17.598001,0 0.633026,4.720395 -9.89624,-1.508224 -0.446955,-3.19298 z m 2.418909,0 h 7.901266 c 2.884441,0.007 4.894754,2.015812 4.903036,4.902684 v 2.099237 L 37.533541,17.911451 Z m -23.548398,3.830045 9.040694,1.387338 -5.046904,6.712169 z m 11.737754,1.799891 10.112999,1.548521 -12.209644,16.212441 -4.458009,-9.049345 6.554654,-8.69627 z m -12.704552,1.020833 2.904226,6.556738 -2.904226,0.397206 z m 31.963752,8.095663 c -4.724593,0 -9.374471,0.687796 -9.374471,5.731633 v 0.961353 c 0,2.520636 0.83943,5.179464 4.241245,6.554824 l 6.681253,2.488754 c 2.032224,0.866635 2.827494,1.738915 2.827494,3.068257 v 0.550716 c 0,1.971005 -1.370669,2.258497 -4.903042,2.258497 H 35.60379 c -0.38713,-0.05913 -0.718803,0.21611 -0.661794,0.617875 l -0.002,2.212442 c 0,0.36557 0.134111,0.641588 0.663719,0.685029 0.751303,0.09207 4.238832,0.414475 8.081576,0.414475 5.966143,0 8.921813,-1.001283 8.921813,-6.134591 v -0.512334 c 0,-2.520641 -0.35137,-4.859842 -4.415806,-6.462723 l -5.875576,-2.431189 c -2.162775,-0.825731 -3.4586,-1.930122 -3.4586,-3.208334 V 33.76123 c 0,-1.651456 1.913617,-2.270007 3.945838,-2.270007 h 8.200503 c 0.386351,0.05675 0.676177,-0.203486 0.621513,-0.604444 V 28.72039 c 0.0311,-0.382088 -0.208357,-0.716065 -0.577392,-0.734925 -2.242706,-0.283637 -4.485252,-0.425051 -6.744558,-0.424071 z m -27.937355,0.742599 4.521312,9.149126 -8.547709,1.118693 V 28.854709 Z M 22.003417,39.746155 27.30353,50.15788 H 17.240407 c -2.88583,-0.007 -4.892834,-2.010575 -4.901121,-4.898847 v -4.25603 z"
         id="path2" />
      <path
         style="fill:url(#linearGradient7);stroke:url(#linearGradient8);stroke-width:1.5;stroke-dasharray:none"
         class="b"
         d="M 49.841567,10.564027 C 48.518858,9.4839648 46.864017,8.8942936 45.156936,8.8947363 H 16.838147 c -1.208706,-4.969e-4 -2.399333,0.2937435 -3.468882,0.8572715 -1.260132,0.6671522 -2.305332,1.6783652 -3.014245,2.9162242 -0.135641,0.251399 -0.251182,0.487715 -0.366733,0.736603 -0.06528,0.170952 -0.13815,0.339388 -0.195925,0.502796 -0.118123,0.339772 -0.208015,0.688726 -0.268769,1.043306 -0.089592,0.459611 -0.1333419,0.926998 -0.1306172,1.395262 v 28.332669 c -0.00344,1.118044 0.2482432,2.222107 0.7359782,3.227962 1.241295,2.578756 3.849203,4.217533 6.709193,4.215965 h 15.705181 c 0.221967,-2e-6 0.420948,-0.180087 0.420948,-0.40224 v -2.102323 c 2e-6,-0.222148 -0.198975,-0.442801 -0.420948,-0.442803 H 29.992792 L 24.137631,37.642212 37.495742,19.923607 c 0.116463,-0.15564 0.201754,-0.332343 0.251183,-0.520389 l 11.915037,1.875436 v 2.962602 c 0.0014,0.221166 0.211743,0.399724 0.432735,0.39972 h 2.110536 c 0.220422,-0.0014 0.399163,-0.17912 0.401898,-0.39972 v -7.895057 c 0.0014,-2.247279 -1.01574,-4.373906 -2.765564,-5.782172 z m -15.40528,1.268016 0.632988,4.720304 -9.89675,-1.508392 -0.447117,-3.191792 z m -17.583069,0 h 5.438193 l 0.389342,2.827275 -7.229155,-1.106159 -2.280776,-0.351955 c 0.913479,-1.078077 2.254978,-1.371024 3.667325,-1.369161 z m 5.493451,5.218077 -5.046334,6.71235 -3.993869,-8.100069 z m -10.007383,1.432978 2.903824,6.556485 -2.903824,0.397201 z m 0,9.389747 4.026633,-0.550566 4.521356,9.148414 -8.547989,1.118722 z M 27.302587,49.175429 H 17.240045 c -2.88583,-0.007 -4.892472,-2.010531 -4.900759,-4.898795 v -4.256188 l 9.663259,-1.256994 z m -4.35558,-13.951674 -4.458565,-9.050364 6.555977,-8.695895 v -0.01506 l 10.112772,1.548612 z M 49.659447,18.835051 37.533421,16.929448 36.855215,11.832043 h 7.899824 c 2.88444,0.007 4.896126,2.016951 4.904408,4.903831 z"
         id="path3" />
    </g>
    <path
       style="fill:#c83771;fill-opacity:1;stroke-width:0.982302"
       class="a"
       d="m 51.047287,27.390606 c 0.369039,0.0189 0.608814,0.351606 0.577689,0.733695 v 2.166584 c 0.05464,0.400958 -0.235678,0.661916 -0.622027,0.60517 h -8.199753 c -2.032221,0 -3.946074,0.618073 -3.946074,2.269524 v 0.595651 c 0,1.278212 1.295575,2.38259 3.458349,3.208321 l 5.874956,2.43116 c 4.064442,1.602882 4.416691,3.942019 4.416691,6.46266 v 0.511286 c 0,5.133308 -2.955954,6.135431 -8.922057,6.135431 -3.842745,0 -7.33077,-0.32211 -8.082074,-0.414143 -0.529609,-0.04342 -0.662627,-0.319551 -0.662627,-0.68512 l 9.66e-4,-2.213596 c -0.05702,-0.401764 0.275502,-0.67613 0.662625,-0.616968 h 8.170755 c 3.532365,0 4.903841,-0.288284 4.903841,-2.259289 v -0.549634 c 0,-1.329342 -0.79603,-2.201084 -2.828253,-3.06772 L 39.170349,40.213661 C 35.768534,38.838302 34.928555,36.17961 34.928555,33.658967 v -0.96121 c 0,-5.043838 4.650191,-5.731516 9.374791,-5.731516 2.259306,-9.88e-4 4.501232,0.140722 6.743941,0.424365 z"
       id="path4" />
  </g>
</svg>
