<?xml version="1.0" encoding="UTF-8" standalone="no"?>
<svg
   width="16"
   height="16"
   viewBox="0 0 16 16.000001"
   fill="none"
   version="1.1"
   id="svg8"
   sodipodi:docname="sqldeveloper.svg"
   inkscape:version="1.4.4 (unknown)"
   xmlns:inkscape="http://www.inkscape.org/namespaces/inkscape"
   xmlns:sodipodi="http://sodipodi.sourceforge.net/DTD/sodipodi-0.dtd"
   xmlns:xlink="http://www.w3.org/1999/xlink"
   xmlns="http://www.w3.org/2000/svg"
   xmlns:svg="http://www.w3.org/2000/svg">
  <sodipodi:namedview
     id="namedview8"
     pagecolor="#ffffff"
     bordercolor="#000000"
     borderopacity="0.25"
     inkscape:showpageshadow="2"
     inkscape:pageopacity="0.0"
     inkscape:pagecheckerboard="0"
     inkscape:deskcolor="#d1d1d1"
     inkscape:zoom="19.164557"
     inkscape:cx="11.322985"
     inkscape:cy="7.0703435"
     inkscape:window-width="1920"
     inkscape:window-height="994"
     inkscape:window-x="0"
     inkscape:window-y="0"
     inkscape:window-maximized="1"
     inkscape:current-layer="svg8" />
  <g
     id="g8"
     transform="translate(-0.0645043,-3.4999998)">
    <path
       d="m 4.8570251,15.172007 v 0.946435 c 0,0.796661 2.2011959,1.443109 4.916771,1.443109 2.7155749,0 4.9167619,-0.646448 4.9167619,-1.443109 v -2.88657 m 0,0 c 0,0.797099 -3.302131,1.457841 -6.0177063,1.457841 m 6.0177063,-1.457841 v -2.736516 m -5.4477232,0.993683 c 2.7155752,0 5.4477232,-0.635452 5.4477232,-1.432114 V 6.8815406 m 0,0 c 0,0.7969943 -2.201275,1.4430746 -4.9167619,1.4430746 -2.7154523,0 -4.916771,-0.6460891 -4.916771,-1.4430833 0,-0.7969943 2.2013187,-1.4430833 4.916771,-1.4430833 2.7154869,0 4.9167619,0.6460978 4.9167619,1.443092 z"
       stroke-width="0.876897"
       id="path1"
       style="stroke:url(#linearGradient15);stroke-opacity:1" />
    <path
       d="m 2.4233461,8.2445194 h -0.00239 l -0.00239,2.63e-5 C 2.2916537,8.2459312 2.1657225,8.2709315 2.0477711,8.3186698 1.9297934,8.3664256 1.8213738,8.4363143 1.7293154,8.5254509 1.6372052,8.6146401 1.5632118,8.7214637 1.5128174,8.8404587 1.4628,8.958568 1.4373332,9.0856567 1.4384881,9.2143325 v 5.2871985 c -0.00115,0.128641 0.024312,0.255791 0.074329,0.373909 0.050394,0.118995 0.124387,0.225801 0.216498,0.314982 0.092058,0.08909 0.200478,0.158981 0.3184557,0.206772 0.1179514,0.0477 0.2438826,0.07278 0.370796,0.0741 l 0.00239,8.7e-5 h 0.00239 5.4632007 0.00239 l 0.00239,-8.7e-5 c 0.1269046,-0.0013 0.2528445,-0.0264 0.3707872,-0.0741 0.1179865,-0.04779 0.2264061,-0.11768 0.3184627,-0.206772 0.092109,-0.08918 0.1661019,-0.195987 0.2164972,-0.314982 0.050009,-0.118118 0.075483,-0.24518 0.074326,-0.373909 V 9.214315 C 8.8725563,9.0856391 8.8470824,8.9585592 8.797073,8.8404587 8.7466777,8.7214637 8.6726851,8.6146401 8.5805758,8.5254509 8.4885192,8.4363143 8.3800996,8.3664256 8.2621131,8.3186698 8.1441704,8.2709315 8.0182305,8.2459312 7.8913259,8.2445457 l -0.00239,-2.63e-5 h -0.00239 z"
       stroke="url(#paint1_linear)"
       stroke-width="0.876897"
       id="path2"
       style="stroke:url(#linearGradient13);stroke-opacity:1" />
    <path
       d="m 5.9010325,12.838811 c 0,-0.169846 -0.059945,-0.299723 -0.1798341,-0.38964 C 5.6013178,12.357255 5.3855134,12.261348 5.0738028,12.161444 4.7620922,12.059531 4.5153246,11.959626 4.3334912,11.86172 3.8379566,11.593968 3.5901893,11.233301 3.5901893,10.779725 c 0,-0.23578 0.065934,-0.445586 0.1978105,-0.62941 C 3.9218757,9.964483 4.1126972,9.8196196 4.3604733,9.715716 4.6102399,9.6118125 4.8899789,9.5598651 5.1996902,9.5598651 c 0.3117106,0 0.5894502,0.056946 0.8332188,0.1708371 0.2437774,0.1119008 0.4325997,0.2707508 0.5664756,0.4765588 0.1048418,0.158806 0.1692324,0.334264 0.1931804,0.526384 0.011978,0.09612 -0.067889,0.174958 -0.1647514,0.174958 H 6.0794109 c -0.096862,0 -0.1721788,-0.07962 -0.1937943,-0.174047 -0.027035,-0.1181 -0.08384,-0.214945 -0.1704074,-0.290516 -0.1258873,-0.1119 -0.3027224,-0.167846 -0.5305052,-0.167846 -0.2197943,0 -0.3906401,0.04696 -0.5125201,0.140873 -0.1218887,0.09191 -0.182833,0.213796 -0.182833,0.365657 0,0.141865 0.070932,0.260755 0.2127966,0.35667 0.1438725,0.09591 0.3546698,0.185823 0.6324182,0.269742 0.5115204,0.15386 0.8841754,0.344682 1.1179562,0.572473 0.2337807,0.227783 0.3506711,0.511521 0.3506711,0.851204 0,0.377645 -0.1428641,0.674405 -0.428601,0.890121 -0.2857281,0.213875 -0.6703703,0.320769 -1.1539265,0.320769 -0.335685,0 -0.6413976,-0.06094 -0.9171467,-0.182833 C 4.0277785,13.736965 3.8169725,13.568162 3.6711094,13.354374 3.557823,13.185966 3.4891357,12.996539 3.4650649,12.786049 3.454051,12.689818 3.5338311,12.61102 3.6306932,12.61102 h 0.5514017 c 0.096862,0 0.1728802,0.07926 0.1897956,0.174634 0.064759,0.365131 0.3476809,0.547675 0.848775,0.547675 0.2138051,0 0.3806523,-0.04294 0.5005329,-0.12886 0.1198894,-0.08792 0.1798341,-0.209807 0.1798341,-0.365658 z"
       id="path3"
       style="fill:url(#linearGradient11);fill-opacity:1" />
  </g>
  <defs
     id="defs8">
    <linearGradient
       id="linearGradient10"
       inkscape:collect="always">
      <stop
         style="stop-color:#0072ff;stop-opacity:1;"
         offset="0"
         id="stop10" />
      <stop
         style="stop-color:#00ff66;stop-opacity:1"
         offset="1"
         id="stop11" />
    </linearGradient>
    <linearGradient
       id="paint0_linear"
       x1="101.055"
       y1="148.25"
       x2="101.055"
       y2="10"
       gradientUnits="userSpaceOnUse"
       gradientTransform="matrix(0.08768971,0,0,0.08768971,0.91231208,4.5615514)"
       xlink:href="#paint2_linear">
      <stop
         stop-color="#00B59C"
         id="stop3" />
      <stop
         offset="1"
         stop-color="#9CFFAC"
         id="stop4" />
    </linearGradient>
    <linearGradient
       id="paint1_linear"
       x1="48.382301"
       y1="124.414"
       x2="48.382301"
       y2="42"
       gradientUnits="userSpaceOnUse"
       gradientTransform="matrix(0.08768971,0,0,0.08768971,0.91231208,4.5615514)">
      <stop
         stop-color="#00B59C"
         id="stop5" />
      <stop
         offset="1"
         stop-color="#9CFFAC"
         id="stop6" />
    </linearGradient>
    <linearGradient
       id="paint2_linear"
       x1="34.591202"
       y1="100.645"
       x2="69.257698"
       y2="74.761101"
       gradientUnits="userSpaceOnUse"
       gradientTransform="matrix(0.08768971,0,0,0.08768971,0.91231208,4.5615514)">
      <stop
         stop-color="#0072FF"
         id="stop7" />
      <stop
         offset="1"
         stop-color="#00E5A1"
         id="stop8" />
    </linearGradient>
    <linearGradient
       inkscape:collect="always"
       xlink:href="#linearGradient10"
       id="linearGradient11"
       x1="3.4640458"
       y1="11.801784"
       x2="6.803193"
       y2="11.801784"
       gradientUnits="userSpaceOnUse" />
    <linearGradient
       inkscape:collect="always"
       xlink:href="#linearGradient10"
       id="linearGradient13"
       x1="1.0000021"
       y1="11.85795"
       x2="9.3098869"
       y2="11.85795"
       gradientUnits="userSpaceOnUse" />
    <linearGradient
       inkscape:collect="always"
       xlink:href="#linearGradient10"
       id="linearGradient15"
       x1="4.4185767"
       y1="11.5"
       x2="15.129006"
       y2="11.5"
       gradientUnits="userSpaceOnUse" />
  </defs>
</svg>
