<?xml version="1.0" encoding="UTF-8" standalone="no"?>
<svg
   width="16"
   height="16"
   version="1.1"
   id="svg7"
   sodipodi:docname="kali-database-assessment-trans.svg"
   inkscape:version="1.4.4 (unknown)"
   xmlns:inkscape="http://www.inkscape.org/namespaces/inkscape"
   xmlns:sodipodi="http://sodipodi.sourceforge.net/DTD/sodipodi-0.dtd"
   xmlns="http://www.w3.org/2000/svg"
   xmlns:svg="http://www.w3.org/2000/svg">
  <defs
     id="defs7" />
  <sodipodi:namedview
     id="namedview7"
     pagecolor="#ffffff"
     bordercolor="#000000"
     borderopacity="0.25"
     inkscape:showpageshadow="2"
     inkscape:pageopacity="0.0"
     inkscape:pagecheckerboard="0"
     inkscape:deskcolor="#d1d1d1"
     inkscape:zoom="24.21875"
     inkscape:cx="8.3819355"
     inkscape:cy="12.20129"
     inkscape:window-width="1920"
     inkscape:window-height="994"
     inkscape:window-x="0"
     inkscape:window-y="0"
     inkscape:window-maximized="1"
     inkscape:current-layer="svg7" />
  <g
     id="g1"
     transform="translate(-1.8839288,-1.5000002)">
    <g
       id="g7"
       transform="matrix(0.22799745,0,0,0.22807018,2.5880104,2.0877193)">
      <path
         style="opacity:0.2"
         d="M 32,33 A 28,14 0 0 0 3.9999998,47 28,14 0 0 0 32,61 28,14 0 0 0 60,47 28,14 0 0 0 32,33 Z"
         id="path1" />
      <path
         style="fill:#3b506c;fill-opacity:1"
         d="M 32,32 A 28,14 0 0 0 3.9999998,46 28,14 0 0 0 32,60 28,14 0 0 0 60,46 28,14 0 0 0 32,32 Z"
         id="path2" />
      <path
         style="opacity:0.2"
         d="M 32,19 A 28,14 0 0 0 3.9999998,33 28,14 0 0 0 32,47 28,14 0 0 0 60,33 28,14 0 0 0 32,19 Z"
         id="path3" />
      <path
         style="fill:#55749e;fill-opacity:1"
         d="M 32,18 A 28,14 0 0 0 3.9999998,32 28,14 0 0 0 32,46 28,14 0 0 0 60,32 28,14 0 0 0 32,18 Z"
         id="path4" />
      <path
         style="opacity:0.2"
         d="M 32,5 A 28,14 0 0 0 3.9999998,19 28,14 0 0 0 32,33 28,14 0 0 0 60,19 28,14 0 0 0 32,5 Z"
         id="path5" />
      <path
         style="fill:#c6d1e0;fill-opacity:1"
         d="M 32,4 A 28,14 0 0 0 3.9999998,18 28,14 0 0 0 32,32 28,14 0 0 0 60,18 28,14 0 0 0 32,4 Z"
         id="path6" />
      <path
         style="opacity:0.2;fill:#ffffff"
         d="M 32,4 A 28,14 0 0 0 4,18 28,14 0 0 0 4.0410156,18.410156 28,14 0 0 1 32,5 28,14 0 0 1 59.953125,18.537109 28,14 0 0 0 60,18 28,14 0 0 0 32,4 Z"
         id="path7" />
    </g>
    <path
       id="path37"
       d="M 11.356798,3.5812217 C 7.9764976,3.5775074 7.0671523,7.4276888 7.1994653,9.6352464 7.5554998,9.9346968 7.8261273,10.295434 8.0688974,10.623207 7.8270487,10.33211 7.4960817,10.110187 7.1692914,9.8683035 7.1432963,10.08512 7.1242645,10.287072 7.1126599,10.468599 c 0.4809072,0.361203 0.9404931,1.043677 0.9404931,1.043677 0,0 -0.03435,-0.04364 -0.1754637,-0.191275 -0.1253291,-0.130927 -0.6526597,-0.512555 -0.7770586,-0.601691 -0.012071,0.405775 0.021352,0.672726 0.09748,0.726116 0.1471501,0.103078 0.3207539,0.295274 0.4906553,0.51116 0.3829622,0.486549 0.7468844,1.097023 0.7468844,1.097023 0.3170424,0.941107 0.6294435,1.841327 1.3507689,2.596161 L 10.044974,15.59174 C 9.6401993,15.140005 9.2595623,14.512352 9.0330594,13.762958 8.6858431,12.61759 8.4588489,11.184432 8.6422095,9.6379138 9.0442025,7.2817234 10.055187,5.2723722 11.252848,4.1893002 10.197239,5.2765837 9.1361023,8.2080024 8.9392997,9.5627199 c -0.206103,1.2503061 -0.090522,2.3051251 0.01579,3.3789841 0.1081579,-1.042711 1.4872943,-1.711295 1.4872943,-1.711295 0,0 0.499938,-0.741436 1.02683,-1.7684154 -0.690257,0.2302755 -1.348488,0.4874789 -1.9696051,0.8259304 0,0 1.1265921,-0.7897198 2.1751811,-1.2400405 0.952075,-1.9801336 1.785261,-4.7039577 -0.317051,-5.4695836"
       fill="#24abeb"
       stroke-width="0.464228"
       style="fill:#aa87de" />
  </g>
</svg>
