<?xml version="1.0" encoding="UTF-8" standalone="no"?>
<svg
   width="16"
   height="16"
   version="1.1"
   viewBox="0 0 16 16"
   xml:space="preserve"
   id="svg5"
   sodipodi:docname="steam_icon_440.svg"
   inkscape:version="1.4.4 (unknown)"
   xmlns:inkscape="http://www.inkscape.org/namespaces/inkscape"
   xmlns:sodipodi="http://sodipodi.sourceforge.net/DTD/sodipodi-0.dtd"
   xmlns:xlink="http://www.w3.org/1999/xlink"
   xmlns="http://www.w3.org/2000/svg"
   xmlns:svg="http://www.w3.org/2000/svg"><sodipodi:namedview
     id="namedview5"
     pagecolor="#ffffff"
     bordercolor="#000000"
     borderopacity="0.25"
     inkscape:showpageshadow="2"
     inkscape:pageopacity="0.0"
     inkscape:pagecheckerboard="0"
     inkscape:deskcolor="#d1d1d1"
     inkscape:zoom="16.822222"
     inkscape:rotation="1"
     inkscape:cx="10.364259"
     inkscape:cy="6.2104213"
     inkscape:window-width="1920"
     inkscape:window-height="994"
     inkscape:window-x="0"
     inkscape:window-y="0"
     inkscape:window-maximized="1"
     inkscape:current-layer="svg5" /><defs
     id="defs5"><linearGradient
       id="linearGradient5"
       inkscape:collect="always"><stop
         style="stop-color:#00ccff;stop-opacity:1"
         offset="0"
         id="stop6" /><stop
         style="stop-color:#d38d5f;stop-opacity:1"
         offset="1"
         id="stop7" /></linearGradient><linearGradient
       id="linearGradient2"
       x1="-492.10501"
       x2="-75.536499"
       y1="-213.464"
       y2="158.47501"
       gradientTransform="matrix(0.03611112,0,0,0.03611112,18.376749,8.711954)"
       gradientUnits="userSpaceOnUse"><stop
         stop-color="#ffdf0d"
         offset="0"
         id="stop1" /><stop
         stop-color="#f39c0c"
         offset=".270159"
         id="stop2" /><stop
         stop-color="#9d5321"
         offset="1"
         id="stop3" /></linearGradient><linearGradient
       id="linearGradient10"
       x1="70.5755"
       x2="296.78699"
       y1="178.149"
       y2="178.149"
       gradientTransform="matrix(0.03749165,0.0012345,-0.0012345,0.03749165,1.3332605,1.0784063)"
       gradientUnits="userSpaceOnUse"><stop
         stop-color="#ffcf11"
         offset="0"
         id="stop4" /><stop
         stop-color="#9d5321"
         offset="1"
         id="stop5" /></linearGradient><linearGradient
       inkscape:collect="always"
       xlink:href="#linearGradient5"
       id="linearGradient7"
       x1="2.9988482"
       y1="2.8889728"
       x2="13.318166"
       y2="12.431819"
       gradientUnits="userSpaceOnUse" /><linearGradient
       inkscape:collect="always"
       xlink:href="#linearGradient5"
       id="linearGradient8"
       gradientUnits="userSpaceOnUse"
       x1="2.9988482"
       y1="2.8889728"
       x2="8"
       y2="8" /></defs><g
     id="g5"
     style="fill:url(#linearGradient7)"><path
       id="frame"
       d="M 6.3147319,8.2770319 C 6.4244086,8.9649524 6.8754076,9.33178 7.1904591,9.4848983 7.079724,10.332307 6.9662755,11.06377 6.8249206,11.91023 5.2239846,11.563877 3.8660982,9.7302951 3.9509701,7.9046396 Z M 7.5847095,6.4407308 C 6.8893754,6.6270429 6.7045551,6.8943587 6.5076447,7.1671241 L 4.0765754,6.7759323 C 4.3851406,5.315223 6.175473,3.7642179 7.9597848,3.8873496 Z M 9.5961386,7.6874889 C 9.3842584,6.987529 9.0402729,6.8103209 8.7569234,6.6192967 8.8708334,5.7611448 8.9913539,4.9032096 9.1362816,4.046076 10.75723,4.4002051 12.13838,6.2137002 12.048658,8.0628243 Z M 8.3250777,9.6266417 C 9.0618385,9.4799291 9.2920397,9.0741018 9.474018,8.7821326 c 0.84825,0.1216085 1.543563,0.2283035 2.39048,0.3806112 -0.461781,1.6257302 -2.060919,3.0250212 -3.8910812,2.9169982 z"
       style="fill:url(#linearGradient7)" /><path
       d="m 2.6818195,5.6655839 c 0,0.3261817 -0.2647274,0.590908 -0.5909079,0.590908 -0.3261806,0 -0.590908,-0.2647274 -0.590908,-0.590908 V 2.9772735 C 1.5000036,2.1618193 2.161823,1.5 2.9772771,1.5 h 4.6021818 c 0.3261813,0 0.590908,0.2647274 0.590908,0.5909152 0,0.3261877 -0.2647274,0.5909043 -0.590908,0.5909043 H 3.5681634 c -0.4892732,0 -0.8863656,0.3970923 -0.8863656,0.8863655 z M 10.189972,2.6818195 c -0.3261821,0 -0.5909084,-0.2647274 -0.5909084,-0.590908 0,-0.3261805 0.2647274,-0.5909079 0.5909084,-0.5909079 h 2.832755 C 13.838181,1.5000036 14.5,2.161823 14.5,2.9772771 V 7.61557 c 0,0.3261817 -0.264727,0.590908 -0.590908,0.590908 -0.326182,0 -0.590908,-0.2647274 -0.590908,-0.590908 V 3.5681634 c 0,-0.4892732 -0.397092,-0.8863656 -0.886365,-0.8863656 z m 3.128209,7.5442635 c 0,-0.3261819 0.264727,-0.5909082 0.590907,-0.5909082 0.326182,0 0.590908,0.2647273 0.590908,0.5909082 v 2.796644 c 0,0.815454 -0.661819,1.477273 -1.477273,1.477273 H 8.4004994 c -0.326182,0 -0.5909079,-0.264727 -0.5909079,-0.590908 0,-0.326182 0.2647274,-0.590908 0.5909079,-0.590908 h 4.0313016 c 0.489273,0 0.886365,-0.397092 0.886365,-0.886365 z m -7.5623193,3.092098 c 0.3261813,0 0.590908,0.264727 0.590908,0.590907 0,0.326182 -0.2647274,0.590908 -0.590908,0.590908 H 2.9772735 C 2.1618194,14.499996 1.5,13.838177 1.5,13.022723 V 8.3483188 c 0,-0.3261816 0.2647274,-0.5909079 0.5909079,-0.5909079 0.3261806,0 0.590908,0.2647274 0.590908,0.5909079 v 4.0835182 c 0,0.489273 0.3970923,0.886365 0.8863655,0.886365 z"
       id="path5"
       style="fill:url(#linearGradient8)" /></g></svg>
