<?xml version="1.0" encoding="UTF-8" standalone="no"?>
<!-- Generator: Gravit.io -->

<svg
   style="isolation:isolate"
   viewBox="0 0 16 16"
   width="16"
   height="16"
   version="1.1"
   id="svg2"
   sodipodi:docname="stoplight.svg"
   inkscape:version="1.4.4 (unknown)"
   xmlns:inkscape="http://www.inkscape.org/namespaces/inkscape"
   xmlns:sodipodi="http://sodipodi.sourceforge.net/DTD/sodipodi-0.dtd"
   xmlns:xlink="http://www.w3.org/1999/xlink"
   xmlns="http://www.w3.org/2000/svg"
   xmlns:svg="http://www.w3.org/2000/svg">
  <defs
     id="defs2">
    <linearGradient
       id="linearGradient2"
       inkscape:collect="always">
      <stop
         style="stop-color:#5555ff;stop-opacity:1"
         offset="0"
         id="stop3" />
      <stop
         style="stop-color:#ff9955;stop-opacity:1"
         offset="1"
         id="stop4" />
    </linearGradient>
    <linearGradient
       inkscape:collect="always"
       xlink:href="#linearGradient2"
       id="linearGradient4"
       x1="3.459681"
       y1="14.5"
       x2="12.540319"
       y2="1.5"
       gradientUnits="userSpaceOnUse" />
  </defs>
  <sodipodi:namedview
     id="namedview2"
     pagecolor="#ffffff"
     bordercolor="#000000"
     borderopacity="0.25"
     inkscape:showpageshadow="2"
     inkscape:pageopacity="0.0"
     inkscape:pagecheckerboard="0"
     inkscape:deskcolor="#d1d1d1"
     inkscape:document-units="px"
     inkscape:zoom="23.65625"
     inkscape:cx="10.652576"
     inkscape:cy="7.0805812"
     inkscape:window-width="1920"
     inkscape:window-height="994"
     inkscape:window-x="0"
     inkscape:window-y="0"
     inkscape:window-maximized="1"
     inkscape:current-layer="svg2" />
  <linearGradient
     id="_lgradient_30"
     x1="0.061897106"
     y1="0.14716151"
     x2="0.99042481"
     y2="0.98658085"
     gradientTransform="matrix(9.0806381,0,0,13,3.459681,1.5)"
     gradientUnits="userSpaceOnUse">
    <stop
       offset="0%"
       stop-opacity="1"
       style="stop-color:rgb(22,181,228)"
       id="stop1" />
    <stop
       offset="98.26086956521739%"
       stop-opacity="1"
       style="stop-color:rgb(245,32,250)"
       id="stop2" />
  </linearGradient>
  <path
     d="M 7.638766,3.6961702 H 4.2894682 c -0.4580425,0 -0.8297872,0.3717447 -0.8297872,0.8297872 v 4.6965958 c 0,0.4580425 0.3717447,0.8297868 0.8297872,0.8297868 h 5.8942558 c 0.15268,0 0.276595,0.123915 0.276595,0.276596 v 2.34 c 0,0.152681 -0.123915,0.276596 -0.276595,0.276596 H 5.8439363 c -0.1526808,0 -0.2765957,-0.123915 -0.2765957,-0.276596 V 11.25 v 0 c 0,-0.305362 -0.2478298,-0.553191 -0.5531915,-0.553191 v 0 c -0.3053617,0 -0.5531915,0.247829 -0.5531915,0.553191 v 0 1.972128 c 0,0.458042 0.3717447,0.829787 0.8297872,0.829787 H 6.513851 v 0.171489 c 0,0.152681 0.123915,0.276596 0.276596,0.276596 h 0.446702 c 0.152681,0 0.276596,-0.123915 0.276596,-0.276596 v -0.171489 h 0.999893 v 0 0 0 0.171489 c 0,0.152681 0.123915,0.276596 0.276596,0.276596 h 0.446979 c 0.152681,0 0.276596,-0.123915 0.276596,-0.276596 v -0.171489 h 1.223106 c 0.458043,0 0.829787,-0.371745 0.829787,-0.829787 V 9.7757447 c 0,-0.4580426 -0.371744,-0.8297873 -0.829787,-0.8297873 H 4.8426597 c -0.1526808,0 -0.2765957,-0.1239148 -0.2765957,-0.2765957 V 5.0791489 c 0,-0.1526808 0.1239149,-0.2765957 0.2765957,-0.2765957 h 6.3146813 c 0.15268,0 0.276595,0.1239149 0.276595,0.2765957 v 2.4202128 0 c 0,0.3053617 0.24783,0.5531915 0.553192,0.5531915 v 0 c 0.305362,0 0.553191,-0.2478298 0.553191,-0.5531915 v 0 -2.9734043 c 0,-0.4580425 -0.371744,-0.8297872 -0.829787,-0.8297872 H 8.388617 V 3.165383 C 8.478237,3.122511 8.560383,3.0644255 8.631192,2.9925106 8.796319,2.8298723 8.888702,2.6074894 8.888702,2.3748723 c 0,-0.2323404 -0.09238,-0.455 -0.25751,-0.6173617 C 8.46883,1.592383 8.24617,1.5 8.01383,1.5 7.781213,1.5 7.55883,1.592383 7.396192,1.7575106 7.231341,1.9198723 7.138681,2.1425319 7.138681,2.3748723 v 0 0 c 0,0.2326171 0.09266,0.455 0.257511,0.6176383 0.07081,0.071915 0.152957,0.13 0.242574,0.1728724 z M 6.040319,5.973383 h 0.946788 c 0.15268,0 0.276595,0.1239149 0.276595,0.2765957 v 0.4467022 c 0,0.1526808 -0.123915,0.2765957 -0.276595,0.2765957 H 6.040319 c -0.152681,0 -0.2765954,-0.1239149 -0.2765954,-0.2765957 V 6.2499787 c 0,-0.1526808 0.1239144,-0.2765957 0.2765954,-0.2765957 z m 2.999958,0 h 0.946787 c 0.152681,0 0.276596,0.1239149 0.276596,0.2765957 v 0.4467022 c 0,0.1526808 -0.123915,0.2765957 -0.276596,0.2765957 H 9.040277 c -0.152681,0 -0.276596,-0.1239149 -0.276596,-0.2765957 V 6.2499787 c 0,-0.1526808 0.123915,-0.2765957 0.276596,-0.2765957 z M 7.638766,2.3748723 c 0,-0.099851 0.03983,-0.195 0.110085,-0.2649787 0.06998,-0.069979 0.164851,-0.1098085 0.264979,-0.1098085 0.09985,0 0.195,0.03983 0.264979,0.1098085 0.06998,0.069979 0.109808,0.1651277 0.109808,0.2649787 0,0.1001277 -0.03983,0.195 -0.109808,0.2652554 -0.06998,0.069979 -0.165128,0.1098085 -0.264979,0.1098085 -0.100128,0 -0.195,-0.03983 -0.264979,-0.1098085 C 7.678596,2.5698723 7.638766,2.475 7.638766,2.3748723 Z"
     fill-rule="evenodd"
     id="path2"
     style="fill:url(#linearGradient4)" />
</svg>
