<?xml version="1.0" encoding="UTF-8" standalone="no"?>
<svg
   width="16"
   height="16"
   version="1.1"
   id="svg5"
   sodipodi:docname="SuperSlicer.svg"
   inkscape:version="1.4.4 (unknown)"
   xmlns:inkscape="http://www.inkscape.org/namespaces/inkscape"
   xmlns:sodipodi="http://sodipodi.sourceforge.net/DTD/sodipodi-0.dtd"
   xmlns="http://www.w3.org/2000/svg"
   xmlns:svg="http://www.w3.org/2000/svg">
  <defs
     id="defs5" />
  <sodipodi:namedview
     id="namedview5"
     pagecolor="#ffffff"
     bordercolor="#000000"
     borderopacity="0.25"
     inkscape:showpageshadow="2"
     inkscape:pageopacity="0.0"
     inkscape:pagecheckerboard="0"
     inkscape:deskcolor="#d1d1d1"
     inkscape:zoom="17.125242"
     inkscape:cx="10.043653"
     inkscape:cy="15.737004"
     inkscape:window-width="1920"
     inkscape:window-height="994"
     inkscape:window-x="0"
     inkscape:window-y="0"
     inkscape:window-maximized="1"
     inkscape:current-layer="svg5" />
  <g
     id="g1"
     transform="matrix(0.3227353,0,0,0.3227353,-2.001316,-2.0047925)">
    <path
       style="opacity:0.1;stroke-width:0.982303"
       d="m 32.939345,11.842554 c -4.266266,0 -8.532024,1.628767 -11.787631,4.885415 -6.511213,6.513289 -6.511213,17.069491 0,23.58278 L 44.726975,16.727969 C 41.471367,13.471321 37.205611,11.842554 32.939345,11.842554 Z M 40.827178,22.672591 17.25,46.255372 c 6.511213,6.513289 17.065966,6.513289 23.577178,0 6.511213,-6.513289 6.511213,-17.069491 0,-23.582781 z"
       id="path2" />
    <path
       fill="#363636"
       d="m 44.727547,15.744617 c -6.511212,-6.513289 -17.065068,-6.513289 -23.57628,0 -6.511213,6.513289 -6.511213,17.070509 0,23.583799 z"
       id="path3"
       style="fill:#00ccff;fill-opacity:1;stroke-width:0.982303" />
    <path
       fill="#248afd"
       d="m 17.25,45.27292 c 6.511213,6.513289 17.065069,6.513289 23.576281,0 6.511213,-6.513289 6.511213,-17.070508 0,-23.5838"
       id="path4"
       style="fill:#8d5fd3;stroke-width:0.982303" />
  </g>
</svg>
