<?xml version="1.0" encoding="UTF-8" standalone="no"?>
<!-- Generator: Gravit.io -->

<svg
   style="isolation:isolate"
   viewBox="0 0 16 16"
   width="16"
   height="16"
   version="1.1"
   id="svg2"
   sodipodi:docname="surfshark.svg"
   inkscape:version="1.4.4 (unknown)"
   xmlns:inkscape="http://www.inkscape.org/namespaces/inkscape"
   xmlns:sodipodi="http://sodipodi.sourceforge.net/DTD/sodipodi-0.dtd"
   xmlns="http://www.w3.org/2000/svg"
   xmlns:svg="http://www.w3.org/2000/svg">
  <defs
     id="defs2" />
  <sodipodi:namedview
     id="namedview2"
     pagecolor="#ffffff"
     bordercolor="#000000"
     borderopacity="0.25"
     inkscape:showpageshadow="2"
     inkscape:pageopacity="0.0"
     inkscape:pagecheckerboard="0"
     inkscape:deskcolor="#d1d1d1"
     inkscape:document-units="px"
     inkscape:zoom="16.727495"
     inkscape:cx="9.8639995"
     inkscape:cy="12.046036"
     inkscape:window-width="1920"
     inkscape:window-height="994"
     inkscape:window-x="0"
     inkscape:window-y="0"
     inkscape:window-maximized="1"
     inkscape:current-layer="svg2" />
  <linearGradient
     id="_lgradient_1"
     x1="8.0843402e-06"
     y1="0.99998915"
     x2="0.83781993"
     y2="0.27021605"
     gradientTransform="matrix(10.725151,0,0,13.000126,2.6373835,1.5000024)"
     gradientUnits="userSpaceOnUse">
    <stop
       offset="28.000000000000004%"
       stop-opacity="1"
       style="stop-color:#ffd42a;stop-opacity:1"
       id="stop1" />
    <stop
       offset="94%"
       stop-opacity="1"
       style="stop-color:rgb(32,134,215)"
       id="stop2" />
  </linearGradient>
  <path
     d="m 9.9454688,4.4989064 c 0.1213322,0 0.2199142,0.098311 0.2199142,0.2196434 v 0.691159 c 0,0.1251236 -0.101561,0.2264141 -0.2264142,0.2264141 v 0 c -0.749929,0 -1.357943,0.6080141 -1.357943,1.3579432 v 0.8972608 c 0,1.3953178 -1.1309877,2.5263051 -2.5263054,2.5263051 v 0 c -0.121332,0 -0.2199143,-0.09831 -0.2199143,-0.219643 V 9.5068297 c 0,-0.1251236 0.1015614,-0.2264141 0.2264142,-0.2264141 v 0 c 0.7499291,0 1.3579432,-0.6080141 1.3579432,-1.3579432 V 7.0252116 c 0,-1.3953178 1.1309873,-2.5263052 2.5263053,-2.5263052 z M 6.9844808,2.3558261 10.981936,2.3124933 h 0.01896 c 0.354787,0.00271 0.696033,0.1408318 0.950614,0.3872874 0.257289,0.2464556 0.408954,0.5822851 0.425203,0.9370729 l 0.173332,4.5689073 v 0.064999 c 0,0.2004144 -0.0325,0.4008288 -0.09479,0.59041 -0.06771,0.2112477 -0.15979,0.4143704 -0.276247,0.6012433 -0.116457,0.1868729 -0.25458,0.3602043 -0.41437,0.5118693 C 11.623806,10.115114 11.4586,10.231571 11.28256,10.318237 l -6.5378459,3.168715 c 0,0 -0.00271,0 -0.00271,0 -0.1299985,0.065 -0.268122,0.116457 -0.4089537,0.154373 -0.1056239,0.02979 -0.213956,0.04604 -0.3222881,0.04604 -0.083957,0 -0.1679148,-0.01354 -0.2491639,-0.04604 -0.056874,-0.02437 -0.1083321,-0.06229 -0.151665,-0.108332 -0.051458,-0.05958 -0.089374,-0.129999 -0.1110404,-0.205831 -0.035208,-0.116457 -0.051458,-0.235623 -0.048749,-0.357496 0,-0.148957 0.01625,-0.300622 0.048749,-0.449579 0,0 0,0 0,-0.0027 L 5.2917914,3.7533106 C 5.3324159,3.5664377 5.4055401,3.3876897 5.5084556,3.2251915 5.6167877,3.0572767 5.7522029,2.9029034 5.9092845,2.7756132 6.0636578,2.6483229 6.2369892,2.5426991 6.4265704,2.4695749 6.6026101,2.399159 6.7921913,2.3612428 6.9844808,2.3558261 Z M 6.9736476,1.5433352 10.97652,1.5000024 h 0.02167 c 0,0 0,0 0.0027,0 0.563327,0.00271 1.107695,0.2220808 1.513941,0.6147848 0.408954,0.3899957 0.649993,0.9262397 0.671659,1.4895667 0,0 0,0 0,0.00271 l 0.17604,4.574324 v 0.078541 c 0,0.00542 0,0.00812 0,0.010833 0,0.2843718 -0.04604,0.5660353 -0.132707,0.8368656 -0.08667,0.2762469 -0.208539,0.536244 -0.360204,0.7826996 -0.151665,0.2437469 -0.330413,0.4685369 -0.538953,0.6689509 -0.203122,0.197706 -0.436036,0.362913 -0.690617,0.487495 0,0.0027 -0.0027,0.0027 -0.0027,0.0027 l -6.5378472,3.16871 c -0.1760397,0.08667 -0.3629126,0.157082 -0.5524938,0.20854 -0.1706231,0.04604 -0.3493711,0.07042 -0.5254108,0.07312 -0.1949978,0.0027 -0.3872873,-0.0325 -0.5660353,-0.105624 C 3.2795222,14.321109 3.1224406,14.20736 2.9951503,14.06382 2.8705684,13.917572 2.7757778,13.746949 2.7216117,13.562784 c -0.059583,-0.194998 -0.086666,-0.398121 -0.083957,-0.601243 0,-0.203123 0.021666,-0.408954 0.064999,-0.60666 l 1.795605,-8.7667769 c 0,0 0,0 0,0 C 4.5578412,3.3037323 4.6688817,3.032902 4.8232549,2.7891547 4.9776282,2.5481157 5.1699177,2.3314514 5.3919986,2.1499951 5.6113711,1.9658305 5.860535,1.8195821 6.1259487,1.7139583 6.3940707,1.6083345 6.6811509,1.5487518 6.9709393,1.5460435 c 0.00271,0 0.00271,-0.00271 0.00271,-0.00271 z"
     fill-rule="evenodd"
     fill="url(#_lgradient_1)"
     id="path2"
     style="fill:url(#_lgradient_1);stroke-width:0.27083" />
</svg>
