<?xml version="1.0" encoding="UTF-8" standalone="no"?>
<!-- Generator: Gravit.io -->

<svg
   style="isolation:isolate"
   viewBox="0 0 16 16"
   width="16"
   height="16"
   version="1.1"
   id="svg2"
   sodipodi:docname="martchus.syncthingplasmoid.svg"
   inkscape:version="1.4.4 (unknown)"
   xmlns:inkscape="http://www.inkscape.org/namespaces/inkscape"
   xmlns:sodipodi="http://sodipodi.sourceforge.net/DTD/sodipodi-0.dtd"
   xmlns="http://www.w3.org/2000/svg"
   xmlns:svg="http://www.w3.org/2000/svg">
  <defs
     id="defs2" />
  <sodipodi:namedview
     id="namedview2"
     pagecolor="#ffffff"
     bordercolor="#000000"
     borderopacity="0.25"
     inkscape:showpageshadow="2"
     inkscape:pageopacity="0.0"
     inkscape:pagecheckerboard="0"
     inkscape:deskcolor="#d1d1d1"
     inkscape:document-units="px"
     inkscape:zoom="33.45499"
     inkscape:cx="9.8341086"
     inkscape:cy="8.5936359"
     inkscape:window-width="1920"
     inkscape:window-height="994"
     inkscape:window-x="0"
     inkscape:window-y="0"
     inkscape:window-maximized="1"
     inkscape:current-layer="svg2" />
  <linearGradient
     id="_lgradient_9"
     x1="0"
     y1="0.5"
     x2="1"
     y2="0.5"
     gradientTransform="matrix(13.618937,0,0,13,1.1905335,1.4999999)"
     gradientUnits="userSpaceOnUse">
    <stop
       offset="0%"
       stop-opacity="1"
       style="stop-color:rgb(0,255,255)"
       id="stop1" />
    <stop
       offset="98.26086956521739%"
       stop-opacity="1"
       style="stop-color:rgb(165,83,168)"
       id="stop2" />
  </linearGradient>
  <path
     d="m 9.6058777,9.8014666 c -0.1161957,0.03622 -0.2396354,0.055635 -0.3677114,0.055635 -0.4798502,0 -0.8959522,-0.2732481 -1.101685,-0.6725437 L 3.613835,9.5963132 C 3.4602598,10.10514 2.9873639,10.476039 2.4286977,10.476039 c -0.6832649,0 -1.2381642,-0.5546099 -1.2381642,-1.2378749 0,-0.6832649 0.5548993,-1.2381642 1.2381642,-1.2381642 0.48014,0 0.8965318,0.2738276 1.1019749,0.6737027 v 0 0 0 0 L 8.0524495,8.2619471 v 0 0 C 8.205735,7.7525409 8.6789206,7.3810627 9.2381663,7.3810627 c 0.3007757,0 0.5763419,0.1072129 0.7910577,0.2859976 v 0 l 2.333475,-1.2546808 c -0.01913,-0.08664 -0.02927,-0.1770461 -0.02927,-0.2694811 v 0 0 0 0 0 0 c 0,-0.6832649 0.554608,-1.2381642 1.237874,-1.2381642 0.683265,0 1.238163,0.5548993 1.238163,1.2381642 0,0.683265 -0.554899,1.2381643 -1.238163,1.2381643 -0.249487,0 -0.481879,-0.07418 -0.676311,-0.2013864 l -2.4262,1.3042305 c 0.0049,0.044334 0.0072,0.089537 0.0072,0.1350303 0,0.2155849 -0.05505,0.4181304 -0.151836,0.594597 l 1.331759,1.6278979 c 0.116194,-0.03622 0.239635,-0.05564 0.367711,-0.05564 0.683555,0 1.238163,0.55461 1.238163,1.237875 0,0.683554 -0.554608,1.238164 -1.238163,1.238164 -0.683266,0 -1.237874,-0.55461 -1.237874,-1.238164 v 0 0 0 0 0 0 0 0 c 0,-0.215296 0.05505,-0.417841 0.151835,-0.594308 z M 2.8836282,6.7618357 v 0 C 2.8033634,7.0933264 2.468975,7.2973207 2.137774,7.2170559 v 0 C 1.8062833,7.1365013 1.602289,6.8024027 1.6825538,6.470912 v 0 C 2.0230273,5.0533835 2.8340784,3.7934869 3.9792282,2.889711 5.1246678,1.9891226 6.5421963,1.4999999 8.0000021,1.4999999 c 1.8260967,0 3.5687419,0.7707739 4.7976319,2.1173101 v 0 c 0.230653,0.2526747 0.213267,0.6444365 -0.03883,0.8742199 v 0 c -0.251805,0.2297833 -0.643567,0.2123974 -0.87422,-0.038539 v 0 C 10.887797,3.3602888 9.4763529,2.7381641 8.0000021,2.7381641 c -1.179342,0 -2.3276792,0.3961083 -3.2531874,1.1266049 C 3.8184089,4.5920782 3.162092,5.6134985 2.8836282,6.7618357 Z m 7.1035797,6.1099773 v 0 c 0.3175821,-0.128076 0.6803681,0.02463 0.8093131,0.340473 v 0 c 0.128945,0.316133 -0.02289,0.678049 -0.339025,0.807864 v 0 C 9.6777393,14.335993 8.8417683,14.5 8.0000021,14.5 5.9632466,14.5 4.0412379,13.5403 2.8123461,11.915589 v 0 C 2.6074825,11.642052 2.662248,11.253187 2.9346268,11.047165 v 0 c 0.2726685,-0.205733 0.6600838,-0.150968 0.8652371,0.12228 v 0 c 0.9936029,1.315532 2.5505082,2.092391 4.2001382,2.092391 0.6809469,0 1.3587063,-0.133002 1.9872058,-0.390023 z M 13.249379,8.3682907 v 0 c 0.02405,-0.3398939 0.320189,-0.5972049 0.660953,-0.5740237 v 0 c 0.340763,0.022891 0.598074,0.3190309 0.574023,0.6606634 v 0 c -0.04317,0.6438569 -0.185739,1.2784415 -0.41784,1.8820216 v 0 c -0.12286,0.317582 -0.481299,0.475793 -0.80004,0.352643 v 0 c -0.318452,-0.12286 -0.477243,-0.480719 -0.354384,-0.7983014 v 0 c 0.188927,-0.4891227 0.300198,-0.9999777 0.337288,-1.5230029 z"
     fill-rule="evenodd"
     fill="url(#_lgradient_9)"
     id="path2"
     style="fill:url(#_lgradient_9);stroke-width:0.289765" />
</svg>
