<?xml version="1.0" encoding="UTF-8" standalone="no"?>
<!-- Generator: Gravit.io -->

<svg
   style="isolation:isolate"
   viewBox="0 0 16 16"
   width="16"
   height="16"
   version="1.1"
   id="svg4"
   sodipodi:docname="tagstudio.svg"
   inkscape:version="1.4.4 (unknown)"
   xmlns:inkscape="http://www.inkscape.org/namespaces/inkscape"
   xmlns:sodipodi="http://sodipodi.sourceforge.net/DTD/sodipodi-0.dtd"
   xmlns:xlink="http://www.w3.org/1999/xlink"
   xmlns="http://www.w3.org/2000/svg"
   xmlns:svg="http://www.w3.org/2000/svg">
  <defs
     id="defs4">
    <linearGradient
       id="linearGradient4"
       inkscape:collect="always">
      <stop
         style="stop-color:#ffdd55;stop-opacity:1"
         offset="0"
         id="stop5" />
      <stop
         style="stop-color:#8d5fd3;stop-opacity:1"
         offset="0.52034485"
         id="stop7" />
      <stop
         style="stop-color:#ffb380;stop-opacity:1"
         offset="1"
         id="stop6" />
    </linearGradient>
    <linearGradient
       inkscape:collect="always"
       xlink:href="#linearGradient4"
       id="linearGradient6"
       x1="2.7138529"
       y1="13.622192"
       x2="13.07405"
       y2="3.839386"
       gradientUnits="userSpaceOnUse" />
  </defs>
  <sodipodi:namedview
     id="namedview4"
     pagecolor="#ffffff"
     bordercolor="#000000"
     borderopacity="0.25"
     inkscape:showpageshadow="2"
     inkscape:pageopacity="0.0"
     inkscape:pagecheckerboard="0"
     inkscape:deskcolor="#d1d1d1"
     inkscape:document-units="px"
     inkscape:zoom="23.65625"
     inkscape:cx="8.0739762"
     inkscape:cy="2.8533686"
     inkscape:window-width="1920"
     inkscape:window-height="994"
     inkscape:window-x="0"
     inkscape:window-y="0"
     inkscape:window-maximized="1"
     inkscape:current-layer="svg4" />
  <linearGradient
     id="_lgradient_5"
     x1="0.069216751"
     y1="0.049546223"
     x2="0.83243328"
     y2="0.79309225"
     gradientTransform="matrix(1.2967297,12.409543,-12.409543,1.2967297,13.643106,1.360753)"
     gradientUnits="userSpaceOnUse">
    <stop
       offset="0%"
       stop-opacity="1"
       style="stop-color:rgb(198,42,255)"
       id="stop1" />
    <stop
       offset="48.333333333333336%"
       stop-opacity="1"
       style="stop-color:rgb(14,207,252)"
       id="stop2" />
    <stop
       offset="99.58333333333333%"
       stop-opacity="1"
       style="stop-color:rgb(64,255,196)"
       id="stop3" />
    <stop
       offset="100%"
       stop-opacity="1"
       style="stop-color:rgb(0,0,0)"
       id="stop4" />
  </linearGradient>
  <path
     d="m 11.166456,3.6805585 c 0.171848,-0.017958 0.345563,0.032327 0.480729,0.1419168 0.135163,0.1095891 0.220274,0.2691561 0.238232,0.4410046 0.01795,0.1718482 -0.03232,0.3455634 -0.141917,0.480728 -0.109589,0.1351646 -0.269156,0.2202757 -0.441004,0.2382329 -0.171849,0.017957 -0.345564,-0.032328 -0.480728,-0.1419169 -0.135165,-0.1095892 -0.220276,-0.269156 -0.238233,-0.4410044 -0.01796,-0.1718486 0.03233,-0.3455634 0.141917,-0.4807283 0.109589,-0.1351645 0.269156,-0.2202756 0.441004,-0.2382327 z m 0.04254,4.8077347 -3.1542767,3.8907018 c -0.090936,0.112159 -0.2560143,0.129408 -0.3681722,0.03845 L 7.0762905,11.922683 C 6.9641327,11.831748 6.9468828,11.66667 7.0378186,11.554511 L 10.192383,7.6640422 c 0.09093,-0.1121578 0.255754,-0.1293804 0.368172,-0.038472 l 0.609967,0.4945506 c 0.112185,0.091196 0.129407,0.2560142 0.03847,0.3681722 z M 9.7710718,7.3224504 7.5494692,10.062815 c -0.090936,0.112158 -0.2560144,0.129407 -0.3681724,0.03847 L 6.5710427,9.6065032 C 6.4588848,9.5155674 6.441635,9.3504887 6.5325706,9.2383309 L 8.754461,6.4981996 C 8.8453972,6.3860418 9.010215,6.3688191 9.1226333,6.4597278 l 0.6099665,0.4945504 c 0.112185,0.091196 0.1294077,0.2560144 0.038472,0.3681722 z M 11.084832,2.8994292 c 0.38015,-0.039723 0.760458,0.073204 1.056669,0.3133672 0.296212,0.2401635 0.48532,0.5889099 0.525046,0.9690596 0.03972,0.3801496 -0.07322,0.7604572 -0.313368,1.0566693 C 12.113016,5.5347371 11.764267,5.7238465 11.38412,5.7635702 11.00397,5.8032937 10.623662,5.6903665 10.32745,5.4502029 10.031238,5.2100393 9.8421289,4.8612929 9.8024053,4.4811432 9.7626817,4.1009936 9.875609,3.7206859 10.115773,3.4244741 10.355936,3.128262 10.704683,2.9391526 11.084832,2.8994292 Z m 1.946024,4.5925109 -4.9944684,6.1600579 c -0.027981,0.0345 -0.067736,0.05709 -0.1119997,0.06173 -0.044265,0.0048 -0.087826,-0.0091 -0.1223393,-0.03721 L 2.8009566,9.6216837 c -0.034509,-0.027981 -0.057095,-0.067736 -0.061718,-0.1119994 -0.0046,-0.044263 0.00925,-0.087826 0.037233,-0.1223395 L 7.7709392,3.2272875 C 7.9341571,3.0259784 8.1700874,2.8907727 8.426772,2.8534219 l 3.850265,-0.5602635 0.03905,-0.00408 c 0.166642,-0.017413 0.334877,0.030812 0.46662,0.1328621 0.127083,0.1078017 0.209044,0.2624331 0.226457,0.429074 l 0.0043,0.039057 0.24781,3.8829148 c 0.0165,0.2588611 -0.06699,0.517646 -0.230207,0.7189553 z m 0.609951,0.496921 -4.9947406,6.1574539 c 0,0 0,0 0,0 -0.1582826,0.198161 -0.3900938,0.322408 -0.6400551,0.348528 -0.2499612,0.02612 -0.5024505,-0.04752 -0.69828,-0.20868 0,0 0,0 0,0 l -5.0010919,-4.0548 c 0,0 0,0 0,0 C 2.1084779,10.07308 1.984231,9.8412689 1.9581114,9.5913077 1.9319918,9.3413463 2.005632,9.088857 2.1667906,8.8930275 c 0,0 0,0 0,0 L 7.1586566,2.7332423 C 7.4477855,2.3766376 7.8604209,2.1440014 8.314175,2.0781612 l 3.857804,-0.5636835 0.04947,-0.00517 c 0.0027,-2.723e-4 0.0054,-5.446e-4 0.0054,-5.446e-4 0.377269,-0.042055 0.7547,0.068541 1.050369,0.3034968 0.291004,0.2407077 0.477239,0.5871225 0.514085,0.9649404 0,0 2.72e-4,0.00261 5.45e-4,0.00521 l 0.0054,0.04947 0.246022,3.8909986 c 0.02933,0.4575633 -0.112956,0.909378 -0.402085,1.2659825 z M 8.0727734,6.1838156 6.5438873,8.0695066 C 6.4529788,8.1819247 6.2879,8.1991744 6.175715,8.1079785 L 5.5657486,7.613428 C 5.4533301,7.5225194 5.4360804,7.3574407 5.5272765,7.2452557 L 7.0561627,5.3595649 C 7.1470979,5.2474071 7.3119167,5.2301843 7.424335,5.321093 l 0.6099665,0.4945505 c 0.1121849,0.091197 0.1294077,0.2560144 0.038472,0.3681721 z"
     fill-rule="evenodd"
     id="path4"
     style="fill:url(#linearGradient6)" />
</svg>
