<?xml version="1.0" encoding="UTF-8" standalone="no"?>
<svg
   width="16"
   height="16"
   version="1.1"
   id="svg1"
   sodipodi:docname="tauonmb.svg"
   inkscape:version="1.4.4 (unknown)"
   xmlns:inkscape="http://www.inkscape.org/namespaces/inkscape"
   xmlns:sodipodi="http://sodipodi.sourceforge.net/DTD/sodipodi-0.dtd"
   xmlns:xlink="http://www.w3.org/1999/xlink"
   xmlns="http://www.w3.org/2000/svg"
   xmlns:svg="http://www.w3.org/2000/svg">
  <sodipodi:namedview
     id="namedview1"
     pagecolor="#ffffff"
     bordercolor="#000000"
     borderopacity="0.25"
     inkscape:showpageshadow="2"
     inkscape:pageopacity="0.0"
     inkscape:pagecheckerboard="0"
     inkscape:deskcolor="#d1d1d1"
     inkscape:zoom="16.727495"
     inkscape:cx="6.8749086"
     inkscape:cy="7.2037086"
     inkscape:window-width="1920"
     inkscape:window-height="994"
     inkscape:window-x="0"
     inkscape:window-y="0"
     inkscape:window-maximized="1"
     inkscape:current-layer="svg1" />
  <defs
     id="defs1">
    <linearGradient
       id="linearGradient1"
       inkscape:collect="always">
      <stop
         style="stop-color:#0066ff;stop-opacity:1"
         offset="0"
         id="stop1" />
      <stop
         style="stop-color:#8d5fd3;stop-opacity:1"
         offset="1"
         id="stop2" />
    </linearGradient>
    <style
       id="current-color-scheme"
       type="text/css">
   .ColorScheme-Text { color:#444444; } .ColorScheme-Highlight { color:#4285f4; } .ColorScheme-NeutralText { color:#ff9800; } .ColorScheme-PositiveText { color:#4caf50; } .ColorScheme-NegativeText { color:#f44336; }
  </style>
    <linearGradient
       inkscape:collect="always"
       xlink:href="#linearGradient1"
       id="linearGradient2"
       x1="2.985065"
       y1="12.13555"
       x2="8.7912846"
       y2="6.5803356"
       gradientUnits="userSpaceOnUse" />
  </defs>
  <path
     d="M 6.4924061,4.2310561 C 4.950593,4.8472209 3.9389163,6.3396251 3.9375,8 h 1.625 C 5.5626923,7.0031882 6.1698115,6.1069418 7.0954439,5.737025 Z M 10.4375,8 c -2.58e-4,0.9967534 -0.6073657,1.8929199 -1.5329439,2.262815 l 0.6030378,1.506372 C 11.049489,11.152989 12.061183,9.6604636 12.0625,8 Z M 9.625,8 C 9.625,8.8974627 8.8974627,9.625 8,9.625 7.1025373,9.625 6.375,8.8974627 6.375,8 6.375,7.1025373 7.1025373,6.375 8,6.375 8.8974627,6.375 9.625,7.1025373 9.625,8 Z M 8,1.5 C 4.4101491,1.5 1.5,4.4101491 1.5,8 c 0,3.589851 2.9101491,6.5 6.5,6.5 3.589851,0 6.5,-2.910149 6.5,-6.5 C 14.5,4.4101491 11.589851,1.5 8,1.5 Z m 0,1.025 c 2.692388,0 5.475,2.7826118 5.475,5.475 0,2.692388 -2.782612,5.475 -5.475,5.475 C 5.3076118,13.475 2.525,10.692388 2.525,8 2.525,5.3076118 5.3076118,2.525 8,2.525 Z"
     id="path1"
     sodipodi:nodetypes="ccccccccccsssssssssssssss"
     style="fill:url(#linearGradient2)" />
</svg>
