<?xml version="1.0" encoding="UTF-8" standalone="no"?>
<!-- Generator: Gravit.io -->

<svg
   style="isolation:isolate"
   viewBox="0 0 16 16"
   width="16"
   height="16"
   version="1.1"
   id="svg2"
   sodipodi:docname="com.teamspeak.TeamSpeak.svg"
   inkscape:version="1.4.4 (unknown)"
   xmlns:inkscape="http://www.inkscape.org/namespaces/inkscape"
   xmlns:sodipodi="http://sodipodi.sourceforge.net/DTD/sodipodi-0.dtd"
   xmlns:xlink="http://www.w3.org/1999/xlink"
   xmlns="http://www.w3.org/2000/svg"
   xmlns:svg="http://www.w3.org/2000/svg">
  <defs
     id="defs2">
    <linearGradient
       id="linearGradient2"
       inkscape:collect="always">
      <stop
         style="stop-color:#00ccff;stop-opacity:1"
         offset="0"
         id="stop3" />
      <stop
         style="stop-color:#8d5fd3;stop-opacity:1"
         offset="1"
         id="stop4" />
    </linearGradient>
    <linearGradient
       inkscape:collect="always"
       xlink:href="#linearGradient2"
       id="linearGradient4"
       x1="3.7631176"
       y1="12.928452"
       x2="9.4696169"
       y2="6.8163805"
       gradientUnits="userSpaceOnUse" />
  </defs>
  <sodipodi:namedview
     id="namedview2"
     pagecolor="#ffffff"
     bordercolor="#000000"
     borderopacity="0.25"
     inkscape:showpageshadow="2"
     inkscape:pageopacity="0.0"
     inkscape:pagecheckerboard="0"
     inkscape:deskcolor="#d1d1d1"
     inkscape:document-units="px"
     inkscape:zoom="23.65625"
     inkscape:cx="7.3553501"
     inkscape:cy="8.2219287"
     inkscape:window-width="1920"
     inkscape:window-height="994"
     inkscape:window-x="0"
     inkscape:window-y="0"
     inkscape:window-maximized="1"
     inkscape:current-layer="svg2" />
  <linearGradient
     id="_lgradient_11"
     x1="-3.8208334e-05"
     y1="0.50000006"
     x2="0.99996185"
     y2="0.50000006"
     gradientTransform="matrix(13,0,0,13,1.5,1.5)"
     gradientUnits="userSpaceOnUse">
    <stop
       offset="0%"
       stop-opacity="1"
       style="stop-color:rgb(0,198,255)"
       id="stop1" />
    <stop
       offset="98.69565217391305%"
       stop-opacity="1"
       style="stop-color:rgb(0,114,255)"
       id="stop2" />
  </linearGradient>
  <path
     d="m 9.6845833,2.8514583 v 0 c 0.2841042,0.092625 0.5898747,-0.062563 0.6824997,-0.3466666 v 0 c 0.09262,-0.2841042 -0.06256,-0.589875 -0.346666,-0.6825 v 0 C 9.3704167,1.6083333 8.690625,1.5 8.008125,1.5 5.7466667,1.5 3.6395833,2.6754167 2.45875,4.60375 1.833125,5.6220833 1.5,6.7975 1.5,7.991875 1.5,10.253333 2.6754167,12.360417 4.60375,13.54125 5.6220833,14.166875 6.7947917,14.5 7.991875,14.5 c 2.261458,0 4.368542,-1.175417 5.549375,-3.10375 C 14.166875,10.377917 14.5,9.2052083 14.5,8.008125 c 0,-1.5275 -0.53625,-3.0089583 -1.513958,-4.1816667 v 0 C 12.793208,3.597875 12.450333,3.5675417 12.220938,3.75875 v 0 C 11.991542,3.9499583 11.96175,4.2922917 12.154583,4.5225 v 0 c 0.815209,0.9777083 1.262084,2.21 1.262084,3.485625 0,0.9939583 -0.27625,1.9716667 -0.798959,2.822083 -0.985833,1.606042 -2.740833,2.586459 -4.625833,2.586459 -0.9966667,0 -1.9716667,-0.27625 -2.8220833,-0.798959 C 3.56375,11.631875 2.5833333,9.876875 2.5833333,7.991875 c 0,-0.9939583 0.27625,-1.9716667 0.7989584,-2.8220833 C 4.368125,3.56375 6.123125,2.5833333 8.008125,2.5833333 c 0.56875,0 1.1347917,0.089375 1.6764583,0.268125 z M 3.9507708,8.2337292 C 3.9640417,8.10725 3.9375,7.961 3.9640417,7.8079792 4.004125,7.5617917 4.1436042,7.3689583 4.36325,7.2625208 4.4166042,7.2359792 4.4431458,7.2091667 4.4564167,7.1360417 4.5495833,6.6038542 4.7689583,6.1114792 5.0885417,5.6724583 5.1283542,5.619375 5.1548958,5.5925625 5.1018125,5.5194375 5.0484583,5.4395417 5.0885417,5.3531458 5.141625,5.2865208 5.5939167,4.780875 6.1261042,4.4084792 6.7582292,4.2021042 8.2751667,3.7232708 9.6055,4.0490833 10.756542,5.1735833 c 0.106437,0.1064375 0.246187,0.2061042 0.106437,0.3856667 -0.02654,0.026813 0.01327,0.053354 0.03981,0.079896 0.326084,0.4525625 0.545729,0.9579375 0.645396,1.5036667 0.01327,0.053083 0.05335,0.079625 0.09317,0.1064375 0.272729,0.13975 0.412479,0.3723958 0.412479,0.6852083 0,0.2727292 0.02654,0.5454584 -0.01327,0.8181875 -0.06663,0.3992082 -0.465838,0.6719373 -0.851504,0.5855415 C 11.082625,9.311375 11.036042,9.23175 11.036042,9.1185417 c 0,-0.4522917 0.01327,-0.9048542 0,-1.3571459 C 10.995958,6.544 10.463771,5.625875 9.4058958,5.0403333 7.6630833,4.0823958 5.4010833,5.1668125 5.0219167,7.1493125 c -0.066625,0.3393542 -0.053354,0.6984792 -0.053354,1.0378333 0,0.3260834 0,0.6453959 -0.013271,0.9714792 0,0.1064375 -0.066354,0.1795625 -0.1928334,0.1795625 C 4.2635833,9.3647292 3.9375,9.0521875 3.9375,8.5465417 3.9507708,8.4666458 3.9507708,8.3667083 3.9507708,8.2337292 Z M 7.3852083,9.8625208 C 7.5582708,9.8018542 7.686375,9.6864792 7.7248333,9.4985208 7.7632917,9.3102917 7.5390417,9.0494792 7.237875,8.7764792 6.9239792,8.4912917 6.5139375,8.1876875 6.2896875,8.0785417 5.9630625,7.8905833 5.6553958,8.0544375 5.5914792,8.4184375 c -0.076917,0.4002917 0,0.7764792 0.22425,1.1104167 0.1600625,0.2364375 0.3843125,0.339625 0.65975,0.364 0.1538333,-0.00623 0.7753958,0.024104 0.9097291,-0.030333 z m 1.4004792,-0.046313 c 0.1885,0.026 0.3645417,0.065271 0.5530417,0.078271 0.2491666,0.013 0.4376666,-0.065271 0.5776875,-0.2283125 C 10.092458,9.464125 10.177771,9.2098125 10.165583,8.9425 10.153396,8.6621875 9.9405208,8.4991458 9.6547917,8.5514167 9.3934375,8.5904167 9.1686458,8.7144583 8.9313958,8.8057292 8.7187917,8.897 8.5302917,9.0077708 8.3783542,9.1510417 c -0.212875,0.2153125 -0.097229,0.508625 0.2369791,0.6193958 0.042521,0.019771 0.1034584,0.032771 0.1703542,0.04577 z M 11.070979,9.6434167 c -0.03981,-0.038187 -0.105896,-0.012729 -0.139208,0.038458 -0.125667,0.383771 -0.708229,1.669688 -2.694521,1.804021 -2.3437917,0.159791 1.25125,0.645937 2.277438,-0.08965 0.351,-0.262167 0.748312,-0.524604 0.735041,-1.279417 0,-0.1470622 -0.07285,-0.3964997 -0.17875,-0.4734163 z"
     fill-rule="evenodd"
     id="path2"
     style="fill:url(#linearGradient4)" />
</svg>
