<?xml version="1.0" encoding="UTF-8" standalone="no"?>
<!-- Generator: Gravit.io -->

<svg
   style="isolation:isolate"
   viewBox="0 0 16 16"
   width="16"
   height="16"
   version="1.1"
   id="svg2"
   sodipodi:docname="lutris_terraria.svg"
   inkscape:version="1.4.4 (unknown)"
   xmlns:inkscape="http://www.inkscape.org/namespaces/inkscape"
   xmlns:sodipodi="http://sodipodi.sourceforge.net/DTD/sodipodi-0.dtd"
   xmlns:xlink="http://www.w3.org/1999/xlink"
   xmlns="http://www.w3.org/2000/svg"
   xmlns:svg="http://www.w3.org/2000/svg">
  <defs
     id="defs2">
    <linearGradient
       id="linearGradient2"
       inkscape:collect="always">
      <stop
         style="stop-color:#5fd35f;stop-opacity:1"
         offset="0"
         id="stop3" />
      <stop
         style="stop-color:#ffdd55;stop-opacity:1"
         offset="1"
         id="stop4" />
    </linearGradient>
    <linearGradient
       inkscape:collect="always"
       xlink:href="#linearGradient2"
       id="linearGradient4"
       x1="4.5226111"
       y1="11.508587"
       x2="13.083729"
       y2="8"
       gradientUnits="userSpaceOnUse" />
  </defs>
  <sodipodi:namedview
     id="namedview2"
     pagecolor="#ffffff"
     bordercolor="#000000"
     borderopacity="0.25"
     inkscape:showpageshadow="2"
     inkscape:pageopacity="0.0"
     inkscape:pagecheckerboard="0"
     inkscape:deskcolor="#d1d1d1"
     inkscape:document-units="px"
     inkscape:zoom="23.65625"
     inkscape:cx="11.92074"
     inkscape:cy="9.6169089"
     inkscape:window-width="1920"
     inkscape:window-height="994"
     inkscape:window-x="0"
     inkscape:window-y="0"
     inkscape:window-maximized="1"
     inkscape:current-layer="svg2" />
  <linearGradient
     id="_lgradient_8"
     x1="0.49563083"
     y1="0.20183772"
     x2="0.5285188"
     y2="0.99921525"
     gradientTransform="matrix(10.167361,0,0,12.999943,2.9163182,1.500057)"
     gradientUnits="userSpaceOnUse">
    <stop
       offset="2.608695652173913%"
       stop-opacity="1"
       style="stop-color:rgb(179,255,171)"
       id="stop1" />
    <stop
       offset="98.69565217391305%"
       stop-opacity="1"
       style="stop-color:rgb(18,255,247)"
       id="stop2" />
  </linearGradient>
  <path
     d="M 7.5715993,8.3707373 V 7.3268691 L 5.9165468,6.5660306 C 5.6300899,6.4346546 5.4787219,6.1510537 5.5786819,5.9334265 v 0 C 5.6786419,5.7157993 5.9922308,5.6458273 6.2786876,5.7774889 L 7.5715993,6.371537 v 0 -0.2464729 c 0,-0.3153024 0.191923,-0.5712 0.4284,-0.5712 v 0 c 0.236477,0 0.4284,0.2558976 0.4284,0.5712 v 1.2195122 0 L 9.7235953,6.7493858 C 10.010052,6.6177242 10.323926,6.6874108 10.423886,6.9050379 v 0 c 0.09996,0.2176272 -0.05141,0.501228 -0.337865,0.6328897 L 8.4283993,8.2996229 V 13.6432 H 10.24453 c 0.315302,0 0.5712,0.191923 0.5712,0.4284 v 0 c 0,0.236477 -0.255898,0.4284 -0.5712,0.4284 H 5.7554683 c -0.3153024,0 -0.5712001,-0.191923 -0.5712001,-0.4284 v 0 c 0,-0.236477 0.2558977,-0.4284 0.5712001,-0.4284 v 0 h 1.816131 v 0 -4.3171306 L 5.948534,8.5800821 C 5.6620771,8.4484205 5.5107091,8.1651053 5.6106691,7.947478 v 0 C 5.7109147,7.7298508 6.0245036,7.6598788 6.3109604,7.7915404 Z m 3.0267887,-3.983835 -0.004,0.00114 -0.08768,-0.3175873 C 10.353343,3.5226765 10.018049,3.0405837 9.5556623,2.707574 9.0584333,2.3460044 8.4601003,2.1529387 7.8466323,2.1575083 7.2088873,2.1529387 6.5865645,2.363426 6.0804812,2.7512708 5.6072419,3.1128405 5.2785163,3.6300622 5.1557082,4.210687 L 5.0745978,4.5328439 4.7987082,4.7364767 C 4.4260001,4.984092 4.1215505,5.3193864 3.913348,5.7138001 3.6897232,6.1367737 3.5737696,6.6077282 3.5737696,7.0878219 3.5692,7.7538412 3.7993936,8.4001541 4.2200825,8.9173758 4.4174321,9.1561374 4.6561938,9.357771 4.9235154,9.5111383 5.1885522,9.6645055 5.4821491,9.7653223 5.7868843,9.8047351 v 0 c 0.1790713,0.024276 0.3047353,0.1902096 0.2804593,0.3704229 v 0 c -0.024276,0.180214 -0.1890673,0.306735 -0.3681385,0.282744 v 0 C 5.3090755,10.405352 4.9343682,10.27826 4.5947897,10.08091 4.2574961,9.8881303 3.9593297,9.6339463 3.7117144,9.3337806 3.1947783,8.7003197 2.9120343,7.9049236 2.9163183,7.0855371 c 0,-0.5851945 0.1425144,-1.1612498 0.4164049,-1.6784715 C 3.593476,4.91412 3.9724673,4.4954303 4.4371385,4.1886958 l 0.058548,-0.038842 0.015994,-0.075113 C 4.6693314,3.3407493 5.0834514,2.6855828 5.6794987,2.2297651 6.3018212,1.7519563 7.0643733,1.495773 7.8466323,1.500057 c 0.753698,-0.00428 1.485691,0.2321929 2.094876,0.6748729 0.5829097,0.4206889 1.0055977,1.027589 1.1983777,1.7201691 l 0.01971,0.070258 0.01342,0.00628 c 0.569487,0.2696065 1.04958,0.6991489 1.380305,1.2380762 0.348432,0.5632033 0.532644,1.2140858 0.53036,1.8758211 0.0043,0.8193865 -0.27846,1.6147826 -0.795397,2.2482435 -0.247616,0.3001685 -0.545782,0.5543525 -0.883076,0.7471322 -0.339578,0.19735 -0.714286,0.324442 -1.104415,0.376992 v 0 c -0.227338,0.02399 -0.4118357,-0.10253 -0.4118357,-0.282744 v 0 c 0,-0.1802133 0.1450847,-0.3461469 0.3241567,-0.3704229 v 0 C 10.517849,9.7653223 10.811446,9.6645055 11.076482,9.5111383 11.343804,9.357771 11.582566,9.1561374 11.779915,8.9173758 12.200604,8.4001541 12.430798,7.7538412 12.426228,7.0878219 12.428513,6.5466098 12.277145,6.0139657 11.992402,5.5538641 11.729364,5.1243216 11.348088,4.7804591 10.892556,4.5656879 L 10.59439,4.3946135 Z"
     fill-rule="evenodd"
     id="path2"
     style="fill:url(#linearGradient4)" />
</svg>
