<?xml version="1.0" encoding="UTF-8" standalone="no"?>
<!-- Generator: Gravit.io -->

<svg
   style="isolation:isolate"
   viewBox="0 0 16 16"
   width="16"
   height="16"
   version="1.1"
   id="svg3"
   sodipodi:docname="lutris_the-dark-mod.svg"
   inkscape:version="1.4.4 (unknown)"
   xmlns:inkscape="http://www.inkscape.org/namespaces/inkscape"
   xmlns:sodipodi="http://sodipodi.sourceforge.net/DTD/sodipodi-0.dtd"
   xmlns:xlink="http://www.w3.org/1999/xlink"
   xmlns="http://www.w3.org/2000/svg"
   xmlns:svg="http://www.w3.org/2000/svg">
  <defs
     id="defs3">
    <linearGradient
       id="linearGradient3"
       inkscape:collect="always">
      <stop
         style="stop-color:#e580ff;stop-opacity:1"
         offset="0"
         id="stop4" />
      <stop
         style="stop-color:#ffd42a;stop-opacity:1"
         offset="1"
         id="stop5" />
    </linearGradient>
    <linearGradient
       inkscape:collect="always"
       xlink:href="#linearGradient3"
       id="linearGradient5"
       x1="0"
       y1="8.1249981"
       x2="16"
       y2="8.0624981"
       gradientUnits="userSpaceOnUse" />
  </defs>
  <sodipodi:namedview
     id="namedview3"
     pagecolor="#ffffff"
     bordercolor="#000000"
     borderopacity="0.25"
     inkscape:showpageshadow="2"
     inkscape:pageopacity="0.0"
     inkscape:pagecheckerboard="0"
     inkscape:deskcolor="#d1d1d1"
     inkscape:document-units="px"
     inkscape:zoom="16"
     inkscape:cx="7.3125"
     inkscape:cy="-0.15625"
     inkscape:window-width="1920"
     inkscape:window-height="994"
     inkscape:window-x="0"
     inkscape:window-y="0"
     inkscape:window-maximized="1"
     inkscape:current-layer="svg3" />
  <linearGradient
     id="_lgradient_18"
     x1="-0.11538462"
     y1="0.50480771"
     x2="1"
     y2="0.5"
     gradientTransform="matrix(13,0,0,13,1.5,1.5)"
     gradientUnits="userSpaceOnUse">
    <stop
       offset="0%"
       stop-opacity="1"
       style="stop-color:rgb(220,80,141)"
       id="stop1" />
    <stop
       offset="50.416666666666664%"
       stop-opacity="1"
       style="stop-color:rgb(245,139,123)"
       id="stop2" />
    <stop
       offset="97.91666666666666%"
       stop-opacity="1"
       style="stop-color:rgb(249,172,80)"
       id="stop3" />
  </linearGradient>
  <path
     d="M 8.3065111,12.749911 8.1334667,12.4356 8.5269333,12.218067 c -0.041889,-0.1118 -0.0702,-0.228223 -0.084644,-0.346956 l -0.4509556,-0.0087 0.00838,-0.433333 0.4500889,0.0087 c 0.019356,-0.117867 0.052578,-0.233134 0.099089,-0.343489 L 8.1638,10.861733 8.3876889,10.490222 8.7719111,10.721911 c 0.076267,-0.09187 0.1629333,-0.174489 0.2585556,-0.246133 l -0.2175334,-0.394622 0.3536,-0.1947116 v 0 0 L 9.0093778,9.7313111 C 8.9235778,9.8006444 8.832,9.8627556 8.7358,9.9164889 l 0.1736222,0.4119551 -0.3992444,0.168423 -0.1742,-0.412534 c -0.1054445,0.03149 -0.2137778,0.05402 -0.3232667,0.0676 l 0.00318,0.446911 -0.4333333,0.0026 -0.0026,-0.448066 C 7.4698889,10.142689 7.3606889,10.122756 7.2540889,10.093289 L 7.0865333,10.505822 6.6849778,10.3426 6.8536889,9.9280444 C 6.7563333,9.8757556 6.6636,9.8153778 6.5763556,9.7474889 L 6.2629111,10.064978 5.9546667,9.7607778 6.2686889,9.4427111 C 6.1993556,9.3569111 6.1372444,9.2653333 6.0832222,9.1691333 L 5.6715556,9.3427556 5.5031333,8.9435111 5.9156667,8.7693111 C 5.8841778,8.6638667 5.8616444,8.5555333 5.8480667,8.4460444 l -0.4469111,0.00318 -0.0026,-0.4333333 0.4480666,-0.0026 C 5.8573111,7.9032222 5.8772444,7.7940222 5.9067111,7.6874222 L 5.4941778,7.5198667 5.6574,7.1183111 6.0719556,7.2870222 C 6.1242444,7.1896667 6.1846222,7.0969333 6.2525111,7.0096889 L 5.9347333,6.6962444 6.2392222,6.388 6.5572889,6.7020222 c 0.0858,-0.069333 0.1773778,-0.1314444 0.2735778,-0.1851778 L 6.6572444,6.1048889 v 0 l 0.3992445,-0.1684222 0.00433,0.0104 v 0 L 7.1714667,5.5337556 C 7.0619778,5.4860889 6.9585556,5.4254222 6.8632222,5.3534889 L 6.5442889,5.6715556 6.2377778,5.3644667 6.5561333,5.0461111 C 6.4847778,4.9502 6.4252667,4.8464889 6.3784667,4.7364222 L 5.9425333,4.8531333 5.8298667,4.4351111 6.2649333,4.3184 c -0.014156,-0.1187333 -0.014156,-0.2386222 0,-0.3570667 l -0.4342,-0.117 0.024844,-0.093311 C 5.1847778,4.0896 4.5971778,4.5856222 4.1476667,5.205 3.4063778,6.2268 3.1013111,7.5010889 3.2997778,8.7476444 3.6892,11.195978 5.8807111,12.909089 8.3065111,12.749911 Z m 0.1837333,-0.0156 0.247,-0.136067 c 0.0234,0.0312 0.047956,0.06153 0.073956,0.091 -0.021089,0.004 -0.042178,0.0078 -0.063556,0.01098 -0.0858,0.01387 -0.1716,0.02513 -0.2574,0.03409 z M 9.339,12.567044 l 0.6000222,-0.5772 0.2348668,0.244112 C 9.9078222,12.3706 9.6284667,12.4824 9.339,12.567044 Z m 2.078267,-1.253488 c -0.01676,-0.05518 -0.0338,-0.110356 -0.05402,-0.164667 l 0.380467,-0.210311 c -0.102555,0.130866 -0.211755,0.255955 -0.326444,0.374978 z m 0.336555,-0.387689 -0.206266,-0.3744 -0.394623,0.217533 c -0.07164,-0.09562 -0.154266,-0.182289 -0.246422,-0.258556 l 0.231978,-0.384222 -0.371511,-0.2238887 -0.232845,0.3847997 c -0.110066,-0.04622 -0.225333,-0.07944 -0.3432,-0.0988 l 0.0087,-0.4500886 -0.4333333,-0.00838 v 0 0 L 9.7576,10.180822 c -0.1187333,0.01445 -0.2351556,0.04276 -0.3469556,0.08465 L 9.2425111,9.9615556 9.3274444,10.045333 9.6316444,9.7370889 9.3141556,9.4236444 C 9.3820444,9.3364 9.4424222,9.2436667 9.4947111,9.1463111 L 9.9092667,9.3150222 10.072489,8.9134667 9.6599556,8.7459111 c 0.029467,-0.1068889 0.0494,-0.2158 0.060089,-0.3258667 l 0.4480664,-0.0026 -0.0026,-0.4333333 -0.4469108,0.00318 C 9.7050222,7.8778 9.6824889,7.7694667 9.651,7.6637333 L 10.063533,7.4898222 9.8951111,7.0905778 9.4834444,7.2642 C 9.4294222,7.168 9.3673111,7.0764222 9.2979778,6.9906222 L 9.612,6.6725556 9.3037556,6.3680667 8.9903111,6.6858444 C 8.9030667,6.6179556 8.8103333,6.5575778 8.7129778,6.5052889 L 8.8816889,6.0907333 8.4801333,5.9275111 8.4760889,5.9373333 8.3674667,5.5311556 c 0.1097777,-0.0468 0.2137777,-0.1066 0.3096889,-0.1776667 L 8.9952222,5.6715556 9.3026,5.3644667 8.9833778,5.0461111 C 9.0556,4.9507778 9.1159778,4.8470667 9.1636444,4.7372889 L 9.5969778,4.854 9.7096444,4.4342444 9.2745778,4.3184 c 0.014156,-0.1190222 0.014156,-0.2392 0,-0.3582222 L 9.7096444,3.8443333 9.6241333,3.5262667 c 0.4136887,0.1502222 0.8083107,0.3585111 1.1708667,0.6214 1.021511,0.7412889 1.707044,1.8581333 1.905222,3.1046889 0.08609,0.5402222 0.07742,1.0859333 -0.02022,1.6137333 l -0.03467,0.00924 c -0.03958,-0.0702 -0.08869,-0.1346222 -0.146177,-0.1912444 l 0.230822,-0.4004 -0.375556,-0.2166667 -0.230244,0.3995334 c -0.078,-0.021378 -0.158889,-0.031489 -0.239489,-0.030622 l -0.11931,-0.4457514 h -2.89e-4 v 0 0 0 L 11.3462,8.1016889 11.466378,8.5486 c -0.0702,0.039867 -0.134622,0.088978 -0.191245,0.1464667 l -0.4004,-0.2311111 -0.216666,0.3749777 0.399533,0.2311111 c -0.02138,0.078 -0.03149,0.1577334 -0.03033,0.2386223 l -0.446911,0.1201777 0.112666,0.4180223 0.446045,-0.1193111 c 0.03958,0.0702 0.08869,0.1346222 0.146177,0.1912444 l -0.230822,0.4004 0.375556,0.216667 0.230244,-0.399534 c 0.078,0.02138 0.158889,0.03149 0.239489,0.03062 l 0.107467,0.400977 c -0.0494,0.07685 -0.100822,0.152534 -0.154845,0.227067 -0.03207,0.0442 -0.065,0.08782 -0.09851,0.130867 z M 9.4464667,3.4658889 9.1622,3.5421556 c -0.025422,-0.059511 -0.0546,-0.1172889 -0.085222,-0.1742 0.1250889,0.025133 0.2481555,0.058933 0.3694887,0.097933 z m -3.0639556,0.061822 c -0.0026,0.00462 -0.00462,0.00896 -0.00664,0.013578 l -0.023978,-0.00636 c 0.00982,-0.00347 0.019356,-0.00693 0.030622,-0.00722 z m 4.6447559,8.1452221 c -0.0012,-0.201355 -0.05951,-0.398089 -0.167845,-0.568533 v 0 0 0 0 l -0.608111,0.585 0.309689,0.322111 c 0.162067,-0.103422 0.317489,-0.216378 0.466267,-0.338578 z M 7.0423333,3.3367556 v 0 c -0.0286,0.026867 -0.056333,0.054889 -0.082622,0.084356 l 0.7306,0.4223556 0.3481111,-0.6026223 C 7.776978,3.2385349 7.5140891,3.2581779 7.2523558,3.2997779 v 0 c -0.0702,0.010978 -0.1401112,0.023978 -0.2100225,0.036978 z M 7.0712222,5.9711333 7.2306889,6.349 C 7.3361333,6.3175111 7.4444667,6.2949778 7.5539556,6.2814 l -0.00318,-0.4469111 0.4333333,-0.0026 0.0026,0.4480667 c 0.1100667,0.010689 0.2192667,0.030622 0.3258667,0.060089 L 8.4616444,5.9728667 8.0652889,6.0786 7.9491556,5.6438222 c -0.1187334,0.014445 -0.2389112,0.014733 -0.3579334,8.667e-4 l -0.1167111,0.4342 z M 7.0007333,6.9189778 7.4993556,8.1014 6.3180889,8.5997333 c -0.033222,-0.1242222 -0.050267,-0.2522 -0.051422,-0.3807555 0,-0.00202 -2.889e-4,-0.00404 -5.778e-4,-0.00607 5.778e-4,-0.2022222 0.041889,-0.4024222 0.1210444,-0.5884667 0.1250889,-0.2938 0.3397334,-0.5408 0.6136,-0.7054666 z M 7.4002667,6.7514222 c 0.1242222,-0.033222 0.2522,-0.050267 0.3807555,-0.051133 0.00116,-2.889e-4 0.00231,-5.778e-4 0.00347,-5.778e-4 l 0.0026,-2.889e-4 C 7.9893111,6.7 8.1895111,6.7413111 8.3755556,6.8204667 c 0.2938,0.1250889 0.5408,0.3397333 0.7054666,0.6136 L 7.8988889,7.9326889 Z M 6.4856444,8.9992667 7.6680667,8.5006444 8.1664,9.6819111 c -0.1242222,0.033222 -0.2522,0.050267 -0.3807556,0.051422 -0.00202,0 -0.00404,2.889e-4 -0.00607,5.778e-4 C 7.5773522,9.7333331 7.3771522,9.6920219 7.1911077,9.6128665 6.8973077,9.4877776 6.6503077,9.2731331 6.485641,8.9992665 Z M 8.0673111,8.3319333 9.2485778,7.8336 C 9.2818,7.9578222 9.2988444,8.0858 9.3,8.2143556 c 0,0.00116 2.889e-4,0.00231 2.889e-4,0.00347 l 2.889e-4,0.0026 C 9.3,8.4226444 9.2586889,8.6228444 9.1795333,8.8088889 c -0.1250889,0.2938 -0.3397333,0.5408 -0.6136,0.7054667 z m 1.8988667,2.2686447 c 0.2120442,0.0043 0.4183112,0.07107 0.5930892,0.191822 L 9.9511556,11.3774 9.3658667,10.769 c 0.1794,-0.113533 0.3879777,-0.172178 0.6003111,-0.168422 z m -0.9123111,0.468866 0.585,0.608112 -0.6081111,0.585 C 8.9169333,12.083444 8.8582889,11.874867 8.8620444,11.662533 c 0.00433,-0.212044 0.071067,-0.418311 0.1918223,-0.593089 z M 11.899711,8.8669556 c 0.239489,0 0.433333,0.1938444 0.433333,0.4333333 0,0.2392 -0.193844,0.4333333 -0.433333,0.4333333 -0.2392,0 -0.433333,-0.1941333 -0.433333,-0.4333333 0,-0.2394889 0.194133,-0.4333333 0.433333,-0.4333333 z m -3.4123554,-5.538 c 0.1594666,0.1404 0.2738666,0.3247111 0.3293333,0.5298222 C 8.871,4.0638889 8.8640667,4.2805556 8.7964667,4.4816222 L 8.0661556,4.0601333 8.4876444,3.3289556 Z m -1.7443112,0.468 0.7306,0.4214888 -0.4214888,0.7311778 C 6.8929778,4.8092222 6.7788667,4.6249111 6.7236889,4.4198 6.6690889,4.2149778 6.6757333,3.9983111 6.7430444,3.7969556 Z M 7.8492,4.4351111 8.5798,4.8574667 C 8.4391111,5.0166444 8.2548,5.1307556 8.0499778,5.1859333 7.8448667,5.2405333 7.6282,5.2338889 7.4268444,5.1665778 Z M 6.5532444,1.6586 6.6924889,2.5339333 c -0.1964445,0.0468 -0.39,0.1042889 -0.5803778,0.1718889 L 5.7515778,1.8963556 4.9614667,2.2488 5.3231556,3.0605778 C 5.1460667,3.1567778 4.9738889,3.2625111 4.8080667,3.3772 L 4.2482,2.6864667 3.5765333,3.2316 4.1323556,3.9165556 c -0.1464667,0.1395333 -0.2854223,0.2865777 -0.416,0.4411333 L 3.0004889,3.8382667 2.4923333,4.5385333 3.2119556,5.0608444 c -0.1054445,0.1716 -0.2019334,0.3489778 -0.2886,0.5309778 l -0.8291112,-0.3172 -0.3096888,0.8071556 0.8285333,0.3174889 c -0.0572,0.1938444 -0.104,0.3902889 -0.1401111,0.5887555 L 1.5898444,6.8958667 1.5,7.7564667 2.3814,7.8480444 C 2.37533,8.0499778 2.37996,8.2519111 2.395556,8.4532667 L 1.5225333,8.5922222 1.6586,9.4467556 2.5339333,9.3075111 c 0.0468,0.1964445 0.1042889,0.39 0.1718889,0.5803778 L 1.8963556,10.248422 2.2488,11.038533 3.0605778,10.676844 c 0.0962,0.177089 0.2019333,0.349267 0.3166222,0.515089 L 2.6864667,11.7518 3.2316,12.423467 3.9165556,11.867644 c 0.1395333,0.146467 0.2865777,0.285423 0.4411333,0.416 l -0.5194222,0.715867 0.7002666,0.508156 0.5223111,-0.719623 c 0.1716,0.105445 0.3489778,0.201934 0.5309778,0.2886 l -0.3172,0.829112 0.8071556,0.309688 0.3174889,-0.828533 c 0.1938444,0.0572 0.3902889,0.104 0.5887555,0.140111 l -0.092155,0.883134 0.8606,0.08984 0.091578,-0.8814 c 0.2019334,0.0061 0.4038667,0.0014 0.6052223,-0.01416 L 8.5922222,14.477467 9.4467556,14.3414 9.3075111,13.466067 c 0.1964445,-0.0468 0.39,-0.104289 0.5803778,-0.171889 l 0.3605331,0.809466 0.790111,-0.352444 -0.361689,-0.811778 c 0.177089,-0.0962 0.349267,-0.201933 0.515089,-0.316622 L 11.7518,13.313533 12.423467,12.7684 11.867644,12.083444 c 0.146467,-0.139533 0.285423,-0.286577 0.416,-0.441133 l 0.715867,0.519422 0.508156,-0.700266 -0.719623,-0.522311 c 0.105445,-0.1716 0.201934,-0.348978 0.2886,-0.530978 l 0.829112,0.3172 0.309688,-0.8071558 -0.828533,-0.3174889 c 0.0572,-0.1938444 0.104,-0.3902889 0.140111,-0.5887555 l 0.883134,0.092156 0.08984,-0.8606 -0.8814,-0.091578 c 0.0061,-0.2019334 0.0014,-0.4038667 -0.01416,-0.6052223 L 14.477467,7.4077778 14.3414,6.5532444 13.466067,6.6924889 c -0.0468,-0.1964445 -0.104289,-0.39 -0.171889,-0.5803778 L 14.103644,5.7515778 13.7512,4.9614667 12.939422,5.3231556 C 12.843222,5.1460667 12.737489,4.9738889 12.6228,4.8080667 L 13.313533,4.2482 12.7684,3.5765333 12.083444,4.1323556 c -0.139533,-0.1464667 -0.286577,-0.2854223 -0.441133,-0.416 L 12.161733,3.0004889 11.461467,2.4923333 10.939156,3.2119556 c -0.1716,-0.1054445 -0.348978,-0.2019334 -0.530978,-0.2886 L 10.725378,2.0942444 9.9182222,1.7845556 9.6007333,2.6130889 c -0.1938444,-0.0572 -0.3902889,-0.104 -0.5887555,-0.1401111 L 9.1041333,1.5898444 8.2435333,1.5 8.1519556,2.3814 C 7.9500222,2.3753333 7.7480889,2.3799556 7.5467333,2.3955556 L 7.4077778,1.5225333 Z"
     fill-rule="evenodd"
     id="path3"
     style="fill:url(#linearGradient5)" />
</svg>
