<?xml version="1.0" encoding="UTF-8" standalone="no"?>
<svg
   width="100%"
   height="100%"
   viewBox="0 0 16 16"
   version="1.1"
   id="svg1"
   sodipodi:docname="todoist.svg"
   inkscape:version="1.4.4 (unknown)"
   xmlns:inkscape="http://www.inkscape.org/namespaces/inkscape"
   xmlns:sodipodi="http://sodipodi.sourceforge.net/DTD/sodipodi-0.dtd"
   xmlns:xlink="http://www.w3.org/1999/xlink"
   xmlns="http://www.w3.org/2000/svg"
   xmlns:svg="http://www.w3.org/2000/svg">
  <sodipodi:namedview
     id="namedview1"
     pagecolor="#ffffff"
     bordercolor="#000000"
     borderopacity="0.25"
     inkscape:showpageshadow="2"
     inkscape:pageopacity="0.0"
     inkscape:pagecheckerboard="0"
     inkscape:deskcolor="#d1d1d1"
     inkscape:zoom="23.65625"
     inkscape:cx="7.6089828"
     inkscape:cy="5.5587847"
     inkscape:window-width="1920"
     inkscape:window-height="994"
     inkscape:window-x="0"
     inkscape:window-y="0"
     inkscape:window-maximized="1"
     inkscape:current-layer="svg1" />
  <defs
     id="defs1">
    <linearGradient
       id="linearGradient1"
       inkscape:collect="always">
      <stop
         style="stop-color:#ffd42a;stop-opacity:1"
         offset="0"
         id="stop1" />
      <stop
         style="stop-color:#ff893a;stop-opacity:1;"
         offset="1"
         id="stop2" />
    </linearGradient>
    <style
       id="current-color-scheme"
       type="text/css">
   .ColorScheme-Text { color:#dfdfdf; } .ColorScheme-Highlight { color:#4285f4; }
  </style>
    <linearGradient
       inkscape:collect="always"
       xlink:href="#linearGradient1"
       id="linearGradient2"
       x1="1.9335321"
       y1="8"
       x2="14.066468"
       y2="8"
       gradientUnits="userSpaceOnUse" />
  </defs>
  <path
     d="m 12.95512,1.5000014 a 0.61328345,0.65633848 0 0 0 -0.311469,0.089711 c -0.09407,0.058835 -6.3719484,3.9630124 -6.5814668,4.091142 -0.2516661,0.154279 -0.562083,0.1568935 -0.8125269,0 L 1.9335321,3.5971983 V 5.3677131 C 2.7404525,5.87631 4.7465004,7.1386896 5.2327296,7.4361346 5.5228778,7.612639 5.8004283,7.6088985 6.0808045,7.4344446 L 13.938616,2.5443682 C 14.1066,2.4397719 14.115512,2.1184286 13.926769,2.0027192 13.73863,1.8863565 13.382826,1.6672717 13.249663,1.5829413 a 0.61328345,0.65633848 0 0 0 -0.294541,-0.08294 z m 0,3.466553 a 0.61328345,0.65633843 0 0 0 -0.311469,0.089711 c -0.09407,0.058835 -6.3719484,3.9630136 -6.5814668,4.0911418 -0.2516661,0.1542798 -0.562083,0.1568944 -0.8125269,0 L 1.9335321,7.0637514 v 1.7705147 c 0.8069204,0.5085971 2.8129683,1.7709749 3.2991975,2.0684209 0.2901482,0.176504 0.5676987,0.172767 0.8480749,-0.0017 L 13.938616,6.0109212 C 14.1066,5.9063255 14.115512,5.5849816 13.926769,5.4692723 13.73863,5.3529097 13.382826,5.1338244 13.249663,5.0494944 a 0.61328345,0.65633843 0 0 0 -0.294541,-0.08294 z m 0,3.4665526 a 0.61328345,0.65633964 0 0 0 -0.311469,0.089711 c -0.09407,0.058827 -6.3719484,3.963011 -6.5814668,4.091141 -0.2516661,0.15428 -0.562083,0.156896 -0.8125269,0 L 1.9335321,10.530304 v 1.770515 c 0.8069204,0.508598 2.8129683,1.770977 3.2991975,2.068421 0.2901482,0.176506 0.5676987,0.172738 0.8480749,-0.0017 L 13.938616,9.477433 C 14.106599,9.3728358 14.115514,9.0514933 13.926769,8.9357841 13.738626,8.8194215 13.382826,8.6003353 13.249663,8.5160062 a 0.61328345,0.65633964 0 0 0 -0.294541,-0.082937 z"
     id="path1"
     style="fill:url(#linearGradient2)" />
</svg>
