<?xml version="1.0" encoding="UTF-8" standalone="no"?>
<svg
   width="32"
   height="32"
   viewBox="0 0 32 32"
   version="1.1"
   id="svg1"
   sodipodi:docname="trackma-symbolic.svg"
   inkscape:version="1.4.3 (unknown)"
   xmlns:inkscape="http://www.inkscape.org/namespaces/inkscape"
   xmlns:sodipodi="http://sodipodi.sourceforge.net/DTD/sodipodi-0.dtd"
   xmlns:xlink="http://www.w3.org/1999/xlink"
   xmlns="http://www.w3.org/2000/svg"
   xmlns:svg="http://www.w3.org/2000/svg">
  <defs
     id="defs1">
    <linearGradient
       id="linearGradient1"
       inkscape:collect="always">
      <stop
         style="stop-color:#00b1b1;stop-opacity:1;"
         offset="0"
         id="stop1" />
      <stop
         style="stop-color:#9955ff;stop-opacity:1;"
         offset="1"
         id="stop2" />
    </linearGradient>
    <linearGradient
       inkscape:collect="always"
       xlink:href="#linearGradient1"
       id="linearGradient2"
       x1="11.581744"
       y1="16.299305"
       x2="27.601562"
       y2="16"
       gradientUnits="userSpaceOnUse" />
  </defs>
  <sodipodi:namedview
     id="namedview1"
     pagecolor="#ffffff"
     bordercolor="#000000"
     borderopacity="0.25"
     inkscape:showpageshadow="2"
     inkscape:pageopacity="0.0"
     inkscape:pagecheckerboard="0"
     inkscape:deskcolor="#d1d1d1"
     inkscape:zoom="16.705398"
     inkscape:cx="10.565447"
     inkscape:cy="13.887727"
     inkscape:window-width="1920"
     inkscape:window-height="996"
     inkscape:window-x="0"
     inkscape:window-y="0"
     inkscape:window-maximized="1"
     inkscape:current-layer="svg1" />
  <g
     id="surface1">
    <path
       d="m 13.351563,19.005859 c -0.521484,0.550782 -0.691406,1.353516 -0.433595,2.074219 0.380861,1.042968 1.529299,1.576172 2.566408,1.201172 1.037108,-0.380859 1.570311,-1.535157 1.195311,-2.572266 -0.263672,-0.720702 -0.902343,-1.224609 -1.658203,-1.306641 l -0.0058,0.134766 -0.09961,2.167969 -1.470705,-1.59961 z m 7.201171,-2.800781 c -0.521483,0.55664 -0.691405,1.353515 -0.433594,2.074219 0.38086,1.042969 1.529298,1.576171 2.566406,1.201171 1.037111,-0.380859 1.570313,-1.529296 1.195313,-2.572265 -0.263671,-0.720703 -0.908201,-1.22461 -1.664063,-1.30664 l -0.0059,0.134766 -0.0996,2.167968 -1.464844,-1.599609 z M 7.005859,13.199218 c -0.3164055,0 -0.650391,0.03516 -1.0078125,0.09961 0,0 2.2089855,0.222656 3.3046875,1.582031 -0.462891,1.769532 -1.0664055,3.117188 -1.0664055,3.117188 l 2.1621095,-3.427734 c 0,0 -1.189454,-1.382814 -3.392579,-1.371096 z M 17.998046,5.9980465 16,9.6015625 17.21875,9.25 c 0,0 0.615234,-1.505859 0.779296,-3.2519535 z M 18.009765,4 14.482421,8.962891 C 13.451171,9.3261715 12.490234,9.847657 11.634766,10.521484 8.125,9.6894535 4.3984375,12.484375 4.3984375,12.484375 l 3.615234,7.412109 C 8.839843,24.578125 12.935546,27.994141 17.728515,28 23.177733,28 27.601562,23.611328 27.601562,18.203125 27.595703,15.121093 26.130858,12.220704 23.640625,10.375 23.042967,6.285157 18.009765,4 18.009765,4 Z m 5.636719,18.082032 0.339845,-0.205078 0.416014,0.679687 -0.345702,0.210938 c -0.345703,0.210937 -0.720703,0.386717 -1.107423,0.509764 -0.351561,0.117195 -0.714843,0.175782 -1.078125,0.181641 -0.392577,0 -0.785155,-0.08204 -1.148436,-0.240234 -0.07032,-0.0293 -0.140625,-0.06445 -0.216798,-0.105465 -0.02344,0.580077 -0.216796,1.136718 -0.5625,1.599609 -0.193358,0.257812 -0.421875,0.498046 -0.673826,0.697266 -0.275393,0.234375 -0.580079,0.439452 -0.902346,0.615234 l -0.351561,0.193357 -0.380861,-0.703125 0.351564,-0.193358 c 0.275389,-0.152345 0.539061,-0.328125 0.779297,-0.527345 0.205078,-0.164063 0.380858,-0.351563 0.539061,-0.5625 0.257814,-0.345703 0.398439,-0.773438 0.404297,-1.20703 0,-0.228516 -0.03516,-0.451173 -0.09375,-0.66797 -0.04687,-0.17578 0.539062,-0.515625 0.662109,-0.392578 0.228516,0.216798 0.480469,0.392578 0.767578,0.521485 0.257813,0.11133 0.539063,0.169922 0.820313,0.169922 0.28125,-0.0059 0.5625,-0.04687 0.832033,-0.134761 0.328125,-0.11133 0.644529,-0.257812 0.949217,-0.439452 z m 0,0"
       id="path1"
       style="fill:url(#linearGradient2);fill-opacity:1;fill-rule:evenodd;stroke:none;stroke-width:1.5" />
  </g>
</svg>
