<?xml version="1.0" encoding="UTF-8" standalone="no"?>
<svg
   id="svg8"
   version="1.1"
   viewBox="0 0 16 16"
   sodipodi:docname="transmission.svg"
   width="16"
   height="16"
   inkscape:version="1.4.4 (unknown)"
   xmlns:inkscape="http://www.inkscape.org/namespaces/inkscape"
   xmlns:sodipodi="http://sodipodi.sourceforge.net/DTD/sodipodi-0.dtd"
   xmlns:xlink="http://www.w3.org/1999/xlink"
   xmlns="http://www.w3.org/2000/svg"
   xmlns:svg="http://www.w3.org/2000/svg">
  <defs
     id="defs1">
    <linearGradient
       id="linearGradient1"
       inkscape:collect="always">
      <stop
         style="stop-color:#8d5fd3;stop-opacity:1"
         offset="0"
         id="stop1" />
      <stop
         style="stop-color:#2ad4ff;stop-opacity:1"
         offset="1"
         id="stop2" />
    </linearGradient>
    <linearGradient
       inkscape:collect="always"
       xlink:href="#linearGradient1"
       id="linearGradient2"
       x1="8.5292807"
       y1="14.576873"
       x2="18.288465"
       y2="3.4170308"
       gradientUnits="userSpaceOnUse" />
  </defs>
  <sodipodi:namedview
     id="namedview1"
     pagecolor="#ffffff"
     bordercolor="#000000"
     borderopacity="0.25"
     inkscape:showpageshadow="2"
     inkscape:pageopacity="0.0"
     inkscape:pagecheckerboard="0"
     inkscape:deskcolor="#d1d1d1"
     inkscape:zoom="17.204545"
     inkscape:cx="9.7648613"
     inkscape:cy="11.188904"
     inkscape:window-width="1920"
     inkscape:window-height="994"
     inkscape:window-x="0"
     inkscape:window-y="0"
     inkscape:window-maximized="1"
     inkscape:current-layer="svg8" />
  <style
     id="current-color-scheme"
     type="text/css">.ColorScheme-Text { color: #fcfcfc; } </style>
  <g
     id="g1"
     transform="matrix(0.8125,0,0,0.8125,-0.93740059,-0.9375)"
     style="fill:url(#linearGradient2)">
    <path
       id="path881"
       d="M 5.0982543,8.9973146 2.8778223,19 H 19.121933 L 16.901501,8.9973146 h -2.900036 v 1.0037834 h 2.095446 l 1.556451,6.997193 H 4.3463933 L 5.9028441,10.001098 H 8.000244 V 8.9973146 Z"
       style="fill:url(#linearGradient2)" />
    <path
       id="rect822"
       d="M 10,3 V 3.9998777 H 7.0003661 c -0.5539322,0 -0.9998778,0.4459457 -0.9998778,0.9998778 0,0.5539326 0.4459456,0.9998783 0.9998778,0.9998783 H 10 V 12.002807 H 7.2932993 l 3.7046257,3.704626 3.706579,-3.704626 H 11.999756 V 5.9996338 h 2.999634 c 0.553933,0 0.999878,-0.4459457 0.999878,-0.9998783 0,-0.5539321 -0.445945,-0.9998778 -0.999878,-0.9998778 H 11.999756 V 3 Z"
       style="fill:url(#linearGradient2)" />
  </g>
</svg>
