<?xml version="1.0" encoding="UTF-8" standalone="no"?>
<!-- Generator: Gravit.io -->

<svg
   style="isolation:isolate"
   viewBox="0 0 16 16"
   width="16"
   height="16"
   version="1.1"
   id="svg9"
   sodipodi:docname="com.github.zadam.trilium.svg"
   inkscape:version="1.4.4 (unknown)"
   xmlns:inkscape="http://www.inkscape.org/namespaces/inkscape"
   xmlns:sodipodi="http://sodipodi.sourceforge.net/DTD/sodipodi-0.dtd"
   xmlns="http://www.w3.org/2000/svg"
   xmlns:svg="http://www.w3.org/2000/svg">
  <defs
     id="defs9" />
  <sodipodi:namedview
     id="namedview9"
     pagecolor="#ffffff"
     bordercolor="#000000"
     borderopacity="0.25"
     inkscape:showpageshadow="2"
     inkscape:pageopacity="0.0"
     inkscape:pagecheckerboard="0"
     inkscape:deskcolor="#d1d1d1"
     inkscape:document-units="px"
     inkscape:zoom="16.727495"
     inkscape:cx="7.7118541"
     inkscape:cy="4.9319997"
     inkscape:window-width="1920"
     inkscape:window-height="994"
     inkscape:window-x="0"
     inkscape:window-y="0"
     inkscape:window-maximized="1"
     inkscape:current-layer="svg9" />
  <linearGradient
     id="_lgradient_1"
     x1="0.39980158"
     y1="0.20242152"
     x2="0.36506835"
     y2="1.1185315"
     gradientTransform="matrix(4.9135026,0,0,3.7349552,5.8195168,3.4034154)"
     gradientUnits="userSpaceOnUse">
    <stop
       offset="0%"
       stop-opacity="1"
       style="stop-color:rgb(67,233,123)"
       id="stop1" />
    <stop
       offset="97.82608695652173%"
       stop-opacity="1"
       style="stop-color:rgb(56,249,215)"
       id="stop2" />
  </linearGradient>
  <linearGradient
     id="_lgradient_2"
     x1="0"
     y1="0.5"
     x2="1"
     y2="0.5"
     gradientTransform="matrix(4.1138127,0,0,2.6945189,1.5757172,4.7057211)"
     gradientUnits="userSpaceOnUse">
    <stop
       offset="0%"
       stop-opacity="1"
       style="stop-color:rgb(255,224,49)"
       id="stop3" />
    <stop
       offset="98.69565217391305%"
       stop-opacity="1"
       style="stop-color:rgb(252,82,82)"
       id="stop4" />
  </linearGradient>
  <linearGradient
     id="_lgradient_3"
     x1="0"
     y1="0.5"
     x2="1"
     y2="0.5"
     gradientTransform="matrix(2.433462,0,0,3.8700874,4.7062336,7.2897512)"
     gradientUnits="userSpaceOnUse">
    <stop
       offset="0%"
       stop-opacity="1"
       style="stop-color:rgb(252,73,136)"
       id="stop5" />
    <stop
       offset="98.26086956521739%"
       stop-opacity="1"
       style="stop-color:rgb(234,51,62)"
       id="stop6" />
  </linearGradient>
  <linearGradient
     id="_lgradient_4"
     x1="0"
     y1="0.5"
     x2="1"
     y2="0.5"
     gradientTransform="matrix(15.692391,-6.4468057,6.4468057,15.692391,-4.5710356,1.8720079)"
     gradientUnits="userSpaceOnUse">
    <stop
       offset="0%"
       stop-opacity="1"
       style="stop-color:#c83771;stop-opacity:1"
       id="stop7" />
    <stop
       offset="50.416666666666664%"
       stop-opacity="1"
       style="stop-color:#ff2ad4;stop-opacity:1"
       id="stop8" />
    <stop
       offset="0.99989998"
       stop-opacity="1"
       style="stop-color:#00ccff;stop-opacity:1"
       id="stop9" />
  </linearGradient>
  <g
     id="g9"
     transform="translate(1.5014955,1.5052998)">
    <path
       d="M 8.9809052,3.4971143 C 8.443897,3.4805951 8.1657793,3.7316322 8.0986195,3.7551923 8.1595508,3.6392874 8.2004425,3.5664406 8.3569683,3.4036863 7.8251055,3.3979993 7.3322387,3.5130918 6.9560893,3.8648687 6.4518487,4.3368835 6.4908447,4.7279272 6.4900323,4.7257608 6.4900323,4.7260316 6.4104153,4.4709324 6.3865844,4.19796 5.83739,4.9578414 5.6207453,5.9646979 6.036974,6.7159135 6.2953228,6.0925183 6.7055938,5.5555101 7.234207,5.1319697 7.2515385,4.6875771 7.4305413,4.3119693 7.7129918,4.0346641 7.4581635,4.3398623 7.3455082,4.6878479 7.356882,5.0382708 7.9718823,4.5795256 8.7255352,4.2737857 9.5533889,4.1733167 8.9540954,4.2835347 8.4108587,4.5223855 7.9361359,4.848165 8.23321,4.9838388 8.5725298,5.0052325 8.9291812,4.8809326 8.5874242,5.0412497 8.2077543,5.0675178 7.8237515,4.927782 7.4830776,5.177465 7.1800458,5.4723727 6.9195305,5.7962566 7.382067,5.9476371 7.8879325,5.9162236 8.3910899,5.6597704 7.929095,5.9581985 7.3861291,6.0700414 6.8060628,5.9430334 6.5747945,6.253377 6.3811683,6.5867391 6.229517,6.9303918 6.4161023,7.0679612 7.2260828,7.4996258 8.6150464,6.475167 8.4189829,6.4172146 8.2600198,6.3351604 8.2600198,6.3351604 8.2643527,6.337056 8.4030053,6.3497839 8.8089434,6.1066002 9.1674904,5.8969964 9.4762092,5.5170557 9.703957,5.2210648 9.5100599,5.1498428 9.359221,5.0748296 9.359221,5.0745588 c 0,0 0.2504955,0.017061 0.639102,-0.2805549 0.346361,-0.265119 0.733342,-0.6499343 0.734696,-0.639102 0.0024,0.00244 -0.8535798,-0.6301654 -1.7521138,-0.6577876 z"
       fill="url(#_lgradient_1)"
       id="path2"
       style="fill:url(#_lgradient_1);stroke-width:0.270806" />
    <path
       d="M 2.792719,4.9770687 C 3.2002819,4.8587265 3.459714,4.9954835 3.5155,4.9998164 3.4472569,4.9237199 3.4023032,4.8760581 3.2525475,4.7829008 3.657944,4.673766 4.0562995,4.6642878 4.4094304,4.8584557 4.8827991,5.1187002 4.9255865,5.42444 4.9261281,5.4228152 c 0,2.708e-4 0.01327,-0.2098746 -0.019227,-0.422728 C 5.4682815,5.4712895 5.8214125,6.1959661 5.6429514,6.850504 5.3293581,6.426422 4.9158375,6.0976636 4.4327197,5.8791232 4.3365836,5.5438655 4.1299587,5.2928284 3.8624024,5.137115 4.1139811,5.3193673 4.26482,5.5622803 4.3214185,5.8317322 3.7659955,5.603172 3.1325805,5.5186805 2.4810214,5.6053384 2.9598063,5.5712169 3.9739745,5.6405432 4.7969537,6.3235157 4.4717158,6.5298698 4.0790472,6.6056955 3.6462993,6.5095594 4.0552162,6.6457748 4.4912138,6.6241103 4.910963,6.4128817 5.1457517,6.6040706 5.3558971,6.819903 5.5357122,7.0519836 5.4187241,7.1936151 4.8798203,7.682149 3.6270721,7.1752003 3.7662663,7.0923337 3.8724222,6.9983641 3.8724222,6.9983641 3.8694434,7.0008013 3.7657247,7.0379017 3.4101565,6.9325582 3.0968341,6.8431923 2.7902818,6.6143613 2.5609092,6.4337337 2.6957705,6.3411181 2.7973227,6.2544602 2.7973227,6.2541894 c 0,0 -0.1882101,0.062285 -0.5407994,-0.088012 C 1.9421176,6.0323993 1.574634,5.815213 1.5757172,5.8238788 1.5743632,5.8260452 2.1111005,5.1752986 2.792719,4.9770687"
       fill="url(#_lgradient_2)"
       id="path4"
       style="fill:url(#_lgradient_2);stroke-width:0.270806" />
    <path
       d="M 5.717423,10.579231 C 5.4203489,10.302738 5.407621,10.0211 5.3843317,9.9728963 5.3542723,10.067137 5.3363991,10.127526 5.3320662,10.297322 5.0436579,10.01785 4.8416366,9.6947786 4.8310752,9.3075262 4.8167225,8.7883912 5.050428,8.6009935 5.0488032,8.6015351 c 0,0 -0.18144,0.093428 -0.3425695,0.226123 C 4.8248467,8.131416 5.2556989,7.4801278 5.8872183,7.3013959 5.6870927,7.7704318 5.6153292,8.2744016 5.6686779,8.7808086 5.4365973,9.0267004 5.3285457,9.3216081 5.3293581,9.6192238 5.3583343,9.3213373 5.4869672,9.0765287 5.6835723,8.8959012 5.7642724,9.46676 6.0025816,10.030036 6.3922714,10.523445 6.1306728,10.146212 5.6938629,9.2769251 5.8609501,8.2597781 6.1913334,8.4252405 6.4458909,8.7103991 6.5764194,9.1144415 6.4908447,8.7101283 6.2603889,8.3621427 5.8799065,8.121667 5.9245895,7.8335295 6.0017692,7.5529746 6.1071127,7.2897512 6.2820533,7.3154778 6.9512148,7.516145 7.1399665,8.7994943 7.0032095,8.7261059 6.8732227,8.6852142 6.8732227,8.685485 c 0.00325,0.00108 0.084762,0.067972 0.1703369,0.412979 0.078534,0.3022194 0.037642,0.6686198 -0.00108,0.947008 C 6.8997617,9.9804789 6.7781698,9.9403996 6.7781698,9.9403996 c -2.708e-4,0 0.1432563,0.1240294 0.1901057,0.4888044 0.041975,0.325509 0.040621,0.73578 0.04712,0.730635 0.00244,0 -0.8005023,-0.118072 -1.2979728,-0.580608"
       fill="url(#_lgradient_3)"
       id="path6"
       style="fill:url(#_lgradient_3);stroke-width:0.270806" />
    <path
       d="m 10.742768,9.7811657 v 0 c 0.19146,-0.2458918 0.547299,-0.2908455 0.794545,-0.1007398 v 0 c 0.246975,0.1901058 0.29247,0.5454031 0.101552,0.7926491 v 0 c -0.743633,0.960548 -1.7404694,1.692808 -2.8770418,2.114994 -1.0304166,0.382649 -2.1423457,0.497471 -3.2307147,0.334987 v 0 C 5.2226606,12.876477 5.0100779,12.587798 5.0569273,12.27935 v 0 c 0.04685,-0.308448 0.3352578,-0.52103 0.6437057,-0.474181 v 0 c 0.8979925,0.136486 1.8146705,0.04008 2.6677092,-0.276763 0.9402381,-0.34934 1.7621338,-0.952967 2.3744258,-1.7472403 z M 10.034069,2.4539699 v 0 C 9.7981974,2.248699 9.7735541,1.8912352 9.978825,1.6559048 v 0 c 0.205542,-0.2350595 0.562735,-0.2591612 0.796982,-0.053349 v 0 c 0.815667,0.7097823 1.43825,1.6150865 1.815212,2.6295255 0.287325,0.7734217 0.425978,1.5931512 0.405667,2.4147764 v 0 c -0.0073,0.3119684 -0.266473,0.559485 -0.578441,0.5524441 v 0 C 12.106006,7.1922611 11.858489,6.932829 11.86553,6.6208606 v 0 C 11.884486,5.9414086 11.768581,5.2641229 11.531355,4.6258334 11.22047,3.7887723 10.705126,3.042702 10.034069,2.4539699 Z m -7.5254254,0.450621 v 0 C 2.2998523,3.1350468 1.9418468,3.1531908 1.7097661,2.944941 v 0 C 1.4776855,2.7366913 1.4581874,2.3792275 1.6664372,2.1471468 v 0 C 2.368637,1.3677673 3.2495686,0.76928624 4.2350314,0.40315664 5.1833937,0.05083813 6.2027072,-0.07779468 7.2087512,0.03377736 v 0 c 0.3106144,0.03439235 0.5348417,0.31440567 0.5004494,0.62502007 v 0 C 7.6748082,0.96941182 7.3947949,1.1936391 7.0841805,1.1592468 v 0 C 6.2541603,1.066902 5.4127663,1.171433 4.6285124,1.4625494 3.815553,1.7647688 3.0881683,2.2579064 2.5086436,2.9045909 Z M 2.434172,10.007018 v 0 c 0.2039169,0.235601 0.1779195,0.592252 -0.058223,0.79644 v 0 c -0.236143,0.204188 -0.5938777,0.177649 -0.7983361,-0.05904 v 0 C 1.0731014,10.157044 0.67555833,9.484904 0.40610644,8.7591442 0.04972585,7.8002204 -0.07728213,6.768179 0.04187247,5.7502196 v 0 C 0.07680644,5.4409592 0.35709057,5.21944 0.66743415,5.2554572 v 0 c 0.31034359,0.036017 0.53294605,0.3168429 0.49638725,0.626374 v 0 c -0.09749,0.8411232 0.00758,1.6914538 0.3016778,2.4835612 0.2234149,0.6011891 0.549736,1.155258 0.9686728,1.6416256 z M 9.4377548,0.84863238 C 9.5463479,1.1411028 9.3971339,1.4666115 9.1049343,1.5752047 8.8124639,1.6837978 8.4869552,1.5345838 8.3780912,1.2423842 8.269498,0.94991379 8.4187121,0.62440507 8.7111825,0.5158119 9.0036529,0.40694792 9.3291616,0.55616198 9.4377548,0.84863238 Z M 4.2483009,11.44933 c 0.1085931,0.292471 -0.040621,0.617979 -0.3330913,0.726572 -0.2924704,0.108594 -0.6179791,-0.04035 -0.7265723,-0.33282 -0.1085932,-0.29247 0.040621,-0.617979 0.3328205,-0.726572 0.2924704,-0.108593 0.6179791,0.04062 0.7268431,0.33282 z M 12.734004,8.2968785 C 12.625411,8.0044081 12.299632,7.855194 12.007432,7.9637872 c -0.29247,0.1085932 -0.441684,0.4343727 -0.333091,0.7265723 0.108593,0.2924704 0.434373,0.4416844 0.726572,0.3330913 0.292471,-0.1085932 0.441685,-0.4343727 0.333091,-0.7265723 z M 1.5388876,3.7833562 C 1.4300236,3.4908858 1.1045149,3.3416717 0.81204452,3.4502649 0.51984493,3.558858 0.37063086,3.8846376 0.47922404,4.1768372 0.58781721,4.4693076 0.91332593,4.6185216 1.2057963,4.5099284 1.4982667,4.4013353 1.6474808,4.0755557 1.5388876,3.7833562 Z"
       fill-rule="evenodd"
       fill="url(#_lgradient_4)"
       id="path9"
       style="fill:url(#_lgradient_4);stroke-width:0.270806" />
  </g>
</svg>
