<?xml version="1.0" encoding="UTF-8" standalone="no"?>
<svg
   width="16"
   height="16"
   version="1.1"
   id="svg7"
   sodipodi:docname="tuxedo-control-center.svg"
   inkscape:version="1.4.4 (unknown)"
   xmlns:inkscape="http://www.inkscape.org/namespaces/inkscape"
   xmlns:sodipodi="http://sodipodi.sourceforge.net/DTD/sodipodi-0.dtd"
   xmlns:xlink="http://www.w3.org/1999/xlink"
   xmlns="http://www.w3.org/2000/svg"
   xmlns:svg="http://www.w3.org/2000/svg">
  <defs
     id="defs7">
    <linearGradient
       id="linearGradient11"
       inkscape:collect="always">
      <stop
         style="stop-color:#c2352a;stop-opacity:1;"
         offset="0"
         id="stop10" />
      <stop
         style="stop-color:#00ccff;stop-opacity:1"
         offset="1"
         id="stop11" />
    </linearGradient>
    <linearGradient
       id="linearGradient7"
       inkscape:collect="always">
      <stop
         style="stop-color:#c2352a;stop-opacity:1;"
         offset="0"
         id="stop7" />
      <stop
         style="stop-color:#8d5fd3;stop-opacity:1"
         offset="1"
         id="stop8" />
    </linearGradient>
    <linearGradient
       inkscape:collect="always"
       xlink:href="#linearGradient7"
       id="linearGradient8"
       x1="17.715984"
       y1="7.4233012"
       x2="7.5402908"
       y2="21"
       gradientUnits="userSpaceOnUse" />
    <linearGradient
       inkscape:collect="always"
       xlink:href="#linearGradient11"
       id="linearGradient10"
       x1="10.939394"
       y1="16.272726"
       x2="20"
       y2="16.272726"
       gradientUnits="userSpaceOnUse" />
  </defs>
  <sodipodi:namedview
     id="namedview7"
     pagecolor="#ffffff"
     bordercolor="#000000"
     borderopacity="0.25"
     inkscape:showpageshadow="2"
     inkscape:pageopacity="0.0"
     inkscape:pagecheckerboard="0"
     inkscape:deskcolor="#d1d1d1"
     inkscape:zoom="31.541667"
     inkscape:cx="14.488771"
     inkscape:cy="9.6856011"
     inkscape:window-width="1920"
     inkscape:window-height="994"
     inkscape:window-x="0"
     inkscape:window-y="0"
     inkscape:window-maximized="1"
     inkscape:current-layer="svg7" />
  <g
     id="g7"
     transform="translate(-5.5,-6.5)">
    <path
       style="opacity:0.1;stroke-width:0.393939"
       d="M 15.084818,8.3939394 C 13.661121,8.4037485 12.563606,8.8583939 11.40503,9.4540303 7.5634515,11.428061 7,15.246515 7,16.619788 7,18.146697 7.5744424,19.740576 8.3366364,21 H 10.044758 C 9.0654242,19.790606 8.3405758,18.117939 8.3787879,16.511848 c 0.057909,-2.44203 1.5119394,-4.654393 3.6908181,-5.773969 0.967909,-0.497546 2.022091,-0.9651517 3.072333,-0.9651517 1.403213,0 2.193061,0.2375457 3.753849,1.2889697 0.125667,0.07603 0.232818,0.08982 0.343515,0.08982 C 19.788848,11.151515 20,10.762303 20,10.454636 20,10.217091 19.910182,9.995697 19.708485,9.8649091 17.929061,8.6666242 16.869364,8.3939394 15.084818,8.3939394 Z"
       id="path2" />
    <path
       style="fill:url(#linearGradient8);stroke-width:0.393939"
       d="M 15.084818,8.0001182 C 13.661121,8.0099273 12.563606,8.4647303 11.40503,9.0600909 7.5634515,11.034121 7,14.852576 7,16.225848 c 0,1.52691 0.5744424,3.120788 1.3366364,4.380213 H 10.044758 C 9.0654242,19.396667 8.3405758,17.724 8.3787879,16.117909 c 0.057909,-2.441636 1.5119394,-4.654 3.6908181,-5.77397 0.967909,-0.4975451 2.022091,-0.9651511 3.072333,-0.9651511 1.403213,0 2.193061,0.2375454 3.753849,1.2889701 0.125667,0.07642 0.232818,0.08982 0.343515,0.08982 C 19.788848,10.757576 20,10.368364 20,10.060697 20,9.8235455 19.910182,9.6021515 19.708485,9.4713636 17.929061,8.272803 16.869364,8.0001182 15.084818,8.0001182 Z"
       id="path3" />
    <path
       style="opacity:0.1;stroke-width:0.393939"
       d="m 18.836303,12.333333 h -7.896909 v 1.181819 H 17.309 l -1.391,2.174545 -1.120364,-1.780606 H 13.444848 L 15.21403,16.676121 12.392242,21 H 20 v -1.181818 h -6.054455 l 1.677788,-2.514121 1.294485,2.120181 h 1.357515 l -1.937394,-3.090454 z"
       id="path4" />
    <path
       style="fill:url(#linearGradient10);stroke-width:0.393939"
       d="m 18.836303,11.939394 h -7.896909 v 1.181818 H 17.309 l -1.391,2.174546 -1.120364,-1.780606 h -1.352788 l 1.769182,2.76703 -2.821788,4.323879 H 20 v -1.181819 h -6.054455 l 1.677788,-2.514121 1.294485,2.120182 h 1.357515 l -1.937394,-3.090455 z"
       id="path5" />
    <path
       style="opacity:0.2;fill:#ffffff;stroke-width:0.393939"
       d="M 15.084818,8 C 13.661515,8.0098091 12.563606,8.4648485 11.40503,9.0600909 7.5633727,11.034121 7,14.852576 7,16.225848 c 0,0.06579 0.00252,0.131576 0.00461,0.197758 0.051133,-1.508 0.7237848,-5.080242 4.400421,-6.9695757 1.158576,-0.5952424 2.256485,-1.0502818 3.679788,-1.0600909 1.784546,0 2.844243,0.2727242 4.623667,1.4709697 0.140242,0.091 0.224939,0.2257269 0.264727,0.3785759 C 19.989364,10.18203 20,10.119394 20,10.060303 20,9.8231515 19.910182,9.6021515 19.708485,9.4709697 17.929061,8.2727242 16.869364,8 15.084818,8 Z m -6.7020907,8.45197 c -7.879e-4,0.02009 -0.00355,0.03979 -0.00394,0.05988 -0.034273,1.438667 0.5448182,2.929334 1.3697273,4.094213 H 10.044758 C 9.1327879,19.480182 8.443,17.952879 8.3827273,16.45197 Z"
       id="path7" />
  </g>
</svg>
