<?xml version="1.0" encoding="UTF-8" standalone="no"?>
<svg
   width="16"
   height="16"
   version="1"
   id="svg7"
   sodipodi:docname="ar.com.tuxguitar.TuxGuitar.svg"
   inkscape:version="1.4.4 (unknown)"
   xmlns:inkscape="http://www.inkscape.org/namespaces/inkscape"
   xmlns:sodipodi="http://sodipodi.sourceforge.net/DTD/sodipodi-0.dtd"
   xmlns:xlink="http://www.w3.org/1999/xlink"
   xmlns="http://www.w3.org/2000/svg"
   xmlns:svg="http://www.w3.org/2000/svg">
  <defs
     id="defs7">
    <linearGradient
       id="a"
       x1="23.875999"
       x2="23.875999"
       y1="16.35"
       y2="31.354"
       gradientTransform="matrix(1.3281306,0.0186672,-0.01245925,0.94967047,25.584553,6.7845844)"
       gradientUnits="userSpaceOnUse">
      <stop
         offset="0"
         stop-color="#f62f09"
         id="stop1-3" />
      <stop
         offset="1"
         stop-color="#ff0034"
         id="stop2-6" />
    </linearGradient>
    <linearGradient
       inkscape:collect="always"
       xlink:href="#linearGradient6"
       id="linearGradient7-3"
       x1="7.6925001"
       y1="13.484332"
       x2="9.2706251"
       y2="-4.412658e-05"
       gradientUnits="userSpaceOnUse" />
    <linearGradient
       id="linearGradient6"
       inkscape:collect="always">
      <stop
         style="stop-color:#7137c8;stop-opacity:1"
         offset="0"
         id="stop6" />
      <stop
         style="stop-color:#00ccff;stop-opacity:1"
         offset="1"
         id="stop7-6" />
    </linearGradient>
  </defs>
  <sodipodi:namedview
     id="namedview7"
     pagecolor="#ffffff"
     bordercolor="#000000"
     borderopacity="0.25"
     inkscape:showpageshadow="2"
     inkscape:pageopacity="0.0"
     inkscape:pagecheckerboard="0"
     inkscape:deskcolor="#d1d1d1"
     inkscape:zoom="23.375"
     inkscape:cx="8.9411765"
     inkscape:cy="14.737968"
     inkscape:window-width="1920"
     inkscape:window-height="994"
     inkscape:window-x="0"
     inkscape:window-y="0"
     inkscape:window-maximized="1"
     inkscape:current-layer="svg7" />
  <g
     id="g1"
     transform="translate(2.4166658,-22.46791)">
    <g
       id="g6"
       transform="translate(-1.7966658,23.967952)"
       style="isolation:isolate">
      <path
         d="m 1.3513598,10.026137 c 0.020496,0.05877 0.054656,0.110229 0.099476,0.152478 0.050557,-0.0092 0.076793,0.01137 0.069962,0.05335 0.076519,0.04875 0.169436,0.06771 0.2596196,0.05687 l -0.429056,-0.262707 v 0 z M 8.831137,5.668464 v 0 C 8.713625,5.5728606 8.6958616,5.4016953 8.791511,5.2865921 v 0 C 8.8871602,5.1714888 9.0606955,5.1544265 9.1782075,5.2486757 v 0 c 0.3743989,0.3060392 0.6750109,0.6906195 0.8799735,1.129366 0.215895,0.4604129 0.32794,0.9641589 0.32794,1.4760298 0.0082,0.8422849 -0.303345,1.6574867 -0.8717745,2.2858145 -0.2678181,0.295206 -0.5930258,0.536246 -0.9537603,0.704162 -0.371666,0.170623 -0.7733932,0.259997 -1.1805861,0.259997 -0.4071928,0 -0.80892,-0.08937 -1.180586,-0.259997 C 5.8386796,10.676132 5.5134719,10.435092 5.2456538,10.139886 4.6772235,9.5115582 4.3656799,8.6963564 4.3738785,7.8540715 c 0,-0.4820795 0.098382,-0.9587423 0.2924136,-1.4029054 0.185833,-0.41708 0.4563841,-0.790827 0.7952559,-1.0995745 v 0 C 5.5730477,5.251384 5.7463098,5.2600506 5.8482446,5.3705497 v 0 c 0.1019347,0.1104992 0.093736,0.2816645 -0.017763,0.381872 v 0 C 5.546266,6.007003 5.3221733,6.3211671 5.1691344,6.667831 5.0024311,7.041578 4.9204462,7.4478247 4.9204462,7.8540715 4.9149846,8.5636491 5.1746,9.2515603 5.6501138,9.779681 c 0.2213598,0.24104 0.4864452,0.436038 0.7815916,0.574162 0.2978794,0.138124 0.6203543,0.20854 0.9482947,0.20854 0.3279405,0 0.6504154,-0.07042 0.9482948,-0.20854 C 8.6234413,10.215719 8.8885267,10.020721 9.1098865,9.779681 9.5854003,9.2515603 9.8450199,8.5636491 9.8395541,7.8540715 9.842287,7.4234499 9.7466377,6.9955367 9.5635376,6.6055398 9.3913689,6.2426261 9.1426804,5.920337 8.831137,5.668464 Z M 8.7464192,3.5207729 c 0,-0.1435405 0.05739,-0.2816644 0.1612373,-0.3818719 0.101115,-0.1029159 0.2404898,-0.1597904 0.3853302,-0.1597904 0.1448403,0 0.2842151,0.056875 0.3853301,0.1597904 0.1038479,0.1002075 0.1612373,0.2383314 0.1612373,0.3818719 0,0.1435405 -0.05739,0.2816644 -0.1612373,0.381872 -0.101115,0.1029158 -0.2404898,0.1597903 -0.3853301,0.1597903 -0.1448404,0 -0.2842152,-0.056875 -0.3853302,-0.1597903 C 8.8038087,3.8024373 8.7464192,3.6643134 8.7464192,3.5207729 Z m -3.5526894,0 c 0,-0.1494988 0.1224312,-0.2708311 0.2732838,-0.2708311 0.1508526,0 0.2732839,0.1213323 0.2732839,0.2708311 0,0.1494988 -0.1224313,0.2708312 -0.2732839,0.2708312 -0.1508526,0 -0.2732838,-0.1213324 -0.2732838,-0.2708312 z m -0.2732836,0 c 0,-0.1435405 0.05739,-0.2816644 0.1612373,-0.3818719 0.101115,-0.1029159 0.2404898,-0.1597904 0.3853301,-0.1597904 0.1448403,0 0.2842151,0.056875 0.3853303,0.1597904 0.1038477,0.1002075 0.1612372,0.2383314 0.1612372,0.3818719 0,0.1435405 -0.05739,0.2816644 -0.1612372,0.381872 -0.1011152,0.1029158 -0.24049,0.1597903 -0.3853303,0.1597903 -0.1448403,0 -0.2842151,-0.056875 -0.3853301,-0.1597903 C 4.9778356,3.8024373 4.9204462,3.6643134 4.9204462,3.5207729 Z m 3.2794052,0 c 0,-0.287081 0.1147792,-0.5633288 0.3197421,-0.7664522 0.2049629,-0.2031233 0.4837122,-0.3168724 0.7733932,-0.3168724 0.2896807,0 0.5684302,0.1137491 0.7733933,0.3168724 0.204963,0.2031234 0.319741,0.4793712 0.319741,0.7664522 0,0.287081 -0.114778,0.5633288 -0.319741,0.7664522 -0.2049631,0.2031234 -0.4837126,0.3168725 -0.7733933,0.3168725 -0.289681,0 -0.5684303,-0.1137491 -0.7733932,-0.3168725 C 8.3146306,4.0841017 8.1998514,3.8078539 8.1998514,3.5207729 Z m -3.8259729,0 c 0,-0.287081 0.1147792,-0.5633288 0.319742,-0.7664522 0.2049629,-0.2031233 0.4837124,-0.3168724 0.7733931,-0.3168724 0.289681,0 0.5684304,0.1137491 0.7733932,0.3168724 0.2049629,0.2031234 0.3197421,0.4793712 0.3197421,0.7664522 0,0.287081 -0.1147792,0.5633288 -0.3197421,0.7664522 C 6.035444,4.4903485 5.7566946,4.6040976 5.4670136,4.6040976 5.1773329,4.6040976 4.8985834,4.4903485 4.6936205,4.2872251 4.4886577,4.0841017 4.3738785,3.8078539 4.3738785,3.5207729 Z m -2.3693703,5.82287 C 1.9689812,9.1676026 1.9498513,8.9861457 1.9498513,8.8019806 c 0,-0.3574972 0.071053,-0.712286 0.2049629,-1.0454083 C 2.2832576,7.4396998 2.4499607,7.1417855 2.6549235,6.8682461 3.0074597,6.3915832 3.4337824,5.9745032 3.9202275,5.6359643 3.7617229,5.2351342 3.6797376,4.8072209 3.6797376,4.3765994 3.6824705,3.4286903 4.0732663,2.5214059 4.7592087,1.8605779 5.461548,1.1862083 6.4016442,0.809753 7.3800001,0.81246131 8.3583561,0.809753 9.3011852,1.1862083 10.000792,1.8605779 c 0.688675,0.660828 1.076737,1.5681124 1.079471,2.5160215 0,0.3358306 -0.04918,0.6716613 -0.147573,0.9939503 -0.04918,0.1624987 0.0082,0.3412473 0.147573,0.4414548 0.388063,0.3033309 0.7324,0.6581198 1.024813,1.0535333 0.204964,0.2762477 0.371667,0.574162 0.500109,0.8910345 0.133911,0.3331223 0.204964,0.6879111 0.204964,1.0454083 0,0.1814568 -0.01913,0.3629137 -0.05466,0.5416623 C 12.65711,9.2813517 12.569659,9.2082273 12.490407,9.1242696 12.340101,8.9698959 12.21439,8.7965639 12.113275,8.6096904 12.03129,8.4634416 11.870053,8.3794839 11.703351,8.3984421 c -0.166704,0.021667 -0.30608,0.1408322 -0.347072,0.3006226 -0.235024,0.8829096 -0.776125,1.6547783 -1.5249233,2.1856073 0.4263223,-0.05687 0.8581113,0.01354 1.2407093,0.203124 0.09292,0.04604 0.180366,0.102915 0.259618,0.167915 0.05194,0.04333 0.09566,0.09479 0.128444,0.154374 0.01639,0.02979 0.02733,0.06229 0.02733,0.09479 -0.0027,0.05958 -0.0246,0.116457 -0.06559,0.162498 -0.08745,0.102916 -0.196765,0.184165 -0.319743,0.243748 -0.180368,0.09208 -0.371665,0.159791 -0.56843,0.200415 -0.240489,0.05146 -0.483712,0.07583 -0.7296677,0.07583 C 9.4815505,12.190066 9.1618084,12.144036 8.8529977,12.05195 8.730024,12.01403 8.6097792,11.96529 8.4977329,11.905702 8.3556252,11.832572 8.2299147,11.729661 8.1287997,11.602371 c -0.2459553,0.04604 -0.4973765,0.07042 -0.7487976,0.07312 -0.2514211,-0.0027 -0.5028421,-0.02708 -0.7487976,-0.07312 -0.101115,0.12729 -0.2268255,0.230206 -0.368933,0.303331 -0.1120465,0.05958 -0.2322914,0.108332 -0.355269,0.146248 -0.3088107,0.09208 -0.6285527,0.138124 -0.9510275,0.135416 -0.2459554,0 -0.489178,-0.02437 -0.7296677,-0.07583 C 4.0295428,12.070916 3.8382444,12.003204 3.6578769,11.911121 3.5348993,11.854251 3.4255858,11.770289 3.338135,11.667373 3.299875,11.621333 3.27528,11.564457 3.272546,11.504875 c 0,-0.03521 0.010931,-0.06771 0.027329,-0.09479 0.032794,-0.05958 0.076519,-0.111041 0.1284433,-0.154374 0.079252,-0.065 0.1667033,-0.121874 0.2596197,-0.167915 C 4.0732663,10.898214 4.5050546,10.827798 4.9286446,10.884672 4.1798471,10.353843 3.6387452,9.5819743 3.406454,8.6990647 3.3627285,8.5392743 3.2233538,8.4201086 3.0593835,8.3984421 2.8926803,8.3794839 2.7287102,8.4634416 2.6494579,8.6096904 2.54561,8.7965639 2.4198995,8.9698959 2.2723262,9.1242696 2.1903411,9.2082273 2.1028903,9.2813517 2.0045082,9.3436429 Z M 12.976852,10.288844 c -0.0656,-0.0054 -0.128444,-0.01896 -0.191299,-0.04062 -0.139375,-0.04063 -0.27055,-0.0975 -0.393529,-0.170624 -0.1831,-0.1083321 -0.349802,-0.2410394 -0.497376,-0.3927049 -0.0054,-0.00812 -0.01366,-0.013542 -0.01913,-0.021667 -0.114778,0.2491647 -0.25142,0.4874959 -0.407192,0.7122859 0.139375,0.07042 0.273283,0.15979 0.393529,0.259998 0.12571,0.105624 0.235023,0.232914 0.314276,0.379163 0.08745,0.151666 0.131175,0.322289 0.131175,0.495621 -0.0054,0.251873 -0.09839,0.492913 -0.262351,0.685203 -0.158505,0.184165 -0.35527,0.335831 -0.576629,0.444163 -0.240491,0.121874 -0.497376,0.211248 -0.762462,0.265415 -0.295146,0.065 -0.598492,0.09479 -0.8991038,0.09479 C 9.4023001,13.002567 9.0005729,12.945697 8.61251,12.829243 8.4403412,12.775073 8.2736381,12.707369 8.1151335,12.623411 8.0249495,12.577371 7.937499,12.523204 7.8555139,12.460913 c -0.1585046,0.01625 -0.3170092,0.02437 -0.4755138,0.02708 -0.1585046,-0.0027 -0.3170092,-0.01083 -0.4755138,-0.02708 -0.081985,0.06229 -0.169436,0.116457 -0.2596195,0.162498 -0.1585046,0.08396 -0.3252078,0.151666 -0.4973766,0.205832 -0.3880629,0.116457 -0.78979,0.173332 -1.1942501,0.170624 -0.3006121,0 -0.6039571,-0.02979 -0.8991037,-0.09479 C 3.7890512,12.850906 3.5321645,12.761532 3.2916747,12.639658 3.0703148,12.531326 2.8735505,12.37966 2.715046,12.195495 2.5510756,12.003205 2.4581592,11.762165 2.4526934,11.510292 c 0,-0.173332 0.046458,-0.343955 0.1311764,-0.495621 0.081985,-0.146249 0.1885658,-0.273539 0.3142764,-0.379163 C 3.0211238,10.5353 3.1523,10.445926 3.2916747,10.37551 3.1359029,10.15072 2.9992611,9.9123883 2.8844819,9.6632236 c -0.00546,0.00812 -0.013664,0.013542 -0.019129,0.021667 -0.1475735,0.1543733 -0.3142766,0.2843723 -0.4973767,0.3927044 -0.1257105,0.07312 -0.2568867,0.129999 -0.3935286,0.170624 -0.062855,0.02167 -0.1284435,0.03521 -0.1940315,0.04062 -0.1093136,0.01354 -0.2186271,0.0081 -0.3279405,-0.01625 C 1.4169481,10.191349 1.381421,10.110095 1.3513601,10.026137 1.2065195,9.6334322 1.13,9.2190605 1.13,8.8019806 1.1327329,8.3415676 1.2201837,7.8838629 1.3923524,7.4559497 1.5481242,7.0767861 1.7503541,6.7165806 1.9963097,6.3861666 2.2777918,6.0015863 2.6057325,5.6495058 2.9719327,5.33805 2.8981462,5.0238859 2.8598863,4.7015968 2.8598863,4.3765994 2.8626193,3.2093171 3.3435987,2.0907844 4.1880456,1.2782909 5.0434238,0.45496417 6.1884829,-0.00274049 7.3800001,-3.217571e-5 8.5715174,-0.00274049 9.7165765,0.45496417 10.571956,1.2782909 c 0.847178,0.8124935 1.325426,1.9310262 1.328158,3.0983085 0,0.3249974 -0.03827,0.6472865 -0.112046,0.9614506 0.3662,0.3114558 0.69414,0.6635363 0.978356,1.0481166 0.245955,0.330414 0.445453,0.6879111 0.601223,1.0697831 0.17217,0.4279132 0.25962,0.8829096 0.262353,1.3460309 0,0.4170799 -0.07651,0.8314516 -0.22136,1.2241564 -0.03006,0.08396 -0.319742,0.276248 -0.431788,0.262707 0.09291,0.01083 0.183101,-0.0081 0.262353,-0.05687 0.07925,-0.04875 0.136641,-0.119166 0.169435,-0.205832 l -0.431788,0.262707 v 0 z M 9.0197028,3.5207729 c 0,-0.1494988 0.1224313,-0.2708311 0.2732839,-0.2708311 0.1508526,0 0.2732838,0.1213323 0.2732838,0.2708311 0,0.1494988 -0.1224312,0.2708312 -0.2732838,0.2708312 -0.1508526,0 -0.2732839,-0.1213324 -0.2732839,-0.2708312 z"
         fill-rule="evenodd"
         id="path2-7"
         style="fill:url(#linearGradient7-3)" />
      <path
         d="m 6.8388983,4.3332664 h 1.0822036 c 0.1202451,-0.00271 0.2377571,0.037916 0.3279406,0.1164574 0.092917,0.083958 0.1475733,0.2031234 0.1448406,0.3277057 0,0.059583 -0.013664,0.1191657 -0.035527,0.1760403 l -0.62582,1.6547783 c -0.019129,0.059583 -0.051923,0.1137491 -0.092916,0.1624987 -0.062856,0.075833 -0.1585048,0.1218741 -0.2596198,0.1218741 -0.101115,0 -0.1967643,-0.046041 -0.2596197,-0.1218741 C 7.079388,6.7219972 7.046594,6.667831 7.0274642,6.6082481 L 6.4016442,4.9534698 C 6.3797815,4.8965952 6.3661172,4.8370124 6.3661172,4.7774295 6.3633845,4.6528472 6.4180412,4.5336815 6.5109578,4.4497238 6.6011413,4.3711828 6.7186533,4.3305581 6.8388983,4.3332664 Z M 7.3800001,5.998878 6.9536774,4.8749287 h 0.8526455 z"
         fill-rule="evenodd"
         id="path4-5"
         style="fill:#ff9955" />
      <path
         d="m 13.40864,10.020721 c -0.0246,0.104541 -0.122157,0.139749 -0.169435,0.211248 -0.162604,0.04523 -0.244589,0.09398 -0.393529,0.01625 z"
         fill="#775fa1"
         id="path5-3"
         style="stroke-width:0.272055" />
      <path
         d="m 1.3513598,10.026137 c 0.055478,0.151937 0.1557719,0.189853 0.1694361,0.211249 0.063402,0.0436 0.1508526,0.09777 0.3935286,0.01625 z"
         fill="#765ea0"
         id="path6-5"
         style="stroke-width:0.272055" />
    </g>
    <path
       d="m 8.5574156,32.527157 c 0.1946046,-0.04027 0.3845912,0.03414 0.4769894,0.176791 l 0.038906,-0.0099 c 0.186519,-0.14414 0.4476768,-0.271424 0.7542627,-0.350277 0.3067743,-0.07886 0.5991273,-0.09413 0.8355103,-0.05892 0,0 0.05918,-0.01523 0.132348,-0.03408 0.07308,-0.01888 0.103264,-0.138374 0.06739,-0.267103 l -0.21103,-0.758067 c -0.03569,-0.128597 -0.123331,-0.217877 -0.19553,-0.199284 l -0.130833,0.03362 c -0.186582,0.144814 -0.4488999,0.272979 -0.7572374,0.352321 -0.308036,0.07927 -0.6018657,0.09431 -0.8389825,0.05843 l -0.026988,0.0071 c 0.00885,0.178714 -0.1223612,0.349349 -0.3226438,0.411224 L 6.365908,32.40061 C 6.312044,32.364193 6.2474535,32.266861 6.2318854,32.012185 6.2040235,31.556871 5.8088305,31.075148 4.9928765,31.54128 4.1769215,32.007407 4.4530788,32.32553 3.1993198,31.770454 l 4.03e-5,5.34e-4 c -0.4284224,-0.22111 -0.9112949,-0.294954 -1.3804426,-0.174323 -1.11267139,0.286373 -1.72603203,1.555873 -1.37007105,2.835752 0.35611875,1.279679 1.54701145,2.084959 2.65974575,1.798471 0.019907,-0.0051 0.039627,-0.01128 0.059274,-0.01711 l -6.38e-5,6.36e-4 c 0,0 0.00748,-0.0026 0.020177,-0.0066 0.09222,-0.02818 0.1805168,-0.06328 0.2650371,-0.104735 0.3295149,-0.149693 0.8540731,-0.458677 1.0700564,-0.976075 0.3259175,-0.781147 0.998471,-0.342321 1.3894317,-0.357594 0.3908613,-0.01524 0.5820149,-0.114113 0.6946794,-0.292771 0,0 -0.4765599,0.0373 -0.6132551,-0.453963 -0.1098774,-0.394859 0.2416242,-0.751768 0.4768053,-0.911843 l 2.0862824,-0.584289 z"
       id="path4-2"
       style="opacity:0.2;stroke-width:0.018361" />
    <path
       d="m 8.5574156,32.324045 c 0.1946046,-0.04027 0.3845912,0.03416 0.4769894,0.176794 l 0.038906,-0.0099 C 9.25983,32.346802 9.5209878,32.219512 9.8275737,32.14066 10.134348,32.0618 10.426701,32.04653 10.663084,32.08174 c 0,0 0.05918,-0.01523 0.132348,-0.03408 0.07308,-0.01888 0.103264,-0.138368 0.06739,-0.267099 l -0.211029,-0.758062 c -0.03569,-0.128604 -0.123331,-0.217884 -0.19553,-0.19929 l -0.130833,0.03364 c -0.186582,0.144815 -0.4489,0.272982 -0.7572368,0.352325 -0.3080362,0.07927 -0.6018659,0.0943 -0.8389827,0.05843 l -0.026988,0.0071 c 0.00885,0.178714 -0.1223611,0.349349 -0.3226437,0.411224 l -2.0136693,0.51162 C 6.3120483,32.16113 6.2474571,32.0638 6.2318889,31.809121 6.204027,31.353809 5.8088341,30.872087 4.9928801,31.338215 c -0.815955,0.46613 -0.5397976,0.784253 -1.7935565,0.229177 l 4.01e-5,5.29e-4 C 2.7709395,31.346793 2.288067,31.272949 1.8189194,31.393579 0.70624788,31.679954 0.09288724,32.949453 0.44884823,34.229331 0.80496698,35.50901 1.9958597,36.31429 3.1085939,36.027802 c 0.019907,-0.0051 0.039627,-0.01128 0.059274,-0.01711 l -6.35e-5,6.35e-4 c 0,0 0.00748,-0.0026 0.020177,-0.0066 0.09222,-0.02819 0.1805167,-0.06328 0.2650368,-0.104734 0.329515,-0.149672 0.8540732,-0.458656 1.0700565,-0.976054 0.3259174,-0.781147 0.9984708,-0.342322 1.3894317,-0.357595 0.3908613,-0.01524 0.5820147,-0.114112 0.6946794,-0.29277 0,0 -0.4765598,0.0373 -0.613255,-0.453963 -0.109878,-0.394825 0.2416239,-0.751735 0.4768037,-0.91181 l 2.0862836,-0.584364 z"
       id="path7-2-9"
       style="fill:#ffb380;stroke-width:0.018361" />
    <circle
       style="fill:#33404c;fill-opacity:1;stroke-width:0.202504"
       cx="3.5878024"
       cy="33.453762"
       r="0.81000608"
       id="circle7-1" />
  </g>
</svg>
