<?xml version="1.0" encoding="UTF-8" standalone="no"?>
<svg
   width="16"
   height="16"
   version="1.1"
   id="svg5"
   sodipodi:docname="ue4editor.svg"
   inkscape:version="1.4.4 (unknown)"
   xmlns:inkscape="http://www.inkscape.org/namespaces/inkscape"
   xmlns:sodipodi="http://sodipodi.sourceforge.net/DTD/sodipodi-0.dtd"
   xmlns:xlink="http://www.w3.org/1999/xlink"
   xmlns="http://www.w3.org/2000/svg"
   xmlns:svg="http://www.w3.org/2000/svg">
  <defs
     id="defs5">
    <linearGradient
       id="linearGradient1"
       inkscape:collect="always">
      <stop
         style="stop-color:#2c5aa0;stop-opacity:1"
         offset="0"
         id="stop1" />
      <stop
         style="stop-color:#8d5fd3;stop-opacity:1"
         offset="1"
         id="stop2" />
    </linearGradient>
    <linearGradient
       inkscape:collect="always"
       xlink:href="#linearGradient1"
       id="linearGradient2"
       x1="3.9832268"
       y1="14.604672"
       x2="9.922473"
       y2="5.3288045"
       gradientUnits="userSpaceOnUse" />
  </defs>
  <sodipodi:namedview
     id="namedview5"
     pagecolor="#ffffff"
     bordercolor="#000000"
     borderopacity="0.25"
     inkscape:showpageshadow="2"
     inkscape:pageopacity="0.0"
     inkscape:pagecheckerboard="0"
     inkscape:deskcolor="#d1d1d1"
     inkscape:zoom="20"
     inkscape:cx="4.55"
     inkscape:cy="10.575"
     inkscape:window-width="1920"
     inkscape:window-height="994"
     inkscape:window-x="0"
     inkscape:window-y="0"
     inkscape:window-maximized="1"
     inkscape:current-layer="svg5" />
  <g
     id="g1"
     transform="translate(-0.38467429,-0.4541394)">
    <path
       style="opacity:0.2;stroke-width:0.349399"
       d="M 8.659969,14.938122 C 7.038947,14.726808 5.488126,14.249478 4.555095,13.44459 4.290642,13.216452 3.761804,12.662987 3.807916,12.647694 c 0.151061,0.0292 0.467156,0.169094 0.775526,0.177418 0.308369,0.0083 0.81982,-0.317126 0.971112,-0.56567 V 9.6514307 c 0,-2.876194 0.06581,-2.827267 -0.137501,-3.004864 -0.24695,-0.215707 -1.325733,-0.148474 -1.8176538,0.181097 -0.7503552,0.502713 -1.6445869,1.6178161 -2.279536,2.7768481 -0.1127601,0.205829 -0.2145606,0.383195 -0.226222,0.394147 -0.01166,0.01095 -0.013869,-0.212576 -0.0049,-0.49674 0.024745,-0.783578 0.1702547,-1.331496 0.5684953,-2.1404301 0.363193,-0.737743 0.5464216,-0.934941 1.3215985,-1.779662 1.286057,-1.401436 2.555599,-2.369764 3.811535,-2.907211 0.296764,-0.126997 1.216374,-0.37101 1.279714,-0.37101 0.0102,0 -0.433212,0.258932 -0.53702,0.334775 -0.622247,0.454624 -0.837307,0.770911 -0.927636,1.324635 -0.06682,0.409611 0.165233,0.907591 0.345634,1.109831 0.09346,0.104777 0.127925,0.122845 0.258017,0.135283 C 7.387484,5.1894197 7.816369,5.1150097 8,5.0995807 V 11.59935 c 0,0.489234 0.208624,0.520094 0.694771,0.520094 0.493954,0 0.912983,-0.372136 1.401279,-0.688903 V 5.9556877 L 9.922473,5.3288047 c -0.07155,-0.258418 -0.26481,-0.568419 -0.525104,-0.928133 0.500113,0.0093 0.820032,0.608292 1.257632,0.7687991 1.275045,-1.009865 2.17737,-1.829821 3.633152,-2.16661 -0.634238,1.0046979 -1.068703,1.433667 -1.746708,2.4112269 v 5.8496793 c 0.0691,0.08283 0.782108,0.187718 0.951627,0.203008 1.151049,-0.163306 1.428198,-0.811319 2.192448,-1.4748532 0.02253,0.02241 -0.593417,1.1843772 -0.85337,1.5741242 -0.792128,1.187635 -1.93259,1.929304 -2.987014,2.599943 -0.197743,0.125769 -0.199963,0.126363 -0.268782,0.07228 -0.497877,-0.226897 -0.781617,-0.349978 -1.361525,-0.789562 -0.565774,0.539 -0.841061,0.932898 -1.431798,1.50543 -0.01872,-0.0025 -0.07407,-0.0096 -0.123037,-0.01604 z"
       id="path3" />
    <path
       d="M 8.659969,14.588656 C 7.038947,14.377342 5.488126,13.900013 4.555095,13.095122 4.290642,12.866987 3.761804,12.313521 3.807916,12.29823 c 0.151061,0.0292 0.467156,0.169093 0.775526,0.177415 0.308369,0.0083 0.81982,-0.317128 0.971112,-0.565669 V 9.3019628 c 0,-2.8761901 0.06581,-2.8272661 -0.137501,-3.0048591 -0.24695,-0.215708 -1.325733,-0.148478 -1.8176538,0.181092 -0.7503552,0.502717 -1.6445869,1.617816 -2.279536,2.7768511 -0.1127601,0.205829 -0.2145606,0.383195 -0.226222,0.394151 -0.01166,0.01096 -0.013869,-0.212581 -0.0049,-0.49674 0.024745,-0.7835821 0.1702547,-1.3315021 0.5684953,-2.140436 0.363193,-0.737743 0.5464216,-0.9349421 1.3215985,-1.779662 1.286057,-1.401432 2.555599,-2.369764 3.811535,-2.907211 0.296764,-0.126993 1.216374,-0.371007 1.279714,-0.371007 0.0102,0 -0.433212,0.258928 -0.53702,0.334771 -0.622247,0.454629 -0.837307,0.770915 -0.927636,1.324636 -0.06682,0.4096139 0.165233,0.9075939 0.345634,1.109831 0.09346,0.104777 0.127925,0.122849 0.258017,0.135282 C 7.387484,4.8399518 7.816369,4.7655517 8,4.7501128 v 6.4997742 c 0,0.489235 0.208624,0.520091 0.694771,0.520091 0.493954,0 0.912983,-0.372136 1.401279,-0.688903 V 5.6062207 L 9.92247,4.9793377 c -0.07155,-0.258414 -0.264808,-0.568415 -0.525102,-0.92813 0.500112,0.0093 0.820032,0.608289 1.257632,0.768796 1.275045,-1.0098659 2.177369,-1.829818 3.633152,-2.16661 -0.634238,1.004698 -1.068704,1.43367 -1.746708,2.411227 v 5.8496803 c 0.0691,0.08283 0.782107,0.187718 0.951627,0.203009 1.151049,-0.16331 1.428198,-0.811321 2.192447,-1.4748533 0.02253,0.02241 -0.593416,1.1843793 -0.85337,1.5741233 -0.792127,1.187635 -1.93259,1.929305 -2.987014,2.599944 -0.197742,0.125769 -0.199962,0.126367 -0.268782,0.07228 -0.497876,-0.226897 -0.781616,-0.349977 -1.361524,-0.789561 -0.565774,0.539004 -0.841062,0.932905 -1.431799,1.505429 -0.01872,-0.0025 -0.07407,-0.0096 -0.123037,-0.01604 z"
       id="path4"
       style="fill:url(#linearGradient2)" />
  </g>
</svg>
