<?xml version="1.0" encoding="UTF-8" standalone="no"?>
<svg
   width="16"
   height="16"
   version="1.1"
   id="svg1"
   sodipodi:docname="uget.svg"
   inkscape:version="1.4.4 (unknown)"
   xmlns:inkscape="http://www.inkscape.org/namespaces/inkscape"
   xmlns:sodipodi="http://sodipodi.sourceforge.net/DTD/sodipodi-0.dtd"
   xmlns:xlink="http://www.w3.org/1999/xlink"
   xmlns="http://www.w3.org/2000/svg"
   xmlns:svg="http://www.w3.org/2000/svg">
  <sodipodi:namedview
     id="namedview1"
     pagecolor="#ffffff"
     bordercolor="#000000"
     borderopacity="0.25"
     inkscape:showpageshadow="2"
     inkscape:pageopacity="0.0"
     inkscape:pagecheckerboard="0"
     inkscape:deskcolor="#d1d1d1"
     inkscape:zoom="17.204545"
     inkscape:cx="2.8480845"
     inkscape:cy="10.607662"
     inkscape:window-width="1920"
     inkscape:window-height="994"
     inkscape:window-x="0"
     inkscape:window-y="0"
     inkscape:window-maximized="1"
     inkscape:current-layer="svg1" />
  <defs
     id="defs1">
    <linearGradient
       id="linearGradient1"
       inkscape:collect="always">
      <stop
         style="stop-color:#2aff80;stop-opacity:1"
         offset="0"
         id="stop1" />
      <stop
         style="stop-color:#008080;stop-opacity:1"
         offset="1"
         id="stop2" />
    </linearGradient>
    <style
       id="current-color-scheme"
       type="text/css">
   .ColorScheme-Text { color:#444444; } .ColorScheme-Highlight { color:#4285f4; } .ColorScheme-NeutralText { color:#ff9800; } .ColorScheme-PositiveText { color:#4caf50; } .ColorScheme-NegativeText { color:#f44336; }
  </style>
    <linearGradient
       inkscape:collect="always"
       xlink:href="#linearGradient1"
       id="linearGradient2"
       x1="3.1274769"
       y1="13.2893"
       x2="13.529235"
       y2="1.9206984"
       gradientUnits="userSpaceOnUse" />
  </defs>
  <path
     d="m 14.5,7.1875 h -3.25 v 1.625 h 1.625 L 9.625,12.875 6.375,8.8125 H 8 v -4.875 h 3.25 V 5.5625001 H 14.5 V 3.9375 c 0,0 0,-2.4375 -2.4375,-2.4375 h -4.875 c 0,0 -2.4375,0 -2.4375,2.4375 V 4.75 9.625 H 3.125 V 4.7500001 H 1.5 V 9.625 c 0,1.625 1.625,1.625 1.625,1.625 H 4.75 v 0.8125 C 4.75,14.5 7.1875,14.5 7.1875,14.5 h 4.875 C 14.5,14.5 14.5,12.0625 14.5,12.0625"
     id="path1"
     style="fill:url(#linearGradient2);fill-opacity:1" />
</svg>
