<?xml version="1.0" encoding="UTF-8" standalone="no"?>
<svg
   width="16"
   height="16"
   version="1.1"
   id="svg10"
   sodipodi:docname="unityhub.svg"
   inkscape:version="1.4.4 (unknown)"
   xmlns:inkscape="http://www.inkscape.org/namespaces/inkscape"
   xmlns:sodipodi="http://sodipodi.sourceforge.net/DTD/sodipodi-0.dtd"
   xmlns:xlink="http://www.w3.org/1999/xlink"
   xmlns="http://www.w3.org/2000/svg"
   xmlns:svg="http://www.w3.org/2000/svg">
  <defs
     id="defs14">
    <linearGradient
       id="linearGradient1"
       inkscape:collect="always">
      <stop
         style="stop-color:#5599ff;stop-opacity:1"
         offset="0"
         id="stop5" />
      <stop
         style="stop-color:#cd87de;stop-opacity:1"
         offset="1"
         id="stop6" />
    </linearGradient>
    <linearGradient
       id="linearGradient8"
       x1="0"
       x2="0"
       y1="0"
       y2="1">
      <stop
         offset="0%"
         style="stop-color:#ff5555;stop-opacity:1"
         id="stop7" />
      <stop
         offset="100%"
         style="stop-color:#ffdd55;stop-opacity:1"
         id="stop8" />
    </linearGradient>
    <linearGradient
       id="linearGradient2"
       x1="0"
       x2="0"
       y1="0"
       y2="1">
      <stop
         offset="0%"
         style="stop-color:#ff5555;stop-opacity:1"
         id="stop1" />
      <stop
         offset="100%"
         style="stop-color:#9269F4; stop-opacity:1"
         id="stop2" />
    </linearGradient>
    <linearGradient
       id="linearGradient7013-3"
       x1="34.102001"
       x2="34.102001"
       y1="25.742001"
       y2="61.487"
       gradientUnits="userSpaceOnUse"
       gradientTransform="matrix(0.62221705,0,0,0.62177119,11.870328,-56.871672)">
      <stop
         stop-color="#fff"
         offset="0"
         id="stop3-6" />
      <stop
         stop-color="#ffcdd6"
         offset="1"
         id="stop4-7" />
    </linearGradient>
    <linearGradient
       id="aurora"
       x1="0"
       x2="0"
       y1="0"
       y2="1">
      <stop
         offset="0%"
         style="stop-color:#09D4DF; stop-opacity:1"
         id="stop3" />
      <stop
         offset="100%"
         style="stop-color:#9269F4; stop-opacity:1"
         id="stop4" />
    </linearGradient>
    <linearGradient
       id="_lgradient_40"
       x1="0.21875"
       y1="0.17506042"
       x2="1.0989902"
       y2="1.1181589"
       gradientTransform="matrix(42,0,0,42,3,3)"
       gradientUnits="userSpaceOnUse">
      <stop
         offset="0%"
         stop-opacity="1"
         style="stop-color:rgb(252,203,144)"
         id="stop2-3" />
      <stop
         offset="83.91304347826087%"
         stop-opacity="1"
         style="stop-color:rgb(213,126,235)"
         id="stop4-6" />
    </linearGradient>
    <linearGradient
       inkscape:collect="always"
       xlink:href="#linearGradient1"
       id="linearGradient6"
       x1="1.5"
       y1="14.5"
       x2="14.5"
       y2="1.5"
       gradientUnits="userSpaceOnUse" />
  </defs>
  <sodipodi:namedview
     id="namedview12"
     pagecolor="#ffffff"
     bordercolor="#666666"
     borderopacity="1.0"
     inkscape:showpageshadow="2"
     inkscape:pageopacity="0.0"
     inkscape:pagecheckerboard="0"
     inkscape:deskcolor="#d1d1d1"
     showgrid="false"
     inkscape:zoom="29.649936"
     inkscape:cx="5.8516147"
     inkscape:cy="12.630719"
     inkscape:window-width="1920"
     inkscape:window-height="994"
     inkscape:window-x="0"
     inkscape:window-y="0"
     inkscape:window-maximized="1"
     inkscape:current-layer="svg10" />
  <path
     id="path2490"
     d="M 3.047468,1.5 C 2.1931827,1.5 1.5,2.1936373 1.5,3.0479227 v 5.5714282 c 0,0.341714 0.2771827,0.6189 0.618896,0.6189 0.3417147,0 0.6193507,-0.277186 0.6193507,-0.6189 V 3.6668213 c 0,-0.5125706 0.4159999,-0.9285706 0.9285706,-0.9285706 h 4.9520786 c 0.3417146,0 0.6193506,-0.2771854 0.6193506,-0.6189 C 9.2382465,1.7776374 8.9606105,1.5 8.6188959,1.5 Z m 8.357142,0 c -0.341714,0 -0.618896,0.2776374 -0.618896,0.6193507 0,0.3417147 0.277182,0.6189 0.618896,0.6189 h 0.928572 c 0.512571,0 0.928571,0.4160001 0.928571,0.9285706 v 0.928572 c 0,0.3417133 0.277636,0.618892 0.619351,0.618892 0.341713,0 0.618896,-0.2771787 0.618896,-0.618892 V 3.0479227 C 14.5,2.1936373 13.806817,1.5 12.952532,1.5 Z M 7.6740026,3.610596 4.117048,5.6640639 v 4.107387 l 1.3602119,-0.785296 0.0072,-1.622279 c 3.107e-4,-0.05996 0.042253,-0.08416 0.094307,-0.05441 l 1.6422293,0.938544 c 0.052053,0.02975 0.093667,0.101906 0.0934,0.161869 l -0.00813,1.8911471 c -3.107e-4,0.05996 -0.042707,0.08416 -0.09476,0.05441 L 5.8036862,9.5506429 4.4430209,10.336391 7.9999755,12.389859 11.55693,10.336391 10.196265,9.5506429 8.7884448,10.355436 c -0.052053,0.02975 -0.09404,0.0056 -0.094307,-0.05441 l -0.00867,-1.8911471 c -3.094e-4,-0.05996 0.041347,-0.13212 0.0934,-0.161869 l 1.6422292,-0.938544 c 0.05205,-0.02975 0.09404,-0.0056 0.09431,0.05441 l 0.0072,1.622279 1.360212,0.785296 V 5.6640639 L 8.3258612,3.610596 v 1.5710479 l 1.4010186,0.817033 c 0.051787,0.03017 0.051787,0.07861 0,0.1088141 L 8.0932652,7.060545 c -0.0518,0.03017 -0.1350106,0.03017 -0.1868026,0 L 6.2728479,6.1074909 c -0.0518,-0.03017 -0.0518,-0.07861 0,-0.108814 l 1.4010187,-0.817033 z m 6.2071014,3.151612 c -0.341715,0 -0.619351,0.2771849 -0.619351,0.618899 v 4.95253 c 0,0.512571 -0.416,0.928571 -0.928571,0.928571 H 7.3811039 c -0.3417147,0 -0.6193507,0.277185 -0.6193507,0.618898 0,0.341715 0.277636,0.618894 0.6193507,0.618894 H 12.952532 C 13.806817,14.5 14.5,13.806821 14.5,12.952536 V 7.3811069 c 0,-0.341714 -0.277183,-0.618899 -0.618896,-0.6188989 z M 2.118896,10.785715 C 1.7771827,10.785715 1.5,11.063351 1.5,11.405065 v 1.547471 C 1.5,13.806821 2.1931827,14.5 3.047468,14.5 h 1.5479213 c 0.3417147,0 0.618896,-0.277179 0.618896,-0.618894 0,-0.341713 -0.2771813,-0.618898 -0.618896,-0.618898 h -0.928572 c -0.5125707,0 -0.9285706,-0.416 -0.9285706,-0.928571 v -0.928572 c 0,-0.341714 -0.277636,-0.61935 -0.6193507,-0.61935 z"
     style="fill:url(#linearGradient6)" />
</svg>
