<?xml version="1.0" encoding="UTF-8" standalone="no"?>
<!-- Generator: Gravit.io -->

<svg
   style="isolation:isolate"
   viewBox="0 0 16 16"
   width="16"
   height="16"
   version="1.1"
   id="svg2"
   sodipodi:docname="usbguard-icon.svg"
   inkscape:version="1.4.4 (unknown)"
   xmlns:inkscape="http://www.inkscape.org/namespaces/inkscape"
   xmlns:sodipodi="http://sodipodi.sourceforge.net/DTD/sodipodi-0.dtd"
   xmlns:xlink="http://www.w3.org/1999/xlink"
   xmlns="http://www.w3.org/2000/svg"
   xmlns:svg="http://www.w3.org/2000/svg">
  <defs
     id="defs2">
    <linearGradient
       id="linearGradient2"
       inkscape:collect="always">
      <stop
         style="stop-color:#ffdd55;stop-opacity:1"
         offset="0"
         id="stop3" />
      <stop
         style="stop-color:#d35f8d;stop-opacity:1"
         offset="1"
         id="stop4" />
    </linearGradient>
    <linearGradient
       inkscape:collect="always"
       xlink:href="#linearGradient2"
       id="linearGradient4"
       x1="2.5"
       y1="1.499999"
       x2="13.5"
       y2="14.500001"
       gradientUnits="userSpaceOnUse" />
  </defs>
  <sodipodi:namedview
     id="namedview2"
     pagecolor="#ffffff"
     bordercolor="#000000"
     borderopacity="0.25"
     inkscape:showpageshadow="2"
     inkscape:pageopacity="0.0"
     inkscape:pagecheckerboard="0"
     inkscape:deskcolor="#d1d1d1"
     inkscape:document-units="px"
     inkscape:zoom="16.727495"
     inkscape:cx="9.5053086"
     inkscape:cy="5.2906906"
     inkscape:window-width="1920"
     inkscape:window-height="994"
     inkscape:window-x="0"
     inkscape:window-y="0"
     inkscape:window-maximized="1"
     inkscape:current-layer="svg2" />
  <linearGradient
     id="_lgradient_11"
     x1="0"
     y1="0.5"
     x2="0.90748805"
     y2="0.92007786"
     gradientTransform="matrix(11.000003,0,0,13.000006,2.5000011,1.4999991)"
     gradientUnits="userSpaceOnUse">
    <stop
       offset="0%"
       stop-opacity="1"
       style="stop-color:rgb(78,84,200)"
       id="stop1" />
    <stop
       offset="83.88839793817618%"
       stop-opacity="1"
       style="stop-color:rgb(0,114,255)"
       id="stop2" />
  </linearGradient>
  <path
     d="M 2.5363845,6.0051887 2.5,7.7425025 c 0,0.00282 0,0.00282 0,0.00563 0.0061,0.7011202 0.1394706,1.3966088 0.3911248,2.0583086 0.2546857,0.6757779 0.6063947,1.3177679 1.0490627,1.9062589 0.4366041,0.58849 0.9581036,1.120666 1.5523707,1.579632 0.579107,0.450519 1.2340134,0.810934 1.9374312,1.064351 0.00304,0 0.00304,0 0.006,0 l 0.3092615,0.106998 c 0.1425029,0.05068 0.3001659,0.04787 0.4396364,-0.0056 0.254691,-0.09574 0.5002806,-0.211181 0.7307101,-0.346337 0.2486219,-0.143603 0.4851158,-0.301284 0.7094816,-0.473045 0.488146,-0.368862 0.933848,-0.785592 1.334067,-1.236111 0.421448,-0.470229 0.800443,-0.977063 1.127896,-1.509239 0.327454,-0.520913 0.597299,-1.0727982 0.806506,-1.6472099 0,0 0,-0.00282 0,-0.00282 l 0.187983,-0.526544 v 0 C 13.187071,8.4214036 13.014548,8.1023799 12.696494,8.004392 v 0 C 12.378441,7.906404 12.034919,8.06662 11.929406,8.3619914 v 0 0 l -0.18795,0.5265187 c -0.178885,0.5012023 -0.415379,0.9855102 -0.703415,1.4416609 -0.297137,0.478676 -0.636717,0.932011 -1.015713,1.354372 -0.348677,0.39702 -0.7398025,0.760251 -1.1642787,1.084062 -0.1849499,0.140787 -0.3820288,0.270311 -0.5851704,0.388572 -0.1061176,0.06195 -0.2183029,0.121077 -0.3335175,0.17176 l -0.075795,-0.02534 C 7.2844548,13.095231 6.7447639,12.799578 6.2717759,12.4279 5.7593725,12.033695 5.3106403,11.577545 4.9346755,11.070711 4.5556787,10.566693 4.2524812,10.014807 4.0341793,9.4319486 3.8280052,8.8885101 3.718854,8.3169141 3.7127901,7.7396867 l 0.036385,-1.734498 v 0 V 5.44204 4.8788913 c 0,-0.3108581 0.2716648,-0.5631487 0.6063947,-0.5631487 H 5.058988 c 0.33473,0 0.6063948,-0.2522906 0.6063948,-0.5631487 V 3.1894452 c 0,-0.3108581 0.2716648,-0.5631487 0.6063947,-0.5631487 h 3.2017641 c 0.3347294,0 0.6063954,0.2522906 0.6063954,0.5631487 v 0.5631487 c 0,0.3108581 0.271662,0.5631487 0.606393,0.5631487 h 0.994487 c 0.33473,0 0.606396,0.2522906 0.606396,0.5631487 v 0.5631487 0 c 0,0.3108581 0.271664,0.5631487 0.606393,0.5631487 v 0 C 13.228336,6.0051887 13.5,5.7528981 13.5,5.44204 v 0 -1.1262974 C 13.5,3.6940264 12.956671,3.1894452 12.287212,3.1894452 H 11.292725 V 2.6262965 c 0,-0.6217162 -0.543328,-1.1262974 -1.212788,-1.1262974 H 5.6653811 c -0.6694596,0 -1.2127895,0.5045812 -1.2127895,1.1262974 v 0.5631487 h -0.703418 c -0.6694597,0 -1.2127891,0.5045812 -1.2127891,1.1262974 V 5.44204 Z M 10.388893,9.2266809 C 10.214554,9.736612 9.87073,10.185441 9.4044112,10.50362 8.9344553,10.824615 8.3674764,10.999191 7.785337,10.999191 c -0.7246418,0 -1.4189637,-0.267495 -1.9313672,-0.743356 C 5.3445984,9.7827902 5.0565609,9.1379849 5.0565609,8.4650222 c 0,-0.6729627 0.2880375,-1.3177679 0.7974089,-1.7936286 C 6.3663733,6.1983487 7.0606952,5.9308531 7.785337,5.9308531 9.1257726,5.8579251 10.30521,6.9110134 10.392837,7.710403 H 9.0648305 C 8.7858881,7.3049359 8.3038046,7.0571505 7.785337,7.0571505 c -0.4032525,0 -0.7883127,0.1492344 -1.0733184,0.4110985 -0.2850056,0.2646799 -0.4426683,0.6222794 -0.4426683,0.9967732 0,0.3716782 0.1576627,0.7320934 0.4426683,0.9939575 0.2850057,0.2646799 0.6700659,0.4139143 1.0733184,0.4139143 0.3244218,0 0.6397468,-0.095735 0.9004967,-0.2759429 C 8.8353096,9.4955844 8.9617435,9.3697206 9.0608882,9.2266809 H 7.1950121 V 8.2082264 H 9.823127 c 0.334729,0 0.597299,0.2522907 0.586081,0.5628672 l -0.01638,0.4555873 z M 6.5203977,3.1894452 H 7.7331868 V 4.3157426 H 6.5203977 Z m 1.6645538,0 H 9.3977403 V 4.3157426 H 8.1849515 Z"
     fill-rule="evenodd"
     id="path2"
     style="fill:url(#linearGradient4)" />
</svg>
