<?xml version="1.0" encoding="UTF-8" standalone="no"?>
<!-- Generator: Gravit.io -->

<svg
   style="isolation:isolate"
   viewBox="0 0 16 16"
   width="16pt"
   height="16pt"
   version="1.1"
   id="svg2"
   sodipodi:docname="appimagekit-qtox.svg"
   inkscape:version="1.4.4 (unknown)"
   xmlns:inkscape="http://www.inkscape.org/namespaces/inkscape"
   xmlns:sodipodi="http://sodipodi.sourceforge.net/DTD/sodipodi-0.dtd"
   xmlns:xlink="http://www.w3.org/1999/xlink"
   xmlns="http://www.w3.org/2000/svg"
   xmlns:svg="http://www.w3.org/2000/svg">
  <defs
     id="defs2">
    <linearGradient
       id="linearGradient2"
       inkscape:collect="always">
      <stop
         style="stop-color:#8d5fd3;stop-opacity:1"
         offset="0"
         id="stop3" />
      <stop
         style="stop-color:#d35f8d;stop-opacity:1"
         offset="1"
         id="stop4" />
    </linearGradient>
    <linearGradient
       inkscape:collect="always"
       xlink:href="#linearGradient2"
       id="linearGradient4"
       x1="2.8804426"
       y1="11.138705"
       x2="13.500007"
       y2="8.0000001"
       gradientUnits="userSpaceOnUse" />
  </defs>
  <sodipodi:namedview
     id="namedview2"
     pagecolor="#ffffff"
     bordercolor="#000000"
     borderopacity="0.25"
     inkscape:showpageshadow="2"
     inkscape:pageopacity="0.0"
     inkscape:pagecheckerboard="0"
     inkscape:deskcolor="#d1d1d1"
     inkscape:document-units="pt"
     inkscape:zoom="23.65625"
     inkscape:cx="9.5112285"
     inkscape:cy="14.731836"
     inkscape:window-width="1920"
     inkscape:window-height="994"
     inkscape:window-x="0"
     inkscape:window-y="0"
     inkscape:window-maximized="1"
     inkscape:current-layer="svg2" />
  <linearGradient
     id="_lgradient_2"
     x1="0.47427982"
     y1="0.99734044"
     x2="0.52311558"
     y2="-0.044943441"
     gradientTransform="matrix(11.000038,0,0,13,2.4999934,1.5000002)"
     gradientUnits="userSpaceOnUse">
    <stop
       offset="0%"
       stop-opacity="1"
       style="stop-color:rgb(249,106,219)"
       id="stop1" />
    <stop
       offset="98.75%"
       stop-opacity="1"
       style="stop-color:rgb(188,49,210)"
       id="stop2" />
  </linearGradient>
  <path
     d="m 8.0000131,2.9175534 c 1.0516244,0 1.9037875,0.833383 1.9037875,1.8612128 0,1.2408085 -1.2691912,2.792234 -1.5863479,2.8082766 0,0 0.0546,-0.9470639 -0.3174396,-0.9470639 -1.0513412,0 -1.9037876,-0.8331064 -1.9037876,-1.8612127 0,-1.0278298 0.8524464,-1.8612128 1.9037876,-1.8612128 z m 0,5.8939787 c 0.5256703,0 0.9520353,0.4168298 0.9520353,0.9307447 0,0.4353622 -0.3069709,0.7982552 -0.7203217,0.8997662 h 0.085726 c 0.3171567,0 0.5112412,0.282957 0.7013658,0.533829 0.1773922,0.233724 0.2503866,0.559277 0.2503866,0.677383 v 0.213809 c -5.657e-4,0.0066 0,0.01328 0,0.02019 0,0.246724 -0.2056848,0.447256 -0.4597495,0.447256 H 7.1914195 c -0.2543474,0 -0.4605982,-0.200809 -0.4605982,-0.447809 0,-0.0064 0.00113,-0.01272 0.0014,-0.01936 -5.658e-4,0 -0.00113,-0.107042 -0.0014,-0.213808 0,-0.118106 0.056018,-0.448915 0.2257725,-0.68817 C 7.1359669,10.912 7.3654171,10.642319 7.6828565,10.642319 h 0.085443 C 7.3549493,10.540809 7.0479781,10.178192 7.0479781,9.7425538 c 0,-0.5139153 0.4263646,-0.9304685 0.9520353,-0.9304685 z M 5.2500033,7.0568087 V 4.1636172 c 0.00565,-0.1410638 0.039609,-0.2821276 0.1018517,-0.4121276 0.050926,-0.135532 0.1301444,-0.26 0.2291675,-0.3623405 0.3366781,-0.3346808 0.7299408,-0.6057446 1.165642,-0.7993617 0.3819458,-0.1687234 0.7950131,-0.257234 1.2137389,-0.26 0.4272135,0.00277 0.8459395,0.091277 1.236373,0.262766 0.4498479,0.1991489 0.8629146,0.4729787 1.2165676,0.8104255 0.101849,0.1023404 0.18107,0.2212766 0.231997,0.3540426 0.06226,0.127234 0.09618,0.2655319 0.101847,0.4065957 l 0.0028,2.8876596 1.691879,0.00553 c 0.05659,0 0.11034,0.019362 0.14995,0.058085 0.0396,0.038723 0.05941,0.091277 0.05941,0.1465958 V 13.46553 c 0,0.05255 -0.0198,0.105106 -0.05941,0.14383 -0.03961,0.03872 -0.09337,0.06085 -0.14995,0.06085 H 3.5581249 c -0.056584,0 -0.11034,-0.02213 -0.1499492,-0.06085 -0.039609,-0.03872 -0.059413,-0.09128 -0.059413,-0.14383 V 7.2614896 c 0,-0.052553 0.019805,-0.1051064 0.059413,-0.1438298 0.039609,-0.038723 0.093365,-0.060851 0.1499492,-0.060851 z M 4.4012348,6.2270215 V 4.1580853 c 0,-0.00277 0,-0.0083 0.00285,-0.011064 0.00565,-0.2461702 0.062231,-0.4895745 0.1612535,-0.713617 C 4.6586991,3.201064 4.7973309,2.9908513 4.972743,2.811064 5.380152,2.4044683 5.8611206,2.0725534 6.3930156,1.834681 6.8853013,1.6161704 7.4200256,1.5027662 7.960408,1.5000002 c 0.5460415,0.00277 1.0864241,0.1161702 1.5843678,0.3346808 0.5432122,0.2406383 1.0411552,0.5725532 1.4655392,0.979149 0.181072,0.1770213 0.322532,0.387234 0.415896,0.6168085 0.104682,0.2268085 0.164095,0.4702128 0.169754,0.716383 0,0.00277 0,0.0083 0,0.011064 l 0.0028,2.0661702 0.843109,0.00277 c 0.282923,0 0.5517,0.1078723 0.749746,0.3042553 0.198046,0.193617 0.308387,0.456383 0.308387,0.7302128 v 6.2040422 c 0,0.27383 -0.110341,0.536596 -0.308387,0.730213 C 12.993539,14.392128 12.721933,14.5 12.441841,14.5 H 3.5581249 C 3.2780313,14.5 3.0064253,14.392128 2.8083793,14.195745 2.6103333,14.002128 2.4999935,13.739362 2.4999935,13.465532 V 7.2614896 c 0,-0.2738298 0.1103398,-0.5365958 0.3083858,-0.7302128 0.198046,-0.196383 0.469652,-0.3042553 0.7497456,-0.3042553 z"
     fill-rule="evenodd"
     id="path2"
     style="fill:url(#linearGradient4)" />
</svg>
