<?xml version="1.0" encoding="UTF-8" standalone="no"?>
<svg
   width="16"
   height="16"
   viewBox="0 0 16 16"
   fill="none"
   version="1.1"
   id="svg5"
   sodipodi:docname="variety.svg"
   inkscape:version="1.4.4 (unknown)"
   xmlns:inkscape="http://www.inkscape.org/namespaces/inkscape"
   xmlns:sodipodi="http://sodipodi.sourceforge.net/DTD/sodipodi-0.dtd"
   xmlns:xlink="http://www.w3.org/1999/xlink"
   xmlns="http://www.w3.org/2000/svg"
   xmlns:svg="http://www.w3.org/2000/svg">
  <sodipodi:namedview
     id="namedview5"
     pagecolor="#ffffff"
     bordercolor="#000000"
     borderopacity="0.25"
     inkscape:showpageshadow="2"
     inkscape:pageopacity="0.0"
     inkscape:pagecheckerboard="0"
     inkscape:deskcolor="#d1d1d1"
     inkscape:zoom="23.65625"
     inkscape:cx="6.0449141"
     inkscape:cy="10.081902"
     inkscape:window-width="1920"
     inkscape:window-height="994"
     inkscape:window-x="0"
     inkscape:window-y="0"
     inkscape:window-maximized="1"
     inkscape:current-layer="svg5" />
  <defs
     id="defs5">
    <linearGradient
       id="linearGradient8"
       inkscape:collect="always">
      <stop
         style="stop-color:#2aff80;stop-opacity:1"
         offset="0"
         id="stop7" />
      <stop
         style="stop-color:#8d5fd3;stop-opacity:1"
         offset="1"
         id="stop8" />
    </linearGradient>
    <linearGradient
       id="linearGradient1"
       inkscape:collect="always">
      <stop
         style="stop-color:#00ccff;stop-opacity:1;"
         offset="0"
         id="stop1" />
      <stop
         style="stop-color:#8d5fd3;stop-opacity:1"
         offset="1"
         id="stop6" />
    </linearGradient>
    <linearGradient
       id="paint0_linear"
       x1="18.608627"
       y1="97.467712"
       x2="127.22502"
       y2="13"
       gradientUnits="userSpaceOnUse"
       gradientTransform="matrix(0.12279657,0,0,0.12705238,0.12720343,-0.151681)">
      <stop
         stop-color="#0357D1"
         id="stop2"
         style="stop-color:#ff9d5b;stop-opacity:1;"
         offset="0" />
      <stop
         offset="1"
         stop-color="#27CDFC"
         id="stop3"
         style="stop-color:#00abd6;stop-opacity:1;" />
    </linearGradient>
    <linearGradient
       id="paint1_linear"
       x1="106.37"
       y1="108.209"
       x2="83.613503"
       y2="99.315697"
       gradientUnits="userSpaceOnUse"
       gradientTransform="matrix(0.12279657,0,0,0.12705238,-3.3084668,-14.559098)">
      <stop
         stop-color="#BE41B4"
         id="stop4" />
      <stop
         offset="1"
         stop-color="#FE1FE8"
         id="stop5" />
    </linearGradient>
    <linearGradient
       inkscape:collect="always"
       xlink:href="#linearGradient1"
       id="linearGradient6"
       x1="1.2138194"
       y1="14.216811"
       x2="15.75"
       y2="1.4999999"
       gradientUnits="userSpaceOnUse" />
    <linearGradient
       inkscape:collect="always"
       xlink:href="#linearGradient8"
       id="linearGradient7"
       gradientUnits="userSpaceOnUse"
       x1="2.9513166"
       y1="11.57317"
       x2="8.7328272"
       y2="6.3750005" />
  </defs>
  <g
     id="g1"
     style="fill:url(#linearGradient6)">
    <path
       fill-rule="evenodd"
       clip-rule="evenodd"
       d="M 2.2147455,1.4999999 H 13.785255 c 1.085154,0 1.964745,0.91014 1.964745,2.032838 V 12.4672 c 0,1.122724 -0.879591,2.0328 -1.964745,2.0328 H 2.2147455 C 1.129646,14.5 0.25,13.589924 0.25,12.4672 V 3.5328379 c 0,-1.122711 0.879646,-2.032838 1.9647455,-2.032838 z m 0,1.2250001 C 1.7955233,2.725 1.424,3.1253506 1.424,3.5328379 V 12.267 c 0,0.407437 0.3503872,0.708371 0.7907455,0.708371 h 2.1939944 c 0.1356412,0 0.2455931,-0.113712 0.2455931,-0.254104 v -0.267204 c 0,-0.140342 -0.1099519,-0.254105 -0.2455931,-0.254105 H 3.5571087 c -0.3345716,0 -0.6057921,-0.280621 -0.6057921,-0.626788 0,-0.346166 0.2712205,-0.626787 0.6057921,-0.626787 h 8.6415903 c 0.33452,0 0.605778,0.280621 0.605778,0.626787 0,0.346167 -0.271258,0.626788 -0.605778,0.626788 h -0.486717 c -0.135628,0 -0.245595,0.113763 -0.245595,0.254105 v 0.267204 c 0,0.140392 0.109967,0.254128 0.245595,0.254104 L 13.785255,12.975 C 14.204448,12.974925 14.576,12.91671 14.576,12.467 V 3.5328379 C 14.576,3.1464867 14.225603,2.725 13.785255,2.725 Z m 7.7919225,9.729063 c 0,-0.140342 -0.109964,-0.254105 -0.2455926,-0.254105 H 9.0358265 c -0.1356412,0 -0.2455936,0.113763 -0.2455936,0.254105 v 0.267204 c 0,0.140392 0.1099524,0.254104 0.2455936,0.254104 h 0.7252489 c 0.1356286,0 0.2455926,-0.113712 0.2455926,-0.254104 z m -2.6761672,0 c 0,-0.140342 -0.1099522,-0.254105 -0.2455932,-0.254105 H 6.3596585 c -0.1356408,0 -0.2455931,0.113763 -0.2455931,0.254105 v 0.267204 c 0,0.140392 0.1099523,0.254104 0.2455931,0.254104 h 0.7252491 c 0.135641,0 0.2455932,-0.113712 0.2455932,-0.254104 z"
       fill="url(#paint0_linear)"
       id="path1"
       style="fill:url(#linearGradient6);stroke-width:0.124906"
       sodipodi:nodetypes="ssssssssssssssssssssssssssssssssssssssssssssssssss" />
    <path
       opacity="0.2"
       d="m 10.03125,4.3437515 c -0.4487434,0 -0.8125004,0.363774 -0.8125004,0.8125 0,0.448728 0.363772,0.812499 0.8125004,0.812499 0.448725,0 0.812499,-0.363771 0.812499,-0.812499 0,-0.448726 -0.363774,-0.8125 -0.812499,-0.8125 z"
       id="path6"
       style="stroke-width:0.40625;fill:url(#linearGradient6)" />
    <path
       fill="#c0ca33"
       d="m 10.03125,3.9375015 c -0.4487434,0 -0.8125004,0.363774 -0.8125004,0.8125 0,0.448728 0.363772,0.8125 0.8125004,0.8125 0.448725,0 0.812499,-0.363772 0.812499,-0.8125 0,-0.448726 -0.363774,-0.8125 -0.812499,-0.8125 z"
       id="path7"
       style="stroke-width:0.40625;fill:#ffd42a" />
    <path
       fill="#c0ca33"
       d="m 5.765626,6.3750005 c -1.1171871,0 -2.2343741,0.8125 -2.2343741,2.868938 v 0.381061 h 8.9374961 c 0,0 -0.744779,-2.437499 -1.861964,-2.437499 -1.1171884,0 -1.1171884,1.21875 -1.8619654,1.21875 -0.7446561,0 -1.861843,-2.03125 -2.9790301,-2.03125 z"
       id="path8"
       style="stroke-width:0.40625;fill:url(#linearGradient7)" />
  </g>
</svg>
