<?xml version="1.0" encoding="UTF-8" standalone="no"?>
<svg
   width="16"
   height="16"
   version="1.1"
   id="svg23"
   sodipodi:docname="ventoy.svg"
   inkscape:version="1.4.4 (unknown)"
   xmlns:inkscape="http://www.inkscape.org/namespaces/inkscape"
   xmlns:sodipodi="http://sodipodi.sourceforge.net/DTD/sodipodi-0.dtd"
   xmlns:xlink="http://www.w3.org/1999/xlink"
   xmlns="http://www.w3.org/2000/svg"
   xmlns:svg="http://www.w3.org/2000/svg">
  <sodipodi:namedview
     id="namedview23"
     pagecolor="#ffffff"
     bordercolor="#000000"
     borderopacity="0.25"
     inkscape:showpageshadow="2"
     inkscape:pageopacity="0.0"
     inkscape:pagecheckerboard="0"
     inkscape:deskcolor="#d1d1d1"
     showgrid="false"
     inkscape:zoom="16.948466"
     inkscape:cx="2.8321147"
     inkscape:cy="14.013068"
     inkscape:window-width="1920"
     inkscape:window-height="994"
     inkscape:window-x="0"
     inkscape:window-y="0"
     inkscape:window-maximized="1"
     inkscape:current-layer="svg23">
    <inkscape:grid
       id="grid24"
       units="px"
       originx="0"
       originy="0"
       spacingx="1"
       spacingy="1"
       empcolor="#0099e5"
       empopacity="0.30196078"
       color="#0099e5"
       opacity="0.14902"
       empspacing="5"
       dotted="false"
       gridanglex="30"
       gridanglez="30"
       visible="false" />
  </sodipodi:namedview>
  <defs
     id="defs22">
    <linearGradient
       id="linearGradient25"
       inkscape:collect="always">
      <stop
         style="stop-color:#9955ff;stop-opacity:1"
         offset="0"
         id="stop25" />
      <stop
         style="stop-color:#ff8080;stop-opacity:1"
         offset="1"
         id="stop26" />
    </linearGradient>
    <style
       id="current-color-scheme"
       type="text/css">
   .ColorScheme-Text { color:#d5c289; } .ColorScheme-Highlight { color:#5294e2; }
  </style>
    <linearGradient
       id="arrongin"
       x1="0%"
       x2="0%"
       y1="0%"
       y2="100%">
      <stop
         offset="0%"
         style="stop-color:#dd9b44; stop-opacity:1"
         id="stop1" />
      <stop
         offset="100%"
         style="stop-color:#ad6c16; stop-opacity:1"
         id="stop2" />
    </linearGradient>
    <linearGradient
       id="aurora"
       x1="0%"
       x2="0%"
       y1="0%"
       y2="100%">
      <stop
         offset="0%"
         style="stop-color:#09D4DF; stop-opacity:1"
         id="stop3" />
      <stop
         offset="100%"
         style="stop-color:#9269F4; stop-opacity:1"
         id="stop4" />
    </linearGradient>
    <linearGradient
       id="fitdance"
       x1="0%"
       x2="0%"
       y1="0%"
       y2="100%">
      <stop
         offset="0%"
         style="stop-color:#1AD6AB; stop-opacity:1"
         id="stop5" />
      <stop
         offset="100%"
         style="stop-color:#329DB6; stop-opacity:1"
         id="stop6" />
    </linearGradient>
    <linearGradient
       id="oomox"
       x1="0%"
       x2="0%"
       y1="0%"
       y2="100%">
      <stop
         offset="0%"
         style="stop-color:#303b3d; stop-opacity:1"
         id="stop7" />
      <stop
         offset="100%"
         style="stop-color:#bc985d; stop-opacity:1"
         id="stop8" />
    </linearGradient>
    <linearGradient
       id="rainblue"
       x1="0%"
       x2="0%"
       y1="0%"
       y2="100%">
      <stop
         offset="0%"
         style="stop-color:#00F260; stop-opacity:1"
         id="stop9" />
      <stop
         offset="100%"
         style="stop-color:#0575E6; stop-opacity:1"
         id="stop10" />
    </linearGradient>
    <linearGradient
       id="sunrise"
       x1="0%"
       x2="0%"
       y1="0%"
       y2="100%">
      <stop
         offset="0%"
         style="stop-color: #FF8501; stop-opacity:1"
         id="stop11" />
      <stop
         offset="100%"
         style="stop-color: #FFCB01; stop-opacity:1"
         id="stop12" />
    </linearGradient>
    <linearGradient
       id="telinkrin"
       x1="0%"
       x2="0%"
       y1="0%"
       y2="100%">
      <stop
         offset="0%"
         style="stop-color: #b2ced6; stop-opacity:1"
         id="stop13" />
      <stop
         offset="100%"
         style="stop-color: #6da5b7; stop-opacity:1"
         id="stop14" />
    </linearGradient>
    <linearGradient
       id="60spsycho"
       x1="0%"
       x2="0%"
       y1="0%"
       y2="100%">
      <stop
         offset="0%"
         style="stop-color: #df5940; stop-opacity:1"
         id="stop15" />
      <stop
         offset="25%"
         style="stop-color: #d8d15f; stop-opacity:1"
         id="stop16" />
      <stop
         offset="50%"
         style="stop-color: #e9882a; stop-opacity:1"
         id="stop17" />
      <stop
         offset="100%"
         style="stop-color: #279362; stop-opacity:1"
         id="stop18" />
    </linearGradient>
    <linearGradient
       id="90ssummer"
       x1="0%"
       x2="0%"
       y1="0%"
       y2="100%">
      <stop
         offset="0%"
         style="stop-color: #f618c7; stop-opacity:1"
         id="stop19" />
      <stop
         offset="20%"
         style="stop-color: #94ffab; stop-opacity:1"
         id="stop20" />
      <stop
         offset="50%"
         style="stop-color: #fbfd54; stop-opacity:1"
         id="stop21" />
      <stop
         offset="100%"
         style="stop-color: #0f83ae; stop-opacity:1"
         id="stop22" />
    </linearGradient>
    <linearGradient
       inkscape:collect="always"
       xlink:href="#linearGradient25"
       id="linearGradient26"
       x1="314"
       y1="175.46666"
       x2="325"
       y2="160.53334"
       gradientUnits="userSpaceOnUse" />
    <linearGradient
       inkscape:collect="always"
       xlink:href="#_lgradient_9"
       id="linearGradient2"
       gradientUnits="userSpaceOnUse"
       x1="314"
       y1="175.46666"
       x2="325"
       y2="160.53334" />
    <linearGradient
       inkscape:collect="always"
       xlink:href="#_lgradient_9"
       id="linearGradient3"
       gradientUnits="userSpaceOnUse"
       x1="315.26172"
       y1="165.54688"
       x2="327.20001"
       y2="159.46666" />
    <linearGradient
       id="_lgradient_9"
       x1="0"
       y1="0.5"
       x2="1"
       y2="0.5"
       gradientTransform="matrix(4.8046072,-0.28070256,0.27764035,4.7505083,5.4751684,7.4057066)"
       gradientUnits="userSpaceOnUse">
      <stop
         offset="0%"
         stop-opacity="1"
         style="stop-color:rgb(136,42,233)"
         id="stop3-3" />
      <stop
         offset="100%"
         stop-opacity="1"
         style="stop-color:rgb(52,236,235)"
         id="stop4-6" />
    </linearGradient>
  </defs>
  <g
     id="g1"
     transform="translate(0.66670215,1)">
    <g
       transform="matrix(0.78787871,0,0,0.8125,-244.39395,-129.5)"
       id="g23"
       style="fill:url(#linearGradient26);fill-opacity:1">
      <path
         style="fill:url(#linearGradient2);fill-opacity:1"
         class="ColorScheme-Text"
         d="m 317,164 c -0.65761,0 -1.17852,0.0599 -1.61719,0.22461 -0.43866,0.16467 -0.79038,0.46152 -0.99804,0.83789 -0.41533,0.75275 -0.37023,1.67345 -0.38477,2.93164 v 0.004 4.0039 0.004 c 0.0146,1.25819 -0.0306,2.17889 0.38477,2.93164 0.20765,0.37637 0.55938,0.67322 0.99804,0.83789 C 315.82147,175.94006 316.34239,176 317,176 h 5 c 0.65761,0 1.17852,-0.0599 1.61719,-0.22461 0.43866,-0.16466 0.78843,-0.46152 0.99609,-0.83789 0.41532,-0.75275 0.37218,-1.67344 0.38672,-2.93164 v -0.004 -4.0039 -0.004 c -0.0145,-1.2582 0.0306,-2.17889 -0.38477,-2.93164 -0.20766,-0.37637 -0.55938,-0.67323 -0.99804,-0.83789 C 323.17852,164.05994 322.65761,164 322,164 Z m 0,1 h 5 c 0.59239,0 1.00571,0.0626 1.26562,0.16016 0.25992,0.0976 0.37146,0.20331 0.47266,0.38672 0.20192,0.36595 0.24703,1.1946 0.26172,2.45312 v 3.99414 c -0.0146,1.26354 -0.0593,2.09217 -0.26172,2.45898 -0.10119,0.18341 -0.21275,0.28916 -0.47266,0.38672 C 323.00572,174.93741 322.59239,175 322,175 h -5 c -0.59239,0 -1.00572,-0.0626 -1.26562,-0.16016 -0.25991,-0.0976 -0.37147,-0.20331 -0.47266,-0.38672 C 315.05981,174.08717 315.01474,173.25853 315,172 V 171.994 168.00572 168 c 0.0147,-1.25852 0.0598,-2.08717 0.26172,-2.45312 0.10119,-0.18341 0.21275,-0.28916 0.47266,-0.38672 C 315.99428,165.06259 316.40761,165 317,165 Z"
         id="path22" />
      <path
         d="m 316,160 v 3 h 1 v -2 h 5 v 2 h 1 v -3 z m 2,2 v 1 h 1 v -1 z m 2,0 v 1 h 1 v -1 z"
         style="fill:url(#linearGradient3);fill-opacity:1"
         class="ColorScheme-Text"
         id="path23" />
    </g>
  </g>
  <path
     d="m 7.5827344,8.8158536 -0.05971,0.06507 -0.292186,0.332505 0.05665,0.9704654 2.1491612,-2.3328934 -0.3483262,-0.291931 0.5955996,-0.217162 0.595855,-0.216906 -0.109984,0.624436 -0.109729,0.62418 -0.3427128,-0.287082 -1.7732748,1.9248544 0.899779,-0.05257 0.490209,-0.616014 -0.149027,-0.128103 0.5065401,-0.58871 0.5887095,0.506286 -0.5065401,0.588965 -0.1622971,-0.139841 -0.5856474,0.7333994 -1.438728,0.08421 -0.83828,0.909986 c 0.03904,0.06992 0.06329,0.149538 0.06813,0.235025 0.01786,0.302393 -0.213589,0.562426 -0.515983,0.580033 -0.302648,0.01761 -0.562426,-0.213589 -0.580288,-0.516237 -0.01761,-0.302393 0.213589,-0.562426 0.516237,-0.580034 0.0837,-0.0048 0.164339,0.0094 0.237577,0.03879 l 0.468263,-0.508326 -0.08625,-1.4770064 0.395791,-0.441214 0.0069,-0.0079 c -0.02756,-0.04772 -0.04466,-0.102329 -0.04797,-0.161021 -0.01174,-0.201595 0.142393,-0.375121 0.343988,-0.386859 0.201851,-0.01174 0.375121,0.142393 0.38686,0.344243 0.01174,0.201596 -0.142393,0.374866 -0.343989,0.386604 -0.0051,2.49e-4 -0.01021,5.17e-4 -0.01531,7.66e-4 z"
     fill="url(#_lgradient_9)"
     id="path4"
     style="isolation:isolate;fill:url(#_lgradient_9);stroke-width:0.255184" />
</svg>
