<?xml version="1.0" encoding="UTF-8" standalone="no"?>
<svg
   version="1.1"
   width="16"
   height="16"
   viewBox="0 0 16 15.999999"
   id="svg3"
   sodipodi:docname="virustotal.svg"
   inkscape:version="1.4.4 (unknown)"
   xmlns:inkscape="http://www.inkscape.org/namespaces/inkscape"
   xmlns:sodipodi="http://sodipodi.sourceforge.net/DTD/sodipodi-0.dtd"
   xmlns:xlink="http://www.w3.org/1999/xlink"
   xmlns="http://www.w3.org/2000/svg"
   xmlns:svg="http://www.w3.org/2000/svg">
  <sodipodi:namedview
     id="namedview3"
     pagecolor="#ffffff"
     bordercolor="#666666"
     borderopacity="1.0"
     inkscape:showpageshadow="2"
     inkscape:pageopacity="0.0"
     inkscape:pagecheckerboard="0"
     inkscape:deskcolor="#d1d1d1"
     inkscape:zoom="13.918849"
     inkscape:cx="4.5980812"
     inkscape:cy="7.6514945"
     inkscape:window-width="1920"
     inkscape:window-height="994"
     inkscape:window-x="0"
     inkscape:window-y="0"
     inkscape:window-maximized="1"
     inkscape:current-layer="g2" />
  <defs
     id="defs2">
    <linearGradient
       id="linearGradient2"
       inkscape:collect="always">
      <stop
         style="stop-color:#ffb380;stop-opacity:1"
         offset="0"
         id="stop3" />
      <stop
         style="stop-color:#ff5599;stop-opacity:1"
         offset="0.32251656"
         id="stop6" />
      <stop
         style="stop-color:#00ccff;stop-opacity:1"
         offset="1"
         id="stop5" />
    </linearGradient>
    <radialGradient
       cx="240.80499"
       cy="180"
       r="184.50711"
       gradientUnits="userSpaceOnUse"
       id="color-1"
       gradientTransform="matrix(0.986911,0.008726,-0.008841,0.999961,4.743217,-2.094164)">
      <stop
         offset="0"
         style="stop-color:#0eaffe;stop-opacity:1;"
         id="stop1" />
      <stop
         offset="0.5036754"
         style="stop-color:#241efc;stop-opacity:1;"
         id="stop4" />
      <stop
         offset="1"
         style="stop-color:#df57ff;stop-opacity:1;"
         id="stop2" />
    </radialGradient>
    <linearGradient
       inkscape:collect="always"
       xlink:href="#color-1"
       id="linearGradient4"
       x1="55.492882"
       y1="180"
       x2="424.50711"
       y2="180"
       gradientUnits="userSpaceOnUse" />
    <linearGradient
       inkscape:collect="always"
       xlink:href="#color-1"
       id="linearGradient1"
       gradientUnits="userSpaceOnUse"
       x1="55.492882"
       y1="180"
       x2="424.50711"
       y2="180" />
    <linearGradient
       inkscape:collect="always"
       xlink:href="#linearGradient2"
       id="linearGradient5"
       x1="59.458889"
       y1="21.89431"
       x2="68.676414"
       y2="22.037998"
       gradientUnits="userSpaceOnUse" />
  </defs>
  <g
     transform="translate(-55.49289,-13.31955)"
     id="g3"
     style="fill:url(#linearGradient4)">
    <g
       fill="url(#color-1)"
       stroke="none"
       stroke-miterlimit="10"
       id="g2"
       style="fill:url(#linearGradient1)">
      <path
         d="m 56.297708,27.81955 v -2.543813 c 0.09545,-0.149512 0.385797,-0.553412 0.735341,-0.550285 0.280844,0.0025 0.55785,0.390019 0.65658,0.543491 4.17e-4,0.708779 9.24e-4,1.157099 0.0016,1.157099 h 9.717643 l -5.140349,-5.112646 2.416302,-2.39749 c 0.208506,-0.05804 0.713201,-0.16532 0.947992,0.07442 0.172191,0.175796 0.09924,0.592577 0.04061,0.82495 l -1.503805,1.49812 6.51845,6.506154 z M 67.408871,16.213058 h -9.720783 c 0,0 0,3.619716 6.63e-4,6.549265 -0.09514,0.187567 -0.357109,0.63373 -0.695375,0.631049 -0.344383,-0.0027 -0.606306,-0.461894 -0.695668,-0.641588 V 14.81955 h 14.390364 l -3.063946,3.052375 c -0.255421,0.09027 -0.713694,0.209061 -0.923926,-0.0051 -0.222773,-0.226887 -0.07587,-0.724094 0.01456,-0.965078 z"
         id="path2"
         style="fill:url(#linearGradient5);fill-opacity:1" />
    </g>
  </g>
</svg>
