<?xml version="1.0" encoding="UTF-8" standalone="no"?>
<svg
   width="16"
   height="16"
   viewBox="0 0 16 16"
   fill="none"
   version="1.1"
   id="svg50"
   sodipodi:docname="vncviewer.svg"
   inkscape:version="1.4.4 (unknown)"
   xmlns:inkscape="http://www.inkscape.org/namespaces/inkscape"
   xmlns:sodipodi="http://sodipodi.sourceforge.net/DTD/sodipodi-0.dtd"
   xmlns:xlink="http://www.w3.org/1999/xlink"
   xmlns="http://www.w3.org/2000/svg"
   xmlns:svg="http://www.w3.org/2000/svg">
  <sodipodi:namedview
     id="namedview50"
     pagecolor="#ffffff"
     bordercolor="#000000"
     borderopacity="0.25"
     inkscape:showpageshadow="2"
     inkscape:pageopacity="0.0"
     inkscape:pagecheckerboard="0"
     inkscape:deskcolor="#d1d1d1"
     inkscape:zoom="16.727495"
     inkscape:cx="6.5162178"
     inkscape:cy="10.55149"
     inkscape:window-width="1920"
     inkscape:window-height="994"
     inkscape:window-x="0"
     inkscape:window-y="0"
     inkscape:window-maximized="1"
     inkscape:current-layer="svg50" />
  <g
     id="g50"
     transform="translate(-2.6047658,-2.500008)"
     style="fill:url(#linearGradient52);fill-opacity:1">
    <path
       d="M 4.37001,4.7572518 C 4.7212628,4.30246 5.279735,4.0041444 5.864237,4.0032316 6.7330691,4.0023163 7.6028447,4.0014011 8.4716768,4.0041444 8.7690324,3.9895055 9.0292126,4.2640274 9.0022746,4.5541036 8.9948443,4.8258823 8.7374475,5.0628845 8.4595995,5.0436694 7.5972543,5.0482432 6.7349326,5.0390932 5.8735309,5.0482432 5.5009047,5.0509889 5.1756605,5.3273413 5.0790212,5.6759804 4.8104694,5.3941413 4.6236916,5.0509889 4.37001,4.7572518 Z"
       fill="url(#paint0_linear)"
       id="path1"
       style="fill:url(#linearGradient52);stroke-width:0.235884;fill-opacity:1" />
    <path
       d="m 12.193268,4.2978792 c 0.09108,-0.2031482 0.324317,-0.3157003 0.544539,-0.2955699 0.902304,0.00458 1.805528,-0.0064 2.707808,0.00549 0.94691,0.043924 1.760923,0.8876203 1.758139,1.8209856 0.0037,2.0872916 -9.43e-4,4.1754801 0.0028,6.2627711 -0.08735,-0.09607 -0.17564,-0.191254 -0.265771,-0.283674 -0.0381,0.0183 -0.114286,0.05673 -0.152381,0.07596 -0.08643,-0.138181 -0.205385,-0.249825 -0.345688,-0.333092 0.03439,-0.05581 0.0697,-0.111644 0.104072,-0.167454 -0.109639,-0.06223 -0.220222,-0.124453 -0.331748,-0.184839 -0.0018,-1.3314485 -0.01392,-2.661953 -0.0288,-3.9924811 -0.0093,-0.4922902 0.01672,-0.9864439 -0.05109,-1.4751015 -0.066,-0.3733423 -0.407958,-0.6771469 -0.796388,-0.682636 -0.913438,-0.012811 -1.827819,0.00549 -2.741257,-0.00824 C 12.253678,5.0098058 12.03065,4.5980229 12.193268,4.2978792 Z"
       fill="url(#paint1_linear)"
       id="path2"
       style="fill:url(#linearGradient52);stroke-width:0.235884;fill-opacity:1" />
    <path
       d="M 4.0029531,5.8297061 C 4.0076,5.4444601 4.1442052,5.0692911 4.37001,4.7572518 4.6236916,5.0509889 4.8104694,5.3941413 5.0790212,5.6759804 l -0.00558,0.053994 c -0.027877,0.247985 -0.052038,0.49689 -0.051109,0.7476112 0.00186,1.1264648 -0.030665,2.2529059 -0.017656,3.3793707 0.00186,0.1601417 -0.014868,0.3193637 -0.039956,0.4767457 -0.047391,-0.043 -0.094783,-0.08419 -0.1431039,-0.125373 0.01115,-0.04392 0.033453,-0.131765 0.044603,-0.175686 C 4.5224006,9.7974662 4.1943778,9.5430887 4.0020237,9.1660751 4.0010943,8.0533388 4.0001673,6.9415225 4.0029531,5.8297061 Z"
       fill="url(#paint2_linear)"
       id="path3"
       style="fill:url(#linearGradient52);stroke-width:0.235884;fill-opacity:1" />
    <path
       d="m 5.0223311,6.4775855 c -9.294e-4,-0.2507212 0.023232,-0.4996262 0.051109,-0.7476112 -0.029736,3.1158173 -0.00558,6.2325547 -0.013009,9.3492917 -0.034382,0.448392 0.3475352,0.873904 0.8065894,0.87848 1.0918369,0.01097 2.184641,-0.0018 3.2774215,0.0073 0.1709924,0.167454 0.4172319,0.254401 0.5491855,0.461201 0.1486777,0.226024 0.3270765,0.433744 0.5631265,0.573741 -1.464487,-0.0027 -2.9289738,9.2e-4 -4.3934605,-0.0018 -0.8363155,0.0064 -1.6029389,-0.61219 -1.8064409,-1.403723 -0.056685,-0.230601 -0.059474,-0.468513 -0.055756,-0.70461 0.00186,-1.907925 -9.294e-4,-3.815851 9.27e-4,-5.7237759 0.1923541,0.3770136 0.5203769,0.6313911 0.8641946,0.8665679 -0.01115,0.04392 -0.033453,0.131765 -0.044603,0.175686 0.048321,0.04119 0.095712,0.08237 0.1431039,0.125373 0.025089,-0.157382 0.041815,-0.316604 0.039956,-0.4767458 -0.013009,-1.1264648 0.019515,-2.2529059 0.017656,-3.3793707 z"
       fill="url(#paint3_linear)"
       id="path4"
       style="fill:url(#linearGradient52);stroke-width:0.235884;fill-opacity:1" />
    <path
       d="m 16.135128,5.7308707 c 0.06782,0.4886576 0.0418,0.9828113 0.05109,1.4751015 0.01488,1.3305281 0.02696,2.6610326 0.0288,3.9924808 -0.02321,0.711922 0.0075,1.423844 -0.0074,2.135766 0.0019,0.268129 -0.0028,0.547227 0.101288,0.800708 0.05855,0.152806 0.259261,0.154646 0.357766,0.270843 0.08643,0.111644 0.157052,0.234256 0.232322,0.353236 0.06317,-0.02288 0.126363,-0.04668 0.190477,-0.06956 0.03904,0.106148 0.07992,0.212296 0.115229,0.321203 0.05763,0.76042 -0.405155,1.513527 -1.107641,1.828315 -0.07992,-0.140917 -0.092,-0.350477 -0.25834,-0.422775 -0.207225,-0.07869 -0.293629,-0.289147 -0.405155,-0.459361 0.417232,-0.07046 0.743389,-0.456625 0.712724,-0.87848 -0.0065,-3.115817 0.01394,-6.2316345 -0.01113,-9.3474753 z"
       fill="url(#paint4_linear)"
       id="path5"
       style="fill:url(#linearGradient52);stroke-width:0.235884;fill-opacity:1" />
    <path
       d="M 5.7155593,6.7823007 C 5.8372755,6.3293323 6.5537264,6.2826744 6.7163449,6.7283068 7.1800224,8.1485181 7.6269993,9.5742018 8.079543,10.997126 7.9791743,11.000782 7.8797491,10.99439 7.7812439,10.977901 7.4318523,10.743645 7.1679451,10.406896 6.9765251,10.039059 6.8631592,10.010682 6.7497933,9.982305 6.6373473,9.9539517 6.3399918,9.023318 6.0444997,8.0936042 5.7480641,7.1638904 5.703482,7.0412779 5.6932446,6.9104093 5.7155593,6.7823007 Z"
       fill="url(#paint5_linear)"
       id="path6"
       style="fill:url(#linearGradient52);stroke-width:0.235884;fill-opacity:1" />
    <path
       d="m 10.703707,6.6596881 c 0.215574,-0.3898222 0.860482,-0.2900903 0.971984,0.1336048 0.0158,0.1372609 -0.0028,0.2754183 -0.05112,0.4044469 C 11.421994,7.8026175 11.22036,8.4074717 11.018703,9.0123494 10.711133,8.7661807 10.40262,8.5118032 10.176809,8.1878635 10.358015,7.6809013 10.497399,7.1574744 10.703703,6.6596881 Z"
       fill="url(#paint6_linear)"
       id="path7"
       style="fill:url(#linearGradient52);stroke-width:0.235884;fill-opacity:1" />
    <path
       d="m 11.676611,9.5009834 c 0.04925,-0.7366426 -0.148678,-1.5419039 0.250887,-2.2135604 0.260203,0.2489049 0.546402,0.470353 0.83076,0.691801 -0.05763,0.5947819 0.0037,1.1950835 -0.03347,1.7917052 -0.04274,0.3019788 -0.39027,0.5042028 -0.681116,0.4026308 -0.292708,-0.08053 -0.402371,-0.4007909 -0.367059,-0.6725766 z"
       fill="url(#paint7_linear)"
       id="path8"
       style="fill:url(#linearGradient52);stroke-width:0.235884;fill-opacity:1" />
    <path
       d="M 12.112431,7.0339419 C 12.486,6.5901258 13.092789,6.3503968 13.675423,6.4217517 c 0.609571,0.06133 1.16062,0.4602808 1.422664,1.0020123 0.263907,0.5646123 0.140304,1.2005796 0.169129,1.7999612 -0.01488,0.2827543 0.07154,0.6368872 -0.179343,0.8446068 -0.282495,0.271762 -0.817739,0.08968 -0.867912,-0.2955629 -0.02975,-0.5463077 0.0074,-1.0953516 -0.01767,-1.6416593 C 14.181866,7.7687446 13.852902,7.4530372 13.482139,7.4548771 13.152255,7.4439085 12.859547,7.6772451 12.758258,7.979224 12.4739,7.757776 12.187701,7.5363279 11.927498,7.287423 11.986048,7.2005 12.047397,7.1163126 12.112431,7.0339419 Z"
       fill="url(#paint8_linear)"
       id="path9"
       style="fill:url(#linearGradient52);stroke-width:0.235884;fill-opacity:1" />
    <path
       d="m 10.176813,8.1878635 c 0.225811,0.3239397 0.534324,0.5783172 0.841894,0.8244859 -0.222085,0.6680003 -0.44509,1.3359766 -0.668119,2.0030806 -0.236945,-0.258057 -0.5723961,-0.469433 -0.6532572,-0.829982 -0.065033,0.0092 -0.1300901,0.01739 -0.1951233,0.02654 C 9.7261323,9.5366727 9.9528877,8.8622563 10.176813,8.1878635 Z"
       fill="url(#paint9_linear)"
       id="path10"
       style="fill:url(#linearGradient52);stroke-width:0.235884;fill-opacity:1" />
    <path
       d="m 6.6373473,9.9539517 c 0.112446,0.028353 0.2258119,0.05673 0.3391778,0.085107 0.19142,0.367837 0.4553272,0.704586 0.8047188,0.938842 0.098505,0.01649 0.1979304,0.02288 0.2982991,0.01923 0.1895565,0.582917 0.3726262,1.168546 0.5612392,1.751463 C 8.7495248,12.512493 8.8108546,12.258092 8.9000424,12.014683 9.2122823,12.256275 9.448308,12.574719 9.7438,12.833673 9.5839649,13.266496 9.4817563,13.721305 9.2819625,14.137664 8.9911173,14.632714 8.1510867,14.569568 7.9447824,14.034252 7.4931822,12.679027 7.0750304,11.312833 6.6373473,9.9539517 Z"
       fill="url(#paint10_linear)"
       id="path11"
       style="fill:url(#linearGradient52);stroke-width:0.235884;fill-opacity:1" />
    <path
       d="m 9.5022075,10.211985 c 0.065033,-0.0092 0.1300901,-0.01738 0.1951233,-0.02654 0.080861,0.360549 0.4163122,0.571925 0.6532572,0.829982 C 10.148955,11.622124 9.9463773,12.227899 9.7438,12.833673 9.448308,12.574719 9.2122823,12.256275 8.9000424,12.014683 9.1007562,11.414405 9.3005501,10.812287 9.5022075,10.211985 Z"
       fill="url(#paint11_linear)"
       id="path12"
       style="fill:url(#linearGradient52);stroke-width:0.235884;fill-opacity:1" />
    <path
       d="m 12.436748,11.266152 c 0.688569,-0.488634 1.573206,-0.276339 2.3612,-0.317524 0.517577,0.0247 0.6421,0.809837 0.161675,0.99194 -0.620729,0.169294 -1.333453,-0.121716 -1.924437,0.188495 -0.0158,-0.08053 -0.03161,-0.161038 -0.04833,-0.241569 -0.277848,-0.105228 -0.368899,-0.414519 -0.550105,-0.621342 z"
       fill="url(#paint12_linear)"
       id="path13"
       style="fill:url(#linearGradient52);stroke-width:0.235884;fill-opacity:1" />
    <path
       d="m 11.682202,12.868466 c -0.06225,-0.618607 0.243456,-1.243605 0.754546,-1.602314 0.181206,0.206823 0.272257,0.516114 0.550105,0.621342 0.01672,0.08053 0.03253,0.161038 0.04833,0.241569 -0.44976,0.315707 -0.357766,1.085303 0.176536,1.257333 0.541755,0.125349 1.110448,0.0073 1.661497,0.06862 0.379113,0.0778 0.527791,0.596622 0.25367,0.862911 -0.202578,0.227865 -0.530598,0.15099 -0.800072,0.162902 -0.493423,-0.02198 -1.01008,0.07046 -1.481211,-0.1153 -0.63467,-0.227864 -1.111368,-0.831822 -1.163404,-1.497062 z"
       fill="url(#paint13_linear)"
       id="path14"
       style="fill:url(#linearGradient52);stroke-width:0.235884;fill-opacity:1" />
    <path
       d="m 16.215022,11.198453 c 0.111526,0.06039 0.222109,0.122612 0.331748,0.184839 -0.03437,0.05581 -0.06968,0.111644 -0.104072,0.167454 0.140303,0.08327 0.25926,0.194911 0.345688,0.333092 0.0381,-0.01923 0.114286,-0.05765 0.152381,-0.07596 0.09013,0.09242 0.178423,0.187599 0.265771,0.283674 -0.0037,0.972716 0,1.946351 -0.0019,2.91909 -0.03531,-0.108907 -0.07619,-0.215055 -0.115229,-0.321203 -0.06411,0.02288 -0.127307,0.04668 -0.190477,0.06956 -0.07527,-0.11898 -0.145894,-0.241592 -0.232322,-0.353236 -0.0985,-0.116197 -0.299219,-0.118037 -0.357766,-0.270843 -0.104072,-0.253481 -0.09943,-0.532579 -0.101288,-0.800708 0.01488,-0.711922 -0.01578,-1.423844 0.0074,-2.135766 z"
       fill="url(#paint14_linear)"
       id="path15"
       style="fill:url(#linearGradient52);stroke-width:0.235884;fill-opacity:1" />
    <path
       d="m 9.144442,15.965058 c 0.965474,-0.0064 1.931891,-0.0027 2.898309,-0.0018 0.152381,0.258954 0.351255,0.627735 0.713643,0.574661 0.01302,0.189415 0.09664,0.355029 0.260181,0.462097 -0.919949,-0.0018 -1.839873,-0.0018 -2.759821,0 C 10.020704,16.860003 9.8423052,16.652283 9.6936275,16.426259 9.5616739,16.219459 9.3154344,16.132512 9.144442,15.965058 Z"
       fill="url(#paint15_linear)"
       id="path16"
       style="fill:url(#linearGradient52);stroke-width:0.235884;fill-opacity:1" />
    <path
       d="m 12.042751,15.963242 c 1.129955,-0.0055 2.259911,0.0064 3.390787,-0.0064 0.111526,0.170214 0.19793,0.38067 0.405155,0.459361 0.166345,0.0723 0.178422,0.281858 0.25834,0.422775 -0.240673,0.09058 -0.492503,0.162878 -0.752706,0.160118 -0.775918,0.0018 -1.551835,-0.0018 -2.327752,9.2e-4 -0.163539,-0.107068 -0.24716,-0.272682 -0.260181,-0.462097 -0.362388,0.05307 -0.561262,-0.315707 -0.713643,-0.574661 z"
       fill="url(#paint16_linear)"
       id="path17"
       style="fill:url(#linearGradient52);stroke-width:0.235884;fill-opacity:1" />
  </g>
  <defs
     id="defs50">
    <linearGradient
       id="linearGradient50"
       inkscape:collect="always">
      <stop
         style="stop-color:#00ccff;stop-opacity:1"
         offset="0"
         id="stop51" />
      <stop
         style="stop-color:#8d5fd3;stop-opacity:1"
         offset="1"
         id="stop52" />
    </linearGradient>
    <linearGradient
       id="paint0_linear"
       x1="4"
       y1="59.111801"
       x2="71.222702"
       y2="29.3402"
       gradientUnits="userSpaceOnUse"
       gradientTransform="matrix(0.23588415,0,0,0.23588415,3.0564608,3.0564634)">
      <stop
         stop-color="#0357D1"
         id="stop17" />
      <stop
         offset="1"
         stop-color="#27CDFC"
         id="stop18" />
    </linearGradient>
    <linearGradient
       id="paint1_linear"
       x1="4"
       y1="59.111801"
       x2="71.222702"
       y2="29.3402"
       gradientUnits="userSpaceOnUse"
       gradientTransform="matrix(0.23588415,0,0,0.23588415,3.0564608,3.0564634)">
      <stop
         stop-color="#0357D1"
         id="stop19" />
      <stop
         offset="1"
         stop-color="#27CDFC"
         id="stop20" />
    </linearGradient>
    <linearGradient
       id="paint2_linear"
       x1="4"
       y1="59.111801"
       x2="71.222702"
       y2="29.3402"
       gradientUnits="userSpaceOnUse"
       gradientTransform="matrix(0.23588415,0,0,0.23588415,3.0564608,3.0564634)">
      <stop
         stop-color="#0357D1"
         id="stop21" />
      <stop
         offset="1"
         stop-color="#27CDFC"
         id="stop22" />
    </linearGradient>
    <linearGradient
       id="paint3_linear"
       x1="4"
       y1="59.111801"
       x2="71.222702"
       y2="29.3402"
       gradientUnits="userSpaceOnUse"
       gradientTransform="matrix(0.23588415,0,0,0.23588415,3.0564608,3.0564634)">
      <stop
         stop-color="#0357D1"
         id="stop23" />
      <stop
         offset="1"
         stop-color="#27CDFC"
         id="stop24" />
    </linearGradient>
    <linearGradient
       id="paint4_linear"
       x1="4"
       y1="59.111801"
       x2="71.222702"
       y2="29.3402"
       gradientUnits="userSpaceOnUse"
       gradientTransform="matrix(0.23588415,0,0,0.23588415,3.0564608,3.0564634)">
      <stop
         stop-color="#0357D1"
         id="stop25" />
      <stop
         offset="1"
         stop-color="#27CDFC"
         id="stop26" />
    </linearGradient>
    <linearGradient
       id="paint5_linear"
       x1="4"
       y1="59.111801"
       x2="71.222702"
       y2="29.3402"
       gradientUnits="userSpaceOnUse"
       gradientTransform="matrix(0.23588415,0,0,0.23588415,3.0564608,3.0564634)">
      <stop
         stop-color="#0357D1"
         id="stop27" />
      <stop
         offset="1"
         stop-color="#27CDFC"
         id="stop28" />
    </linearGradient>
    <linearGradient
       id="paint6_linear"
       x1="4"
       y1="59.111801"
       x2="71.222702"
       y2="29.3402"
       gradientUnits="userSpaceOnUse"
       gradientTransform="matrix(0.23588415,0,0,0.23588415,3.0564608,3.0564634)">
      <stop
         stop-color="#0357D1"
         id="stop29" />
      <stop
         offset="1"
         stop-color="#27CDFC"
         id="stop30" />
    </linearGradient>
    <linearGradient
       id="paint7_linear"
       x1="4"
       y1="59.111801"
       x2="71.222702"
       y2="29.3402"
       gradientUnits="userSpaceOnUse"
       gradientTransform="matrix(0.23588415,0,0,0.23588415,3.0564608,3.0564634)">
      <stop
         stop-color="#0357D1"
         id="stop31" />
      <stop
         offset="1"
         stop-color="#27CDFC"
         id="stop32" />
    </linearGradient>
    <linearGradient
       id="paint8_linear"
       x1="4"
       y1="59.111801"
       x2="71.222702"
       y2="29.3402"
       gradientUnits="userSpaceOnUse"
       gradientTransform="matrix(0.23588415,0,0,0.23588415,3.0564608,3.0564634)">
      <stop
         stop-color="#0357D1"
         id="stop33" />
      <stop
         offset="1"
         stop-color="#27CDFC"
         id="stop34" />
    </linearGradient>
    <linearGradient
       id="paint9_linear"
       x1="4"
       y1="59.111801"
       x2="71.222702"
       y2="29.3402"
       gradientUnits="userSpaceOnUse"
       gradientTransform="matrix(0.23588415,0,0,0.23588415,3.0564608,3.0564634)">
      <stop
         stop-color="#0357D1"
         id="stop35" />
      <stop
         offset="1"
         stop-color="#27CDFC"
         id="stop36" />
    </linearGradient>
    <linearGradient
       id="paint10_linear"
       x1="4"
       y1="59.111801"
       x2="71.222702"
       y2="29.3402"
       gradientUnits="userSpaceOnUse"
       gradientTransform="matrix(0.23588415,0,0,0.23588415,3.0564608,3.0564634)">
      <stop
         stop-color="#0357D1"
         id="stop37" />
      <stop
         offset="1"
         stop-color="#27CDFC"
         id="stop38" />
    </linearGradient>
    <linearGradient
       id="paint11_linear"
       x1="4"
       y1="59.111801"
       x2="71.222702"
       y2="29.3402"
       gradientUnits="userSpaceOnUse"
       gradientTransform="matrix(0.23588415,0,0,0.23588415,3.0564608,3.0564634)">
      <stop
         stop-color="#0357D1"
         id="stop39" />
      <stop
         offset="1"
         stop-color="#27CDFC"
         id="stop40" />
    </linearGradient>
    <linearGradient
       id="paint12_linear"
       x1="4"
       y1="59.111801"
       x2="71.222702"
       y2="29.3402"
       gradientUnits="userSpaceOnUse"
       gradientTransform="matrix(0.23588415,0,0,0.23588415,3.0564608,3.0564634)">
      <stop
         stop-color="#0357D1"
         id="stop41" />
      <stop
         offset="1"
         stop-color="#27CDFC"
         id="stop42" />
    </linearGradient>
    <linearGradient
       id="paint13_linear"
       x1="4"
       y1="59.111801"
       x2="71.222702"
       y2="29.3402"
       gradientUnits="userSpaceOnUse"
       gradientTransform="matrix(0.23588415,0,0,0.23588415,3.0564608,3.0564634)">
      <stop
         stop-color="#0357D1"
         id="stop43" />
      <stop
         offset="1"
         stop-color="#27CDFC"
         id="stop44" />
    </linearGradient>
    <linearGradient
       id="paint14_linear"
       x1="4"
       y1="59.111801"
       x2="71.222702"
       y2="29.3402"
       gradientUnits="userSpaceOnUse"
       gradientTransform="matrix(0.23588415,0,0,0.23588415,3.0564608,3.0564634)">
      <stop
         stop-color="#0357D1"
         id="stop45" />
      <stop
         offset="1"
         stop-color="#27CDFC"
         id="stop46" />
    </linearGradient>
    <linearGradient
       id="paint15_linear"
       x1="4"
       y1="59.111801"
       x2="71.222702"
       y2="29.3402"
       gradientUnits="userSpaceOnUse"
       gradientTransform="matrix(0.23588415,0,0,0.23588415,3.0564608,3.0564634)">
      <stop
         stop-color="#0357D1"
         id="stop47" />
      <stop
         offset="1"
         stop-color="#27CDFC"
         id="stop48" />
    </linearGradient>
    <linearGradient
       id="paint16_linear"
       x1="4"
       y1="59.111801"
       x2="71.222702"
       y2="29.3402"
       gradientUnits="userSpaceOnUse"
       gradientTransform="matrix(0.23588415,0,0,0.23588415,3.0564608,3.0564634)">
      <stop
         stop-color="#0357D1"
         id="stop49" />
      <stop
         offset="1"
         stop-color="#27CDFC"
         id="stop50" />
    </linearGradient>
    <linearGradient
       inkscape:collect="always"
       xlink:href="#linearGradient50"
       id="linearGradient52"
       x1="3.9999965"
       y1="10.500008"
       x2="17.209535"
       y2="10.500008"
       gradientUnits="userSpaceOnUse" />
  </defs>
</svg>
