<?xml version="1.0" encoding="UTF-8" standalone="no"?>
<!-- Generator: Gravit.io -->

<svg
   style="isolation:isolate"
   viewBox="0 0 16 16"
   width="16pt"
   height="16pt"
   version="1.1"
   id="svg6"
   sodipodi:docname="vscodium-Wayland.svg"
   inkscape:version="1.4.4 (unknown)"
   xmlns:inkscape="http://www.inkscape.org/namespaces/inkscape"
   xmlns:sodipodi="http://sodipodi.sourceforge.net/DTD/sodipodi-0.dtd"
   xmlns:xlink="http://www.w3.org/1999/xlink"
   xmlns="http://www.w3.org/2000/svg"
   xmlns:svg="http://www.w3.org/2000/svg">
  <defs
     id="defs6">
    <linearGradient
       id="linearGradient6"
       inkscape:collect="always">
      <stop
         style="stop-color:#ffdd55;stop-opacity:1"
         offset="0"
         id="stop7" />
      <stop
         style="stop-color:#975cf6;stop-opacity:1"
         offset="1"
         id="stop8" />
    </linearGradient>
    <linearGradient
       inkscape:collect="always"
       xlink:href="#linearGradient6"
       id="linearGradient8"
       x1="0.95873946"
       y1="47.030327"
       x2="46.958538"
       y2="1.0297469"
       gradientUnits="userSpaceOnUse" />
  </defs>
  <sodipodi:namedview
     id="namedview6"
     pagecolor="#ffffff"
     bordercolor="#000000"
     borderopacity="0.25"
     inkscape:showpageshadow="2"
     inkscape:pageopacity="0.0"
     inkscape:pagecheckerboard="0"
     inkscape:deskcolor="#d1d1d1"
     inkscape:document-units="pt"
     inkscape:zoom="24.34375"
     inkscape:cx="9.2015404"
     inkscape:cy="11.39923"
     inkscape:window-width="1920"
     inkscape:window-height="994"
     inkscape:window-x="0"
     inkscape:window-y="0"
     inkscape:window-maximized="1"
     inkscape:current-layer="svg6" />
  <linearGradient
     id="_lgradient_3"
     x1="0"
     y1="0.5"
     x2="1.0176991"
     y2="0.5"
     gradientTransform="matrix(27,0,0,22.68,10.5,12.66)"
     gradientUnits="userSpaceOnUse">
    <stop
       offset="0%"
       stop-opacity="1"
       style="stop-color:rgb(84,51,255)"
       id="stop1" />
    <stop
       offset="51.73913043478261%"
       stop-opacity="1"
       style="stop-color:rgb(32,189,255)"
       id="stop2" />
    <stop
       offset="98.26086956521739%"
       stop-opacity="1"
       style="stop-color:rgb(165,254,203)"
       id="stop3" />
  </linearGradient>
  <linearGradient
     id="_lgradient_4"
     x1="0.071553186"
     y1="0.74391294"
     x2="0.99873358"
     y2="0.49568295"
     gradientTransform="matrix(46,0,0,46,0.959,1.03)"
     gradientUnits="userSpaceOnUse">
    <stop
       offset="0%"
       stop-opacity="1"
       style="stop-color:rgb(84,51,255)"
       id="stop4" />
    <stop
       offset="51.73913043478261%"
       stop-opacity="1"
       style="stop-color:rgb(32,189,255)"
       id="stop5" />
    <stop
       offset="98.26086956521739%"
       stop-opacity="1"
       style="stop-color:rgb(165,254,203)"
       id="stop6" />
  </linearGradient>
  <g
     id="g6"
     transform="matrix(0.28260514,0,0,0.28260514,1.2291655,1.2089882)">
    <path
       d="m 33.433,40.492 v 0 c 0.958,-0.547 2.184,-0.216 2.736,0.739 v 0 c 0.553,0.955 0.225,2.179 -0.733,2.732 v 0 c -3.725,2.144 -7.974,3.2 -12.261,3.054 -3.888,-0.133 -7.682,-1.253 -11.026,-3.248 v 0 c -0.947,-0.568 -1.255,-1.798 -0.687,-2.745 v 0 c 0.568,-0.947 1.798,-1.255 2.745,-0.687 v 0 c 2.755,1.655 5.886,2.572 9.104,2.682 3.548,0.121 7.05,-0.75 10.122,-2.527 v 0 z m 7.534,-24.937 v 0 c -0.496,-0.989 -0.096,-2.193 0.892,-2.686 v 0 c 0.989,-0.494 2.19,-0.092 2.681,0.896 v 0 c 1.715,3.421 2.536,7.221 2.405,11.049 -0.099,2.918 -0.747,5.788 -1.919,8.449 v 0 c -0.443,1.012 -1.624,1.474 -2.637,1.031 v 0 c -1.012,-0.443 -1.473,-1.625 -1.03,-2.637 v 0 c 0.975,-2.198 1.506,-4.571 1.589,-6.98 0.107,-3.158 -0.576,-6.293 -1.981,-9.122 v 0 z M 15.727,6.91 v 0 c -0.993,0.474 -2.19,0.052 -2.669,-0.942 v 0 c -0.48,-0.994 -0.063,-2.19 0.931,-2.67 v 0 C 17.336,1.691 21.024,0.917 24.742,1.043 28.32,1.165 31.83,2.116 34.973,3.834 v 0 c 0.971,0.53 1.328,1.748 0.798,2.718 v 0 C 35.241,7.523 34.023,7.88 33.052,7.35 v 0 C 30.459,5.931 27.564,5.142 24.606,5.041 21.538,4.936 18.494,5.573 15.727,6.91 Z M 5.933,30.059 v 0 c 0.351,1.045 -0.215,2.178 -1.262,2.529 v 0 C 3.623,32.939 2.488,32.371 2.137,31.321 v 0 C 1.276,28.72 0.879,25.985 0.972,23.246 1.095,19.628 2.067,16.079 3.826,12.907 v 0 c 0.53,-0.964 1.745,-1.313 2.713,-0.778 v 0 c 0.967,0.536 1.318,1.754 0.783,2.719 v 0 c -1.45,2.622 -2.251,5.546 -2.352,8.535 -0.078,2.268 0.246,4.521 0.963,6.676 z M 41.174,9.498 c -0.038,1.103 -0.964,1.969 -2.067,1.931 -1.103,-0.038 -1.969,-0.964 -1.931,-2.067 0.038,-1.103 0.964,-1.968 2.067,-1.931 1.103,0.038 1.968,0.964 1.931,2.067 z M 9.931,37.22 C 9.893,38.323 8.967,39.188 7.864,39.15 6.761,39.113 5.896,38.187 5.933,37.083 5.971,35.98 6.897,35.115 8,35.153 9.103,35.19 9.969,36.116 9.931,37.22 Z m 32.016,1.091 c 0.038,-1.103 -0.827,-2.029 -1.93,-2.067 -1.103,-0.037 -2.03,0.828 -2.067,1.931 -0.038,1.103 0.827,2.029 1.93,2.067 1.104,0.038 2.03,-0.827 2.067,-1.931 z M 11.371,8.482 C 11.409,7.379 10.544,6.453 9.44,6.415 8.337,6.377 7.411,7.243 7.373,8.346 c -0.037,1.103 0.828,2.029 1.931,2.067 1.103,0.037 2.029,-0.828 2.067,-1.931 z"
       fill-rule="evenodd"
       id="path6"
       style="fill:url(#linearGradient8)" />
  </g>
  <g
     id="g2"
     transform="translate(-8.1953211e-8,0.09999895)">
    <g
       id="g1">
      <path
         style="opacity:0.2;stroke-width:0.200004"
         d="M 7.8610977,4.1777542 C 7.6326908,4.3243549 7.5668887,4.6279571 7.7140928,4.8555581 8.5227178,6.1087658 8.7137238,7.0539722 8.6309215,7.8821766 8.2961109,9.4683861 7.5684886,9.790389 6.9326687,9.790389 c -0.620819,0 -0.4546139,-1.0224073 0.012,-1.3216087 0.2786088,-0.1740007 0.63542,-0.2872013 0.9092283,-0.2872013 0.2714085,0 0.4914152,-0.2194016 0.4914152,-0.4902034 0,-0.270802 -0.2200067,-0.4902028 -0.4914152,-0.4902028 -0.3198098,0 -0.6336196,0.067403 -0.9264287,0.1818006 0.059801,-0.2826012 0.082003,-0.5878032 0.0046,-0.9124054 C 6.814663,5.9777651 6.4764526,5.5071622 5.8894346,5.0509595 5.7866312,4.970759 5.6562275,4.9349583 5.5268232,4.9509586 5.3974195,4.9669593 5.2798156,5.0335592 5.1998129,5.1361598 5.033208,5.3499615 5.0718092,5.6579631 5.2860157,5.8241644 c 0.4782148,0.3716021 0.6362202,0.6468034 0.6902214,0.8732054 0.054001,0.2266016 0.0104,0.4694031 -0.098003,0.803204 C 5.7396297,7.9505774 5.578625,8.3521796 5.5080227,8.7371814 5.4734215,8.9267826 5.4704207,9.1331834 5.4614208,9.2979847 5.1170105,8.9619832 4.9822061,8.518581 4.9822061,7.8705763 4.9822061,7.5997751 4.7621995,7.3803735 4.4907909,7.3803735 4.2197825,7.3805733 3.999976,7.5999746 3.999976,7.8705763 c 0,0.8850054 0.2586078,1.7272111 0.9518293,2.2890137 0.6276196,0.598206 2.2232691,0.377202 2.2232691,1.337411 0,0.270998 0.3964117,0.403 0.6678202,0.403 0.2782088,0 0.6284198,-0.1862 0.6284198,-0.403 0,-1.089606 1.1476363,-1.7518132 3.0368926,-1.7490132 0.271408,3.714e-4 0.491416,-0.2188017 0.491816,-0.4896037 6.04e-4,-0.2708016 -0.219004,-0.4906017 -0.49041,-0.4910017 -0.129204,-2.005e-4 -0.255012,0.00425 -0.379212,0.011603 0.211207,-0.4972033 0.304812,-1.0444062 0.28561,-1.6354102 -0.009,-0.2706018 -0.23601,-0.4828029 -0.507218,-0.4740029 -0.271412,0.0088 -0.484016,0.2356015 -0.475216,0.5064032 0.0256,0.7740046 -0.0037,1.4650088 -0.5796189,1.8292115 C 9.6901558,9.1087879 9.4995472,9.198589 9.3189426,9.198589 9.4591455,8.8169868 9.5651486,8.4139832 9.6085528,7.979781 9.6361493,7.7025792 9.6391611,7.373377 9.6074395,7.1175754 9.5584599,6.7213709 9.4992678,6.271968 9.6494845,5.9335658 9.7846889,5.6419639 10.087099,5.5197636 10.531512,5.5197636 c 0.271007,-2.007e-4 0.490815,-0.2196012 0.490815,-0.4900031 2e-4,-0.2708019 -0.219606,-0.4906034 -0.490815,-0.4908034 -0.6602208,0 -1.1606363,0.3478023 -1.4444447,0.7678051 C 8.9389212,4.9897601 8.7583158,4.6629583 8.5399088,4.3249564 8.4695071,4.2155557 8.3585033,4.1387552 8.2310996,4.1111556 8.1680968,4.0975572 8.1030954,4.0963542 8.0394934,4.1077419 7.9758919,4.1191419 7.9152897,4.142945 7.861088,4.1777396 Z"
         id="path3" />
      <path
         style="fill:#ffdd55;stroke-width:0.200004"
         d="m 7.8610977,3.9777532 c -0.2284069,0.1466004 -0.294209,0.450203 -0.1470049,0.6778039 0.808625,1.253208 0.999631,2.1984131 0.9168287,3.0266182 -0.3348106,1.5862088 -1.0624329,1.9082122 -1.6982528,1.9082122 -0.620819,0 -0.4546139,-1.0224065 0.012,-1.321608 0.2786089,-0.1740017 0.6354203,-0.2872022 0.9092289,-0.2872022 0.2714081,0 0.491415,-0.2194016 0.491415,-0.4902037 0,-0.2708005 -0.2200069,-0.4902019 -0.491415,-0.4902019 -0.3198103,0 -0.63362,0.067396 -0.926429,0.181801 0.059801,-0.2826018 0.082003,-0.5878035 0.00459,-0.9124059 -0.1174,-0.4928024 -0.4556106,-0.9634059 -1.0426284,-1.4196092 -0.1028035,-0.080201 -0.2332072,-0.1160003 -0.3626115,-0.1 -0.1294036,0.015999 -0.2470075,0.0826 -0.3270102,0.1852009 -0.166605,0.2138009 -0.1280036,0.5218036 0.086203,0.6880049 0.4782146,0.3716016 0.6362196,0.646803 0.6902211,0.8732045 0.054002,0.2266014 0.0104,0.4694029 -0.098002,0.803205 C 5.7396301,7.7505754 5.5786255,8.1521787 5.5080231,8.5371805 5.4734221,8.7267813 5.470421,8.933183 5.4614214,9.0979834 5.1170105,8.761981 4.9822061,8.3185796 4.9822061,7.6705752 4.9822061,7.3997735 4.7621995,7.1803723 4.4907909,7.1803723 4.2197826,7.1805727 3.999976,7.3999735 3.999976,7.6705752 c 0,0.8850051 0.2586078,1.7272119 0.9518294,2.289014 0.6276196,0.5982068 2.223269,0.3772018 2.223269,1.3374118 0,0.270998 0.3964117,0.402998 0.6678203,0.402998 0.2782087,0 0.6284197,-0.186198 0.6284197,-0.402998 0,-1.089608 1.1476363,-1.7518142 3.0368916,-1.7490142 0.271409,3.542e-4 0.491417,-0.2188017 0.491817,-0.4896035 6.04e-4,-0.2708016 -0.219004,-0.4906023 -0.49041,-0.491002 -0.129205,-2.008e-4 -0.255012,0.00426 -0.379212,0.011605 0.211206,-0.4972048 0.304811,-1.0444078 0.28561,-1.6354109 -0.009,-0.2706015 -0.23601,-0.4828027 -0.507219,-0.474003 -0.271412,0.0088 -0.484015,0.235601 -0.475215,0.5064029 0.0256,0.7740053 -0.0037,1.465009 -0.5796189,1.8292109 C 9.6901551,8.9087881 9.4995472,8.9985888 9.3189426,8.9985888 9.4591455,8.6169861 9.5651486,8.2139837 9.6085528,7.7797811 9.6361456,7.5025795 9.6391632,7.1733774 9.6075071,6.917576 9.5585,6.5213731 9.4993036,6.071971 9.6495107,5.7335688 9.7847158,5.4419666 10.087125,5.3197662 10.531537,5.3197662 c 0.271008,-2.004e-4 0.490816,-0.2196015 0.490816,-0.4900026 1.99e-4,-0.2708021 -0.219607,-0.4906033 -0.490816,-0.4908035 -0.6602189,0 -1.1606348,0.3478018 -1.4444436,0.7678046 C 8.9389302,4.7897622 8.7583246,4.46296 8.5399177,4.1249577 8.4695159,4.0155572 8.3585122,3.9387572 8.231108,3.9111566 8.1681061,3.8975575 8.1031043,3.8963552 8.0395023,3.9077513 c -0.063601,0.0114 -0.1242035,0.035202 -0.1784053,0.070005 z"
         id="path4" />
    </g>
  </g>
</svg>
