<?xml version="1.0" encoding="UTF-8" standalone="no"?>
<svg
   height="16"
   viewBox="0 0 16 16"
   width="16"
   version="1.1"
   id="svg25"
   sodipodi:docname="vvave.svg"
   inkscape:version="1.4.4 (unknown)"
   xmlns:inkscape="http://www.inkscape.org/namespaces/inkscape"
   xmlns:sodipodi="http://sodipodi.sourceforge.net/DTD/sodipodi-0.dtd"
   xmlns:xlink="http://www.w3.org/1999/xlink"
   xmlns="http://www.w3.org/2000/svg"
   xmlns:svg="http://www.w3.org/2000/svg">
  <defs
     id="defs29">
    <linearGradient
       id="linearGradient1"
       inkscape:collect="always">
      <stop
         style="stop-color:#ff66ff;stop-opacity:1;"
         offset="0"
         id="stop1" />
      <stop
         style="stop-color:#ff2a2a;stop-opacity:1"
         offset="1"
         id="stop3" />
    </linearGradient>
    <linearGradient
       id="linearGradient4054"
       gradientUnits="userSpaceOnUse"
       x1="4"
       x2="4"
       y1="44"
       y2="4"
       gradientTransform="matrix(1.0499999,0,0,1.0499999,-41.235474,-52.345686)">
      <stop
         offset="0"
         stop-color="#be1111"
         id="stop2-0" />
      <stop
         offset="1"
         stop-color="#e74c3c"
         id="stop4-6" />
    </linearGradient>
    <linearGradient
       id="linearGradient4058"
       gradientUnits="userSpaceOnUse"
       x1="20"
       x2="40"
       y1="24"
       y2="44"
       gradientTransform="matrix(1.0499999,0,0,1.0499999,-41.235474,-52.345686)">
      <stop
         offset="0"
         id="stop12-8" />
      <stop
         offset="1"
         stop-opacity="0"
         id="stop14-9" />
    </linearGradient>
    <linearGradient
       id="linearGradient4062"
       gradientUnits="userSpaceOnUse"
       x1="9"
       x2="64"
       y1="13"
       y2="68"
       gradientTransform="matrix(1.0499999,0,0,1.0499999,-41.235474,-52.345686)">
      <stop
         offset="0"
         stop-color="#fcfcfc"
         id="stop7-2" />
      <stop
         offset="1"
         stop-color="#e74c3c"
         id="stop9-6" />
    </linearGradient>
    <filter
       inkscape:collect="always"
       style="color-interpolation-filters:sRGB"
       id="filter1719"
       x="-0.070336814"
       y="-0.087921019"
       width="1.1406736"
       height="1.175842">
      <feGaussianBlur
         inkscape:collect="always"
         stdDeviation="0.56044576"
         id="feGaussianBlur1721" />
    </filter>
    <linearGradient
       inkscape:collect="always"
       xlink:href="#linearGradient1"
       id="linearGradient3"
       x1="1.5968418"
       y1="7.9994863"
       x2="14.403159"
       y2="7.9994863"
       gradientUnits="userSpaceOnUse"
       gradientTransform="matrix(1.1335939,0,0,1.1335939,-1.4246679,-1.4051472)" />
  </defs>
  <sodipodi:namedview
     id="namedview27"
     pagecolor="#ffffff"
     bordercolor="#666666"
     borderopacity="1.0"
     inkscape:showpageshadow="2"
     inkscape:pageopacity="0.0"
     inkscape:pagecheckerboard="0"
     inkscape:deskcolor="#d1d1d1"
     showgrid="false"
     inkscape:zoom="19.666667"
     inkscape:cx="2.2372881"
     inkscape:cy="6.5338982"
     inkscape:window-width="1920"
     inkscape:window-height="994"
     inkscape:window-x="0"
     inkscape:window-y="0"
     inkscape:window-maximized="1"
     inkscape:current-layer="svg25" />
  <linearGradient
     id="a"
     gradientUnits="userSpaceOnUse"
     x1="4"
     x2="4"
     y1="44"
     y2="4"
     gradientTransform="matrix(1.0499999,0,0,1.0499999,-41.235474,-52.345686)">
    <stop
       offset="0"
       stop-color="#be1111"
       id="stop2" />
    <stop
       offset="1"
       stop-color="#e74c3c"
       id="stop4" />
  </linearGradient>
  <linearGradient
     id="b"
     gradientUnits="userSpaceOnUse"
     x1="9"
     x2="64"
     y1="13"
     y2="68"
     gradientTransform="matrix(1.0499999,0,0,1.0499999,-41.235474,-52.345686)">
    <stop
       offset="0"
       stop-color="#fcfcfc"
       id="stop7" />
    <stop
       offset="1"
       stop-color="#e74c3c"
       id="stop9" />
  </linearGradient>
  <linearGradient
     id="c"
     gradientUnits="userSpaceOnUse"
     x1="20"
     x2="40"
     y1="24"
     y2="44"
     gradientTransform="matrix(1.0499999,0,0,1.0499999,-41.235474,-52.345686)">
    <stop
       offset="0"
       id="stop12" />
    <stop
       offset="1"
       stop-opacity="0"
       id="stop14" />
  </linearGradient>
  <g
     id="g1"
     transform="translate(0.35591982,0.33697855)">
    <path
       d="m 13.108679,9.2840253 v 1.9123257 h 1.912327 V 9.2840253 Z m 5.736981,0 v 1.9123257 h 1.912327 V 9.2840253 Z m -8.605471,0.9561627 v 1.912328 h 1.912326 v -1.912328 z m 11.473962,0 v 1.912328 h 1.912326 V 10.240188 Z M 7.371698,11.196351 v 1.912328 h 1.912326 v -1.912328 z m 8.605471,0 v 1.912328 h 1.912327 v -1.912328 z m 8.605473,0 v 1.912328 h 1.912326 v -1.912328 z m -11.473963,0.956165 v 1.912326 h 1.912327 v -1.912326 z m 5.736981,0 v 1.912326 h 1.912327 v -1.912326 z m -8.605471,0.956163 v 1.912328 h 1.912326 v -1.912328 z m 11.473962,0 v 1.912328 h 1.912326 V 13.108679 Z M 7.371698,14.064842 v 1.912326 h 1.912326 v -1.912326 z m 8.605471,0 v 1.912326 h 1.912327 v -1.912326 z m 8.605473,0 v 1.912326 h 1.912326 v -1.912326 z m -11.473963,0.956165 v 1.912326 h 1.912327 v -1.912326 z m 5.736981,0 v 1.912326 h 1.912327 v -1.912326 z m -8.605471,0.956161 v 1.912329 h 1.912326 v -1.912329 z m 11.473962,0 v 1.912329 h 1.912326 V 15.977168 Z M 7.371698,16.933333 v 1.912326 h 1.912326 v -1.912326 z m 8.605471,0 v 1.912326 h 1.912327 v -1.912326 z m 8.605473,0 v 1.912326 h 1.912326 v -1.912326 z m -11.473963,0.956164 v 1.912327 h 1.912327 v -1.912327 z m 5.736981,0 v 1.912327 h 1.912327 v -1.912327 z m -8.605471,0.956162 v 1.912329 h 1.912326 v -1.912329 z m 11.473962,0 v 1.912329 h 1.912326 v -1.912329 z m -5.736982,0.956165 v 1.912326 h 1.912327 v -1.912326 z m -2.86849,0.956164 v 1.912327 h 1.912327 v -1.912327 z m 5.736981,0 v 1.912327 h 1.912327 v -1.912327 z m -2.868491,1.912327 v 1.912326 h 1.912327 v -1.912326 z"
       id="path4-3"
       style="opacity:0.209386;fill:#000000;stroke-width:0.478081;filter:url(#filter1719)"
       transform="matrix(0.84365495,0,0,0.83385423,-6.6418096,-6.4569099)" />
    <path
       d="M 4.7406554,1.9236199 V 3.3584602 H 6.192362 V 1.9236199 Z m 4.3551404,0 V 3.3584602 H 10.547514 V 1.9236199 Z M 2.5630715,2.6410396 V 4.0758947 H 4.0147896 V 2.6410396 Z m 8.7102965,0 V 4.0758947 H 12.72509 V 2.6410396 Z M 0.38550226,3.3584602 V 4.7933136 H 1.837218 V 3.3584602 Z m 6.53272574,0 V 4.7933136 H 8.3699431 V 3.3584602 Z m 6.532717,0 V 4.7933136 H 14.90266 V 3.3584602 Z M 4.7406554,4.0758947 V 5.5107469 H 6.192362 V 4.0758947 Z m 4.3551404,0 V 5.5107469 H 10.547514 V 4.0758947 Z M 2.5630715,4.7933136 V 6.2281678 H 4.0147896 V 4.7933136 Z m 8.7102965,0 V 6.2281678 H 12.72509 V 4.7933136 Z M 0.38550226,5.5107469 v 1.434851 H 1.837218 v -1.434851 z m 6.53272574,0 v 1.434851 h 1.4517151 v -1.434851 z m 6.532717,0 v 1.434851 H 14.90266 V 5.5107469 Z M 4.7406554,6.2281678 V 7.6630209 H 6.192362 V 6.2281678 Z m 4.3551404,0 V 7.6630209 H 10.547514 V 6.2281678 Z M 2.5630715,6.9455979 V 8.380442 H 4.0147896 V 6.9455979 Z m 8.7102965,0 V 8.380442 H 12.72509 V 6.9455979 Z M 0.38550226,7.6630209 V 9.0978731 H 1.837218 V 7.6630209 Z m 6.53272574,0 V 9.0978731 H 8.3699431 V 7.6630209 Z m 6.532717,0 V 9.0978731 H 14.90266 V 7.6630209 Z M 4.7406554,8.380442 V 9.8152935 H 6.192362 V 8.380442 Z m 4.3551404,0 V 9.8152935 H 10.547514 V 8.380442 Z M 2.5630715,9.0978731 V 10.53273 H 4.0147896 V 9.0978731 Z m 8.7102965,0 V 10.53273 H 12.72509 V 9.0978731 Z M 6.918228,9.8152935 V 11.250145 H 8.3699431 V 9.8152935 Z M 4.7406554,10.53273 v 1.434854 H 6.192362 V 10.53273 Z m 4.3551404,0 v 1.434854 H 10.547514 V 10.53273 Z M 6.918228,11.967584 v 1.434839 h 1.4517151 v -1.434839 z"
       id="path4"
       style="fill:url(#linearGradient3);stroke-width:1.13358" />
  </g>
</svg>
