<?xml version="1.0" encoding="UTF-8" standalone="no"?>
<svg
   width="16"
   height="16"
   version="1.1"
   id="svg5"
   sodipodi:docname="warsow.svg"
   inkscape:version="1.4.4 (unknown)"
   xmlns:inkscape="http://www.inkscape.org/namespaces/inkscape"
   xmlns:sodipodi="http://sodipodi.sourceforge.net/DTD/sodipodi-0.dtd"
   xmlns:xlink="http://www.w3.org/1999/xlink"
   xmlns="http://www.w3.org/2000/svg"
   xmlns:svg="http://www.w3.org/2000/svg">
  <defs
     id="defs5">
    <linearGradient
       id="linearGradient1"
       inkscape:collect="always">
      <stop
         style="stop-color:#00ccff;stop-opacity:1"
         offset="0"
         id="stop1" />
      <stop
         style="stop-color:#ffb380;stop-opacity:1"
         offset="0.50445688"
         id="stop3" />
      <stop
         style="stop-color:#9955ff;stop-opacity:1"
         offset="1"
         id="stop2" />
    </linearGradient>
    <linearGradient
       inkscape:collect="always"
       xlink:href="#linearGradient1"
       id="linearGradient2"
       x1="2.3193221"
       y1="13.445691"
       x2="12.919322"
       y2="1.666667"
       gradientUnits="userSpaceOnUse" />
  </defs>
  <sodipodi:namedview
     id="namedview5"
     pagecolor="#ffffff"
     bordercolor="#000000"
     borderopacity="0.25"
     inkscape:showpageshadow="2"
     inkscape:pageopacity="0.0"
     inkscape:pagecheckerboard="0"
     inkscape:deskcolor="#d1d1d1"
     inkscape:zoom="20"
     inkscape:cx="7.25"
     inkscape:cy="5.625"
     inkscape:window-width="1920"
     inkscape:window-height="994"
     inkscape:window-x="0"
     inkscape:window-y="0"
     inkscape:window-maximized="1"
     inkscape:current-layer="svg5" />
  <g
     id="g1"
     transform="translate(0.330678,0.288833)">
    <path
       style="opacity:0.2;stroke-width:0.297598"
       d="M 9.0978903,6.9362311 H 7.0978937 L 6.526466,8.7960789 H 8.5264656 Z M 15.669322,1.9766389 15.097889,4.1464597 H 5.6693221 L 6.526466,5.0763833 h 5.714291 l -1.428579,4.0296684 1.71429,1.5498733 -1.142856,3.099742 H -0.330678 L 0.24075039,11.585845 H 9.669323 L 8.8121804,10.655925 H 3.3836074 L 4.812179,6.9362311 2.8121795,5.0763833 3.9550362,1.9766389 Z"
       id="path4" />
    <path
       fill="#ffffff"
       d="M 9.0978903,6.6262555 H 7.0978937 L 6.526466,8.4861042 H 8.5264656 Z M 15.669322,1.666667 15.097889,3.8364868 H 5.6693221 L 6.526466,4.7664113 h 5.714291 l -1.428579,4.0296676 1.71429,1.5498721 -1.142856,3.09974 H -0.330678 L 0.24075039,11.275869 H 9.669323 L 8.8121804,10.345951 H 3.3836074 L 4.812179,6.6262555 2.8121795,4.7664113 3.9550362,1.666667 Z"
       id="path5"
       style="stroke-width:0.297598;fill:url(#linearGradient2)" />
  </g>
</svg>
