<?xml version="1.0" encoding="UTF-8" standalone="no"?>
<!-- Generator: Gravit.io -->

<svg
   style="isolation:isolate"
   viewBox="0 0 16 16"
   width="16"
   height="16"
   version="1.1"
   id="svg6"
   sodipodi:docname="com.github.bitseater.weather.svg"
   inkscape:version="1.4.4 (unknown)"
   xmlns:inkscape="http://www.inkscape.org/namespaces/inkscape"
   xmlns:sodipodi="http://sodipodi.sourceforge.net/DTD/sodipodi-0.dtd"
   xmlns:xlink="http://www.w3.org/1999/xlink"
   xmlns="http://www.w3.org/2000/svg"
   xmlns:svg="http://www.w3.org/2000/svg">
  <defs
     id="defs6">
    <linearGradient
       id="linearGradient9"
       inkscape:collect="always">
      <stop
         style="stop-color:#00ccff;stop-opacity:1"
         offset="0"
         id="stop9" />
      <stop
         style="stop-color:#2a7fff;stop-opacity:1"
         offset="1"
         id="stop10" />
    </linearGradient>
    <linearGradient
       id="linearGradient6"
       inkscape:collect="always">
      <stop
         style="stop-color:#ffcc00;stop-opacity:1"
         offset="0"
         id="stop7" />
      <stop
         style="stop-color:#ffe680;stop-opacity:1"
         offset="1"
         id="stop8" />
    </linearGradient>
    <linearGradient
       inkscape:collect="always"
       xlink:href="#linearGradient6"
       id="linearGradient8"
       x1="6.0998501"
       y1="6.494853"
       x2="15.076538"
       y2="6.494853"
       gradientUnits="userSpaceOnUse" />
    <linearGradient
       inkscape:collect="always"
       xlink:href="#linearGradient9"
       id="linearGradient10"
       x1="0.99774416"
       y1="9.614745"
       x2="14.622479"
       y2="9.614745"
       gradientUnits="userSpaceOnUse" />
  </defs>
  <sodipodi:namedview
     id="namedview6"
     pagecolor="#ffffff"
     bordercolor="#000000"
     borderopacity="0.25"
     inkscape:showpageshadow="2"
     inkscape:pageopacity="0.0"
     inkscape:pagecheckerboard="0"
     inkscape:deskcolor="#d1d1d1"
     inkscape:document-units="px"
     inkscape:zoom="16.727495"
     inkscape:cx="8.070545"
     inkscape:cy="15.453599"
     inkscape:window-width="1920"
     inkscape:window-height="994"
     inkscape:window-x="0"
     inkscape:window-y="0"
     inkscape:window-maximized="1"
     inkscape:current-layer="svg6" />
  <linearGradient
     id="_lgradient_54"
     x1="0"
     y1="0.5"
     x2="1"
     y2="0.5"
     gradientTransform="matrix(8.9766878,0,0,7.9897063,6.09985,2.5)"
     gradientUnits="userSpaceOnUse">
    <stop
       offset="0%"
       stop-opacity="1"
       style="stop-color:rgb(247,242,6)"
       id="stop1" />
    <stop
       offset="97.82608695652173%"
       stop-opacity="1"
       style="stop-color:rgb(255,187,36)"
       id="stop2" />
  </linearGradient>
  <linearGradient
     id="_lgradient_55"
     x1="0"
     y1="0.5"
     x2="0.90748805"
     y2="0.92007786"
     gradientTransform="matrix(13.624584,0,0,9.6881622,0.99751885,4.770663)"
     gradientUnits="userSpaceOnUse">
    <stop
       offset="0%"
       stop-opacity="1"
       style="stop-color:rgb(0,196,255)"
       id="stop3" />
    <stop
       offset="83.88839793817618%"
       stop-opacity="1"
       style="stop-color:rgb(0,114,255)"
       id="stop4" />
  </linearGradient>
  <linearGradient
     id="_lgradient_56"
     x1="0"
     y1="0.5"
     x2="0.90748805"
     y2="0.92007786"
     gradientTransform="matrix(6.9491371,0,0,3.4632152,4.3287329,12.036785)"
     gradientUnits="userSpaceOnUse">
    <stop
       offset="0%"
       stop-opacity="1"
       style="stop-color:rgb(0,255,216)"
       id="stop5" />
    <stop
       offset="83.88839793817618%"
       stop-opacity="1"
       style="stop-color:rgb(0,255,184)"
       id="stop6" />
  </linearGradient>
  <g
     id="g6"
     transform="translate(-0.03714108,-1)">
    <path
       d="M 7.1140796,5.2883742 6.8839857,5.6789282 6.0998501,5.2217681 6.3299439,4.8281865 C 7.1685755,3.3900999 8.7156539,2.5 10.383834,2.5 c 1.244324,0 2.437179,0.4934908 3.318196,1.374508 0.87799,0.8810173 1.374508,2.0738723 1.374508,3.3181956 0,1.071753 -0.366334,2.1102028 -1.041478,2.9458064 l -0.284589,0.351196 -0.70542,-0.5691792 0.28459,-0.3542234 c 0.541932,-0.6721163 0.838632,-1.5107478 0.838632,-2.3735998 0,-1.0021193 -0.399637,-1.967908 -1.108084,-2.6763548 -0.711474,-0.7084469 -1.674235,-1.1080836 -2.676355,-1.1080836 -1.3442322,0 -2.5915831,0.7175295 -3.2697544,1.880109 z"
       id="path2"
       style="fill:url(#linearGradient8)" />
    <path
       d="m 12.40533,8.5762943 c 0.0042,9.082e-4 0.0085,0.00182 0.01272,0.00303 0.205873,0.054496 0.408719,0.1271572 0.60551,0.2149561 0.17257,0.081744 0.339085,0.175598 0.493491,0.2876173 0.169542,0.1241296 0.323947,0.2664245 0.460187,0.4268847 0.133212,0.1604602 0.248259,0.3330306 0.339086,0.5207396 0.09688,0.202846 0.17257,0.414774 0.217984,0.632758 0.0545,0.248259 0.08477,0.502573 0.0878,0.759915 0.003,0.248259 -0.01211,0.496518 -0.04844,0.74175 -0.03028,0.205873 -0.08174,0.411747 -0.157433,0.608538 -0.06358,0.17257 -0.145322,0.336058 -0.245231,0.49349 -0.09386,0.14835 -0.205874,0.287618 -0.333031,0.411747 -0.130185,0.127157 -0.275507,0.239177 -0.43294,0.333031 -0.169543,0.09991 -0.348168,0.18468 -0.532849,0.248259 -0.18468,0.06358 -0.378444,0.108992 -0.572207,0.139267 -0.230094,0.03633 -0.463215,0.05752 -0.696336,0.06055 -0.003,0 -0.0061,0 -0.0091,0 H 9.4752664 8.8697562 6.1449606 4.0256751 c -0.00303,0 -0.00606,0 -0.00908,0 -0.242204,-0.003 -0.4874356,-0.02422 -0.7266121,-0.06358 -0.2028459,-0.0333 -0.3996367,-0.08477 -0.5934,-0.154405 C 2.5240099,14.177263 2.3544671,14.095519 2.1970344,13.998638 2.0456569,13.907811 1.9063896,13.798819 1.78226,13.677717 1.6490478,13.544505 1.5309733,13.399183 1.4310641,13.24175 1.3281274,13.075235 1.2463835,12.896609 1.182805,12.711929 1.1161988,12.521193 1.067758,12.32743 1.0405101,12.127611 1.0102346,11.89449 0.99509682,11.658341 0.99812437,11.422192 1.0011519,11.167878 1.0314274,10.913563 1.0859233,10.662277 1.1313366,10.444293 1.2070254,10.232365 1.303907,10.032546 1.3947335,9.844838 1.5097804,9.6692401 1.6429927,9.5118074 1.7762049,9.3513473 1.93061,9.2090524 2.1001528,9.0849228 2.2575855,8.9729034 2.4241008,8.8729942 2.6027262,8.7942779 2.799517,8.7034514 3.0053905,8.6307902 3.217319,8.5762943 3.218829,8.5759915 3.220349,8.575386 3.221859,8.5750843 3.4346972,7.5475325 3.9793536,6.6120194 4.7734801,5.9181048 5.6151392,5.1793824 6.6959748,4.7736906 7.813141,4.770663 c 0,0 0,0 0.00303,0 v 0 0 c 1.138359,0.00303 2.234332,0.4238571 3.082046,1.1837724 0.771117,0.690887 1.30003,1.6115652 1.507115,2.6218589 z M 11.098639,8.4073569 c -0.04693,-0.00212 -0.09355,-0.00303 -0.139873,-0.00363 -0.314865,0.033303 -0.623675,0.093854 -0.92643,0.1786255 C 9.8204071,8.6429004 9.6145337,8.7306994 9.423798,8.8427187 9.2936133,8.91538 9.1755388,9.0062065 9.066547,9.1061157 8.9636103,9.1999697 8.8727838,9.3089616 8.8001225,9.427036 8.7274613,9.542083 8.6729654,9.663185 8.6336073,9.7933697 8.5942491,9.9235543 8.5730562,10.059794 8.5670011,10.196034 v 0 c -0.011807,0.334242 0.2494702,0.615804 0.5828036,0.628217 v 0 C 9.483138,10.836664 9.7647002,10.5769 9.7780214,10.244475 v 0 c 0,-0.03633 0.00606,-0.07266 0.015138,-0.105965 0.00908,-0.02422 0.018165,-0.04844 0.033303,-0.06963 0.015138,-0.02725 0.036331,-0.05147 0.060551,-0.072661 0.042386,-0.042386 0.090827,-0.075689 0.1453226,-0.1059643 0.102936,-0.060551 0.211928,-0.1089918 0.330003,-0.1422949 0.214956,-0.060551 0.435967,-0.1059643 0.656978,-0.1332122 0.108992,0.00151 0.217076,0.00666 0.325462,0.014532 l 0.0015,0.00969 0.04299,-0.00636 c 0.08144,0.00666 0.162579,0.014835 0.244626,0.024523 0.157433,0.021193 0.314865,0.051468 0.472298,0.093854 0.142295,0.036331 0.281562,0.084771 0.414774,0.1483499 0.09991,0.045413 0.196791,0.099909 0.28459,0.1634885 0.09083,0.06661 0.172571,0.142295 0.245232,0.227066 0.06963,0.08477 0.130184,0.175598 0.175598,0.27248 0.05752,0.112019 0.09688,0.233121 0.124129,0.354223 0.03633,0.17257 0.05752,0.348168 0.06055,0.523766 0.003,0.181653 -0.0091,0.366334 -0.03633,0.544959 -0.01817,0.12413 -0.04844,0.24826 -0.09385,0.366334 -0.0333,0.09083 -0.07569,0.178626 -0.130185,0.263397 -0.04541,0.06963 -0.09991,0.13624 -0.157433,0.193763 -0.06358,0.06358 -0.136239,0.118075 -0.211928,0.163488 -0.09385,0.05752 -0.196791,0.102937 -0.302755,0.139267 -0.118075,0.04239 -0.239177,0.07266 -0.363306,0.09083 -0.175598,0.02725 -0.351196,0.04238 -0.526794,0.04541 H 9.4752664 6.7504707 6.1449606 4.0317302 C 3.8470496,13.244777 3.6653965,13.22964 3.4837435,13.199364 3.3565864,13.178171 3.2324568,13.144868 3.1113548,13.102483 3.0114456,13.066152 2.9175915,13.020739 2.826765,12.966243 2.7541038,12.92083 2.6874977,12.869361 2.6269466,12.80881 2.5633681,12.748259 2.5088722,12.678625 2.4634589,12.602937 2.4059354,12.51211 2.3605222,12.415229 2.3272191,12.315319 c -0.042386,-0.115047 -0.069634,-0.233121 -0.084771,-0.354223 -0.02422,-0.17257 -0.036331,-0.345141 -0.033303,-0.520739 0.00303,-0.175598 0.02422,-0.351196 0.060551,-0.520738 0.027248,-0.12413 0.066606,-0.242205 0.121102,-0.357251 0.048441,-0.09688 0.1089918,-0.187709 0.1786255,-0.269452 0.069634,-0.08477 0.1513775,-0.163488 0.242204,-0.227067 C 2.9024546,9.999243 2.9993358,9.9417196 3.1022725,9.8963064 3.2385123,9.8357554 3.3808072,9.784287 3.5261296,9.7479564 3.6805347,9.7055704 3.8349398,9.6752954 3.9954,9.6571294 c 0.1998183,-0.02422 0.4026642,-0.039358 0.6055101,-0.042386 0.2179837,0.027248 0.4389949,0.072661 0.6509234,0.1332122 0.1150469,0.030276 0.2270663,0.078716 0.3330306,0.1362398 0.051468,0.033303 0.1029367,0.066606 0.14835,0.1089918 0.021193,0.021193 0.042386,0.045413 0.060551,0.072661 0.01211,0.02422 0.02422,0.04844 0.030276,0.07266 0.01211,0.0333 0.018165,0.06963 0.018165,0.105965 v 0 c 0.013321,0.332425 0.2948834,0.592189 0.6282168,0.579776 v 0 c 0.3333333,-0.01241 0.5943082,-0.293975 0.5828035,-0.628217 v 0 C 7.0471707,10.059794 7.0259778,9.9235543 6.9866197,9.7903421 6.9472615,9.6601574 6.8897381,9.5360279 6.8170768,9.4209809 6.7413881,9.3029064 6.6505615,9.1939146 6.5476248,9.1000606 6.4356054,8.9971238 6.3145034,8.9093249 6.1843187,8.8336361 5.993583,8.7246443 5.7907371,8.6398728 5.5788086,8.5823494 5.2790811,8.497578 4.9732985,8.4370269 4.6614607,8.4037239 4.617864,8.4043294 4.57457,8.4049349 4.5306705,8.4070542 4.725342,7.797911 5.0850151,7.2529519 5.5697259,6.8293975 6.1903738,6.2844384 6.9896472,5.9847109 7.813141,5.9816833 c 0.00303,0 0.00303,0 0.00303,0 v 0 0 c 0,0 0,0 0,0 h -0.00303 c 0.8416591,0.00303 1.6530427,0.3148653 2.276718,0.8749622 0.469271,0.4223433 0.818953,0.9564032 1.00878,1.5507114 z"
       fill-rule="evenodd"
       id="path4"
       style="fill:url(#linearGradient10)" />
    <path
       d="m 4.8040584,12.199364 -0.4347563,1.304572 c -0.1444142,0.433242 0.1089918,0.785044 0.5658492,0.785044 v 0 c 0.4565547,0 0.7099607,-0.351802 0.5655465,-0.785044 L 5.0659415,12.199364 c -0.072358,-0.216772 -0.1895247,-0.216772 -0.2618831,0 z m 2.8752649,1.21102 -0.4350591,1.304572 C 7.0998501,15.148199 7.3532561,15.5 7.8101135,15.5 v 0 c 0.4565546,0 0.7099606,-0.351801 0.5655464,-0.785044 L 7.9409037,13.410384 c -0.072358,-0.216772 -0.1895247,-0.216772 -0.2615804,0 z m 2.8616407,-1.21102 -0.435059,1.304572 c -0.144414,0.433242 0.109295,0.785044 0.565849,0.785044 v 0 c 0.456555,0 0.709961,-0.351802 0.565547,-0.785044 l -0.434756,-1.304572 c -0.07236,-0.216772 -0.189525,-0.216772 -0.261581,0 z"
       fill-rule="evenodd"
       fill="url(#_lgradient_56)"
       id="path6"
       style="fill:#80e5ff;stroke-width:0.302755" />
  </g>
</svg>
