<?xml version="1.0" encoding="UTF-8" standalone="no"?>
<!-- Generator: Gravit.io -->

<svg
   style="isolation:isolate"
   viewBox="0 0 16 16"
   width="16"
   height="16"
   version="1.1"
   id="svg5"
   sodipodi:docname="webex.svg"
   inkscape:version="1.4.4 (unknown)"
   xmlns:inkscape="http://www.inkscape.org/namespaces/inkscape"
   xmlns:sodipodi="http://sodipodi.sourceforge.net/DTD/sodipodi-0.dtd"
   xmlns="http://www.w3.org/2000/svg"
   xmlns:svg="http://www.w3.org/2000/svg">
  <defs
     id="defs5" />
  <sodipodi:namedview
     id="namedview5"
     pagecolor="#ffffff"
     bordercolor="#000000"
     borderopacity="0.25"
     inkscape:showpageshadow="2"
     inkscape:pageopacity="0.0"
     inkscape:pagecheckerboard="0"
     inkscape:deskcolor="#d1d1d1"
     inkscape:document-units="px"
     showguides="false"
     inkscape:zoom="16.727495"
     inkscape:cx="6.157527"
     inkscape:cy="20.953526"
     inkscape:window-width="1920"
     inkscape:window-height="994"
     inkscape:window-x="0"
     inkscape:window-y="0"
     inkscape:window-maximized="1"
     inkscape:current-layer="svg5" />
  <linearGradient
     id="_lgradient_2"
     x1="-9.7021193e-06"
     y1="0.76760113"
     x2="1.0220758"
     y2="0.42222825"
     gradientTransform="matrix(15.654311,0,0,9.6497984,-0.64033485,2.755942)"
     gradientUnits="userSpaceOnUse">
    <stop
       offset="0%"
       stop-opacity="1"
       style="stop-color:#dd55ff;stop-opacity:1"
       id="stop1" />
    <stop
       offset="51.73913043478261%"
       stop-opacity="1"
       style="stop-color:rgb(32,189,255)"
       id="stop2" />
    <stop
       offset="0.5699169"
       stop-opacity="1"
       style="stop-color:#aa87de;stop-opacity:1"
       id="stop3" />
  </linearGradient>
  <linearGradient
     id="_lgradient_3"
     x1="0.26618877"
     y1="0.48743305"
     x2="0.95828241"
     y2="0.486518"
     gradientTransform="matrix(14.822563,0,0,9.5141307,0.80956995,2.822037)"
     gradientUnits="userSpaceOnUse">
    <stop
       offset="0%"
       stop-opacity="1"
       style="stop-color:#ff80b2;stop-opacity:1"
       id="stop4" />
    <stop
       offset="83.88839793817618%"
       stop-opacity="1"
       style="stop-color:#ffb380;stop-opacity:1"
       id="stop5" />
  </linearGradient>
  <g
     id="g5"
     transform="translate(0.64048673,0.419159)">
    <path
       d="m 6.8311277,8.551387 v 0 c 0.2497676,-0.29186 0.6891222,-0.32595 0.9809816,-0.07653 v 0 c 0.2918591,0.24942 0.3262981,0.689123 0.07653,0.980982 v 0 l -1.6488838,2.15329 C 5.8292741,12.106576 5.2170301,12.398783 4.5699997,12.40574 3.9299266,12.398783 3.3211614,12.110054 2.907201,11.619564 L -0.47057635,7.719988 v 0 c -0.251507,-0.289773 -0.2201991,-0.729475 0.069573,-0.980982 v 0 c 0.2901201,-0.251507 0.7294747,-0.220199 0.9809817,0.06957 v 0 L 3.964713,10.711631 c 0,0.0035 0.00348,0.007 0.00696,0.01044 0.1495823,0.177411 0.3687378,0.28525 0.5983292,0.292207 0.2330701,-0.007 0.4522256,-0.114796 0.6018079,-0.295686 0.00348,-0.0035 0.00696,-0.007 0.010436,-0.01044 z M 10.334136,6.585945 v 0 C 10.090282,6.881631 9.6516234,6.924418 9.3548944,6.681605 v 0 C 9.0585124,6.438795 9.0139854,5.999788 9.2557544,5.702363 v 0 L 10.935946,3.573424 c 0.205241,-0.253942 0.459183,-0.459183 0.747912,-0.605287 0.281769,-0.139143 0.59137,-0.212195 0.904449,-0.212195 0.3096,0 0.615722,0.07305 0.894015,0.20872 0.288729,0.142624 0.542671,0.344387 0.744433,0.59485 l 0.626158,0.747912 v 0 c 0.245942,0.295686 0.205241,0.735388 -0.09044,0.980981 v 0 c -0.295686,0.245594 -0.73504,0.205241 -0.980981,-0.09045 v 0 l -0.626159,-0.75139 c 0,0 0,-0.0035 -0.0035,-0.0035 -0.07653,-0.0974 -0.173933,-0.173933 -0.28525,-0.229591 -0.08697,-0.04174 -0.184369,-0.06609 -0.278293,-0.06609 -0.0974,0 -0.194805,0.02435 -0.281771,0.06609 -0.111318,0.05566 -0.20872,0.135668 -0.288729,0.23307 0,0.0035 0,0.0035 -0.0035,0.007 z"
       fill-rule="evenodd"
       fill="url(#_lgradient_2)"
       id="path3"
       style="fill:url(#_lgradient_2);stroke-width:0.347866" />
    <path
       d="m 2.2845212,6.015445 v 0 c -0.2706397,0.272727 -0.7110378,0.273422 -0.982721,0.0017 v 0 C 1.0301169,5.745462 1.0311605,5.305064 1.3035402,5.034424 v 0 l 1.548003,-1.551481 c 0.396567,-0.410482 0.9461951,-0.65051 1.5201737,-0.660945 0.3478658,0 0.6887743,0.08697 0.9914176,0.25742 0.306122,0.173933 0.5705,0.417439 0.7687835,0.713125 l 6.045908,6.859915 c 0,0.0035 0.0035,0.007 0.007,0.01044 0.06262,0.09392 0.142625,0.173932 0.240027,0.236548 0.0487,0.02783 0.10436,0.04522 0.160018,0.04522 0.05914,0 0.114796,-0.01739 0.163497,-0.04522 0.0974,-0.05914 0.177412,-0.139146 0.240028,-0.23307 0.0035,-0.0035 0.007,-0.007 0.007,-0.01044 l 1.099256,-1.701064 v 0 C 14.31172,8.640054 14.744117,8.561436 15.05998,8.7792 v 0 c 0.315862,0.217764 0.39448,0.651901 0.175672,0.968806 v 0 l -1.092299,1.694107 c -0.177411,0.264378 -0.407003,0.483533 -0.67486,0.64703 -0.267856,0.160019 -0.5705,0.246985 -0.883579,0.246985 -0.313079,0 -0.619201,-0.08697 -0.887058,-0.250463 -0.271335,-0.166976 -0.500926,-0.393089 -0.674859,-0.657467 L 4.9770026,4.571802 c 0,-0.0035 -0.00348,-0.0035 -0.00348,-0.007 C 4.9004707,4.453485 4.7995898,4.359562 4.6813153,4.293467 4.5908704,4.241287 4.4899892,4.216937 4.3856294,4.213457 c -0.2017623,0.007 -0.396567,0.09392 -0.5357134,0.240027 -0.00348,0.0035 -0.00696,0.007 -0.010436,0.01044 z"
       fill="url(#_lgradient_3)"
       id="path5"
       style="fill:url(#_lgradient_3);stroke-width:0.347866" />
    <line
       x1="5.7951832"
       y1="9.748045"
       x2="10.334137"
       y2="4.3074236"
       id="line5"
       style="stroke-width:0.347866" />
  </g>
</svg>
