<?xml version="1.0" encoding="UTF-8" standalone="no"?>
<!-- Generator: Gravit.io -->

<svg
   style="isolation:isolate"
   viewBox="0 0 16 16"
   width="16"
   height="16"
   version="1.1"
   id="svg2"
   sodipodi:docname="whatsapp.svg"
   inkscape:version="1.4.4 (unknown)"
   xmlns:inkscape="http://www.inkscape.org/namespaces/inkscape"
   xmlns:sodipodi="http://sodipodi.sourceforge.net/DTD/sodipodi-0.dtd"
   xmlns:xlink="http://www.w3.org/1999/xlink"
   xmlns="http://www.w3.org/2000/svg"
   xmlns:svg="http://www.w3.org/2000/svg">
  <defs
     id="defs2">
    <linearGradient
       id="linearGradient2"
       inkscape:collect="always">
      <stop
         style="stop-color:#00b0b0;stop-opacity:1;"
         offset="0"
         id="stop3" />
      <stop
         style="stop-color:#00d455;stop-opacity:1"
         offset="1"
         id="stop4" />
    </linearGradient>
    <linearGradient
       inkscape:collect="always"
       xlink:href="#linearGradient2"
       id="linearGradient4"
       x1="3.5380244"
       y1="3.3570316"
       x2="12.826449"
       y2="12.073219"
       gradientUnits="userSpaceOnUse" />
  </defs>
  <sodipodi:namedview
     id="namedview2"
     pagecolor="#ffffff"
     bordercolor="#000000"
     borderopacity="0.25"
     inkscape:showpageshadow="2"
     inkscape:pageopacity="0.0"
     inkscape:pagecheckerboard="0"
     inkscape:deskcolor="#d1d1d1"
     inkscape:document-units="px"
     inkscape:zoom="33.45499"
     inkscape:cx="8.5189087"
     inkscape:cy="7.0990905"
     inkscape:window-width="1920"
     inkscape:window-height="994"
     inkscape:window-x="0"
     inkscape:window-y="0"
     inkscape:window-maximized="1"
     inkscape:current-layer="svg2" />
  <linearGradient
     id="_lgradient_5"
     x1="0"
     y1="0.5"
     x2="1"
     y2="0.5"
     gradientTransform="matrix(12.796308,0,0,13.000111,1.6019008,1.4999999)"
     gradientUnits="userSpaceOnUse">
    <stop
       offset="0%"
       stop-opacity="1"
       style="stop-color:rgb(67,233,123)"
       id="stop1" />
    <stop
       offset="97.82608695652173%"
       stop-opacity="1"
       style="stop-color:rgb(56,249,215)"
       id="stop2" />
  </linearGradient>
  <path
     d="m 5.0822431,13.501834 -2.8209464,0.94703 C 1.7509018,14.620378 1.4792639,14.34637 1.6555175,13.837456 l 0.939328,-2.714009 -0.055098,-0.0942 C 1.9769211,10.060001 1.6809928,8.9607114 1.6809928,7.8418713 c 0,-1.6813706 0.6700599,-3.2946095 1.8570317,-4.4848397 1.1905264,-1.1869718 2.8034691,-1.8570317 4.4851359,-1.8570317 1.5806539,0 3.1026556,0.5918566 4.2700766,1.6553028 v 0 c 0.265713,0.2423117 0.284672,0.6540638 0.04236,0.9188885 v 0 c -0.242312,0.2648248 -0.653175,0.2828945 -0.917111,0.040583 v 0 C 10.488341,3.2693491 9.2785603,2.8010181 8.0231604,2.8010181 c -1.3368614,0 -2.6183288,0.5299457 -3.56447,1.4763832 -0.9464375,0.9464374 -1.4766794,2.2279048 -1.4766794,3.56447 0,0.8913396 0.2340174,1.7628326 0.6830938,2.5336087 l 0.2633436,0.562827 -0.2633436,0.673022 -0.3382884,1.021382 1.271692,-0.305704 0.4212313,-0.07317 0.7464858,0.266602 c 0.7139012,0.358432 1.5018585,0.545053 2.2987025,0.545053 0.204395,0 0.4058277,-0.01185 0.6102226,-0.03555 v 0 c 0.3237734,-0.0391 0.6176277,0.19225 0.6561377,0.516912 v 0 c 0.03851,0.324662 -0.1931387,0.619998 -0.5169122,0.6591 v 0 c -0.2488286,0.02962 -0.4976572,0.04443 -0.7494481,0.04443 -0.9834655,0 -1.9521197,-0.231055 -2.8319066,-0.672429 z M 12.89635,6.0657089 v 0 c -0.112861,-0.3074811 0.04503,-0.6478431 0.352507,-0.759816 v 0 c 0.307481,-0.1119729 0.648436,0.046507 0.761297,0.3539883 v 0 c 0.257716,0.7050145 0.388055,1.4544626 0.388055,2.2068729 0.003,2.0943078 -1.021975,4.0582769 -2.740077,5.2550239 v 0 c -0.268084,0.188102 -0.637772,0.122933 -0.824986,-0.14515 v 0 c -0.187214,-0.268084 -0.120267,-0.638364 0.149594,-0.826467 v 0 c 1.398179,-0.974579 2.233533,-2.5771531 2.23057,-4.2834069 0,-0.6131848 -0.10664,-1.2234074 -0.31696,-1.8010452 z m -1.809339,3.417246 C 11.080197,9.4088991 11.036356,9.3443222 10.969113,9.3141073 10.515593,9.1058614 10.059704,8.8976156 9.6061843,8.6893697 9.5552333,8.6662642 9.4927303,8.6778169 9.4557023,8.7216582 L 8.8401477,9.4160085 C 8.7915669,9.4714029 8.7151409,9.4900649 8.647898,9.4622199 8.3285679,9.3303996 7.8981536,9.1082312 7.463296,8.7332109 6.9425332,8.2868005 6.6371257,7.8075092 6.4659079,7.4952885 6.5515168,7.4375248 6.785238,7.2639372 6.8892128,6.9422373 c 0,-0.00237 0.00237,-0.00474 0.00237,-0.00474 C 6.9564558,6.7384348 6.9425332,6.5233758 6.8708469,6.3266827 6.7482099,6.0002432 6.502936,5.3683963 6.4078479,5.2712346 6.3918518,5.2552385 6.3731896,5.2389462 6.3731896,5.2389462 6.3038731,5.1764428 6.2135246,5.1417845 6.1187328,5.1370449 c -0.032585,-0.00237 -0.067243,-0.00237 -0.1042711,-0.00237 -0.1063446,-0.00207 -0.2011365,-0.00207 -0.2707492,0.00711 -0.1966931,0.027845 -0.3400658,0.159665 -0.4304143,0.2707492 -0.1087144,0.13182 -0.2384608,0.3285131 -0.3240697,0.5877095 -0.00681,0.023106 -0.013626,0.044138 -0.020736,0.067243 -0.094792,0.328513 -0.076426,0.6804278 0.037028,1.0042012 0.1063446,0.303334 0.2615663,0.6641355 0.4952874,1.0459689 0.395756,0.6505091 0.8261703,1.0530783 1.1176553,1.3190879 0.3288092,0.3033333 0.7358217,0.6756884 1.3815913,0.9858354 0.5971887,0.287041 1.1386871,0.393386 1.5018588,0.437523 0.148112,0.01392 0.421231,0.016 0.7337477,-0.101901 0.143373,-0.05569 0.26364,-0.122637 0.360802,-0.194323 0.256826,-0.182771 0.437523,-0.45826 0.483734,-0.7684071 0,-0.0024 0,-0.0047 0,-0.0068 0.01629,-0.118193 0.01392,-0.219799 0.0068,-0.305704 z"
     fill-rule="evenodd"
     id="path2"
     style="fill:url(#linearGradient4)" />
</svg>
