<?xml version="1.0" encoding="UTF-8" standalone="no"?>
<!-- Generator: Gravit.io -->

<svg
   style="isolation:isolate"
   viewBox="0 0 16 16"
   width="16"
   height="16"
   version="1.1"
   id="svg2"
   sodipodi:docname="com.wps.Office.etmain.svg"
   inkscape:version="1.4.4 (unknown)"
   xmlns:inkscape="http://www.inkscape.org/namespaces/inkscape"
   xmlns:sodipodi="http://sodipodi.sourceforge.net/DTD/sodipodi-0.dtd"
   xmlns:xlink="http://www.w3.org/1999/xlink"
   xmlns="http://www.w3.org/2000/svg"
   xmlns:svg="http://www.w3.org/2000/svg">
  <defs
     id="defs2">
    <linearGradient
       id="linearGradient2"
       inkscape:collect="always">
      <stop
         style="stop-color:#00ad46;stop-opacity:1;"
         offset="0"
         id="stop3" />
      <stop
         style="stop-color:#55ff55;stop-opacity:1"
         offset="1"
         id="stop4" />
    </linearGradient>
    <linearGradient
       inkscape:collect="always"
       xlink:href="#linearGradient2"
       id="linearGradient4"
       x1="1.5"
       y1="14.5"
       x2="10.019155"
       y2="5.2111907"
       gradientUnits="userSpaceOnUse" />
  </defs>
  <sodipodi:namedview
     id="namedview2"
     pagecolor="#ffffff"
     bordercolor="#000000"
     borderopacity="0.25"
     inkscape:showpageshadow="2"
     inkscape:pageopacity="0.0"
     inkscape:pagecheckerboard="0"
     inkscape:deskcolor="#d1d1d1"
     inkscape:document-units="px"
     inkscape:zoom="23.65625"
     inkscape:cx="6.1717305"
     inkscape:cy="10.969617"
     inkscape:window-width="1920"
     inkscape:window-height="994"
     inkscape:window-x="0"
     inkscape:window-y="0"
     inkscape:window-maximized="1"
     inkscape:current-layer="svg2" />
  <linearGradient
     id="_lgradient_32"
     x1="0"
     y1="0.5"
     x2="1"
     y2="0.5"
     gradientTransform="matrix(13,0,0,13,1.5,1.5)"
     gradientUnits="userSpaceOnUse">
    <stop
       offset="0%"
       stop-opacity="1"
       style="stop-color:rgb(67,233,123)"
       id="stop1" />
    <stop
       offset="97.82608695652173%"
       stop-opacity="1"
       style="stop-color:rgb(56,249,215)"
       id="stop2" />
  </linearGradient>
  <path
     d="M 11.25,1.5207381 C 11.201095,1.5068095 11.149095,1.5 11.095238,1.5 v 0 H 3.047619 C 2.1933333,1.5 1.5,2.1933333 1.5,3.047619 v 5.880952 0 c 0,0.341715 0.2773333,0.619048 0.6190476,0.619048 v 0 c 0.3417143,0 0.6190476,-0.277333 0.6190476,-0.619048 v 0 0 0 -5.2619043 c 0,-0.5125715 0.416,-0.9285715 0.9285715,-0.9285715 h 7.4285713 v 0 c 0.05386,0 0.105857,-0.00681 0.154762,-0.020738 0.0489,0.013929 0.100905,0.020738 0.154762,0.020738 v 0 h 0.928571 c 0.512572,0 0.928572,0.416 0.928572,0.9285715 v 0.9285714 0 c 0,0.3417143 0.277333,0.6190476 0.619047,0.6190476 v 0 C 14.222667,5.2142857 14.5,4.9369524 14.5,4.5952381 v 0 V 3.047619 C 14.5,2.1933333 13.806667,1.5 12.952381,1.5 h -1.547619 v 0 C 11.350902,1.5 11.298905,1.50681 11.25,1.5207381 Z M 9.231905,8.619048 v 0 0 c 0.0681,0 0.13619,0.0062 0.204285,0.01857 0.167143,0.02476 0.331191,0.07119 0.482858,0.142381 0.154762,0.065 0.290952,0.170238 0.393095,0.306429 0.04952,0.07119 0.08976,0.151666 0.114524,0.235238 0.03714,0.123809 0.05571,0.250714 0.05262,0.380714 0.0031,0.13 -0.01548,0.256905 -0.05262,0.380714 -0.02476,0.08357 -0.065,0.164048 -0.114524,0.235238 -0.102143,0.136191 -0.238333,0.241429 -0.393095,0.306429 -0.151667,0.07119 -0.315715,0.117619 -0.482858,0.142381 -0.065,0.01238 -0.133095,0.01857 -0.198095,0.01857 H 4.9078571 c -0.1640476,0 -0.3219047,0.065 -0.4364285,0.182619 -0.1145238,0.114524 -0.1826191,0.272381 -0.1826191,0.436429 0,0.164048 0.068095,0.321905 0.1826191,0.436428 0.1145238,0.11762 0.2723809,0.18262 0.4364285,0.18262 H 9.24119 c 0.0031,0 0.0093,0 0.01238,0 0.12381,-0.0031 0.250715,-0.01238 0.374524,-0.03405 0.275476,-0.04024 0.541667,-0.117619 0.795476,-0.232143 0.349762,-0.154762 0.653096,-0.39619 0.885239,-0.702619 0.133095,-0.185714 0.235238,-0.393095 0.303333,-0.609762 0.07119,-0.241428 0.108333,-0.492143 0.105238,-0.742857 C 11.72048,9.451663 11.68333,9.200948 11.612142,8.95952 11.544048,8.742857 11.441905,8.535476 11.30881,8.3497619 11.076667,8.0433333 10.773333,7.8019048 10.423571,7.6471429 10.169762,7.532619 9.903571,7.4552381 9.628095,7.415 9.504286,7.393333 9.377381,7.384048 9.253571,7.380952 c -0.0077,0 -0.01579,0 -0.02352,0 H 6.8284524 c -0.019809,-0.00217 -0.039929,-0.0031 -0.060357,-0.0031 v 0 C 6.7,7.3747619 6.6319048,7.3685714 6.5638095,7.3561905 6.3966667,7.3345238 6.232619,7.285 6.0809524,7.2169048 5.9261905,7.1488095 5.79,7.0435714 5.6878571,6.9104762 5.6383333,6.8392857 5.5980952,6.7588095 5.5733333,6.6752381 5.5361905,6.5514286 5.517619,6.4214286 5.5207143,6.2945238 c -0.0031,-0.13 0.015476,-0.26 0.052619,-0.3838095 0.024762,-0.083571 0.065,-0.1640476 0.1145238,-0.2352381 C 5.79,5.542381 5.9261905,5.4371429 6.0809524,5.3690476 6.232619,5.3009524 6.3966667,5.2514286 6.5638095,5.2297619 c 0.065,-0.012381 0.1330953,-0.018571 0.1980953,-0.018571 h 4.3302382 c 0.164047,0 0.321905,-0.065 0.436428,-0.1826191 C 11.643095,4.914048 11.71119,4.7561909 11.71119,4.5921433 11.71119,4.4280956 11.6431,4.2702385 11.528571,4.1526194 11.414048,4.0380952 11.25619,3.9730952 11.092143,3.9730952 H 6.7588095 c -0.0031,0 -0.00929,0 -0.012381,0 -0.1238096,0 -0.2507143,0.012381 -0.3745238,0.034048 C 6.0964286,4.047381 5.8302381,4.1247619 5.5764286,4.2392857 5.2266667,4.3909524 4.9233333,4.6354762 4.6911905,4.9419048 4.5580952,5.127619 4.4559524,5.3319048 4.3878571,5.5516667 4.3166667,5.7930952 4.2795238,6.0407143 4.282619,6.2945238 4.279519,6.5452381 4.316667,6.7959524 4.3878571,7.0342857 4.4559521,7.2540476 4.5580952,7.4614286 4.6911905,7.6440476 4.9233333,7.9504762 5.2266667,8.195 5.5764286,8.3497619 c 0.2538095,0.1114286 0.52,0.1888091 0.7954762,0.2321431 0.1238095,0.01857 0.2507142,0.03095 0.3745238,0.03405 0.00402,0 0.00805,0 0.012381,0 l 0.0031,0.0031 z m -4.6366669,4.642857 v 0 c 0.3417143,0 0.6190476,0.277333 0.6190476,0.619047 v 0 C 5.2142857,14.222667 4.9369524,14.5 4.5952381,14.5 v 0 H 3.047619 C 2.1933333,14.5 1.5,13.806667 1.5,12.952381 v -1.547619 0 c 0,-0.341714 0.2773333,-0.619048 0.6190476,-0.619048 v 0 c 0.3417143,0 0.6190476,0.277334 0.6190476,0.619048 v 0 0.928571 c 0,0.512572 0.416,0.928572 0.9285715,0.928572 z M 13.261905,7.3809524 v 0 c 0,-0.3417143 0.277333,-0.6190476 0.619047,-0.6190476 v 0 c 0.341715,0 0.619048,0.2773333 0.619048,0.6190476 v 0 5.5714286 C 14.5,13.806667 13.806667,14.5 12.952381,14.5 H 7.3809524 v 0 c -0.3417143,0 -0.6190476,-0.277333 -0.6190476,-0.619048 v 0 c 0,-0.341714 0.2773333,-0.619047 0.6190476,-0.619047 v 0 h 4.9523806 c 0.512572,0 0.928572,-0.416 0.928572,-0.928572 z"
     fill-rule="evenodd"
     id="path2"
     style="fill:url(#linearGradient4)" />
</svg>
