<?xml version="1.0" encoding="UTF-8" standalone="no"?>
<!-- Generator: Gravit.io -->

<svg
   style="isolation:isolate"
   viewBox="0 0 16 16"
   width="16"
   height="16"
   version="1.1"
   id="svg2"
   sodipodi:docname="com.wps.Office.pdfmain.svg"
   inkscape:version="1.4.4 (unknown)"
   xmlns:inkscape="http://www.inkscape.org/namespaces/inkscape"
   xmlns:sodipodi="http://sodipodi.sourceforge.net/DTD/sodipodi-0.dtd"
   xmlns:xlink="http://www.w3.org/1999/xlink"
   xmlns="http://www.w3.org/2000/svg"
   xmlns:svg="http://www.w3.org/2000/svg">
  <defs
     id="defs2">
    <linearGradient
       id="linearGradient2"
       inkscape:collect="always">
      <stop
         style="stop-color:#00a9a9;stop-opacity:1;"
         offset="0"
         id="stop3" />
      <stop
         style="stop-color:#e785ff;stop-opacity:1;"
         offset="1"
         id="stop4" />
    </linearGradient>
    <linearGradient
       inkscape:collect="always"
       xlink:href="#linearGradient2"
       id="linearGradient4"
       x1="7.2988358"
       y1="16"
       x2="7.3809524"
       y2="2.7380953"
       gradientUnits="userSpaceOnUse" />
  </defs>
  <sodipodi:namedview
     id="namedview2"
     pagecolor="#ffffff"
     bordercolor="#000000"
     borderopacity="0.25"
     inkscape:showpageshadow="2"
     inkscape:pageopacity="0.0"
     inkscape:pagecheckerboard="0"
     inkscape:deskcolor="#d1d1d1"
     inkscape:document-units="px"
     inkscape:zoom="16.727495"
     inkscape:cx="10.103127"
     inkscape:cy="11.029745"
     inkscape:window-width="1920"
     inkscape:window-height="994"
     inkscape:window-x="0"
     inkscape:window-y="0"
     inkscape:window-maximized="1"
     inkscape:current-layer="svg2" />
  <linearGradient
     id="_lgradient_91"
     x1="0"
     y1="0.5"
     x2="1"
     y2="0.5"
     gradientTransform="matrix(13,0,0,13,1.4999997,1.5)"
     gradientUnits="userSpaceOnUse">
    <stop
       offset="0%"
       stop-opacity="1"
       style="stop-color:rgb(238,205,163)"
       id="stop1" />
    <stop
       offset="98.26086956521739%"
       stop-opacity="1"
       style="stop-color:rgb(239,98,159)"
       id="stop2" />
  </linearGradient>
  <path
     d="M 11.25,1.5207381 C 11.201095,1.5068095 11.149095,1.5 11.095238,1.5 v 0 H 3.0476187 c -0.8542857,0 -1.547619,0.6933333 -1.547619,1.547619 v 5.880952 0 c 0,0.341715 0.2773333,0.619048 0.6190476,0.619048 v 0 c 0.3417143,0 0.6190476,-0.277333 0.6190476,-0.619048 v 0 0 0 -5.2619043 c 0,-0.5125715 0.416,-0.9285715 0.9285715,-0.9285715 h 7.4285716 v 0 c 0.05386,0 0.105857,-0.00681 0.154762,-0.020738 0.0489,0.013929 0.100905,0.020738 0.154762,0.020738 v 0 h 0.928571 c 0.512572,0 0.928572,0.416 0.928572,0.9285715 v 0.9285714 0 c 0,0.3417143 0.277333,0.6190476 0.619047,0.6190476 v 0 C 14.222667,5.2142857 14.5,4.9369524 14.5,4.5952381 v 0 V 3.047619 C 14.5,2.1933333 13.806667,1.5 12.952381,1.5 h -1.547619 v 0 c -0.05386,0 -0.105857,0.00681 -0.154762,0.020738 z M 4.5952378,13.261905 v 0 c 0.3417144,0 0.6190476,0.277333 0.6190476,0.619047 v 0 C 5.2142854,14.222667 4.9369522,14.5 4.5952378,14.5 v 0 H 3.0476187 c -0.8542857,0 -1.547619,-0.693333 -1.547619,-1.547619 v -1.547619 0 c 0,-0.341714 0.2773333,-0.619048 0.6190476,-0.619048 v 0 c 0.3417143,0 0.6190476,0.277334 0.6190476,0.619048 v 0 0.928571 c 0,0.512572 0.416,0.928572 0.9285715,0.928572 z M 13.261905,7.3809524 v 0 c 0,-0.3417143 0.277333,-0.6190476 0.619047,-0.6190476 v 0 c 0.341715,0 0.619048,0.2773333 0.619048,0.6190476 v 0 5.5714286 C 14.5,13.806667 13.806667,14.5 12.952381,14.5 H 7.3809521 v 0 c -0.3417143,0 -0.6190476,-0.277333 -0.6190476,-0.619048 v 0 c 0,-0.341714 0.2773333,-0.619047 0.6190476,-0.619047 v 0 h 4.9523809 c 0.512572,0 0.928572,-0.416 0.928572,-0.928572 z M 6.9336902,9.858381 v 0 c 0,-0.294048 0.2389524,-0.533 0.5333095,-0.533 v 0 c 0.2940476,0 0.533,0.238952 0.533,0.533 v 0 1.865809 c 0,0.135881 -0.050762,0.263715 -0.1439286,0.362453 -0.09069,0.09843 -0.2185238,0.160024 -0.3519284,0.170547 C 7.3122379,12.2705 7.1178568,12.27329 6.9259522,12.2705 6.7659283,12.2652 6.6086902,12.25441 6.4486664,12.23057 6.2700711,12.206429 6.0942616,12.1665 5.9209283,12.110476 5.7717378,12.065286 5.6278093,12.001214 5.4919283,11.924143 5.3427378,11.838714 5.2068569,11.734714 5.0867616,11.614929 4.9669759,11.497619 4.8682378,11.361738 4.7883807,11.215024 4.7029521,11.060571 4.6391903,10.8925 4.6017378,10.721952 c -0.045191,-0.197166 -0.066548,-0.397119 -0.066548,-0.597071 0,-0.199643 0.021357,-0.402381 0.066548,-0.596762 C 4.6416668,9.354786 4.7029521,9.187024 4.7883807,9.029476 4.8710237,8.883071 4.9722378,8.749667 5.0895473,8.629881 5.2121187,8.509786 5.3479997,8.4060952 5.4999759,8.3206667 c 0.130619,-0.074595 0.2692857,-0.135881 0.4132143,-0.1810715 0.1677619,-0.053548 0.3383095,-0.09069 0.5088571,-0.1173095 0.1625,-0.024143 0.3253095,-0.037452 0.4878095,-0.039929 0.1919048,-0.00557 0.3838096,-0.00279 0.5757143,0.010524 h 1.8416666 c 0.05602,0 0.109262,-0.00805 0.1625001,-0.018572 0.05324,-0.010833 0.106476,-0.024143 0.1572379,-0.0455 0.06407,-0.023833 0.125357,-0.056024 0.183857,-0.093167 0.05076,-0.031881 0.09874,-0.066548 0.143929,-0.1064762 0.0455,-0.040238 0.08543,-0.082643 0.1200953,-0.1306191 0.03993,-0.050762 0.0746,-0.104 0.103691,-0.1600238 0.06407,-0.120094 0.112047,-0.2479274 0.138666,-0.3810226 0.04272,-0.2160476 0.06407,-0.4370476 0.06129,-0.6583571 C 10.396004,6.1886667 10.369414,5.977881 10.321434,5.7754524 10.286764,5.6343095 10.233224,5.5036905 10.16141,5.3783333 10.10012,5.2718571 10.022743,5.1759048 9.9320527,5.0932619 9.8336227,4.9997859 9.7215757,4.9227143 9.6017907,4.8614286 c -0.04272,-0.021357 -0.08791,-0.037452 -0.135881,-0.0455 -0.0455,-0.01331 -0.09069,-0.021357 -0.138667,-0.021357 h -1.327243 v 2.1323096 0 c 0,0.2940476 -0.2389524,0.533 -0.533,0.533 v 0 c -0.2943571,0 -0.5333095,-0.2389524 -0.5333095,-0.533 v 0 -2.6653096 c 0,-0.2940476 0.2389524,-0.533 0.5333095,-0.533 h 1.8655 c 0.0028,0 0.0053,0 0.01052,0 0.125357,0.00279 0.250714,0.018572 0.3705,0.050762 0.125357,0.026619 0.245452,0.069024 0.3599763,0.1250477 0.213262,0.1067857 0.410429,0.2426666 0.583452,0.4051666 0.168072,0.1572381 0.311999,0.3358334 0.426524,0.533 0.125356,0.2132619 0.216048,0.4426191 0.274548,0.6825 0.06655,0.2822857 0.103999,0.5729286 0.106476,0.8632619 0.0028,0.2959048 -0.02383,0.5890238 -0.08233,0.8796667 -0.04798,0.234619 -0.128143,0.4611905 -0.242668,0.6716667 -0.0585,0.1092619 -0.125357,0.2157381 -0.202429,0.3144761 -0.0746,0.095952 -0.157238,0.1838572 -0.247928,0.2664997 -0.09348,0.08264 -0.191905,0.157238 -0.29869,0.22131 -0.109262,0.06902 -0.226262,0.127833 -0.346357,0.178285 -0.1120472,0.04272 -0.2290472,0.07738 -0.3491432,0.09874 -0.1145231,0.02414 -0.234619,0.03745 -0.354404,0.03993 -0.0028,0 -0.0053,0 -0.008,0 H 7.4669997 c -0.01331,0 -0.024143,0 -0.037452,0 C 7.264262,9.045574 7.101762,9.043094 6.9364764,9.045574 c -0.1197858,0.0053 -0.2398811,0.01331 -0.3571906,0.03188 -0.1173095,0.0161 -0.2318333,0.04272 -0.3410952,0.07738 -0.074595,0.02414 -0.1464048,0.05602 -0.2157381,0.09595 -0.066857,0.03745 -0.1253572,0.08264 -0.181381,0.135881 -0.04519,0.0455 -0.085119,0.09874 -0.1173095,0.157238 C 5.686619,9.610763 5.66,9.685355 5.641119,9.75995 5.6145,9.879736 5.601191,10.002308 5.601191,10.124879 c 0,0.122881 0.013309,0.242667 0.039928,0.362762 0.016095,0.07707 0.0455,0.14919 0.082643,0.218524 0.029405,0.05571 0.069333,0.109262 0.1173095,0.154452 0.053238,0.05324 0.1120476,0.101214 0.1785953,0.138667 0.069333,0.03993 0.1439285,0.07181 0.2213095,0.09595 0.1173095,0.03714 0.2343095,0.06376 0.3571905,0.07986 0.1117381,0.01609 0.2237857,0.02414 0.3355238,0.0294 z"
     fill-rule="evenodd"
     id="path2"
     style="fill:url(#linearGradient4)" />
</svg>
