<?xml version="1.0" encoding="UTF-8" standalone="no"?>
<!-- Generator: Gravit.io -->

<svg
   style="isolation:isolate"
   viewBox="0 0 16 16"
   width="16"
   height="16"
   version="1.1"
   id="svg2"
   sodipodi:docname="com.wps.Office.wpsmain.svg"
   inkscape:version="1.4.4 (unknown)"
   xmlns:inkscape="http://www.inkscape.org/namespaces/inkscape"
   xmlns:sodipodi="http://sodipodi.sourceforge.net/DTD/sodipodi-0.dtd"
   xmlns:xlink="http://www.w3.org/1999/xlink"
   xmlns="http://www.w3.org/2000/svg"
   xmlns:svg="http://www.w3.org/2000/svg">
  <defs
     id="defs2">
    <linearGradient
       id="linearGradient2"
       inkscape:collect="always">
      <stop
         style="stop-color:#d35f8d;stop-opacity:1"
         offset="0"
         id="stop3" />
      <stop
         style="stop-color:#00ccff;stop-opacity:1"
         offset="1"
         id="stop4" />
    </linearGradient>
    <linearGradient
       inkscape:collect="always"
       xlink:href="#linearGradient2"
       id="linearGradient4"
       x1="4.9932852"
       y1="11.055307"
       x2="12.934629"
       y2="2.959229"
       gradientUnits="userSpaceOnUse" />
  </defs>
  <sodipodi:namedview
     id="namedview2"
     pagecolor="#ffffff"
     bordercolor="#000000"
     borderopacity="0.25"
     inkscape:showpageshadow="2"
     inkscape:pageopacity="0.0"
     inkscape:pagecheckerboard="0"
     inkscape:deskcolor="#d1d1d1"
     inkscape:document-units="px"
     inkscape:zoom="33.45499"
     inkscape:cx="6.9645815"
     inkscape:cy="9.1316723"
     inkscape:window-width="1920"
     inkscape:window-height="994"
     inkscape:window-x="0"
     inkscape:window-y="0"
     inkscape:window-maximized="1"
     inkscape:current-layer="svg2" />
  <linearGradient
     id="_lgradient_33"
     x1="0"
     y1="0.5"
     x2="0.90748805"
     y2="0.92007786"
     gradientTransform="matrix(13,0,0,13,1.5,1.5)"
     gradientUnits="userSpaceOnUse">
    <stop
       offset="0%"
       stop-opacity="1"
       style="stop-color:rgb(0,196,255)"
       id="stop1" />
    <stop
       offset="83.88839793817618%"
       stop-opacity="1"
       style="stop-color:rgb(0,114,255)"
       id="stop2" />
  </linearGradient>
  <path
     d="m 11.404762,2.7380952 v 0 0 h 0.928571 v 0 c 0.512572,0 0.928572,0.416 0.928572,0.9285715 v 0.9285714 0 c 0,0.3417143 0.277333,0.6190476 0.619047,0.6190476 v 0 C 14.222667,5.2142857 14.5,4.9369524 14.5,4.5952381 v 0 V 3.047619 C 14.5,2.1933333 13.806667,1.5 12.952381,1.5 h -0.619048 -0.928571 v 0 0 H 3.047619 C 2.1933333,1.5 1.5,2.1933333 1.5,3.047619 v 5.880952 0 c 0,0.341715 0.2773333,0.619048 0.6190476,0.619048 v 0 c 0.3417143,0 0.6190476,-0.277333 0.6190476,-0.619048 v 0 -5.2619043 c 0,-0.5125715 0.416,-0.9285715 0.9285715,-0.9285715 z M 5.2362619,9.659667 8,6.2824524 10.763738,9.659667 V 5.4975 c 0,-0.1464048 0.05788,-0.2872381 0.16281,-0.3896905 0.102452,-0.1049285 0.243285,-0.163119 0.38969,-0.163119 0.146405,0 0.287548,0.058191 0.389691,0.163119 0.105238,0.1024524 0.163119,0.2432857 0.163119,0.3896905 v 4.698262 c 0,0.03869 -0.0028,0.07738 -0.01114,0.113286 -0.02476,0.113285 -0.06624,0.221 -0.124429,0.317881 -0.14919,0.262476 -0.425286,0.425595 -0.726762,0.428381 -0.176738,-0.0028 -0.351,-0.05262 -0.502976,-0.146715 -0.154762,-0.091 -0.292809,-0.2015 -0.417238,-0.3315 -0.0084,-0.01114 -0.01919,-0.02229 -0.02755,-0.03033 L 8,8.0290952 5.9410476,10.546762 c -0.00836,0.008 -0.01919,0.01919 -0.027548,0.03033 -0.1244286,0.13 -0.2624762,0.2405 -0.4172381,0.3315 -0.1519762,0.09409 -0.3262381,0.143929 -0.5029762,0.146715 -0.3014762,-0.0028 -0.5775714,-0.165905 -0.7270714,-0.428381 -0.057881,-0.09688 -0.099357,-0.204596 -0.1241191,-0.317881 -0.00836,-0.03591 -0.011143,-0.0746 -0.011143,-0.113286 V 5.4975 c 0,-0.1464048 0.058191,-0.2872381 0.163119,-0.3896905 0.1021429,-0.1049285 0.2432857,-0.163119 0.3896905,-0.163119 0.1464048,0 0.2872381,0.058191 0.3896905,0.163119 C 5.178381,5.2102619 5.2362619,5.3510952 5.2362619,5.4975 Z m -0.6410238,3.602238 v 0 c 0.3417143,0 0.6190476,0.277333 0.6190476,0.619047 v 0 C 5.2142857,14.222667 4.9369524,14.5 4.5952381,14.5 v 0 H 3.047619 C 2.1933333,14.5 1.5,13.806667 1.5,12.952381 v -1.547619 0 c 0,-0.341714 0.2773333,-0.619048 0.6190476,-0.619048 v 0 c 0.3417143,0 0.6190476,0.277334 0.6190476,0.619048 v 0 0.928571 c 0,0.512572 0.416,0.928572 0.9285715,0.928572 z M 13.261905,7.3809524 v 0 c 0,-0.3417143 0.277333,-0.6190476 0.619047,-0.6190476 v 0 c 0.341715,0 0.619048,0.2773333 0.619048,0.6190476 v 0 5.5714286 C 14.5,13.806667 13.806667,14.5 12.952381,14.5 H 7.3809524 v 0 c -0.3417143,0 -0.6190476,-0.277333 -0.6190476,-0.619048 v 0 c 0,-0.341714 0.2773333,-0.619047 0.6190476,-0.619047 v 0 h 4.9523806 c 0.512572,0 0.928572,-0.416 0.928572,-0.928572 z"
     fill-rule="evenodd"
     id="path2"
     style="fill:url(#linearGradient4)" />
</svg>
