<?xml version="1.0" encoding="UTF-8" standalone="no"?>
<!-- Generator: Gravit.io -->

<svg
   style="isolation:isolate"
   viewBox="0 0 16 16"
   width="16"
   height="16"
   version="1.1"
   id="svg2"
   sodipodi:docname="com.wps.Office.wppmain.svg"
   inkscape:version="1.4.4 (unknown)"
   xmlns:inkscape="http://www.inkscape.org/namespaces/inkscape"
   xmlns:sodipodi="http://sodipodi.sourceforge.net/DTD/sodipodi-0.dtd"
   xmlns:xlink="http://www.w3.org/1999/xlink"
   xmlns="http://www.w3.org/2000/svg"
   xmlns:svg="http://www.w3.org/2000/svg">
  <defs
     id="defs2">
    <linearGradient
       id="linearGradient2"
       inkscape:collect="always">
      <stop
         style="stop-color:#7137c8;stop-opacity:1"
         offset="0"
         id="stop3" />
      <stop
         style="stop-color:#ffb380;stop-opacity:1"
         offset="1"
         id="stop4" />
    </linearGradient>
    <linearGradient
       inkscape:collect="always"
       xlink:href="#linearGradient2"
       id="linearGradient4"
       x1="2.2173817"
       y1="14.5"
       x2="12.377746"
       y2="4.2935276"
       gradientUnits="userSpaceOnUse" />
  </defs>
  <sodipodi:namedview
     id="namedview2"
     pagecolor="#ffffff"
     bordercolor="#000000"
     borderopacity="0.25"
     inkscape:showpageshadow="2"
     inkscape:pageopacity="0.0"
     inkscape:pagecheckerboard="0"
     inkscape:deskcolor="#d1d1d1"
     inkscape:document-units="px"
     inkscape:zoom="33.45499"
     inkscape:cx="8.6384723"
     inkscape:cy="9.3409086"
     inkscape:window-width="1920"
     inkscape:window-height="994"
     inkscape:window-x="0"
     inkscape:window-y="0"
     inkscape:window-maximized="1"
     inkscape:current-layer="svg2" />
  <linearGradient
     id="_lgradient_34"
     x1="0"
     y1="0.5"
     x2="1"
     y2="0.5"
     gradientTransform="matrix(13,0,0,13,1.5,1.4999998)"
     gradientUnits="userSpaceOnUse">
    <stop
       offset="0%"
       stop-opacity="1"
       style="stop-color:rgb(255,153,102)"
       id="stop1" />
    <stop
       offset="98.26086956521739%"
       stop-opacity="1"
       style="stop-color:rgb(255,94,98)"
       id="stop2" />
  </linearGradient>
  <path
     d="m 11.404762,2.738095 v 0 0 h 0.928571 v 0 c 0.512572,0 0.928572,0.416 0.928572,0.9285715 v 0.9285714 0 c 0,0.3417143 0.277333,0.6190476 0.619047,0.6190476 v 0 C 14.222667,5.2142855 14.5,4.9369522 14.5,4.5952379 v 0 -1.5476191 c 0,-0.8542857 -0.693333,-1.547619 -1.547619,-1.547619 h -0.619048 -0.928571 v 0 0 H 3.047619 C 2.1933333,1.4999998 1.5,2.1933331 1.5,3.0476188 v 5.880952 0 c 0,0.341715 0.2773333,0.6190484 0.6190476,0.6190484 v 0 c 0.3417143,0 0.6190476,-0.2773334 0.6190476,-0.6190484 v 0 -5.2619043 c 0,-0.5125715 0.416,-0.9285715 0.9285715,-0.9285715 z m -5.8809525,8.666667 c 0,0.164048 -0.065,0.321905 -0.1795238,0.436428 -0.117619,0.11762 -0.2754762,0.18262 -0.4395238,0.18262 -0.1640476,0 -0.3219048,-0.065 -0.4364286,-0.18262 -0.1145238,-0.114523 -0.182619,-0.27238 -0.182619,-0.436428 V 7.3809522 H 9.235 c 0.065,-0.0031 0.133095,-0.00929 0.198095,-0.021667 0.167143,-0.021667 0.331191,-0.07119 0.482857,-0.1392857 0.154762,-0.068095 0.290953,-0.1733333 0.393096,-0.3064286 0.04952,-0.07119 0.08976,-0.1516666 0.114523,-0.2352381 0.03714,-0.1238095 0.05571,-0.2538095 0.05262,-0.3807143 0.0031,-0.13 -0.01548,-0.26 -0.05262,-0.3838095 -0.02476,-0.083571 -0.065,-0.1640476 -0.114523,-0.2352381 C 10.206905,5.545476 10.070714,5.4402379 9.915952,5.3721427 9.764286,5.3040474 9.600238,5.2545236 9.433095,5.2328569 9.368095,5.220476 9.3,5.2142855 9.235,5.2142855 H 4.9047619 c -0.1640476,0 -0.3219048,-0.065 -0.4364286,-0.182619 -0.1145238,-0.1145238 -0.182619,-0.272381 -0.182619,-0.4364286 0,-0.1640476 0.068095,-0.3219048 0.182619,-0.4395238 C 4.5828571,4.0411903 4.7407143,3.9761903 4.9047619,3.9761903 H 9.238095 c 0.0031,0 0.0093,0 0.01238,0 0.12381,0 0.250714,0.012381 0.374524,0.034048 0.275476,0.040238 0.541667,0.117619 0.795476,0.2321429 0.349762,0.1516666 0.653095,0.3961904 0.885238,0.702619 0.133096,0.1857143 0.235238,0.39 0.303334,0.6097619 0.07119,0.2414286 0.108333,0.4890476 0.105238,0.7428571 0.0031,0.2507143 -0.03405,0.5014286 -0.105238,0.739762 -0.0681,0.2197619 -0.170238,0.4271428 -0.303334,0.6097619 -0.232143,0.3064285 -0.535476,0.5509523 -0.885238,0.7057142 -0.253809,0.1114286 -0.52,0.1888095 -0.795476,0.2321425 -0.12381,0.01857 -0.250714,0.03095 -0.374524,0.03405 -0.0031,0 -0.0093,0 -0.01238,0 H 5.5238095 Z m -0.9285714,1.857143 v 0 c 0.3417143,0 0.6190476,0.277333 0.6190476,0.619047 v 0 C 5.2142857,14.222667 4.9369524,14.5 4.5952381,14.5 v 0 H 3.047619 C 2.1933333,14.5 1.5,13.806667 1.5,12.952381 v -1.547619 0 c 0,-0.341714 0.2773333,-0.619048 0.6190476,-0.619048 v 0 c 0.3417143,0 0.6190476,0.277334 0.6190476,0.619048 v 0 0.928571 c 0,0.512572 0.416,0.928572 0.9285715,0.928572 z M 13.261905,7.3809522 v 0 c 0,-0.3417143 0.277333,-0.6190476 0.619047,-0.6190476 v 0 c 0.341715,0 0.619048,0.2773333 0.619048,0.6190476 v 0 5.5714288 C 14.5,13.806667 13.806667,14.5 12.952381,14.5 H 7.3809524 v 0 c -0.3417143,0 -0.6190476,-0.277333 -0.6190476,-0.619048 v 0 c 0,-0.341714 0.2773333,-0.619047 0.6190476,-0.619047 v 0 h 4.9523806 c 0.512572,0 0.928572,-0.416 0.928572,-0.928572 z"
     fill-rule="evenodd"
     id="path2"
     style="fill:url(#linearGradient4)" />
</svg>
