<?xml version="1.0" encoding="UTF-8" standalone="no"?>
<svg
   height="16"
   width="16"
   version="1.1"
   id="svg6"
   sodipodi:docname="xemu.svg"
   inkscape:version="1.4.4 (unknown)"
   xmlns:inkscape="http://www.inkscape.org/namespaces/inkscape"
   xmlns:sodipodi="http://sodipodi.sourceforge.net/DTD/sodipodi-0.dtd"
   xmlns:xlink="http://www.w3.org/1999/xlink"
   xmlns="http://www.w3.org/2000/svg"
   xmlns:svg="http://www.w3.org/2000/svg"
   xmlns:rdf="http://www.w3.org/1999/02/22-rdf-syntax-ns#"
   xmlns:cc="http://creativecommons.org/ns#"
   xmlns:dc="http://purl.org/dc/elements/1.1/">
  <metadata
     id="metadata12">
    <rdf:RDF>
      <cc:Work
         rdf:about="">
        <dc:format>image/svg+xml</dc:format>
        <dc:type
           rdf:resource="http://purl.org/dc/dcmitype/StillImage" />
      </cc:Work>
    </rdf:RDF>
  </metadata>
  <defs
     id="defs10">
    <linearGradient
       id="linearGradient1"
       inkscape:collect="always">
      <stop
         style="stop-color:#26a269;stop-opacity:1"
         offset="0"
         id="stop1" />
      <stop
         style="stop-color:#8ff0a4;stop-opacity:1"
         offset="1"
         id="stop2" />
    </linearGradient>
    <marker
       style="overflow:visible"
       id="DotL"
       refX="0"
       refY="0"
       orient="auto"
       inkscape:stockid="DotL"
       inkscape:isstock="true">
      <path
         transform="matrix(0.8,0,0,0.8,5.92,0.8)"
         style="fill:#000000;fill-opacity:1;fill-rule:evenodd;stroke:#000000;stroke-width:1pt;stroke-opacity:1"
         d="m -2.5,-1 c 0,2.76 -2.24,5 -5,5 -2.76,0 -5,-2.24 -5,-5 0,-2.76 2.24,-5 5,-5 2.76,0 5,2.24 5,5 z"
         id="path898" />
    </marker>
    <linearGradient
       inkscape:collect="always"
       xlink:href="#linearGradient1"
       id="linearGradient2"
       x1="10.707617"
       y1="31.534513"
       x2="37.173615"
       y2="31.534513"
       gradientUnits="userSpaceOnUse"
       gradientTransform="matrix(0.49119628,0,0,0.49119634,-3.7595407,-7.4896376)" />
    <linearGradient
       inkscape:collect="always"
       xlink:href="#linearGradient1"
       id="linearGradient4"
       x1="8.8061771"
       y1="7.7428927"
       x2="4.6591134"
       y2="8.1875"
       gradientUnits="userSpaceOnUse" />
  </defs>
  <sodipodi:namedview
     pagecolor="#ffffff"
     bordercolor="#666666"
     borderopacity="1"
     objecttolerance="10"
     gridtolerance="10"
     guidetolerance="10"
     inkscape:pageopacity="0"
     inkscape:pageshadow="2"
     inkscape:window-width="1920"
     inkscape:window-height="994"
     id="namedview8"
     showgrid="false"
     inkscape:zoom="16"
     inkscape:cx="4.875"
     inkscape:cy="24.03125"
     inkscape:window-x="0"
     inkscape:window-y="0"
     inkscape:window-maximized="1"
     inkscape:current-layer="svg6"
     inkscape:document-rotation="0"
     inkscape:pagecheckerboard="0"
     inkscape:showpageshadow="2"
     inkscape:deskcolor="#d1d1d1" />
  <path
     id="circle2"
     style="opacity:0.99;fill:url(#linearGradient2);fill-opacity:1;stroke-width:0.491196"
     d="M 14.5,7.9999999 A 6.4999994,6.5000002 0 0 1 8.0000003,14.5 6.4999994,6.5000002 0 0 1 1.5000009,7.9999999 6.4999994,6.5000002 0 0 1 8.0000003,1.5000002 6.4999994,6.5000002 0 0 1 14.5,7.9999999 Z" />
  <path
     id="circle858"
     style="opacity:1;fill:#1c202f;fill-opacity:1;stroke-width:0.417883"
     d="M 13.529826,7.9999999 A 5.5298259,5.529827 0 0 1 7.9999999,13.529827 5.5298259,5.529827 0 0 1 2.4701739,7.9999999 5.5298259,5.529827 0 0 1 7.9999999,2.4701729 5.5298259,5.529827 0 0 1 13.529826,7.9999999 Z" />
  <path
     d="M 9.9528051,11.498993 C 9.4103039,10.476619 8.7445517,9.521938 8.0232355,8.619787 7.2837347,9.545173 6.5422133,10.475612 5.9421272,11.5 H 4.6591134 C 5.3864912,10.174555 6.3502663,9.001657 7.2837348,7.8196718 L 4.7641789,4.5 H 6.1664017 L 8.0525323,6.9447984 9.7871225,4.5 H 11.11459 L 8.8061771,7.7428929 C 9.7052925,8.956199 10.644825,10.154346 11.340887,11.498993 Z"
     style="fill:url(#linearGradient4);fill-opacity:1;stroke-width:0.249966"
     id="path2" />
</svg>
