<?xml version="1.0" encoding="UTF-8" standalone="no"?>
<svg
   width="16"
   height="16"
   viewBox="0 0 16 16"
   fill="none"
   version="1.1"
   id="svg5"
   sodipodi:docname="xfce4-systray.svg"
   inkscape:version="1.4.4 (unknown)"
   xmlns:inkscape="http://www.inkscape.org/namespaces/inkscape"
   xmlns:sodipodi="http://sodipodi.sourceforge.net/DTD/sodipodi-0.dtd"
   xmlns="http://www.w3.org/2000/svg"
   xmlns:svg="http://www.w3.org/2000/svg">
  <sodipodi:namedview
     id="namedview5"
     pagecolor="#ffffff"
     bordercolor="#000000"
     borderopacity="0.25"
     inkscape:showpageshadow="2"
     inkscape:pageopacity="0.0"
     inkscape:pagecheckerboard="0"
     inkscape:deskcolor="#d1d1d1"
     inkscape:zoom="33.45499"
     inkscape:cx="6.7553451"
     inkscape:cy="7.4278905"
     inkscape:window-width="1920"
     inkscape:window-height="994"
     inkscape:window-x="0"
     inkscape:window-y="0"
     inkscape:window-maximized="1"
     inkscape:current-layer="svg5" />
  <path
     fill-rule="evenodd"
     clip-rule="evenodd"
     d="M 2.2147455,1.4999999 H 13.785255 c 1.085154,0 1.964745,0.91014 1.964745,2.032838 V 12.4672 c 0,1.122724 -0.879591,2.0328 -1.964745,2.0328 H 2.2147455 C 1.129646,14.5 0.25,13.589924 0.25,12.4672 V 3.5328379 c 0,-1.122711 0.879646,-2.032838 1.9647455,-2.032838 z m 0,1.5246291 c -0.2712698,0 -0.4911862,0.227538 -0.4911862,0.5082089 V 12.4672 c 0,0.280621 0.2199164,0.508171 0.4911862,0.508171 h 2.1939944 c 0.1356412,0 0.2455931,-0.113712 0.2455931,-0.254104 v -0.267204 c 0,-0.140342 -0.1099519,-0.254105 -0.2455931,-0.254105 H 3.5571087 c -0.3345716,0 -0.6057921,-0.280621 -0.6057921,-0.626788 0,-0.346166 0.2712205,-0.626787 0.6057921,-0.626787 h 8.6415903 c 0.33452,0 0.605778,0.280621 0.605778,0.626787 0,0.346167 -0.271258,0.626788 -0.605778,0.626788 h -0.486717 c -0.135628,0 -0.245595,0.113763 -0.245595,0.254105 v 0.267204 c 0,0.140392 0.109967,0.254104 0.245595,0.254104 h 2.073273 c 0.271259,0 0.491188,-0.22755 0.491188,-0.508171 V 3.5328379 c 0,-0.2806709 -0.219929,-0.5082089 -0.491188,-0.5082089 z m 7.7919225,9.429434 c 0,-0.140342 -0.109964,-0.254105 -0.2455926,-0.254105 H 9.0358265 c -0.1356412,0 -0.2455936,0.113763 -0.2455936,0.254105 v 0.267204 c 0,0.140392 0.1099524,0.254104 0.2455936,0.254104 h 0.7252489 c 0.1356286,0 0.2455926,-0.113712 0.2455926,-0.254104 z m -2.6761672,0 c 0,-0.140342 -0.1099522,-0.254105 -0.2455932,-0.254105 H 6.3596585 c -0.1356408,0 -0.2455931,0.113763 -0.2455931,0.254105 v 0.267204 c 0,0.140392 0.1099523,0.254104 0.2455931,0.254104 h 0.7252491 c 0.135641,0 0.2455932,-0.113712 0.2455932,-0.254104 z"
     fill="url(#paint0_linear)"
     id="path1"
     style="fill:url(#paint0_linear);stroke-width:0.124906" />
  <defs
     id="defs5">
    <linearGradient
       id="paint0_linear"
       x1="18.608627"
       y1="97.467712"
       x2="127.22502"
       y2="13"
       gradientUnits="userSpaceOnUse"
       gradientTransform="matrix(0.12279657,0,0,0.12705238,0.12720343,-0.151681)">
      <stop
         stop-color="#0357D1"
         id="stop2"
         style="stop-color:#ff9d5b;stop-opacity:1;"
         offset="0" />
      <stop
         offset="1"
         stop-color="#27CDFC"
         id="stop3"
         style="stop-color:#00abd6;stop-opacity:1;" />
    </linearGradient>
    <linearGradient
       id="paint1_linear"
       x1="106.37"
       y1="108.209"
       x2="83.613503"
       y2="99.315697"
       gradientUnits="userSpaceOnUse"
       gradientTransform="matrix(0.12279657,0,0,0.12705238,-3.3084668,-14.559098)">
      <stop
         stop-color="#BE41B4"
         id="stop4" />
      <stop
         offset="1"
         stop-color="#FE1FE8"
         id="stop5" />
    </linearGradient>
  </defs>
</svg>
