<?xml version="1.0" encoding="UTF-8" standalone="no"?>
<svg
   width="16"
   height="16"
   viewBox="0 0 16 16"
   fill="none"
   version="1.1"
   id="svg8"
   sodipodi:docname="xfce4-session.svg"
   inkscape:version="1.4.4 (unknown)"
   xmlns:inkscape="http://www.inkscape.org/namespaces/inkscape"
   xmlns:sodipodi="http://sodipodi.sourceforge.net/DTD/sodipodi-0.dtd"
   xmlns="http://www.w3.org/2000/svg"
   xmlns:svg="http://www.w3.org/2000/svg">
  <sodipodi:namedview
     id="namedview8"
     pagecolor="#ffffff"
     bordercolor="#000000"
     borderopacity="0.25"
     inkscape:showpageshadow="2"
     inkscape:pageopacity="0.0"
     inkscape:pagecheckerboard="0"
     inkscape:deskcolor="#d1d1d1"
     inkscape:zoom="22.627417"
     inkscape:cx="7.4688154"
     inkscape:cy="13.147767"
     inkscape:window-width="1920"
     inkscape:window-height="994"
     inkscape:window-x="0"
     inkscape:window-y="0"
     inkscape:window-maximized="1"
     inkscape:current-layer="svg8" />
  <g
     id="g8"
     transform="translate(-2.8421055,-4.4999995)">
    <path
       d="M 16.384211,6.6842105 H 5.3 c -0.3400903,0 -0.6157895,0.2603832 -0.6157895,0.581579 V 17.734211 c 0,0.321202 0.2756992,0.581578 0.6157895,0.581578 H 16.384211 C 16.724297,18.315789 17,18.055413 17,17.734211 V 7.2657895 c 0,-0.3211958 -0.275703,-0.581579 -0.615789,-0.581579 z"
       stroke="url(#paint0_linear)"
       stroke-width="1.36842"
       id="path1"
       style="stroke:url(#paint0_linear)" />
    <path
       fill-rule="evenodd"
       clip-rule="evenodd"
       d="m 13.607684,12.096042 c 0.144779,0.133147 0.147721,0.360682 0.0065,0.497524 l -1.370645,1.327779 c -0.137697,0.133387 -0.138929,0.353873 -0.0027,0.4888 l 1.428152,1.414366 c 0.137732,0.136363 0.134756,0.359826 -0.0065,0.492494 l -0.719755,0.675727 c -0.138484,0.130034 -0.356405,0.122336 -0.485345,-0.01717 l -1.364247,-1.475637 c -0.137048,-0.148234 -0.371971,-0.146182 -0.506419,0.0044 l -1.3593566,1.52248 C 9.0989763,17.170626 8.8771553,17.18 8.7370974,17.047503 L 8.0276395,16.376429 c -0.1433079,-0.135576 -0.1425553,-0.364 0.00168,-0.498618 l 1.5038263,-1.403658 c 0.1418711,-0.132395 0.1453263,-0.356132 0.00763,-0.492837 L 8.1758395,12.625861 C 8.0360553,12.487068 8.0420763,12.259226 8.1889421,12.127995 L 9.0453,11.362876 c 0.14235,-0.127194 0.3612632,-0.113271 0.4863368,0.03089 l 1.2028762,1.386382 c 0.136466,0.1573 0.380592,0.157197 0.516955,-1.71e-4 l 1.143898,-1.320253 c 0.126339,-0.145805 0.34816,-0.158394 0.490134,-0.02781 z"
       fill="url(#paint2_linear)"
       id="path3"
       style="fill:url(#paint2_linear);stroke-width:0.342105" />
  </g>
  <defs
     id="defs8">
    <linearGradient
       id="paint0_linear"
       x1="26.41091"
       y1="43.999996"
       x2="26.266146"
       y2="6.0000014"
       gradientUnits="userSpaceOnUse"
       gradientTransform="matrix(0.34210526,0,0,0.34210526,2.6315789,3.9473684)">
      <stop
         stop-color="#0357D1"
         id="stop3"
         offset="0"
         style="stop-color:#4791fc;stop-opacity:1;" />
      <stop
         offset="1"
         stop-color="#27CDFC"
         id="stop4"
         style="stop-color:#d35f8d;stop-opacity:1" />
    </linearGradient>
    <linearGradient
       id="paint1_linear"
       x1="5.3636398"
       y1="8"
       x2="43.0909"
       y2="8"
       gradientUnits="userSpaceOnUse"
       gradientTransform="matrix(0.34210526,0,0,0.34210526,1.128977,26.663174)">
      <stop
         stop-color="#FD5900"
         id="stop5" />
      <stop
         offset="1"
         stop-color="#FFDE00"
         id="stop6" />
    </linearGradient>
    <linearGradient
       id="paint2_linear"
       x1="15"
       y1="39"
       x2="23.542736"
       y2="21.421774"
       gradientUnits="userSpaceOnUse"
       gradientTransform="matrix(0.34210526,0,0,0.34210526,2.6315789,3.9473684)">
      <stop
         stop-color="#0357D1"
         id="stop7"
         style="stop-color:#ff80b2;stop-opacity:1" />
      <stop
         offset="1"
         stop-color="#27CDFC"
         id="stop8"
         style="stop-color:#c83771;stop-opacity:1" />
    </linearGradient>
  </defs>
</svg>
