<?xml version="1.0" encoding="UTF-8" standalone="no"?>
<svg
   width="16"
   height="16"
   version="1.1"
   id="svg5"
   sodipodi:docname="yad.svg"
   inkscape:version="1.4.4 (unknown)"
   xmlns:inkscape="http://www.inkscape.org/namespaces/inkscape"
   xmlns:sodipodi="http://sodipodi.sourceforge.net/DTD/sodipodi-0.dtd"
   xmlns:xlink="http://www.w3.org/1999/xlink"
   xmlns="http://www.w3.org/2000/svg"
   xmlns:svg="http://www.w3.org/2000/svg">
  <defs
     id="defs5">
    <linearGradient
       id="linearGradient3"
       inkscape:collect="always">
      <stop
         style="stop-color:#9955ff;stop-opacity:1;"
         offset="0"
         id="stop3" />
      <stop
         style="stop-color:#00ccff;stop-opacity:1"
         offset="1"
         id="stop4" />
    </linearGradient>
    <linearGradient
       inkscape:collect="always"
       xlink:href="#linearGradient3"
       id="linearGradient4"
       x1="10.42528"
       y1="40"
       x2="53.57472"
       y2="40"
       gradientUnits="userSpaceOnUse" />
  </defs>
  <sodipodi:namedview
     id="namedview5"
     pagecolor="#ffffff"
     bordercolor="#000000"
     borderopacity="0.25"
     inkscape:showpageshadow="2"
     inkscape:pageopacity="0.0"
     inkscape:pagecheckerboard="0"
     inkscape:deskcolor="#d1d1d1"
     inkscape:zoom="33.14563"
     inkscape:cx="8.2363799"
     inkscape:cy="6.9239897"
     inkscape:window-width="1920"
     inkscape:window-height="994"
     inkscape:window-x="0"
     inkscape:window-y="0"
     inkscape:window-maximized="1"
     inkscape:current-layer="svg5" />
  <g
     id="g5"
     transform="matrix(0.2375,0,0,0.228075,0.4,0.5875625)">
    <rect
       style="fill:#00ccff;stroke-width:0.787206"
       width="12"
       height="14.872641"
       x="26"
       y="6"
       id="rect1" />
    <circle
       style="fill:#e4e4e4;stroke:url(#linearGradient4);stroke-opacity:1;stroke-width:3.1494399;stroke-dasharray:none;fill-opacity:0.01"
       cx="32"
       cy="40"
       r="20"
       id="circle1" />
    <path
       style="opacity:0.2"
       d="M 19.371094,35 A 14,14 0 0 0 18,41 14,14 0 0 0 32,55 14,14 0 0 0 46,41 14,14 0 0 0 44.632812,35 Z"
       id="path3" />
    <path
       style="fill:#9955ff"
       d="M 19.371094,34 A 14,14 0 0 0 18,40 14,14 0 0 0 32,54 14,14 0 0 0 46,40 14,14 0 0 0 44.632812,34 Z"
       id="path4" />
    <rect
       style="opacity:0.2"
       width="16"
       height="3"
       x="24"
       y="5"
       rx="1.3329999"
       ry="1.5"
       id="rect4" />
    <rect
       style="fill:#8d5fd3"
       width="16"
       height="3"
       x="24"
       y="4"
       rx="1.3329999"
       ry="1.5"
       id="rect5" />
    <path
       style="opacity:0.2;fill:#ffffff"
       d="M 25.333984,4 C 24.595318,4 24,4.669 24,5.5 24,5.6766673 24.03065,5.8428482 24.08008,6 24.263135,5.4179479 24.752357,5 25.333986,5 h 13.332032 c 0.581629,0 1.070851,0.4179479 1.253906,1 C 39.969346,5.8428482 40,5.6766673 40,5.5 40,4.669 39.404682,4 38.666016,4 Z"
       id="path5" />
  </g>
</svg>
