<?xml version="1.0" encoding="UTF-8" standalone="no"?>
<svg
   width="16"
   height="16"
   version="1.1"
   id="svg23"
   sodipodi:docname="youtube-to-mp3.svg"
   inkscape:version="1.4.4 (unknown)"
   xmlns:inkscape="http://www.inkscape.org/namespaces/inkscape"
   xmlns:sodipodi="http://sodipodi.sourceforge.net/DTD/sodipodi-0.dtd"
   xmlns:xlink="http://www.w3.org/1999/xlink"
   xmlns="http://www.w3.org/2000/svg"
   xmlns:svg="http://www.w3.org/2000/svg">
  <sodipodi:namedview
     id="namedview23"
     pagecolor="#ffffff"
     bordercolor="#000000"
     borderopacity="0.25"
     inkscape:showpageshadow="2"
     inkscape:pageopacity="0.0"
     inkscape:pagecheckerboard="0"
     inkscape:deskcolor="#d1d1d1"
     inkscape:zoom="24.090573"
     inkscape:cx="3.196271"
     inkscape:cy="18.534221"
     inkscape:window-width="1920"
     inkscape:window-height="996"
     inkscape:window-x="0"
     inkscape:window-y="0"
     inkscape:window-maximized="1"
     inkscape:current-layer="svg23" />
  <defs
     id="defs22">
    <linearGradient
       id="linearGradient24"
       x1="0%"
       x2="0%"
       y1="0%"
       y2="100%">
      <stop
         offset="0%"
         style="stop-color:#ff2a2a;stop-opacity:1"
         id="stop23" />
      <stop
         offset="100%"
         style="stop-color:#d35f8d;stop-opacity:1"
         id="stop24" />
    </linearGradient>
    <style
       id="current-color-scheme"
       type="text/css">
   .ColorScheme-Text { color:#d5c289; } .ColorScheme-Highlight { color:#5294e2; }
  </style>
    <linearGradient
       id="arrongin"
       x1="0%"
       x2="0%"
       y1="0%"
       y2="100%">
      <stop
         offset="0%"
         style="stop-color:#dd9b44; stop-opacity:1"
         id="stop1" />
      <stop
         offset="100%"
         style="stop-color:#ad6c16; stop-opacity:1"
         id="stop2" />
    </linearGradient>
    <linearGradient
       id="aurora"
       x1="0%"
       x2="0%"
       y1="0%"
       y2="100%">
      <stop
         offset="0%"
         style="stop-color:#09D4DF; stop-opacity:1"
         id="stop3" />
      <stop
         offset="100%"
         style="stop-color:#9269F4; stop-opacity:1"
         id="stop4" />
    </linearGradient>
    <linearGradient
       id="fitdance"
       x1="0%"
       x2="0%"
       y1="0%"
       y2="100%">
      <stop
         offset="0%"
         style="stop-color:#1AD6AB; stop-opacity:1"
         id="stop5" />
      <stop
         offset="100%"
         style="stop-color:#329DB6; stop-opacity:1"
         id="stop6" />
    </linearGradient>
    <linearGradient
       id="oomox"
       x1="0%"
       x2="0%"
       y1="0%"
       y2="100%">
      <stop
         offset="0%"
         style="stop-color:#303b3d; stop-opacity:1"
         id="stop7" />
      <stop
         offset="100%"
         style="stop-color:#bc985d; stop-opacity:1"
         id="stop8" />
    </linearGradient>
    <linearGradient
       id="rainblue"
       x1="0%"
       x2="0%"
       y1="0%"
       y2="100%">
      <stop
         offset="0%"
         style="stop-color:#00F260; stop-opacity:1"
         id="stop9" />
      <stop
         offset="100%"
         style="stop-color:#0575E6; stop-opacity:1"
         id="stop10" />
    </linearGradient>
    <linearGradient
       id="sunrise"
       x1="0%"
       x2="0%"
       y1="0%"
       y2="100%">
      <stop
         offset="0%"
         style="stop-color: #FF8501; stop-opacity:1"
         id="stop11" />
      <stop
         offset="100%"
         style="stop-color: #FFCB01; stop-opacity:1"
         id="stop12" />
    </linearGradient>
    <linearGradient
       id="telinkrin"
       x1="0%"
       x2="0%"
       y1="0%"
       y2="100%">
      <stop
         offset="0%"
         style="stop-color: #b2ced6; stop-opacity:1"
         id="stop13" />
      <stop
         offset="100%"
         style="stop-color: #6da5b7; stop-opacity:1"
         id="stop14" />
    </linearGradient>
    <linearGradient
       id="60spsycho"
       x1="0%"
       x2="0%"
       y1="0%"
       y2="100%">
      <stop
         offset="0%"
         style="stop-color: #df5940; stop-opacity:1"
         id="stop15" />
      <stop
         offset="25%"
         style="stop-color: #d8d15f; stop-opacity:1"
         id="stop16" />
      <stop
         offset="50%"
         style="stop-color: #e9882a; stop-opacity:1"
         id="stop17" />
      <stop
         offset="100%"
         style="stop-color: #279362; stop-opacity:1"
         id="stop18" />
    </linearGradient>
    <linearGradient
       id="90ssummer"
       x1="0%"
       x2="0%"
       y1="0%"
       y2="100%">
      <stop
         offset="0%"
         style="stop-color: #f618c7; stop-opacity:1"
         id="stop19" />
      <stop
         offset="20%"
         style="stop-color: #94ffab; stop-opacity:1"
         id="stop20" />
      <stop
         offset="50%"
         style="stop-color: #fbfd54; stop-opacity:1"
         id="stop21" />
      <stop
         offset="100%"
         style="stop-color: #0f83ae; stop-opacity:1"
         id="stop22" />
    </linearGradient>
    <linearGradient
       inkscape:collect="always"
       xlink:href="#linearGradient24"
       id="linearGradient25"
       x1="1273"
       y1="-320"
       x2="1288.9919"
       y2="-320"
       gradientUnits="userSpaceOnUse"
       gradientTransform="matrix(0.99949997,0,0,1,0.63661597,-1)" />
    <linearGradient
       id="b-0"
       y1="10"
       y2="32"
       x2="0"
       gradientUnits="userSpaceOnUse"
       gradientTransform="matrix(0.2409091,0,0,0.2409091,5.4110921,3.1730215)"
       xlink:href="#rainblue">
      <stop
         stop-color="#f67400"
         id="stop7-2" />
      <stop
         offset="1"
         stop-color="#ed1515"
         id="stop9-3" />
    </linearGradient>
    <clipPath
       clipPathUnits="userSpaceOnUse"
       id="clipPath26-3">
      <g
         id="g27-1">
        <rect
           width="16"
           height="16"
           id="rect26-9"
           x="0"
           y="0" />
      </g>
    </clipPath>
    <linearGradient
       inkscape:collect="always"
       xlink:href="#linearGradient24"
       id="linearGradient26"
       x1="1"
       y1="8"
       x2="7.5120001"
       y2="8"
       gradientUnits="userSpaceOnUse" />
  </defs>
  <g
     transform="matrix(1.0005003,0,0,1,-1273.6369,328)"
     id="g23"
     style="stroke-width:0.99975">
    <path
       d="m 1276.994,-326 c -1.258,0.015 -2.178,-0.03 -2.931,0.385 a 1.88,1.88 0 0 0 -0.838,0.998 c -0.165,0.438 -0.225,0.96 -0.225,1.617 v 6 c 0,0.658 0.06,1.179 0.225,1.617 0.165,0.439 0.461,0.79 0.838,0.998 0.753,0.416 1.673,0.37 2.931,0.385 h 8.004 c 1.258,-0.015 2.18,0.03 2.932,-0.385 a 1.88,1.88 0 0 0 0.838,-0.998 c 0.164,-0.438 0.224,-0.96 0.224,-1.617 v -6 c 0,-0.658 -0.06,-1.179 -0.224,-1.617 a 1.88,1.88 0 0 0 -0.838,-0.998 c -0.753,-0.416 -1.674,-0.37 -2.932,-0.385 z m 0.01,1 h 8 c 1.259,0.015 2.088,0.06 2.454,0.262 0.183,0.1 0.289,0.212 0.386,0.472 0.097,0.26 0.16,0.674 0.16,1.266 v 6 c 0,0.592 -0.063,1.006 -0.16,1.266 -0.098,0.26 -0.203,0.371 -0.387,0.472 -0.366,0.202 -1.194,0.247 -2.453,0.262 H 1277 c -1.258,-0.015 -2.089,-0.06 -2.455,-0.262 -0.183,-0.1 -0.287,-0.212 -0.385,-0.472 -0.098,-0.26 -0.16,-0.674 -0.16,-1.266 v -6 c 0,-0.592 0.063,-1.006 0.16,-1.266 0.098,-0.26 0.202,-0.371 0.385,-0.472 0.366,-0.202 1.197,-0.247 2.455,-0.262 z"
       font-weight="400"
       overflow="visible"
       class="ColorScheme-Text"
       id="path22"
       style="fill:url(#linearGradient25);fill-opacity:1;stroke-width:0.99975" />
  </g>
  <path
     class="ColorScheme-Text"
     d="m 7.512,8 c 0,1.798 -1.458,3.256 -3.256,3.256 C 2.458,11.256 1,9.798 1,8 1,6.202 2.458,4.744 4.256,4.744 6.054,4.744 7.512,6.202 7.512,8 Z"
     id="path23-4"
     clip-path="url(#clipPath26-3)"
     transform="matrix(0.92137592,0,0,0.92137592,4.0786241,0.62899264)"
     style="color:#d5c289;isolation:isolate;fill:url(#linearGradient26);fill-opacity:1" />
  <path
     d="M 7.0833906,6.4763376 C 6.9319102,6.5133588 6.8097968,6.6609159 6.8097968,6.8042619 V 9.0765655 C 6.6561029,9.0030504 6.4587536,8.9733969 6.2539586,9.0218335 5.8848088,9.1095608 5.6532578,9.3927402 5.7325193,9.6543426 5.8115843,9.9161222 6.1754998,10.0621 6.5446502,9.974544 6.8393712,9.904544 7.0425543,9.7068065 7.0749436,9.4981882 L 7.0835582,7.3508133 8.9987206,6.8823498 V 8.5768841 C 8.8450322,8.5033691 8.6476809,8.4735409 8.443089,8.5221436 8.0737366,8.6098731 7.8421868,8.8930595 7.9214504,9.1546604 8.0005046,9.416261 8.3644321,9.5624137 8.7337852,9.474863 9.0282993,9.404854 9.2314865,9.2071182 9.263874,8.9985041 l 0.0086,-2.7955044 C 9.272474,6.0956208 9.199656,6.0150896 9.1014758,6 l -2.017944,0.4763511 z"
     fill-opacity="0.70"
     fill-rule="nonzero"
     id="path2-3-6"
     style="fill:#241f31;fill-opacity:1;stroke-width:0.187874" />
</svg>
