<?xml version="1.0" encoding="UTF-8" standalone="no"?>
<svg
   width="16"
   height="16"
   viewBox="-4 -4 16 16"
   version="1.1"
   id="svg2"
   sodipodi:docname="zim.svg"
   inkscape:version="1.4.4 (unknown)"
   xmlns:inkscape="http://www.inkscape.org/namespaces/inkscape"
   xmlns:sodipodi="http://sodipodi.sourceforge.net/DTD/sodipodi-0.dtd"
   xmlns:xlink="http://www.w3.org/1999/xlink"
   xmlns="http://www.w3.org/2000/svg"
   xmlns:svg="http://www.w3.org/2000/svg">
  <sodipodi:namedview
     id="namedview2"
     pagecolor="#ffffff"
     bordercolor="#000000"
     borderopacity="0.25"
     inkscape:showpageshadow="2"
     inkscape:pageopacity="0.0"
     inkscape:pagecheckerboard="0"
     inkscape:deskcolor="#d1d1d1"
     inkscape:zoom="31.541667"
     inkscape:cx="12"
     inkscape:cy="12"
     inkscape:window-width="1920"
     inkscape:window-height="994"
     inkscape:window-x="0"
     inkscape:window-y="0"
     inkscape:window-maximized="1"
     inkscape:current-layer="svg2" />
  <defs
     id="defs1">
    <linearGradient
       id="linearGradient4"
       inkscape:collect="always">
      <stop
         style="stop-color:#8d5fd3;stop-opacity:1"
         offset="0"
         id="stop4" />
      <stop
         style="stop-color:#ffe680;stop-opacity:1"
         offset="1"
         id="stop5" />
    </linearGradient>
    <linearGradient
       id="linearGradient2"
       inkscape:collect="always">
      <stop
         style="stop-color:#aa87de;stop-opacity:1"
         offset="0"
         id="stop2" />
      <stop
         style="stop-color:#ffdd55;stop-opacity:1"
         offset="1"
         id="stop3" />
    </linearGradient>
    <style
       id="current-color-scheme"
       type="text/css">
   .ColorScheme-Text { color:#dfdfdf; } .ColorScheme-Highlight { color:#4285f4; }
  </style>
    <linearGradient
       inkscape:collect="always"
       xlink:href="#linearGradient2"
       id="linearGradient3"
       x1="11.175933"
       y1="4.3354187"
       x2="13.000806"
       y2="12.492074"
       gradientUnits="userSpaceOnUse" />
    <linearGradient
       inkscape:collect="always"
       xlink:href="#linearGradient4"
       id="linearGradient5"
       x1="-0.57069594"
       y1="13.317641"
       x2="13.000806"
       y2="0.38237089"
       gradientUnits="userSpaceOnUse" />
  </defs>
  <g
     id="g2"
     transform="translate(-2.5004604,-2.5)">
    <path
       d="m 6.5008083,0 c -3.601,0 -6.49999996859,2.899 -6.49999996859,6.5 0,0.6800631 0.10473121859,1.3349381 0.29672499859,1.95 l 0.00796,-0.042245 C 0.42322705,7.9486881 0.65023955,7.4725631 1.0560833,7.096375 1.5333456,6.654375 2.0886083,6.5349381 2.6636144,6.5251881 2.7587583,6.3245 2.8351333,6.11 3.0254206,5.97025 3.1050466,5.9109374 3.1923894,5.9353124 3.2777833,5.897125 l 0.017468,-0.04469 C 3.5255144,5.416125 3.8263022,5.08625 4.2473394,4.6115881 4.8217772,3.964025 5.7134956,3.3635061 6.5406206,2.8262811 7.3677456,2.2887311 9.8304325,0.9204 9.8304325,0.9204 8.8562463,0.34003131 7.7211833,0 6.5008083,0 Z m 5.9840637,3.952975 c 0,0 -1.727377,2.2049631 -2.389561,2.9280881 C 9.4339325,7.6025631 8.6961828,8.3809363 7.9608706,8.8424354 7.4766206,9.1463146 7.1101833,9.243 6.7209956,9.3916855 6.6600594,9.7353755 6.5073083,10.060375 6.2058706,10.283 c -0.186875,0.138128 -0.4135623,0.125128 -0.6305,0.15925 -0.1015604,0.368062 -0.2786873,0.736939 -0.598,1.06275 l -0.01625,0.01625 -0.015439,0.01544 c -0.4407,0.403812 -0.9793879,0.585 -1.4807,0.64268 L 3.341238,12.18427 C 4.2756956,12.702631 5.3519333,13 6.5008083,13 c 3.6010027,0 6.4999977,-2.899 6.4999977,-6.5 0,-0.905125 -0.184434,-1.7653189 -0.515934,-2.547025 z"
       id="path1"
       style="fill:url(#linearGradient3)" />
    <path
       style="fill:url(#linearGradient5);stroke-width:0.8125"
       class="ColorScheme-Text"
       d="m 12.329683,0.81883745 c -0.251061,-0.0280309 -0.489939,0.0671941 -0.719061,0.1476311 0,0 -0.786501,0.35002535 -1.205752,0.56647535 C 9.9848104,1.7493939 9.5736825,1.9747 9.2527459,2.1549939 8.9309963,2.3352881 7.7902456,2.9826061 6.9834333,3.507075 6.1766206,4.0314631 5.2974956,4.6527811 4.8551706,5.15125 c -0.2188873,0.2461881 -0.39,0.4411881 -0.530075,0.619125 0.2745438,0.089373 0.5252816,0.2575619 0.7059,0.5029381 L 6.5089333,8.27775 c 0.08125,0.1105 0.1389373,0.2323745 0.183625,0.3566854 C 6.9281833,8.5158143 7.1833083,8.370375 7.5294333,8.1534381 8.0973706,7.79675 8.8513682,7.03625 9.4964959,6.3318119 10.142432,5.627375 10.954933,4.6180869 11.175933,4.3354189 c 0.221,-0.28275 0.499689,-0.6461808 0.772689,-1.0187939 0.273,-0.3726939 0.538684,-0.7548119 0.7345,-1.080625 0.09835,-0.1629881 0.179561,-0.31135 0.234811,-0.4411881 0.05606,-0.1297558 0.09505,-0.2357058 0.07961,-0.3523 -0.026,-0.1938619 -0.123494,-0.307775 -0.181178,-0.3665999 l -0.0075,-0.00948 C 12.740621,0.98418836 12.664244,0.93235065 12.58462,0.89343201 12.498494,0.85175067 12.41318,0.82818827 12.329494,0.81884441 Z M 3.9696272,6.508125 C 3.8123272,6.48375 3.6466583,6.521125 3.5078833,6.6235 3.2303333,6.82825 3.1715894,7.2158131 3.3761772,7.4936881 l 1.475825,2.0036264 C 5.0561833,9.7751855 5.4453706,9.8336855 5.7232456,9.62975 6.0011206,9.425 6.0596206,9.0374354 5.8548706,8.7595646 L 4.3775022,6.755125 C 4.2752082,6.617 4.1269272,6.5316881 3.9696272,6.508125 Z m -1.501175,0.8311881 c -0.338,0.050375 -0.6686878,0.1763119 -0.8601128,0.35425 -0.2626811,0.2429369 -0.4277,0.572 -0.515775,0.9156869 -0.14462481,0.5630646 -0.15429336,1.3731255 -0.2650374,1.971938 -0.054925,0.297373 -0.30614995,0.760501 -0.77439367,1.360123 -0.1196,0.2015 0,0.2275 0,0.2275 0.0671125,0.04711 0.189475,-8.11e-4 0.2507375,-0.02761 1.08346857,-0.8905 1.79919977,-0.76375 3.06751247,-0.769438 0.3731,-0.04306 0.7420561,-0.1755 1.0251311,-0.434688 0.18395,-0.187683 0.2855128,-0.352629 0.3586378,-0.515935 C 4.5405706,10.324437 4.3454083,10.179814 4.1981833,9.9799355 L 2.7207333,7.9755 C 2.5791956,7.78375 2.5007894,7.5635619 2.4684522,7.3393131 Z"
       id="path2" />
  </g>
</svg>
