<?xml version="1.0" encoding="UTF-8" standalone="no"?>
<svg
   viewBox="0 0 22 22"
   version="1.1"
   id="svg1"
   sodipodi:docname="document-export.svg"
   inkscape:version="1.4.2 (unknown)"
   xmlns:inkscape="http://www.inkscape.org/namespaces/inkscape"
   xmlns:sodipodi="http://sodipodi.sourceforge.net/DTD/sodipodi-0.dtd"
   xmlns:xlink="http://www.w3.org/1999/xlink"
   xmlns="http://www.w3.org/2000/svg"
   xmlns:svg="http://www.w3.org/2000/svg">
  <sodipodi:namedview
     id="namedview1"
     pagecolor="#ffffff"
     bordercolor="#000000"
     borderopacity="0.25"
     inkscape:showpageshadow="2"
     inkscape:pageopacity="0.0"
     inkscape:pagecheckerboard="0"
     inkscape:deskcolor="#d1d1d1"
     inkscape:zoom="34.909091"
     inkscape:cx="11.014323"
     inkscape:cy="11"
     inkscape:current-layer="svg1" />
  <defs
     id="defs1">
    <linearGradient
       id="linearGradient1"
       inkscape:collect="always">
      <stop
         style="stop-color:#008080;stop-opacity:1"
         offset="0"
         id="stop1" />
      <stop
         style="stop-color:#bc5fd3;stop-opacity:1"
         offset="1"
         id="stop2" />
    </linearGradient>
    <style
       type="text/css"
       id="current-color-scheme">.ColorScheme-Text {color:#fcfcfc;}</style>
    <linearGradient
       inkscape:collect="always"
       xlink:href="#linearGradient1"
       id="linearGradient2"
       x1="4"
       y1="11"
       x2="18.207"
       y2="11"
       gradientUnits="userSpaceOnUse" />
  </defs>
  <path
     class="ColorScheme-Text"
     style="fill:url(#linearGradient2);fill-opacity:1;stroke:none"
     d="m 11,16 h 5.293 L 14,18.293 14.707,19 18.207,15.5 14.707,12 14,12.707 16.293,15 H 11 Z M 5,16 C 5,14 5,8 5,6 5,4 7,4 7,4 h 6 v 4 h 4 v 5 h 1 V 7 L 14,3 H 7 c 0,0 -3,0 -3,3 0,3 0,7 0,10 0,3 3,3 3,3 h 6 V 18 H 7 c 0,0 -2,0 -2,-2 z"
     id="path1" />
</svg>
