<?xml version="1.0" encoding="UTF-8" standalone="no"?>
<svg
   viewBox="0 0 22 22"
   version="1.1"
   id="svg1"
   sodipodi:docname="draw-brush.svg"
   inkscape:version="1.4.2 (unknown)"
   xmlns:inkscape="http://www.inkscape.org/namespaces/inkscape"
   xmlns:sodipodi="http://sodipodi.sourceforge.net/DTD/sodipodi-0.dtd"
   xmlns:xlink="http://www.w3.org/1999/xlink"
   xmlns="http://www.w3.org/2000/svg"
   xmlns:svg="http://www.w3.org/2000/svg">
  <sodipodi:namedview
     id="namedview1"
     pagecolor="#ffffff"
     bordercolor="#000000"
     borderopacity="0.25"
     inkscape:showpageshadow="2"
     inkscape:pageopacity="0.0"
     inkscape:pagecheckerboard="0"
     inkscape:deskcolor="#d1d1d1"
     inkscape:zoom="34.909091"
     inkscape:cx="11.014323"
     inkscape:cy="11"
     inkscape:current-layer="svg1" />
  <defs
     id="defs3051">
    <linearGradient
       id="linearGradient1"
       inkscape:collect="always">
      <stop
         style="stop-color:#ffcc00;stop-opacity:1"
         offset="0"
         id="stop1" />
      <stop
         style="stop-color:#c573d8;stop-opacity:1;"
         offset="1"
         id="stop2" />
    </linearGradient>
    <style
       type="text/css"
       id="current-color-scheme">.ColorScheme-Text { color: #fcfcfc; } </style>
    <linearGradient
       inkscape:collect="always"
       xlink:href="#linearGradient1"
       id="linearGradient2"
       x1="4"
       y1="12.000172"
       x2="20.000793"
       y2="12.000172"
       gradientUnits="userSpaceOnUse" />
  </defs>
  <path
     style="fill:url(#linearGradient2);fill-opacity:1;stroke:none"
     d="M19.513672 4.00781A2 9 45 0 0 12.06836 9.105469 2 9 45 0 0 8.525391 13.21875c1.07606.34264 1.915172 1.181743 2.257812 2.257812A2 9 45 0 0 14.896484 11.933594 2 9 45 0 0 19.845703 4.15625 2 9 45 0 0 19.513672 4.00781M8 14.664062C3.99999 15.735863 7 18.26795 4 20c4.00339 0 6-2.00082 6-3.335938 0-.66488.0676-1.88944-2-2z"
     transform="translate(-.99999-.99999)"
     class="ColorScheme-Text"
     id="path1" />
</svg>
