<?xml version="1.0" encoding="UTF-8" standalone="no"?>
<svg
   viewBox="0 0 22 22"
   version="1.1"
   id="svg1"
   sodipodi:docname="edit-cut.svg"
   inkscape:version="1.4.2 (unknown)"
   xmlns:inkscape="http://www.inkscape.org/namespaces/inkscape"
   xmlns:sodipodi="http://sodipodi.sourceforge.net/DTD/sodipodi-0.dtd"
   xmlns:xlink="http://www.w3.org/1999/xlink"
   xmlns="http://www.w3.org/2000/svg"
   xmlns:svg="http://www.w3.org/2000/svg">
  <sodipodi:namedview
     id="namedview1"
     pagecolor="#ffffff"
     bordercolor="#000000"
     borderopacity="0.25"
     inkscape:showpageshadow="2"
     inkscape:pageopacity="0.0"
     inkscape:pagecheckerboard="0"
     inkscape:deskcolor="#d1d1d1"
     inkscape:zoom="34.909091"
     inkscape:cx="11.014323"
     inkscape:cy="11"
     inkscape:current-layer="svg1" />
  <defs
     id="defs3051">
    <linearGradient
       id="linearGradient1"
       inkscape:collect="always">
      <stop
         style="stop-color:#ff2ad4;stop-opacity:1"
         offset="0"
         id="stop1" />
      <stop
         style="stop-color:#2ad4ff;stop-opacity:1"
         offset="1"
         id="stop2" />
    </linearGradient>
    <style
       type="text/css"
       id="current-color-scheme">.ColorScheme-Text { color: #fcfcfc; } </style>
    <linearGradient
       inkscape:collect="always"
       xlink:href="#linearGradient1"
       id="linearGradient2"
       x1="4.0000019"
       y1="19.000002"
       x2="18.000002"
       y2="6.5885425"
       gradientUnits="userSpaceOnUse" />
  </defs>
  <path
     style="fill:url(#linearGradient2);fill-opacity:1;stroke:none"
     d="m7.01172 3c-.57735 1-.878131 1-.300781 2l3.541016 6.140625-2.058594 3.527344c-.445257-.411453-1.036498-.667969-1.693359-.667969-1.385 0-2.5 1.115-2.5 2.5 0 1.385 1.115 2.5 2.5 2.5 1.385 0 2.5-1.115 2.5-2.5 0-.167103-.01785-.330523-.048828-.488281l1.162109-2.01367c.780419-.001.878798-.774603 1.333985-.785156l1.603515 2.78125c-.033193.163037-.050781.332734-.050781.505859 0 1.385 1.115 2.5 2.5 2.5 1.385 0 2.5-1.115 2.5-2.5 0-1.385-1.115-2.5-2.5-2.5-.653333 0-1.241072.254586-1.685547.662109l-2.054687-3.521484 3.541015-6.140625c.57735-1 .276569-1-.300781-2l-3.994141 6.847656-3.99414-6.847656m3.988281 8c.277 0 .5.223.5.5 0 .277-.223.5-.5.5-.277 0-.5-.223-.5-.5 0-.277.223-.5.5-.5zm-4.5 4c.831 0 1.5.669 1.5 1.5 0 .831-.669 1.5-1.5 1.5-.831 0-1.5-.669-1.5-1.5 0-.831.669-1.5 1.5-1.5m9 0c.831 0 1.5.669 1.5 1.5 0 .831-.669 1.5-1.5 1.5-.831 0-1.5-.669-1.5-1.5 0-.831.669-1.5 1.5-1.5"
     class="ColorScheme-Text"
     id="path1" />
</svg>
