<?xml version="1.0" encoding="UTF-8" standalone="no"?>
<svg
   width="32"
   height="32"
   version="1.1"
   id="svg1"
   sodipodi:docname="document-open-recent.svg"
   inkscape:version="1.4.4 (unknown)"
   xmlns:inkscape="http://www.inkscape.org/namespaces/inkscape"
   xmlns:sodipodi="http://sodipodi.sourceforge.net/DTD/sodipodi-0.dtd"
   xmlns="http://www.w3.org/2000/svg"
   xmlns:svg="http://www.w3.org/2000/svg">
  <defs
     id="defs1" />
  <sodipodi:namedview
     id="namedview1"
     pagecolor="#ffffff"
     bordercolor="#000000"
     borderopacity="0.25"
     inkscape:showpageshadow="2"
     inkscape:pageopacity="0.0"
     inkscape:pagecheckerboard="0"
     inkscape:deskcolor="#d1d1d1"
     inkscape:zoom="23.65625"
     inkscape:cx="16.021136"
     inkscape:cy="16"
     inkscape:window-width="1920"
     inkscape:window-height="994"
     inkscape:window-x="0"
     inkscape:window-y="0"
     inkscape:window-maximized="1"
     inkscape:current-layer="svg1" />
  <style
     type="text/css"
     id="current-color-scheme">
      .ColorScheme-Text {
        color:#fcfcfc;
      }
      .ColorScheme-Background {
        color:#eff0f1;
      }
      .ColorScheme-Highlight {
        color:#fcfcfc;
      }
      .ColorScheme-ViewText {
        color:#fcfcfc;
      }
      .ColorScheme-ViewBackground {
        color:#fcfcfc;
      }
      .ColorScheme-ViewHover {
        color:#93cee9;
      }
      .ColorScheme-ViewFocus{
        color:#fcfcfc;
      }
      .ColorScheme-ButtonText {
        color:#31363b;
      }
      .ColorScheme-ButtonBackground {
        color:#eff0f1;
      }
      .ColorScheme-ButtonHover {
        color:#93cee9;
      }
      .ColorScheme-ButtonFocus{
        color:#fcfcfc;
      }
      .ColorScheme-NegativeText {
        color:#da4453;
      }
  </style>
  <g
     transform="translate(27,27) translate(-22,-22)"
     id="document-open-recent">
    <path
       id="path14"
       d="m 0,1 c 0,0 0,16 0,20 0,4 4,4 4,4 l 6,0 V 24 H 4 C 4,24 1,24 1,21 1,18 1,1 1,1 c 0,0 0,-3 3,-3 3,0 11,0 14,0 3,0 3,3 3,3 v 12 h 1 V 1 C 22,1 22,-3 18,-3 14,-3 8,-3 4,-3 0,-3 0,1 0,1 Z m 16,12 c -3.313708,0 -6,2.686292 -6,6 0,3.313708 2.686292,6 6,6 3.313708,0 6,-2.686292 6,-6 0,-3.313708 -2.686292,-6 -6,-6 z m 0,1 c 2.761424,0 5,2.238576 5,5 0,2.761424 -2.238576,5 -5,5 -2.761424,0 -5,-2.238576 -5,-5 0,-2.761424 2.238576,-5 5,-5 z m -1,1 v 5 h 1 3 v -1 h -3 v -4 z"
       style="opacity:1;fill:#00ccff"
       class="ColorScheme-Text" />
    <rect
       id="rect23"
       width="32"
       height="32"
       x="-5"
       y="-5"
       style="opacity:1;fill:none" />
  </g>
</svg>
