<?xml version="1.0" encoding="UTF-8" standalone="no"?>
<svg
   viewBox="0 0 24 24"
   version="1.1"
   id="svg1"
   sodipodi:docname="folder-virtualbox.svg"
   width="24"
   height="24"
   inkscape:version="1.4.3 (unknown)"
   xmlns:inkscape="http://www.inkscape.org/namespaces/inkscape"
   xmlns:sodipodi="http://sodipodi.sourceforge.net/DTD/sodipodi-0.dtd"
   xmlns="http://www.w3.org/2000/svg"
   xmlns:svg="http://www.w3.org/2000/svg">
  <defs
     id="defs1" />
  <sodipodi:namedview
     id="namedview1"
     pagecolor="#ffffff"
     bordercolor="#000000"
     borderopacity="0.25"
     inkscape:showpageshadow="2"
     inkscape:pageopacity="0.0"
     inkscape:pagecheckerboard="0"
     inkscape:deskcolor="#d1d1d1"
     inkscape:zoom="33.45499"
     inkscape:cx="11.567781"
     inkscape:cy="13.01749"
     inkscape:window-width="1920"
     inkscape:window-height="994"
     inkscape:window-x="0"
     inkscape:window-y="0"
     inkscape:window-maximized="1"
     inkscape:current-layer="svg1" />
  <style
     type="text/css"
     id="current-color-scheme">.ColorScheme-Text {color:#fcfcfc;}</style>
  <path
     id="path2"
     class="ColorScheme-Text"
     fill="currentColor"
     d="M 7,4 C 5.3380015,4 4,5.3380015 4,7 v 10 c 0,1.661989 1.3380015,3 3,3 h 10 c 1.661989,0 3,-1.338011 3,-3 V 7 C 20,5.3380015 18.661989,4 17,4 Z m 0,1 h 10 c 1.107999,0 2,0.892001 2,2 v 7.214849 H 16.5 L 16.173819,13.003898 14.878904,8.2089853 14.285151,6 13.693349,8.2089853 13.01953,10.726562 12.443359,8.5820312 12.343743,8.2089853 11.753908,6.007812 10.529295,10.583986 9.726562,13.580069 8.7011713,9.800783 8,7.2148442 H 5 V 7 C 5,5.892001 5.892001,5 7,5 Z M 5,8.2148442 h 2 l 0.2753907,0.9746088 1.8574223,6.591801 0.589847,2.205082 0.59179,-2.205082 1.271485,-4.744144 0.166024,-0.623046 0.210931,0.785152 0.464839,1.73438 0.591801,2.20898 0.591802,-2.20898 0.246093,-0.921883 0.427726,-1.595699 0.505867,1.994133 L 15.5,15.214849 H 19 V 17 c 0,1.107999 -0.892001,2 -2,2 H 7 C 5.892001,19 5,18.107999 5,17 Z"
     style="stroke-width:1.33326" />
</svg>
